<svg width="570" height="691" viewBox="0 0 570 691" fill="none" xmlns="http://www.w3.org/2000/svg">
<g opacity="0.9">
<path d="M514.284 635.697C514.284 635.697 517.24 614.072 531.063 611.711C544.886 609.351 540.739 598.953 544.333 594.828C547.926 590.703 557.368 602.717 549.287 614.284C541.207 625.852 547.82 622.237 544.333 632.996C540.845 643.756 512.923 653.643 514.284 635.697Z" fill="#263238"/>
<path opacity="0.2" d="M514.284 635.697C514.284 635.697 517.24 614.072 531.063 611.711C544.886 609.351 540.739 598.953 544.333 594.828C547.926 590.703 557.368 602.717 549.287 614.284C541.207 625.852 547.82 622.237 544.333 632.996C540.845 643.756 512.923 653.643 514.284 635.697Z" fill="white"/>
<path d="M518.792 650.475C518.637 650.475 518.484 650.437 518.347 650.365C518.21 650.293 518.093 650.188 518.005 650.061C517.917 649.933 517.861 649.786 517.843 649.633C517.824 649.479 517.843 649.323 517.899 649.178C517.899 648.944 526.405 626.192 518.239 591.532C515.711 581.576 512.147 571.912 507.606 562.698C499.61 545.347 492.72 530.378 502.949 502.416C506.096 493.783 509.329 485.702 512.561 477.899C524.278 449.108 533.55 426.355 523.768 405.304C523.665 405.072 523.657 404.81 523.744 404.572C523.831 404.334 524.008 404.139 524.236 404.028C524.35 403.972 524.474 403.939 524.601 403.932C524.728 403.925 524.855 403.944 524.974 403.988C525.094 404.032 525.203 404.099 525.295 404.187C525.388 404.274 525.461 404.379 525.512 404.496C535.634 426.292 526.235 449.384 514.347 478.622C511.179 486.404 507.968 494.463 504.735 503.075C494.783 530.292 501.205 544.22 509.35 561.89C513.964 571.221 517.598 581.005 520.195 591.085C528.595 626.362 519.855 649.646 519.77 649.88C519.696 650.073 519.56 650.237 519.382 650.345C519.205 650.452 518.998 650.498 518.792 650.475Z" fill="#263238"/>
<path d="M522.79 645.435C522.79 645.435 531.721 631.954 518.813 625.022C505.905 618.09 503.332 623.661 495.421 618.643C487.51 613.625 481.386 601.632 480.025 609.308C478.664 616.985 487.893 621.45 484.618 624.98C481.343 628.51 506.224 651.411 522.79 645.435Z" fill="#263238"/>
<path d="M529.17 415.809C529.17 415.809 535.741 388.719 515.943 389.739C496.145 390.76 519.962 413.725 529.17 415.809Z" fill="#263238"/>
<path d="M513.708 437.476C513.708 437.476 505.904 413.937 492.273 420.125C478.641 426.313 499.758 439.05 513.708 437.476Z" fill="#263238"/>
<path d="M537.676 437.646C537.676 437.646 534.04 418.658 548.883 417.084C563.727 415.511 558.432 432.883 537.676 437.646Z" fill="#263238"/>
<path d="M530.893 477.516C530.893 477.516 549.436 458.123 557.687 470.797C565.938 483.47 543.907 487.999 530.893 477.516Z" fill="#263238"/>
<path d="M495.315 477.197C495.315 477.197 489.191 447.938 473.795 458.485C458.398 469.032 481.493 481.301 495.315 477.197Z" fill="#263238"/>
<path d="M484.512 520.66C484.512 520.66 494.018 489.827 472.178 494.973C450.339 500.119 468.308 514.664 484.512 520.66Z" fill="#263238"/>
<path d="M519.324 528.591C519.324 528.591 536.23 505.074 551.074 510.921C565.917 516.769 556.007 539.563 519.324 528.591Z" fill="#263238"/>
<path d="M506.265 578.71C506.265 578.71 487.509 544.688 474.367 557.701C461.225 570.715 485.723 586.684 506.265 578.71Z" fill="#263238"/>
<path d="M529.17 574.861C529.17 574.861 522.791 547.771 538.697 548.707C554.604 549.643 551.903 566.696 529.17 574.861Z" fill="#263238"/>
<g opacity="0.2">
<path d="M529.17 415.808C529.17 415.808 535.741 388.718 515.943 389.739C496.145 390.76 519.962 413.725 529.17 415.808Z" fill="white"/>
<path d="M513.708 437.476C513.708 437.476 505.904 413.937 492.273 420.125C478.641 426.313 499.758 439.05 513.708 437.476Z" fill="white"/>
<path d="M537.676 437.646C537.676 437.646 534.04 418.658 548.883 417.084C563.727 415.511 558.432 432.883 537.676 437.646Z" fill="white"/>
<path d="M530.893 477.516C530.893 477.516 549.436 458.123 557.687 470.797C565.938 483.47 543.907 487.999 530.893 477.516Z" fill="white"/>
<path d="M495.315 477.197C495.315 477.197 489.191 447.938 473.795 458.485C458.398 469.032 481.493 481.301 495.315 477.197Z" fill="white"/>
<path d="M484.512 520.66C484.512 520.66 494.018 489.827 472.178 494.973C450.339 500.119 468.308 514.663 484.512 520.66Z" fill="white"/>
<path d="M519.324 528.591C519.324 528.591 536.23 505.074 551.074 510.921C565.917 516.769 556.007 539.563 519.324 528.591Z" fill="white"/>
<path d="M506.265 578.71C506.265 578.71 487.509 544.688 474.367 557.701C461.225 570.715 485.723 586.684 506.265 578.71Z" fill="white"/>
<path d="M529.17 574.861C529.17 574.861 522.791 547.771 538.697 548.707C554.604 549.643 551.903 566.696 529.17 574.861Z" fill="white"/>
</g>
<path d="M523.513 452.68H523.322C523.069 452.623 522.848 452.471 522.705 452.255C522.705 452.106 513.901 438.22 507.926 435.244C507.697 435.131 507.523 434.932 507.441 434.691C507.36 434.449 507.377 434.185 507.49 433.957C507.603 433.729 507.802 433.554 508.043 433.473C508.284 433.391 508.548 433.408 508.776 433.521C514.391 436.307 521.748 447.194 523.79 450.362C530.823 444.91 536.756 438.17 541.27 430.502C541.394 430.279 541.602 430.115 541.847 430.045C542.092 429.975 542.355 430.006 542.578 430.13C542.801 430.254 542.965 430.461 543.035 430.706C543.105 430.952 543.074 431.215 542.95 431.437C542.631 431.99 535.209 445.046 524.045 452.51C523.889 452.619 523.704 452.679 523.513 452.68Z" fill="#263238"/>
<path d="M508.352 490.806C508.216 490.794 508.084 490.751 507.966 490.681C507.848 490.611 507.748 490.516 507.672 490.402C507.672 490.253 496.869 475.198 484.28 469.138C484.081 469.007 483.937 468.809 483.875 468.579C483.812 468.35 483.835 468.106 483.939 467.892C484.043 467.679 484.221 467.511 484.441 467.419C484.66 467.327 484.905 467.318 485.13 467.394C496.614 472.987 506.204 485.149 508.692 488.53C524.748 474.815 546.013 473.646 546.226 473.646C546.478 473.64 546.723 473.732 546.91 473.902C547.096 474.072 547.209 474.308 547.225 474.56C547.234 474.685 547.218 474.81 547.177 474.928C547.137 475.046 547.073 475.155 546.99 475.248C546.907 475.341 546.805 475.417 546.693 475.47C546.58 475.524 546.457 475.554 546.332 475.56C546.12 475.56 524.79 476.75 509.182 490.657C509.063 490.742 508.927 490.799 508.784 490.825C508.64 490.851 508.493 490.844 508.352 490.806Z" fill="#263238"/>
<path d="M500.694 540.201C500.503 540.205 500.316 540.145 500.162 540.031C487.403 531.526 476.451 508.412 476.004 507.434C475.895 507.206 475.88 506.943 475.964 506.704C476.048 506.465 476.223 506.268 476.451 506.158C476.565 506.102 476.689 506.069 476.816 506.062C476.943 506.055 477.07 506.074 477.19 506.118C477.309 506.161 477.418 506.229 477.511 506.316C477.603 506.404 477.677 506.509 477.727 506.626C477.833 506.839 488.679 529.485 500.715 538.075C504.436 535.566 525.298 521.957 542.012 520.299C542.262 520.28 542.509 520.358 542.703 520.516C542.897 520.675 543.023 520.901 543.054 521.149C543.069 521.275 543.059 521.402 543.024 521.524C542.989 521.646 542.93 521.76 542.851 521.858C542.772 521.957 542.674 522.04 542.563 522.1C542.452 522.161 542.33 522.199 542.204 522.212C524.66 523.956 501.48 539.882 501.247 540.031C501.086 540.148 500.892 540.208 500.694 540.201Z" fill="#263238"/>
<path d="M518.792 589.193C518.653 589.198 518.515 589.17 518.389 589.111C518.263 589.052 518.154 588.963 518.069 588.853C510.579 581.2 500.936 576.008 490.424 573.968C490.299 573.943 490.181 573.893 490.077 573.821C489.972 573.749 489.883 573.657 489.816 573.549C489.748 573.442 489.703 573.322 489.683 573.197C489.664 573.071 489.669 572.943 489.701 572.82C489.726 572.698 489.775 572.582 489.846 572.479C489.917 572.376 490.007 572.289 490.112 572.221C490.217 572.154 490.335 572.108 490.457 572.087C490.58 572.066 490.706 572.069 490.828 572.097C501.447 574.184 511.213 579.362 518.898 586.982C527.064 580.603 536.655 557.595 536.761 557.361C536.808 557.243 536.878 557.136 536.967 557.046C537.056 556.956 537.162 556.885 537.279 556.838C537.397 556.79 537.522 556.766 537.649 556.769C537.776 556.771 537.9 556.799 538.016 556.851C538.132 556.9 538.237 556.971 538.326 557.06C538.414 557.15 538.484 557.256 538.531 557.372C538.579 557.489 538.603 557.614 538.602 557.74C538.601 557.865 538.575 557.99 538.526 558.106C538.101 559.126 528.085 583.09 519.387 589.066C519.21 589.177 518.999 589.222 518.792 589.193Z" fill="#263238"/>
<path d="M521.387 642.204C521.387 642.204 529.064 629.998 537.719 628.276C546.374 626.553 550.116 616.559 553.306 622.556C556.496 628.552 547.692 648.434 521.387 642.204Z" fill="#263238"/>
<path d="M561.195 690.111H477.452L471.838 638.482H566.788L561.195 690.111Z" fill="#7E007E"/>
<path d="M568.745 648.264H469.882L468.627 637.313H570L568.745 648.264Z" fill="#7E007E"/>
<path opacity="0.3" d="M568.745 648.264H469.882L468.627 637.313H570L568.745 648.264Z" fill="white"/>
</g>
<g opacity="0.9">
<path opacity="0.1" d="M359.402 345.132V643.037C359.4 644.145 359.177 645.242 358.746 646.263C358.316 647.284 357.686 648.21 356.895 648.985C356.103 649.761 355.165 650.372 354.135 650.781C353.105 651.191 352.004 651.392 350.896 651.372H49.926C48.9224 651.387 47.9261 651.199 46.9968 650.82C46.0676 650.44 45.2244 649.877 44.5176 649.165C43.8109 648.452 43.2551 647.604 42.8836 646.672C42.5121 645.74 42.3325 644.742 42.3555 643.739V508.225C126.12 397.972 270.066 358.911 359.402 345.132Z" fill="white"/>
<path opacity="0.1" d="M342.984 65.8756C314.935 143.573 223.684 356.955 42.3537 443.987V72.9564C42.2785 71.1845 42.907 69.4547 44.1021 68.1442C45.2971 66.8337 46.9619 66.0489 48.7333 65.9607H123.992C125.05 65.9787 126.079 66.312 126.946 66.9181C127.814 67.5242 128.481 68.3755 128.862 69.3628L131.966 77.0178C132.347 77.9915 133.01 78.8293 133.87 79.4241C134.73 80.0188 135.748 80.3434 136.794 80.3562H265.131C266.175 80.351 267.194 80.0347 268.058 79.4476C268.921 78.8605 269.59 78.0294 269.979 77.0603L273.084 69.3628C273.466 68.3804 274.13 67.533 274.993 66.9275C275.856 66.3221 276.879 65.9856 277.933 65.9607L342.984 65.8756Z" fill="white"/>
<path d="M32.8049 78.7399V629.641C31.7503 629.635 30.7071 629.422 29.7352 629.012C28.7632 628.603 27.8816 628.006 27.1408 627.255C26.4 626.505 25.8146 625.615 25.4181 624.638C25.0217 623.661 24.8219 622.615 24.8303 621.56V86.7563C24.8303 84.6376 25.6691 82.605 27.1634 81.1028C28.6577 79.6006 30.686 78.7511 32.8049 78.7399Z" fill="#263238"/>
<path d="M30.17 68.2569H24.6623C23.1003 68.2569 21.834 69.523 21.834 71.0849V99.1743C21.834 100.736 23.1003 102.002 24.6623 102.002H30.17C31.7321 102.002 32.9984 100.736 32.9984 99.1743V71.0849C32.9984 69.523 31.7321 68.2569 30.17 68.2569Z" fill="#263238"/>
<g opacity="0.4">
<path d="M33.0216 71.1063V99.1956C33.016 99.942 32.7155 100.656 32.1857 101.182C31.6559 101.707 30.9397 102.002 30.1933 102.002H24.6642C23.9178 102.002 23.2016 101.707 22.6718 101.182C22.142 100.656 21.8415 99.942 21.8359 99.1956V71.1063C21.8359 70.3542 22.1332 69.6327 22.663 69.0989C23.1928 68.5652 23.9122 68.2625 24.6642 68.2569H30.1933C30.9453 68.2625 31.6647 68.5652 32.1945 69.0989C32.7243 69.6327 33.0216 70.3542 33.0216 71.1063Z" fill="white"/>
</g>
<g opacity="0.2">
<path d="M28.9599 71.1063V99.1956C28.9543 99.942 28.6538 100.656 28.124 101.182C27.5942 101.707 26.878 102.002 26.1316 102.002H24.6642C23.9178 102.002 23.2016 101.707 22.6718 101.182C22.142 100.656 21.8415 99.942 21.8359 99.1956V71.1063C21.8359 70.3542 22.1332 69.6327 22.663 69.0989C23.1928 68.5652 23.9122 68.2625 24.6642 68.2569H26.1316C26.8836 68.2625 27.603 68.5652 28.1328 69.0989C28.6626 69.6327 28.9599 70.3542 28.9599 71.1063Z" fill="white"/>
</g>
<path d="M24.4914 97.7284H18.452C17.1433 97.7312 15.8468 97.4758 14.6369 96.977C13.427 96.4781 12.3274 95.7456 11.401 94.8212C10.4746 93.8969 9.73958 92.7989 9.2381 91.5901C8.73663 90.3814 8.47851 89.0856 8.47852 87.777V82.1633C8.48415 79.5221 9.53741 76.9909 11.4072 75.1253C13.277 73.2597 15.8106 72.2119 18.452 72.2119H24.5978C24.8174 72.2119 25.0348 72.2555 25.2375 72.3401C25.4401 72.4248 25.6239 72.5489 25.7782 72.7052C25.9325 72.8614 26.0543 73.0468 26.1364 73.2505C26.2185 73.4542 26.2593 73.6721 26.2565 73.8917V76.6135C26.2593 76.8331 26.2185 77.051 26.1364 77.2547C26.0543 77.4584 25.9325 77.6438 25.7782 77.8C25.6239 77.9563 25.4401 78.0804 25.2375 78.1651C25.0348 78.2497 24.8174 78.2933 24.5978 78.2933H18.452C17.4236 78.2933 16.437 78.7004 15.7078 79.4255C14.9786 80.1507 14.5661 81.135 14.5604 82.1633V87.8407C14.5604 88.3507 14.6613 88.8557 14.8571 89.3267C15.0529 89.7976 15.3399 90.2251 15.7015 90.5848C16.0632 90.9444 16.4924 91.229 16.9644 91.4223C17.4364 91.6155 17.942 91.7136 18.452 91.7108H24.5978C25.0396 91.7163 25.4615 91.8958 25.7719 92.2102C26.0824 92.5246 26.2565 92.9487 26.2565 93.3906V96.1336C26.2484 96.3552 26.196 96.573 26.1023 96.774C26.0086 96.975 25.8755 97.1552 25.7109 97.3039C25.5464 97.4526 25.3537 97.5667 25.1442 97.6397C24.9347 97.7126 24.7127 97.7427 24.4914 97.7284Z" fill="#263238"/>
<g opacity="0.6">
<path d="M24.4934 97.7283H18.454C17.1452 97.7311 15.8488 97.4758 14.6389 96.977C13.429 96.4781 12.3294 95.7455 11.4029 94.8212C10.4765 93.8968 9.74153 92.7988 9.24006 91.5901C8.73858 90.3813 8.48047 89.0856 8.48047 87.7769V82.1633C8.4861 79.5221 9.53936 76.9909 11.4091 75.1253C13.2789 73.2596 15.8125 72.2118 18.454 72.2119H24.5997C24.8193 72.2118 25.0368 72.2554 25.2394 72.3401C25.4421 72.4248 25.6259 72.5489 25.7802 72.7051C25.9345 72.8614 26.0562 73.0468 26.1383 73.2504C26.2204 73.4541 26.2612 73.6721 26.2584 73.8917V76.6135C26.2612 76.8331 26.2204 77.051 26.1383 77.2547C26.0562 77.4584 25.9345 77.6437 25.7802 77.8C25.6259 77.9563 25.4421 78.0803 25.2394 78.165C25.0368 78.2497 24.8193 78.2933 24.5997 78.2933H18.454C17.4255 78.2933 16.4389 78.7003 15.7097 79.4255C14.9805 80.1506 14.568 81.135 14.5624 82.1633V87.8407C14.5624 88.3507 14.6632 88.8557 14.859 89.3266C15.0549 89.7976 15.3418 90.2251 15.7035 90.5848C16.0651 90.9444 16.4943 91.229 16.9663 91.4222C17.4384 91.6155 17.9439 91.7135 18.454 91.7107H24.5997C25.0416 91.7163 25.4634 91.8957 25.7739 92.2102C26.0844 92.5246 26.2584 92.9487 26.2584 93.3905V96.1336C26.2503 96.3552 26.1979 96.573 26.1042 96.774C26.0105 96.975 25.8774 97.1552 25.7129 97.3038C25.5483 97.4525 25.3556 97.5667 25.1461 97.6396C24.9367 97.7125 24.7147 97.7427 24.4934 97.7283Z" fill="white"/>
</g>
<path d="M14.752 605.677L27.4049 610.206V618.924L14.752 621.412V605.677Z" fill="#263238"/>
<path d="M14.752 580.968L27.4049 585.518V594.215L14.752 596.724V580.968Z" fill="#263238"/>
<path d="M14.752 556.281L27.4049 560.81V569.507L14.752 572.016V556.281Z" fill="#263238"/>
<path d="M14.752 531.572L27.4049 536.102V544.82L14.752 547.307V531.572Z" fill="#263238"/>
<path d="M14.752 506.864L27.4049 511.414V520.111L14.752 522.62V506.864Z" fill="#263238"/>
<path d="M14.752 482.177L27.4049 486.706V495.424L14.752 497.912V482.177Z" fill="#263238"/>
<path d="M14.752 457.468L27.4049 462.019V470.716L14.752 473.225V457.468Z" fill="#263238"/>
<path d="M14.752 432.781L27.4049 437.31V446.007L14.752 448.516V432.781Z" fill="#263238"/>
<path d="M14.752 408.073L27.4049 412.602V421.32L14.752 423.808V408.073Z" fill="#263238"/>
<path d="M14.752 383.364L27.4049 387.915V396.611L14.752 399.121V383.364Z" fill="#263238"/>
<path d="M14.752 358.677L27.4049 363.206V371.924L14.752 374.412V358.677Z" fill="#263238"/>
<path d="M14.752 333.968L27.4049 338.519V347.216L14.752 349.704V333.968Z" fill="#263238"/>
<path d="M14.752 309.26L27.4049 313.811V322.507L14.752 325.017V309.26Z" fill="#263238"/>
<path d="M14.752 284.573L27.4049 289.102V297.82L14.752 300.308V284.573Z" fill="#263238"/>
<path d="M14.752 259.865L27.4049 264.415V273.112L14.752 275.621V259.865Z" fill="#263238"/>
<path d="M14.752 235.177L27.4049 239.706V248.403L14.752 250.912V235.177Z" fill="#263238"/>
<path d="M14.752 210.469L27.4049 215.019V223.716L14.752 226.204V210.469Z" fill="#263238"/>
<path d="M14.752 185.76L27.4049 190.311V199.008L14.752 201.517V185.76Z" fill="#263238"/>
<path d="M14.752 161.073L27.4049 165.602V174.321L14.752 176.808V161.073Z" fill="#263238"/>
<path d="M14.752 136.365L27.4049 140.915V149.612L14.752 152.1V136.365Z" fill="#263238"/>
<path d="M14.752 111.678L27.4049 116.207V124.904L14.752 127.413V111.678Z" fill="#263238"/>
<path d="M17.07 24.8364H1.54618C0.44038 24.8364 -0.24012 26.176 0.0788617 27.7283L11.2858 84.4386C11.5622 85.8633 12.583 86.969 13.5825 86.969H23.8537C24.8531 86.969 25.5336 85.8633 25.3848 84.4386L19.4092 27.7283C19.239 26.176 18.1758 24.8364 17.07 24.8364ZM17.793 77.8682C17.8814 78.437 17.8077 79.0192 17.5803 79.548C17.2279 79.0453 16.9885 78.4722 16.8786 77.8682L16.2406 73.6154C16.1516 73.0396 16.2252 72.4504 16.4533 71.9143C16.8085 72.4233 17.0481 73.004 17.155 73.6154L17.793 77.8682ZM10.0949 30.0673C11.1795 30.0673 12.2214 31.3006 12.4554 32.8103L13.0933 36.9567C13.3272 38.4665 12.6255 39.6998 11.5622 39.6998C10.4777 39.6998 9.43566 38.4665 9.20174 36.9567L8.5638 32.8103C8.32988 31.3006 9.03164 30.0673 10.0949 30.0673Z" fill="#263238"/>
<path opacity="0.4" d="M17.07 24.8364H1.54618C0.44038 24.8364 -0.24012 26.176 0.0788617 27.7283L11.2858 84.4386C11.5622 85.8633 12.583 86.969 13.5825 86.969H23.8537C24.8531 86.969 25.5336 85.8633 25.3848 84.4386L19.4092 27.7283C19.239 26.176 18.1758 24.8364 17.07 24.8364ZM17.793 77.8682C17.8814 78.437 17.8077 79.0192 17.5803 79.548C17.2279 79.0453 16.9885 78.4722 16.8786 77.8682L16.2406 73.6154C16.1516 73.0396 16.2252 72.4504 16.4533 71.9143C16.8085 72.4233 17.0481 73.004 17.155 73.6154L17.793 77.8682ZM10.0949 30.0673C11.1795 30.0673 12.2214 31.3006 12.4554 32.8103L13.0933 36.9567C13.3272 38.4665 12.6255 39.6998 11.5622 39.6998C10.4777 39.6998 9.43566 38.4665 9.20174 36.9567L8.5638 32.8103C8.32988 31.3006 9.03164 30.0673 10.0949 30.0673Z" fill="white"/>
<path opacity="0.2" d="M11.2858 84.4386C11.5622 85.8633 12.583 86.969 13.5825 86.969H20.919C21.9398 86.969 22.599 85.8633 22.4502 84.4386L16.4746 27.7283C16.3257 26.176 15.2411 24.8364 14.1353 24.8364H1.54618C0.44038 24.8364 -0.24012 26.176 0.0788617 27.7283L11.2858 84.4386ZM17.793 77.8682C18.0057 79.3566 17.3464 80.5687 16.2831 80.5687C15.2199 80.5687 14.1566 79.3566 13.9652 77.8682L13.3272 73.6154C13.0933 72.1057 13.7738 70.8937 14.8158 70.8937C15.8578 70.8937 16.9424 72.1057 17.155 73.6154L17.793 77.8682ZM7.16027 30.0673H10.0949C11.1795 30.0673 12.2214 31.3006 12.4554 32.8103L13.0933 36.9567C13.3272 38.4665 12.6255 39.6998 11.5622 39.6998H8.62759C7.54305 39.6998 6.50104 38.4665 6.26712 36.9567L5.62915 32.8103C5.39523 31.3006 6.097 30.0673 7.16027 30.0673Z" fill="white"/>
<path d="M24.4921 91.647H18.4527C17.9426 91.6498 17.4371 91.5518 16.9651 91.3586C16.493 91.1653 16.0638 90.8807 15.7022 90.5211C15.3405 90.1614 15.0536 89.7339 14.8577 89.263C14.6619 88.792 14.5611 88.287 14.5611 87.777V82.1634C14.5637 81.3169 14.8438 80.4946 15.3585 79.8224C15.8732 79.1503 16.594 78.6655 17.4107 78.4423V76.571L17.0917 75.8055C17.0917 75.8055 17.0917 75.8055 17.0917 75.6992V75.5929C17.0917 75.4016 16.7514 73.105 16.7514 72.9137C16.741 72.7863 16.741 72.6583 16.7514 72.5309C14.4639 72.9295 12.389 74.1186 10.8888 75.8907C9.38859 77.6628 8.55833 79.9055 8.54297 82.2272V87.8408C8.54297 89.1495 8.80111 90.4452 9.30259 91.654C9.80407 92.8627 10.539 93.9607 11.4654 94.8851C12.3919 95.8094 13.4915 96.542 14.7014 97.0408C15.9113 97.5397 17.2077 97.795 18.5165 97.7922H24.6622C25.1021 97.7922 25.524 97.6175 25.8351 97.3065C26.1462 96.9954 26.3209 96.5735 26.3209 96.1337V93.3907C26.331 93.1517 26.2898 92.9132 26.2003 92.6914C26.1108 92.4696 25.9749 92.2695 25.8017 92.1044C25.6286 91.9393 25.4222 91.8131 25.1963 91.7342C24.9704 91.6554 24.7304 91.6256 24.4921 91.647Z" fill="#263238"/>
<g opacity="0.6">
<path d="M24.4921 91.647H18.4527C17.9426 91.6498 17.4371 91.5518 16.9651 91.3585C16.493 91.1653 16.0638 90.8807 15.7022 90.521C15.3405 90.1614 15.0536 89.7338 14.8577 89.2629C14.6619 88.792 14.5611 88.287 14.5611 87.777V82.1634C14.5637 81.3169 14.8438 80.4945 15.3585 79.8224C15.8732 79.1503 16.594 78.6655 17.4107 78.4422V76.571L17.0917 75.8055C17.0917 75.8055 17.0917 75.8055 17.0917 75.6992V75.5929C17.0917 75.4015 16.7514 73.105 16.7514 72.9136C16.741 72.7863 16.741 72.6583 16.7514 72.5309C14.4639 72.9295 12.389 74.1186 10.8888 75.8907C9.38859 77.6628 8.55833 79.9054 8.54297 82.2272V87.8408C8.54297 89.1494 8.80111 90.4452 9.30259 91.654C9.80407 92.8627 10.539 93.9607 11.4654 94.8851C12.3919 95.8094 13.4915 96.542 14.7014 97.0408C15.9113 97.5397 17.2077 97.795 18.5165 97.7922H24.6622C25.1021 97.7922 25.524 97.6175 25.8351 97.3064C26.1462 96.9954 26.3209 96.5735 26.3209 96.1336V93.3906C26.331 93.1516 26.2898 92.9132 26.2003 92.6914C26.1108 92.4696 25.9749 92.2694 25.8017 92.1043C25.6286 91.9393 25.4222 91.8131 25.1963 91.7342C24.9704 91.6553 24.7304 91.6256 24.4921 91.647Z" fill="white"/>
</g>
<path d="M350.513 53.0533H51.2649C40.0136 53.0533 30.8926 62.1736 30.8926 73.424V644.142C30.8926 655.393 40.0136 664.513 51.2649 664.513H350.513C361.764 664.513 370.885 655.393 370.885 644.142V73.424C370.885 62.1736 361.764 53.0533 350.513 53.0533Z" fill="#263238"/>
<path opacity="0.3" d="M350.513 53.0533H51.2649C40.0136 53.0533 30.8926 62.1736 30.8926 73.424V644.142C30.8926 655.393 40.0136 664.513 51.2649 664.513H350.513C361.764 664.513 370.885 655.393 370.885 644.142V73.424C370.885 62.1736 361.764 53.0533 350.513 53.0533Z" fill="white"/>
<path d="M359.401 73.5305V642.931C359.398 644.039 359.175 645.136 358.744 646.157C358.314 647.178 357.685 648.103 356.893 648.879C356.101 649.655 355.163 650.265 354.133 650.675C353.104 651.085 352.003 651.286 350.894 651.266H49.9242C48.9206 651.281 47.9243 651.093 46.9951 650.713C46.0658 650.334 45.2226 649.771 44.5158 649.059C43.8091 648.346 43.2533 647.498 42.8818 646.566C42.5103 645.633 42.3307 644.636 42.3537 643.632V72.9564C42.2785 71.1844 42.907 69.4547 44.1021 68.1442C45.2971 66.8337 46.9619 66.0488 48.7333 65.9606H123.992C125.05 65.9786 126.079 66.312 126.946 66.9181C127.814 67.5242 128.481 68.3754 128.862 69.3628L131.966 77.0177C132.347 77.9914 133.01 78.8293 133.87 79.424C134.73 80.0188 135.748 80.3433 136.794 80.3561H265.131C266.175 80.3509 267.194 80.0346 268.058 79.4475C268.921 78.8605 269.59 78.0293 269.979 77.0602L273.084 69.3628C273.466 68.3803 274.13 67.533 274.993 66.9275C275.856 66.322 276.879 65.9856 277.933 65.9606H352.128C354.08 66.0479 355.924 66.8825 357.278 68.2916C358.632 69.7008 359.392 71.5765 359.401 73.5305Z" fill="#263238"/>
<path opacity="0.6" d="M200.825 66.5771C200.825 67.4182 200.575 68.2404 200.108 68.9398C199.64 69.6392 198.976 70.1842 198.199 70.5061C197.422 70.828 196.567 70.9122 195.742 70.7481C194.917 70.584 194.159 70.179 193.564 69.5842C192.969 68.9895 192.564 68.2317 192.4 67.4068C192.236 66.5818 192.32 65.7267 192.642 64.9496C192.964 64.1725 193.509 63.5084 194.209 63.0411C194.908 62.5738 195.73 62.3243 196.571 62.3243C197.691 62.3513 198.757 62.8081 199.549 63.5998C200.341 64.3916 200.798 65.4577 200.825 66.5771Z" fill="white"/>
<path opacity="0.6" d="M209.628 66.577C209.628 67.128 209.465 67.6665 209.159 68.1246C208.853 68.5827 208.418 68.9397 207.908 69.1505C207.399 69.3614 206.839 69.4166 206.299 69.3091C205.759 69.2016 205.262 68.9363 204.873 68.5467C204.483 68.1572 204.218 67.6608 204.11 67.1205C204.003 66.5801 204.058 66.0201 204.269 65.5111C204.48 65.0021 204.837 64.567 205.295 64.261C205.753 63.9549 206.291 63.7915 206.842 63.7915C207.209 63.7887 207.573 63.8588 207.912 63.9978C208.251 64.1367 208.559 64.3418 208.819 64.6011C209.078 64.8603 209.283 65.1685 209.422 65.5077C209.561 65.847 209.631 66.2104 209.628 66.577Z" fill="white"/>
<path d="M354.829 102.322H46.9258V624.708H354.829V102.322Z" fill="#7E007E"/>
<path opacity="0.6" d="M354.829 102.322H46.9258V624.708H354.829V102.322Z" fill="white"/>
<path d="M337.453 184.073H62.9093C58.2801 184.073 54.5273 191.282 54.5273 200.174V597.461C54.5273 606.353 58.2801 613.562 62.9093 613.562H337.453C342.082 613.562 345.835 606.353 345.835 597.461V200.174C345.835 191.282 342.082 184.073 337.453 184.073Z" fill="white"/>
<path d="M338.093 112.273H63.6618C59.0344 112.273 55.2832 116.024 55.2832 120.651V167.473C55.2832 172.1 59.0344 175.851 63.6618 175.851H338.093C342.72 175.851 346.471 172.1 346.471 167.473V120.651C346.471 116.024 342.72 112.273 338.093 112.273Z" fill="#7E007E"/>
<path d="M101.919 134.196L96.1769 151.207H94.2843L89.2869 136.747L84.3745 151.228H82.4819L76.7402 134.217H78.5903L83.5026 148.846L88.6064 134.217H90.2863L95.2837 148.931L100.281 134.217L101.919 134.196Z" fill="black"/>
<path d="M96.9021 152.227H93.5635L89.2891 139.809L84.9935 152.227H81.6761L75.2539 133.175H79.2518L83.4411 145.699L87.8005 133.175H90.9266L95.2009 145.763L99.4753 133.175H103.346L96.9021 152.227Z" fill="white"/>
<path d="M113.509 143.297V151.228H111.871V149.229C111.392 149.947 110.728 150.522 109.95 150.896C109.172 151.27 108.308 151.429 107.448 151.356C104.556 151.356 102.791 149.846 102.791 147.634C102.791 145.423 104.046 144.02 107.725 144.02H111.786V143.127C111.786 141 110.553 139.746 108.171 139.746C106.621 139.738 105.117 140.272 103.918 141.255L103.153 139.958C104.639 138.8 106.479 138.192 108.363 138.236C109.054 138.139 109.757 138.203 110.42 138.422C111.082 138.641 111.685 139.009 112.183 139.498C112.68 139.987 113.059 140.584 113.288 141.243C113.518 141.902 113.594 142.604 113.509 143.297ZM111.786 147.379V145.253H107.767C105.3 145.253 104.492 146.231 104.492 147.549C104.492 148.868 105.683 149.952 107.725 149.952C108.587 150.008 109.445 149.789 110.174 149.327C110.904 148.865 111.469 148.183 111.786 147.379Z" fill="black"/>
<path d="M107.449 152.355C104.047 152.355 101.771 150.441 101.771 147.613C101.771 146.231 102.346 142.978 107.726 142.978H110.767C110.767 141.936 110.32 140.851 108.172 140.851C106.864 140.833 105.591 141.277 104.579 142.106L103.664 142.914L101.814 139.831L102.473 139.278C104.14 137.956 106.216 137.257 108.343 137.3C109.162 137.202 109.993 137.288 110.776 137.552C111.558 137.816 112.272 138.251 112.864 138.825C113.457 139.4 113.914 140.099 114.203 140.873C114.491 141.646 114.603 142.474 114.531 143.297V152.227H110.852V151.632C109.796 152.153 108.626 152.401 107.449 152.355ZM107.768 146.295C105.493 146.295 105.493 147.124 105.493 147.571C105.493 148.783 106.896 148.974 107.619 148.974C108.25 149.015 108.877 148.864 109.42 148.542C109.963 148.219 110.395 147.74 110.66 147.167V146.295H107.768Z" fill="white"/>
<path d="M118.207 133.154H119.93V151.228H118.207V133.154Z" fill="black"/>
<path d="M120.953 132.155H117.189V152.227H120.953V132.155Z" fill="white"/>
<path d="M124.781 133.154H126.525V151.228H124.781V133.154Z" fill="black"/>
<path d="M127.5 132.155H123.736V152.227H127.5V132.155Z" fill="white"/>
<path d="M142.431 145.359H131.798C131.833 145.983 131.992 146.594 132.265 147.156C132.538 147.719 132.92 148.221 133.389 148.635C133.858 149.048 134.404 149.364 134.997 149.565C135.589 149.765 136.215 149.846 136.838 149.803C137.574 149.827 138.305 149.689 138.982 149.399C139.658 149.109 140.262 148.673 140.751 148.123L141.729 149.25C140.808 150.211 139.625 150.879 138.327 151.172C137.029 151.465 135.674 151.37 134.429 150.899C133.185 150.428 132.107 149.601 131.329 148.521C130.551 147.442 130.108 146.157 130.055 144.828C130.007 143.971 130.138 143.115 130.44 142.312C130.742 141.509 131.208 140.779 131.808 140.166C132.409 139.554 133.13 139.074 133.927 138.756C134.723 138.438 135.577 138.29 136.434 138.321C137.278 138.307 138.115 138.469 138.894 138.795C139.672 139.122 140.374 139.606 140.955 140.217C141.537 140.829 141.985 141.554 142.272 142.348C142.559 143.141 142.678 143.986 142.622 144.828C142.452 144.976 142.431 145.253 142.431 145.359ZM131.798 144.062H140.879C140.8 142.912 140.287 141.834 139.445 141.047C138.602 140.26 137.492 139.822 136.338 139.822C135.185 139.822 134.075 140.26 133.232 141.047C132.39 141.834 131.877 142.912 131.798 144.062Z" fill="black"/>
<path d="M136.711 152.355C135.704 152.396 134.7 152.23 133.76 151.868C132.82 151.506 131.964 150.956 131.245 150.251C130.526 149.545 129.959 148.701 129.578 147.768C129.198 146.835 129.013 145.835 129.034 144.828C128.981 143.844 129.128 142.859 129.468 141.935C129.808 141.01 130.333 140.164 131.01 139.449C131.688 138.733 132.504 138.164 133.409 137.774C134.315 137.385 135.29 137.184 136.275 137.184C137.26 137.184 138.235 137.385 139.14 137.774C140.046 138.164 140.862 138.733 141.54 139.449C142.217 140.164 142.742 141.01 143.082 141.935C143.421 142.859 143.569 143.844 143.516 144.828V146.359H133.032C133.316 147.124 133.84 147.776 134.527 148.217C135.213 148.658 136.025 148.864 136.838 148.804C137.429 148.824 138.017 148.715 138.561 148.484C139.105 148.252 139.591 147.904 139.986 147.464L140.751 146.592L143.048 149.229L142.495 149.91C141.774 150.722 140.88 151.363 139.88 151.787C138.879 152.21 137.796 152.404 136.711 152.355ZM132.989 143.126H139.667C139.404 142.475 138.946 141.921 138.356 141.54C137.766 141.16 137.072 140.971 136.371 141C135.654 140.946 134.938 141.124 134.33 141.506C133.721 141.889 133.251 142.457 132.989 143.126Z" fill="white"/>
<path d="M152.722 150.441C151.959 151.055 151 151.372 150.021 151.334C149.518 151.391 149.008 151.335 148.529 151.168C148.051 151.002 147.616 150.73 147.256 150.372C146.897 150.015 146.622 149.582 146.453 149.104C146.284 148.626 146.224 148.117 146.278 147.613V139.873H143.918V138.427H146.215V135.62H147.937V138.427H151.829V139.873H147.937V147.528C147.91 147.823 147.946 148.12 148.041 148.401C148.135 148.681 148.288 148.939 148.488 149.157C148.688 149.375 148.932 149.549 149.203 149.668C149.474 149.786 149.768 149.847 150.064 149.846C150.75 149.863 151.42 149.637 151.956 149.208L152.722 150.441Z" fill="black"/>
<path d="M150.021 152.355C149.384 152.41 148.742 152.325 148.141 152.106C147.539 151.887 146.993 151.54 146.539 151.089C146.086 150.638 145.736 150.093 145.515 149.493C145.294 148.892 145.206 148.251 145.258 147.613V141H142.961V137.513H145.258V134.621H149.022V137.428H152.913V141H149.022V147.635C149.022 148.719 149.489 148.953 150.212 148.953C150.652 148.97 151.083 148.827 151.425 148.549L152.424 147.656L153.976 150.782L153.402 151.313C152.432 152.046 151.235 152.415 150.021 152.355Z" fill="white"/>
<path d="M325.992 135.961H305.003C304.685 136.06 304.348 136.082 304.019 136.027C303.691 135.972 303.38 135.84 303.111 135.642C302.843 135.445 302.625 135.187 302.475 134.889C302.324 134.592 302.246 134.263 302.246 133.93C302.246 133.597 302.324 133.268 302.475 132.971C302.625 132.674 302.843 132.416 303.111 132.218C303.38 132.02 303.691 131.889 304.019 131.833C304.348 131.778 304.685 131.801 305.003 131.899H325.992C326.311 131.801 326.648 131.778 326.976 131.833C327.305 131.889 327.616 132.02 327.884 132.218C328.153 132.416 328.371 132.674 328.521 132.971C328.671 133.268 328.75 133.597 328.75 133.93C328.75 134.263 328.671 134.592 328.521 134.889C328.371 135.187 328.153 135.445 327.884 135.642C327.616 135.84 327.305 135.972 326.976 136.027C326.648 136.082 326.311 136.06 325.992 135.961Z" fill="white"/>
<path d="M325.994 156.225H305.005C304.686 156.33 304.346 156.358 304.014 156.306C303.682 156.254 303.367 156.125 303.094 155.927C302.822 155.73 302.6 155.471 302.447 155.172C302.295 154.873 302.215 154.541 302.215 154.205C302.215 153.869 302.295 153.537 302.447 153.238C302.6 152.939 302.822 152.68 303.094 152.483C303.367 152.285 303.682 152.156 304.014 152.104C304.346 152.052 304.686 152.08 305.005 152.185H325.994C326.314 152.08 326.654 152.052 326.986 152.104C327.318 152.156 327.633 152.285 327.905 152.483C328.178 152.68 328.4 152.939 328.552 153.238C328.705 153.537 328.785 153.869 328.785 154.205C328.785 154.541 328.705 154.873 328.552 155.172C328.4 155.471 328.178 155.73 327.905 155.927C327.633 156.125 327.318 156.254 326.986 156.306C326.654 156.358 326.314 156.33 325.994 156.225Z" fill="white"/>
<path d="M325.992 146.103H305.003C304.685 146.202 304.348 146.225 304.019 146.17C303.691 146.114 303.38 145.982 303.111 145.785C302.843 145.587 302.625 145.329 302.475 145.032C302.324 144.735 302.246 144.406 302.246 144.073C302.246 143.74 302.324 143.411 302.475 143.114C302.625 142.816 302.843 142.558 303.111 142.361C303.38 142.163 303.691 142.031 304.019 141.976C304.348 141.921 304.685 141.943 305.003 142.042H325.992C326.311 141.943 326.648 141.921 326.976 141.976C327.305 142.031 327.616 142.163 327.884 142.361C328.153 142.558 328.371 142.816 328.521 143.114C328.671 143.411 328.75 143.74 328.75 144.073C328.75 144.406 328.671 144.735 328.521 145.032C328.371 145.329 328.153 145.587 327.884 145.785C327.616 145.982 327.305 146.114 326.976 146.17C326.648 146.225 326.311 146.202 325.992 146.103Z" fill="white"/>
<g opacity="0.3">
<path d="M170.607 317.213H81.079C80.3853 317.258 79.6898 317.16 79.0355 316.925C78.3811 316.691 77.7819 316.324 77.2747 315.849C76.7675 315.374 76.3633 314.799 76.0869 314.162C75.8106 313.524 75.668 312.836 75.668 312.141C75.668 311.446 75.8106 310.758 76.0869 310.121C76.3633 309.483 76.7675 308.909 77.2747 308.433C77.7819 307.958 78.3811 307.592 79.0355 307.357C79.6898 307.123 80.3853 307.025 81.079 307.07H170.607C171.895 307.153 173.103 307.724 173.986 308.666C174.869 309.608 175.361 310.85 175.361 312.141C175.361 313.432 174.869 314.675 173.986 315.617C173.103 316.559 171.895 317.129 170.607 317.213Z" fill="black"/>
<path d="M209.14 345.6H81.079C80.3853 345.645 79.6898 345.547 79.0355 345.312C78.3811 345.078 77.7819 344.712 77.2747 344.236C76.7675 343.761 76.3633 343.187 76.0869 342.549C75.8106 341.911 75.668 341.223 75.668 340.528C75.668 339.833 75.8106 339.146 76.0869 338.508C76.3633 337.87 76.7675 337.296 77.2747 336.821C77.7819 336.345 78.3811 335.979 79.0355 335.744C79.6898 335.51 80.3853 335.412 81.079 335.457H209.14C210.428 335.541 211.636 336.111 212.519 337.053C213.402 337.995 213.894 339.237 213.894 340.528C213.894 341.819 213.402 343.062 212.519 344.004C211.636 344.946 210.428 345.516 209.14 345.6Z" fill="black"/>
<path d="M320.675 345.6H285.906C284.618 345.516 283.41 344.946 282.527 344.004C281.644 343.062 281.152 341.819 281.152 340.528C281.152 339.237 281.644 337.995 282.527 337.053C283.41 336.111 284.618 335.541 285.906 335.457H320.675C321.369 335.412 322.064 335.51 322.719 335.744C323.373 335.979 323.972 336.345 324.48 336.821C324.987 337.296 325.391 337.87 325.667 338.508C325.944 339.146 326.086 339.833 326.086 340.528C326.086 341.223 325.944 341.911 325.667 342.549C325.391 343.187 324.987 343.761 324.48 344.236C323.972 344.712 323.373 345.078 322.719 345.312C322.064 345.547 321.369 345.645 320.675 345.6Z" fill="black"/>
<path d="M140.197 365.885H81.079C80.3853 365.93 79.6898 365.833 79.0355 365.598C78.3811 365.364 77.7819 364.997 77.2747 364.522C76.7675 364.047 76.3633 363.472 76.0869 362.834C75.8106 362.197 75.668 361.509 75.668 360.814C75.668 360.119 75.8106 359.431 76.0869 358.794C76.3633 358.156 76.7675 357.582 77.2747 357.106C77.7819 356.631 78.3811 356.265 79.0355 356.03C79.6898 355.795 80.3853 355.698 81.079 355.743H140.197C141.485 355.826 142.694 356.397 143.577 357.339C144.46 358.281 144.951 359.523 144.951 360.814C144.951 362.105 144.46 363.348 143.577 364.289C142.694 365.231 141.485 365.802 140.197 365.885Z" fill="black"/>
<path d="M320.678 365.885H271.768C270.479 365.802 269.271 365.231 268.388 364.289C267.505 363.348 267.014 362.105 267.014 360.814C267.014 359.523 267.505 358.281 268.388 357.339C269.271 356.397 270.479 355.826 271.768 355.743H320.678C321.372 355.698 322.067 355.795 322.722 356.03C323.376 356.265 323.975 356.631 324.482 357.106C324.99 357.582 325.394 358.156 325.67 358.794C325.947 359.431 326.089 360.119 326.089 360.814C326.089 361.509 325.947 362.197 325.67 362.834C325.394 363.472 324.99 364.047 324.482 364.522C323.975 364.997 323.376 365.364 322.722 365.598C322.067 365.833 321.372 365.93 320.678 365.885Z" fill="black"/>
<path d="M197.081 386.15H81.1842C79.8419 386.15 78.5546 385.617 77.6055 384.667C76.6563 383.718 76.123 382.431 76.123 381.089C76.123 379.747 76.6563 378.46 77.6055 377.51C78.5546 376.561 79.8419 376.028 81.1842 376.028H197.081C198.423 376.028 199.711 376.561 200.66 377.51C201.609 378.46 202.142 379.747 202.142 381.089C202.142 382.431 201.609 383.718 200.66 384.667C199.711 385.617 198.423 386.15 197.081 386.15Z" fill="black"/>
<path d="M320.678 386.15H291.991C290.649 386.15 289.361 385.617 288.412 384.667C287.463 383.718 286.93 382.431 286.93 381.089C286.93 379.747 287.463 378.46 288.412 377.51C289.361 376.561 290.649 376.028 291.991 376.028H320.678C322.02 376.028 323.308 376.561 324.257 377.51C325.206 378.46 325.739 379.747 325.739 381.089C325.739 382.431 325.206 383.718 324.257 384.667C323.308 385.617 322.02 386.15 320.678 386.15Z" fill="black"/>
</g>
<g opacity="0.3">
<path d="M171.232 409.725H81.704C81.0103 409.769 80.3148 409.672 79.6605 409.437C79.0061 409.203 78.4069 408.836 77.8997 408.361C77.3925 407.886 76.9883 407.311 76.7119 406.674C76.4356 406.036 76.293 405.348 76.293 404.653C76.293 403.958 76.4356 403.27 76.7119 402.633C76.9883 401.995 77.3925 401.421 77.8997 400.945C78.4069 400.47 79.0061 400.104 79.6605 399.869C80.3148 399.635 81.0103 399.537 81.704 399.582H171.232C172.52 399.665 173.728 400.236 174.611 401.178C175.494 402.12 175.986 403.362 175.986 404.653C175.986 405.944 175.494 407.187 174.611 408.129C173.728 409.07 172.52 409.641 171.232 409.725Z" fill="black"/>
<path d="M209.765 438.112H81.704C81.0103 438.157 80.3148 438.059 79.6605 437.824C79.0061 437.59 78.4069 437.224 77.8997 436.748C77.3925 436.273 76.9883 435.699 76.7119 435.061C76.4356 434.423 76.293 433.735 76.293 433.04C76.293 432.345 76.4356 431.658 76.7119 431.02C76.9883 430.382 77.3925 429.808 77.8997 429.332C78.4069 428.857 79.0061 428.491 79.6605 428.256C80.3148 428.022 81.0103 427.924 81.704 427.969H209.765C211.053 428.052 212.261 428.623 213.144 429.565C214.027 430.507 214.519 431.749 214.519 433.04C214.519 434.331 214.027 435.574 213.144 436.516C212.261 437.458 211.053 438.028 209.765 438.112Z" fill="black"/>
<path d="M321.3 438.112H286.531C285.243 438.028 284.035 437.458 283.152 436.516C282.269 435.574 281.777 434.331 281.777 433.04C281.777 431.749 282.269 430.507 283.152 429.565C284.035 428.623 285.243 428.052 286.531 427.969H321.3C321.994 427.924 322.689 428.022 323.344 428.256C323.998 428.491 324.597 428.857 325.105 429.332C325.612 429.808 326.016 430.382 326.292 431.02C326.569 431.658 326.711 432.345 326.711 433.04C326.711 433.735 326.569 434.423 326.292 435.061C326.016 435.699 325.612 436.273 325.105 436.748C324.597 437.224 323.998 437.59 323.344 437.824C322.689 438.059 321.994 438.157 321.3 438.112Z" fill="black"/>
<path d="M140.822 458.397H81.704C81.0103 458.442 80.3148 458.344 79.6605 458.11C79.0061 457.875 78.4069 457.509 77.8997 457.034C77.3925 456.558 76.9883 455.984 76.7119 455.346C76.4356 454.709 76.293 454.021 76.293 453.326C76.293 452.631 76.4356 451.943 76.7119 451.305C76.9883 450.668 77.3925 450.093 77.8997 449.618C78.4069 449.143 79.0061 448.776 79.6605 448.542C80.3148 448.307 81.0103 448.21 81.704 448.255H140.822C142.11 448.338 143.319 448.909 144.202 449.851C145.085 450.792 145.576 452.035 145.576 453.326C145.576 454.617 145.085 455.859 144.202 456.801C143.319 457.743 142.11 458.314 140.822 458.397Z" fill="black"/>
<path d="M321.303 458.397H272.393C271.104 458.314 269.896 457.743 269.013 456.801C268.13 455.859 267.639 454.617 267.639 453.326C267.639 452.035 268.13 450.792 269.013 449.851C269.896 448.909 271.104 448.338 272.393 448.255H321.303C321.997 448.21 322.692 448.307 323.347 448.542C324.001 448.776 324.6 449.143 325.107 449.618C325.615 450.093 326.019 450.668 326.295 451.305C326.572 451.943 326.714 452.631 326.714 453.326C326.714 454.021 326.572 454.709 326.295 455.346C326.019 455.984 325.615 456.558 325.107 457.034C324.6 457.509 324.001 457.875 323.347 458.11C322.692 458.344 321.997 458.442 321.303 458.397Z" fill="black"/>
<path d="M197.706 478.662H81.8092C80.4669 478.662 79.1796 478.128 78.2305 477.179C77.2813 476.23 76.748 474.943 76.748 473.601C76.748 472.259 77.2813 470.971 78.2305 470.022C79.1796 469.073 80.4669 468.54 81.8092 468.54H197.706C199.048 468.54 200.336 469.073 201.285 470.022C202.234 470.971 202.767 472.259 202.767 473.601C202.767 474.943 202.234 476.23 201.285 477.179C200.336 478.128 199.048 478.662 197.706 478.662Z" fill="black"/>
<path d="M321.303 478.662H292.616C291.274 478.662 289.986 478.128 289.037 477.179C288.088 476.23 287.555 474.943 287.555 473.601C287.555 472.259 288.088 470.971 289.037 470.022C289.986 469.073 291.274 468.54 292.616 468.54H321.303C322.645 468.54 323.933 469.073 324.882 470.022C325.831 470.971 326.364 472.259 326.364 473.601C326.364 474.943 325.831 476.23 324.882 477.179C323.933 478.128 322.645 478.662 321.303 478.662Z" fill="black"/>
</g>
<g opacity="0.3">
<path d="M171.232 502.237H81.704C81.0103 502.282 80.3148 502.184 79.6605 501.949C79.0061 501.715 78.4069 501.349 77.8997 500.873C77.3925 500.398 76.9883 499.824 76.7119 499.186C76.4356 498.548 76.293 497.86 76.293 497.165C76.293 496.47 76.4356 495.783 76.7119 495.145C76.9883 494.507 77.3925 493.933 77.8997 493.458C78.4069 492.982 79.0061 492.616 79.6605 492.381C80.3148 492.147 81.0103 492.049 81.704 492.094H171.232C172.52 492.177 173.728 492.748 174.611 493.69C175.494 494.632 175.986 495.874 175.986 497.165C175.986 498.456 175.494 499.699 174.611 500.641C173.728 501.583 172.52 502.153 171.232 502.237Z" fill="black"/>
<path d="M209.765 530.624H81.704C81.0103 530.669 80.3148 530.571 79.6605 530.337C79.0061 530.102 78.4069 529.736 77.8997 529.261C77.3925 528.785 76.9883 528.211 76.7119 527.573C76.4356 526.935 76.293 526.248 76.293 525.553C76.293 524.858 76.4356 524.17 76.7119 523.532C76.9883 522.894 77.3925 522.32 77.8997 521.845C78.4069 521.369 79.0061 521.003 79.6605 520.769C80.3148 520.534 81.0103 520.436 81.704 520.481H209.765C211.053 520.565 212.261 521.135 213.144 522.077C214.027 523.019 214.519 524.262 214.519 525.553C214.519 526.844 214.027 528.086 213.144 529.028C212.261 529.97 211.053 530.541 209.765 530.624Z" fill="black"/>
<path d="M321.3 530.624H286.531C285.243 530.541 284.035 529.97 283.152 529.028C282.269 528.086 281.777 526.844 281.777 525.553C281.777 524.262 282.269 523.019 283.152 522.077C284.035 521.135 285.243 520.565 286.531 520.481H321.3C321.994 520.436 322.689 520.534 323.344 520.769C323.998 521.003 324.597 521.369 325.105 521.845C325.612 522.32 326.016 522.894 326.292 523.532C326.569 524.17 326.711 524.858 326.711 525.553C326.711 526.248 326.569 526.935 326.292 527.573C326.016 528.211 325.612 528.785 325.105 529.261C324.597 529.736 323.998 530.102 323.344 530.337C322.689 530.571 321.994 530.669 321.3 530.624Z" fill="black"/>
<path d="M140.822 550.91H81.704C81.0103 550.955 80.3148 550.857 79.6605 550.622C79.0061 550.388 78.4069 550.021 77.8997 549.546C77.3925 549.071 76.9883 548.496 76.7119 547.859C76.4356 547.221 76.293 546.533 76.293 545.838C76.293 545.143 76.4356 544.455 76.7119 543.818C76.9883 543.18 77.3925 542.606 77.8997 542.13C78.4069 541.655 79.0061 541.289 79.6605 541.054C80.3148 540.82 81.0103 540.722 81.704 540.767H140.822C142.11 540.85 143.319 541.421 144.202 542.363C145.085 543.305 145.576 544.547 145.576 545.838C145.576 547.129 145.085 548.372 144.202 549.314C143.319 550.255 142.11 550.826 140.822 550.91Z" fill="black"/>
<path d="M321.303 550.91H272.393C271.104 550.826 269.896 550.255 269.013 549.314C268.13 548.372 267.639 547.129 267.639 545.838C267.639 544.547 268.13 543.305 269.013 542.363C269.896 541.421 271.104 540.85 272.393 540.767H321.303C321.997 540.722 322.692 540.82 323.347 541.054C324.001 541.289 324.6 541.655 325.107 542.13C325.615 542.606 326.019 543.18 326.295 543.818C326.572 544.455 326.714 545.143 326.714 545.838C326.714 546.533 326.572 547.221 326.295 547.859C326.019 548.496 325.615 549.071 325.107 549.546C324.6 550.021 324.001 550.388 323.347 550.622C322.692 550.857 321.997 550.955 321.303 550.91Z" fill="black"/>
<path d="M197.706 571.174H81.8092C80.4669 571.174 79.1796 570.641 78.2305 569.692C77.2813 568.743 76.748 567.455 76.748 566.113C76.748 564.771 77.2813 563.484 78.2305 562.535C79.1796 561.586 80.4669 561.052 81.8092 561.052H197.706C199.048 561.052 200.336 561.586 201.285 562.535C202.234 563.484 202.767 564.771 202.767 566.113C202.767 567.455 202.234 568.743 201.285 569.692C200.336 570.641 199.048 571.174 197.706 571.174Z" fill="black"/>
<path d="M321.303 571.174H292.616C291.274 571.174 289.986 570.641 289.037 569.692C288.088 568.743 287.555 567.455 287.555 566.113C287.555 564.771 288.088 563.484 289.037 562.535C289.986 561.586 291.274 561.052 292.616 561.052H321.303C322.645 561.052 323.933 561.586 324.882 562.535C325.831 563.484 326.364 564.771 326.364 566.113C326.364 567.455 325.831 568.743 324.882 569.692C323.933 570.641 322.645 571.174 321.303 571.174Z" fill="black"/>
</g>
<path d="M231.554 278.47C248.495 261.53 248.495 234.065 231.554 217.125C214.612 200.184 187.144 200.184 170.203 217.125C153.261 234.065 153.261 261.53 170.203 278.47C187.144 295.41 214.612 295.41 231.554 278.47Z" fill="#7E007E"/>
<path opacity="0.6" d="M77.3157 88.8191H81.2285V83.6095H77.3157V88.8191Z" fill="white"/>
<path opacity="0.6" d="M70.9133 88.8191H74.8262V81.8658H70.9133V88.8191Z" fill="white"/>
<path opacity="0.6" d="M64.5344 88.8191H68.4473V80.1222H64.5344V88.8191Z" fill="white"/>
<path opacity="0.6" d="M58.1555 88.8191H62.0684V78.3786H58.1555V88.8191Z" fill="white"/>
<path opacity="0.6" d="M323.505 81.6956H321.188V86.9052H323.505V81.6956Z" fill="white"/>
<path opacity="0.6" d="M325.101 88.8191H343.602V79.782H325.101V88.8191Z" fill="white"/>
<rect x="67.9219" y="127.032" width="115.518" height="38.5868" fill="#7E007E"/>
<path d="M103.452 129.656V143.677H100.037V135.269L96.9011 143.677H94.145L90.9894 135.249V143.677H87.5742V129.656H91.6085L95.543 139.363L99.4375 129.656H103.452ZM109.323 132.393V135.229H113.897V137.865H109.323V140.941H114.496V143.677H105.908V129.656H114.496V132.393H109.323ZM129.255 143.677H125.84L120.128 135.029V143.677H116.713V129.656H120.128L125.84 138.344V129.656H129.255V143.677ZM135.086 129.656V138.045C135.086 138.883 135.293 139.529 135.705 139.982C136.118 140.435 136.724 140.661 137.523 140.661C138.322 140.661 138.934 140.435 139.36 139.982C139.786 139.529 139.999 138.883 139.999 138.045V129.656H143.414V138.025C143.414 139.276 143.148 140.335 142.616 141.2C142.083 142.066 141.364 142.718 140.459 143.157C139.567 143.597 138.568 143.817 137.463 143.817C136.358 143.817 135.366 143.604 134.487 143.177C133.622 142.738 132.936 142.086 132.43 141.22C131.924 140.341 131.671 139.276 131.671 138.025V129.656H135.086Z" fill="white"/>
</g>
<g opacity="0.9">
<path d="M516.851 4.80584e-05H455.756C453.285 4.64778e-05 450.839 0.486949 448.557 1.43292C446.275 2.3789 444.201 3.76538 442.456 5.51311C440.71 7.26083 439.325 9.33553 438.382 11.6186C437.438 13.9016 436.954 16.3482 436.957 18.8184V71.9778C436.954 74.448 437.438 76.8946 438.382 79.1777C439.325 81.4607 440.71 83.5354 442.456 85.2831C444.201 87.0308 446.275 88.4173 448.557 89.3633C450.839 90.3093 453.285 90.7962 455.756 90.7962H473.534L458.648 120.331L486.293 90.7962H516.894C521.885 90.7962 526.672 88.8135 530.202 85.2844C533.731 81.7553 535.714 76.9687 535.714 71.9778V18.8184C535.714 16.3436 535.226 13.8931 534.277 11.6071C533.329 9.32119 531.939 7.24478 530.187 5.49677C528.435 3.74876 526.355 2.36349 524.067 1.42029C521.778 0.477076 519.326 -0.00554482 516.851 4.80584e-05Z" fill="#7E007E"/>
<path opacity="0.7" d="M516.851 4.80584e-05H455.756C453.285 4.64778e-05 450.839 0.486949 448.557 1.43292C446.275 2.3789 444.201 3.76538 442.456 5.51311C440.71 7.26083 439.325 9.33553 438.382 11.6186C437.438 13.9016 436.954 16.3482 436.957 18.8184V71.9778C436.954 74.448 437.438 76.8946 438.382 79.1777C439.325 81.4607 440.71 83.5354 442.456 85.2831C444.201 87.0308 446.275 88.4173 448.557 89.3633C450.839 90.3093 453.285 90.7962 455.756 90.7962H473.534L458.648 120.331L486.293 90.7962H516.894C521.885 90.7962 526.672 88.8135 530.202 85.2844C533.731 81.7553 535.714 76.9687 535.714 71.9778V18.8184C535.714 16.3436 535.226 13.8931 534.277 11.6071C533.329 9.32119 531.939 7.24478 530.187 5.49677C528.435 3.74876 526.355 2.36349 524.067 1.42029C521.778 0.477076 519.326 -0.00554482 516.851 4.80584e-05Z" fill="white"/>
<path d="M483.124 58.7095C482.72 58.7105 482.32 58.6235 481.953 58.4546C481.585 58.2857 481.259 58.0389 480.997 57.7313L469.11 43.7185C468.872 43.4393 468.692 43.116 468.58 42.7672C468.467 42.4184 468.425 42.0509 468.454 41.6856C468.484 41.3203 468.585 40.9644 468.753 40.6383C468.92 40.3121 469.149 40.0221 469.429 39.7847C469.708 39.5474 470.031 39.3674 470.38 39.2549C470.729 39.1425 471.097 39.0999 471.462 39.1295C471.827 39.1591 472.183 39.2604 472.509 39.4276C472.835 39.5947 473.125 39.8245 473.363 40.1037L483.145 51.6286L499.285 32.4913C499.765 31.9273 500.449 31.5769 501.186 31.5171C501.924 31.4573 502.656 31.693 503.22 32.1723C503.784 32.6517 504.134 33.3354 504.194 34.0732C504.254 34.8109 504.018 35.5422 503.539 36.1061L485.271 57.625C485.015 57.9525 484.69 58.2196 484.319 58.407C483.947 58.5945 483.539 58.6977 483.124 58.7095Z" fill="white"/>
<path d="M507.748 66.6049C519.591 54.7634 519.591 35.5646 507.748 23.7231C495.906 11.8816 476.705 11.8815 464.863 23.723C453.02 35.5645 453.02 54.7634 464.863 66.605C476.705 78.4465 495.906 78.4465 507.748 66.6049Z" fill="#7E007E"/>
</g>
<g opacity="0.9">
<path d="M440.487 194.521C447.292 210.001 454.948 228.543 463.433 241.811C462.631 241.308 461.718 241.008 460.774 240.94C458.818 240.94 458.648 241.577 458.946 241.386C462.22 239.26 464.751 235.454 467.452 231.647C472.144 224.615 476.474 217.348 480.424 209.873C481.03 208.731 482.044 207.859 483.263 207.431C484.483 207.002 485.82 207.048 487.007 207.56C488.194 208.072 489.145 209.012 489.671 210.193C490.197 211.374 490.259 212.71 489.844 213.935C486.866 222.416 483.313 230.686 479.212 238.686C474.958 247.021 465.878 262.522 454.14 255.144C448.1 250.551 444.719 243.874 440.87 238.133C433.895 226.714 427.643 215.125 421.603 203.196C415.67 190.438 434.363 181.635 440.402 194.521H440.487Z" fill="#EBC0BB"/>
<path d="M434.467 187.525C443.739 188.099 459.241 217.294 459.241 217.294L430.831 238.345C430.831 238.345 425.77 195.265 425.77 195.201C425.77 195.137 434.467 187.525 434.467 187.525Z" fill="#263238"/>
<path opacity="0.7" d="M459.243 217.358L445.101 227.841L435.255 235.092L430.79 238.409C430.79 238.409 427.727 212.382 426.388 200.772C425.984 197.434 425.729 195.286 425.729 195.265C425.729 195.244 434.426 187.546 434.426 187.546C442.082 188.014 454.012 208.087 457.924 215.04C458.775 216.486 459.243 217.358 459.243 217.358Z" fill="white"/>
<path d="M459.222 214.253L463.22 218.804L437.276 238.409L432.811 230.882L459.222 214.253Z" fill="#263238"/>
<path opacity="0.8" d="M463.199 218.804L446.016 231.796L437.276 238.409L435.299 235.092L432.811 230.882L443.762 223.971L457.968 215.04L459.222 214.253L463.199 218.804Z" fill="white"/>
<path d="M463.261 208.045C463.207 208.24 463.197 208.444 463.23 208.643C463.262 208.843 463.338 209.033 463.451 209.2C463.564 209.368 463.712 209.509 463.885 209.614C464.057 209.719 464.251 209.786 464.452 209.809L480.103 211.936C480.539 211.991 480.981 211.886 481.345 211.639C481.709 211.393 481.97 211.022 482.081 210.596L489.821 180.232C489.879 180.024 489.894 179.806 489.866 179.592C489.838 179.378 489.768 179.172 489.658 178.985C489.549 178.799 489.404 178.637 489.231 178.507C489.058 178.378 488.861 178.285 488.652 178.233L473 176.106C472.545 176.117 472.105 176.273 471.745 176.553C471.385 176.832 471.124 177.22 471.001 177.659L463.261 208.045Z" fill="#263238"/>
<path opacity="0.5" d="M472.767 177.701L465.026 208.364C464.951 208.539 464.919 208.73 464.933 208.92C464.947 209.111 465.006 209.295 465.106 209.458C465.206 209.62 465.344 209.756 465.508 209.855C465.672 209.953 465.857 210.01 466.047 210.022L479.317 211.83C480.21 211.957 481.89 211.681 482.124 210.83L489.95 180.04C490.183 179.168 488.759 178.275 487.823 178.148L474.553 176.319C474.134 176.271 473.712 176.388 473.379 176.646C473.045 176.905 472.825 177.283 472.767 177.701Z" fill="white"/>
<path d="M490.269 212.914L488.313 195.265L476.851 208.576C476.851 208.576 474.384 219.973 484.74 219.208L490.269 212.914Z" fill="#EEC1BB"/>
<path d="M477.168 191.948L473.383 204.919L476.849 208.576L488.311 195.265L477.168 191.948Z" fill="#EEC1BB"/>
<path opacity="0.1" d="M450.842 228.181L437.381 238.409L435.403 235.092L430.937 238.409C430.937 238.409 427.875 212.382 426.535 200.772C429.002 202.835 448.396 205.769 450.842 228.181Z" fill="black"/>
<path d="M373.16 508.607L378.859 519.494C378.859 519.494 383.75 516.9 391.512 512.647C393.745 511.435 396.212 510.096 398.849 508.607C406.207 504.567 415.032 499.655 424.367 494.382L430.471 490.873C462.815 472.353 489.333 454.576 489.333 444.859C489.333 428.571 477.531 397.589 460.859 366.587C449.716 345.876 440.444 329.205 440.444 329.205L400.848 353.446C400.848 353.446 414.33 371.478 428.153 391.338C444.272 414.494 460.838 440.096 457.052 442.647C454.16 444.582 439.423 456.107 423.134 468.993L420.178 471.311C411.396 478.264 402.315 485.451 394.489 491.681L388.11 496.678L373.16 508.607Z" fill="#EEC1BB"/>
<path opacity="0.2" d="M400.826 353.446C400.826 353.446 414.308 371.478 428.131 391.338L460.774 366.587C449.63 345.876 440.359 329.205 440.359 329.205L400.826 353.446Z" fill="black"/>
<path opacity="0.2" d="M388.15 496.678L391.51 512.647C401.25 507.331 415.498 499.464 430.447 490.873C427.917 483.176 425.003 474.5 423.111 468.993C410.947 478.583 397.89 488.96 388.15 496.678Z" fill="black"/>
<path d="M355.701 373.583L363.335 396.845L364.888 401.629L376.52 437.034L377.839 441.095L385.537 464.485L394.468 491.703L398.594 504.291C398.594 505.715 398.743 507.161 398.849 508.543C402.762 568.677 434.086 647.268 434.086 647.268L445.271 644.227C441.295 597.001 432.81 541.949 424.346 494.318C422.943 486.408 421.56 478.689 420.093 471.247C419.306 466.994 418.541 462.975 417.796 458.999C416.18 450.493 414.649 442.541 413.139 435.099C412.437 431.569 411.757 428.188 411.119 424.892C409.482 416.769 407.993 409.54 406.675 403.33C405.356 397.121 404.314 391.997 403.463 388.063C402.23 382.343 401.55 379.154 401.55 379.154L355.701 373.583Z" fill="#EEC1BB"/>
<path d="M386.642 496.934C388.088 496.934 387.216 514.795 387.216 514.795C387.216 514.795 376.222 525.937 373.883 536.633C371.544 547.329 365.058 541.46 364.866 529.552C364.675 517.644 364.547 508.565 364.42 500.102C364.292 491.639 371.586 496.806 386.642 496.934Z" fill="#263238"/>
<path d="M382.793 524.257C383.076 521.674 383.795 519.158 384.919 516.815L385.047 516.666H385.153C385.21 516.64 385.271 516.626 385.334 516.626C385.396 516.626 385.458 516.64 385.515 516.666C385.685 516.666 389.874 518.155 390.916 520.558C391.084 520.921 391.171 521.316 391.171 521.716C391.171 522.117 391.084 522.512 390.916 522.875C390.554 523.683 390.044 524.087 389.449 524.066C388.513 524.066 387.556 522.769 386.748 521.323C387.002 522.665 386.869 524.051 386.365 525.321C386.248 525.559 386.08 525.769 385.875 525.938C385.67 526.107 385.431 526.23 385.174 526.299C384.856 526.438 384.503 526.474 384.163 526.401C383.823 526.329 383.515 526.152 383.282 525.895C382.927 525.426 382.753 524.844 382.793 524.257ZM385.281 518.452C384.196 521.089 383.26 524.385 383.962 525.214C383.962 525.214 384.217 525.491 384.919 525.321C385.184 525.226 385.404 525.037 385.536 524.789C386.026 522.693 385.938 520.503 385.281 518.452ZM390.235 521.557C390.23 521.314 390.172 521.074 390.065 520.855C389.134 519.459 387.776 518.4 386.195 517.836C387.237 520.472 388.662 523.003 389.47 523.045C389.704 523.045 389.938 522.641 390.044 522.386C390.159 522.147 390.224 521.886 390.235 521.621V521.557Z" fill="#7E007E"/>
<path d="M431.002 642.271C431.002 640.825 448.865 641.952 448.865 641.952C448.865 641.952 459.838 653.116 470.492 655.625C481.146 658.134 475.192 664.513 463.283 664.513H433.724C425.261 664.513 430.534 657.305 431.002 642.271Z" fill="#263238"/>
<path d="M458.138 646.524C455.566 646.207 453.069 645.444 450.758 644.27L450.588 644.143V644.036C450.546 643.919 450.546 643.791 450.588 643.675C450.588 643.505 452.162 639.422 454.586 638.338C454.946 638.17 455.338 638.083 455.735 638.083C456.131 638.083 456.523 638.17 456.883 638.338C457.691 638.72 458.095 639.231 458.053 639.826C458.053 640.762 456.734 641.718 455.288 642.484C456.636 642.25 458.023 642.405 459.286 642.93C459.519 643.052 459.725 643.22 459.89 643.425C460.055 643.63 460.175 643.867 460.243 644.121C460.369 644.448 460.395 644.806 460.315 645.147C460.235 645.488 460.055 645.798 459.796 646.035C459.321 646.393 458.731 646.566 458.138 646.524ZM452.375 643.951C455.012 645.078 458.286 646.078 459.116 645.376C459.116 645.376 459.414 645.121 459.243 644.419C459.208 644.285 459.144 644.161 459.056 644.055C458.968 643.948 458.858 643.862 458.733 643.802C457.436 643.058 454.395 643.526 452.375 643.951ZM455.586 639.061C455.337 639.057 455.09 639.107 454.863 639.209C453.457 640.123 452.384 641.465 451.8 643.037C454.437 642.037 456.989 640.634 457.032 639.847C457.032 639.592 456.649 639.358 456.394 639.252C456.141 639.131 455.866 639.066 455.586 639.061Z" fill="#7E007E"/>
<path opacity="0.7" d="M418.244 386.468L420.839 388.892L459.329 362.781L454.395 350.915C454.465 355.097 453.855 359.262 452.588 363.248C450.44 368.203 424.943 382.683 418.244 386.468Z" fill="white"/>
<path opacity="0.2" d="M355.701 373.583L363.335 396.845C384.367 401.842 397.977 403.458 406.738 403.394C405.462 397.207 404.378 392.061 403.527 388.127C402.294 382.407 401.613 379.217 401.613 379.217L355.701 373.583Z" fill="black"/>
<path d="M459.221 362.802L420.709 388.914L418.242 386.49L409.502 378.239V398.886L356.339 389.36C348.279 353.68 349.3 327.249 352.787 309.09C354.402 299.946 357.302 291.076 361.4 282.744L362.08 276.003L434 283.467L434.702 288.166L438.168 311.407L454.351 350.958L459.221 362.802Z" fill="#7E007E"/>
<path opacity="0.2" d="M409.396 378.239V355.275C409.396 355.275 419.668 372.456 418.137 386.468L409.396 378.239Z" fill="black"/>
<path d="M416.393 386.469L457.477 356.657L460.965 362.377L419.604 391.338L416.393 386.469Z" fill="#7E007E"/>
<path opacity="0.7" d="M416.393 386.469L457.477 356.657L460.965 362.377L419.604 391.338L416.393 386.469Z" fill="white"/>
<path d="M354 384.682L410.481 394.655V400.205L355.701 391.338L354 384.682Z" fill="#7E007E"/>
<path opacity="0.7" d="M354 384.682L410.481 394.655V400.205L355.701 391.338L354 384.682Z" fill="white"/>
<path opacity="0.2" d="M376.563 284.7C376.563 284.7 371.268 304.178 352.703 309.09C354.318 299.946 357.217 291.076 361.316 282.744L376.563 284.7Z" fill="black"/>
<path opacity="0.2" d="M438.169 311.365C431.3 304.731 429.322 288.124 429.322 288.124H434.702L438.169 311.365Z" fill="black"/>
<path opacity="0.2" d="M411.629 286.954C411.629 287.552 411.392 288.125 410.969 288.548C410.546 288.971 409.973 289.208 409.375 289.208C408.777 289.208 408.204 288.971 407.781 288.548C407.359 288.125 407.121 287.552 407.121 286.954C407.121 286.356 407.359 285.783 407.781 285.36C408.204 284.938 408.777 284.7 409.375 284.7C409.973 284.7 410.546 284.938 410.969 285.36C411.392 285.783 411.629 286.356 411.629 286.954Z" fill="black"/>
<path d="M362.824 278.534C346.194 274.749 362.611 274.983 357.21 199.858C356.859 196.057 357.161 192.224 358.103 188.525C358.961 185.597 360.829 183.068 363.375 181.386C365.921 179.705 368.98 178.979 372.01 179.339C374.903 179.658 377.476 179.955 378.05 179.977C379.602 179.977 381.197 180.083 382.792 180.189C393.633 180.629 404.429 181.851 415.094 183.846C417.731 184.378 420.432 185.016 423.069 185.633C423.919 185.845 433.702 187.355 434.467 187.568C434.467 187.568 445.653 204.94 444.632 217.528C444.058 224.545 441.676 229.712 441.485 246.553C441.059 284.828 449.055 283.658 432.447 284.828L362.824 278.534Z" fill="#263238"/>
<path opacity="0.7" d="M441.486 246.511C441.06 284.785 449.056 283.637 432.448 284.785L362.825 278.598C349.13 275.514 357.849 275.11 358.316 233.008C358.316 225.779 358.316 217.337 357.721 207.492C357.572 205.068 357.402 202.537 357.211 199.943C356.858 196.149 357.16 192.323 358.104 188.631C358.954 185.697 360.82 183.16 363.367 181.474C365.914 179.788 368.978 179.061 372.011 179.424C374.903 179.743 377.477 180.04 378.051 180.04C379.582 180.04 381.198 180.168 382.793 180.274C393.632 180.729 404.426 181.944 415.095 183.91C417.732 184.484 420.412 185.08 423.091 185.718C423.942 185.93 433.724 187.44 434.468 187.674C434.468 187.674 445.654 205.025 444.654 217.592C444.059 224.503 441.634 229.67 441.486 246.511Z" fill="white"/>
<path opacity="0.1" d="M397.976 231.945C397.976 231.945 383.218 247.957 358.316 232.923C358.316 225.693 358.316 217.252 357.721 207.407C367.355 203.958 377.339 201.576 387.492 200.305L397.976 231.945Z" fill="black"/>
<path d="M429.875 198.412L445.378 189.588L450.843 204.196C450.843 204.196 440.869 211.893 431.98 206.535L429.875 198.412Z" fill="#EEC1BB"/>
<path d="M458.074 189.247L459.52 201.113L450.844 204.238L445.379 189.63L458.074 189.247Z" fill="#EEC1BB"/>
<path d="M378.733 190.906C382.86 207.358 389.373 223.119 398.063 237.686L398.509 238.43C398.055 237.761 397.478 237.183 396.808 236.729C396.046 236.158 395.16 235.774 394.221 235.607C393.283 235.441 392.319 235.498 391.407 235.772C398.084 232.264 403.358 225.97 408.929 220.59C415.543 213.722 422.178 206.535 428.706 199.326C429.572 198.424 430.736 197.866 431.982 197.756C433.228 197.647 434.472 197.993 435.482 198.73C436.493 199.468 437.201 200.547 437.476 201.767C437.751 202.987 437.575 204.266 436.979 205.365C429.601 218.565 420.894 230.977 410.992 242.407C407.491 246.62 403.2 250.109 398.36 252.677C395.6 254.032 392.431 254.301 389.481 253.431C386.531 252.561 384.015 250.615 382.433 247.978C370.754 232.035 362.56 213.815 358.381 194.499C356.255 180.827 375.883 177.191 378.733 190.757V190.906Z" fill="#EBC0BB"/>
<path d="M370.352 179.275C359.082 177.935 352.192 191.055 355.743 221.186H390.98C390.98 221.186 388.896 181.401 370.352 179.275Z" fill="#263238"/>
<path opacity="0.7" d="M370.352 179.275C359.082 177.935 352.192 191.055 355.743 221.186H390.98C390.98 221.186 388.896 181.401 370.352 179.275Z" fill="white"/>
<path d="M353.957 214.253L392.171 218.804L392.299 223.95H354.808L353.957 214.253Z" fill="#263238"/>
<path opacity="0.8" d="M353.957 214.253L392.171 218.804L392.299 223.95H354.808L353.957 214.253Z" fill="white"/>
<path d="M398.869 93.2842C398.869 93.2842 406.971 87.4366 420.666 91.9233C434.361 96.4099 448.588 111.167 442.315 132.324C436.041 153.482 436.828 166.984 436.828 166.984C436.828 166.984 389.746 159.18 379.688 149.973C369.629 140.766 371.224 87.8406 398.869 93.2842Z" fill="#263238"/>
<path d="M389.152 144.02C390.789 154.651 392.108 174.171 384.559 180.359C394.092 185.878 403.932 190.848 414.033 195.244C421.071 187.249 416.882 183.974 416.882 183.974C405.399 179.87 406.015 171.216 408.376 163.327L389.152 144.02Z" fill="#EEC1BB"/>
<path opacity="0.2" d="M396.977 151.908L408.333 163.327C407.764 165.181 407.359 167.08 407.12 169.004C402.718 167.856 396.828 162.264 396.488 157.543C396.302 155.651 396.468 153.74 396.977 151.908Z" fill="black"/>
<path d="M391.448 116.781C388.046 133.622 386.238 140.681 392.129 151.802C400.975 168.558 421.9 170.068 430.109 154.843C437.531 141.128 441.869 115.866 427.834 104.15C424.905 101.532 421.329 99.7445 417.477 98.9731C413.625 98.2017 409.636 98.4742 405.925 99.7626C402.214 101.051 398.914 103.308 396.369 106.3C393.824 109.293 392.125 112.911 391.448 116.781Z" fill="#EEC1BB"/>
<path d="M410.375 127.519C410.034 128.922 410.375 130.283 411.332 130.56C412.289 130.836 413.203 129.943 413.458 128.433C413.713 126.924 413.458 125.669 412.501 125.371C411.544 125.074 410.736 126.116 410.375 127.519Z" fill="#263238"/>
<path d="M427.556 132.495C427.216 133.898 427.556 135.259 428.513 135.557C429.47 135.854 430.363 134.919 430.64 133.43C430.916 131.942 430.64 130.666 429.683 130.389C428.726 130.113 427.897 131.07 427.556 132.495Z" fill="#263238"/>
<path d="M429.365 130.368H432.81C432.81 130.368 430.514 132.494 429.365 130.368Z" fill="#263238"/>
<path d="M421.604 133.877C422 137.466 422.858 140.99 424.156 144.36C423.333 144.65 422.454 144.747 421.588 144.643C420.721 144.54 419.89 144.239 419.158 143.764L421.604 133.877Z" fill="#D4827D"/>
<path d="M410.182 146.465C410.864 146.828 411.576 147.134 412.309 147.379C412.359 147.399 412.413 147.407 412.467 147.403C412.52 147.4 412.572 147.384 412.619 147.357C412.666 147.331 412.707 147.294 412.737 147.25C412.768 147.206 412.789 147.156 412.798 147.103C412.831 146.995 412.821 146.879 412.769 146.78C412.717 146.68 412.628 146.605 412.522 146.571C410.808 146.023 409.239 145.1 407.929 143.867C406.619 142.634 405.602 141.124 404.951 139.448C404.939 139.394 404.916 139.343 404.883 139.298C404.85 139.253 404.808 139.216 404.761 139.188C404.713 139.16 404.66 139.142 404.605 139.136C404.549 139.129 404.494 139.134 404.441 139.15C404.338 139.188 404.253 139.265 404.206 139.364C404.158 139.463 404.151 139.577 404.185 139.682C405.274 142.608 407.411 145.026 410.182 146.465Z" fill="#263238"/>
<path d="M410.056 117.929C410.156 117.976 410.265 118.001 410.375 118.001C410.486 118.001 410.595 117.976 410.694 117.929C411.602 117.461 412.611 117.226 413.632 117.245C414.652 117.263 415.653 117.535 416.542 118.035C416.63 118.096 416.73 118.138 416.835 118.158C416.94 118.179 417.048 118.177 417.152 118.153C417.256 118.129 417.354 118.083 417.439 118.019C417.525 117.955 417.596 117.873 417.648 117.78C417.76 117.581 417.792 117.347 417.736 117.125C417.681 116.904 417.543 116.712 417.35 116.589C416.235 115.933 414.973 115.568 413.68 115.527C412.387 115.486 411.104 115.771 409.95 116.355C409.757 116.467 409.615 116.648 409.552 116.862C409.488 117.075 409.509 117.305 409.61 117.503C409.698 117.697 409.858 117.85 410.056 117.929Z" fill="#263238"/>
<path d="M436.828 125.499C436.921 125.541 437.023 125.563 437.125 125.563C437.228 125.563 437.33 125.541 437.423 125.499C437.528 125.468 437.625 125.415 437.709 125.345C437.793 125.275 437.862 125.189 437.912 125.092C437.962 124.994 437.991 124.888 437.999 124.779C438.006 124.67 437.991 124.56 437.955 124.457C437.64 123.137 437.023 121.908 436.152 120.868C435.281 119.827 434.18 119.003 432.936 118.461C432.836 118.425 432.729 118.41 432.623 118.418C432.517 118.426 432.413 118.455 432.319 118.506C432.225 118.556 432.142 118.625 432.077 118.708C432.011 118.792 431.963 118.889 431.937 118.992C431.875 119.209 431.897 119.442 432 119.643C432.102 119.844 432.277 119.999 432.49 120.077C433.462 120.531 434.318 121.199 434.996 122.032C435.674 122.864 436.154 123.838 436.402 124.882C436.424 125.01 436.474 125.131 436.547 125.237C436.621 125.344 436.716 125.433 436.828 125.499Z" fill="#263238"/>
<path d="M412.182 125.435H415.648C415.648 125.435 413.33 127.604 412.182 125.435Z" fill="#263238"/>
<path d="M395.362 129.177C395.362 129.177 407.781 121.565 409.291 102.768C409.291 102.768 430.003 102.109 437.276 120.459C437.276 120.459 434.682 94.071 405.123 92.9653C375.564 91.8596 383.708 124.351 385.984 127.731C388.259 131.112 395.362 129.177 395.362 129.177Z" fill="#263238"/>
<path d="M382.496 128.667C383.325 132.198 385.52 135.256 388.599 137.173C392.618 139.554 395.744 135.812 395.553 131.027C395.404 126.775 393.128 120.268 388.641 119.864C384.154 119.46 381.432 124.159 382.496 128.667Z" fill="#EEC1BB"/>
</g>
</svg>
