<svg width="1536" height="1404" viewBox="0 0 1536 1404" fill="none" xmlns="http://www.w3.org/2000/svg">
<g filter="url(#filter0_f_37_157)">
<ellipse cx="1554" cy="593" rx="261" ry="250" fill="#FFD8FF" fill-opacity="0.55"/>
</g>
<ellipse cx="1321.51" cy="8.08912" rx="7.51377" ry="8.08912" fill="#7E007E" fill-opacity="0.08"/>
<ellipse cx="1367.37" cy="8.08912" rx="7.51377" ry="8.08912" fill="#7E007E" fill-opacity="0.08"/>
<ellipse cx="1413.22" cy="8.08912" rx="7.51377" ry="8.08912" fill="#7E007E" fill-opacity="0.08"/>
<ellipse cx="1459.08" cy="8.08912" rx="7.51377" ry="8.08912" fill="#7E007E" fill-opacity="0.08"/>
<ellipse cx="1504.93" cy="8.08912" rx="7.51377" ry="8.08912" fill="#7E007E" fill-opacity="0.08"/>
<ellipse cx="1321.51" cy="57.4534" rx="7.51377" ry="8.08912" fill="#7E007E" fill-opacity="0.08"/>
<ellipse cx="1367.37" cy="57.4536" rx="7.51377" ry="8.08912" fill="#7E007E" fill-opacity="0.08"/>
<ellipse cx="1413.22" cy="57.4536" rx="7.51377" ry="8.08912" fill="#7E007E" fill-opacity="0.08"/>
<ellipse cx="1459.08" cy="57.4536" rx="7.51377" ry="8.08912" fill="#7E007E" fill-opacity="0.08"/>
<ellipse cx="1504.93" cy="57.4536" rx="7.51377" ry="8.08912" fill="#7E007E" fill-opacity="0.08"/>
<ellipse cx="1321.51" cy="106.818" rx="7.51377" ry="8.08912" fill="#7E007E" fill-opacity="0.08"/>
<ellipse cx="1367.37" cy="106.818" rx="7.51377" ry="8.08912" fill="#7E007E" fill-opacity="0.08"/>
<ellipse cx="1413.22" cy="106.818" rx="7.51377" ry="8.08912" fill="#7E007E" fill-opacity="0.08"/>
<ellipse cx="1459.08" cy="106.818" rx="7.51377" ry="8.08912" fill="#7E007E" fill-opacity="0.08"/>
<ellipse cx="1504.93" cy="106.818" rx="7.51377" ry="8.08912" fill="#7E007E" fill-opacity="0.08"/>
<ellipse cx="1321.51" cy="156.182" rx="7.51377" ry="8.08912" fill="#7E007E" fill-opacity="0.08"/>
<ellipse cx="1367.37" cy="156.182" rx="7.51377" ry="8.08912" fill="#7E007E" fill-opacity="0.08"/>
<ellipse cx="1413.22" cy="156.182" rx="7.51377" ry="8.08912" fill="#7E007E" fill-opacity="0.08"/>
<ellipse cx="1459.08" cy="156.182" rx="7.51377" ry="8.08912" fill="#7E007E" fill-opacity="0.08"/>
<ellipse cx="1504.93" cy="156.182" rx="7.51377" ry="8.08912" fill="#7E007E" fill-opacity="0.08"/>
<ellipse cx="1321.51" cy="205.547" rx="7.51377" ry="8.08912" fill="#7E007E" fill-opacity="0.08"/>
<ellipse cx="1367.37" cy="205.546" rx="7.51377" ry="8.08912" fill="#7E007E" fill-opacity="0.08"/>
<ellipse cx="1413.22" cy="205.546" rx="7.51377" ry="8.08912" fill="#7E007E" fill-opacity="0.08"/>
<ellipse cx="1459.08" cy="205.546" rx="7.51377" ry="8.08912" fill="#7E007E" fill-opacity="0.08"/>
<ellipse cx="1504.93" cy="205.546" rx="7.51377" ry="8.08912" fill="#7E007E" fill-opacity="0.08"/>
<ellipse cx="1321.51" cy="254.911" rx="7.51377" ry="8.08912" fill="#7E007E" fill-opacity="0.08"/>
<ellipse cx="1367.37" cy="254.911" rx="7.51377" ry="8.08912" fill="#7E007E" fill-opacity="0.08"/>
<ellipse cx="1413.22" cy="254.911" rx="7.51377" ry="8.08912" fill="#7E007E" fill-opacity="0.08"/>
<ellipse cx="1459.08" cy="254.911" rx="7.51377" ry="8.08912" fill="#7E007E" fill-opacity="0.08"/>
<ellipse cx="1504.93" cy="254.911" rx="7.51377" ry="8.08912" fill="#7E007E" fill-opacity="0.08"/>
<ellipse cx="1348.51" cy="993.089" rx="7.51377" ry="8.08912" fill="#7E007E" fill-opacity="0.08"/>
<ellipse cx="1394.37" cy="993.089" rx="7.51377" ry="8.08912" fill="#7E007E" fill-opacity="0.08"/>
<ellipse cx="1440.22" cy="993.089" rx="7.51377" ry="8.08912" fill="#7E007E" fill-opacity="0.08"/>
<ellipse cx="1486.08" cy="993.089" rx="7.51377" ry="8.08912" fill="#7E007E" fill-opacity="0.08"/>
<ellipse cx="1531.93" cy="993.089" rx="7.51377" ry="8.08912" fill="#7E007E" fill-opacity="0.08"/>
<ellipse cx="1348.51" cy="1042.45" rx="7.51377" ry="8.08912" fill="#7E007E" fill-opacity="0.08"/>
<ellipse cx="1394.37" cy="1042.45" rx="7.51377" ry="8.08912" fill="#7E007E" fill-opacity="0.08"/>
<ellipse cx="1440.22" cy="1042.45" rx="7.51377" ry="8.08912" fill="#7E007E" fill-opacity="0.08"/>
<ellipse cx="1486.08" cy="1042.45" rx="7.51377" ry="8.08912" fill="#7E007E" fill-opacity="0.08"/>
<ellipse cx="1531.93" cy="1042.45" rx="7.51377" ry="8.08912" fill="#7E007E" fill-opacity="0.08"/>
<ellipse cx="1348.51" cy="1091.82" rx="7.51377" ry="8.08912" fill="#7E007E" fill-opacity="0.08"/>
<ellipse cx="1394.37" cy="1091.82" rx="7.51377" ry="8.08912" fill="#7E007E" fill-opacity="0.08"/>
<ellipse cx="1440.22" cy="1091.82" rx="7.51377" ry="8.08912" fill="#7E007E" fill-opacity="0.08"/>
<ellipse cx="1486.08" cy="1091.82" rx="7.51377" ry="8.08912" fill="#7E007E" fill-opacity="0.08"/>
<ellipse cx="1531.93" cy="1091.82" rx="7.51377" ry="8.08912" fill="#7E007E" fill-opacity="0.08"/>
<ellipse cx="1348.51" cy="1141.18" rx="7.51377" ry="8.08912" fill="#7E007E" fill-opacity="0.08"/>
<ellipse cx="1394.37" cy="1141.18" rx="7.51377" ry="8.08912" fill="#7E007E" fill-opacity="0.08"/>
<ellipse cx="1440.22" cy="1141.18" rx="7.51377" ry="8.08912" fill="#7E007E" fill-opacity="0.08"/>
<ellipse cx="1486.08" cy="1141.18" rx="7.51377" ry="8.08912" fill="#7E007E" fill-opacity="0.08"/>
<ellipse cx="1531.93" cy="1141.18" rx="7.51377" ry="8.08912" fill="#7E007E" fill-opacity="0.08"/>
<ellipse cx="1348.51" cy="1190.55" rx="7.51377" ry="8.08912" fill="#7E007E" fill-opacity="0.08"/>
<ellipse cx="1394.37" cy="1190.55" rx="7.51377" ry="8.08912" fill="#7E007E" fill-opacity="0.08"/>
<ellipse cx="1440.22" cy="1190.55" rx="7.51377" ry="8.08912" fill="#7E007E" fill-opacity="0.08"/>
<ellipse cx="1486.08" cy="1190.55" rx="7.51377" ry="8.08912" fill="#7E007E" fill-opacity="0.08"/>
<ellipse cx="1531.93" cy="1190.55" rx="7.51377" ry="8.08912" fill="#7E007E" fill-opacity="0.08"/>
<ellipse cx="1348.51" cy="1239.91" rx="7.51377" ry="8.08912" fill="#7E007E" fill-opacity="0.08"/>
<ellipse cx="1394.37" cy="1239.91" rx="7.51377" ry="8.08912" fill="#7E007E" fill-opacity="0.08"/>
<ellipse cx="1440.22" cy="1239.91" rx="7.51377" ry="8.08912" fill="#7E007E" fill-opacity="0.08"/>
<ellipse cx="1486.08" cy="1239.91" rx="7.51377" ry="8.08912" fill="#7E007E" fill-opacity="0.08"/>
<ellipse cx="1531.93" cy="1239.91" rx="7.51377" ry="8.08912" fill="#7E007E" fill-opacity="0.08"/>
<circle cx="-1.63303" cy="317.367" r="5.36697" fill="#7E007E" fill-opacity="0.08"/>
<circle cx="31.1189" cy="317.367" r="5.36697" fill="#7E007E" fill-opacity="0.08"/>
<circle cx="63.8709" cy="317.367" r="5.36697" fill="#7E007E" fill-opacity="0.08"/>
<circle cx="96.6248" cy="317.367" r="5.36697" fill="#7E007E" fill-opacity="0.08"/>
<circle cx="129.377" cy="317.367" r="5.36697" fill="#7E007E" fill-opacity="0.08"/>
<circle cx="-1.63303" cy="350.119" r="5.36697" fill="#7E007E" fill-opacity="0.08"/>
<circle cx="31.1189" cy="350.119" r="5.36697" fill="#7E007E" fill-opacity="0.08"/>
<circle cx="63.8709" cy="350.119" r="5.36697" fill="#7E007E" fill-opacity="0.08"/>
<circle cx="96.6248" cy="350.119" r="5.36697" fill="#7E007E" fill-opacity="0.08"/>
<circle cx="129.377" cy="350.119" r="5.36697" fill="#7E007E" fill-opacity="0.08"/>
<circle cx="-1.63303" cy="382.872" r="5.36697" fill="#7E007E" fill-opacity="0.08"/>
<circle cx="31.1189" cy="382.872" r="5.36697" fill="#7E007E" fill-opacity="0.08"/>
<circle cx="63.8709" cy="382.872" r="5.36697" fill="#7E007E" fill-opacity="0.08"/>
<circle cx="96.6248" cy="382.872" r="5.36697" fill="#7E007E" fill-opacity="0.08"/>
<circle cx="129.377" cy="382.872" r="5.36697" fill="#7E007E" fill-opacity="0.08"/>
<circle cx="-1.63303" cy="415.624" r="5.36697" fill="#7E007E" fill-opacity="0.08"/>
<circle cx="31.1189" cy="415.624" r="5.36697" fill="#7E007E" fill-opacity="0.08"/>
<circle cx="63.8709" cy="415.624" r="5.36697" fill="#7E007E" fill-opacity="0.08"/>
<circle cx="96.6248" cy="415.624" r="5.36697" fill="#7E007E" fill-opacity="0.08"/>
<circle cx="129.377" cy="415.624" r="5.36697" fill="#7E007E" fill-opacity="0.08"/>
<circle cx="-1.63303" cy="448.376" r="5.36697" fill="#7E007E" fill-opacity="0.08"/>
<circle cx="31.1189" cy="448.376" r="5.36697" fill="#7E007E" fill-opacity="0.08"/>
<circle cx="63.8709" cy="448.376" r="5.36697" fill="#7E007E" fill-opacity="0.08"/>
<circle cx="96.6248" cy="448.376" r="5.36697" fill="#7E007E" fill-opacity="0.08"/>
<circle cx="129.377" cy="448.376" r="5.36697" fill="#7E007E" fill-opacity="0.08"/>
<circle cx="162.129" cy="317.367" r="5.36697" fill="#7E007E" fill-opacity="0.08"/>
<circle cx="162.129" cy="350.119" r="5.36697" fill="#7E007E" fill-opacity="0.08"/>
<circle cx="162.129" cy="382.872" r="5.36697" fill="#7E007E" fill-opacity="0.08"/>
<circle cx="162.129" cy="415.624" r="5.36697" fill="#7E007E" fill-opacity="0.08"/>
<circle cx="162.129" cy="448.376" r="5.36697" fill="#7E007E" fill-opacity="0.08"/>
<circle cx="194.881" cy="317.367" r="5.36697" fill="#7E007E" fill-opacity="0.08"/>
<circle cx="194.881" cy="350.119" r="5.36697" fill="#7E007E" fill-opacity="0.08"/>
<circle cx="194.881" cy="382.872" r="5.36697" fill="#7E007E" fill-opacity="0.08"/>
<circle cx="194.881" cy="415.624" r="5.36697" fill="#7E007E" fill-opacity="0.08"/>
<circle cx="194.881" cy="448.376" r="5.36697" fill="#7E007E" fill-opacity="0.08"/>
<circle cx="227.633" cy="317.367" r="5.36697" fill="#7E007E" fill-opacity="0.08"/>
<circle cx="227.633" cy="350.119" r="5.36697" fill="#7E007E" fill-opacity="0.08"/>
<circle cx="227.633" cy="382.872" r="5.36697" fill="#7E007E" fill-opacity="0.08"/>
<circle cx="227.633" cy="415.624" r="5.36697" fill="#7E007E" fill-opacity="0.08"/>
<circle cx="227.633" cy="448.376" r="5.36697" fill="#7E007E" fill-opacity="0.08"/>
<circle cx="-1.63303" cy="481.128" r="5.36697" fill="#7E007E" fill-opacity="0.08"/>
<circle cx="31.1189" cy="481.128" r="5.36697" fill="#7E007E" fill-opacity="0.08"/>
<circle cx="63.8709" cy="481.128" r="5.36697" fill="#7E007E" fill-opacity="0.08"/>
<circle cx="96.6248" cy="481.128" r="5.36697" fill="#7E007E" fill-opacity="0.08"/>
<circle cx="129.377" cy="481.128" r="5.36697" fill="#7E007E" fill-opacity="0.08"/>
<circle cx="162.129" cy="481.128" r="5.36697" fill="#7E007E" fill-opacity="0.08"/>
<circle cx="194.881" cy="481.128" r="5.36697" fill="#7E007E" fill-opacity="0.08"/>
<circle cx="227.633" cy="481.128" r="5.36697" fill="#7E007E" fill-opacity="0.08"/>
<circle cx="-1.63303" cy="1234.37" r="5.36697" fill="#7E007E" fill-opacity="0.08"/>
<circle cx="31.1189" cy="1234.37" r="5.36697" fill="#7E007E" fill-opacity="0.08"/>
<circle cx="63.8709" cy="1234.37" r="5.36697" fill="#7E007E" fill-opacity="0.08"/>
<circle cx="96.6248" cy="1234.37" r="5.36697" fill="#7E007E" fill-opacity="0.08"/>
<circle cx="129.377" cy="1234.37" r="5.36697" fill="#7E007E" fill-opacity="0.08"/>
<circle cx="-1.63303" cy="1267.12" r="5.36697" fill="#7E007E" fill-opacity="0.08"/>
<circle cx="31.1189" cy="1267.12" r="5.36697" fill="#7E007E" fill-opacity="0.08"/>
<circle cx="63.8709" cy="1267.12" r="5.36697" fill="#7E007E" fill-opacity="0.08"/>
<circle cx="96.6248" cy="1267.12" r="5.36697" fill="#7E007E" fill-opacity="0.08"/>
<circle cx="129.377" cy="1267.12" r="5.36697" fill="#7E007E" fill-opacity="0.08"/>
<circle cx="-1.63303" cy="1299.87" r="5.36697" fill="#7E007E" fill-opacity="0.08"/>
<circle cx="31.1189" cy="1299.87" r="5.36697" fill="#7E007E" fill-opacity="0.08"/>
<circle cx="63.8709" cy="1299.87" r="5.36697" fill="#7E007E" fill-opacity="0.08"/>
<circle cx="96.6248" cy="1299.87" r="5.36697" fill="#7E007E" fill-opacity="0.08"/>
<circle cx="129.377" cy="1299.87" r="5.36697" fill="#7E007E" fill-opacity="0.08"/>
<circle cx="-1.63303" cy="1332.62" r="5.36697" fill="#7E007E" fill-opacity="0.08"/>
<circle cx="31.1189" cy="1332.62" r="5.36697" fill="#7E007E" fill-opacity="0.08"/>
<circle cx="63.8709" cy="1332.62" r="5.36697" fill="#7E007E" fill-opacity="0.08"/>
<circle cx="96.6248" cy="1332.62" r="5.36697" fill="#7E007E" fill-opacity="0.08"/>
<circle cx="129.377" cy="1332.62" r="5.36697" fill="#7E007E" fill-opacity="0.08"/>
<circle cx="-1.63303" cy="1365.38" r="5.36697" fill="#7E007E" fill-opacity="0.08"/>
<circle cx="31.1189" cy="1365.38" r="5.36697" fill="#7E007E" fill-opacity="0.08"/>
<circle cx="63.8709" cy="1365.38" r="5.36697" fill="#7E007E" fill-opacity="0.08"/>
<circle cx="96.6248" cy="1365.38" r="5.36697" fill="#7E007E" fill-opacity="0.08"/>
<circle cx="129.377" cy="1365.38" r="5.36697" fill="#7E007E" fill-opacity="0.08"/>
<circle cx="162.129" cy="1234.37" r="5.36697" fill="#7E007E" fill-opacity="0.08"/>
<circle cx="162.129" cy="1267.12" r="5.36697" fill="#7E007E" fill-opacity="0.08"/>
<circle cx="162.129" cy="1299.87" r="5.36697" fill="#7E007E" fill-opacity="0.08"/>
<circle cx="162.129" cy="1332.62" r="5.36697" fill="#7E007E" fill-opacity="0.08"/>
<circle cx="162.129" cy="1365.38" r="5.36697" fill="#7E007E" fill-opacity="0.08"/>
<circle cx="194.881" cy="1234.37" r="5.36697" fill="#7E007E" fill-opacity="0.08"/>
<circle cx="194.881" cy="1267.12" r="5.36697" fill="#7E007E" fill-opacity="0.08"/>
<circle cx="194.881" cy="1299.87" r="5.36697" fill="#7E007E" fill-opacity="0.08"/>
<circle cx="194.881" cy="1332.62" r="5.36697" fill="#7E007E" fill-opacity="0.08"/>
<circle cx="194.881" cy="1365.38" r="5.36697" fill="#7E007E" fill-opacity="0.08"/>
<circle cx="227.633" cy="1234.37" r="5.36697" fill="#7E007E" fill-opacity="0.08"/>
<circle cx="227.633" cy="1267.12" r="5.36697" fill="#7E007E" fill-opacity="0.08"/>
<circle cx="227.633" cy="1299.87" r="5.36697" fill="#7E007E" fill-opacity="0.08"/>
<circle cx="227.633" cy="1332.62" r="5.36697" fill="#7E007E" fill-opacity="0.08"/>
<circle cx="227.633" cy="1365.38" r="5.36697" fill="#7E007E" fill-opacity="0.08"/>
<circle cx="-1.63303" cy="1398.13" r="5.36697" fill="#7E007E" fill-opacity="0.08"/>
<circle cx="31.1189" cy="1398.13" r="5.36697" fill="#7E007E" fill-opacity="0.08"/>
<circle cx="63.8709" cy="1398.13" r="5.36697" fill="#7E007E" fill-opacity="0.08"/>
<circle cx="96.6248" cy="1398.13" r="5.36697" fill="#7E007E" fill-opacity="0.08"/>
<circle cx="129.377" cy="1398.13" r="5.36697" fill="#7E007E" fill-opacity="0.08"/>
<circle cx="162.129" cy="1398.13" r="5.36697" fill="#7E007E" fill-opacity="0.08"/>
<circle cx="194.881" cy="1398.13" r="5.36697" fill="#7E007E" fill-opacity="0.08"/>
<circle cx="227.633" cy="1398.13" r="5.36697" fill="#7E007E" fill-opacity="0.08"/>
<g opacity="0.1" clip-path="url(#clip0_37_157)">
<path d="M1173.89 743.101L1169.91 745.515L1030.46 663.944L1034.46 661.548L1173.89 743.101Z" fill="#4D1B56"/>
<path d="M1034.46 661.548L1169.91 740.76V485.385L1034.46 406.191V661.548Z" fill="#F090E0"/>
<path d="M1022.94 668.345L1177.41 758.702V481.002L1022.94 390.646V668.345ZM1030.46 403.833L1169.9 485.404V745.534L1030.46 663.962V403.833Z" fill="#410F53"/>
<path d="M1030.46 663.944L1034.46 661.548V406.191L1030.46 403.833V663.944Z" fill="#E0E0E0"/>
<path d="M1169.91 651.073V655.809L1030.46 574.256L1034.46 571.842L1169.91 651.073Z" fill="#4D1B56"/>
<path d="M1169.91 561.478V566.214L1030.46 484.643L1034.46 482.247L1169.91 561.478Z" fill="#4D1B56"/>
<path d="M1022.94 390.646L1027 388.287L1181.47 478.644L1177.41 481.002L1022.94 390.646Z" fill="#4D1B56"/>
<path d="M1181.47 478.644L1177.41 481.002V758.702L1181.47 756.343V478.644Z" fill="#E0E0E0"/>
<path d="M1107.98 449.169L1103.95 446.792V706.94L1107.98 704.581V449.169Z" fill="#E0E0E0"/>
<path d="M1096.43 442.427L1103.95 446.791V706.939L1096.43 702.519V442.427Z" fill="#410F53"/>
<path d="M1022.94 480.26V489.026L1177.41 579.382V570.616L1022.94 480.26Z" fill="#410F53"/>
<path d="M1022.94 569.836V578.621L1177.41 668.977V660.192L1022.94 569.836Z" fill="#410F53"/>
<path d="M1103.95 527.62L1107.98 525.243L1169.91 561.478V566.214L1103.95 527.62Z" fill="#4D1B56"/>
<path d="M1103.95 617.178L1107.98 614.8L1169.91 651.036V655.772L1103.95 617.178Z" fill="#4D1B56"/>
<path d="M401.329 743.101L405.308 745.515L544.742 663.944L540.764 661.548L401.329 743.101Z" fill="#4D1B56"/>
<path d="M540.764 661.548L405.308 740.76V485.385L540.764 406.191V661.548Z" fill="#F090E0"/>
<path d="M552.259 390.646L397.791 481.002V758.702L552.259 668.345V390.646ZM544.742 663.944L405.308 745.515V485.385L544.742 403.814V663.944Z" fill="#410F53"/>
<path d="M544.742 663.944L540.764 661.548V406.191L544.742 403.833V663.944Z" fill="#E0E0E0"/>
<path d="M405.308 651.073V655.809L544.742 574.256L540.764 571.842L405.308 651.073Z" fill="#4D1B56"/>
<path d="M405.308 561.478V566.214L544.742 484.643L540.764 482.247L405.308 561.478Z" fill="#4D1B56"/>
<path d="M552.259 390.646L548.207 388.287L393.739 478.644L397.791 481.002L552.259 390.646Z" fill="#4D1B56"/>
<path d="M393.739 478.644L397.791 481.002V758.702L393.739 756.343V478.644Z" fill="#E0E0E0"/>
<path d="M467.224 449.169L471.276 446.792V706.94L467.224 704.581V449.169Z" fill="#E0E0E0"/>
<path d="M478.793 442.427L471.276 446.791V706.939L478.774 702.519L478.793 442.427Z" fill="#410F53"/>
<path d="M552.259 480.26V489.026L397.791 579.382V570.616L552.259 480.26Z" fill="#410F53"/>
<path d="M552.259 569.836V578.621L397.791 668.977V660.192L552.259 569.836Z" fill="#410F53"/>
<path d="M471.276 527.62L467.224 525.243L405.308 561.478V566.214L471.276 527.62Z" fill="#4D1B56"/>
<path d="M471.276 617.178L467.224 614.8L405.308 651.036V655.772L471.276 617.178Z" fill="#4D1B56"/>
<path d="M488.033 806.192C322.656 902.919 322.656 1059.73 488.033 1156.45C653.411 1253.18 921.536 1253.18 1086.91 1156.45C1252.29 1059.73 1252.29 902.919 1086.91 806.192C921.536 709.465 653.411 709.484 488.033 806.192Z" fill="#BD69AA"/>
<path d="M1147.01 1033.06C1146.89 1033.08 1146.78 1033.08 1146.65 1033.04L1136.01 1030.27C1135.72 1030.2 1135.48 1029.97 1135.37 1029.68C1135.28 1029.4 1126.02 1001.35 1145.73 963.354C1159.79 936.238 1181.81 918.613 1195.86 923.237C1201.6 925.132 1205.58 929.236 1206.8 934.511C1208.16 940.361 1206.02 946.769 1201.1 951.635C1200 952.731 1198.28 954.198 1196.11 956.074C1182.68 967.645 1151.21 994.761 1147.8 1032.22C1147.78 1032.5 1147.64 1032.74 1147.42 1032.89C1147.27 1032.98 1147.14 1033.04 1147.01 1033.06ZM1136.97 1028.6L1146.06 1030.98C1150.02 993.331 1181.43 966.27 1194.9 954.662C1197.05 952.805 1198.74 951.356 1199.8 950.316C1204.26 945.896 1206.22 940.157 1205.01 934.938C1203.93 930.258 1200.48 926.729 1195.29 925.02C1182.09 920.674 1161.02 937.891 1147.36 964.227C1129.43 998.81 1135.87 1024.85 1136.97 1028.6Z" fill="#BA68C8"/>
<path d="M1140.96 1031.5C1140.93 1031.5 1140.89 1031.52 1140.84 1031.52C1140.32 1031.53 1139.92 1031.13 1139.9 1030.61C1139.11 986.849 1169.02 944.689 1189.13 935.997C1189.61 935.793 1190.14 936.015 1190.34 936.48C1190.54 936.944 1190.32 937.501 1189.86 937.706C1169.97 946.286 1141 989.059 1141.73 1030.57C1141.75 1031.03 1141.42 1031.42 1140.96 1031.5Z" fill="#BA68C8"/>
<path d="M1136.38 1030.29C1136.25 1030.31 1136.11 1030.31 1135.98 1030.25L1128.77 1028.04C1128.48 1027.95 1128.26 1027.73 1128.17 1027.43C1128.04 1027.02 1115.33 985.196 1124.7 928.884C1129.47 900.189 1145.99 872.218 1163.96 862.338C1172.59 857.602 1181.1 857.007 1189.2 860.573C1193.79 862.598 1196.66 865.569 1197.73 869.432C1200.7 880.093 1189.79 895.954 1178.22 912.744C1170.13 924.5 1161.77 936.647 1157.94 947.363C1157.78 947.846 1157.25 948.088 1156.77 947.921C1156.29 947.753 1156.04 947.215 1156.22 946.732C1160.12 935.774 1168.56 923.516 1176.72 911.667C1188.03 895.248 1198.7 879.74 1195.97 869.934C1195.03 866.591 1192.58 864.083 1188.47 862.282C1180.9 858.939 1172.96 859.515 1164.84 863.972C1147.31 873.593 1131.21 901.025 1126.52 929.181C1117.75 981.872 1128.44 1021.67 1129.8 1026.39L1136.53 1028.45C1137 1028.6 1137.28 1029.12 1137.13 1029.6C1137 1029.99 1136.71 1030.23 1136.38 1030.29Z" fill="#BA68C8"/>
<path d="M1134.58 1003.68C1134.57 1003.68 1134.55 1003.68 1134.51 1003.68C1134 1003.71 1133.56 1003.34 1133.52 1002.82C1128.09 935.124 1165.37 880.929 1176.4 871.624C1176.79 871.29 1177.38 871.345 1177.71 871.735C1178.04 872.125 1177.98 872.72 1177.6 873.054C1166.72 882.229 1130 935.718 1135.37 1002.67C1135.41 1003.16 1135.06 1003.6 1134.58 1003.68Z" fill="#BA68C8"/>
<path d="M818.019 991.362L952.943 912.447C954.318 911.648 954.997 910.589 954.997 909.549C954.997 908.491 954.318 907.451 952.943 906.652L746.588 785.966C743.856 784.369 739.4 784.369 736.669 785.966L601.744 864.882C600.369 865.681 599.691 866.739 599.691 867.779C599.691 868.838 600.369 869.878 601.744 870.677L808.1 991.362C810.85 992.959 815.287 992.959 818.019 991.362Z" fill="#E0E0E0"/>
<path d="M869.558 1147.76C928.561 1147.76 976.393 1119.79 976.393 1085.28C976.393 1050.78 928.561 1022.81 869.558 1022.81C810.554 1022.81 762.722 1050.78 762.722 1085.28C762.722 1119.79 810.554 1147.76 869.558 1147.76Z" fill="#99519B"/>
<path d="M687.569 1147.76C746.572 1147.76 794.404 1119.79 794.404 1085.28C794.404 1050.78 746.572 1022.81 687.569 1022.81C628.565 1022.81 580.733 1050.78 580.733 1085.28C580.733 1119.79 628.565 1147.76 687.569 1147.76Z" fill="#99519B"/>
<path d="M827.516 951.171C827.571 951.208 827.626 951.226 827.7 951.245C821.594 959.287 811.62 961.59 809.383 960.513C807.587 959.677 806.523 957.485 807.88 956.185C808.503 955.591 809.604 954.978 810.63 954.105C813.619 951.579 814.609 947.196 814.902 943.779L827.516 951.171Z" fill="#E0E0E0"/>
<path d="M821.228 963.577C821.264 957.114 816.827 949.202 811.327 945.933C808.43 944.224 805.826 944.131 803.993 945.357L797.209 949.22L811.419 974.033L818.147 970.17V970.152C820.017 969.149 821.209 966.883 821.228 963.577Z" fill="#37474F"/>
<path d="M804.286 949.982C809.805 953.251 814.224 961.144 814.187 967.626C814.15 974.089 809.64 976.689 804.14 973.421C798.621 970.152 794.202 962.258 794.239 955.776C794.276 949.313 798.768 946.713 804.286 949.982Z" fill="#455A64"/>
<path d="M800.84 959.695C800.858 957.17 802.38 956.018 804.25 957.114C806.12 958.228 807.623 961.163 807.605 963.707C807.587 966.233 806.065 967.385 804.195 966.289C802.325 965.174 800.821 962.221 800.84 959.695Z" fill="#263238"/>
<path d="M810.172 941.067C810.172 941.067 810.832 953.009 805.423 957.578C804.396 958.432 803.315 959.064 802.673 959.658C801.298 960.958 802.38 963.131 804.176 963.986C806.798 965.211 820.219 961.72 825.445 950L810.172 941.067Z" fill="#F5F5F5"/>
<path d="M804.451 960.42C805.02 960.717 805.515 961.46 805.552 962.11C805.588 962.76 805.148 963.039 804.598 962.741C804.03 962.444 803.535 961.701 803.498 961.051C803.461 960.42 803.883 960.123 804.451 960.42Z" fill="#263238"/>
<path d="M674.698 861.873C674.753 861.91 674.808 861.929 674.881 861.947C668.776 869.989 658.802 872.292 656.565 871.215C654.768 870.379 653.705 868.188 655.061 866.888C655.685 866.293 656.785 865.681 657.812 864.808C660.8 862.282 661.79 857.899 662.084 854.481L674.698 861.873Z" fill="#E0E0E0"/>
<path d="M668.409 874.28C668.446 867.816 664.009 859.904 658.508 856.636C655.611 854.927 653.008 854.834 651.174 856.06L644.391 859.923L658.6 884.736L665.329 880.873L665.31 880.854C667.199 879.851 668.391 877.586 668.409 874.28Z" fill="#37474F"/>
<path d="M651.468 860.684C656.986 863.953 661.405 871.847 661.368 878.328C661.332 884.792 656.822 887.392 651.321 884.123C645.802 880.854 641.384 872.961 641.42 866.479C641.457 860.016 645.949 857.416 651.468 860.684Z" fill="#455A64"/>
<path d="M648.003 870.398C648.021 867.872 649.543 866.72 651.413 867.816C653.283 868.931 654.786 871.865 654.768 874.41C654.75 876.935 653.228 878.087 651.358 876.991C649.488 875.877 648.003 872.924 648.003 870.398Z" fill="#263238"/>
<path d="M657.353 851.751C657.353 851.751 658.013 863.693 652.605 868.262C651.578 869.116 650.496 869.748 649.854 870.342C648.479 871.642 649.561 873.815 651.358 874.67C653.98 875.896 667.401 872.404 672.626 860.684L657.353 851.751Z" fill="#F5F5F5"/>
<path d="M651.633 871.122C652.201 871.419 652.696 872.162 652.733 872.812C652.77 873.462 652.33 873.741 651.78 873.444C651.211 873.147 650.716 872.404 650.679 871.754C650.624 871.104 651.064 870.825 651.633 871.122Z" fill="#263238"/>
<path d="M943.941 884.272C943.996 884.309 944.051 884.328 944.124 884.346C938.019 892.388 928.045 894.691 925.808 893.614C924.011 892.778 922.948 890.587 924.305 889.286C924.928 888.692 926.028 888.079 927.055 887.206C930.043 884.68 931.033 880.297 931.327 876.88L943.941 884.272Z" fill="#E0E0E0"/>
<path d="M937.652 896.678C937.689 890.215 933.252 882.303 927.752 879.034C924.855 877.326 922.251 877.233 920.418 878.458L913.634 882.322L927.843 907.135L934.572 903.272V903.253C936.442 902.25 937.634 899.984 937.652 896.678Z" fill="#37474F"/>
<path d="M920.711 883.083C926.23 886.352 930.648 894.245 930.612 900.727C930.575 907.19 926.065 909.791 920.564 906.522C915.046 903.253 910.627 895.36 910.664 888.878C910.7 882.414 915.192 879.814 920.711 883.083Z" fill="#455A64"/>
<path d="M917.246 892.797C917.264 890.271 918.786 889.119 920.656 890.215C922.526 891.329 924.03 894.264 924.011 896.808C923.993 899.334 922.471 900.486 920.601 899.39C918.731 898.275 917.246 895.322 917.246 892.797Z" fill="#263238"/>
<path d="M926.596 874.15C926.596 874.15 927.256 886.092 921.848 890.661C920.821 891.515 919.739 892.147 919.098 892.741C917.722 894.041 918.804 896.214 920.601 897.068C923.223 898.294 936.644 894.803 941.869 883.083L926.596 874.15Z" fill="#F5F5F5"/>
<path d="M920.876 893.521C921.444 893.818 921.939 894.561 921.976 895.211C922.013 895.861 921.573 896.14 921.023 895.842C920.454 895.545 919.959 894.802 919.923 894.152C919.868 893.502 920.308 893.224 920.876 893.521Z" fill="#263238"/>
<path d="M791.104 794.955C791.159 794.993 791.214 795.011 791.287 795.03C785.182 803.072 775.208 805.375 772.971 804.297C771.174 803.462 770.111 801.27 771.468 799.97C772.091 799.376 773.191 798.763 774.218 797.89C777.206 795.364 778.196 790.981 778.49 787.563L791.104 794.955Z" fill="#E0E0E0"/>
<path d="M784.833 807.38C784.87 800.917 780.433 793.005 774.933 789.736C772.036 788.028 769.432 787.935 767.599 789.161L760.815 793.024L775.024 817.837L781.753 813.974L781.735 813.955C783.605 812.952 784.797 810.668 784.833 807.38Z" fill="#37474F"/>
<path d="M767.874 793.785C773.393 797.054 777.811 804.947 777.775 811.429C777.738 817.893 773.228 820.493 767.727 817.224C762.209 813.955 757.79 806.062 757.827 799.58C757.863 793.098 762.374 790.516 767.874 793.785Z" fill="#455A64"/>
<path d="M764.427 803.499C764.445 800.973 765.967 799.821 767.837 800.917C769.707 802.031 771.211 804.966 771.193 807.51C771.174 810.036 769.652 811.188 767.782 810.092C765.912 808.978 764.409 806.025 764.427 803.499Z" fill="#263238"/>
<path d="M773.778 784.852C773.778 784.852 774.438 796.794 769.029 801.363C768.002 802.217 766.921 802.849 766.279 803.443C764.904 804.743 765.986 806.916 767.782 807.771C770.404 808.996 783.825 805.505 789.05 793.785L773.778 784.852Z" fill="#F5F5F5"/>
<path d="M768.039 804.205C768.607 804.502 769.102 805.245 769.139 805.895C769.176 806.545 768.736 806.823 768.186 806.526C767.617 806.229 767.122 805.486 767.086 804.836C767.049 804.205 767.471 803.926 768.039 804.205Z" fill="#263238"/>
<path d="M946.343 872.961C947.59 873.685 948.195 874.633 948.195 875.58C948.195 876.527 948.195 885.795 948.195 886.742C948.195 887.689 947.571 888.636 946.343 889.342L824.381 960.68C821.906 962.129 817.891 962.129 815.416 960.68L628.88 851.584C627.633 850.859 627.028 849.912 627.028 848.965C627.028 848.018 627.028 838.769 627.028 837.821C627.028 836.874 627.651 835.927 628.88 835.203L750.841 763.865C753.316 762.416 757.332 762.416 759.807 763.865L946.343 872.961Z" fill="#410F53"/>
<path d="M815.416 949.536L628.898 840.459C627.725 839.772 627.083 838.88 627.028 837.951C627.028 839.66 627.028 848.055 627.028 848.965C627.046 849.912 627.651 850.859 628.898 851.584L815.416 960.661C816.626 961.367 818.202 961.72 819.779 961.739C819.779 955.87 819.798 955.461 819.779 950.595C818.202 950.614 816.626 950.242 815.416 949.536Z" fill="#E0E0E0"/>
<path d="M819.889 949.685C818.367 949.685 816.901 949.332 815.856 948.719L629.32 839.623C628.44 839.103 627.926 838.434 627.926 837.803C627.926 837.171 628.44 836.503 629.32 835.983L751.281 764.664C752.326 764.051 753.793 763.698 755.296 763.698C756.8 763.698 758.285 764.051 759.312 764.664L945.848 873.76C946.728 874.28 947.241 874.948 947.241 875.58C947.241 876.211 946.728 876.88 945.848 877.4L823.886 948.738C822.878 949.332 821.411 949.685 819.889 949.685Z" fill="#4D1B56"/>
<path d="M755.333 764.645C756.69 764.645 757.992 764.942 758.89 765.481L945.426 874.577C946.068 874.948 946.361 875.357 946.361 875.599C946.361 875.84 946.068 876.23 945.426 876.62L823.464 947.958C822.548 948.496 821.246 948.794 819.907 948.794C818.551 948.794 817.249 948.496 816.35 947.958L629.814 838.862C629.173 838.49 628.879 838.082 628.879 837.84C628.879 837.617 629.173 837.209 629.814 836.819L751.776 765.481C752.674 764.942 753.976 764.645 755.333 764.645ZM755.333 762.788C753.701 762.788 752.088 763.141 750.859 763.865L628.898 835.203C627.651 835.927 627.046 836.874 627.046 837.822C627.046 838.769 627.669 839.716 628.898 840.44L815.434 949.537C816.68 950.261 818.294 950.614 819.907 950.614C821.521 950.614 823.153 950.261 824.381 949.537L946.343 878.199C947.589 877.474 948.194 876.527 948.194 875.58C948.194 874.633 947.571 873.686 946.343 872.961L759.807 763.865C758.56 763.141 756.946 762.788 755.333 762.788Z" fill="#410F53"/>
<path d="M750.181 449.949C748.953 455.576 748.311 462.207 748.311 469.729V768.694C748.311 770.904 754.691 770.904 754.691 768.694V469.729C754.691 461.817 755.462 454.963 756.873 449.466L750.181 449.949Z" fill="#410F53"/>
<path d="M635.278 720.962L632.088 715.371L748.311 647.395C751.611 645.779 753.775 651.667 751.135 653.209L635.278 720.962Z" fill="#410F53"/>
<path opacity="0.2" d="M634.49 719.587L635.278 720.962L640.87 717.693V710.227L634.49 713.96V719.587Z" fill="black"/>
<path d="M696.516 801.79C696.516 804.372 690.135 804.372 690.135 801.79V683.296H696.516V801.79Z" fill="#410F53"/>
<path d="M738.099 463.897C737.109 463.897 736.155 464.045 735.257 464.343C734.56 464.584 733.863 464.918 733.13 465.327C730.38 467.036 728.565 470.119 728.565 473.61C728.583 478.959 732.873 483.268 738.154 483.25C743.434 483.231 747.688 478.885 747.669 473.536C747.669 468.187 743.379 463.878 738.099 463.897Z" fill="#410F53"/>
<path opacity="0.07" d="M742.095 479.702C743.819 478.476 742.792 476.415 739.749 475.913C736.705 475.412 733.588 476.452 734.835 479.201C730.6 477.455 728.803 469.933 732.195 466.014C729.976 467.797 728.564 470.546 728.583 473.629C728.601 478.978 732.891 483.287 738.172 483.268C743.049 483.25 747.064 479.535 747.614 474.743C747.284 476.322 745.561 479.201 742.095 479.702Z" fill="black"/>
<path opacity="0.3" d="M746.093 472.552C745.891 473.257 745.304 473.889 744.589 473.945C743.507 474.019 742.756 472.942 742.077 472.087C740.317 469.896 737.585 468.689 734.853 468.169C734.523 468.113 734.157 468.039 733.863 467.871C733.57 467.686 733.332 467.351 733.368 467.017C733.405 466.72 733.643 466.274 733.9 466.088C734.542 465.643 735.293 465.327 736.064 465.16C738.044 464.77 740.189 465.178 741.986 466.07C743.782 466.961 745.249 468.466 745.928 470.397C746.148 471.084 746.294 471.846 746.093 472.552Z" fill="#F090E0"/>
<path opacity="0.2" d="M742.957 471.642C743.122 472.013 743.361 472.366 743.691 472.607C743.892 472.756 744.112 472.886 744.351 472.923C746.881 473.276 744.937 467.463 743.232 469.079C742.939 469.357 742.811 469.766 742.756 470.156C742.682 470.657 742.756 471.177 742.957 471.642Z" fill="#F090E0"/>
<path d="M834.484 533.656L741.931 479.554C739.034 477.863 742.224 472.254 745.121 473.963L837.674 528.065L834.484 533.656Z" fill="#410F53"/>
<g opacity="0.3">
<path d="M834.484 533.656L741.931 479.554C739.034 477.863 742.224 472.254 745.121 473.963L837.674 528.065L834.484 533.656Z" fill="#F090E0"/>
</g>
<path d="M793.854 502.398C793.854 505.277 787.474 505.277 787.474 502.398V475.95H793.854V502.398Z" fill="#410F53"/>
<path opacity="0.07" d="M793.854 491.161V475.95H787.474V487.428L793.854 491.161Z" fill="black"/>
<path d="M836.06 521.175C835.07 521.175 834.117 521.324 833.218 521.621C832.522 521.862 831.825 522.197 831.092 522.605C828.341 524.314 826.526 527.397 826.526 530.889C826.545 536.238 830.835 540.546 836.115 540.528C841.396 540.509 845.649 536.163 845.631 530.814C845.631 525.484 841.341 521.157 836.06 521.175Z" fill="#410F53"/>
<path opacity="0.07" d="M840.039 536.981C841.762 535.755 840.736 533.693 837.692 533.192C834.648 532.672 831.532 533.73 832.778 536.479C828.543 534.733 826.746 527.211 830.138 523.292C827.92 525.075 826.508 527.824 826.526 530.907C826.545 536.256 830.835 540.565 836.115 540.547C840.992 540.528 845.008 536.813 845.558 532.022C845.228 533.6 843.522 536.479 840.039 536.981Z" fill="black"/>
<path opacity="0.3" d="M844.036 529.83C843.834 530.536 843.247 531.167 842.532 531.223C841.451 531.297 840.699 530.22 840.021 529.366C838.26 527.174 835.529 525.967 832.797 525.447C832.467 525.391 832.1 525.317 831.807 525.15C831.513 524.964 831.275 524.63 831.312 524.295C831.348 523.998 831.587 523.552 831.843 523.367C832.485 522.921 833.237 522.605 834.007 522.438C835.987 522.048 838.132 522.457 839.929 523.348C841.726 524.24 843.192 525.744 843.871 527.676C844.109 528.363 844.237 529.124 844.036 529.83Z" fill="#F090E0"/>
<path opacity="0.2" d="M840.901 528.938C841.066 529.31 841.304 529.663 841.634 529.904C841.836 530.053 842.056 530.183 842.294 530.22C844.824 530.573 842.881 524.76 841.176 526.375C840.882 526.654 840.754 527.063 840.699 527.453C840.626 527.954 840.699 528.474 840.901 528.938Z" fill="#F090E0"/>
<path d="M794.973 488.413V461.798L765.949 444.823V471.437L794.973 488.413Z" fill="#410F53"/>
<path d="M794.973 488.413V461.798L816.021 449.466V476.099L794.973 488.413Z" fill="#410F53"/>
<path opacity="0.5" d="M794.973 488.413V461.798L816.021 449.466V476.099L794.973 488.413Z" fill="#F090E0"/>
<path d="M765.949 444.823L787.015 432.509L816.021 449.466L794.973 461.798L765.949 444.823Z" fill="#410F53"/>
<path opacity="0.3" d="M765.949 444.823L787.015 432.509L816.021 449.466L794.973 461.798L765.949 444.823Z" fill="#F090E0"/>
<path d="M790.994 448.649C782.175 448.649 770.239 448.649 756.873 449.466L750.181 449.949C732.947 451.342 713.97 454.22 696.644 460.219C656.987 473.945 636.874 500.336 636.874 538.633V837.617C636.874 839.809 630.493 839.809 630.493 837.617V538.652C630.493 464.083 700.183 447.163 752.088 443.318L759.22 442.854C768.241 442.371 776.528 442.241 783.623 442.204C786.869 442.52 791.251 448.649 791.251 448.649" fill="#410F53"/>
<path opacity="0.07" d="M749.448 453.849C749.686 453.83 749.943 453.793 750.181 453.775L756.03 453.366C756.287 452.01 756.562 450.71 756.873 449.484L750.181 449.967C749.906 451.193 749.668 452.493 749.448 453.849Z" fill="black"/>
<path d="M795.999 447.237C793.432 443.337 790.462 439.715 787.015 436.595C778.911 429.277 770.973 426.659 764.17 429.166C758.853 431.135 754.783 435.982 752.088 443.318L759.22 442.854C761.09 438.917 763.51 436.298 766.371 435.239C767.324 434.886 768.351 434.719 769.414 434.719C773.539 434.719 778.453 437.319 783.623 442.204L796.879 448.556L795.999 447.237Z" fill="#410F53"/>
<path d="M795.431 415.831H785.897V444.173H795.431V415.831Z" fill="#410F53"/>
<path d="M790.609 385C788.72 385 786.905 385.297 785.2 385.854C783.88 386.319 782.523 386.95 781.148 387.73C775.923 390.999 772.439 396.849 772.458 403.517C772.494 413.713 780.69 421.941 790.737 421.904C800.803 421.867 808.925 413.583 808.888 403.387C808.852 393.209 800.675 384.963 790.609 385Z" fill="#410F53"/>
<path opacity="0.07" d="M798.218 415.125C801.518 412.803 799.538 408.866 793.744 407.9C787.95 406.934 782.01 408.94 784.393 414.159C776.344 410.853 772.916 396.478 779.37 389.03C775.153 392.429 772.457 397.648 772.476 403.536C772.512 413.732 780.69 421.96 790.755 421.923C800.051 421.885 807.678 414.791 808.76 405.671C808.1 408.68 804.836 414.178 798.218 415.125Z" fill="black"/>
<path opacity="0.3" d="M805.845 401.511C805.478 402.848 804.341 404.056 802.966 404.148C800.895 404.297 799.483 402.235 798.163 400.601C794.789 396.441 789.619 394.119 784.393 393.135C783.752 393.023 783.073 392.893 782.505 392.559C781.937 392.225 781.478 391.593 781.57 390.925C781.643 390.349 782.102 389.495 782.578 389.179C783.807 388.306 785.237 387.712 786.704 387.433C790.462 386.709 794.569 387.452 797.998 389.16C801.408 390.869 804.231 393.729 805.497 397.407C805.955 398.707 806.212 400.155 805.845 401.511Z" fill="#F090E0"/>
<path opacity="0.2" d="M799.85 399.784C800.161 400.508 800.62 401.158 801.243 401.641C801.61 401.938 802.05 402.18 802.508 402.235C807.33 402.904 803.626 391.835 800.363 394.899C799.813 395.419 799.556 396.199 799.464 396.942C799.336 397.908 799.483 398.911 799.85 399.784Z" fill="#F090E0"/>
<path d="M823.189 827.476L819.999 821.886L936.222 753.91C938.936 752.368 941.319 758.349 937.836 760.429L823.189 827.476Z" fill="#410F53"/>
<path opacity="0.2" d="M823.189 827.476L828.782 824.208V816.741L822.401 820.475V826.102L823.189 827.476Z" fill="black"/>
<path d="M824.785 944.113C824.785 946.193 818.404 946.193 818.404 944.113V638.908C818.404 538.559 813.912 484.29 788.372 447.274L784.999 442.39L790.884 442.204C835.235 440.737 877.276 456.226 906.263 484.643C930.025 507.951 942.584 537.463 942.584 570.003V875.208C942.584 877.567 936.204 877.567 936.204 875.208V570.003C936.204 539.265 924.323 511.35 901.826 489.286C875.333 463.303 837.325 448.63 796.861 448.574C820.494 486.797 824.785 541.512 824.785 638.926V944.113Z" fill="#410F53"/>
<path d="M883.694 909.661C883.694 911.685 877.313 911.685 877.313 909.661V791.167H883.694V909.661Z" fill="#410F53"/>
<path d="M918.822 948.143C915.687 976.652 914.972 985.809 913.891 997.621C913.23 1006.68 912.387 1015.56 912.277 1020.45C912.057 1029.81 914.184 1040.13 917.484 1047.84C920.216 1054.18 929.383 1063.63 932.463 1068.14C932.463 1068.14 943.006 1075.89 935.672 1080.79C933.582 1082.18 914.422 1081.9 905.292 1078.08C896.161 1074.25 894.474 1064.65 889.322 1049.44C884.463 1035.06 880.888 1014.82 880.888 1014.82C880.888 1014.82 882.483 1012.39 883.272 1010.51C885.252 1005.89 876.946 968.35 875.058 951.059C873.169 933.768 871.574 925.559 878.046 902.807L868.366 826.604L867.687 761.748L920.106 746.611C926.67 789.142 925.46 859.774 923.901 880.13C922.343 900.504 920.968 929.515 918.822 948.143Z" fill="#FFA8A7"/>
<path d="M875.461 1031.05C875.865 1034.54 878.541 1038.65 879.513 1044.13C880.485 1049.61 881.145 1055.29 881.072 1063.03C880.998 1070.78 880.998 1071.87 880.998 1071.87L883.363 1071.89C883.363 1071.89 883.473 1060.69 883.51 1055.79C883.547 1050.87 884.629 1047.19 886.957 1046.69C886.957 1046.69 886.939 1031.16 875.461 1031.05Z" fill="#263238"/>
<path d="M882.887 1010.16C881.383 1014.26 877.496 1018.37 875.608 1024.61C874.691 1027.65 875.131 1030.61 875.828 1032.63C877.698 1034.64 878.926 1035.32 880.32 1036.7C882.318 1038.67 884.225 1040.1 886.059 1044.37C887.984 1048.86 890.294 1057.22 891.852 1063.68C893.411 1070.15 894.016 1074.07 899.535 1077.24C903.843 1079.71 917.044 1082.46 925.936 1082.96C938.092 1083.65 943.134 1077.3 938.55 1072.62C933.967 1067.92 928.962 1062.74 927.568 1061.73C927.568 1061.73 922.086 1060.84 916.292 1063.42C909.509 1066.43 907.382 1070.46 900.213 1066.9C893.722 1063.68 889.597 1051.2 890.019 1033.76C890.496 1013.95 882.887 1010.16 882.887 1010.16Z" fill="#37474F"/>
<path d="M837.894 742.098C810.245 789.402 814.077 819.416 819.706 865.439C824.968 908.435 824.069 900.634 824.069 900.634C824.069 900.634 819.027 922.866 819.394 944.132C819.761 964.32 821.833 990.842 821.466 1011.42C821.209 1024.9 822.291 1032.87 818.899 1047.69C817.084 1055.61 816.754 1062.27 814.829 1069.44C812.904 1076.61 810.96 1084.99 810.245 1091.86C809.53 1098.73 808.448 1108.57 813.307 1115.17C817.799 1121.28 827.131 1127.09 833.952 1120.18C840.772 1113.27 842.716 1102.61 843.321 1088.29C843.944 1073.97 844.971 1058.04 847.831 1041.55C850.691 1025.05 863.507 958.674 867.504 938.876C871.501 919.096 876.396 901.582 879.11 878.031C881.823 854.481 891.339 810.185 891.339 810.185C898.984 808.142 921.004 796.367 911.177 745.719L837.894 742.098Z" fill="#FFA8A7"/>
<path d="M812.354 1079.43C810.667 1088.46 812.152 1099.68 815.104 1098.68C824.491 1095.46 828.341 1095.46 835.437 1101.03C842.532 1106.61 843.834 1078.04 843.834 1078.04C843.724 1097.88 842.276 1105.42 839.984 1112.21C837.692 1118.99 830.908 1128.15 823.483 1127.35C814.004 1126.35 808.577 1108.83 808.778 1102.95C808.962 1097.06 810.373 1087.55 812.354 1079.43Z" fill="#37474F"/>
<path d="M923.461 913.245C904.1 927.955 879.128 930.499 855.385 926.803C845.484 925.262 835.932 922.03 827.131 917.183C822.254 914.49 818.111 911.388 814.297 907.933C814.315 907.469 814.352 906.968 814.37 906.54C815.195 890.549 813.619 845.251 813.765 806.582C813.82 792.43 817.304 775.789 825.738 761.618C834.997 746.072 839.232 733.61 840.882 727.834C840.882 727.834 854.138 730.471 862.15 732.44C872.528 734.966 895.189 735.523 917.942 726.032C920.858 736.414 921.976 751.625 923.663 767.115C925.203 781.249 929.42 818.097 925.973 872.85C925.405 882.285 924.451 897.477 923.461 913.245Z" fill="#BA68C8"/>
<path opacity="0.3" d="M923.461 913.245C904.1 927.955 879.128 930.499 855.385 926.803C845.484 925.262 835.932 922.03 827.131 917.183C822.254 914.49 818.111 911.388 814.297 907.933C814.315 907.469 814.352 906.968 814.37 906.54C815.195 890.549 813.619 845.251 813.765 806.582C813.82 792.43 817.304 775.789 825.738 761.618C834.997 746.072 839.232 733.61 840.882 727.834C840.882 727.834 854.138 730.471 862.15 732.44C872.528 734.966 895.189 735.523 917.942 726.032C920.858 736.414 921.976 751.625 923.663 767.115C925.203 781.249 929.42 818.097 925.973 872.85C925.405 882.285 924.451 897.477 923.461 913.245Z" fill="black"/>
<path opacity="0.05" d="M858.795 782.456C860.537 785.149 862.554 787.675 863.342 789.18C866.862 795.866 869.777 802.682 872.088 809.61C883.932 845.083 880.137 866.999 880.283 903.16C880.283 904.498 879.385 908.491 881.31 909.401C883.693 910.534 884.665 908.751 884.885 907.265C885.124 905.686 885.362 904.108 885.6 902.529C892.347 858.01 896.858 828.071 903.88 783.589C904.136 781.973 904.375 780.246 903.366 778.742C900.616 774.6 895.519 777.72 891.981 779.095C887.36 780.896 882.703 781.695 877.643 779.633C873.921 778.11 871.006 775.752 867.632 773.839C866.056 772.947 864.332 772.13 862.407 771.814C860.482 771.498 858.3 771.758 856.98 772.761C854.45 774.711 856.375 778.742 858.795 782.456Z" fill="black"/>
<path d="M897.738 627.69C914.551 630.903 919.116 637.403 926.486 657.555C932.207 673.211 939.431 693.901 939.431 693.901L919.226 702.278L897.738 627.69Z" fill="#37474F"/>
<path d="M917.906 723.042C918.786 716.894 919.611 704.321 919.061 693.27C929.127 679.21 923.461 662.996 919.134 655.233C908.867 636.846 903.128 632.407 897.738 627.69C897.738 627.69 896.803 627.355 891.742 626.835C883.272 625.962 853.35 626.947 850.398 627.541C842.496 629.157 837.802 630.29 832.577 631.887C830.56 632.5 825.39 635.249 823.849 636.697C819.633 640.728 821.209 650.664 821.558 655.957C822.236 666.395 824.344 676.796 828.341 686.472C828.488 686.807 828.616 687.141 828.763 687.475C835.804 703.894 839.709 715.204 840.644 726.125C869.558 738.717 893.337 736.6 917.906 723.042Z" fill="#BA68C8"/>
<path opacity="0.3" d="M917.906 723.042C918.786 716.894 919.611 704.321 919.061 693.27C929.127 679.21 923.461 662.996 919.134 655.233C908.867 636.846 903.128 632.407 897.738 627.69C897.738 627.69 896.803 627.355 891.742 626.835C883.272 625.962 853.35 626.947 850.398 627.541C842.496 629.157 837.802 630.29 832.577 631.887C830.56 632.5 825.39 635.249 823.849 636.697C819.633 640.728 821.209 650.664 821.558 655.957C822.236 666.395 824.344 676.796 828.341 686.472C828.488 686.807 828.616 687.141 828.763 687.475C835.804 703.894 839.709 715.204 840.644 726.125C869.558 738.717 893.337 736.6 917.906 723.042Z" fill="black"/>
<path d="M839.122 731.753C839.122 731.753 850.545 739.516 881.127 738.476C908.702 737.547 919.281 729.635 919.281 729.635L918.676 718.324C918.676 718.324 905.218 729.765 880.962 729.728C851.021 729.672 839.856 720.237 839.856 720.237C840.259 723.079 839.544 729.542 839.122 731.753Z" fill="#263238"/>
<path d="M963.522 741.373L887.342 784.146L908.243 680.993L984.424 638.22L963.522 741.373Z" fill="#BA68C8"/>
<path d="M831.66 633.206C819.156 637.738 817.414 639.576 813.49 659.17C811.015 671.558 806.01 696.947 804.03 715.539C802.343 731.325 802.086 735.411 816.461 741.689C831.605 748.282 862.407 756.361 872.436 759.24C878.633 761.023 886.022 764.979 894.914 765.146L895.519 743.843L897.591 733.591C890.936 734.334 884.757 736.396 878.835 736.489C871.428 736.6 836.39 716.114 836.39 716.114L844.861 673.731C844.842 673.713 848.913 644.962 831.66 633.206Z" fill="#FFA8A7"/>
<path d="M832.797 631.646C824.546 633.782 819.926 634.487 814.48 650.961C809.035 667.435 803.681 699.158 803.681 699.158C803.681 699.158 808.742 705.082 822.548 707.348C836.354 709.595 838.902 707.682 838.902 707.682C838.902 707.682 843.669 685.618 846.053 675.552C848.638 664.705 848.216 642.214 832.797 631.646Z" fill="#37474F"/>
<path d="M968.619 716.189C964.219 719.402 956.775 722.225 954.318 727.481C953.86 728.465 953.915 730.285 955.345 730.75C954.795 734.631 957.948 738.197 961.505 737.064C966.034 735.634 968.069 733.628 969.866 730.787C976.705 719.94 969.884 709.948 969.884 709.948L968.619 716.189Z" fill="#FFA8A7"/>
<path d="M927.495 743.881C927.862 743.156 928.045 742.358 928.027 741.559C928.008 740.89 927.843 740.185 927.348 739.739C926.706 739.182 925.753 739.237 924.91 739.367C918.951 740.278 913.267 742.729 907.217 743.026C904.54 743.156 901.881 742.692 899.37 741.745C898.325 741.355 896.418 740.538 896.491 739.089L895.574 743.639L894.933 765.128C896.381 765.239 898.416 765.351 901.551 765.109C902.798 765.016 904.027 764.886 905.255 764.719C910.352 764.013 915.559 762.658 919.941 759.835C921.463 758.85 922.911 757.68 924.103 756.306C925.955 754.188 926.358 750.66 926.101 747.948C926.028 747.242 925.918 746.499 926.211 745.849C926.395 745.422 926.743 745.088 927.018 744.735C927.183 744.456 927.348 744.178 927.495 743.881Z" fill="#FFA8A7"/>
<path d="M840.626 550.149C842.624 535.94 866.569 518.408 894.291 532.337C922.013 546.267 914.184 566.121 908.959 571.489C907.968 586.811 907.088 598.419 909.252 605.532C911.415 612.646 914.551 615.562 916.476 616.973C911.067 618.942 905.017 618.979 899.571 617.103C900.158 618.663 901.111 620.075 902.34 621.171C895.079 624.644 885.05 622.564 878.376 618.645C877.753 618.273 876.946 618.329 876.231 618.422C875.351 618.552 874.581 619.053 873.811 619.481C867.834 622.768 859.914 622.452 853.405 621.431C849.774 620.855 846.163 619.871 843.009 617.939C839.874 616.007 837.234 613.073 836.189 609.507C835.602 612.776 836.207 616.267 837.875 619.128C835.492 618.496 833.09 617.679 831.165 616.119C827.626 613.277 825.096 608.393 825.335 603.824C825.573 599.255 827.15 595.132 828.635 590.823C830.303 585.975 831.312 581.276 831.018 576.113C830.78 571.934 830.743 568.127 831.055 564.691C831.733 557.633 834.685 551.244 840.626 550.149Z" fill="#263238"/>
<path d="M852.121 621.004C852.03 616.082 851.755 601.075 851.755 601.075C851.718 602.338 846.016 606.48 840.076 601.558C833.42 596.042 833.145 588.706 835.987 584.025C839.122 578.862 847.079 578.398 850.948 586.031C853.423 588.687 857.292 584.991 854.762 577.432C853.826 574.665 856.173 572.696 857.383 570.69C858.612 568.666 858.887 566.084 859.015 563.762C859.382 556.928 861.289 550.873 869.081 550.334C872.308 550.111 875.553 551.077 878.413 552.6C879.843 553.362 881.402 554.272 882.96 553.882C884.519 553.473 885.454 551.932 886.572 550.761C888.35 548.923 891.082 547.641 893.594 548.514C897.958 550.037 900.47 555.572 901.625 559.732C903.531 566.567 904.705 573.625 905.09 580.719C906.043 598.623 901.606 606.981 896.711 611.179C893.979 613.519 890.276 614.93 883.62 614.967C883.62 614.967 883.473 617.196 883.418 620.502C883.363 623.529 883.712 625.238 886.48 625.907C888.35 626.352 891.009 626.891 891.009 626.891C891.009 626.891 889.377 645.984 886.609 664.984C859.547 635.676 843.412 629.083 843.412 629.083C843.412 629.083 846.474 628.284 847.391 627.968C851.168 626.687 852.213 625.925 852.121 621.004Z" fill="#FFA8A7"/>
<path d="M852.121 621.003C852.121 621.003 858.74 629.027 867.926 637.552C877.111 646.058 888.809 664.445 891.431 675.942C882.428 665.615 868.329 660.266 865.341 655.846C862.352 651.444 861.985 645.315 861.985 645.315L839.049 630.086C839.049 630.086 845.099 625.832 847.813 622.471C850.398 619.276 852.066 618.199 852.066 618.199L852.121 621.003Z" fill="#37474F"/>
<path d="M883.749 623.065C886.169 632.091 886.59 664.946 886.59 664.946L891.412 675.941C891.412 675.941 896.894 658 897.591 651.983C898.306 645.965 892.604 641.303 892.604 641.303L893.227 627.021L883.749 623.065Z" fill="#37474F"/>
<path d="M883.602 614.949C871.666 614.819 860.409 610.51 856.173 600.982C856.173 600.982 856.76 608.411 863.672 612.924C872.564 618.719 883.437 618.571 883.437 618.571L883.602 614.949Z" fill="#F28F8F"/>
<path d="M898.416 564.728L891.101 563.038C891.486 560.958 893.447 559.658 895.464 560.122C897.481 560.586 898.801 562.648 898.416 564.728Z" fill="#263238"/>
<path d="M866.477 565.23L873.554 562.462C872.876 560.438 870.731 559.416 868.769 560.178C866.826 560.939 865.799 563.205 866.477 565.23Z" fill="#263238"/>
<path d="M891.229 574.627C891.137 576.355 892.439 577.878 894.163 578.026C895.886 578.175 897.371 576.893 897.463 575.166C897.554 573.439 896.253 571.916 894.529 571.767C892.806 571.637 891.339 572.9 891.229 574.627Z" fill="#263238"/>
<path d="M868.604 575.612C868.512 577.339 869.814 578.862 871.538 579.011C873.261 579.159 874.746 577.878 874.838 576.15C874.93 574.423 873.628 572.9 871.904 572.752C870.181 572.622 868.696 573.885 868.604 575.612Z" fill="#263238"/>
<path d="M858.465 568.424L840.644 580.478C842.624 580.032 843.944 579.976 846.584 581.239L859.419 572.677L858.465 568.424Z" fill="#455A64"/>
<path d="M907.565 565.917C902.853 565.415 896.491 565.341 892.604 566.641C888.259 568.127 886.719 569.706 884.317 569.78C881.75 569.854 880.137 568.368 875.516 567.143C871.831 566.177 865.267 566.66 860.574 567.31C858.96 567.365 857.493 567.885 857.457 570.058C857.64 572.101 858.96 572.399 859.309 574.052C860.115 579.753 861.637 586.848 869.008 587.071C884.207 587.74 879.202 572.844 884.794 573.494C886.81 573.922 886.535 577.859 887.8 580.645C888.277 581.704 888.882 582.781 889.726 583.672C894.731 588.891 904.1 585.808 905.493 580.515C906.722 577.878 906.465 573.68 907.767 571.396C908.94 570.356 909.912 566.474 907.565 565.917ZM878.853 578.082C878.597 579.252 878.028 580.942 876.763 582.354C875.37 584.044 872.949 584.917 870.511 584.935C867.229 584.972 863.929 583.468 863.049 580.255C862.939 579.958 862.829 579.661 862.737 579.382C862.059 577.005 861.142 571.934 862.389 570.448C864.644 567.96 875.553 567.978 878.78 571.656C879.66 572.956 879.385 575.705 878.853 578.082ZM904.778 576.41C904.43 578.063 903.66 581.648 900.543 583.319C896.418 585.492 890.624 583.412 889.707 579.345C887.122 570.82 890.404 568.777 898.82 567.811C905.732 567.7 906.135 569.501 904.778 576.41Z" fill="#455A64"/>
<path d="M893.576 586.458L883.785 591.417L881.897 576.02C882.245 575.092 882.612 574.349 883.015 574.052L893.576 586.458Z" fill="#F28F8F"/>
<path d="M885.545 595.949L875.351 592.662C874.343 595.503 875.81 598.549 878.633 599.441C881.438 600.351 884.537 598.772 885.545 595.949Z" fill="#B16668"/>
<path d="M881.842 599.459C880.815 599.775 879.696 599.793 878.633 599.441C876.268 598.679 874.874 596.432 875.076 594.036C878.175 594.463 880.742 596.58 881.842 599.459Z" fill="#F28F8F"/>
<path d="M669.729 1069.57L659.498 1065.88L662.835 1059.1L669.142 1064.78L669.729 1069.57Z" fill="black"/>
<path d="M680.271 1051.5C680.271 1051.5 680.693 1058 680.785 1060.04C680.876 1062.09 671.948 1068.51 669.729 1069.57L669.124 1064.78C667.217 1066.67 666.062 1069.05 664.009 1072.56C662.285 1075.5 660.103 1081.03 655.373 1084.82C648.351 1090.45 637.405 1093.34 626.239 1093.81C615.074 1094.27 608.675 1091.62 605.485 1089.28C602.313 1086.94 601.286 1084.17 602.074 1081.4C602.9 1078.62 680.271 1051.5 680.271 1051.5Z" fill="#263238"/>
<path d="M650.349 1029.49L650.203 1025.72C648.149 1025.67 647.911 1031.14 644.904 1035.94C640.87 1042.4 634.948 1050.5 629.21 1055.64C617.897 1065.78 607.795 1072.15 602.753 1076.72C596.006 1082.83 607.905 1092.4 626.129 1091.3C635.187 1090.76 651.248 1086.23 655.758 1080.98C660.268 1075.74 663.037 1067.58 666.63 1063.78C670.242 1059.97 677.998 1056.11 680.253 1051.48C681.481 1048.94 681.243 1045.39 681.115 1038.35C681.023 1033.69 681.793 1026.2 679.135 1026.8L678.951 1029.18C677.87 1031.2 672.809 1034.71 665.512 1035.96C661.882 1036.59 651.009 1036.96 650.349 1029.49Z" fill="#37474F"/>
<path opacity="0.15" d="M659.663 1036.18C656.18 1035.9 652.421 1034.8 650.973 1031.74C650.954 1031.7 650.918 1031.68 650.918 1031.65C650.918 1031.65 651.834 1035.18 648.571 1038.91C645.326 1042.64 624.773 1069.01 624.773 1069.01C624.773 1069.01 643.914 1047.25 647.581 1043.14C652.99 1037.09 654.713 1036.38 659.663 1036.18C659.682 1036.18 659.682 1036.18 659.663 1036.18Z" fill="black"/>
<path opacity="0.15" d="M655.135 1043.16C655.208 1043.76 655.758 1044.18 656.363 1044.11C656.968 1044.03 657.408 1043.5 657.353 1042.9C657.28 1042.31 656.73 1041.88 656.125 1041.95C655.501 1042.03 655.061 1042.57 655.135 1043.16Z" fill="black"/>
<path opacity="0.15" d="M649.763 1048.99C649.836 1049.59 650.386 1050.01 650.991 1049.94C651.596 1049.87 652.036 1049.33 651.981 1048.73C651.908 1048.14 651.358 1047.71 650.753 1047.79C650.129 1047.86 649.689 1048.4 649.763 1048.99Z" fill="black"/>
<path opacity="0.15" d="M644.391 1054.82C644.464 1055.42 645.014 1055.85 645.619 1055.77C646.224 1055.7 646.664 1055.16 646.609 1054.56C646.536 1053.97 645.986 1053.54 645.381 1053.62C644.757 1053.69 644.317 1054.23 644.391 1054.82Z" fill="black"/>
<path opacity="0.15" d="M639.019 1060.68C639.092 1061.27 639.642 1061.7 640.247 1061.62C640.852 1061.55 641.292 1061.01 641.237 1060.42C641.164 1059.82 640.614 1059.39 640.009 1059.47C639.385 1059.52 638.945 1060.06 639.019 1060.68Z" fill="black"/>
<path opacity="0.15" d="M633.647 1066.51C633.72 1067.1 634.27 1067.53 634.875 1067.45C635.48 1067.38 635.92 1066.84 635.865 1066.25C635.792 1065.65 635.242 1065.23 634.637 1065.3C634.013 1065.37 633.573 1065.91 633.647 1066.51Z" fill="black"/>
<path d="M656.271 1043.48C656.381 1043.48 656.473 1043.42 656.565 1043.35C656.73 1043.18 656.73 1042.9 656.565 1042.73C656.345 1042.51 650.973 1037.5 643.951 1037.94C643.712 1037.96 643.529 1038.17 643.547 1038.41C643.566 1038.65 643.767 1038.83 644.024 1038.82C650.643 1038.41 655.905 1043.31 655.96 1043.37C656.015 1043.44 656.143 1043.48 656.271 1043.48Z" fill="#263238"/>
<path d="M650.899 1049.29C651.009 1049.29 651.101 1049.23 651.193 1049.16C651.358 1048.99 651.358 1048.71 651.193 1048.55C650.973 1048.32 645.601 1043.31 638.579 1043.76C638.34 1043.77 638.157 1043.98 638.175 1044.22C638.194 1044.46 638.395 1044.65 638.652 1044.63C645.271 1044.22 650.533 1049.12 650.588 1049.18C650.643 1049.25 650.771 1049.29 650.899 1049.29Z" fill="#263238"/>
<path d="M645.527 1055.14C645.637 1055.14 645.729 1055.09 645.802 1055.01C645.967 1054.84 645.967 1054.57 645.802 1054.4C645.582 1054.18 640.21 1049.16 633.188 1049.61C632.95 1049.62 632.767 1049.83 632.785 1050.07C632.803 1050.31 633.005 1050.5 633.262 1050.48C639.88 1050.07 645.142 1054.97 645.197 1055.03C645.271 1055.1 645.399 1055.16 645.527 1055.14Z" fill="#263238"/>
<path d="M640.155 1060.97C640.265 1060.97 640.357 1060.92 640.449 1060.84C640.614 1060.68 640.614 1060.4 640.449 1060.23C640.229 1060.01 634.857 1054.99 627.834 1055.44C627.596 1055.46 627.413 1055.66 627.431 1055.9C627.449 1056.14 627.651 1056.33 627.908 1056.31C634.527 1055.9 639.789 1060.82 639.844 1060.86C639.899 1060.95 640.027 1060.99 640.155 1060.97Z" fill="#263238"/>
<path d="M634.783 1066.8C634.893 1066.8 634.985 1066.75 635.077 1066.67C635.242 1066.51 635.242 1066.23 635.077 1066.06C634.857 1065.84 629.485 1060.82 622.462 1061.27C622.224 1061.29 622.041 1061.49 622.059 1061.73C622.077 1061.98 622.279 1062.16 622.536 1062.14C629.155 1061.73 634.417 1066.64 634.472 1066.69C634.527 1066.79 634.655 1066.82 634.783 1066.8Z" fill="#263238"/>
<path d="M713.017 1098.58C713.475 1107.22 714.814 1112.96 717.912 1118.07C721.011 1123.17 727.593 1124.55 732.635 1124.18C739.749 1123.66 747.156 1119.83 751.061 1110.51C753.408 1104.9 753.151 1098.08 751.85 1090.06L713.017 1098.58Z" fill="#263238"/>
<path d="M740.574 1036.29C743.049 1036.51 743.691 1048.1 745.047 1059.73C746.496 1072.19 750.346 1079.19 751.556 1087.59C753.243 1099.23 752.381 1104.45 748.164 1111.43C743.947 1118.42 725.759 1125.27 718.536 1115.07C712.65 1106.77 712.449 1097.65 713.072 1086.03C713.714 1074.01 714.245 1065.56 713.805 1056.42C713.384 1047.69 712.815 1039.24 714.96 1038.3C715.125 1039.58 715.272 1041.21 715.437 1042.47C715.565 1043.44 715.785 1048.18 717.161 1048.23C717.289 1047.12 717.271 1046.08 717.216 1044.94C717.161 1043.96 717.252 1042.88 717.912 1042.14C718.572 1041.4 719.654 1041.16 720.662 1040.99C723.101 1040.54 725.539 1040.17 728.015 1039.99C729.243 1039.89 730.471 1039.86 731.718 1039.87C732.727 1039.89 737.237 1039.87 738.19 1040.23C738.777 1040.45 739.309 1040.86 739.51 1041.43C739.675 1041.86 739.639 1042.33 739.639 1042.77C739.639 1043.57 739.73 1044.39 739.932 1045.17C740.024 1045.52 740.262 1045.93 740.61 1045.85C740.904 1045.8 741.014 1045.45 741.014 1045.15C741.032 1043.74 740.849 1042.72 740.794 1041.08C740.775 1040.32 740.647 1039.3 740.647 1038.54C740.629 1037.78 740.629 1037.03 740.574 1036.29Z" fill="#37474F"/>
<path opacity="0.15" d="M742.499 1090.35C742.536 1090.82 742.187 1091.23 741.729 1091.26C741.252 1091.3 740.83 1090.97 740.794 1090.5C740.757 1090.04 741.105 1089.63 741.564 1089.59C742.041 1089.54 742.462 1089.89 742.499 1090.35Z" fill="black"/>
<path opacity="0.15" d="M741.729 1082.29C741.766 1082.76 741.417 1083.17 740.959 1083.2C740.482 1083.24 740.06 1082.91 740.024 1082.44C739.987 1081.98 740.335 1081.57 740.794 1081.53C741.252 1081.5 741.674 1081.83 741.729 1082.29Z" fill="black"/>
<path opacity="0.15" d="M740.995 1074.7C741.032 1075.16 740.684 1075.57 740.225 1075.61C739.749 1075.65 739.327 1075.31 739.29 1074.85C739.254 1074.38 739.602 1073.97 740.06 1073.94C740.519 1073.9 740.94 1074.23 740.995 1074.7Z" fill="black"/>
<path opacity="0.15" d="M740.262 1067.21C740.299 1067.68 739.95 1068.09 739.492 1068.12C739.015 1068.16 738.594 1067.83 738.557 1067.36C738.52 1066.9 738.869 1066.49 739.327 1066.45C739.804 1066.4 740.225 1066.75 740.262 1067.21Z" fill="black"/>
<path opacity="0.15" d="M720.736 1068.14C720.772 1068.61 720.424 1069.01 719.966 1069.05C719.489 1069.09 719.067 1068.75 719.031 1068.29C718.994 1067.83 719.342 1067.42 719.801 1067.38C720.259 1067.34 720.681 1067.68 720.736 1068.14Z" fill="black"/>
<path opacity="0.15" d="M721.469 1075.68C721.506 1076.15 721.157 1076.56 720.699 1076.59C720.222 1076.63 719.801 1076.3 719.764 1075.83C719.727 1075.37 720.076 1074.96 720.534 1074.92C720.992 1074.88 721.414 1075.22 721.469 1075.68Z" fill="black"/>
<path opacity="0.15" d="M722.203 1083.28C722.239 1083.74 721.891 1084.15 721.433 1084.19C720.956 1084.23 720.534 1083.89 720.497 1083.43C720.461 1082.96 720.809 1082.55 721.268 1082.52C721.726 1082.48 722.148 1082.81 722.203 1083.28Z" fill="black"/>
<path opacity="0.15" d="M722.973 1091.34C723.009 1091.8 722.661 1092.21 722.203 1092.25C721.726 1092.29 721.304 1091.95 721.267 1091.49C721.231 1091.02 721.579 1090.61 722.038 1090.58C722.514 1090.52 722.936 1090.87 722.973 1091.34Z" fill="black"/>
<path opacity="0.15" d="M730.215 1095.22L723.926 1039.04L727.116 1039.02L730.215 1095.22Z" fill="black"/>
<path d="M741.674 1090.84C741.637 1090.84 741.582 1090.84 741.545 1090.82C735.862 1089.52 726.126 1089.95 722.294 1091.73C722.074 1091.84 721.818 1091.75 721.708 1091.52C721.597 1091.3 721.689 1091.06 721.909 1090.95C725.961 1089.07 735.77 1088.61 741.729 1089.98C741.967 1090.04 742.114 1090.26 742.059 1090.5C742.022 1090.71 741.857 1090.84 741.674 1090.84Z" fill="#263238"/>
<path d="M740.904 1082.8C740.83 1082.8 740.757 1082.8 740.684 1082.76C736.338 1080.7 725.888 1081.68 721.524 1083.69C721.304 1083.8 721.047 1083.69 720.937 1083.48C720.827 1083.28 720.919 1083.02 721.139 1082.91C725.686 1080.79 736.485 1079.79 741.05 1081.98C741.27 1082.09 741.362 1082.33 741.252 1082.55C741.197 1082.7 741.05 1082.78 740.904 1082.8Z" fill="#263238"/>
<path d="M740.17 1075.2C740.097 1075.2 740.024 1075.2 739.95 1075.16C735.605 1073.1 725.154 1074.09 720.791 1076.09C720.571 1076.2 720.314 1076.09 720.204 1075.89C720.094 1075.68 720.186 1075.42 720.406 1075.31C724.953 1073.19 735.733 1072.19 740.317 1074.38C740.537 1074.49 740.629 1074.74 740.519 1074.96C740.464 1075.11 740.317 1075.2 740.17 1075.2Z" fill="#263238"/>
<path d="M739.437 1067.71C739.364 1067.71 739.29 1067.71 739.217 1067.68C734.872 1065.62 724.421 1066.6 720.057 1068.61C719.837 1068.72 719.581 1068.61 719.471 1068.4C719.361 1068.2 719.452 1067.94 719.672 1067.83C724.219 1065.71 735.018 1064.71 739.584 1066.9C739.804 1067.01 739.895 1067.25 739.785 1067.47C739.73 1067.62 739.602 1067.7 739.437 1067.71Z" fill="#263238"/>
<path d="M743.654 747.688C749.228 806.378 747.229 912.057 747.229 912.057C747.834 917.424 746.881 935.272 748.018 961.887C749.393 994.371 745.011 1040.62 745.011 1040.62C745.011 1040.62 727.758 1048.66 711.458 1043.64C711.458 1043.64 699.761 976.745 695.727 935.625C692.501 902.696 690.685 875.487 690.685 875.487L687.495 914.638C687.495 914.638 689.567 936.35 689.182 950.465C688.724 966.883 681.701 1032.35 681.701 1032.35C681.701 1032.35 662.817 1041.62 645.234 1032.91C645.234 1032.91 639.055 969.168 636.47 915.288C634.618 876.601 630.75 803.629 634.417 749.081L743.654 747.688Z" fill="#263238"/>
<path d="M643.511 1023.46C643.511 1023.46 648.149 1027.11 658.692 1027.99C669.234 1028.86 683.095 1023.66 683.095 1023.66L681.958 1034.26C681.958 1034.26 671.764 1039.73 658.838 1038.46C645.912 1037.2 643.951 1034.41 643.951 1034.41L643.511 1023.46Z" fill="#455A64"/>
<path d="M746.184 1035.01C746.184 1035.01 738.52 1039.34 727.996 1040.34C717.472 1041.34 709.717 1038.37 709.717 1038.37L711.532 1049.16C711.532 1049.16 717.161 1052.91 730.068 1051.48C742.976 1050.05 745.891 1045.97 745.891 1045.97L746.184 1035.01Z" fill="#455A64"/>
<path d="M710.964 827.309C711.129 842.502 711.477 857.713 711.972 872.905C712.21 880.502 712.485 888.098 712.797 895.713L713.255 907.116L713.512 912.818C713.585 914.713 713.86 916.607 714.025 918.52C715.547 933.694 717.509 961.182 719.287 976.337C721.048 991.511 723.046 1006.65 725.246 1021.78C724.329 1006.59 723.211 991.399 721.854 976.225C720.516 961.051 718.737 933.564 717.142 918.409C716.959 916.514 716.684 914.62 716.592 912.725L716.299 907.023L715.675 895.638C715.254 888.042 714.814 880.446 714.319 872.868C713.365 857.694 712.265 842.502 710.964 827.309Z" fill="black"/>
<path d="M646.994 842.019C645.582 855.521 645.032 869.061 644.757 882.6C644.537 896.121 644.244 909.716 645.271 923.219C646.077 936.74 647.196 959.398 648.223 972.919C649.213 986.422 650.386 999.924 651.779 1013.43C651.614 999.887 651.266 986.366 650.698 972.845C650.166 959.324 649.194 936.665 648.443 923.144L647.819 913.004L647.673 910.478L647.636 907.97L647.544 902.9L647.214 882.619L646.994 862.319C646.884 855.558 646.939 848.798 646.994 842.019Z" fill="black"/>
<path d="M690.667 875.487L681.61 814.494C681.61 814.494 661.882 812.024 651.669 803.35C651.669 803.35 658.362 814.921 676.99 819.193L685.937 875.654L687.495 914.601L690.667 875.487Z" fill="black"/>
<path d="M614.964 718.287C617.347 700.439 618.704 689.574 620.391 679.322C624.443 654.88 630.181 637.682 645.527 632.983L632.327 777.59C632.327 777.59 620.721 754.541 617.622 743.491C614.542 732.458 613.992 725.642 614.964 718.287Z" fill="#BA68C8"/>
<path opacity="0.2" d="M614.964 718.287C617.347 700.439 618.704 689.574 620.391 679.322C624.443 654.88 630.181 637.682 645.527 632.983L632.327 777.59C632.327 777.59 620.721 754.541 617.622 743.491C614.542 732.458 613.992 725.642 614.964 718.287Z" fill="black"/>
<path d="M728.62 554.736C725.594 547.288 719.342 545.004 719.342 545.004C717.399 537.036 708.03 528.586 686.469 530.053C670.499 531.13 665.879 537.018 660.983 546.843C660.488 547.846 659.37 549.332 659.003 550.446C655.868 560.141 657.793 572.826 657.793 572.826C679.776 590.73 702.951 610.361 712.155 608.783C715.162 600.964 720.938 595.93 722.936 590.637C726.933 580.032 728.143 576.262 728.711 573.94C730.765 565.657 730.838 560.215 728.62 554.736Z" fill="#37474F"/>
<path d="M720.222 598.568C715.437 602.301 710.633 598.605 710.633 598.605C711.514 602.598 711.422 606.628 712.137 608.764L711.807 624.198C711.807 624.198 708.488 628.173 701.246 633.262C689.164 641.749 678.951 644.888 672.424 651.537C671.177 640.654 674.844 627.838 676.421 622.099L676.384 618.348C676.384 618.348 672.828 618.273 668.977 617.401C660.69 615.488 658.288 610.882 656.675 605.291C653.741 595.076 653.521 575.501 657.647 560.512C658.6 557.021 658.747 554.941 660.507 552.768C665.769 546.286 669.784 556.519 676.623 556.928C686.964 557.541 705.738 544.075 702.841 561.422C703.831 570.987 705.701 572.547 704.18 579.234C703.575 581.927 704.033 583.691 706.068 584.323C708.928 585.233 709.057 580.459 711.404 578.194C713.512 576.169 720.626 573.662 724.109 580.218C727.318 586.254 724.494 595.243 720.222 598.568Z" fill="#B16668"/>
<path d="M660.763 568.462L667.089 566.474C666.612 564.673 664.797 563.651 663.055 564.208C661.313 564.747 660.287 566.66 660.763 568.462Z" fill="#263238"/>
<path d="M688.705 567.366L694.664 570.3C695.526 568.647 694.902 566.66 693.252 565.843C691.621 565.025 689.585 565.713 688.705 567.366Z" fill="#263238"/>
<path d="M683.04 595.132L673.946 597.509C674.496 600.109 676.99 601.669 679.52 601.001C682.013 600.351 683.59 597.713 683.04 595.132Z" fill="#9A4A4D"/>
<path d="M683.095 596.692C682.893 598.716 681.5 600.499 679.501 601.019C678.658 601.242 677.815 601.186 677.045 600.964C678.016 598.438 680.381 596.729 683.095 596.692Z" fill="#F28F8F"/>
<path d="M692.446 575.872C692.464 577.599 691.089 579.011 689.384 579.011C687.679 579.029 686.285 577.636 686.285 575.909C686.267 574.182 687.642 572.77 689.347 572.77C691.052 572.752 692.446 574.145 692.446 575.872Z" fill="#263238"/>
<path d="M668.556 575.073C668.574 576.801 667.199 578.212 665.494 578.212C663.789 578.231 662.395 576.838 662.395 575.11C662.377 573.383 663.752 571.972 665.457 571.972C667.162 571.972 668.537 573.346 668.556 575.073Z" fill="#263238"/>
<path d="M657.775 573.496H657.793C657.738 573.458 657.702 573.439 657.647 573.402C657.683 573.439 657.72 573.477 657.775 573.496Z" fill="#9A4A4D"/>
<path d="M657.811 573.513L657.793 573.495L657.811 573.513Z" fill="#9A4A4D"/>
<path d="M708.488 602.004C705.115 611.513 693.912 618.496 676.421 618.329L676.458 622.081C676.458 622.081 690.814 622.304 698.643 617.586C705.701 613.352 707.663 608.82 708.488 602.004Z" fill="#9A4A4D"/>
<path d="M682.032 570.021C674.404 570.226 668.061 587.238 668.061 587.238L679.74 590.693L682.032 570.021Z" fill="#9A4A4D"/>
<path d="M727.556 577.748C727.556 577.748 732.708 559.639 733.313 549.74C733.79 541.995 727.135 531.929 708.122 526.561C684.745 519.949 667.309 525.725 665.714 530.907C664.119 536.089 657.61 557.225 657.61 557.225C664.962 546.341 708.653 550.891 727.556 577.748Z" fill="#BA68C8"/>
<path opacity="0.7" d="M661.148 545.747C661.148 545.747 671.893 538.782 696.938 545.84C699.743 546.62 702.328 547.493 704.748 548.384C705.115 547.288 705.848 544.967 706.875 541.345C708.177 536.758 709.387 532.913 707.608 530.424C706.435 528.771 704.601 526.097 699.449 524.593C701.521 524.945 703.63 525.373 705.793 525.93C709.13 527.861 712.045 530.109 712.742 532.059C713.934 535.383 711.532 541.605 708.525 549.889C726.75 557.633 732.818 567.626 732.818 567.626L730.857 572.529C730.857 572.529 719.526 557.522 695.507 551.43C671.471 545.338 659.553 550.984 659.553 550.984L661.148 545.747Z" fill="#F090E0"/>
<path d="M657.628 557.225C657.848 556.909 658.068 556.631 658.343 556.333C658.435 556.203 658.563 556.092 658.673 555.98C659.7 554.978 661.038 554.16 662.67 553.566C663.33 553.287 664.027 553.083 664.779 552.879C678.731 549.406 707.168 557.448 727.575 577.748C727.575 577.748 728.656 573.94 729.885 568.889C726.31 564.673 716.427 554.996 697.506 549.164C671.122 541.011 660.158 548.96 660.158 548.96C660.14 549.034 660.103 549.146 660.085 549.22C659.865 549.889 659.663 550.557 659.48 551.189C659.168 552.173 658.875 553.083 658.655 553.882L658.233 555.238C658.123 555.628 658.013 555.962 657.922 556.24L657.628 557.225Z" fill="#263238"/>
<path opacity="0.2" d="M727.556 577.748C725.374 575.389 723.266 573.755 720.608 571.526C723.174 562.444 724.403 556.538 725.118 553.956C726.951 547.326 726.603 535.309 713.274 528.344C713.439 528.363 713.585 528.381 713.75 528.419C728.455 534.046 733.753 542.812 733.332 549.721C732.708 559.639 727.556 577.748 727.556 577.748Z" fill="black"/>
<path d="M720.589 571.526C714.942 562.054 702.401 550.687 675.413 547.363C654.218 544.744 647.654 550.39 649.579 552.21C651.523 554.03 657.592 557.225 657.592 557.225C657.592 557.225 661.735 552.452 677.246 554.383C693.857 556.445 712.192 564.264 720.589 571.526Z" fill="black"/>
<path d="M711.605 626.334C704.858 638.796 673.084 636.642 676.348 624.477L645.545 632.965C645.545 632.965 632.418 645.445 631.281 676.815C630.786 690.744 633.188 720.739 633.151 744.884C633.115 775.139 630.694 798.763 630.694 798.763C630.694 798.763 638.102 813.603 657.243 819.045C664.815 799.989 671.489 785.781 671.489 785.781C671.489 785.781 677.979 805.839 689.255 820.716C729.078 819.565 747.999 800.676 747.999 800.676C747.999 800.676 744.295 748.431 744.204 737.065C744.057 720.683 749.337 679.954 749.833 666.934C750.328 653.915 743.085 633.225 743.085 633.225L711.605 626.334Z" fill="#BA68C8"/>
<path opacity="0.5" d="M692.024 814.29C692.024 814.29 726.438 811.782 747.394 792.448C747.688 796.683 747.963 800.676 747.963 800.676C747.963 800.676 729.041 819.583 689.219 820.716C677.943 805.821 671.452 785.781 671.452 785.781C671.452 785.781 670.077 788.697 667.896 793.637L666.906 791L674.679 774.284C677.191 789.421 692.024 814.29 692.024 814.29Z" fill="#F090E0"/>
<path d="M706.912 653.599C697.139 649.123 693.197 659.969 705.921 662.997C705.921 662.997 707.92 658.186 706.912 653.599Z" fill="#BA68C8"/>
<path opacity="0.7" d="M706.912 653.599C697.139 649.123 693.197 659.969 705.921 662.997C705.921 662.997 707.92 658.186 706.912 653.599Z" fill="#F090E0"/>
<path d="M700.549 656.942C700.568 658.056 701.466 658.966 702.585 658.948C703.685 658.929 704.583 658.019 704.565 656.886C704.546 655.772 703.648 654.862 702.53 654.88C701.411 654.899 700.531 655.809 700.549 656.942Z" fill="#BA68C8"/>
<path d="M701.943 685.042C692.336 680.232 688.009 690.911 700.623 694.403C700.623 694.403 702.786 689.667 701.943 685.042Z" fill="#BA68C8"/>
<path opacity="0.7" d="M701.943 685.042C692.336 680.232 688.009 690.911 700.623 694.403C700.623 694.403 702.786 689.667 701.943 685.042Z" fill="#F090E0"/>
<path d="M695.471 688.144C695.452 689.258 696.314 690.187 697.433 690.224C698.533 690.243 699.449 689.37 699.486 688.237C699.504 687.123 698.643 686.194 697.524 686.157C696.406 686.138 695.489 687.03 695.471 688.144Z" fill="#BA68C8"/>
<path d="M693.546 715.947C684.763 709.725 678.915 719.643 690.85 724.992C690.85 724.992 693.692 720.628 693.546 715.947Z" fill="#BA68C8"/>
<path opacity="0.7" d="M693.546 715.947C684.763 709.725 678.915 719.643 690.85 724.992C690.85 724.992 693.692 720.628 693.546 715.947Z" fill="#F090E0"/>
<path d="M686.67 718.027C686.487 719.123 687.202 720.182 688.302 720.386C689.384 720.572 690.429 719.848 690.63 718.733C690.814 717.637 690.099 716.579 688.999 716.374C687.899 716.189 686.872 716.913 686.67 718.027Z" fill="#BA68C8"/>
<path d="M682.838 746.332C674.624 739.349 667.932 748.71 679.373 755.099C679.373 755.117 682.582 751.031 682.838 746.332Z" fill="#BA68C8"/>
<path opacity="0.7" d="M682.838 746.332C674.624 739.349 667.932 748.71 679.373 755.099C679.373 755.117 682.582 751.031 682.838 746.332Z" fill="#F090E0"/>
<path d="M675.816 747.8C675.523 748.877 676.164 749.991 677.228 750.288C678.291 750.585 679.391 749.935 679.685 748.858C679.978 747.781 679.336 746.667 678.273 746.369C677.191 746.072 676.109 746.722 675.816 747.8Z" fill="#BA68C8"/>
<path d="M669.839 776.903C661.625 769.92 654.933 779.28 666.374 785.669C666.374 785.669 669.601 781.583 669.839 776.903Z" fill="#BA68C8"/>
<path opacity="0.7" d="M669.839 776.903C661.625 769.92 654.933 779.28 666.374 785.669C666.374 785.669 669.601 781.583 669.839 776.903Z" fill="#F090E0"/>
<path d="M662.817 778.37C662.524 779.448 663.165 780.562 664.229 780.859C665.292 781.156 666.392 780.506 666.685 779.429C666.979 778.352 666.337 777.237 665.274 776.94C664.21 776.643 663.11 777.275 662.817 778.37Z" fill="#BA68C8"/>
<path d="M716.244 627.355C714.392 626.148 713.329 621.468 712.98 620.112C712.632 618.756 711.972 618.069 711.972 618.069L711.844 621.134C711.844 621.134 710.743 627.95 699.028 630.29C687.312 632.649 678.2 627.504 676.458 622.768L676.421 620.056C676.421 620.056 675.596 620.391 675.101 621.765C674.606 623.121 673.286 624.83 672.461 625.535C672.461 625.535 673.488 636.828 688.43 638.332C703.373 639.855 712.65 634.246 716.244 627.355Z" fill="#37474F"/>
<path d="M693.326 630.884C695.141 630.884 697.048 630.717 699.028 630.309C710.743 627.95 711.844 621.152 711.844 621.152L711.972 618.088C711.972 618.088 712.632 618.775 712.98 620.131C713.072 620.484 713.219 621.078 713.402 621.765C713.402 621.765 713.31 625.87 708.708 629.213C704.106 632.556 697.066 633.299 693.344 633.28L693.326 630.884Z" fill="#BA68C8"/>
<path opacity="0.5" d="M693.326 630.884C695.141 630.884 697.048 630.717 699.028 630.309C710.743 627.95 711.844 621.152 711.844 621.152L711.972 618.088C711.972 618.088 712.632 618.775 712.98 620.131C713.072 620.484 713.219 621.078 713.402 621.765C713.402 621.765 713.31 625.87 708.708 629.213C704.106 632.556 697.066 633.299 693.344 633.28L693.326 630.884Z" fill="#F090E0"/>
<path d="M630.676 798.782C630.676 798.782 630.823 797.259 631.061 794.473C641.512 808.885 654.016 812.953 654.016 812.953C654.016 812.953 658.123 800.416 665.439 785.279C672.479 770.718 702.75 706.364 706.893 653.599L686.652 640.022L686.89 632.296C686.89 632.296 682.728 631.33 679.465 629.138C676.733 627.3 675.138 624.96 674.881 622.285C674.954 622.118 675.028 621.951 675.083 621.784C675.578 620.409 676.403 620.075 676.403 620.075L676.439 622.787C677.888 626.724 684.433 630.921 693.307 630.884L693.399 638.518L712.907 650.2C712.907 650.2 709.607 684.411 699.449 714.814C689.292 745.218 681.903 763.178 671.434 785.781C671.434 785.781 664.76 799.989 657.188 819.044C638.084 813.621 630.676 798.782 630.676 798.782Z" fill="#BA68C8"/>
<path opacity="0.7" d="M630.676 798.782C630.676 798.782 630.823 797.259 631.061 794.473C641.512 808.885 654.016 812.953 654.016 812.953C654.016 812.953 658.123 800.416 665.439 785.279C672.479 770.718 702.75 706.364 706.893 653.599L686.652 640.022L686.89 632.296C686.89 632.296 682.728 631.33 679.465 629.138C676.733 627.3 675.138 624.96 674.881 622.285C674.954 622.118 675.028 621.951 675.083 621.784C675.578 620.409 676.403 620.075 676.403 620.075L676.439 622.787C677.888 626.724 684.433 630.921 693.307 630.884L693.399 638.518L712.907 650.2C712.907 650.2 709.607 684.411 699.449 714.814C689.292 745.218 681.903 763.178 671.434 785.781C671.434 785.781 664.76 799.989 657.188 819.044C638.084 813.621 630.676 798.782 630.676 798.782Z" fill="#F090E0"/>
<path d="M666.869 660.786L639.624 659.783C639.624 659.783 638.725 663.572 638.56 668.215L666.19 668.921C666.209 668.921 666.3 664.464 666.869 660.786Z" fill="#37474F"/>
<path d="M745.212 717.154L746.936 724.509L744.332 730.23C744.204 732.793 744.131 735.114 744.149 737.083C744.222 745.125 746.129 773.783 747.211 789.755V789.774C747.229 789.867 747.229 789.941 747.248 790.034C755.938 778.147 777.866 749.434 780.066 745.905C785.97 736.266 786.905 731.214 784.76 721.742C783.477 716.077 780.8 702.668 777.316 685.525C773.869 668.568 772.696 657.146 767.342 647.99C763.07 640.691 755.663 636.085 743.067 633.261C730.673 640.189 735.88 676.666 735.88 676.666L745.231 717.136C745.212 717.136 745.212 717.154 745.212 717.154Z" fill="#BA68C8"/>
<path opacity="0.2" d="M745.212 717.154L746.936 724.509L744.332 730.23C744.204 732.793 744.131 735.114 744.149 737.083C744.222 745.125 746.129 773.783 747.211 789.755V789.774C747.229 789.867 747.229 789.941 747.248 790.034C755.938 778.147 777.866 749.434 780.066 745.905C785.97 736.266 786.905 731.214 784.76 721.742C783.477 716.077 780.8 702.668 777.316 685.525C773.869 668.568 772.696 657.146 767.342 647.99C763.07 640.691 755.663 636.085 743.067 633.261C730.673 640.189 735.88 676.666 735.88 676.666L745.231 717.136C745.212 717.136 745.212 717.154 745.212 717.154Z" fill="black"/>
<path opacity="0.3" d="M765.637 731.251C753.481 724.676 744.956 728.874 744.956 728.874L746.918 724.528C746.936 724.528 756.91 721.148 765.637 731.251Z" fill="black"/>
<path d="M717.106 626.891C714.044 628.265 709.937 634.432 709.937 634.432L744.882 641.731C744.882 641.731 750.383 634.394 752.62 636.14C752.62 636.14 752.895 634.71 746.514 633.206C738.08 631.219 717.106 626.891 717.106 626.891Z" fill="#BA68C8"/>
<path opacity="0.7" d="M717.106 626.891C714.044 628.265 709.937 634.432 709.937 634.432L744.882 641.731C744.882 641.731 750.383 634.394 752.62 636.14C752.62 636.14 752.895 634.71 746.514 633.206C738.08 631.219 717.106 626.891 717.106 626.891Z" fill="#F090E0"/>
<path d="M670.701 630.996L639.532 638.666C639.532 638.666 639.697 633.521 646.242 630.55C652.788 627.597 674.148 623.548 674.148 623.548C674.148 623.548 671.397 626.594 670.701 630.996Z" fill="#BA68C8"/>
<path opacity="0.7" d="M670.701 630.996L639.532 638.666C639.532 638.666 639.697 633.521 646.242 630.55C652.788 627.597 674.148 623.548 674.148 623.548C674.148 623.548 671.397 626.594 670.701 630.996Z" fill="#F090E0"/>
<path d="M687.862 435.778C677.466 420.455 649.671 407.733 615.312 407.399C584.052 407.102 546.007 416.406 536.492 446.829C528.388 472.775 553.341 496.882 579.266 502.008C590.505 504.237 600.974 505.203 610.545 505.351C615.349 514.433 626.624 520.024 635.095 520.618C630.713 515.362 629.558 509.289 629.466 504.627C639.019 503.717 647.141 502.12 653.485 500.522C698.496 489.137 699.486 452.92 687.862 435.778Z" fill="#BA68C8"/>
<path opacity="0.4" d="M687.862 435.778C677.466 420.455 649.671 407.733 615.312 407.399C584.052 407.102 546.007 416.406 536.492 446.829C528.388 472.775 553.341 496.882 579.266 502.008C590.505 504.237 600.974 505.203 610.545 505.351C615.349 514.433 626.624 520.024 635.095 520.618C630.713 515.362 629.558 509.289 629.466 504.627C639.019 503.717 647.141 502.12 653.485 500.522C698.496 489.137 699.486 452.92 687.862 435.778Z" fill="#F090E0"/>
<path d="M554.001 470.063C553.744 469.952 553.598 469.766 553.561 469.506L549.033 447.051C549.014 446.959 548.996 446.866 549.014 446.754C549.033 446.643 549.033 446.569 549.033 446.531C549.033 445.919 549.711 445.621 551.068 445.621H552.076C553.451 445.621 554.203 445.993 554.295 446.699L555.926 459.607L556.238 462.132L556.55 464.863L557.173 460.628C557.265 460.164 557.32 459.829 557.338 459.607L559.447 446.346C559.502 446.067 559.63 445.881 559.887 445.77C560.125 445.658 560.528 445.621 561.078 445.621H562.802C563.352 445.621 563.755 445.677 563.994 445.77C564.232 445.881 564.379 446.067 564.434 446.346L566.505 459.607L567.257 464.956L567.734 461.222L567.935 459.607L569.586 446.699C569.677 445.974 570.411 445.621 571.804 445.621H572.592C573.949 445.621 574.628 445.919 574.628 446.531C574.628 446.736 574.609 446.921 574.591 447.051L570.007 469.506C569.916 469.989 569.384 470.249 568.394 470.249H566.12C565.204 470.249 564.672 470.007 564.562 469.506L562.215 457.155L561.83 453.422L561.408 457.155L559.025 469.506C558.933 469.989 558.42 470.249 557.466 470.249H555.193C554.643 470.249 554.258 470.193 554.001 470.063Z" fill="#4D1B56"/>
<path d="M577.414 469.84C577.213 469.617 577.103 469.264 577.103 468.781V447.089C577.103 446.606 577.213 446.253 577.414 446.03C577.616 445.807 577.946 445.696 578.386 445.696H588.562C588.91 445.696 589.167 445.844 589.332 446.123C589.497 446.401 589.57 446.847 589.57 447.46V448.537C589.57 449.15 589.497 449.577 589.332 449.874C589.167 450.153 588.91 450.302 588.562 450.302H582.493V455.372H587.884C588.232 455.372 588.489 455.521 588.635 455.799C588.8 456.078 588.874 456.523 588.874 457.136V458.214C588.874 458.826 588.8 459.272 588.635 459.551C588.47 459.829 588.214 459.978 587.884 459.978H582.493V465.643H588.599C588.947 465.643 589.185 465.791 589.332 466.07C589.479 466.348 589.552 466.794 589.552 467.388V468.466C589.552 469.079 589.479 469.506 589.332 469.803C589.185 470.082 588.929 470.23 588.599 470.23H578.386C577.946 470.174 577.616 470.063 577.414 469.84Z" fill="#4D1B56"/>
<path d="M593.531 469.84C593.329 469.617 593.219 469.264 593.219 468.782V446.736C593.219 445.993 593.879 445.621 595.217 445.621H596.592C597.931 445.621 598.591 445.993 598.591 446.736V465.587H603.743C604.11 465.587 604.366 465.736 604.531 466.014C604.696 466.293 604.77 466.739 604.77 467.333V468.41C604.77 469.023 604.696 469.45 604.531 469.747C604.366 470.026 604.11 470.174 603.743 470.174H594.484C594.062 470.174 593.751 470.063 593.531 469.84Z" fill="#4D1B56"/>
<path d="M608.473 467.426C607.006 465.42 606.273 462.225 606.273 457.861C606.273 453.663 607.043 450.543 608.565 448.482C610.087 446.439 612.452 445.398 615.66 445.398C616.742 445.398 617.751 445.528 618.667 445.788C619.382 445.993 619.731 446.494 619.731 447.293C619.731 448.184 619.584 448.964 619.272 449.67C618.961 450.376 618.576 450.636 618.117 450.469C617.384 450.227 616.65 450.116 615.899 450.116C614.524 450.116 613.479 450.747 612.8 452.047C612.122 453.329 611.773 455.279 611.773 457.879C611.773 460.498 612.122 462.448 612.8 463.73C613.479 465.03 614.56 465.661 616.064 465.661C616.504 465.661 616.87 465.624 617.164 465.568C617.457 465.513 617.861 465.42 618.337 465.271C618.411 465.253 618.502 465.234 618.649 465.234C619.107 465.234 619.456 465.531 619.694 466.107C619.932 466.683 620.042 467.463 620.042 468.41C620.042 468.763 619.969 469.06 619.841 469.302C619.694 469.543 619.437 469.747 619.052 469.877C618.667 470.026 618.136 470.137 617.494 470.249C616.852 470.36 616.174 470.397 615.495 470.397C612.268 470.453 609.922 469.45 608.473 467.426Z" fill="#4D1B56"/>
<path d="M621.674 457.935C621.674 449.596 624.681 445.417 630.713 445.417C633.665 445.417 635.902 446.439 637.423 448.463C638.945 450.488 639.715 453.645 639.715 457.935C639.715 462.226 638.945 465.383 637.423 467.407C635.902 469.432 633.647 470.453 630.713 470.453C624.681 470.453 621.674 466.274 621.674 457.935ZM632.748 465.179C633.262 464.714 633.628 463.897 633.885 462.746C634.142 461.594 634.27 459.997 634.27 457.935C634.27 455.911 634.142 454.314 633.885 453.162C633.628 452.011 633.262 451.193 632.748 450.729C632.235 450.265 631.575 450.023 630.75 450.023C629.925 450.023 629.246 450.265 628.733 450.729C628.22 451.193 627.816 452.011 627.559 453.162C627.303 454.314 627.156 455.911 627.156 457.935C627.156 459.96 627.284 461.557 627.559 462.727C627.816 463.897 628.22 464.714 628.733 465.179C629.246 465.643 629.925 465.884 630.75 465.884C631.575 465.866 632.253 465.643 632.748 465.179Z" fill="#4D1B56"/>
<path d="M652.128 462.188C651.926 462.058 651.743 461.854 651.578 461.538L649.029 456.709C648.883 456.449 648.754 456.152 648.608 455.818C648.461 455.483 648.369 455.223 648.296 455.056L648.149 455.093C648.296 455.929 648.351 456.579 648.351 457.025V469.134C648.351 469.524 648.204 469.822 647.893 469.989C647.581 470.156 647.067 470.249 646.352 470.249H645.179C644.464 470.249 643.951 470.156 643.639 469.989C643.327 469.822 643.181 469.524 643.181 469.134V446.736C643.181 446.346 643.327 446.049 643.639 445.881C643.951 445.714 644.464 445.621 645.179 445.621H646.242C646.792 445.621 647.232 445.696 647.544 445.844C647.874 445.993 648.113 446.253 648.296 446.587L652.568 454.796C652.806 455.223 653.026 455.781 653.228 456.468C653.393 455.836 653.595 455.279 653.851 454.796L658.123 446.587C658.307 446.234 658.563 445.993 658.875 445.844C659.205 445.696 659.627 445.621 660.195 445.621H661.258C661.973 445.621 662.487 445.714 662.799 445.881C663.11 446.049 663.257 446.346 663.257 446.736V469.134C663.257 469.524 663.092 469.822 662.799 469.989C662.487 470.156 661.973 470.249 661.258 470.249H660.085C659.37 470.249 658.857 470.156 658.545 469.989C658.233 469.822 658.087 469.524 658.087 469.134V457.025C658.087 456.468 658.16 455.818 658.325 455.093L658.178 455.056C658.013 455.502 657.757 456.041 657.426 456.709L654.878 461.538C654.713 461.835 654.53 462.058 654.328 462.188C654.126 462.318 653.851 462.374 653.503 462.374H652.916C652.605 462.374 652.329 462.318 652.128 462.188Z" fill="#4D1B56"/>
<path d="M667.804 469.84C667.602 469.617 667.492 469.264 667.492 468.781V447.089C667.492 446.606 667.602 446.253 667.804 446.03C668.006 445.807 668.336 445.696 668.776 445.696H678.951C679.3 445.696 679.556 445.844 679.721 446.123C679.886 446.401 679.96 446.847 679.96 447.46V448.537C679.96 449.15 679.886 449.577 679.721 449.874C679.556 450.153 679.3 450.302 678.951 450.302H672.883V455.372H678.273C678.621 455.372 678.878 455.521 679.025 455.799C679.19 456.078 679.263 456.523 679.263 457.136V458.214C679.263 458.826 679.19 459.272 679.025 459.551C678.86 459.829 678.603 459.978 678.273 459.978H672.883V465.643H678.988C679.336 465.643 679.575 465.791 679.721 466.07C679.868 466.348 679.941 466.794 679.941 467.388V468.466C679.941 469.079 679.868 469.506 679.721 469.803C679.575 470.082 679.318 470.23 678.988 470.23H668.776C668.317 470.174 668.006 470.063 667.804 469.84Z" fill="#4D1B56"/>
</g>
<defs>
<filter id="filter0_f_37_157" x="1143" y="193" width="822" height="800" filterUnits="userSpaceOnUse" color-interpolation-filters="sRGB">
<feFlood flood-opacity="0" result="BackgroundImageFix"/>
<feBlend mode="normal" in="SourceGraphic" in2="BackgroundImageFix" result="shape"/>
<feGaussianBlur stdDeviation="75" result="effect1_foregroundBlur_37_157"/>
</filter>
<clipPath id="clip0_37_157">
<rect width="862" height="844" fill="white" transform="translate(364 385)"/>
</clipPath>
</defs>
</svg>
