<svg width="696" height="636" viewBox="0 0 696 636" fill="none" xmlns="http://www.w3.org/2000/svg">
<g clip-path="url(#clip0_118_5891)">
<path d="M264.097 557.601C264.097 557.601 115.027 547.796 64.8187 472.78C14.6101 397.763 62.4991 327.029 86.4435 294.616C110.388 262.203 119.652 235.77 117.347 190.798C115.042 145.825 154.416 44.6188 240.152 2.40075C325.888 -39.8173 426.904 -20.6636 430.077 37.5254C433.249 95.7144 449.038 160.925 531.9 178.052C614.763 195.165 715.959 224.295 688.153 308.075C660.348 391.855 643.347 414.691 641.806 464.787C640.249 514.884 552.972 580.437 264.097 557.601Z" fill="#D5CCFA"/>
<mask id="mask0_118_5891" style="mask-type:luminance" maskUnits="userSpaceOnUse" x="42" y="-21" width="651" height="584">
<path d="M264.097 557.601C264.097 557.601 115.027 547.796 64.8187 472.78C14.6101 397.763 62.4991 327.029 86.4435 294.616C110.388 262.203 119.652 235.77 117.347 190.798C115.042 145.825 154.416 44.6188 240.152 2.40075C325.888 -39.8173 426.904 -20.6636 430.077 37.5254C433.249 95.7144 449.038 160.925 531.9 178.052C614.763 195.165 715.959 224.295 688.153 308.075C660.348 391.855 643.347 414.691 641.806 464.787C640.249 514.884 552.972 580.437 264.097 557.601Z" fill="white"/>
</mask>
<g mask="url(#mask0_118_5891)">
<path d="M219.635 565.708L617.592 510.188L562.235 592.954L219.635 565.708Z" fill="#EDE9FD"/>
<path d="M488.815 81.3563L183.568 244.434L628.666 182.977L491.958 84.0252L488.815 81.3563Z" fill="#EDE9FD"/>
<path d="M96.8438 140.987L454.948 6.59687L307.271 -39.8173L135.783 33.1152L96.8438 140.987Z" fill="#EDE9FD"/>
<path d="M705.527 463.788L737.314 371.231L368.419 393.696L480.464 284.326L-11.6543 380.622C-7.9429 402.959 14.1758 444.749 39.3773 486.838L705.527 463.788Z" fill="#EDE9FD"/>
</g>
<mask id="mask1_118_5891" style="mask-type:luminance" maskUnits="userSpaceOnUse" x="42" y="-21" width="651" height="584">
<path d="M264.097 557.601C264.097 557.601 115.027 547.796 64.8187 472.78C14.6101 397.763 62.4991 327.029 86.4435 294.616C110.388 262.203 119.652 235.77 117.347 190.798C115.042 145.825 154.416 44.6188 240.152 2.40075C325.888 -39.8173 426.904 -20.6636 430.077 37.5254C433.249 95.7144 449.038 160.925 531.9 178.052C614.763 195.165 715.959 224.295 688.153 308.075C660.348 391.855 643.347 414.691 641.806 464.787C640.249 514.884 552.972 580.437 264.097 557.601Z" fill="white"/>
</mask>
<g mask="url(#mask1_118_5891)">
<path d="M370.216 -20.6636H368.6V21.2119H370.216V-20.6636Z" fill="#F8B042"/>
<path d="M369.407 18.7142L355.19 82.7264C355.19 82.7264 359.785 84.7103 369.407 84.7103C379.03 84.7103 383.624 82.7264 383.624 82.7264L369.407 18.7142Z" fill="#F8B042"/>
<path d="M408.063 -2.92288H406.447V46.6598H408.063V-2.92288Z" fill="#F8B042"/>
<path d="M407.255 44.1764L393.038 108.189C393.038 108.189 397.632 110.172 407.255 110.172C416.878 110.172 421.472 108.189 421.472 108.189L407.255 44.1764Z" fill="#F8B042"/>
</g>
<mask id="mask2_118_5891" style="mask-type:luminance" maskUnits="userSpaceOnUse" x="42" y="-21" width="651" height="584">
<path d="M264.097 557.601C264.097 557.601 115.027 547.796 64.8187 472.78C14.6101 397.763 62.4991 327.029 86.4435 294.616C110.388 262.203 119.652 235.77 117.347 190.798C115.042 145.825 154.416 44.6188 240.152 2.40075C325.888 -39.8173 426.904 -20.6636 430.077 37.5254C433.249 95.7144 449.038 160.925 531.9 178.052C614.763 195.165 715.959 224.295 688.153 308.075C660.348 391.855 643.347 414.691 641.806 464.787C640.249 514.884 552.972 580.437 264.097 557.601Z" fill="white"/>
</mask>
<g mask="url(#mask2_118_5891)">
<path d="M243.549 561.997L271.325 577.754C282.384 573.515 292.815 566.664 300.627 555.889L267.898 538.747L303.725 551.193C306.029 547.311 308.035 543 309.651 538.191C310.893 534.537 311.821 530.683 312.479 526.687L264.785 511.415L313.467 518.209C314.29 507.219 313.452 495.387 311.641 483.484L268.93 488.993L310.399 476.005C308.454 465.372 305.835 454.825 303.066 444.891L279.541 456.024L301.061 437.926C294.895 417.031 288.475 399.69 286.844 391.626C280.603 395.865 266.326 402.902 249.475 412.164L252.498 445.705L241.439 416.66C232.071 421.984 222.194 427.935 212.661 434.415L236.306 476.533L205.328 439.568C194.792 447.218 184.96 455.524 177.058 464.359L223.077 495.473L170.773 472.095C168.244 475.534 166.044 479.045 164.233 482.628C161.973 487.095 160.312 491.462 159.175 495.701L201.048 513.185L157.828 502.224C155.868 515.369 158.741 527.329 163.949 537.748L201.841 546.041L168.513 545.684C183.209 568.206 206.989 581.75 206.989 581.75C206.989 581.75 236.111 588.073 264.022 580.18L243.549 561.997Z" fill="#A281DE"/>
<path d="M641.985 495.83L674.206 493.389C680.656 483.827 685.026 472.509 684.876 459.392L647.777 463.431L684.562 453.854C684.098 449.416 683.11 444.791 681.524 439.982C680.312 436.313 678.74 432.66 676.855 429.034L628.681 442.85L672.53 421.57C666.544 412.15 658.687 402.959 650.007 394.238L618.475 422.269L644.455 388.829C636.418 381.236 627.903 374.057 619.612 367.477L607.146 389.528L613.746 362.896C596.057 349.237 580.313 338.632 574.088 332.938C571.559 339.831 564.166 353.447 556.04 370.289L578.832 395.994L552.209 378.367C547.779 387.887 543.334 398.177 539.473 408.725L584.279 430.076L536.6 416.988C532.634 429.034 529.641 441.237 528.549 452.798L584.953 452.841L528.1 462.575C528.13 466.771 528.459 470.853 529.147 474.778C530 479.673 531.302 484.141 532.948 488.237L577.724 479.431L535.807 494.303C542.167 506.106 551.76 514.284 562.325 519.922L598.272 505.806L570.84 523.875C596.476 534.152 624.102 532.111 624.102 532.111C624.102 532.111 651.698 521.221 669.701 499.398L641.985 495.83Z" fill="#A281DE"/>
</g>
<mask id="mask3_118_5891" style="mask-type:luminance" maskUnits="userSpaceOnUse" x="48" y="0" width="648" height="563">
<path d="M609.967 210.21V153.871C609.967 153.871 555.097 127.643 539.68 127.464C529.511 127.34 505.64 155.427 490.565 174.537C446.803 147.772 436.664 99.763 434.189 55.8705C431.028 -0.261682 330.384 -18.7384 244.962 21.9874C178.507 53.6677 139.993 119.795 127.26 168.025L51.7987 274.204L81.9623 317.312C57.5391 352.31 26.5107 412.435 70.2726 475.74C120.297 548.119 268.819 557.563 268.819 557.563C556.633 579.592 643.59 516.342 645.141 468.03C646.677 419.704 663.615 397.675 691.318 316.857C710.806 259.968 666.627 229.196 609.967 210.21Z" fill="white"/>
</mask>
<g mask="url(#mask3_118_5891)">
<path d="M478.533 448.479C478.533 448.479 466.485 570.698 482.32 602.323L428.121 591.667L415.283 445.987L478.533 448.479Z" fill="#0E1527"/>
<path d="M530.093 454.166H426.958L434.189 479.32L434.219 479.402L467.753 595.935C465.501 595.99 463.22 596.1 460.939 596.252C454.199 596.706 447.415 597.546 441.018 598.565C421.188 601.745 405.04 606.591 405.04 606.591L378.097 438.181C378.097 438.181 381.541 426.547 385.552 418.328H385.567C387.55 414.28 389.652 411.044 391.561 410.466C396.049 409.089 456.078 402.453 482.603 399.562C490.222 398.736 495.068 398.212 495.068 398.212C495.068 398.212 554.605 376.955 577.642 399.452C581.012 402.728 583.591 406.914 585.112 412.242C597.04 454.166 530.093 454.166 530.093 454.166Z" fill="#3919A4"/>
<path d="M440.243 431.256L496.992 416.331V421.301L440.243 431.256Z" fill="#0E1527"/>
<path d="M487.568 399.452L393.484 411.884L385.566 418.328C387.549 414.28 389.652 411.044 391.56 410.466C396.048 409.089 456.077 402.453 482.603 399.562L487.568 399.452Z" fill="white"/>
<path d="M530.093 454.166H426.958L467.753 595.935C458.821 596.155 449.577 597.202 441.018 598.565C436.769 571.538 420.04 455.24 420.04 455.24L398.882 442.807C398.882 442.807 496.232 427.167 501.614 423.257C506.997 419.346 501.614 399.452 501.614 399.452H577.642C581.012 402.728 583.591 406.914 585.112 412.242C597.04 454.166 530.093 454.166 530.093 454.166Z" fill="#0E1527"/>
<path d="M467.753 595.935C465.501 595.99 463.22 596.1 460.939 596.252C455.183 571.442 434.189 479.32 434.189 479.32L434.219 479.403L467.753 595.935Z" fill="#023256"/>
<path d="M585.112 412.242C585.112 412.242 539.71 432.853 495.069 398.212L507.579 353.164C507.579 353.164 481.217 288.247 481.605 284.874C481.992 281.487 497.663 247.411 509.114 239.329C509.114 239.329 512.931 237.829 518.448 236.122C523.861 234.428 530.928 232.528 537.638 231.633C538.935 231.454 540.232 231.317 541.485 231.22C555.873 230.146 579.536 239.329 579.536 239.329L571.455 333.902L585.112 412.242Z" fill="#FFE0E6"/>
<path d="M507.578 353.164L502.911 369.974C508.712 365.527 515.272 359.662 515.272 359.662L529.288 394.302L511.813 379.915L507.22 406.336C547.583 429.273 585.127 412.242 585.127 412.242L571.469 333.902L574.869 294.181C563.104 268.669 546.077 234.566 541.499 240.142C534.298 248.898 529.303 267.719 529.303 267.719C529.303 267.719 524.636 255.053 522.787 250.936C518.463 241.216 515.585 240.142 515.585 240.142C511.231 244.616 502.002 260.257 493.92 274.121C485.839 287.972 481.604 284.874 481.604 284.874L481.634 285.301C482.648 291.786 507.578 353.164 507.578 353.164Z" fill="#E3679D"/>
<path d="M537.638 231.633C530.928 232.528 523.861 234.428 518.448 236.122C520.148 232.859 521.46 228.921 522.444 225.314C523.98 219.641 524.666 214.822 524.666 214.822L533.791 210.031C533.791 210.031 537.936 212.564 539.681 215.635C541.231 218.375 538.264 229.403 537.638 231.633Z" fill="#FEAFAB"/>
<path d="M539.68 215.635C539.68 215.635 527.394 223.372 522.443 225.314C523.979 219.641 524.665 214.822 524.665 214.822L533.79 210.031C533.79 210.031 537.935 212.564 539.68 215.635Z" fill="#FB7880"/>
<path d="M524.501 160.989C524.501 160.989 521.475 155.317 526.082 150.622C530.689 145.927 539.934 141.797 547.583 143.394C555.232 144.991 533.537 160.177 533.537 160.177L524.501 160.989Z" fill="#461930"/>
<path d="M560.868 181.655C557.125 200.573 537.205 214.162 537.205 214.162C537.205 214.162 526.186 216.736 517.926 218.058C514.005 218.691 510.709 219.035 509.502 218.691C505.744 217.631 503.731 209.37 503.731 209.37C500.272 198.177 502.568 185.648 502.568 185.648C504.73 185.565 506.654 184.808 508.339 183.624C512.051 181.036 514.482 176.355 515.272 172.321C516.42 166.469 526.335 156.914 526.335 156.914C526.335 156.914 544.705 149.672 551.057 150.746C557.409 151.806 564.625 162.738 560.868 181.655Z" fill="#FEAFAB"/>
<path d="M521.624 202.307C521.624 202.307 521.564 211.601 517.926 218.058C514.005 218.691 510.709 219.035 509.502 218.691C505.744 217.631 503.731 209.37 503.731 209.37C500.272 198.177 502.568 185.648 502.568 185.648C504.73 185.565 506.654 184.808 508.339 183.624C509.427 186.323 512.051 191.706 516.42 193.372C516.42 193.372 511.38 202.431 521.624 202.307Z" fill="#FEAFAB"/>
<path d="M515.376 193.991C515.376 193.991 529.511 183.349 533.939 182.234C533.939 182.234 528.452 182.454 514.705 193.468L515.376 193.991Z" fill="#FEAFAB"/>
<path d="M521.624 202.307C521.624 202.307 530.764 198.094 533.939 195.065L535.192 193.991C535.192 193.991 532.806 198.26 520.818 203.946L521.624 202.307Z" fill="#FEAFAB"/>
<path d="M609.058 322.612C603.586 342.865 567.503 356.468 558.273 352.461C556.022 351.484 553.517 350.217 550.997 348.634L550.982 348.62C543.154 343.705 535.117 335.775 534.029 324.485C532.583 309.56 542.394 293.576 537.488 279.45C532.583 265.324 530.57 247.466 535.475 236.287C540.381 225.093 535.759 215.497 533.447 206.162C531.942 200.049 534.014 194.528 535.639 191.431C533.969 187.823 532.97 184.312 532.97 184.312C532.97 184.312 527.29 178.406 525.634 169.416C524.949 165.698 524.963 161.471 526.335 156.914C530.987 141.508 547.225 140.461 557.796 143.022H557.811C557.93 143.05 558.05 143.077 558.169 143.105C563.999 144.564 571.394 150.071 577.344 156.116C582.219 161.045 586.126 166.345 587.423 170.104C587.483 170.31 587.527 170.531 587.587 170.751C587.781 170.985 587.945 171.26 588.019 171.577C590.062 179.342 588.288 194.446 594.341 202.968C600.41 211.504 600.693 218.154 598.099 228.825C595.504 239.481 602.423 249.6 609.058 259.995C615.708 270.39 614.545 302.373 609.058 322.612Z" fill="#461930"/>
<path d="M609.058 322.612C603.586 342.865 567.503 356.468 558.273 352.461C556.022 351.484 553.517 350.217 550.997 348.634L550.982 348.62C546.106 343.54 540.903 336.022 541.529 327.527C542.692 311.956 548.462 310.359 550.475 297.031C552.503 283.718 551.34 275.718 547.598 264.263C543.84 252.808 540.962 247.205 544.705 238.944C548.343 230.945 553.606 223.758 553.934 223.317C553.666 223.964 548.522 236.259 550.475 245.608C552.294 254.213 557.587 257.669 558.661 258.288C557.513 257.558 551.757 253.07 555.679 238.145C560.003 221.624 566.116 222.684 561.897 208.296C557.692 193.909 550.281 193.73 549.223 180.76C548.179 167.791 553.383 149.039 563.76 150.636C567.458 151.2 573.005 152.026 577.344 156.116C582.219 161.045 586.126 166.345 587.423 170.104C587.483 170.31 587.527 170.531 587.587 170.751C587.781 170.985 587.945 171.26 588.019 171.577C590.062 179.342 588.288 194.446 594.341 202.968C600.41 211.504 600.693 218.154 598.099 228.825C595.504 239.481 602.423 249.6 609.058 259.995C615.708 270.39 614.545 302.373 609.058 322.612Z" fill="#221A2F"/>
<path d="M529.705 187.107C529.705 187.107 532.597 179.384 537.935 183.376C543.273 187.369 538.368 195.905 528.557 196.167L529.705 187.107Z" fill="#FEAFAB"/>
<path d="M530.853 180.76C530.853 180.76 528.348 194.446 522.771 198.521C522.771 198.521 531.047 192.298 533.552 181.105L530.853 180.76Z" fill="#461930"/>
<path d="M521.057 179.191C520.312 180.65 519.149 181.6 518.463 181.297C517.777 180.994 517.822 179.576 518.582 178.103C519.328 176.644 520.491 175.694 521.177 175.997C521.863 176.3 521.803 177.731 521.057 179.191Z" fill="#221A2F"/>
<path d="M524.904 170.448C524.471 169.925 523.771 169.608 523.085 169.484C522.712 169.415 522.324 169.402 521.951 169.443C521.579 169.484 521.161 169.594 520.863 169.801C520.774 169.856 520.833 169.98 520.938 169.952C521.102 169.925 521.266 169.897 521.43 169.87C521.623 169.842 521.787 169.842 521.981 169.842C522.324 169.842 522.667 169.884 523.01 169.994C523.577 170.159 524.277 170.544 524.486 171.095C524.546 171.247 524.576 171.439 524.74 171.536C524.904 171.632 525.127 171.563 525.202 171.398C525.336 171.068 525.098 170.696 524.904 170.448Z" fill="#221A2F"/>
<path d="M557.796 143.022C550.46 142.733 539.889 143.201 534.327 147.538C525.262 154.601 525.634 169.416 525.634 169.416C524.949 165.698 524.963 161.471 526.335 156.914C530.987 141.508 547.225 140.461 557.796 143.022Z" fill="white"/>
<path d="M532.523 154.463C532.523 154.463 535.118 147.4 544.496 145.996C544.496 146.01 534.611 145.335 532.523 154.463Z" fill="white"/>
<path d="M420.04 336.38C420.04 336.38 416.745 341.144 413.479 343.085C412.421 343.719 411.377 344.049 410.438 343.843C407.023 343.085 369.986 341.86 361.666 341.598C360.607 341.557 360.011 341.543 360.011 341.543C360.011 341.543 374.056 329.097 379.245 326.44C384.449 323.769 417.416 329.4 417.416 329.4L420.04 336.38Z" fill="#FEAFAB"/>
<path d="M415.284 335.94L413.479 343.085C412.421 343.719 411.377 344.049 410.438 343.843C407.023 343.085 369.986 341.86 361.666 341.598C365.96 338.101 374.892 331.878 381.944 332.085C391.472 332.346 415.284 335.94 415.284 335.94Z" fill="#FB7880"/>
<path d="M512.201 352.792C512.201 352.792 504.298 362.016 498.245 362.071C492.176 362.113 410.438 343.843 410.438 343.843C410.438 343.843 411.392 333.434 417.416 329.4L422.112 329.923L491.669 337.606C491.669 337.606 484.393 288.33 491.967 259.472C491.982 259.458 491.982 259.431 491.982 259.417C493.757 252.684 496.336 247.067 500.019 243.46C500.019 243.46 505.148 236.232 515.57 240.142C526.008 244.052 515.406 333.214 512.201 352.792Z" fill="#FFE0E6"/>
<path d="M438.126 348.813C438.126 348.813 511.813 351.553 509.696 353.962C507.578 356.371 499.452 361.259 499.452 361.259L438.126 348.813Z" fill="#E3679D"/>
<path d="M422.112 329.923L491.669 337.606C491.669 337.606 484.393 288.33 491.967 259.472C486.6 295.833 495.844 340.827 495.844 340.827L422.112 329.923Z" fill="white"/>
<path d="M501.257 256.856C501.257 257.779 500.452 258.522 499.453 258.522C498.454 258.522 497.648 257.779 497.648 256.856C497.648 255.934 498.454 255.19 499.453 255.19C500.452 255.19 501.257 255.948 501.257 256.856Z" fill="white"/>
<path d="M502.195 264.387C502.722 264.387 503.15 263.993 503.15 263.506C503.15 263.02 502.722 262.625 502.195 262.625C501.668 262.625 501.241 263.02 501.241 263.506C501.241 263.993 501.668 264.387 502.195 264.387Z" fill="white"/>
</g>
<mask id="mask4_118_5891" style="mask-type:luminance" maskUnits="userSpaceOnUse" x="48" y="0" width="648" height="563">
<path d="M609.967 210.21V153.871C609.967 153.871 555.097 127.643 539.68 127.464C529.511 127.34 505.64 155.427 490.565 174.537C446.803 147.772 436.664 99.763 434.189 55.8705C431.028 -0.261682 330.384 -18.7384 244.962 21.9874C178.507 53.6677 139.993 119.795 127.26 168.025L51.7987 274.204L81.9623 317.312C57.5391 352.31 26.5107 412.435 70.2726 475.74C120.297 548.119 268.819 557.563 268.819 557.563C556.633 579.592 643.59 516.342 645.141 468.03C646.677 419.704 663.615 397.675 691.318 316.857C710.806 259.968 666.627 229.196 609.967 210.21Z" fill="white"/>
</mask>
<g mask="url(#mask4_118_5891)">
<path d="M618.034 636C616.647 636 615.395 635.091 615.112 633.783C614.918 632.902 595.877 545.255 589.794 512.9C584.292 483.684 572.155 465.524 558.109 465.524C544.034 465.524 534.059 471.954 525.724 486.369C516.912 501.61 473.896 627.808 473.463 629.088C472.971 630.534 471.286 631.346 469.721 630.892C468.155 630.438 467.275 628.896 467.767 627.436C469.542 622.218 511.38 499.476 520.446 483.781C529.809 467.576 541.768 460.031 558.094 460.031C575.495 460.031 589.54 479.444 595.668 511.964C601.752 544.25 620.763 631.828 620.956 632.709C621.284 634.196 620.241 635.656 618.615 635.945C618.422 635.986 618.228 636 618.034 636Z" fill="#C9A773"/>
<path d="M657.919 288.013L657.248 290.285L606.225 462.785H516.853L568.219 289.06L568.532 288.013H657.919Z" fill="#F8EAD5"/>
<path d="M544.317 636C542.93 636 541.678 635.091 541.395 633.783C541.201 632.902 522.175 545.255 516.077 512.9C510.575 483.684 498.423 465.524 484.392 465.524C470.332 465.524 460.342 471.954 452.007 486.369C443.195 501.61 400.179 627.808 399.746 629.088C399.254 630.534 397.57 631.346 396.004 630.892C394.438 630.438 393.559 628.896 394.051 627.436C395.825 622.218 437.663 499.476 446.729 483.781C456.093 467.576 468.051 460.031 484.378 460.031C501.778 460.031 515.823 479.444 521.952 511.964C528.035 544.25 547.046 631.828 547.24 632.709C547.568 634.196 546.524 635.656 544.899 635.945C544.72 635.986 544.511 636 544.317 636Z" fill="white"/>
<path d="M657.919 288.013H568.532L568.219 289.06L519.402 454.166H418.892V462.785H526.529L577.538 290.285H657.248L657.919 288.013Z" fill="white"/>
</g>
<mask id="mask5_118_5891" style="mask-type:luminance" maskUnits="userSpaceOnUse" x="48" y="0" width="648" height="563">
<path d="M609.967 210.21V153.871C609.967 153.871 555.097 127.643 539.68 127.464C529.511 127.34 505.64 155.427 490.565 174.537C446.803 147.772 436.664 99.763 434.189 55.8705C431.028 -0.261682 330.384 -18.7384 244.962 21.9874C178.507 53.6677 139.993 119.795 127.26 168.025L51.7987 274.204L81.9623 317.312C57.5391 352.31 26.5107 412.435 70.2726 475.74C120.297 548.119 268.819 557.563 268.819 557.563C556.633 579.592 643.59 516.342 645.141 468.03C646.677 419.704 663.615 397.675 691.318 316.857C710.806 259.968 666.627 229.196 609.967 210.21Z" fill="white"/>
</mask>
<g mask="url(#mask5_118_5891)">
<path d="M272.636 216.117C272.636 216.117 271.324 202.266 252.075 206.961C252.075 206.961 251.717 205.763 251.136 203.725C248.914 195.919 243.338 175.735 241.116 161.953C240.087 155.661 239.759 150.719 240.773 148.874C244.575 141.948 260.962 137.68 267.492 143.008C267.492 143.008 276.468 197.819 272.636 216.117Z" fill="#FF5748"/>
<path d="M268.805 203.725H251.136C248.914 195.919 243.338 175.735 241.116 161.953L264.749 163.537C264.585 164.06 268.805 203.725 268.805 203.725Z" fill="#281C32"/>
<path d="M280.942 205.928L272.637 216.117C272.637 216.117 266.509 207.415 252.075 206.961L248.557 196.525C248.557 196.525 265.927 194.418 280.942 205.928Z" fill="white"/>
<path d="M86.6446 282.74C83.1108 282.74 79.1894 281.831 75.9837 278.816C72.1517 275.209 71.1229 270.624 73.3743 267.155C75.4022 264.029 79.4429 262.735 83.6625 263.864C92.0719 266.122 98.9605 276.696 99.2438 277.136L96.6792 278.541C96.6196 278.444 90.1038 268.449 82.8275 266.494C79.9498 265.723 77.2361 266.521 75.924 268.545C74.7014 270.431 74.6417 273.598 78.1009 276.861C84.4676 282.864 95.0391 278.238 95.1435 278.183L96.4407 280.661C96.1574 280.826 91.7886 282.74 86.6446 282.74Z" fill="#F8B042"/>
<path d="M95.5166 278.995C94.7412 278.334 76.6401 262.818 84.6768 253.786C87.2712 250.881 89.7612 250.867 91.3864 251.377C97.4549 253.263 101.704 266.012 102.167 276.737L99.1845 276.847C98.7372 266.356 94.4878 255.245 90.4322 253.992C90.0296 253.869 88.8069 253.483 86.973 255.548C81.7842 261.386 92.8327 272.992 97.5295 276.971L95.5166 278.995Z" fill="#F8B042"/>
<path d="M159.541 545.117L195.714 548.009C195.714 548.009 203.407 496.089 201.484 481.523C199.56 466.956 165.311 479.32 165.311 479.32L159.541 545.117Z" fill="#0F0700"/>
<path d="M177.911 477.447C177.046 493.694 168.398 552.855 168.398 552.855L166.713 552.538L164.82 552.18L111.441 542.198C111.441 542.198 117.599 475.85 117.882 467.314C118.18 458.792 111.441 374.848 111.441 374.848L111.426 374.821C110.919 373.692 94.4876 337.317 92.7879 323.452C91.0434 309.367 94.5175 279.45 94.5175 279.45L122.027 281.171L158.572 283.442C158.572 283.442 178.776 461.187 177.911 477.447Z" fill="#261100"/>
<path d="M145.019 466.777L112.976 361.259L111.441 374.848L111.426 374.821C110.919 373.692 94.4876 337.317 92.7879 323.452C91.0434 309.367 94.5175 279.45 94.5175 279.45L122.027 281.171C128.796 287.669 136.073 294.718 142.708 301.299C162.911 321.291 145.019 466.777 145.019 466.777Z" fill="#0F0700"/>
<path d="M173.587 503.552L166.714 552.538L164.82 552.18L140.979 509.155L173.587 503.552Z" fill="#0F0700"/>
<path d="M225.818 500.894C199.561 519.013 140.978 509.155 140.978 509.155C140.978 509.155 138.95 480.642 139.249 467.314C139.487 455.983 135.566 406.762 131.555 378.745C130.839 373.788 130.123 369.492 129.438 366.188C124.815 344.201 105.775 309.299 103.166 299.702C100.571 290.106 94.5176 279.45 94.5176 279.45L96.5305 275.718L152.206 282.217L199.278 287.71C199.278 287.71 201.887 295.076 205.525 305.746C213.1 327.954 225.117 364.481 227.264 378.579C228.174 384.623 228.562 395.115 228.606 407.492C228.755 445.354 225.818 500.894 225.818 500.894Z" fill="#F8D9A9"/>
<path d="M205.525 305.746C172.245 304.879 146.838 282.74 146.838 282.74L152.206 282.217L199.278 287.71C199.278 287.71 201.887 295.076 205.525 305.746Z" fill="#F8B042"/>
<path d="M134.716 316.857L156.649 336.559L164.537 334.962L134.716 316.857Z" fill="#F8B042"/>
<path d="M225.818 500.894C199.561 519.013 140.978 509.155 140.978 509.155C140.978 509.155 138.95 480.642 139.248 467.314C139.487 455.983 135.565 406.762 131.554 378.745C132.792 343.099 111.44 307.784 111.44 307.784L151.072 340.827L213.025 345.536L228.606 407.492C228.755 445.354 225.818 500.894 225.818 500.894Z" fill="#F8B042"/>
<path d="M199.472 313.677C200.038 314.751 199.546 316.045 198.368 316.568C197.205 317.091 195.804 316.637 195.237 315.549C194.671 314.475 195.163 313.181 196.34 312.658C197.518 312.135 198.92 312.589 199.472 313.677Z" fill="white"/>
<path d="M195.312 321.69C195.64 322.323 195.357 323.094 194.656 323.397C193.97 323.7 193.135 323.438 192.807 322.791C192.479 322.144 192.762 321.387 193.463 321.084C194.164 320.781 194.984 321.057 195.312 321.69Z" fill="white"/>
<path d="M265.494 169.925C264.361 174.303 260.544 180.595 255.475 187.52C255.46 187.548 255.445 187.576 255.445 187.589C249.093 196.277 240.803 205.983 233.362 214.258C223.328 225.438 214.859 234.015 214.859 234.015L199.277 287.71C184.009 290.698 161.793 288.592 141.917 285.37C117.449 281.391 96.5303 275.718 96.5303 275.718C101.779 250.22 136.222 179.218 152.444 153.871C155.352 149.287 157.693 146.203 159.154 145.142C165.043 140.861 187.603 135.119 203.959 131.347C214.054 129.034 221.777 127.464 221.777 127.464L225.013 128.263L250.465 134.527L264.272 137.914L264.823 138.052L265.494 138.217C265.494 138.217 269.967 152.605 265.494 169.925Z" fill="#FF5748"/>
<path d="M253.983 170.641C248.094 172.362 232.751 161.802 232.751 161.802L242.637 138.052L250.464 134.527L264.271 137.914C264.972 140.709 265.613 144.096 265.956 147.937C266.911 158.952 259.888 168.92 253.983 170.641Z" fill="#281C32"/>
<path d="M265.494 169.925C264.361 174.303 260.544 180.595 255.475 187.52C256.28 186.144 264.898 171.109 265.494 161.953C266.031 153.665 265.092 141.301 264.823 138.052L265.494 138.217C265.494 138.217 269.967 152.605 265.494 169.925Z" fill="white"/>
<path d="M232.751 161.802C232.751 161.802 220.122 152.66 219.078 144.069C219.078 144.069 234.003 139.883 236.315 144.069C238.611 148.254 235.599 156.542 232.751 161.802Z" fill="#281C32"/>
<path d="M241.115 194.446L233.362 214.258C223.327 225.438 214.858 234.015 214.858 234.015L199.277 287.71C184.009 290.698 161.792 288.592 141.917 285.37L127.021 245.071L142.618 252.354L139.919 186.061L134.149 191.596L152.444 153.871L188.586 162.738C188.586 162.738 193.984 207.415 194.938 210.251C195.907 213.101 241.115 194.446 241.115 194.446Z" fill="#281C32"/>
<path d="M178.388 260.064C178.314 260.064 178.239 260.05 178.179 260.023C177.896 259.913 177.762 259.61 177.866 259.348C178.194 258.605 186.007 241.037 189.407 235.901C192.792 230.821 212.518 198.934 212.712 198.604L229.918 165.767C230.053 165.505 230.395 165.409 230.664 165.533C230.947 165.657 231.051 165.96 230.917 166.221L213.696 199.086C213.472 199.444 193.746 231.344 190.346 236.438C186.991 241.491 178.97 259.555 178.88 259.734C178.821 259.954 178.612 260.064 178.388 260.064Z" fill="#281C32"/>
<path d="M232.751 161.802C232.751 161.802 244.664 153.94 250.822 152.88C256.98 151.82 244.456 143.422 244.456 143.422L232.751 161.802Z" fill="white"/>
<path d="M234.212 149.7C234.212 149.7 236.076 157.396 232.751 161.802L242.189 150.058L236.359 145.941L234.212 149.7Z" fill="#FB7880"/>
<path d="M234.213 149.7C234.213 149.7 219.899 145.982 213.428 158.374C213.428 158.374 203.706 141.824 203.945 131.361C203.945 131.361 211.847 121.751 223.075 123.747L234.213 149.7Z" fill="white"/>
<path d="M240.102 235.419C226.787 257.971 209.058 272.758 200.5 268.449C200.38 268.394 200.261 268.325 200.142 268.242C192.075 263.52 196.012 242.056 209.148 219.834C222.463 197.282 240.191 182.495 248.75 186.805C249.599 187.231 250.315 187.823 250.912 188.581C256.428 195.423 252.104 215.112 240.102 235.419Z" fill="#241A1F"/>
<path d="M240.102 235.419C226.787 257.971 209.058 272.758 200.5 268.449C200.381 268.394 200.261 268.325 200.142 268.242C194.625 261.4 198.949 241.711 210.952 221.404C224.282 198.852 242.01 184.078 250.554 188.374C250.673 188.429 250.792 188.498 250.912 188.581C256.429 195.423 252.105 215.112 240.102 235.419Z" fill="#543E48"/>
<path d="M272.636 216.117L263.258 226.154C263.258 226.154 210.758 264.773 208.626 267.182C206.479 269.592 195.803 284.86 195.803 284.86C195.803 284.86 179.074 285.218 177.344 284.86C175.6 284.516 170.023 273.736 170.023 273.736L185.485 258.825L187.454 256.925C187.454 256.925 199.561 255.466 204.183 251.198C208.79 246.943 252.075 206.961 252.075 206.961C259.366 207.195 264.54 209.522 267.865 211.78C271.13 213.983 272.636 216.117 272.636 216.117Z" fill="#FEAFAB"/>
<path d="M272.636 216.117L263.258 226.154C263.258 226.154 210.758 264.773 208.626 267.182C206.479 269.592 195.803 284.86 195.803 284.86C195.803 284.86 179.074 285.218 177.344 284.86C175.6 284.516 170.023 273.736 170.023 273.736L185.485 258.825C193.85 258.095 203.08 258.164 205.525 257.737C209.372 257.063 244.441 231.082 244.441 231.082L241.116 238.944L269.684 215.497L267.865 211.78C271.13 213.983 272.636 216.117 272.636 216.117Z" fill="#FB7880"/>
<path d="M256.876 216.02C257.518 216.02 258.039 215.539 258.039 214.946C258.039 214.353 257.518 213.872 256.876 213.872C256.234 213.872 255.713 214.353 255.713 214.946C255.713 215.539 256.234 216.02 256.876 216.02Z" fill="white"/>
<path d="M254.043 217.727C254.332 217.727 254.565 217.512 254.565 217.246C254.565 216.979 254.332 216.764 254.043 216.764C253.755 216.764 253.521 216.979 253.521 217.246C253.521 217.512 253.755 217.727 254.043 217.727Z" fill="white"/>
<path d="M345.294 276.434C345.294 276.434 344.981 277.536 344.176 278.568C343.654 279.243 342.909 279.89 341.94 280.165C340.404 280.592 327.984 283.057 317.68 284.957C311.239 286.155 305.633 287.132 304.038 287.27C299.892 287.628 283.491 284.516 283.491 284.516C283.491 284.516 281.642 284.571 278.392 284.64C277.423 284.668 276.334 284.681 275.141 284.709C252.269 285.122 188.691 285.356 165.222 276.255C165.222 276.255 162.255 273.874 158.99 269.537C157.737 267.884 156.425 265.943 155.232 263.726C153.458 260.45 151.907 256.608 151.072 252.271C148.195 237.347 143.856 169.925 145.302 161.127C146.748 152.343 153.085 148.144 159.154 145.142C165.222 142.141 185.411 144.606 188.587 162.738C191.345 178.434 188.244 228.962 188.303 248.747C188.318 251.79 188.393 254.116 188.587 255.466C188.587 255.466 193.119 255.686 199.71 256.457C207.582 257.379 218.392 259.087 227.92 262.129C243.084 266.962 265.509 271.808 278.287 273.708C280.285 274.011 282.03 274.245 283.491 274.383C283.491 274.383 288.486 273.557 292.721 273.736C296.955 273.915 300.474 276.434 300.474 276.434H345.294Z" fill="#FEAFAB"/>
<path d="M303.844 276.434C302.919 277.66 301.175 279.656 298.834 281.047C295.225 283.167 284.4 282.217 284.4 282.217L278.392 284.64C281.642 284.571 283.491 284.516 283.491 284.516C283.491 284.516 289.709 285.7 295.464 286.513C295.464 286.513 305.23 286.265 311.85 284.86C318.471 283.442 327.581 281.611 327.581 281.611C331.905 280.592 340.97 278.94 344.176 278.568C344.981 277.536 345.294 276.434 345.294 276.434H303.844Z" fill="#FB7880"/>
<path d="M299.102 256.911C302.144 256.911 304.619 259.211 304.619 262.047C304.619 264.869 302.144 267.182 299.102 267.182C296.06 267.182 293.585 264.883 293.585 262.047C293.585 259.224 296.06 256.911 299.102 256.911ZM299.102 254.598C294.673 254.598 291.08 257.93 291.08 262.047C291.08 266.163 294.673 269.495 299.102 269.495C303.53 269.495 307.124 266.163 307.124 262.047C307.124 257.93 303.53 254.598 299.102 254.598Z" fill="#F9E9D4"/>
<path d="M336.453 274.204H305.469C296.627 265.42 299.117 250.137 299.117 250.137H342.79C342.79 250.137 345.295 265.42 336.453 274.204Z" fill="white"/>
<path d="M315.817 274.204H305.469C296.627 265.42 299.117 250.137 299.117 250.137H314.997C314.341 254.337 313.252 265.406 315.817 274.204Z" fill="#F9E9D4"/>
<path d="M320.916 274.204H317.934C315.995 266.397 317.009 255.727 317.009 255.727C317.367 263.465 319.395 270.17 320.916 274.204Z" fill="#F9E9D4"/>
<path d="M347.217 274.204H294.703V276.434H347.217V274.204Z" fill="white"/>
<path d="M330.026 274.204H294.703V276.434H330.026V274.204Z" fill="#F9E9D4"/>
<path d="M220.763 265.117C221.281 265.117 221.702 264.729 221.702 264.25C221.702 263.771 221.281 263.382 220.763 263.382C220.244 263.382 219.823 263.771 219.823 264.25C219.823 264.729 220.244 265.117 220.763 265.117Z" fill="white"/>
<path d="M277.855 282.74C277.929 283.36 276.751 284.062 275.141 284.709C252.268 285.122 188.691 285.356 165.222 276.255C165.222 276.255 162.255 273.874 158.989 269.537L177.836 255.727L184.769 259.513L180.087 270.831C180.087 270.831 216.871 276.696 223.805 276.255C230.723 275.801 277.661 280.84 277.855 282.74Z" fill="#FB7880"/>
<path d="M188.303 248.747C179.387 252.712 165.416 259.073 155.232 263.726C153.458 260.45 151.907 256.608 151.072 252.271C148.195 237.347 143.856 169.925 145.302 161.127C146.748 152.343 153.085 148.144 159.154 145.142C165.222 142.141 185.411 144.606 188.587 162.738C191.345 178.434 188.244 228.962 188.303 248.747Z" fill="#FF5748"/>
<path d="M188.586 255.466C188.586 255.466 175.883 272.249 165.207 276.255C165.207 276.255 160.301 275.457 158.572 274.039C156.842 272.621 144.333 252.01 144.139 244.369C144.139 244.369 175.585 241.698 188.333 243.474C188.348 243.474 191.673 248.265 188.586 255.466Z" fill="white"/>
<path d="M289.604 273.736C289.604 273.736 300.28 271.891 303.545 270.831C303.545 270.831 314.415 272.07 317.486 271.45C317.486 271.45 320.946 276.421 308.63 275.319C308.63 275.319 302.949 281.033 298.819 281.047C294.703 281.047 289.5 277.178 289.604 273.736Z" fill="#FEAFAB"/>
<path d="M186.663 231.743C186.663 231.743 188.616 170.173 186.663 161.788C184.71 153.403 181.996 151.985 181.996 151.985C181.996 151.985 186.633 157.492 186.246 167.612C185.858 177.731 185.306 227.2 185.306 227.2L186.663 231.743Z" fill="white"/>
<path d="M180.087 203.891C181.15 203.891 182.011 203.095 182.011 202.115C182.011 201.134 181.15 200.338 180.087 200.338C179.025 200.338 178.164 201.134 178.164 202.115C178.164 203.095 179.025 203.891 180.087 203.891Z" fill="white"/>
<path d="M177.016 197.888C177.469 197.888 177.836 197.549 177.836 197.131C177.836 196.712 177.469 196.373 177.016 196.373C176.563 196.373 176.196 196.712 176.196 197.131C176.196 197.549 176.563 197.888 177.016 197.888Z" fill="white"/>
<path d="M278.287 273.708C278.153 273.736 278.004 273.736 277.855 273.736C269.833 273.653 236.688 266.742 228.606 263.726C220.54 260.711 199.71 256.457 199.71 256.457C207.583 257.379 218.393 259.087 227.92 262.129C243.084 266.962 265.509 271.808 278.287 273.708Z" fill="white"/>
<path d="M287.204 87.248C286.772 89.2719 285.832 91.4472 284.625 93.6226C280.33 101.401 272.637 109.043 272.637 109.043V95.4399L286.145 87.84L287.204 87.248Z" fill="#461930"/>
<path d="M273.173 128.098C273.576 130.645 273.62 133.619 272.666 137.419C270.743 145.06 255.937 158.374 253.819 158.374C251.702 158.374 235.927 152.343 230.917 147.015C229.873 145.9 228.859 144.427 227.92 142.774C224.342 136.551 221.688 128.001 221.688 128.001C217.766 117.799 217.841 107.033 221.688 98.8682C225.534 90.6899 238.223 80.5705 249.391 82.3465C260.544 84.1226 275.171 96.1972 275.171 96.1972C275.171 96.1972 270.549 116.987 271.518 121.255C271.995 123.389 272.77 125.523 273.173 128.098Z" fill="#FEAFAB"/>
<path d="M272.666 137.419C270.742 145.06 255.936 158.374 253.819 158.374C251.702 158.374 235.927 152.343 230.917 147.015C229.873 145.9 228.859 144.427 227.92 142.774L228.71 138.616C237.224 139.814 239.088 129.557 239.088 129.557C239.088 129.557 252.954 124.89 259.724 124.49C264.495 124.215 270.206 126.638 273.173 128.098C273.575 130.645 273.62 133.619 272.666 137.419Z" fill="#FEAFAB"/>
<path d="M229.665 141.053C226.877 138.479 221.777 127.464 221.777 127.464L222.642 126.666C224.282 131.457 230.44 139.374 230.44 139.374L229.665 141.053Z" fill="#FEAFAB"/>
<path d="M221.777 116.725C221.777 116.725 229.754 120.718 239.565 130.755L240.907 129.557C240.922 129.557 230.53 120.291 221.777 116.725Z" fill="#FEAFAB"/>
<path d="M288.009 83.1864C288.009 84.5494 287.711 85.9124 287.204 87.2479C286.802 88.3356 286.265 89.3958 285.624 90.4146C281.628 96.9269 273.949 102.076 273.949 102.076C273.472 101.746 273.039 101.401 272.637 101.044C269.55 98.3312 268.536 95.0406 268.536 95.0406C255.4 102.241 242.13 95.853 242.13 95.853L232.603 77.9958C232.603 77.9958 239.551 72.0756 250.823 68.8676C250.853 68.8676 250.868 68.8539 250.898 68.8539C253.85 68.014 257.085 67.3669 260.589 67.064C277.483 65.6046 288.009 73.7277 288.009 83.1864Z" fill="#461930"/>
<path d="M224.521 117.028C224.521 117.028 241.981 103.577 243.86 95.1783C245.738 86.7798 243.576 70.6575 232.9 69.4597C222.225 68.2618 210.102 77.4589 208.805 90.2494C207.508 103.04 213.741 126.762 223.104 132.09C223.104 132.09 217.945 125 219.943 122.343C221.926 119.685 224.521 117.028 224.521 117.028Z" fill="#461930"/>
<path d="M223.507 117.964C223.507 117.964 216.439 111.975 213.979 117.427C211.519 122.893 217.438 129.282 224.506 129.557L223.507 117.964Z" fill="#FEAFAB"/>
<path d="M226.4 113.559C226.4 113.559 225.684 129.282 230.441 136.482C230.441 136.482 220.48 124.559 221.927 115.128L226.4 113.559Z" fill="#461930"/>
<path d="M250.316 115.5C250.227 115.197 249.899 115.004 249.63 114.825C249.332 114.619 249.034 114.44 248.691 114.302C248.05 114.054 247.304 113.999 246.618 114.068C245.455 114.164 243.949 114.619 243.353 115.638C243.219 115.858 243.517 116.037 243.711 115.885C244.143 115.569 244.531 115.238 245.038 115.032C245.545 114.812 246.111 114.688 246.678 114.66C247.274 114.633 247.915 114.66 248.467 114.894C248.736 115.018 248.989 115.17 249.228 115.348C249.466 115.514 249.69 115.789 250.003 115.83C250.182 115.844 250.376 115.706 250.316 115.5Z" fill="#461930"/>
<path d="M267.687 115.197C267.21 114.935 266.673 114.784 266.121 114.729C265.584 114.674 265.018 114.743 264.496 114.922C264.242 115.004 263.989 115.114 263.765 115.238C263.527 115.376 263.333 115.569 263.154 115.775C263.035 115.913 263.184 116.147 263.378 116.037C263.75 115.803 264.198 115.583 264.63 115.459C265.077 115.321 265.569 115.28 266.047 115.335C266.494 115.39 266.911 115.541 267.299 115.748C267.702 115.968 267.985 116.312 268.373 116.546C268.581 116.684 268.894 116.464 268.805 116.243C268.611 115.789 268.134 115.459 267.687 115.197Z" fill="#461930"/>
<path d="M268.909 106.716C268.686 106.537 268.328 106.509 268.045 106.468C267.731 106.427 267.418 106.399 267.09 106.399C266.449 106.386 265.823 106.441 265.197 106.578C264.034 106.826 262.736 107.335 261.991 108.23C261.887 108.354 262.051 108.533 262.2 108.464C262.692 108.23 263.169 107.941 263.691 107.721C264.227 107.487 264.794 107.322 265.361 107.198C265.912 107.088 266.494 107.033 267.06 107.046C267.344 107.046 267.627 107.074 267.91 107.115C268.194 107.157 268.492 107.253 268.775 107.198C269.044 107.129 269.103 106.867 268.909 106.716Z" fill="#461930"/>
<path d="M243.815 106.854C244.038 106.661 244.381 106.62 244.665 106.565C244.978 106.509 245.291 106.468 245.604 106.454C246.23 106.427 246.871 106.454 247.498 106.565C248.676 106.771 249.988 107.225 250.778 108.079C250.882 108.189 250.733 108.382 250.584 108.327C250.077 108.107 249.585 107.845 249.063 107.638C248.526 107.432 247.945 107.28 247.363 107.184C246.797 107.088 246.23 107.06 245.649 107.088C245.365 107.101 245.082 107.143 244.799 107.184C244.516 107.225 244.217 107.349 243.934 107.294C243.71 107.267 243.636 107.005 243.815 106.854Z" fill="#461930"/>
<path d="M288.009 83.1864C288.009 84.5494 287.711 85.9124 287.204 87.2479C286.772 89.2718 285.832 91.4472 284.625 93.6225C284.729 93.3747 285.191 92.1494 285.624 90.4146C285.817 89.6436 286.011 88.7762 286.146 87.84C286.757 83.9161 286.623 78.877 283.253 75.4625C277.02 69.1705 263.855 66.3343 250.897 68.8539C253.85 68.014 257.085 67.3669 260.589 67.064C277.483 65.6046 288.009 73.7277 288.009 83.1864Z" fill="white"/>
<path d="M252.522 71.993C252.522 71.993 270.027 69.2669 278.049 75.0633C278.049 75.0633 270.579 71.3321 252.522 71.993Z" fill="white"/>
</g>
<mask id="mask6_118_5891" style="mask-type:luminance" maskUnits="userSpaceOnUse" x="48" y="0" width="648" height="563">
<path d="M609.967 210.21V153.871C609.967 153.871 555.097 127.643 539.68 127.464C529.511 127.34 505.64 155.427 490.565 174.537C446.803 147.772 436.664 99.763 434.189 55.8705C431.028 -0.261682 330.384 -18.7384 244.962 21.9874C178.507 53.6677 139.993 119.795 127.26 168.025L51.7987 274.204L81.9623 317.312C57.5391 352.31 26.5107 412.435 70.2726 475.74C120.297 548.119 268.819 557.563 268.819 557.563C556.633 579.592 643.59 516.342 645.141 468.03C646.677 419.704 663.615 397.675 691.318 316.857C710.806 259.968 666.627 229.196 609.967 210.21Z" fill="white"/>
</mask>
<g mask="url(#mask6_118_5891)">
<path d="M432.966 340.827H151.071V348.827H432.966V340.827Z" fill="#87642E"/>
<path d="M292.018 348.813H256.502L259.961 358.602H292.018H324.076L327.535 348.813H292.018Z" fill="#F8EAD5"/>
<path d="M297.297 352.902H286.756V598.565H297.297V352.902Z" fill="#F8EAD5"/>
</g>
<mask id="mask7_118_5891" style="mask-type:luminance" maskUnits="userSpaceOnUse" x="48" y="0" width="648" height="563">
<path d="M609.967 210.21V153.871C609.967 153.871 555.097 127.643 539.68 127.464C529.511 127.34 505.64 155.427 490.565 174.537C446.803 147.772 436.664 99.763 434.189 55.8705C431.028 -0.261682 330.384 -18.7384 244.962 21.9874C178.507 53.6677 139.993 119.795 127.26 168.025L51.7987 274.204L81.9623 317.312C57.5391 352.31 26.5107 412.435 70.2726 475.74C120.297 548.119 268.819 557.563 268.819 557.563C556.633 579.592 643.59 516.342 645.141 468.03C646.677 419.704 663.615 397.675 691.318 316.857C710.806 259.968 666.627 229.196 609.967 210.21Z" fill="white"/>
</mask>
<g mask="url(#mask7_118_5891)">
<path d="M259.858 297.1L240.772 340.827H271.294L272.651 337.73L259.858 297.1Z" fill="#C9A773"/>
<path d="M275.171 340.827H273.62L259.858 297.1L240.772 340.827H239.162L260.081 292.887L275.171 340.827Z" fill="#F8EAD5"/>
<path d="M315.354 340.827H275.17L260.081 292.887H300.264L315.354 340.827Z" fill="white"/>
<path d="M330.428 324.609H320.334V340.814H330.428V324.609Z" fill="#FF5748"/>
<path d="M330.428 324.622H320.334C320.334 324.622 320.483 319.955 325.389 319.955C330.294 319.955 330.428 324.622 330.428 324.622Z" fill="white"/>
<path d="M322.182 324.622H321.81C321.884 322.984 322.108 322.02 322.108 322.02C322.197 322.599 322.212 323.576 322.182 324.622Z" fill="#C9A773"/>
<path d="M323.793 324.622H323.405C323.48 322.86 323.718 321.814 323.718 321.814C323.808 322.42 323.823 323.493 323.793 324.622Z" fill="#C9A773"/>
<path d="M325.552 324.622H325.164C325.164 322.213 325.507 320.712 325.507 320.712C325.626 321.525 325.611 323.135 325.552 324.622Z" fill="#C9A773"/>
<path d="M326.164 324.622H325.791C325.88 323.053 326.089 322.13 326.089 322.13C326.179 322.681 326.194 323.617 326.164 324.622Z" fill="#C9A773"/>
<path d="M327.222 324.622H326.834C326.909 322.86 327.147 321.814 327.147 321.814C327.237 322.42 327.251 323.493 327.222 324.622Z" fill="#C9A773"/>
<path d="M326.775 324.622H326.372C326.417 322.53 326.715 321.236 326.715 321.236C326.819 321.951 326.819 323.287 326.775 324.622Z" fill="#C9A773"/>
<path d="M327.983 324.622H327.625C327.714 323.149 327.908 322.282 327.908 322.282C327.983 322.805 328.013 323.672 327.983 324.622Z" fill="#C9A773"/>
<path d="M329.085 324.622H328.728C328.817 323.149 329.011 322.282 329.011 322.282C329.085 322.805 329.115 323.672 329.085 324.622Z" fill="#C9A773"/>
<path d="M324.642 324.622H324.27C324.27 322.213 324.612 320.712 324.612 320.712C324.732 321.525 324.717 323.135 324.642 324.622Z" fill="#C9A773"/>
<path d="M323.36 324.622H322.987C323.077 323.053 323.286 322.13 323.286 322.13C323.375 322.681 323.39 323.617 323.36 324.622Z" fill="#C9A773"/>
<path d="M322.913 324.622H322.511C322.6 322.791 322.854 321.69 322.854 321.69C322.943 322.323 322.958 323.438 322.913 324.622Z" fill="#C9A773"/>
<path d="M330.86 325.972H320.08V326.316H330.86V325.972Z" fill="white"/>
<path d="M330.86 338.693H320.08V339.038H330.86V338.693Z" fill="white"/>
</g>
<mask id="mask8_118_5891" style="mask-type:luminance" maskUnits="userSpaceOnUse" x="48" y="0" width="648" height="563">
<path d="M609.967 210.21V153.871C609.967 153.871 555.097 127.643 539.68 127.464C529.511 127.34 505.64 155.427 490.565 174.537C446.803 147.772 436.664 99.763 434.189 55.8705C431.028 -0.261683 330.384 -18.7384 244.962 21.9874C178.507 53.6677 139.993 119.795 127.26 168.025L51.7987 274.204L81.9623 317.312C57.5391 352.31 26.5107 412.435 70.2726 475.74C120.297 548.119 268.819 557.563 268.819 557.563C556.633 579.592 643.59 516.342 645.141 468.03C646.677 419.704 663.615 397.675 691.318 316.857C710.806 259.968 666.627 229.196 609.967 210.21Z" fill="white"/>
</mask>
<g mask="url(#mask8_118_5891)">
<path d="M143.498 487.002L179.178 475.713C183.562 463.528 185.068 449.953 180.923 435.648L140.217 449.994L178.88 429.659C177.001 424.936 174.481 420.131 171.231 415.285C168.756 411.595 165.863 408.015 162.628 404.546L112.365 432.564L155.471 397.538C145.839 388.823 134.179 380.865 121.699 373.65L94.5768 412.765L113.781 369.217C102.39 363.049 90.5808 357.473 79.2191 352.503L71.8385 379.97L71.1974 349.061C47.0426 338.845 26.0339 331.451 17.2666 326.88C16.5062 335.114 12.2866 351.979 8.21607 372.59L41.7793 394.619L6.32245 382.476C4.22009 394.068 2.31157 406.528 1.14856 419.099L58.285 430.471L0.417957 428.901C-0.402112 443.151 -0.0740839 457.305 2.2072 470.261L65.9787 455.212L4.66741 481.096C5.97952 485.681 7.58983 490.059 9.558 494.162C12.0182 499.284 14.8363 503.841 17.9376 507.875L65.8744 486.259L23.0071 513.754C33.7724 524.975 47.1172 531.363 60.775 534.695L97.1265 509.623L71.6149 536.746C103.717 541.138 134.313 531.501 134.313 531.501C134.313 531.501 162.195 512.198 175.928 483.505L143.498 487.002Z" fill="#A281DE"/>
</g>
</g>
<defs>
<clipPath id="clip0_118_5891">
<rect width="696" height="636" fill="white"/>
</clipPath>
</defs>
</svg>
