<svg width="479" height="359" viewBox="0 0 479 359" fill="none" xmlns="http://www.w3.org/2000/svg">
<path d="M82.0219 340.277C82.0219 340.277 22.3957 297.903 5.25044 225.791C-11.8948 153.68 14.3145 66.2091 64.003 22.0925C113.692 -22.133 203.131 7.71379 242.991 44.641C282.851 81.5683 282.742 81.5683 282.742 81.5683C282.742 81.5683 320.745 102.265 370.434 100.522C420.122 98.6702 464.46 166.316 476.145 219.473C487.83 272.631 459.873 343 459.873 343L82.0219 340.277Z" fill="#800080" fill-opacity="0.1"/>
<path d="M54.9638 350.236C54.9638 350.236 13.4077 327.648 2.60964 275.271C-8.1884 222.894 38.7122 174.99 43.1841 148.802C47.656 122.613 37.7305 90.0952 79.2866 64.7795C120.843 39.4638 194.793 48.5207 222.824 42.1918C250.855 35.8628 283.25 -7.45762 339.312 2.47226C395.266 12.4021 449.474 42.1918 452.092 107.227C454.818 172.262 433.986 174.008 454.818 209.254C475.542 244.499 483.722 268.833 473.797 304.952C463.871 341.07 443.148 351 443.148 351L54.9638 350.236Z" fill="#800080" fill-opacity="0.1"/>
<path d="M141.178 338.266C138.549 335.55 100.537 260.042 142.93 190.836C185.324 121.629 291.691 129.669 334.084 156.721C376.478 183.774 397.182 218.757 401.563 255.588C405.836 292.418 377.354 350 377.354 350L141.178 338.266Z" fill="#800080" fill-opacity="0.14"/>
<path d="M438.76 211.576H390.128C387.075 211.576 384.676 209.177 384.676 206.124V181.808C384.676 178.754 387.075 176.355 390.128 176.355H438.76C441.813 176.355 444.212 178.754 444.212 181.808V206.124C444.212 209.177 441.704 211.576 438.76 211.576Z" fill="#800080" fill-opacity="0.94"/>
<path d="M414.445 225.315L422.078 207.105H406.703L414.445 225.315Z" fill="#800080" fill-opacity="0.94"/>
<path d="M414.227 187.916H428.184V189.988L434.944 186.062L428.184 182.137V184.099H414.227V187.916Z" fill="white"/>
<path d="M434.944 195.984H420.987V193.912L414.227 197.838L420.987 201.763V199.691H434.944V195.984Z" fill="white"/>
<path d="M405.615 199.584L404.961 199.802C404.961 199.802 402.889 197.403 401.799 194.895C400.708 192.278 400.708 189.225 400.708 189.225L401.144 189.007L398.2 181.919C397.655 182.355 397.219 182.9 396.783 183.555C395.147 186.39 395.256 190.642 397.001 194.895C398.636 199.147 400.49 202.855 403.761 205.254C405.724 206.671 407.36 206.889 408.668 206.671L405.615 199.584Z" fill="white"/>
<path d="M407.794 198.711L406.922 199.038L409.975 206.235C410.302 206.126 410.629 206.017 410.847 205.799C411.611 205.363 411.938 204.49 411.611 203.618L410.084 199.693C409.648 198.82 408.667 198.384 407.794 198.711Z" fill="white"/>
<path d="M400.602 180.611C400.275 180.72 399.839 180.938 399.402 181.156L402.456 188.352L403.437 187.916C404.309 187.589 404.745 186.499 404.418 185.626L402.783 181.592C402.456 180.829 401.474 180.283 400.602 180.611Z" fill="white"/>
<path d="M127.664 327.05V245.815C127.664 245.815 126.791 223.897 138.241 217.573C149.69 211.249 198.213 214.629 198.213 214.629V326.941H127.664V327.05Z" fill="#6E6F71"/>
<path d="M213.475 138.629C213.475 138.629 210.531 163.272 209.44 165.235C208.35 167.307 208.35 167.307 208.35 167.307L202.68 171.123C202.68 171.123 213.475 186.498 226.778 188.897C240.081 191.405 238.99 183.445 238.99 183.445L236.919 179.192L239.645 155.748C239.645 155.748 215.438 144.735 213.475 138.629Z" fill="#FF9D8C"/>
<path d="M195.602 173.193L204.434 169.377C204.434 169.377 210.104 178.645 223.189 183.988C236.274 189.332 236.492 186.278 237.146 183.988C237.801 181.699 236.928 179.3 236.928 179.3L237.91 171.449L243.144 173.193L261.353 320.072L214.684 322.362L195.602 173.193Z" fill="white"/>
<path d="M238.668 171.448C238.668 171.448 241.83 178.754 244.774 195.873C247.718 212.993 250.444 241.889 251.099 261.734C251.753 281.58 252.189 326.941 252.189 326.941C252.189 326.941 310.417 326.941 311.071 326.941C311.726 326.941 315.76 304.588 315.76 304.588C315.76 304.588 290.026 282.561 288.718 278.963C287.846 276.564 288.282 231.966 284.465 211.466C280.649 190.967 275.633 186.823 265.274 181.698C254.588 176.464 238.668 171.448 238.668 171.448Z" fill="#800080"/>
<path d="M269.417 301.208C269.09 301.208 268.872 300.99 268.872 300.663C268.872 299.027 268.545 276.129 268.326 253.993C267.999 231.858 267.781 208.959 267.781 207.324C267.781 206.996 267.999 206.778 268.326 206.778C268.654 206.778 268.872 206.996 268.872 207.324C268.872 208.959 269.199 231.858 269.417 253.993C269.744 276.129 269.962 299.027 269.962 300.663C269.962 300.881 269.744 301.208 269.417 301.208Z" fill="#8593B6"/>
<path d="M152.085 295.645L151.648 327.049H220.235C220.235 327.049 223.18 300.443 222.089 297.935C220.89 295.427 152.085 295.645 152.085 295.645Z" fill="#800080"/>
<path d="M228.413 164.579C231.248 166.869 235.065 168.614 238.009 169.704L239.644 155.747C239.644 155.747 221.543 147.459 215.328 141.244C216.637 148.332 219.799 157.6 228.413 164.579Z" fill="#8E9BBB"/>
<path d="M260.803 92.8302C260.803 92.8302 265.491 100.899 266.473 110.931C267.345 120.854 266.473 146.37 258.404 157.165C250.335 167.96 233.324 164.797 225.691 158.255C218.604 152.258 211.734 145.606 209.88 132.521C208.027 119.436 213.697 94.5749 229.726 89.45C245.755 84.216 260.803 92.8302 260.803 92.8302Z" fill="#FF9D8C"/>
<path d="M281.191 312.876C281.191 312.876 280.428 312.876 279.229 312.876C278.901 312.876 278.574 312.876 278.247 312.876C277.048 312.876 275.63 312.767 274.213 312.767C273.886 312.767 273.558 312.767 273.231 312.767C271.814 312.767 270.614 312.876 269.415 312.876C269.197 312.876 268.87 312.876 268.543 312.876C268.433 312.876 268.215 312.876 268.215 312.876C267.561 312.766 267.452 312.548 266.689 312.33C265.817 311.894 253.386 309.168 243.245 309.168C233.213 309.168 224.163 309.931 222.636 308.623C221.11 307.423 220.237 294.666 228.852 293.902L239.429 297.937C239.429 297.937 263.527 295.102 272.468 301.644C281.409 307.969 281.191 312.876 281.191 312.876Z" fill="#FF9D8C"/>
<path d="M269.528 312.765C269.31 312.765 268.983 312.765 268.656 312.765C268.438 312.438 268.001 311.784 267.674 311.566C264.948 308.84 258.406 306.986 256.007 306.441C255.789 306.332 255.68 306.114 255.68 306.005C255.68 305.787 256.007 305.678 256.225 305.678C259.714 306.55 267.129 308.622 269.201 312.22C269.201 312.111 269.419 312.547 269.528 312.765Z" fill="#223A7A"/>
<path d="M274.218 312.658C273.891 312.658 273.564 312.658 273.237 312.658C270.293 307.206 265.386 305.68 259.389 303.717L259.062 303.608C258.844 303.499 258.735 303.281 258.844 303.063C258.953 302.845 259.171 302.735 259.389 302.845L259.716 302.954C266.04 305.025 271.165 306.661 274.218 312.658Z" fill="#223A7A"/>
<path d="M279.222 312.768C278.895 312.768 278.567 312.768 278.349 312.768C276.496 308.951 270.607 302.627 262.647 301.1C262.429 301.1 262.32 300.882 262.32 300.664C262.32 300.446 262.538 300.337 262.756 300.337C270.826 301.863 277.368 308.515 279.222 312.768Z" fill="#223A7A"/>
<path d="M215.227 121.399C215.227 121.399 220.243 119 223.732 112.349C227.221 105.697 226.785 99.6998 226.785 99.6998C226.785 99.6998 233.109 98.7184 242.596 101.553C252.083 104.389 263.314 108.205 272.8 102.753C282.287 97.3009 282.287 88.6866 277.598 85.0882C272.364 81.0537 262.114 83.5617 262.114 83.5617C262.114 83.5617 266.04 79.7452 263.968 77.4554C261.787 75.1655 254.045 78.1096 254.045 78.1096C254.045 78.1096 244.559 70.5858 226.676 71.4581C208.793 72.3304 200.179 84.8702 199.198 98.8274C198.216 112.785 203.232 126.851 203.232 126.851L215.227 121.399Z" fill="#15171E"/>
<path d="M251.642 124.778C250.66 127.285 250.66 130.23 250.442 132.847C250.224 134.918 249.897 137.317 251.751 138.735C252.623 139.389 256.985 141.243 254.695 142.66C253.823 143.205 252.405 143.096 251.533 142.987C250.878 142.987 250.224 142.878 249.57 142.878C248.916 142.878 248.152 142.66 247.498 142.66C247.062 142.66 246.953 143.205 247.28 143.424C248.37 144.187 250.115 144.405 251.424 144.405C252.732 144.405 253.604 144.405 254.804 143.751C255.567 143.424 256.221 142.878 256.33 142.006C256.44 141.025 255.676 140.152 255.022 139.607C254.15 138.953 253.168 138.626 252.296 138.081C251.096 137.208 251.206 135.791 251.315 134.482C251.533 131.32 252.296 128.158 252.514 124.887C252.514 124.341 251.751 124.341 251.642 124.778Z" fill="#8E9BBB"/>
<path d="M257.784 135.317C259.148 135.558 260.526 134.216 260.862 132.318C261.198 130.42 260.365 128.686 259.001 128.445C257.637 128.204 256.259 129.546 255.923 131.444C255.587 133.341 256.421 135.075 257.784 135.317Z" fill="#223A7A"/>
<path d="M240.406 134.011C241.895 134.232 243.346 132.77 243.648 130.745C243.949 128.72 242.986 126.898 241.497 126.677C240.008 126.455 238.556 127.917 238.255 129.942C237.954 131.968 238.917 133.789 240.406 134.011Z" fill="#223A7A"/>
<path d="M256.876 124.452C257.967 124.67 258.948 124.452 260.038 124.561C260.257 124.561 260.584 124.67 260.802 124.67C261.02 124.67 260.475 124.67 260.693 124.67H260.802C260.911 124.67 261.02 124.67 261.238 124.779C261.456 124.888 261.674 124.888 261.892 124.997C262.11 124.997 262.328 125.106 262.546 125.106C262.655 125.106 262.764 125.106 262.874 125.106C262.764 125.106 262.764 125.106 262.655 125.106H263.092C263.746 124.997 264.073 124.234 263.855 123.689C263.855 123.471 263.746 123.362 263.637 123.252C263.637 123.143 263.528 123.143 263.528 123.034L263.637 123.143C263.637 123.034 263.528 123.034 263.528 122.925C263.419 122.816 263.419 122.707 263.31 122.707C263.201 122.598 263.092 122.598 263.092 122.489C262.764 122.271 262.437 122.162 262.11 122.053C261.456 121.944 260.802 121.835 260.147 121.835C259.493 121.835 258.839 121.944 258.185 121.944C257.64 122.053 256.985 122.162 256.549 122.598C256.222 122.816 256.004 123.252 256.004 123.689C256.113 123.907 256.44 124.343 256.876 124.452Z" fill="#223A7A"/>
<path d="M244.771 121.399C244.662 121.29 244.444 121.29 244.335 121.181C244.226 121.072 243.899 120.963 244.117 121.072C244.008 121.072 243.899 120.963 243.79 120.963C243.354 120.745 242.918 120.636 242.482 120.526C241.5 120.308 240.41 120.199 239.319 120.308C238.229 120.417 237.139 120.745 236.157 121.29C236.048 121.399 235.83 121.508 235.721 121.617C235.612 121.726 235.612 121.835 235.503 121.944C235.503 121.944 235.503 121.835 235.612 121.835C235.285 122.053 235.176 122.38 235.176 122.707C235.176 123.034 235.394 123.362 235.612 123.471C235.939 123.689 236.375 123.58 236.702 123.471C236.484 123.471 236.375 123.471 236.157 123.471C236.484 123.471 236.702 123.58 237.029 123.471C237.029 123.471 237.357 123.362 237.139 123.471C236.92 123.471 237.466 123.471 237.466 123.471C237.575 123.471 237.902 123.471 237.466 123.471C237.575 123.471 237.575 123.471 237.684 123.471C237.902 123.471 238.011 123.471 238.229 123.362C238.992 123.253 239.756 123.253 240.41 123.253C241.064 123.253 241.827 123.253 242.482 123.253C242.809 123.253 243.027 123.253 243.354 123.253C243.463 123.253 243.572 123.253 243.354 123.253C243.463 123.253 243.463 123.253 243.572 123.253C243.681 123.253 243.79 123.362 243.899 123.362C244.335 123.58 244.989 123.143 245.099 122.707C245.426 122.271 245.317 121.726 244.771 121.399Z" fill="#223A7A"/>
<path d="M250.228 152.803C251.209 150.732 253.172 149.205 255.352 148.224C253.499 148.006 244.557 147.242 242.268 148.442C239.76 149.859 242.704 155.638 247.938 155.966C248.483 155.966 249.028 155.966 249.464 155.856C249.464 154.766 249.682 153.785 250.228 152.803Z" fill="#223A7A"/>
<path d="M208.902 140.701C208.902 140.701 209.775 144.19 215.009 148.225C220.243 152.259 227.766 155.204 227.766 155.204L228.421 152.587C228.421 152.587 220.679 149.206 217.08 145.499C213.482 141.792 213.046 139.72 213.046 139.72L208.902 140.701Z" fill="#DEE1EB"/>
<path d="M229.289 150.622C233.433 150.404 235.832 153.675 236.05 155.856C236.377 158.037 234.305 160.435 229.616 158.255C223.837 155.747 225.036 150.84 229.289 150.622Z" fill="#223A7A"/>
<path d="M212.166 114.857C212.166 114.857 214.02 101.881 222.634 93.0486C239.209 76.2562 253.275 77.2376 253.275 77.2376C253.275 77.2376 253.166 74.8387 247.823 73.094C242.807 71.3493 240.626 72.3307 240.626 72.3307C240.626 72.3307 226.996 73.4211 215.438 86.179C203.879 98.9368 202.68 115.184 202.68 115.184L212.166 114.857Z" fill="#DEE1EB"/>
<path d="M210.969 113.22C200.064 111.367 194.067 119.872 193.631 128.486C193.195 137.1 199.41 143.534 207.697 142.88C226.452 141.462 224.272 115.51 210.969 113.22Z" fill="white"/>
<path d="M205.519 134.59C202.683 134.59 200.175 133.173 198.867 130.665C197.34 127.939 197.558 124.559 199.194 122.16C199.303 121.942 199.521 121.942 199.739 122.051C199.957 122.16 199.957 122.487 199.848 122.596C198.322 124.777 198.213 127.83 199.521 130.229C200.83 132.519 203.011 133.827 205.737 133.827C208.245 133.718 210.316 132.628 211.625 130.665C213.151 128.375 213.479 125.213 212.497 122.705C211.516 120.088 208.899 118.343 206.391 118.67C206.173 118.67 205.955 118.561 205.955 118.343C205.955 118.125 206.064 117.907 206.282 117.907C209.117 117.58 212.17 119.434 213.26 122.378C214.351 125.213 213.915 128.593 212.279 131.101C210.752 133.282 208.463 134.59 205.737 134.699C205.737 134.59 205.628 134.59 205.519 134.59Z" fill="#818FB3"/>
<path d="M197.667 170.032C197.667 170.032 164.737 178.101 153.178 191.186C141.62 204.271 136.277 268.824 136.059 280.709C135.841 292.704 144.128 297.611 149.144 300.991C154.16 304.371 175.968 310.477 193.633 311.35C211.297 312.222 227.872 311.35 227.872 311.35C227.872 311.35 227.763 307.533 230.489 301.863C232.997 296.629 236.159 295.539 236.159 295.539L221.002 290.087C221.002 290.087 218.385 242.654 214.242 219.646C209.662 193.476 197.667 170.032 197.667 170.032Z" fill="#800080"/>
<path d="M252.294 282.67C252.185 282.67 252.185 282.67 252.076 282.67C251.749 282.561 251.64 282.234 251.749 281.907C254.802 274.928 258.074 261.298 259.818 251.703L259.927 250.939C260.472 248.104 261.127 244.615 259.818 242.216C259.164 241.016 257.528 238.29 256.111 235.673C254.584 232.947 253.058 230.439 252.73 229.676C251.967 228.15 254.475 224.224 258.074 218.881C259.055 217.464 259.927 216.155 260.363 215.283C261.672 213.102 260.8 211.03 259.818 208.631L259.382 207.868C258.51 205.687 257.419 203.397 256.438 201.325C256.002 200.453 255.675 199.581 255.238 198.708C254.693 197.509 254.148 196.31 253.603 195.11C250.441 188.022 247.169 180.608 242.917 173.52C242.808 173.302 242.808 172.975 243.135 172.757C243.353 172.648 243.68 172.648 243.898 172.975C248.151 180.171 251.422 187.477 254.693 194.674C255.238 195.873 255.784 197.073 256.329 198.272C256.765 199.145 257.092 200.017 257.528 200.889C258.51 203.07 259.6 205.251 260.472 207.541L260.8 208.304C261.781 210.703 262.871 213.211 261.345 215.937C260.8 216.809 259.927 218.118 258.946 219.535C257.092 222.37 253.167 228.259 253.712 229.24C254.148 230.003 255.566 232.511 257.092 235.128C258.619 237.745 260.145 240.362 260.8 241.671C262.326 244.397 261.672 248.213 261.018 251.157L260.909 251.921C260.254 255.41 256.765 273.293 252.73 282.343C252.621 282.561 252.512 282.67 252.294 282.67Z" fill="#8593B6"/>
<path d="M220.128 284.524C220.019 284.524 219.801 284.524 219.692 284.415C217.075 281.798 204.753 260.426 203.881 256.392C203.336 254.211 204.644 248.65 205.843 243.198C206.825 239.054 207.806 234.692 207.479 233.493C207.043 231.748 203.881 229.131 200.828 226.623C197.12 223.57 193.304 220.517 192.54 217.682C191.668 214.52 192.431 194.456 192.868 181.262C193.086 176.464 193.195 172.757 193.195 171.449C193.195 171.121 193.413 170.903 193.74 170.903C194.067 170.903 194.285 171.121 194.285 171.449C194.285 172.757 194.176 176.573 193.958 181.371C193.522 193.693 192.759 214.411 193.522 217.464C194.176 219.972 197.993 223.025 201.373 225.86C204.753 228.586 207.915 231.203 208.351 233.275C208.679 234.692 207.806 238.727 206.716 243.416C205.625 248.432 204.317 254.211 204.753 256.174C205.625 260.099 217.838 281.144 220.346 283.652C220.564 283.87 220.564 284.197 220.346 284.415C220.346 284.524 220.237 284.524 220.128 284.524Z" fill="#8593B6"/>
<path d="M175.744 275.257C175.417 275.257 175.199 274.929 175.199 274.602C175.635 271.767 181.851 215.284 182.178 210.922C182.178 210.595 182.505 210.377 182.723 210.377C183.05 210.377 183.268 210.704 183.268 210.922C182.941 215.284 176.726 271.767 176.29 274.602C176.29 275.038 176.072 275.257 175.744 275.257Z" fill="#8593B6"/>
<path d="M220.673 290.522C220.564 290.522 220.564 290.522 220.455 290.522C219.038 289.977 212.931 287.905 205.189 285.288C189.487 280.054 168.115 272.748 163.972 270.676C163.754 270.567 163.645 270.24 163.754 269.913C163.863 269.695 164.19 269.586 164.517 269.695C168.552 271.767 190.796 279.291 205.517 284.307C213.258 286.924 219.474 288.995 220.891 289.541C221.218 289.65 221.328 289.977 221.218 290.304C221.109 290.413 220.891 290.522 220.673 290.522Z" fill="#8593B6"/>
<path d="M213.151 313.093C199.412 313.093 172.697 310.585 152.415 303.388C152.088 303.279 151.979 302.952 152.088 302.734C152.197 302.407 152.524 302.298 152.742 302.407C178.367 311.458 214.241 312.984 220.893 311.567C221.22 311.458 221.438 311.676 221.547 312.003C221.656 312.33 221.438 312.548 221.111 312.657C219.693 312.875 216.858 313.093 213.151 313.093Z" fill="#8593B6"/>
<path d="M55.4839 177.556C59.7365 181.372 65.1885 183.771 68.896 188.133C70.4225 189.877 71.731 191.622 73.0395 193.476C74.0209 194.784 76.7469 196.965 77.1831 198.601C77.4012 199.364 77.2921 198.382 77.1831 197.619V197.51C76.856 194.239 76.5288 190.859 76.4198 187.478C76.3108 184.098 76.5288 180.827 76.3108 177.447C75.9836 172.758 74.5661 168.178 70.7497 165.234C68.8959 163.816 66.497 162.944 64.7524 161.308C63.1168 159.782 63.771 158.037 64.7524 156.402C65.6247 154.766 66.7151 153.239 67.1513 151.495C67.5875 149.423 66.8242 147.242 65.7338 145.497C63.5529 141.79 58.537 137.537 53.8483 138.083C49.9228 138.519 49.4866 143.099 49.5956 146.261C49.5956 149.314 49.9228 152.367 50.0318 155.42C50.0318 158.582 49.4866 161.636 49.4866 164.798C49.0504 170.141 51.5584 174.175 55.4839 177.556Z" fill="#800080" fill-opacity="0.46"/>
<path d="M95.1734 226.407C96.3729 223.572 97.6814 220.955 99.426 218.338C101.716 214.739 104.333 211.359 105.859 207.325C107.386 203.29 107.168 198.928 107.386 194.676C107.495 191.514 108.476 188.46 108.149 185.298C108.04 183.772 107.168 181.373 105.205 181.591C103.679 181.809 102.806 183.663 102.152 184.862C101.171 186.934 100.407 189.224 99.6441 191.404C99.317 192.277 99.0989 193.149 98.6627 194.021C98.4446 194.458 97.7904 195.657 97.1362 195.548C96.0457 195.221 97.0271 190.75 97.2452 189.987C98.1175 185.952 99.317 182.245 99.5351 178.101C99.7531 172.104 99.317 164.907 93.4288 161.636C91.9022 160.764 89.9394 160.219 88.5219 161.527C87.1044 162.836 86.6682 165.017 86.4501 166.761C85.7959 172.322 87.1044 177.556 88.849 182.79C90.2666 187.152 92.0112 191.514 92.2293 196.202C92.3383 200.673 90.0485 204.598 88.9581 208.742C87.2134 215.394 87.5405 218.992 87.5405 221.173C87.5405 223.899 87.6496 226.516 87.8676 229.242C88.0857 231.75 88.3038 234.258 88.5219 236.657C88.6309 237.202 88.6309 237.638 88.74 238.183C87.7586 235.893 87.4315 233.276 86.6682 230.986C85.2507 226.843 83.615 222.917 82.3065 218.774C81.2161 215.394 80.1257 211.904 78.7082 208.633C77.2906 205.58 75.655 202.309 73.038 200.019C71.5115 198.601 69.5487 197.838 67.4769 197.838C66.1684 197.838 64.969 198.274 63.6605 198.601C62.1339 199.037 60.8254 198.819 59.626 197.838C55.3733 194.567 54.1739 188.788 51.0117 184.753C48.7218 181.7 43.1607 176.466 39.1262 179.846C36.9454 181.591 36.4002 185.08 36.5092 187.697C36.6182 190.968 38.0358 194.021 39.7804 196.748C41.6341 199.692 43.924 202.309 45.6687 205.253C46.65 206.997 46.7591 208.742 46.65 210.705C46.541 212.559 46.3229 214.412 46.9772 216.266C48.9399 221.718 54.9372 220.955 59.626 221.064C62.8972 221.173 66.3865 221.609 69.5487 222.699C73.1471 223.899 75.4369 226.298 76.7454 229.787C77.7268 232.404 78.163 235.239 79.9076 237.529C80.78 238.51 81.8704 239.274 83.0698 239.819C84.9235 240.582 90.4846 241.018 90.4846 240.473C90.5937 238.728 91.466 236.984 91.9022 235.348C92.8835 232.295 93.974 229.351 95.1734 226.407Z" fill="#800080" fill-opacity="0.46"/>
<path d="M121.018 225.426C120.582 222.264 120.582 218.884 119.164 215.939C119.055 215.721 118.728 215.721 118.619 215.83C117.529 216.376 117.529 218.12 117.42 219.211C117.311 220.955 117.42 222.7 117.202 224.445C116.874 227.498 116.111 230.66 115.021 233.495C113.821 236.766 111.531 238.62 108.26 239.601C106.188 240.256 104.117 240.801 102.372 242.218C100.845 243.418 99.755 245.163 98.8827 247.016C96.7019 251.923 95.6114 257.375 94.6301 262.718C93.9758 266.207 93.4306 269.806 92.5583 273.295C91.686 276.784 90.8136 280.274 90.2684 283.872C90.1594 284.09 90.0503 284.199 90.0503 284.417C89.8323 284.963 90.7046 285.29 90.9227 284.745C94.3029 279.511 98.4465 274.822 104.117 271.987C106.625 270.678 110.005 270.46 112.186 268.388C113.821 266.862 114.039 264.463 113.821 262.391C113.494 259.665 112.186 257.375 110.768 254.976C110.005 253.668 109.133 252.25 109.46 250.724C109.787 249.197 110.986 248.107 112.186 247.343C114.476 245.926 117.311 245.272 119.164 243.091C120.909 241.128 121.89 238.729 122.108 236.112C122.218 232.623 121.563 228.806 121.018 225.426Z" fill="#800080" fill-opacity="0.46"/>
<path d="M74.8923 243.416C71.9482 239.599 68.2408 236.219 64.2063 233.493C62.0255 232.076 56.9005 229.24 55.9192 233.493C55.2649 236.001 57.7729 238.4 59.2994 240.036C61.6983 242.325 64.5334 244.397 66.4961 247.123C63.9882 247.887 61.3712 248.105 59.1904 249.849C56.5734 251.921 55.483 255.847 57.9909 258.354C59.1904 259.554 60.935 260.317 62.4616 261.081C64.5334 262.062 66.4962 262.934 68.5679 263.807C73.0386 265.66 77.6184 267.623 81.4348 270.676C85.3603 273.838 88.9586 279.072 89.2858 284.197C89.2858 284.633 89.1767 284.197 89.3948 283.979C89.5039 284.088 90.0491 283.87 90.0491 283.543C89.94 276.019 88.6315 268.822 85.4693 261.844C82.7433 255.41 79.1449 248.977 74.8923 243.416Z" fill="#800080" fill-opacity="0.46"/>
<path d="M64.5271 172.975C66.1627 176.356 67.9074 179.736 69.7611 183.116C71.5057 186.278 73.2504 189.55 74.5589 192.93C76.1945 197.182 77.8301 201.326 79.5748 205.47C81.3194 209.831 82.9551 214.302 84.2636 218.773C86.7715 227.605 88.6252 236.655 89.4975 245.815C89.9337 250.504 90.1518 255.083 90.0427 259.772C89.9337 263.371 89.4975 267.078 89.1704 270.676C88.8433 274.493 88.5162 278.309 88.8433 282.017C89.0614 285.179 89.6066 288.995 92.1145 291.176C92.5507 291.612 93.314 291.067 92.9869 290.522C90.0427 284.525 90.2608 277.982 90.806 271.549C91.1332 267.95 91.5693 264.352 91.6784 260.754C91.7874 256.174 91.6784 251.594 91.2422 247.014C90.3699 238.073 88.6252 229.241 86.3353 220.517C85.1359 216.047 83.7184 211.685 81.9737 207.432C80.229 203.18 78.2663 198.927 76.6307 194.675C73.6866 186.824 69.1068 179.954 65.0723 172.648C64.8542 172.321 64.309 172.648 64.5271 172.975Z" fill="#43588E"/>
<path d="M89.7186 236.874C90.1548 231.204 90.7 225.752 92.6627 220.3C93.535 217.792 94.6254 215.284 95.4978 212.776C96.2611 210.705 97.2424 207.76 96.6972 205.58C96.5882 205.361 96.2611 205.361 96.152 205.58C95.8249 206.888 95.8249 208.306 95.6068 209.614C95.3887 210.923 94.9526 212.122 94.6254 213.322C93.7531 215.939 92.6627 218.446 91.6813 221.063C89.8276 226.079 88.8463 231.64 89.2824 236.983C89.2824 237.202 89.6095 237.202 89.7186 236.874Z" fill="#43588E"/>
<path d="M56.6785 204.162C58.9683 209.614 65.7289 209.941 70.6358 211.14C74.1251 212.013 76.7421 214.411 78.5958 217.465C80.6676 220.845 82.0851 224.77 83.1755 228.478H83.2846C81.867 221.935 79.9043 214.084 73.1437 211.031C67.6916 208.632 60.604 209.832 57.1146 203.944C57.1146 203.725 56.5694 203.835 56.6785 204.162Z" fill="#43588E"/>
<path d="M86.117 236.001C86.3351 236.328 86.6622 236.765 86.8803 237.092C86.9893 237.31 87.2074 237.419 87.3164 237.528C87.5345 237.637 87.7526 237.855 87.9707 237.855C88.0797 237.855 88.1888 237.746 88.0797 237.637C87.9707 237.419 87.7526 237.31 87.6436 237.201C87.5345 237.092 87.3164 236.874 87.2074 236.765C86.8803 236.437 86.5532 236.11 86.3351 235.783C86.117 235.892 86.008 236.001 86.117 236.001Z" fill="#43588E"/>
<path d="M71.9456 253.337C75.8711 256.5 79.4695 260.316 82.3045 264.46C83.7221 266.422 84.9215 268.494 86.121 270.675C87.3204 272.965 88.1928 275.473 89.1741 277.872C89.2832 278.09 89.6103 278.09 89.6103 277.872C89.0651 272.747 85.7939 268.385 83.1769 264.023C81.8684 261.843 80.1237 259.989 78.379 258.135C76.5253 256.172 74.5626 254.428 72.3818 252.901C72.0547 252.683 71.7275 253.119 71.9456 253.337Z" fill="#43588E"/>
<path d="M103.023 247.342C101.169 248.433 101.06 251.377 101.06 253.231C100.951 256.829 101.932 260.318 100.297 263.699C98.8793 266.861 96.5894 269.478 94.7357 272.313C92.9911 275.039 91.3555 278.528 91.3555 281.799C91.3555 282.017 91.6826 282.127 91.6826 281.908C92.3368 280.382 92.664 278.746 93.1001 277.22C93.6453 275.475 94.4086 273.839 95.39 272.313C97.1347 269.587 99.3155 267.188 100.733 264.244C102.26 261.191 102.042 258.137 101.932 254.866C101.823 252.794 101.605 249.305 103.35 247.779C103.677 247.56 103.35 247.124 103.023 247.342Z" fill="#43588E"/>
<path d="M90.4759 282.236C82.952 282.127 68.5586 282.018 68.5586 282.018L72.157 308.515C72.9202 314.512 78.0452 318.874 84.0425 318.874H90.2578H90.9121H97.1274C103.125 318.874 108.25 314.403 109.013 308.515L112.611 282.018C112.393 282.018 97.9997 282.127 90.4759 282.236Z" fill="white"/>
<path d="M455.87 233.602L412.689 319.09L286.965 319.962L325.784 232.402L455.87 233.602Z" fill="#F6F7FA"/>
<path d="M203.551 319.419V312.549H284.896L322.297 230.441H452.492L455.763 233.604H328.73L289.802 319.31C289.802 319.31 203.551 319.201 203.551 319.419Z" fill="#D9DEE8"/>
<path d="M390.56 280.709C389.143 284.962 381.401 288.233 373.332 288.015C365.263 287.797 359.811 284.199 361.228 279.946C362.646 275.693 370.388 272.422 378.457 272.64C386.635 272.858 391.978 276.457 390.56 280.709Z" fill="#D9DEE8"/>
<path d="M289.807 319.856C289.698 319.856 289.698 319.856 289.589 319.856C289.262 319.747 289.153 319.42 289.371 319.092L328.408 233.059H455.877C456.204 233.059 456.423 233.277 456.423 233.604C456.423 233.931 456.204 234.149 455.877 234.149H329.062L290.244 319.529C290.135 319.747 290.026 319.856 289.807 319.856Z" fill="white"/>
<path d="M197.882 325.852H48.2773V359H197.882V325.852Z" fill="#596B9B"/>
<path d="M466.122 325.852H197.008V359H466.122V325.852Z" fill="#7A89AF"/>
<path d="M197.882 325.852H197.01H48.2773V331.958H197.01H197.882H466.124V325.852H197.882Z" fill="#BDC4D7"/>
<path d="M204.422 319.31H41.0781V327.379H204.422V319.31Z" fill="#6F7FA9"/>
<path d="M472.665 319.31H203.551V327.379H472.665V319.31Z" fill="#9CA6C3"/>
<path d="M160.156 145.388H107.38C104.109 145.388 101.492 142.771 101.492 139.5V113.112C101.492 109.841 104.109 107.224 107.38 107.224H160.156C163.428 107.224 166.045 109.841 166.045 113.112V139.5C166.045 142.662 163.428 145.388 160.156 145.388Z" fill="white"/>
<path d="M181.092 126.196L161.246 117.909V134.592L181.092 126.196Z" fill="white"/>
<path d="M121.227 129.794C123.215 129.794 124.826 128.183 124.826 126.196C124.826 124.209 123.215 122.598 121.227 122.598C119.24 122.598 117.629 124.209 117.629 126.196C117.629 128.183 119.24 129.794 121.227 129.794Z" fill="#800080"/>
<path d="M133.766 129.794C135.754 129.794 137.365 128.183 137.365 126.196C137.365 124.209 135.754 122.598 133.766 122.598C131.779 122.598 130.168 124.209 130.168 126.196C130.168 128.183 131.779 129.794 133.766 129.794Z" fill="#800080"/>
<path d="M146.192 129.794C148.179 129.794 149.79 128.183 149.79 126.196C149.79 124.209 148.179 122.598 146.192 122.598C144.205 122.598 142.594 124.209 142.594 126.196C142.594 128.183 144.205 129.794 146.192 129.794Z" fill="#800080"/>
<path d="M428.939 26.0967H307.031C299.18 26.0967 292.855 32.4211 292.855 40.272V98.0639C292.855 105.915 299.18 112.239 307.031 112.239H317.935C318.262 117.473 317.499 125.324 313.137 135.247C327.203 128.705 335.382 119 339.525 112.239H428.939C436.79 112.239 443.114 105.915 443.114 98.0639V40.272C443.114 32.4211 436.79 26.0967 428.939 26.0967Z" fill="#800080"/>
<path d="M376.923 53.5741H316.514C314.878 53.5741 313.461 52.2656 313.461 50.5209C313.461 48.8853 314.769 47.4678 316.514 47.4678H376.923C378.559 47.4678 379.976 48.7763 379.976 50.5209C379.976 52.2656 378.559 53.5741 376.923 53.5741Z" fill="white"/>
<path d="M420.321 71.1312H315.315C314.333 71.1312 313.461 70.2589 313.461 69.2775C313.461 68.2962 314.333 67.4238 315.315 67.4238H420.321C421.303 67.4238 422.175 68.2962 422.175 69.2775C422.175 70.3679 421.303 71.1312 420.321 71.1312Z" fill="#D2E6FF"/>
<path d="M420.321 81.3802H315.315C314.333 81.3802 313.461 80.5079 313.461 79.5265C313.461 78.5452 314.333 77.6729 315.315 77.6729H420.321C421.303 77.6729 422.175 78.5452 422.175 79.5265C422.175 80.5079 421.303 81.3802 420.321 81.3802Z" fill="#D2E6FF"/>
<path d="M397.423 92.2845H315.315C314.333 92.2845 313.461 91.4122 313.461 90.4308C313.461 89.4495 314.333 88.5771 315.315 88.5771H397.423C398.404 88.5771 399.276 89.4495 399.276 90.4308C399.276 91.4122 398.404 92.2845 397.423 92.2845Z" fill="#D2E6FF"/>
<path d="M419.453 53.5741H390.557C388.921 53.5741 387.504 52.2656 387.504 50.5209C387.504 48.8853 388.812 47.4678 390.557 47.4678H419.453C421.089 47.4678 422.506 48.7763 422.506 50.5209C422.506 52.2656 421.089 53.5741 419.453 53.5741Z" fill="white"/>
<path d="M346.721 186.606H314.009C312.809 186.606 311.828 185.625 311.828 184.426V162.072C311.828 160.873 312.809 159.891 314.009 159.891H346.721C347.921 159.891 348.902 160.873 348.902 162.072V184.426C348.902 185.625 347.921 186.606 346.721 186.606Z" fill="white"/>
<path d="M330.579 177.229C330.361 177.229 330.251 177.12 330.033 177.011L312.26 162.29C311.933 161.963 311.824 161.527 312.151 161.091C312.478 160.764 312.914 160.655 313.35 160.982L330.688 175.266L347.589 160.655C347.916 160.327 348.461 160.436 348.789 160.764C349.116 161.091 349.007 161.636 348.679 161.963L331.342 177.12C331.015 177.12 330.797 177.229 330.579 177.229Z" fill="#800080"/>
<path d="M312.806 185.953C312.588 185.953 312.37 185.844 312.261 185.735C311.934 185.408 311.934 184.862 312.261 184.535L324.692 171.45C325.019 171.123 325.564 171.123 325.891 171.45C326.218 171.778 326.218 172.323 325.891 172.65L313.46 185.735C313.242 185.953 313.024 185.953 312.806 185.953Z" fill="#800080"/>
<path d="M348.03 185.516C347.812 185.516 347.594 185.407 347.485 185.298L335.054 172.868C334.727 172.541 334.727 171.995 335.054 171.668C335.381 171.341 335.926 171.341 336.253 171.668L348.684 184.099C349.011 184.426 349.011 184.971 348.684 185.298C348.357 185.407 348.248 185.516 348.03 185.516Z" fill="#800080"/>
<path d="M350.65 169.924C356.672 169.924 361.554 165.043 361.554 159.02C361.554 152.998 356.672 148.116 350.65 148.116C344.628 148.116 339.746 152.998 339.746 159.02C339.746 165.043 344.628 169.924 350.65 169.924Z" fill="#800080"/>
<path d="M347.601 158.323L347.577 158.047C347.881 158.183 348.145 158.359 348.369 158.575C348.593 158.791 348.765 159.027 348.885 159.283C349.005 159.539 349.065 159.803 349.065 160.075C349.065 160.531 348.937 160.951 348.681 161.335C348.433 161.711 348.097 162.015 347.673 162.247C347.249 162.471 346.777 162.583 346.257 162.583C345.737 162.583 345.265 162.471 344.841 162.247C344.417 162.015 344.077 161.711 343.821 161.335C343.573 160.951 343.449 160.531 343.449 160.075C343.449 159.707 343.525 159.391 343.677 159.127C343.837 158.855 344.033 158.627 344.265 158.443C344.505 158.259 344.741 158.107 344.973 157.987L344.877 158.323C344.677 158.243 344.481 158.131 344.289 157.987C344.105 157.835 343.953 157.643 343.833 157.411C343.713 157.179 343.653 156.907 343.653 156.595C343.653 156.147 343.769 155.743 344.001 155.383C344.233 155.015 344.545 154.723 344.937 154.507C345.337 154.291 345.777 154.183 346.257 154.183C346.745 154.183 347.181 154.291 347.565 154.507C347.957 154.723 348.269 155.015 348.501 155.383C348.733 155.743 348.849 156.147 348.849 156.595C348.849 156.939 348.781 157.227 348.645 157.459C348.509 157.691 348.345 157.875 348.153 158.011C347.961 158.147 347.777 158.251 347.601 158.323ZM345.093 156.619C345.093 156.835 345.141 157.027 345.237 157.195C345.341 157.363 345.481 157.499 345.657 157.603C345.833 157.699 346.033 157.747 346.257 157.747C346.481 157.747 346.677 157.699 346.845 157.603C347.021 157.499 347.157 157.363 347.253 157.195C347.357 157.027 347.409 156.835 347.409 156.619C347.409 156.299 347.297 156.035 347.073 155.827C346.857 155.611 346.585 155.503 346.257 155.503C345.921 155.503 345.641 155.611 345.417 155.827C345.201 156.035 345.093 156.299 345.093 156.619ZM346.257 161.263C346.641 161.263 346.965 161.147 347.229 160.915C347.493 160.675 347.625 160.387 347.625 160.051C347.625 159.819 347.565 159.611 347.445 159.427C347.325 159.243 347.161 159.099 346.953 158.995C346.745 158.883 346.513 158.827 346.257 158.827C346.001 158.827 345.769 158.883 345.561 158.995C345.353 159.099 345.189 159.243 345.069 159.427C344.949 159.611 344.889 159.819 344.889 160.051C344.889 160.387 345.021 160.675 345.285 160.915C345.549 161.147 345.873 161.263 346.257 161.263ZM352.435 162.703C352.139 162.703 351.823 162.659 351.487 162.571C351.151 162.475 350.875 162.339 350.659 162.163C350.555 162.075 350.471 161.963 350.407 161.827C350.351 161.683 350.323 161.547 350.323 161.419C350.323 161.283 350.379 161.155 350.491 161.035C350.611 160.915 350.779 160.855 350.995 160.855C351.139 160.855 351.319 160.931 351.535 161.083C351.663 161.163 351.803 161.235 351.955 161.299C352.107 161.363 352.263 161.395 352.423 161.395C352.807 161.395 353.139 161.327 353.419 161.191C353.699 161.047 353.915 160.851 354.067 160.603C354.219 160.355 354.295 160.063 354.295 159.727C354.295 159.423 354.223 159.163 354.079 158.947C353.943 158.731 353.759 158.563 353.527 158.443C353.303 158.323 353.059 158.263 352.795 158.263C352.547 158.263 352.331 158.303 352.147 158.383C351.963 158.463 351.795 158.547 351.643 158.635C351.491 158.715 351.339 158.755 351.187 158.755C350.923 158.755 350.727 158.699 350.599 158.587C350.471 158.467 350.391 158.327 350.359 158.167C350.327 158.007 350.319 157.863 350.335 157.735L350.707 154.819C350.739 154.651 350.819 154.515 350.947 154.411C351.083 154.299 351.243 154.243 351.427 154.243H354.895C355.087 154.243 355.247 154.307 355.375 154.435C355.503 154.563 355.567 154.723 355.567 154.915C355.567 155.099 355.503 155.255 355.375 155.383C355.247 155.503 355.087 155.563 354.895 155.563H351.799L351.931 155.455L351.607 157.891L351.451 157.435C351.499 157.355 351.603 157.279 351.763 157.207C351.923 157.135 352.107 157.075 352.315 157.027C352.523 156.971 352.727 156.943 352.927 156.943C353.463 156.943 353.943 157.067 354.367 157.315C354.791 157.555 355.123 157.887 355.363 158.311C355.611 158.727 355.735 159.199 355.735 159.727C355.735 160.327 355.599 160.851 355.327 161.299C355.055 161.747 354.671 162.095 354.175 162.343C353.687 162.583 353.107 162.703 352.435 162.703Z" fill="white"/>
<path d="M460.568 154.983H396.67C394.271 154.983 392.309 153.02 392.309 150.621V140.589C392.309 138.19 394.271 136.228 396.67 136.228H460.568C462.967 136.228 464.93 138.19 464.93 140.589V150.621C464.93 153.02 462.967 154.983 460.568 154.983Z" fill="#800080"/>
<path d="M401.246 150.621C400.919 150.621 400.701 150.512 400.592 150.294C400.374 150.076 400.374 149.858 400.374 149.531L400.701 147.132C400.701 147.023 400.701 147.023 400.701 147.023H400.592L398.629 148.44C398.411 148.658 398.084 148.658 397.866 148.658C397.648 148.658 397.43 148.44 397.212 148.222C396.994 147.895 396.994 147.568 397.103 147.35C397.212 147.132 397.43 146.914 397.648 146.805L399.938 145.823C400.047 145.823 400.047 145.823 400.047 145.714C400.047 145.714 400.047 145.605 399.938 145.605L397.648 144.624C397.321 144.515 397.212 144.297 397.103 144.079C396.994 143.86 397.103 143.533 397.212 143.315C397.321 143.097 397.539 142.879 397.866 142.879C398.084 142.879 398.411 142.879 398.629 143.097L400.592 144.624C400.701 144.624 400.701 144.624 400.701 144.624V144.515L400.374 142.116C400.374 141.789 400.483 141.571 400.592 141.353C400.81 141.134 401.028 141.025 401.356 141.025C401.683 141.025 401.901 141.134 402.01 141.353C402.228 141.571 402.228 141.789 402.228 142.116L401.901 144.515C401.901 144.624 401.901 144.624 401.901 144.624H402.01L403.972 143.206C404.191 142.988 404.518 142.988 404.736 142.988C405.063 142.988 405.172 143.206 405.39 143.424C405.608 143.751 405.608 144.079 405.499 144.297C405.39 144.515 405.172 144.733 404.954 144.842L402.664 145.823C402.555 145.823 402.555 145.823 402.555 145.932C402.555 145.932 402.555 146.041 402.664 146.041L404.954 147.023C405.281 147.132 405.39 147.35 405.499 147.568C405.608 147.786 405.608 148.113 405.39 148.331C405.281 148.549 405.063 148.767 404.736 148.767C404.409 148.767 404.191 148.767 403.972 148.549L402.01 147.023C401.901 147.023 401.901 147.023 401.901 147.023V147.132L402.228 149.531C402.228 149.858 402.228 150.076 402.01 150.294C401.792 150.512 401.574 150.621 401.246 150.621Z" fill="white"/>
<path d="M414.442 150.621C414.115 150.621 413.897 150.512 413.788 150.294C413.569 150.076 413.569 149.858 413.569 149.531L413.897 147.132C413.897 147.023 413.897 147.023 413.897 147.023H413.788L411.825 148.44C411.607 148.658 411.28 148.658 411.061 148.658C410.843 148.658 410.625 148.44 410.407 148.222C410.189 147.895 410.189 147.568 410.298 147.35C410.407 147.132 410.625 146.914 410.843 146.805L413.133 145.823C413.242 145.823 413.242 145.823 413.242 145.714C413.242 145.714 413.242 145.605 413.133 145.605L410.843 144.624C410.516 144.515 410.407 144.297 410.298 144.079C410.189 143.86 410.298 143.533 410.407 143.315C410.625 143.097 410.734 142.879 411.061 142.879C411.28 142.879 411.607 142.879 411.825 143.097L413.788 144.624C413.897 144.624 413.897 144.624 413.897 144.624V144.515L413.569 142.116C413.569 141.789 413.678 141.571 413.788 141.353C414.006 141.134 414.224 141.025 414.551 141.025C414.878 141.025 415.096 141.134 415.205 141.353C415.423 141.571 415.423 141.789 415.423 142.116L415.096 144.515C415.096 144.624 415.096 144.624 415.096 144.624H415.205L417.168 143.206C417.386 142.988 417.713 142.988 417.931 142.988C418.258 142.988 418.367 143.206 418.585 143.424C418.803 143.751 418.803 144.079 418.694 144.297C418.585 144.515 418.367 144.733 418.149 144.842L415.859 145.823C415.75 145.823 415.75 145.823 415.75 145.932C415.75 145.932 415.75 146.041 415.859 146.041L418.149 147.023C418.476 147.132 418.585 147.35 418.694 147.568C418.803 147.786 418.803 148.113 418.585 148.331C418.476 148.549 418.258 148.767 417.931 148.767C417.604 148.767 417.386 148.767 417.168 148.549L415.205 147.023C415.096 147.023 415.096 147.023 415.096 147.023V147.132L415.423 149.531C415.423 149.858 415.423 150.076 415.205 150.294C414.987 150.512 414.769 150.621 414.442 150.621Z" fill="white"/>
<path d="M427.629 150.621C427.302 150.621 427.084 150.512 426.975 150.294C426.757 150.076 426.757 149.858 426.757 149.531L427.084 147.132C427.084 147.023 427.084 147.023 427.084 147.023H426.975L425.012 148.44C424.794 148.658 424.467 148.658 424.249 148.658C424.031 148.658 423.813 148.44 423.595 148.222C423.377 147.895 423.377 147.568 423.486 147.35C423.595 147.132 423.813 146.914 424.031 146.805L426.321 145.823C426.43 145.823 426.43 145.823 426.43 145.714C426.43 145.714 426.43 145.605 426.321 145.605L424.031 144.624C423.704 144.515 423.595 144.297 423.486 144.079C423.377 143.86 423.486 143.533 423.595 143.315C423.704 143.097 423.922 142.879 424.249 142.879C424.467 142.879 424.794 142.879 425.012 143.097L426.975 144.624C427.084 144.624 427.084 144.624 427.084 144.624V144.515L426.757 142.116C426.757 141.789 426.866 141.571 426.975 141.353C427.193 141.134 427.411 141.025 427.738 141.025C428.065 141.025 428.284 141.134 428.393 141.353C428.611 141.571 428.611 141.789 428.611 142.116L428.283 144.515C428.283 144.624 428.283 144.624 428.283 144.624H428.393L430.355 143.206C430.573 142.988 430.9 142.988 431.119 142.988C431.446 142.988 431.555 143.206 431.773 143.424C431.991 143.751 431.991 144.079 431.882 144.297C431.773 144.515 431.555 144.733 431.337 144.842L429.047 145.823C428.938 145.823 428.938 145.823 428.938 145.932C428.938 145.932 428.938 146.041 429.047 146.041L431.337 147.023C431.664 147.132 431.773 147.35 431.882 147.568C431.991 147.786 431.991 148.113 431.773 148.331C431.664 148.549 431.446 148.767 431.119 148.767C430.791 148.767 430.573 148.767 430.355 148.549L428.393 147.023C428.284 147.023 428.283 147.023 428.283 147.023V147.132L428.611 149.531C428.611 149.858 428.611 150.076 428.393 150.294C428.284 150.512 427.956 150.621 427.629 150.621Z" fill="white"/>
<path d="M440.942 150.621C440.615 150.621 440.397 150.512 440.287 150.294C440.069 150.076 440.069 149.858 440.069 149.531L440.397 147.132C440.397 147.023 440.397 147.023 440.397 147.023H440.287L438.325 148.44C438.107 148.658 437.78 148.658 437.561 148.658C437.343 148.658 437.125 148.44 436.907 148.222C436.689 147.895 436.689 147.568 436.798 147.35C436.907 147.132 437.125 146.914 437.343 146.805L439.633 145.823C439.742 145.823 439.742 145.823 439.742 145.714C439.742 145.714 439.742 145.605 439.633 145.605L437.343 144.624C437.016 144.515 436.907 144.297 436.798 144.079C436.689 143.86 436.798 143.533 436.907 143.315C437.125 143.097 437.234 142.879 437.561 142.879C437.78 142.879 438.107 142.879 438.325 143.097L440.287 144.624C440.397 144.624 440.397 144.624 440.397 144.624V144.515L440.069 142.116C440.069 141.789 440.178 141.571 440.287 141.353C440.506 141.134 440.724 141.025 441.051 141.025C441.378 141.025 441.596 141.134 441.705 141.353C441.923 141.571 441.923 141.789 441.923 142.116L441.596 144.515C441.596 144.624 441.596 144.624 441.596 144.624H441.705L443.668 143.206C443.886 142.988 444.213 142.988 444.431 142.988C444.758 142.988 444.867 143.206 445.085 143.424C445.303 143.751 445.303 144.079 445.194 144.297C445.085 144.515 444.867 144.733 444.649 144.842L442.359 145.823C442.25 145.823 442.25 145.823 442.25 145.932C442.25 145.932 442.25 146.041 442.359 146.041L444.649 147.023C444.976 147.132 445.085 147.35 445.194 147.568C445.303 147.786 445.303 148.113 445.085 148.331C444.976 148.549 444.758 148.767 444.431 148.767C444.104 148.767 443.886 148.767 443.668 148.549L441.705 147.023C441.596 147.023 441.596 147.023 441.596 147.023V147.132L441.923 149.531C441.923 149.858 441.923 150.076 441.705 150.294C441.487 150.512 441.269 150.621 440.942 150.621Z" fill="white"/>
<path d="M454.137 150.621C453.81 150.621 453.592 150.512 453.483 150.294C453.265 150.076 453.265 149.858 453.265 149.531L453.592 147.132C453.592 147.023 453.592 147.023 453.592 147.023H453.483L451.52 148.44C451.302 148.658 450.975 148.658 450.757 148.658C450.539 148.658 450.321 148.44 450.103 148.222C449.884 147.895 449.884 147.568 449.993 147.35C450.103 147.132 450.321 146.914 450.539 146.805L452.829 145.823C452.938 145.823 452.938 145.823 452.938 145.714C452.938 145.714 452.938 145.605 452.829 145.605L450.539 144.624C450.212 144.515 450.103 144.297 449.993 144.079C449.884 143.86 449.994 143.533 450.103 143.315C450.212 143.097 450.43 142.879 450.757 142.879C450.975 142.879 451.302 142.879 451.52 143.097L453.483 144.624C453.592 144.624 453.592 144.624 453.592 144.624V144.515L453.265 142.116C453.265 141.789 453.374 141.571 453.483 141.353C453.701 141.134 453.919 141.025 454.246 141.025C454.573 141.025 454.791 141.134 454.9 141.353C455.118 141.571 455.118 141.789 455.118 142.116L454.791 144.515C454.791 144.624 454.791 144.624 454.791 144.624H454.9L456.863 143.206C457.081 142.988 457.408 142.988 457.626 142.988C457.954 142.988 458.063 143.206 458.281 143.424C458.499 143.751 458.499 144.079 458.39 144.297C458.281 144.515 458.063 144.733 457.844 144.842L455.555 145.823C455.446 145.823 455.446 145.823 455.446 145.932C455.446 145.932 455.446 146.041 455.555 146.041L457.844 147.023C458.172 147.132 458.281 147.35 458.39 147.568C458.499 147.786 458.499 148.113 458.281 148.331C458.172 148.549 457.954 148.767 457.626 148.767C457.299 148.767 457.081 148.767 456.863 148.549L454.9 147.023C454.791 147.023 454.791 147.023 454.791 147.023V147.132L455.118 149.531C455.118 149.858 455.118 150.076 454.9 150.294C454.682 150.512 454.464 150.621 454.137 150.621Z" fill="white"/>
</svg>
