<svg width="1536" height="690" viewBox="0 0 1536 690" fill="none" xmlns="http://www.w3.org/2000/svg">
<path d="M0 0H1536V690H0V0Z" fill="#FFE0FF"/>
<mask id="mask0_156_11685" style="mask-type:alpha" maskUnits="userSpaceOnUse" x="0" y="0" width="1536" height="690">
<path d="M0 0.300293H1535.2V690H0V0.300293Z" fill="#FFE0FF"/>
</mask>
<g mask="url(#mask0_156_11685)">
<ellipse cx="1498.4" cy="796.707" rx="136.8" ry="161.663" fill="#800080"/>
<path d="M254.366 -836.865C254.366 -836.865 409.31 -474.261 186.171 -18.8217C-36.9691 436.617 280.942 773.529 708 776.098" stroke="#800080" stroke-width="1.377" stroke-miterlimit="10"/>
<path d="M436.015 -745.271C436.015 -745.271 685.412 -483.172 463.872 -177.328C242.332 128.516 -86.9561 468.946 817.6 776.099" stroke="#800080" stroke-width="1.377" stroke-miterlimit="10"/>
<path d="M436 768.771C430.138 763.78 -157.046 597.241 6.58202 243.63C170.21 -109.98 45.4373 -269.39 -305.6 -463.163" stroke="#800080" stroke-width="1.377" stroke-miterlimit="10"/>
<ellipse cx="421.656" cy="416.5" rx="59.9625" ry="60.2067" fill="#D2E6FF" fill-opacity="0.08"/>
<g opacity="0.59">
<path d="M1400.05 182.333L1347 118.816H1400.05V182.333Z" fill="#800080"/>
<path d="M1400.05 245.85L1347 182.333H1400.05V245.85Z" fill="#800080"/>
<path d="M1453.1 182.332L1400.05 118.815H1453.1V182.332Z" fill="#800080"/>
<path d="M1453.1 245.85L1400.05 182.333H1453.1V245.85Z" fill="#800080"/>
<path d="M1506.15 182.332L1453.1 118.815H1506.15V182.332Z" fill="#800080"/>
<path d="M1559.2 245.85L1506.15 182.333H1559.2V245.85Z" fill="#800080"/>
<path d="M1559.2 182.332L1506.15 118.815H1559.2V182.332Z" fill="#800080"/>
<path d="M1506.15 245.85L1453.1 182.333H1506.15V245.85Z" fill="#800080"/>
</g>
</g>
</svg>
