<svg width="72" height="72" viewBox="0 0 72 72" fill="none" xmlns="http://www.w3.org/2000/svg">
<g clip-path="url(#clip0_1_5841)">
<path d="M20.3967 32.4006H11.9979C11.3353 32.4006 10.7981 32.9378 10.7981 33.6004V45.5987C10.7981 46.2613 11.3353 46.7985 11.9979 46.7985H20.3967C21.0594 46.7985 21.5965 46.2613 21.5965 45.5987V33.6004C21.5965 32.9378 21.0594 32.4006 20.3967 32.4006ZM19.1969 44.3989H13.1977V34.8003H19.1969V44.3989Z" fill="#7E007E"/>
<path d="M40.7952 32.4006H32.3963C31.7337 32.4006 31.1965 32.9378 31.1965 33.6004V45.5987C31.1965 46.2613 31.7337 46.7985 32.3963 46.7985H40.7952C41.4578 46.7985 41.995 46.2613 41.995 45.5987V33.6004C41.995 32.9378 41.4578 32.4006 40.7952 32.4006ZM39.5954 44.3989H33.5963V34.8003H39.5954V44.3989Z" fill="#7E007E"/>
<path d="M40.7952 51.5983H32.3963C31.7337 51.5983 31.1965 52.1355 31.1965 52.7981V64.7963C31.1965 65.459 31.7337 65.9962 32.3963 65.9962H40.7952C41.4578 65.9962 41.995 65.459 41.995 64.7963V52.7981C41.995 52.1356 41.4578 51.5983 40.7952 51.5983ZM39.5954 63.5965H33.5963V53.9979H39.5954V63.5965Z" fill="#7E007E"/>
<path d="M59.9929 32.4006H51.5941C50.9315 32.4006 50.3943 32.9378 50.3943 33.6004V45.5987C50.3943 46.2613 50.9315 46.7985 51.5941 46.7985H59.9929C60.6556 46.7985 61.1927 46.2613 61.1927 45.5987V33.6004C61.1927 32.9378 60.6556 32.4006 59.9929 32.4006ZM58.7931 44.3989H52.7941V34.8003H58.7931V44.3989Z" fill="#7E007E"/>
<path d="M20.3967 51.5983H11.9979C11.3353 51.5983 10.7981 52.1355 10.7981 52.7981V64.7963C10.7981 65.459 11.3353 65.9962 11.9979 65.9962H20.3967C21.0594 65.9962 21.5965 65.459 21.5965 64.7963V52.7981C21.5965 52.1356 21.0594 51.5983 20.3967 51.5983ZM19.1969 63.5965H13.1977V53.9979H19.1969V63.5965Z" fill="#7E007E"/>
<path d="M59.9929 51.5983H51.5941C50.9315 51.5983 50.3943 52.1355 50.3943 52.7981V64.7963C50.3943 65.459 50.9315 65.9962 51.5941 65.9962H59.9929C60.6556 65.9962 61.1927 65.459 61.1927 64.7963V52.7981C61.1927 52.1356 60.6556 51.5983 59.9929 51.5983ZM58.7931 63.5965H52.7941V53.9979H58.7931V63.5965Z" fill="#7E007E"/>
<path d="M67.1903 69.5947V28.8005H68.3902C69.0528 28.8005 69.59 28.2634 69.59 27.6007V21.6017C69.59 20.939 69.0528 20.4019 68.3902 20.4019H67.1903V15.6026C67.1903 14.94 66.6532 14.4028 65.9905 14.4028H63.5909V1.20457C63.5909 0.541948 63.0537 0.00476074 62.3911 0.00476074H9.59864C8.93602 0.00476074 8.39883 0.541948 8.39883 1.20457V14.4027H5.9992C5.33658 14.4027 4.79939 14.9398 4.79939 15.6025V20.4017H3.59958C2.93695 20.4017 2.39977 20.9389 2.39977 21.6015V27.6006C2.39977 28.2632 2.93695 28.8004 3.59958 28.8004H4.79939V69.5945H0V71.9941H5.9992H65.9905H72V69.5945H67.1903V69.5947ZM10.7985 2.40439H61.1911V14.4027H10.7985V2.40439ZM7.19902 16.8023H9.59864H62.391H64.7906V20.4017H7.19902V16.8023ZM64.7906 69.5947H7.19902V28.8005H64.7907V69.5947H64.7906ZM5.9992 26.4009H4.79939V22.8015H5.9992H65.9905H67.1903V26.4009H65.9905H5.9992Z" fill="#7E007E"/>
<path d="M34.1518 6.50965C33.9609 6.02196 33.6929 5.60079 33.3472 5.24627C33.0017 4.89176 32.5859 4.6136 32.1 4.41208C31.614 4.21057 31.076 4.10974 30.4857 4.10974C29.8953 4.10974 29.3563 4.20959 28.8686 4.40941C28.3809 4.60924 27.9634 4.88726 27.6161 5.2436C27.2687 5.59994 26.9997 6.02196 26.8089 6.50979C26.618 6.99748 26.5227 7.52749 26.5227 8.09983C26.5227 8.67218 26.618 9.20219 26.8089 9.68988C26.9997 10.1776 27.2687 10.5996 27.6161 10.9561C27.9634 11.3124 28.3809 11.5904 28.8686 11.7903C29.3563 11.9901 29.8953 12.0899 30.4857 12.0899C31.076 12.0899 31.614 11.9901 32.1 11.7903C32.586 11.5906 33.0017 11.3124 33.3472 10.9561C33.6928 10.5997 33.9609 10.1777 34.1518 9.68988C34.3426 9.20219 34.4379 8.67218 34.4379 8.09983C34.4379 7.52735 34.3424 6.99733 34.1518 6.50965ZM32.7776 9.2524C32.6642 9.59257 32.5012 9.88057 32.2889 10.1163C32.0765 10.3521 31.8182 10.5329 31.514 10.6589C31.2099 10.7849 30.867 10.8479 30.4855 10.8479C30.104 10.8479 29.7602 10.7849 29.4543 10.6589C29.1483 10.5329 28.8883 10.3521 28.6741 10.1163C28.46 9.88043 28.2953 9.59257 28.1801 9.2524C28.0649 8.91223 28.0073 8.52804 28.0073 8.09969C28.0073 7.67135 28.0649 7.28716 28.1801 6.94699C28.2953 6.60682 28.46 6.31798 28.6741 6.08046C28.8883 5.84294 29.1483 5.66112 29.4543 5.53512C29.7603 5.40912 30.104 5.34612 30.4855 5.34612C30.867 5.34612 31.2099 5.40912 31.514 5.53512C31.8182 5.66112 32.0764 5.84294 32.2889 6.08046C32.5012 6.31798 32.6641 6.60682 32.7776 6.94699C32.8909 7.28716 32.9476 7.67135 32.9476 8.09969C32.9476 8.52804 32.891 8.91223 32.7776 9.2524Z" fill="#7E007E"/>
<path d="M23.9075 4.19666V7.55492H20.2469V4.19666H18.7837V12.0039H20.2469V8.59161H23.9075V12.0039H25.3707V4.19666H23.9075Z" fill="#7E007E"/>
<path d="M49.2206 10.8051V4.19653H47.7681V12.0038H52.3467V10.8051H49.2206Z" fill="#7E007E"/>
<path d="M34.502 4.19653V5.38974H36.8615V12.0038H38.3139V5.38974H40.6625V4.19653H34.502Z" fill="#7E007E"/>
<path d="M46.5113 5.35203V4.19666H41.5872V12.0039H46.5113V10.843H43.0504V8.63478H45.7769V7.51709H43.0504V5.35203H46.5113Z" fill="#7E007E"/>
</g>
<defs>
<clipPath id="clip0_1_5841">
<rect width="72" height="72" fill="white"/>
</clipPath>
</defs>
</svg>
