<svg width="72" height="72" viewBox="0 0 72 72" fill="none" xmlns="http://www.w3.org/2000/svg">
<g clip-path="url(#clip0_1_5802)">
<path d="M64.1737 47.025C64.1041 46.9085 64.0308 46.797 63.9577 46.6986C63.2305 45.6822 62.1493 45.0102 60.9157 44.8073C59.6881 44.6045 58.4437 44.8937 57.4309 45.621L44.0148 55.2006H29.9989C29.3377 55.2006 28.7989 54.663 28.7989 54.0007C28.7989 53.3383 29.3377 52.8007 29.9989 52.8007H37.7989C40.1149 52.8007 41.999 50.9168 41.999 48.6007C41.999 48.5875 41.9977 48.4771 41.9966 48.4651C41.9222 46.1503 39.9698 44.3455 37.703 44.4008H22.0922C20.7086 44.4127 19.361 44.9084 18.299 45.7939L12.431 50.678C12.1574 50.9072 11.999 51.2444 11.999 51.6008V66.0008C11.999 66.6644 12.5366 67.2007 13.199 67.2007H42.9722C44.921 67.1983 46.8195 66.5119 48.3195 65.2699L62.8672 53.2496C64.8434 51.8417 65.417 49.1082 64.1737 47.025ZM61.4078 51.3474L46.7905 63.4206C45.7177 64.3086 44.3605 64.7981 42.9708 64.8005H14.3989V52.1633L19.8361 47.6368C20.4745 47.1053 21.2821 46.8076 22.1029 46.8004L37.7413 46.7993C38.7361 46.798 39.5664 47.5505 39.5989 48.6005C39.5989 49.5929 38.7913 50.4005 37.7989 50.4005H29.9989C28.0141 50.4005 26.3989 52.0158 26.3989 54.0005C26.3989 55.9853 28.0141 57.6005 29.9989 57.6005H44.3989C44.6485 57.6005 44.8921 57.5225 45.0985 57.3774L58.8288 47.5721C59.3233 47.2169 59.9244 47.079 60.5269 47.1749C61.1281 47.2744 61.6537 47.6008 62.0148 48.1048C62.0508 48.1541 62.0832 48.2044 62.1144 48.256C62.7218 49.2726 62.4397 50.6081 61.4078 51.3474Z" fill="white"/>
<path d="M13.164 49.1998H0V51.5999H11.964V69.5999H0V71.9998H13.164C13.8264 71.9998 14.364 71.4634 14.364 70.7998V50.3998C14.364 49.7362 13.8264 49.1998 13.164 49.1998Z" fill="white"/>
<path d="M5.99844 59.9995C4.01366 59.9995 2.39844 61.6147 2.39844 63.5995C2.39844 65.5843 4.01366 67.1995 5.99844 67.1995C7.98322 67.1995 9.59844 65.5843 9.59844 63.5995C9.59844 61.6147 7.98322 59.9995 5.99844 59.9995ZM5.99844 64.7995C5.33722 64.7995 4.79848 64.2619 4.79848 63.5995C4.79848 62.9372 5.33722 62.3996 5.99844 62.3996C6.65966 62.3996 7.19839 62.9372 7.19839 63.5995C7.19839 64.2619 6.65966 64.7995 5.99844 64.7995Z" fill="white"/>
<path d="M70.8 37.1992H1.19995C0.537609 37.1992 0 37.7356 0 38.3992C0 43.03 3.76805 46.7991 8.39995 46.7991H63.5999C68.2307 46.7991 71.9999 43.03 71.9999 38.3992C72 37.7357 71.4637 37.1992 70.8 37.1992ZM63.6 44.3992H8.39995C5.50195 44.3992 3.078 42.334 2.52112 39.5993H69.4787C68.922 42.334 66.498 44.3992 63.6 44.3992Z" fill="white"/>
<path d="M36.0003 5.99951C18.7971 5.99951 4.80029 19.9963 4.80029 37.1996V38.3995C4.80029 39.0631 5.3379 39.5995 6.00025 39.5995H66.0003C66.6639 39.5995 67.2002 39.0631 67.2002 38.3995V37.1996C67.2004 19.9962 53.2047 5.99951 36.0003 5.99951ZM7.20034 37.1994C7.20034 21.3198 20.1207 8.39942 36.0003 8.39942C51.88 8.39942 64.8003 21.3198 64.8003 37.1994H7.20034Z" fill="white"/>
<path d="M16.2631 19.6891C15.4242 20.6323 14.6467 21.6415 13.9519 22.6903L15.9523 24.0163C16.586 23.061 17.2939 22.1406 18.057 21.2826L16.2631 19.6891Z" fill="white"/>
<path d="M35.9995 10.7997C29.2604 10.8033 22.8439 13.3496 17.9336 17.9661L19.5776 19.7145C24.0416 15.5168 29.8748 13.2032 36.0008 13.1997L35.9995 10.7997Z" fill="white"/>
<path d="M39.6006 0H32.4006V2.40005H39.6006V0Z" fill="white"/>
<path d="M37.1991 1.19922H34.7991V7.19927H37.1991V1.19922Z" fill="white"/>
</g>
<defs>
<clipPath id="clip0_1_5802">
<rect width="72" height="72" fill="white"/>
</clipPath>
</defs>
</svg>
