<svg width="1536" height="858" viewBox="0 0 1536 858" fill="none" xmlns="http://www.w3.org/2000/svg">
<rect y="1" width="1536" height="720" fill="url(#paint0_linear_37_99)" fill-opacity="0.15"/>
<path d="M0 172.5C39.5 182.5 135.7 185 198.5 115C277 27.5 367 23 403.5 21.5C432.7 20.3 476.5 4 494.5 1" stroke="#7E007E" stroke-opacity="0.42"/>
<circle cx="1271.37" cy="526.367" r="5.36697" fill="#7E007E" fill-opacity="0.12"/>
<circle cx="1304.12" cy="526.367" r="5.36697" fill="#7E007E" fill-opacity="0.12"/>
<circle cx="1336.87" cy="526.367" r="5.36697" fill="#7E007E" fill-opacity="0.12"/>
<circle cx="1369.62" cy="526.367" r="5.36697" fill="#7E007E" fill-opacity="0.12"/>
<circle cx="1402.38" cy="526.367" r="5.36697" fill="#7E007E" fill-opacity="0.12"/>
<circle cx="1271.37" cy="559.119" r="5.36697" fill="#7E007E" fill-opacity="0.12"/>
<circle cx="1304.12" cy="559.119" r="5.36697" fill="#7E007E" fill-opacity="0.12"/>
<circle cx="1336.87" cy="559.119" r="5.36697" fill="#7E007E" fill-opacity="0.12"/>
<circle cx="1369.62" cy="559.119" r="5.36697" fill="#7E007E" fill-opacity="0.12"/>
<circle cx="1402.38" cy="559.119" r="5.36697" fill="#7E007E" fill-opacity="0.12"/>
<circle cx="1271.37" cy="591.872" r="5.36697" fill="#7E007E" fill-opacity="0.12"/>
<circle cx="1304.12" cy="591.872" r="5.36697" fill="#7E007E" fill-opacity="0.12"/>
<circle cx="1336.87" cy="591.872" r="5.36697" fill="#7E007E" fill-opacity="0.12"/>
<circle cx="1369.62" cy="591.872" r="5.36697" fill="#7E007E" fill-opacity="0.12"/>
<circle cx="1402.38" cy="591.872" r="5.36697" fill="#7E007E" fill-opacity="0.12"/>
<circle cx="1271.37" cy="624.624" r="5.36697" fill="#7E007E" fill-opacity="0.12"/>
<circle cx="1304.12" cy="624.624" r="5.36697" fill="#7E007E" fill-opacity="0.12"/>
<circle cx="1336.87" cy="624.624" r="5.36697" fill="#7E007E" fill-opacity="0.12"/>
<circle cx="1369.62" cy="624.624" r="5.36697" fill="#7E007E" fill-opacity="0.12"/>
<circle cx="1402.38" cy="624.624" r="5.36697" fill="#7E007E" fill-opacity="0.12"/>
<circle cx="1271.37" cy="657.376" r="5.36697" fill="#7E007E" fill-opacity="0.12"/>
<circle cx="1304.12" cy="657.376" r="5.36697" fill="#7E007E" fill-opacity="0.12"/>
<circle cx="1336.87" cy="657.376" r="5.36697" fill="#7E007E" fill-opacity="0.12"/>
<circle cx="1369.62" cy="657.376" r="5.36697" fill="#7E007E" fill-opacity="0.12"/>
<circle cx="1402.38" cy="657.376" r="5.36697" fill="#7E007E" fill-opacity="0.12"/>
<circle cx="1435.13" cy="526.367" r="5.36697" fill="#7E007E" fill-opacity="0.12"/>
<circle cx="1435.13" cy="559.119" r="5.36697" fill="#7E007E" fill-opacity="0.12"/>
<circle cx="1435.13" cy="591.872" r="5.36697" fill="#7E007E" fill-opacity="0.12"/>
<circle cx="1435.13" cy="624.624" r="5.36697" fill="#7E007E" fill-opacity="0.12"/>
<circle cx="1435.13" cy="657.376" r="5.36697" fill="#7E007E" fill-opacity="0.12"/>
<circle cx="1467.88" cy="526.367" r="5.36697" fill="#7E007E" fill-opacity="0.12"/>
<circle cx="1467.88" cy="559.119" r="5.36697" fill="#7E007E" fill-opacity="0.12"/>
<circle cx="1467.88" cy="591.872" r="5.36697" fill="#7E007E" fill-opacity="0.12"/>
<circle cx="1467.88" cy="624.624" r="5.36697" fill="#7E007E" fill-opacity="0.12"/>
<circle cx="1467.88" cy="657.376" r="5.36697" fill="#7E007E" fill-opacity="0.12"/>
<circle cx="1500.63" cy="526.367" r="5.36697" fill="#7E007E" fill-opacity="0.12"/>
<circle cx="1500.63" cy="559.119" r="5.36697" fill="#7E007E" fill-opacity="0.12"/>
<circle cx="1500.63" cy="591.872" r="5.36697" fill="#7E007E" fill-opacity="0.12"/>
<circle cx="1500.63" cy="624.624" r="5.36697" fill="#7E007E" fill-opacity="0.12"/>
<circle cx="1500.63" cy="657.376" r="5.36697" fill="#7E007E" fill-opacity="0.12"/>
<circle cx="1271.37" cy="690.129" r="5.36697" fill="#7E007E" fill-opacity="0.12"/>
<circle cx="1304.12" cy="690.129" r="5.36697" fill="#7E007E" fill-opacity="0.12"/>
<circle cx="1336.87" cy="690.129" r="5.36697" fill="#7E007E" fill-opacity="0.12"/>
<circle cx="1369.62" cy="690.129" r="5.36697" fill="#7E007E" fill-opacity="0.12"/>
<circle cx="1402.38" cy="690.129" r="5.36697" fill="#7E007E" fill-opacity="0.12"/>
<circle cx="1435.13" cy="690.129" r="5.36697" fill="#7E007E" fill-opacity="0.12"/>
<circle cx="1467.88" cy="690.129" r="5.36697" fill="#7E007E" fill-opacity="0.12"/>
<circle cx="1500.63" cy="690.129" r="5.36697" fill="#7E007E" fill-opacity="0.12"/>
<path d="M-3 117.938C27.4338 125.715 101.553 127.659 149.939 73.2177C210.422 5.16585 279.764 1.66604 307.887 0.499435C330.385 -0.433848 364.131 -7.66679 378 -10" stroke="#7E007E" stroke-opacity="0.42"/>
<path d="M-46 62.9376C-15.5662 70.7149 58.5535 72.6593 106.939 18.2177C167.422 -49.8341 236.764 -53.334 264.887 -54.5006C287.385 -55.4338 321.131 -62.6668 335 -65" stroke="#7E007E" stroke-opacity="0.42"/>
<path d="M-110 721C-110 703.009 -106.456 685.194 -99.5715 668.572C-92.6866 651.951 -82.5952 636.848 -69.8736 624.126C-57.152 611.405 -42.0492 601.313 -25.4276 594.428C-8.80598 587.544 9.00895 584 27 584C44.9911 584 62.8061 587.544 79.4277 594.429C96.0493 601.313 111.152 611.405 123.874 624.126C136.595 636.848 146.687 651.951 153.572 668.572C160.456 685.194 164 703.009 164 721L27 721L-110 721Z" fill="#7E007E" fill-opacity="0.4"/>
<path d="M-68 719.5C-68 707.09 -65.5557 694.802 -60.8066 683.336C-56.0575 671.871 -49.0967 661.454 -40.3216 652.678C-31.5464 643.903 -21.1288 636.942 -9.66356 632.193C1.80171 627.444 14.0901 625 26.5 625C38.91 625 51.1984 627.444 62.6636 632.193C74.1289 636.942 84.5465 643.903 93.3216 652.678C102.097 661.454 109.058 671.871 113.807 683.336C118.556 694.802 121 707.09 121 719.5L26.5 719.5L-68 719.5Z" fill="#7E007E" fill-opacity="0.55"/>
<defs>
<linearGradient id="paint0_linear_37_99" x1="45.5" y1="27.0001" x2="1502.5" y2="684.5" gradientUnits="userSpaceOnUse">
<stop stop-color="#FF00FF"/>
<stop offset="1" stop-color="#FF62FF"/>
</linearGradient>
</defs>
</svg>
