<svg width="185" height="177" viewBox="0 0 185 177" fill="none" xmlns="http://www.w3.org/2000/svg">
<path d="M2 34.664V20.7413C2 10.3792 10.8562 2 21.8081 2H49.3682" stroke="white" stroke-width="4" stroke-miterlimit="10" stroke-linecap="round" stroke-linejoin="round"/>
<path d="M50.8555 175H21.8081C10.8562 175 2 166.621 2 156.28V141.888" stroke="white" stroke-width="4" stroke-miterlimit="10" stroke-linecap="round" stroke-linejoin="round"/>
<path d="M183 34.664V20.7413C183 10.4005 174.144 2 163.192 2H135.632" stroke="white" stroke-width="4" stroke-miterlimit="10" stroke-linecap="round" stroke-linejoin="round"/>
<path d="M134.144 175H163.191C174.121 175 183 166.621 183 156.259V141.867" stroke="white" stroke-width="4" stroke-miterlimit="10" stroke-linecap="round" stroke-linejoin="round"/>
<g clip-path="url(#clip0_1_6692)">
<path d="M50.2307 10.6107H9.4541V48.9616H50.2307V10.6107ZM43.994 43.096H15.6908V16.4764H44.0178V43.096H43.994Z" fill="#BB5ABB"/>
<path d="M37.6383 22.4317H22.0227V37.1183H37.6383V22.4317Z" fill="#BB5ABB"/>
<path d="M135.973 10.6107V48.9616H176.75V10.6107H135.973ZM170.513 43.096H142.186V16.4764H170.513V43.096Z" fill="#BB5ABB"/>
<path d="M164.158 22.4317H148.542V37.1183H164.158V22.4317Z" fill="#BB5ABB"/>
<path d="M9.47778 167.955H50.2544V129.581H9.47778V167.955ZM15.7145 135.447H44.0415V162.089H15.7145V135.447Z" fill="#BB5ABB"/>
<path d="M37.6622 141.425H22.0466V156.111H37.6622V141.425Z" fill="#BB5ABB"/>
<path d="M76.3677 10.6107H69.6787V16.9018H76.3677V10.6107Z" fill="#BB5ABB"/>
<path d="M96.4346 35.775V42.0661H103.124V35.775V29.484H109.813H116.502V35.775H109.813V42.0661V48.3572H103.124H96.4346V42.0661H89.7456V48.3572H83.0566V54.6482H89.7456H96.4346H89.7456V60.9617H96.4346H103.124V54.6482H109.813V60.9617H116.502H123.191H129.879V54.6482H123.191V48.3572V42.0661H129.879V35.775H123.191V29.484H129.879V23.1929V16.9018V10.6107H123.191V16.9018V23.1929H116.502V16.9018V10.6107H109.813H103.124V16.9018V23.1929H96.4346V29.484H89.7456V35.775H96.4346Z" fill="#BB5ABB"/>
<path d="M69.6787 60.9617H76.3677H83.0567V54.6706H76.3677V48.3795V42.0885H83.0567H89.7457V35.7974H83.0567V29.484H89.7457V23.1929V16.9018H96.4347V10.6107H89.7457H83.0567V16.9018H76.3677V23.1929H69.6787H62.9898V16.9018V10.6107H56.3008V16.9018V23.1929V29.484H62.9898V35.775H56.3008V42.0661H62.9898V48.3572H56.3008V54.6482V60.9393H62.9898H69.6787V60.9617ZM62.9898 35.775H69.6787V42.0661H62.9898V35.775Z" fill="#BB5ABB"/>
<path d="M89.7456 67.2527H83.0566V73.5438V79.8349H89.7456V73.5438V67.2527Z" fill="#BB5ABB"/>
<path d="M76.3677 98.7081H69.6787V104.999H76.3677V98.7081Z" fill="#BB5ABB"/>
<path d="M89.7456 98.7081H83.0566V104.999H89.7456V98.7081Z" fill="#BB5ABB"/>
<path d="M83.0567 104.999H76.3677V111.29H69.6787V104.999H62.9897V111.29H56.3008V104.999H62.9897V98.7081H56.3008H49.588V104.999H42.899V111.29H36.21V104.999H29.521V98.7081V92.417H22.8321V98.7081V104.999H16.1431H9.4541V111.29V117.604V123.895H16.1431V117.604H22.8321H29.521V123.895H36.21H42.899V117.604H49.588H56.3008V123.895H62.9897V117.604H69.6787H76.3677H83.0567V111.29V104.999Z" fill="#BB5ABB"/>
<path d="M22.8321 67.2528H29.521V73.5438H36.21H42.899V79.8349H49.588H56.3008H62.9897H69.6787V73.5438V67.2528V60.9617H62.9897H56.3008H49.588H42.899H36.21H29.521H22.8321H16.1431H9.4541V67.2528V73.5438H16.1431V67.2528H22.8321Z" fill="#BB5ABB"/>
<path d="M29.521 54.6482H22.832V60.9393H29.521V54.6482Z" fill="#BB5ABB"/>
<path d="M42.8989 54.6482H36.21V60.9393H42.8989V54.6482Z" fill="#BB5ABB"/>
<path d="M16.1431 54.6482H9.4541V60.9393H16.1431V54.6482Z" fill="#BB5ABB"/>
<path d="M123.19 117.604H129.879H136.568V111.29H129.879H123.19V117.604Z" fill="#BB5ABB"/>
<path d="M163.348 60.9617H156.659H149.946H143.257H136.568H129.879H123.19V67.2528V73.5438V79.8349H129.879V73.5438H136.568V79.8349H129.879V86.126V92.417V98.7081V104.999H136.568H143.257V111.29H149.946H156.659V104.999H163.348V98.7081V92.417V86.126H170.037H176.726V79.8349H170.037H163.348H156.659H149.946V86.126H156.659V92.417V98.7081H149.946H143.257H136.568V92.417H143.257V86.126V79.8349V73.5438V67.2528H149.946H156.659H163.348H170.037H176.726V60.9617H170.037H163.348Z" fill="#BB5ABB"/>
<path d="M143.258 54.6482H136.569V60.9393H143.258V54.6482Z" fill="#BB5ABB"/>
<path d="M163.348 54.6482H156.659V60.9393H163.348V54.6482Z" fill="#BB5ABB"/>
<path d="M176.726 54.6482H170.037V60.9393H176.726V54.6482Z" fill="#BB5ABB"/>
<path d="M170.037 98.7081V104.999V111.29H163.348V117.604H156.659H149.947V123.895H156.659V130.186H163.348V136.477H156.659V142.768H163.348V149.059H156.659V155.35V161.641H163.348V167.932H170.037H176.726V161.641H170.037V155.35V149.059V142.768V136.477V130.186V123.895V117.604H176.726V111.29V104.999V98.7081V92.417H170.037V98.7081Z" fill="#BB5ABB"/>
<path d="M109.813 136.477H116.502V130.186V123.895V117.604V111.29V104.999H123.191V98.7081V92.417V86.126H116.502V92.417H109.813V86.126H116.502V79.8349V73.5438V67.2528H109.813H103.124V60.9617H96.4346V67.2528V73.5438V79.8349H89.7457V86.126H83.0567H76.3677H69.6787H62.9897H56.3008H49.588H42.899V79.8349H36.21H29.521V73.5438H22.8321H16.1431V79.8349H9.4541V86.126V92.417H16.1431V86.126H22.8321H29.521V92.417H36.21V98.7081V104.999H42.899V98.7081H49.588V92.417H56.3008H62.9897V98.7081H69.6787V92.417H76.3677V98.7081H83.0567V92.417H89.7457H96.4346H103.124V98.7081V104.999H109.813V111.29V117.604H103.124V111.29H96.4346H89.7457V117.604H83.0567V123.895H89.7457H96.4346H103.124V130.186H109.813V136.477Z" fill="#BB5ABB"/>
<path d="M149.947 111.313H143.258V117.604H149.947V111.313Z" fill="#BB5ABB"/>
<path d="M149.946 142.768V136.477V130.186H143.257V123.895H136.568H129.879H123.191V130.186V136.477H116.502V142.768H123.191H129.879V149.059V155.35H123.191V149.059H116.502V155.35H109.813V149.059V142.768V136.477H103.124V130.186H96.4346H89.7456V136.477H83.0566V142.768V149.059H89.7456V155.35V161.641V167.932H96.4346V161.641V155.35V149.059V142.768H103.124V149.059V155.35H109.813V161.641H103.124V167.932H109.813V161.641H116.502V167.932H123.191V161.641H129.879H136.568V155.35V149.059V142.768H143.257V149.059H149.946H156.635V142.768H149.946ZM129.879 136.477V130.186H136.568V136.477H129.879Z" fill="#BB5ABB"/>
<path d="M56.3008 130.186V136.477H62.9898V142.768H56.3008V149.059V155.35V161.641V167.932H62.9898V161.641V155.35H69.6787V161.641H76.3677V167.932H83.0567V161.641V155.35H76.3677V149.059V142.768V136.477V130.186V123.895H69.6787H62.9898V130.186H56.3008Z" fill="#BB5ABB"/>
</g>
<defs>
<clipPath id="clip0_1_6692">
<rect width="167.296" height="157.344" fill="white" transform="translate(9.4541 10.6107)"/>
</clipPath>
</defs>
</svg>
