<svg width="225" height="300" viewBox="0 0 225 300" fill="none" xmlns="http://www.w3.org/2000/svg">
<path d="M139.581 8.18523C138.731 5.55311 132.578 0.56323 126.465 0.674688C126.247 0.674688 125.149 0.768998 124.744 0.966193L5.94434 59.5416C3.92644 60.5361 2.36355 62.0365 1.37438 63.7856C0.622609 65.1145 0.197266 66.5806 0.197266 68.1067V290.842C0.197266 296.518 7.74463 301.928 14.837 299.33C14.8568 299.322 14.8667 299.305 14.8864 299.305C15.0348 299.253 15.1931 299.219 15.3415 299.142L134.151 240.463C137.702 238.714 139.888 235.448 139.888 231.907V9.25694C139.878 8.86255 139.759 8.50246 139.581 8.18523Z" fill="#BA68C8"/>
<path opacity="0.3" d="M139.581 8.18523C138.731 5.55311 132.578 0.56323 126.465 0.674688C126.247 0.674688 125.149 0.768998 124.744 0.966193L5.94434 59.5416C3.92644 60.5361 2.36355 62.0365 1.37438 63.7856C0.622609 65.1145 0.197266 66.5806 0.197266 68.1067V290.842C0.197266 296.518 7.74463 301.928 14.837 299.33C14.8568 299.322 14.8667 299.305 14.8864 299.305C15.0348 299.253 15.1931 299.219 15.3415 299.142L134.151 240.463C137.702 238.714 139.888 235.448 139.888 231.907V9.25694C139.878 8.86255 139.759 8.50246 139.581 8.18523Z" fill="black"/>
<path d="M16.7637 91.6501C16.7637 89.8754 17.8617 88.2464 19.6323 87.3719L129.945 32.9719C131.834 32.0373 134.188 33.2205 134.188 35.1153V214.725C134.188 216.492 133.09 218.129 131.319 219.004L21.0171 273.481C19.1278 274.415 16.7736 273.232 16.7736 271.337V91.6501H16.7637Z" fill="#455A64"/>
<path opacity="0.3" d="M0.197266 68.1068V290.842C0.197266 296.518 7.74463 301.928 14.837 299.33C14.8568 299.322 14.8667 299.305 14.8864 299.305C13.0862 299.871 11.0979 298.747 11.0979 297.007V74.2627C11.0979 72.2907 11.8002 70.4131 13.0169 68.827L1.37438 63.7856C0.622609 65.1146 0.197266 66.5807 0.197266 68.1068Z" fill="black"/>
<path opacity="0.1" d="M126.467 0.666117C126.25 0.666117 125.152 0.760428 124.746 0.957623L5.94692 59.5416C3.92901 60.5361 2.36612 62.0365 1.37695 63.7856L13.0096 68.8269C13.979 67.5666 15.2649 66.4777 16.8377 65.7061L135.637 7.1221C137.131 6.38476 138.901 6.97635 139.584 8.18524L139.594 8.17666C138.723 5.55312 132.58 0.563233 126.467 0.666117Z" fill="white"/>
<path d="M90.117 43.8937C90.9479 43.4736 91.6403 43.7994 91.6502 44.631C91.6502 45.4627 90.9677 46.4915 90.1269 46.9116L66.822 58.5718C65.9911 58.9919 65.3185 58.6404 65.3086 57.8088C65.3086 56.9771 65.9713 55.974 66.8121 55.5539L90.117 43.8937Z" fill="#263238"/>
<path d="M60.828 58.555C61.6589 58.1349 62.3316 58.4692 62.3414 59.3009C62.3414 60.1325 61.6787 61.1528 60.8379 61.5729C60.007 61.993 59.3146 61.6501 59.3047 60.8184C59.3047 59.9868 59.9971 58.9751 60.828 58.555Z" fill="#263238"/>
<path d="M75.7457 42.196C77.4174 41.3644 78.7627 42.0245 78.7627 43.6878C78.7726 45.3511 77.4273 47.3917 75.7655 48.2233C74.0938 49.055 72.7189 48.3776 72.709 46.7143C72.709 45.0596 74.0839 43.0362 75.7457 42.196Z" fill="#263238"/>
<path d="M75.7566 251.892C79.1494 250.194 81.8894 251.549 81.8993 254.927C81.9092 258.305 79.189 262.472 75.7961 264.169C72.4033 265.867 69.5841 264.478 69.5742 261.1C69.5644 257.713 72.3637 253.589 75.7566 251.892Z" fill="#263238"/>
<path d="M156.991 44.9992L157.011 44.9906L150.591 42.0413V42.067C149.741 41.5183 148.554 41.364 147.505 41.8869L37.183 96.2784C35.4025 97.1529 34.3145 98.7905 34.3145 100.557V108.796V280.252C34.3145 281.341 35.1058 282.182 36.1345 282.533L36.1147 282.542L42.5839 285.551C42.5938 285.56 42.6037 285.56 42.6136 285.56C42.6433 285.577 42.6828 285.585 42.7125 285.594C43.5236 285.962 44.5227 286.005 45.4228 285.56L155.735 231.074C157.506 230.199 158.604 228.562 158.604 226.796V53.47V47.1941C158.604 46.1824 157.911 45.385 156.991 44.9992Z" fill="#BA68C8"/>
<path opacity="0.3" d="M158.604 53.4708V47.1948C158.604 46.1746 157.911 45.3772 156.981 44.9914L157.001 44.9828L150.582 42.0335V42.0592C149.731 41.5105 148.544 41.3561 147.495 41.8791L37.183 96.2791C35.4025 97.1537 34.3145 98.7912 34.3145 100.557V108.797L41.1793 112.235L158.604 53.4708Z" fill="white"/>
<path opacity="0.5" d="M156.991 44.9992L157.011 44.9906L150.591 42.0413V42.067C149.741 41.5183 148.554 41.364 147.505 41.8869L37.183 96.2784C35.4025 97.1529 34.3145 98.7905 34.3145 100.557V280.252C34.3145 281.341 35.1058 282.182 36.1345 282.533L36.1147 282.542L42.5839 285.551C42.5938 285.56 42.6037 285.56 42.6136 285.56C42.6433 285.577 42.6828 285.585 42.7125 285.594C43.5236 285.962 44.5227 286.005 45.4228 285.56L155.735 231.074C157.506 230.199 158.604 228.562 158.604 226.796V47.2026C158.604 46.1824 157.911 45.385 156.991 44.9992Z" fill="white"/>
<path opacity="0.3" d="M34.3145 100.557V280.253C34.3145 281.342 35.1058 282.182 36.1345 282.534L36.1147 282.542L42.5839 285.551C41.7629 285.131 41.1793 284.368 41.1793 283.425V103.738C41.1793 103.069 41.3376 102.418 41.6343 101.817L34.8882 98.4395C34.5222 99.0911 34.3145 99.8112 34.3145 100.557Z" fill="#BA68C8"/>
<path opacity="0.4" d="M150.58 42.0422V42.068C149.729 41.5193 148.542 41.3649 147.494 41.8879L37.1817 96.2794C36.153 96.7852 35.3715 97.5483 34.877 98.4399L41.6231 101.818C42.0979 100.841 42.9387 100 44.0466 99.4602L154.359 45.0602C155.229 44.6315 156.199 44.6658 156.99 45.0002L157.01 44.9916L150.58 42.0422Z" fill="white"/>
<path d="M74.7919 102.264C89.3426 94.985 101.183 100.824 101.222 115.313C101.272 129.803 89.5107 147.456 74.96 154.735C60.4093 162.014 48.5789 156.167 48.5294 141.677C48.4898 127.188 60.2412 109.543 74.7919 102.264Z" fill="#BA68C8"/>
<path d="M88.1156 115.785C89.5301 114.902 90.5391 113.556 90.8952 112.081C91.2513 110.607 90.9545 109.02 90.0742 107.717C90.8358 107.4 91.5777 106.868 91.9338 106.2C92.2701 105.557 92.102 104.734 91.5283 104.228C90.9545 103.722 90.0247 103.559 89.2631 103.825C89.7379 102.822 89.1938 101.458 88.1156 100.91C87.0374 100.361 85.5141 100.61 84.7426 101.45C84.792 100.764 84.248 100.095 83.4863 99.8809C82.7345 99.6665 81.8938 99.7866 81.142 100.009C80.3902 100.232 79.678 100.558 78.9164 100.764C77.6304 101.115 76.2654 101.124 74.93 101.201C73.5847 101.287 72.1999 101.458 71.0722 102.093C69.9446 102.727 68.9455 104.202 69.5588 105.479C69.1829 105.059 68.5696 104.759 67.9563 104.742C67.3431 104.725 66.7298 104.948 66.3143 105.342C67.1551 105.797 67.9662 106.277 68.807 106.731C67.9662 106.405 66.7001 106.92 66.2451 107.614C65.7901 108.309 65.7703 109.158 65.7901 109.955C65.889 113.007 66.5319 116.034 67.6497 118.932C68.2234 120.423 69.5687 122.31 71.2008 122.996L88.1156 115.785Z" fill="#37474F"/>
<path d="M85.377 127.23L89.3633 130.18L91.4702 140.657C93.1815 138.419 94.7246 136.053 96.0402 133.626C94.2201 129.631 92.7661 127.23 85.377 127.23Z" fill="#EBEBEB"/>
<path d="M74.9575 154.735C81.7927 151.314 88.0145 145.604 92.6735 139.011C92.2878 133.344 91.3283 127.23 85.3636 127.23L67.6673 127.333L64.0568 127.668L62.3555 157.847C66.1143 158.01 70.3974 157.015 74.9575 154.735Z" fill="#BA68C8"/>
<g opacity="0.4">
<path d="M74.9575 154.735C81.7927 151.314 88.0145 145.604 92.6735 139.011C92.2878 133.344 91.3283 127.23 85.3636 127.23L67.6673 127.333L64.0568 127.668L62.3555 157.847C66.1143 158.01 70.3974 157.015 74.9575 154.735Z" fill="white"/>
</g>
<path d="M82.4882 129.271C84.1401 133.832 83.1014 140.194 82.4882 143.066C78.2941 138.068 74.377 133.061 73.1504 131.097L78.9964 128.637L82.4882 129.271Z" fill="#EBEBEB"/>
<path d="M80.041 133.463L81.4852 133.163C81.4852 133.163 82.5535 135.512 83.2459 138.05C83.0679 140.073 82.7415 141.873 82.4843 143.057C81.6633 142.079 80.8521 141.093 80.0707 140.142C80.229 138.504 80.3872 135.795 80.041 133.463Z" fill="#455A64"/>
<path opacity="0.2" d="M80.0707 133.728C80.0608 133.643 80.0509 133.548 80.041 133.463L81.4852 133.163C81.4852 133.163 81.5149 133.231 81.5643 133.351C81.3269 133.531 81.05 133.668 80.7433 133.728C80.5257 133.763 80.2982 133.763 80.0707 133.728Z" fill="black"/>
<path d="M79.2592 130.188L78.1217 129.553L75.4707 130.805C76.628 131.731 78.5965 131.877 78.5965 131.877L79.2592 130.188Z" fill="#455A64"/>
<path d="M81.0176 129.948L81.3638 129.279L82.6992 129.999C82.442 130.753 81.8287 131.096 81.8287 131.096L81.0176 129.948Z" fill="#455A64"/>
<path opacity="0.2" d="M79.2592 130.188L78.1217 129.553L75.4707 130.805C76.628 131.731 78.5965 131.877 78.5965 131.877L79.2592 130.188Z" fill="black"/>
<path opacity="0.2" d="M81.0176 129.948L81.3638 129.279L82.6992 129.999C82.442 130.753 81.8287 131.096 81.8287 131.096L81.0176 129.948Z" fill="black"/>
<path d="M78.6055 131.876C78.7143 131.293 78.9418 130.702 79.2682 130.187C79.8518 130.11 80.4354 130.024 81.019 129.947C81.3356 130.299 81.6125 130.693 81.8302 131.105C81.9192 132.185 81.484 133.171 81.484 133.171C80.8311 133.488 80.0398 133.471 80.0398 133.471C78.9912 132.905 78.6055 131.876 78.6055 131.876Z" fill="#455A64"/>
<path d="M79.884 129.657C77.1044 129.614 75.4129 131.535 72.8707 132.186L67.6875 127.342L69.6955 124.753C70.1011 124.238 70.6154 123.801 71.2287 123.467L71.2485 124.401C71.2584 124.959 71.6046 125.464 72.1684 125.747L79.884 129.657Z" fill="#E0E0E0"/>
<path d="M79.8867 129.657C81.4298 129.237 83.7346 130.917 83.7346 130.917C82.9235 127.042 80.4901 125.524 79.8867 125.524V129.657Z" fill="#E0E0E0"/>
<path d="M64.0714 127.676L61.6677 128.011C58.7694 128.414 56.4844 130.343 55.8909 132.829C53.6752 142.054 54.328 150.482 54.328 150.482L65.2782 146.11C66.4355 138.685 68.6908 132.555 64.0714 127.676Z" fill="#EBEBEB"/>
<path d="M65.1662 149.402L65.2157 148.579C65.2256 148.424 65.3047 148.287 65.4333 148.184C65.5718 148.081 65.6509 147.927 65.6509 147.764V146.392C65.6509 146.015 65.2948 145.724 64.8596 145.724C59.9039 145.784 55.0866 147.824 53.771 150.233C53.2368 151.237 53.771 152.557 53.771 152.557C52.9104 153.534 53.3259 154.032 53.771 154.726C54.2161 155.103 54.6909 155.438 55.1855 155.746C58.4003 151.262 65.1662 149.402 65.1662 149.402Z" fill="#E0E0E0"/>
<path opacity="0.2" d="M60.0434 148.441C57.6892 149.222 55.0975 151.108 53.7721 152.548C53.7721 152.548 53.6435 152.222 53.5742 151.768C54.3952 150.876 56.1757 149.239 60.0434 148.441Z" fill="black"/>
<path opacity="0.2" d="M65.612 147.928C65.5725 148.022 65.5131 148.116 65.4241 148.185C65.2955 148.288 65.2164 148.425 65.2065 148.579V148.648C61.7642 149.102 58.5098 150.526 56.0566 152.669C58.3515 149.78 63.3864 148.305 65.612 147.928Z" fill="black"/>
<path d="M74.9608 154.735C78.9966 152.711 82.8148 149.891 86.2373 146.564C79.8868 146.598 71.0239 146.898 65.2174 148.639L65.1779 149.393C65.1779 149.393 58.4119 151.254 55.207 155.729C60.0441 158.764 67.1067 158.67 74.9608 154.735Z" fill="#FFA8A7"/>
<path opacity="0.2" d="M65.6512 149.428L65.7601 148.493C65.5721 148.545 65.3941 148.596 65.2061 148.647L65.1666 149.402C65.1666 149.402 63.0695 149.976 60.646 151.262C60.2504 151.708 59.8646 152.291 59.6074 153.011C60.9329 151.382 62.387 150.739 65.2061 150.105C67.778 150.448 72.249 152.086 76.7992 153.732C77.2344 153.483 77.6697 153.226 78.095 152.96C72.6348 151.314 67.0757 149.513 65.6512 149.428Z" fill="black"/>
<path d="M74.4152 123.638L74.336 123.604C73.1688 123.073 72.2983 122.129 72.0115 121.015C71.8631 120.466 71.7345 119.909 71.6356 119.352C71.5466 118.846 71.1113 119.343 71.1113 119.343C71.1113 119.343 71.141 120.578 71.1806 122.044C71.2004 122.815 71.2201 123.656 71.2399 124.419C71.2498 124.976 71.596 125.482 72.1598 125.765L79.8853 129.666V126.313L79.8952 124.907C77.9762 124.779 76.0176 124.367 74.4152 123.638Z" fill="#FFA8A7"/>
<path opacity="0.2" d="M73.3187 123.544C72.8637 123.038 72.5373 122.446 72.3691 121.829C72.7945 122.575 73.477 123.209 74.3475 123.604C74.3772 123.612 74.3969 123.63 74.4266 123.638C76.0291 124.367 77.9876 124.778 79.8967 124.898L79.8868 126.116C78.7889 126.013 77.6909 125.85 76.6522 125.524C75.3663 125.121 74.1595 124.478 73.3187 123.544Z" fill="black"/>
<path d="M88.588 108.411C89.221 112.544 88.9045 116.788 87.6581 120.817C87.3911 121.7 87.0646 122.583 86.5206 123.364C85.9766 124.144 85.1852 124.83 84.1961 125.147C82.9794 125.541 81.6341 125.353 80.3581 125.156C78.0236 124.796 75.6298 124.427 73.602 123.355C71.5742 122.292 69.9619 120.371 70.1597 118.322C68.9826 118.914 67.4791 119.068 66.2822 118.511C65.0853 117.954 64.2445 116.839 64.1555 115.665C64.0664 114.516 64.8281 113.238 66.1338 113.015C66.9251 112.878 67.756 113.152 68.3891 113.59C69.0222 114.027 69.497 114.61 69.9619 115.184C70.1795 115.459 70.4169 115.742 70.7433 115.913C71.0698 116.085 71.5347 116.119 71.8314 115.905C72.148 115.665 72.1579 115.244 72.1381 114.884L71.9996 112.287C71.9798 111.875 72.2469 111.506 72.6623 111.318C73.2756 111.052 73.7405 110.555 74.0076 109.98C74.2351 109.483 74.334 108.951 74.3835 108.42C74.4231 107.991 74.9275 107.717 75.3924 107.871C79.4282 109.269 84.4433 109.337 88.588 108.411Z" fill="#FFA8A7"/>
<path d="M81.9968 114.704L84.6873 118.639L81.4824 119.162L81.9968 114.704Z" fill="#F28F8F"/>
<path d="M78.3856 120.517C79.1967 120.86 80.0078 121.203 80.8288 121.546C80.4727 122.026 79.5825 122.232 78.9791 122C78.3757 121.769 78.2075 121.066 78.3856 120.517Z" fill="#F28F8F"/>
<path opacity="0.3" d="M78.3856 120.517C79.1967 120.86 80.0078 121.203 80.8288 121.546C80.4727 122.026 79.5825 122.232 78.9791 122C78.3757 121.769 78.2075 121.066 78.3856 120.517Z" fill="black"/>
<path d="M79.8232 122.068C79.5265 122.111 79.2297 122.094 78.9726 122C78.4977 121.82 78.2999 121.348 78.3197 120.885C78.6659 120.885 79.0121 120.988 79.2792 121.177C79.5957 121.391 79.7837 121.725 79.8232 122.068Z" fill="#F28F8F"/>
<path d="M77.3502 114.867C77.3007 115.304 77.6667 115.699 78.1712 115.742C78.6757 115.784 79.1307 115.467 79.1801 115.03C79.2296 114.593 78.8636 114.198 78.3591 114.155C77.8547 114.104 77.3996 114.421 77.3502 114.867Z" fill="#263238"/>
<path d="M85.0846 115.279C85.0351 115.716 85.4011 116.111 85.9056 116.153C86.41 116.196 86.8651 115.879 86.9145 115.442C86.964 115.005 86.598 114.61 86.0935 114.567C85.589 114.524 85.134 114.842 85.0846 115.279Z" fill="#263238"/>
<path d="M86.3379 112.193C86.971 112.656 87.604 113.127 88.2272 113.59C88.4745 113.187 88.3459 112.63 87.9799 112.304C87.6139 111.987 86.8028 111.978 86.3379 112.193Z" fill="#263238"/>
<path d="M78.4957 111.412C77.7737 111.755 77.0417 112.106 76.3196 112.449C76.1712 112.012 76.4284 111.489 76.8636 111.232C77.2988 110.983 78.0902 111.12 78.4957 111.412Z" fill="#263238"/>
<path d="M122.767 109.834L122.777 112.046L111.342 117.774V115.562L122.767 109.834Z" fill="white"/>
<path d="M128.79 120.432L128.8 122.644L111.391 131.355L111.381 129.143L128.79 120.432Z" fill="white"/>
<path d="M134.49 113.058L134.5 115.27L111.373 126.845V124.624L134.49 113.058Z" fill="white"/>
<path d="M143.5 94.9424L143.51 97.1544L111.332 113.256L111.322 111.044L143.5 94.9424Z" fill="white"/>
<path d="M149.872 87.1919L149.882 89.4039L111.314 108.703V106.491L149.872 87.1919Z" fill="white"/>
<path d="M141.839 82.8018L141.858 87.2343L111.293 102.53L111.283 98.0972L141.839 82.8018Z" fill="white"/>
<path d="M47.4082 171.951V278.367L92.6825 256.007V149.308L47.4082 171.951Z" fill="#BA68C8"/>
<path d="M152.358 119.462L95.5801 147.858V254.575L152.358 226.531V119.462Z" fill="#BA68C8"/>
<g opacity="0.7">
<path d="M47.4082 171.951V278.367L92.6825 256.007V149.308L47.4082 171.951Z" fill="white"/>
<path d="M152.358 119.462L95.5801 147.858V254.575L152.358 226.531V119.462Z" fill="white"/>
</g>
<path d="M130.135 212.256V214.159L103.279 227.603V225.691L130.135 212.256Z" fill="#BA68C8"/>
<path d="M144.854 201.332L144.864 203.253L103.27 224.069L103.26 222.149L144.854 201.332Z" fill="#BA68C8"/>
<path d="M122.806 208.835V210.747L103.26 220.529L103.25 218.618L122.806 208.835Z" fill="#BA68C8"/>
<path d="M144.835 194.268L144.845 196.18L103.25 216.997L103.24 215.085L144.835 194.268Z" fill="#BA68C8"/>
<path d="M144.823 190.727L144.833 192.648L103.238 213.464L103.229 211.544L144.823 190.727Z" fill="#BA68C8"/>
<path d="M113.243 197.937L113.253 199.849L103.213 204.873L103.203 202.953L113.243 197.937Z" fill="#BA68C8"/>
<path d="M144.786 178.612L144.796 180.524L103.201 201.333L103.191 199.421L144.786 178.612Z" fill="#BA68C8"/>
<path d="M144.776 175.08V176.992L103.182 197.8V195.888L144.776 175.08Z" fill="#BA68C8"/>
<path d="M144.766 171.539V173.451L103.172 194.268V192.356L144.766 171.539Z" fill="#BA68C8"/>
<path d="M130.001 170.373L130.01 172.285L103.145 185.72V183.808L130.001 170.373Z" fill="#BA68C8"/>
<path d="M144.729 159.458V161.379L103.135 182.187V180.275L144.729 159.458Z" fill="#BA68C8"/>
<path d="M144.708 155.926L144.718 157.838L103.123 178.647L103.113 176.735L144.708 155.926Z" fill="#BA68C8"/>
<path d="M144.69 148.853L144.7 150.774L103.106 171.582L103.096 169.661L144.69 148.853Z" fill="#BA68C8"/>
<path d="M144.698 152.394L144.708 154.305L103.113 175.114L103.104 173.202L144.698 152.394Z" fill="#BA68C8"/>
<path d="M138.457 136.49V138.402L103.055 156.124L103.045 154.212L138.457 136.49Z" fill="#BA68C8"/>
<path d="M140.967 142.303L140.977 144.223L103.072 163.197L103.062 161.276L140.967 142.303Z" fill="#BA68C8"/>
<path d="M128.004 145.261L128.013 147.173L103.067 159.656L103.057 157.744L128.004 145.261Z" fill="#BA68C8"/>
<path d="M144.632 129.863V131.775L103.037 152.592V150.68L144.632 129.863Z" fill="#BA68C8"/>
<path d="M144.913 219.148L144.923 221.06L103.328 241.877L103.318 239.965L144.913 219.148Z" fill="#BA68C8"/>
<path d="M122.884 233.715L122.894 235.627L103.338 245.41V243.498L122.884 233.715Z" fill="#BA68C8"/>
<path d="M134.44 220.854L134.45 222.766L103.32 238.344L103.311 236.432L134.44 220.854Z" fill="#BA68C8"/>
<path d="M144.891 212.075L144.901 213.995L103.307 234.812L103.297 232.892L144.891 212.075Z" fill="#BA68C8"/>
<g opacity="0.1">
<path d="M130.135 212.256V214.159L103.279 227.603V225.691L130.135 212.256Z" fill="white"/>
<path d="M144.854 201.332L144.864 203.253L103.27 224.069L103.26 222.149L144.854 201.332Z" fill="white"/>
<path d="M122.806 208.835V210.747L103.26 220.529L103.25 218.618L122.806 208.835Z" fill="white"/>
<path d="M144.835 194.268L144.845 196.18L103.25 216.997L103.24 215.085L144.835 194.268Z" fill="white"/>
<path d="M144.823 190.727L144.833 192.648L103.238 213.464L103.229 211.544L144.823 190.727Z" fill="white"/>
</g>
<g opacity="0.4">
<path d="M113.243 197.937L113.253 199.849L103.213 204.873L103.203 202.953L113.243 197.937Z" fill="white"/>
<path d="M144.786 178.612L144.796 180.524L103.201 201.333L103.191 199.421L144.786 178.612Z" fill="white"/>
<path d="M144.776 175.08V176.992L103.182 197.8V195.888L144.776 175.08Z" fill="white"/>
<path d="M144.766 171.539V173.451L103.172 194.268V192.356L144.766 171.539Z" fill="white"/>
</g>
<g opacity="0.1">
<path d="M130.001 170.373L130.01 172.285L103.145 185.72V183.808L130.001 170.373Z" fill="white"/>
<path d="M144.729 159.458V161.379L103.135 182.187V180.275L144.729 159.458Z" fill="white"/>
<path d="M144.708 155.926L144.718 157.838L103.123 178.647L103.113 176.735L144.708 155.926Z" fill="white"/>
<path d="M144.69 148.853L144.7 150.774L103.106 171.582L103.096 169.661L144.69 148.853Z" fill="white"/>
<path d="M144.698 152.394L144.708 154.305L103.113 175.114L103.104 173.202L144.698 152.394Z" fill="white"/>
</g>
<g opacity="0.4">
<path d="M138.457 136.49V138.402L103.055 156.124L103.045 154.212L138.457 136.49Z" fill="white"/>
<path d="M140.967 142.303L140.977 144.223L103.072 163.197L103.062 161.276L140.967 142.303Z" fill="white"/>
<path d="M128.004 145.261L128.013 147.173L103.067 159.656L103.057 157.744L128.004 145.261Z" fill="white"/>
<path d="M144.632 129.863V131.775L103.037 152.592V150.68L144.632 129.863Z" fill="white"/>
</g>
<g opacity="0.4">
<path d="M144.913 219.148L144.923 221.06L103.328 241.877L103.318 239.965L144.913 219.148Z" fill="white"/>
<path d="M122.884 233.715L122.894 235.627L103.338 245.41V243.498L122.884 233.715Z" fill="white"/>
<path d="M134.44 220.854L134.45 222.766L103.32 238.344L103.311 236.432L134.44 220.854Z" fill="white"/>
<path d="M144.891 212.075L144.901 213.995L103.307 234.812L103.297 232.892L144.891 212.075Z" fill="white"/>
</g>
<path d="M81.2109 163.575L81.2208 167.261L53.0294 181.339L53.0195 177.653L81.2109 163.575Z" fill="#BA68C8"/>
<path d="M77.3072 172.56L77.3171 174.394L53.0527 186.509V184.674L77.3072 172.56Z" fill="white"/>
<path d="M88.4666 239.64L88.4765 243.318L78.0704 248.531L78.0605 244.852L88.4666 239.64Z" fill="#BA68C8"/>
<path d="M68.2946 210.13L68.3045 213.808L53.1702 221.361L53.1504 217.683L68.2946 210.13Z" fill="#BA68C8"/>
<path d="M77.5163 237.746L77.5262 239.589L53.2618 251.704L53.252 249.869L77.5163 237.746Z" fill="white"/>
<path d="M81.4355 232.387L81.4454 234.222L53.254 248.3L53.2441 246.465L81.4355 232.387Z" fill="white"/>
<path d="M88.2312 225.572L88.2411 227.415L53.2344 244.905V243.054L88.2312 225.572Z" fill="white"/>
<path d="M81.4062 221.961L81.4161 225.64L53.2247 239.726L53.2148 236.039L81.4062 221.961Z" fill="#BA68C8"/>
<path d="M83.9191 212.753V214.588L53.1954 229.943L53.1855 228.1L83.9191 212.753Z" fill="white"/>
<path d="M78.1979 212.205V214.048L53.1719 226.54V224.705L78.1979 212.205Z" fill="white"/>
<path d="M88.1566 200.192L88.1665 203.87L71.2814 212.324L71.2715 208.637L88.1566 200.192Z" fill="#BA68C8"/>
<path d="M79.8446 193.008L79.8545 194.852L53.1172 208.201V206.358L79.8446 193.008Z" fill="white"/>
<path d="M82.4815 195.1L82.4914 196.943L53.1328 211.604V209.761L82.4815 195.1Z" fill="white"/>
<path d="M85.8054 186.63V188.465L53.1133 204.798V202.963L85.8054 186.63Z" fill="white"/>
<path d="M81.2714 181.863L81.2912 185.541L53.0999 199.619L53.0801 195.941L81.2714 181.863Z" fill="#BA68C8"/>
<path d="M69.2137 180.02V181.854L53.0605 189.914V188.079L69.2137 180.02Z" fill="white"/>
<path d="M84.1884 252.219L84.1983 254.062L53.3263 269.478L53.3164 267.643L84.1884 252.219Z" fill="white"/>
<path d="M79.393 251.207V253.05L53.3086 266.082V264.23L79.393 251.207Z" fill="white"/>
<path d="M74.0616 246.852L74.0814 250.53L53.299 260.904L53.2891 257.217L74.0616 246.852Z" fill="#BA68C8"/>
<path d="M169.376 272.203C170.927 273.781 173.289 274.456 175.538 274.397C177.795 274.338 179.974 273.638 182.057 272.802C184.14 271.976 186.763 269.647 189.012 269.689C191.095 269.731 193.552 269.47 195.609 269.25C195.81 264.846 194.668 260.602 194.668 260.602L184.14 260.332C181.298 264.104 175.773 267.234 171.589 268.415C170.247 268.795 169.254 269.849 168.992 271.098C169.001 271.123 168.992 271.14 169.001 271.166C169.158 271.815 169.376 272.203 169.376 272.203Z" fill="#37474F"/>
<path d="M189.022 269.689C186.764 269.647 184.15 271.967 182.067 272.803C179.984 273.629 177.796 274.338 175.548 274.397C173.29 274.456 170.937 273.781 169.386 272.204C169.386 272.204 169.168 271.815 169.02 271.166C169.011 271.14 169.02 271.124 169.011 271.098C168.924 271.537 168.915 271.993 169.02 272.457C169.168 273.106 169.386 273.494 169.386 273.494C170.937 275.072 173.299 275.747 175.548 275.688C177.805 275.629 179.984 274.929 182.067 274.093C184.15 273.267 186.773 270.938 189.022 270.98C191.34 271.022 193.345 270.845 195.515 270.617C195.567 270.162 195.593 269.706 195.619 269.25C193.562 269.47 191.105 269.731 189.022 269.689Z" fill="#263238"/>
<path d="M221.453 277.873C221.444 278.986 221.366 280.1 221.113 281.189C220.677 283.095 219.666 284.952 217.984 286.023C216.528 286.951 214.742 287.204 213.007 287.306C211.474 287.398 209.896 287.373 208.458 286.85C207.369 286.453 206.366 285.711 205.791 284.741C205.791 284.758 205.8 284.783 205.8 284.8C206.14 286.251 207.43 287.365 208.868 287.888C210.306 288.411 211.883 288.436 213.417 288.343C215.151 288.242 216.947 287.989 218.394 287.061C220.076 285.989 221.087 284.133 221.522 282.226C221.775 281.138 221.854 280.024 221.862 278.91C221.871 277.366 222.533 275.915 223.701 274.861C223.98 274.607 224.259 274.337 224.503 274.059C224.861 273.662 225.035 273.139 224.991 272.616C224.974 272.414 224.956 272.211 224.922 272.009C224.512 272.481 223.527 273.595 223.283 273.823C222.133 274.877 221.47 276.329 221.453 277.873Z" fill="#263238"/>
<path d="M212.816 266.322C213.252 268.575 212.825 270.921 211.936 273.047C211.047 275.165 209.705 277.08 208.258 278.902C207.57 279.771 206.846 280.632 206.332 281.619C205.835 282.589 205.556 283.703 205.783 284.758C206.349 285.728 207.352 286.462 208.45 286.867C209.888 287.39 211.465 287.416 212.999 287.323C214.734 287.221 216.529 286.968 217.976 286.04C219.658 284.969 220.669 283.113 221.105 281.206C221.357 280.117 221.436 279.004 221.445 277.89C221.453 276.346 222.116 274.895 223.284 273.831C223.528 273.612 224.504 272.49 224.922 272.017C224.547 269.275 223.231 267.326 223.231 267.326L212.816 266.322Z" fill="#37474F"/>
<path d="M183.714 170.989C183.714 170.989 181.047 204.84 181.282 214.256C181.518 223.672 182.494 260.889 182.494 260.889C187.941 263.968 195.82 261.673 195.82 261.673C196.456 231.966 199.35 225.579 197.38 214.703C198.766 206.628 200.683 187.822 200.683 187.822C203.402 210.442 205.372 222.102 205.372 222.102L211.856 267.385C217.181 270.077 223.901 267.385 223.901 267.385C223.901 241.576 224.476 230.649 221.705 213.615C221.557 187.383 220.188 171.445 220.188 171.445L183.714 170.989Z" fill="#455A64"/>
<path opacity="0.2" d="M190.154 179.739C192.011 184.151 197.841 184.151 197.841 184.151L198.887 189.163L198.495 206.991C199.611 198.318 200.683 187.83 200.683 187.83L199.968 182.464C195.061 182.65 191.496 180.785 190.154 179.739Z" fill="black"/>
<path d="M166.093 133.19L161.918 136.81L150.361 124.812C149.246 123.647 148.453 122.222 148.069 120.678L147.415 118.011C147.241 117.311 146.971 116.645 146.596 116.029C146.03 115.092 145.428 114.147 144.914 113.211C144.748 112.915 144.565 112.612 144.26 112.468C143.903 112.308 143.45 112.443 143.18 112.73C142.909 113.016 142.805 113.413 142.814 113.793C142.822 114.172 142.918 114.552 143.023 114.923C143.18 115.497 143.345 116.071 143.502 116.645C143.572 116.881 143.633 117.125 143.624 117.37C143.607 117.615 143.502 117.868 143.284 118.003C142.787 118.29 135.658 111.886 134.473 108.958C134.15 108.173 131.597 108.629 133.139 111.835C132.547 112.232 132.364 112.949 132.32 113.649C132.268 114.518 132.224 115.396 132.172 116.265C132.128 117.125 132.076 117.995 132.268 118.838C132.555 120.095 133.349 121.184 134.22 122.154C135.824 123.951 137.837 125.225 140.025 126.17C141.689 126.887 143.119 128.035 144.13 129.503L155.181 145.635C157.761 149.407 163.138 150.208 166.772 147.356L172.612 142.783L166.093 133.19Z" fill="#FFA8A7"/>
<path d="M186.111 118.155C180.437 117.842 178.956 120.711 175.365 123.943C171.783 127.174 165.037 133.46 165.037 133.46C166.153 141.18 172.515 143.694 172.515 143.694L185.004 134.776L186.111 118.155Z" fill="#455A64"/>
<path d="M221.112 173.554C221.112 173.554 199.96 181.047 182.79 171.706C182.79 171.706 183.836 159.793 184.141 152.849C184.446 145.905 181.98 132.498 181.605 128.904C181.23 125.31 181.727 119.091 186.102 118.146C194.216 116.484 209.477 118.146 209.477 118.146L218.585 127.892C222.419 146.926 221.766 166.914 221.112 173.554Z" fill="#BA68C8"/>
<path opacity="0.3" d="M221.112 173.554C221.112 173.554 199.96 181.047 182.79 171.706C182.79 171.706 183.836 159.793 184.141 152.849C184.446 145.905 181.98 132.498 181.605 128.904C181.23 125.31 181.727 119.091 186.102 118.146C194.216 116.484 209.477 118.146 209.477 118.146L218.585 127.892C222.419 146.926 221.766 166.914 221.112 173.554Z" fill="white"/>
<path d="M167.512 169.133C167.512 169.124 167.512 169.124 167.512 169.116C167.512 169.107 167.512 169.099 167.512 169.091C167.512 169.074 167.503 169.065 167.503 169.048C167.503 169.032 167.494 169.023 167.494 169.006C167.486 168.989 167.486 168.981 167.477 168.964C167.468 168.947 167.468 168.939 167.46 168.922C167.451 168.905 167.451 168.897 167.442 168.88C167.433 168.863 167.425 168.854 167.416 168.837L159.006 153.262C158.997 153.245 158.988 153.237 158.979 153.22C158.971 153.203 158.962 153.186 158.953 153.169C158.945 153.152 158.936 153.136 158.927 153.119C158.918 153.102 158.91 153.085 158.892 153.068C158.884 153.051 158.866 153.034 158.857 153.018C158.849 153.001 158.831 152.984 158.823 152.967C158.814 152.95 158.796 152.933 158.788 152.916C158.779 152.899 158.762 152.882 158.753 152.866C158.744 152.849 158.727 152.832 158.718 152.823C158.709 152.807 158.692 152.798 158.683 152.781C158.674 152.773 158.666 152.756 158.657 152.748C158.648 152.739 158.64 152.722 158.622 152.714C158.613 152.705 158.605 152.697 158.596 152.688C158.587 152.68 158.579 152.672 158.57 152.663C158.561 152.655 158.552 152.646 158.544 152.638C158.535 152.629 158.526 152.621 158.518 152.613C158.509 152.604 158.509 152.596 158.5 152.596C158.491 152.587 158.491 152.587 158.483 152.579C158.474 152.57 158.474 152.57 158.465 152.562C158.457 152.553 158.457 152.553 158.448 152.545C158.439 152.537 158.439 152.537 158.43 152.528C158.422 152.52 158.422 152.52 158.413 152.511C158.404 152.503 158.404 152.503 158.396 152.494C158.387 152.486 158.387 152.486 158.378 152.478C158.369 152.469 158.369 152.469 158.361 152.461C158.352 152.452 158.352 152.452 158.343 152.444C158.335 152.435 158.335 152.435 158.326 152.427C158.317 152.418 158.317 152.418 158.308 152.41C158.3 152.402 158.3 152.402 158.291 152.393C158.282 152.385 158.282 152.385 158.274 152.376C158.265 152.368 158.265 152.368 158.256 152.359C158.247 152.351 158.247 152.351 158.239 152.343C158.23 152.334 158.23 152.334 158.221 152.326C158.212 152.317 158.204 152.309 158.195 152.3C158.186 152.292 158.178 152.283 158.16 152.267C158.151 152.258 158.143 152.25 158.125 152.233C158.082 152.199 158.047 152.157 158.003 152.123C157.995 152.115 157.986 152.106 157.977 152.098C157.968 152.089 157.96 152.081 157.951 152.073C157.942 152.064 157.934 152.056 157.925 152.047C157.916 152.039 157.907 152.03 157.899 152.022C157.89 152.013 157.89 152.013 157.881 152.005C157.873 151.997 157.873 151.997 157.864 151.988C157.855 151.98 157.855 151.98 157.846 151.971C157.838 151.963 157.838 151.963 157.829 151.954C157.82 151.946 157.82 151.946 157.812 151.938C157.803 151.929 157.803 151.929 157.794 151.921C157.785 151.912 157.785 151.912 157.777 151.904C157.768 151.895 157.768 151.895 157.759 151.887C157.751 151.878 157.751 151.878 157.742 151.87C157.733 151.862 157.733 151.862 157.724 151.853C157.716 151.845 157.716 151.845 157.707 151.836C157.698 151.828 157.698 151.828 157.69 151.819C157.681 151.811 157.681 151.811 157.672 151.803C157.663 151.794 157.655 151.794 157.655 151.786C157.646 151.777 157.637 151.777 157.637 151.769C157.629 151.76 157.62 151.76 157.62 151.752C157.611 151.743 157.602 151.743 157.602 151.735C157.594 151.727 157.585 151.727 157.585 151.718C157.576 151.71 157.568 151.701 157.559 151.701C157.55 151.693 157.541 151.684 157.533 151.684C157.524 151.676 157.515 151.668 157.507 151.668C157.498 151.659 157.489 151.651 157.472 151.642C157.454 151.634 157.446 151.625 157.428 151.617C157.411 151.608 157.402 151.6 157.385 151.592C157.367 151.583 157.35 151.575 157.341 151.558C157.324 151.549 157.306 151.533 157.289 151.524C157.271 151.516 157.254 151.499 157.236 151.49C157.219 151.482 157.202 151.465 157.184 151.457C157.175 151.448 157.158 151.448 157.149 151.44L147.336 145.955C147.327 145.947 147.318 145.947 147.309 145.939C147.292 145.93 147.275 145.922 147.248 145.905C147.231 145.896 147.214 145.888 147.196 145.88C147.179 145.871 147.161 145.863 147.144 145.854C147.126 145.846 147.109 145.837 147.092 145.829C147.074 145.82 147.057 145.812 147.039 145.804C147.022 145.795 147.004 145.787 146.987 145.787C146.97 145.778 146.952 145.77 146.935 145.77C146.917 145.761 146.9 145.761 146.882 145.753C146.865 145.745 146.847 145.745 146.83 145.736C146.821 145.736 146.804 145.728 146.795 145.728C146.786 145.728 146.786 145.728 146.778 145.728C146.76 145.728 146.734 145.719 146.717 145.719C146.691 145.719 146.673 145.719 146.647 145.719C146.577 145.719 146.534 145.745 146.499 145.778L145.305 147.069C145.314 147.061 145.34 147.069 145.348 147.061C145.253 147.128 145.244 147.28 145.383 147.542L153.794 163.117C154.099 163.674 154.927 164.467 155.668 164.88L165.481 170.365C165.987 170.651 166.292 170.66 166.335 170.457C166.327 170.483 166.335 170.525 166.318 170.542L167.512 169.251C167.529 169.234 167.538 169.217 167.547 169.192C167.556 169.175 167.556 169.158 167.556 169.141C167.512 169.167 167.512 169.15 167.512 169.133ZM145.497 147.078C145.523 147.078 145.531 147.061 145.566 147.069C145.575 147.069 145.592 147.078 145.601 147.086C145.558 147.069 145.531 147.078 145.497 147.078ZM156.748 153.372C156.835 153.448 156.931 153.515 157.018 153.6C156.931 153.524 156.835 153.448 156.748 153.372ZM157.358 153.962C157.393 154.005 157.446 154.047 157.48 154.089C157.437 154.047 157.393 154.005 157.358 153.962ZM166.309 170.432C166.309 170.348 166.274 170.246 166.205 170.12C166.266 170.23 166.3 170.331 166.309 170.407C166.318 170.424 166.309 170.424 166.309 170.432Z" fill="#455A64"/>
<path opacity="0.15" d="M167.515 169.133C167.515 169.124 167.515 169.124 167.515 169.116C167.515 169.107 167.515 169.099 167.515 169.091C167.515 169.074 167.506 169.065 167.506 169.048C167.506 169.032 167.497 169.023 167.497 169.006C167.489 168.989 167.489 168.981 167.48 168.964C167.471 168.947 167.471 168.939 167.463 168.922C167.454 168.905 167.454 168.897 167.445 168.88C167.436 168.863 167.428 168.854 167.419 168.837L159.008 153.262L157.814 154.553L166.225 170.128C166.286 170.238 166.321 170.339 166.329 170.415C166.338 170.491 166.329 170.55 166.286 170.592L167.48 169.302C167.497 169.285 167.506 169.268 167.515 169.242C167.524 169.226 167.524 169.209 167.524 169.192C167.515 169.167 167.515 169.15 167.515 169.133Z" fill="white"/>
<path opacity="0.2" d="M158.97 153.212C158.961 153.195 158.952 153.178 158.943 153.161C158.935 153.144 158.926 153.127 158.917 153.11C158.909 153.094 158.9 153.077 158.882 153.06C158.874 153.043 158.856 153.026 158.848 153.009C158.839 152.992 158.821 152.975 158.813 152.959C158.804 152.942 158.786 152.925 158.778 152.908C158.769 152.891 158.752 152.874 158.743 152.857C158.734 152.84 158.717 152.824 158.708 152.815C158.699 152.798 158.682 152.79 158.673 152.773C158.664 152.765 158.656 152.748 158.647 152.739C158.638 152.731 158.63 152.714 158.612 152.705C158.603 152.697 158.595 152.689 158.586 152.68C158.577 152.672 158.569 152.663 158.56 152.655C158.551 152.646 158.542 152.638 158.534 152.63C158.525 152.621 158.516 152.613 158.508 152.604C158.499 152.596 158.499 152.587 158.49 152.587C158.481 152.579 158.481 152.579 158.473 152.57C158.464 152.562 158.464 152.562 158.455 152.554C158.447 152.545 158.447 152.545 158.438 152.537C158.429 152.528 158.429 152.528 158.42 152.52C158.412 152.511 158.412 152.511 158.403 152.503C158.394 152.495 158.394 152.495 158.386 152.486C158.377 152.478 158.377 152.478 158.368 152.469C158.359 152.461 158.359 152.461 158.351 152.452C158.342 152.444 158.342 152.444 158.333 152.435C158.325 152.427 158.325 152.427 158.316 152.419C158.307 152.41 158.307 152.41 158.298 152.402C158.29 152.393 158.29 152.393 158.281 152.385C158.272 152.376 158.272 152.376 158.264 152.368C158.255 152.36 158.255 152.36 158.246 152.351C158.237 152.343 158.237 152.343 158.229 152.334C158.22 152.326 158.22 152.326 158.211 152.317C158.203 152.309 158.194 152.3 158.185 152.292C158.176 152.284 158.168 152.275 158.15 152.258C158.142 152.25 158.133 152.241 158.115 152.225C158.072 152.191 158.037 152.149 157.993 152.115C157.985 152.106 157.976 152.098 157.967 152.09C157.959 152.081 157.95 152.073 157.941 152.064C157.932 152.056 157.924 152.047 157.915 152.039C157.906 152.03 157.898 152.022 157.889 152.014C157.88 152.005 157.88 152.005 157.871 151.997C157.863 151.988 157.863 151.988 157.854 151.98C157.845 151.971 157.845 151.971 157.837 151.963C157.828 151.955 157.828 151.955 157.819 151.946C157.81 151.938 157.81 151.938 157.802 151.929C157.793 151.921 157.793 151.921 157.784 151.912C157.775 151.904 157.776 151.904 157.767 151.895C157.758 151.887 157.758 151.887 157.749 151.879C157.741 151.87 157.741 151.87 157.732 151.862C157.723 151.853 157.723 151.853 157.715 151.845C157.706 151.836 157.706 151.836 157.697 151.828C157.688 151.82 157.688 151.82 157.68 151.811C157.671 151.803 157.671 151.803 157.662 151.794C157.653 151.786 157.645 151.786 157.645 151.777C157.636 151.769 157.627 151.769 157.627 151.76C157.619 151.752 157.61 151.752 157.61 151.744C157.601 151.735 157.592 151.735 157.592 151.727C157.584 151.718 157.575 151.718 157.575 151.71C157.566 151.701 157.558 151.693 157.549 151.693C157.54 151.685 157.531 151.676 157.523 151.676C157.514 151.668 157.505 151.659 157.497 151.659C157.488 151.651 157.479 151.642 157.462 151.634C157.444 151.625 157.436 151.617 157.418 151.609C157.401 151.6 157.392 151.592 157.375 151.583C157.357 151.575 157.34 151.566 157.331 151.55C157.314 151.541 157.296 151.524 157.279 151.516C157.261 151.507 157.244 151.49 157.226 151.482C157.209 151.474 157.192 151.457 157.174 151.448C157.165 151.44 157.148 151.44 157.139 151.431L147.326 145.947C147.317 145.939 147.308 145.939 147.299 145.93C147.282 145.922 147.265 145.913 147.238 145.897C147.221 145.888 147.204 145.88 147.186 145.871C147.169 145.863 147.151 145.854 147.134 145.846C147.116 145.838 147.099 145.829 147.082 145.821C147.064 145.812 147.047 145.804 147.029 145.795C147.012 145.787 146.994 145.778 146.977 145.778C146.96 145.77 146.942 145.762 146.925 145.762C146.907 145.753 146.89 145.753 146.872 145.745C146.855 145.736 146.838 145.736 146.82 145.728C146.811 145.728 146.794 145.719 146.785 145.719C146.777 145.719 146.777 145.719 146.768 145.719C146.75 145.719 146.724 145.711 146.707 145.711C146.681 145.711 146.663 145.711 146.637 145.711C146.567 145.711 146.524 145.736 146.489 145.77L145.295 147.061C145.347 147.002 145.452 146.985 145.591 147.019C145.731 147.052 145.914 147.12 146.132 147.247L155.945 152.731C156.128 152.832 156.311 152.959 156.503 153.102C156.686 153.245 156.869 153.397 157.043 153.558C157.209 153.718 157.366 153.878 157.505 154.039C157.636 154.199 157.749 154.359 157.828 154.494L159.022 153.203C158.978 153.237 158.978 153.229 158.97 153.212Z" fill="white"/>
<path d="M159.54 169.057C156.219 167.041 153.744 163.109 154.249 159.346C154.249 159.346 160.446 162.501 163.226 160.814L161.797 158.173C165.588 158.173 169.711 159.447 172.587 161.843C178.374 160.991 184.387 159.118 189.808 157.009C191.447 156.367 193.068 155.676 194.785 155.287C196.502 154.899 198.35 154.823 199.997 155.431C201.644 156.03 203.065 157.397 203.378 159.076C203.701 160.822 202.795 162.619 201.444 163.818C200.101 165.024 198.367 165.724 196.641 166.323C189.503 168.804 162.86 171.065 159.54 169.057Z" fill="#FFA8A7"/>
<path d="M179.426 102.596C177.701 101.398 176.472 99.5674 176.027 97.5594C175.591 95.5513 175.958 93.3913 177.03 91.6195C176.097 91.1892 175.191 90.4636 174.764 89.5524C174.354 88.6749 174.554 87.5612 175.252 86.8693C175.949 86.1774 177.091 85.9496 178.006 86.3293C177.43 84.9625 178.093 83.1063 179.409 82.3638C180.725 81.6213 182.573 81.9503 183.531 83.0978C183.47 82.1613 184.141 81.2585 185.065 80.9632C185.989 80.6679 187 80.8282 187.924 81.1404C188.839 81.4441 189.711 81.8828 190.634 82.1697C192.194 82.6506 193.868 82.6591 195.498 82.7688C197.127 82.8785 198.818 83.1231 200.195 83.9837C201.572 84.8443 202.784 86.8609 202.043 88.5989C202.505 88.0336 203.246 87.6202 203.995 87.5949C204.745 87.5696 205.494 87.8818 206 88.4218C204.98 89.0377 203.987 89.6958 202.967 90.3117C203.995 89.8645 205.529 90.5648 206.087 91.5183C206.645 92.4717 206.671 93.6191 206.636 94.7076C206.514 98.8587 205.73 102.985 204.37 106.925C203.673 108.958 202.662 111.118 200.666 112.063L179.426 102.596Z" fill="#37474F"/>
<path d="M190.287 112.409L190.74 117.278C190.775 117.657 190.653 118.02 190.452 118.349C189.886 119.302 190.06 120.83 190.897 121.53C191.507 122.045 192.344 122.213 193.146 122.264C196.248 122.483 199.412 121.184 201.46 119.159C201.905 118.72 202.131 118.113 202.123 117.488L201.791 105.136L190.287 112.409Z" fill="#FFA8A7"/>
<path opacity="0.3" d="M200.772 105.786L190.287 112.409L190.688 116.729C193.128 116.172 195.577 115.497 197.512 113.979C199.961 112.038 201.234 108.815 200.772 105.786Z" fill="black"/>
<path d="M178.853 92.556C178.086 98.1837 178.469 103.963 179.986 109.447C180.317 110.646 180.709 111.852 181.372 112.915C182.034 113.978 182.993 114.915 184.204 115.345C185.686 115.885 187.333 115.624 188.884 115.354C191.734 114.864 194.654 114.358 197.129 112.907C199.604 111.456 201.565 108.84 201.321 106.047C202.759 106.849 204.581 107.06 206.054 106.3C207.518 105.541 208.529 104.022 208.651 102.419C208.764 100.858 207.832 99.1202 206.246 98.808C205.278 98.6224 204.267 98.9937 203.492 99.5843C202.716 100.175 202.141 100.976 201.574 101.753C201.304 102.124 201.016 102.512 200.615 102.748C200.215 102.984 199.648 103.027 199.291 102.731C198.899 102.411 198.89 101.837 198.916 101.339L199.082 97.804C199.108 97.2471 198.785 96.7409 198.271 96.4878C197.53 96.125 196.955 95.45 196.632 94.6653C196.354 93.9903 196.232 93.2647 196.171 92.5391C196.118 91.9485 195.508 91.5773 194.942 91.7966C190.017 93.7288 183.908 93.8131 178.853 92.556Z" fill="#FFA8A7"/>
<path d="M186.893 101.137L183.607 106.486L187.521 107.203L186.893 101.137Z" fill="#F28F8F"/>
<path d="M191.292 109.042C190.299 109.507 189.305 109.979 188.32 110.443C188.756 111.101 189.846 111.38 190.578 111.067C191.31 110.747 191.51 109.793 191.292 109.042Z" fill="#F28F8F"/>
<path opacity="0.3" d="M191.292 109.042C190.299 109.507 189.305 109.979 188.32 110.443C188.756 111.101 189.846 111.38 190.578 111.067C191.31 110.747 191.51 109.793 191.292 109.042Z" fill="black"/>
<path d="M189.543 111.16C189.9 111.219 190.266 111.203 190.58 111.068C191.155 110.814 191.399 110.173 191.373 109.549C190.955 109.549 190.528 109.684 190.197 109.945C189.822 110.241 189.595 110.688 189.543 111.16Z" fill="#F28F8F"/>
<path d="M192.559 101.348C192.62 101.947 192.167 102.478 191.557 102.537C190.938 102.596 190.389 102.158 190.328 101.567C190.267 100.968 190.72 100.437 191.33 100.377C191.949 100.31 192.498 100.749 192.559 101.348Z" fill="#263238"/>
<path d="M183.127 101.913C183.188 102.512 182.735 103.043 182.125 103.102C181.506 103.161 180.957 102.723 180.896 102.132C180.835 101.533 181.288 101.001 181.898 100.942C182.517 100.875 183.066 101.314 183.127 101.913Z" fill="#263238"/>
<path d="M181.594 97.7112C180.827 98.344 180.052 98.9768 179.285 99.618C178.98 99.0696 179.136 98.3102 179.59 97.8715C180.043 97.4243 181.028 97.4159 181.594 97.7112Z" fill="#263238"/>
<path d="M191.166 96.6396C192.055 97.112 192.935 97.5845 193.816 98.057C193.999 97.4664 193.685 96.7492 193.153 96.4033C192.622 96.0658 191.654 96.243 191.166 96.6396Z" fill="#263238"/>
<path d="M198.559 144.285L193.486 156.933L199.073 165.362C207.213 161.784 205.54 162.797 211.17 149.634L198.559 144.285Z" fill="#FFA8A7"/>
<path d="M209.48 118.155C203.37 125.141 201.087 137.147 197.932 144.867C201.453 151.33 211.284 150.706 211.284 150.706C220.287 132.566 224.096 118.889 209.48 118.155Z" fill="#455A64"/>
</svg>
