<svg width="325" height="325" viewBox="0 0 325 325" fill="none" xmlns="http://www.w3.org/2000/svg">
<path d="M162.499 309.173C248.53 309.173 318.272 272.292 318.272 226.798C318.272 181.304 248.53 144.424 162.499 144.424C76.4683 144.424 6.72656 181.304 6.72656 226.798C6.72656 272.292 76.4683 309.173 162.499 309.173Z" fill="#F5F5F5"/>
<path d="M75.9068 262.626C101.969 262.626 123.097 250.427 123.097 235.378C123.097 220.329 101.969 208.13 75.9068 208.13C49.8445 208.13 28.7168 220.329 28.7168 235.378C28.7168 250.427 49.8445 262.626 75.9068 262.626Z" fill="#E0E0E0"/>
<path d="M251.583 270.153C277.351 270.153 298.24 258.062 298.24 243.146C298.24 228.23 277.351 216.138 251.583 216.138C225.815 216.138 204.926 228.23 204.926 243.146C204.926 258.062 225.815 270.153 251.583 270.153Z" fill="#E0E0E0"/>
<path d="M273.415 209.144C273.415 209.144 271.264 198.432 273.812 188.754C276.36 179.075 281.787 171.802 288.196 169.156C294.605 166.511 301.846 170.853 296.165 177.288C290.484 183.723 279.343 192.01 278.615 209.443L273.415 209.144Z" fill="#BA68C8"/>
<path opacity="0.15" d="M273.415 209.144C273.415 209.144 271.264 198.432 273.812 188.754C276.36 179.075 281.787 171.802 288.196 169.156C294.605 166.511 301.846 170.853 296.165 177.288C290.484 183.723 279.343 192.01 278.615 209.443L273.415 209.144Z" fill="black"/>
<path d="M274.476 205.836H274.404C274.355 205.832 274.308 205.819 274.264 205.798C274.22 205.776 274.181 205.746 274.149 205.709C274.117 205.672 274.093 205.629 274.078 205.583C274.062 205.537 274.056 205.488 274.06 205.439C275.49 186.076 286.41 174.662 291.961 171.327C292.003 171.302 292.05 171.286 292.099 171.28C292.148 171.273 292.198 171.276 292.246 171.289C292.293 171.302 292.338 171.324 292.377 171.354C292.416 171.384 292.449 171.421 292.474 171.464C292.499 171.506 292.515 171.553 292.521 171.602C292.528 171.651 292.525 171.701 292.512 171.749C292.499 171.796 292.478 171.841 292.448 171.88C292.418 171.919 292.38 171.952 292.338 171.977C286.884 175.227 276.205 186.446 274.788 205.511C274.779 205.592 274.743 205.667 274.687 205.726C274.63 205.785 274.556 205.823 274.476 205.836Z" fill="white"/>
<path d="M279.278 219.98C279.114 218.21 278.646 216.481 277.894 214.871C277.12 213.142 275.697 211.621 275.248 209.755C274.998 208.127 275.402 206.465 276.373 205.134C277.276 203.866 278.589 202.846 279.077 201.37C279.564 199.895 279.077 198.211 279.155 196.619C279.232 194.858 279.991 193.195 281.27 191.983C282.549 190.77 284.25 190.102 286.012 190.119C287.65 190.119 289.217 190.769 290.796 191.185C292.382 191.707 294.093 191.707 295.678 191.185C297.387 190.508 299.148 189.969 300.943 189.573C304.011 188.988 308.093 189.28 309.757 192.335C310.21 193.074 310.409 193.942 310.322 194.805V194.916C309.854 197.288 307.144 198.283 305.545 199.713C305.109 200.103 304.368 200.681 304.297 201.318C304.225 201.955 304.895 202.67 305.259 203.177C306.188 204.477 307.397 205.66 307.794 207.253C308.366 209.541 306.864 212.128 305.116 213.486C303.385 214.713 301.373 215.482 299.266 215.722C298.226 215.878 297.082 216.002 296.354 216.762C296.058 217.112 295.838 217.52 295.71 217.96C295.581 218.4 295.546 218.862 295.606 219.317C295.665 220.233 295.925 221.124 296.009 222.034C296.108 223.485 295.815 224.935 295.161 226.234C294.507 227.533 293.516 228.633 292.291 229.418C290.241 230.685 287.786 231.129 285.421 230.659C283.471 230.302 281.521 228.43 280.812 226.603C280 224.476 279.484 222.247 279.278 219.98Z" fill="#BA68C8"/>
<path d="M281.032 225.108C280.986 225.112 280.94 225.106 280.896 225.091C280.853 225.076 280.813 225.052 280.779 225.021C280.744 224.99 280.717 224.952 280.698 224.91C280.679 224.868 280.669 224.823 280.668 224.777C279.544 202.93 299.752 193.187 304.816 191.945C304.905 191.925 304.999 191.94 305.078 191.987C305.156 192.035 305.214 192.11 305.238 192.199C305.26 192.288 305.245 192.383 305.198 192.462C305.151 192.541 305.074 192.598 304.985 192.621C300.032 193.837 280.285 203.366 281.357 224.744C281.361 224.835 281.329 224.924 281.268 224.992C281.208 225.06 281.123 225.101 281.032 225.108Z" fill="white"/>
<path d="M301.248 207.35C301.178 207.359 301.107 207.346 301.046 207.311C298.547 206.249 295.845 205.751 293.131 205.853C290.418 205.955 287.76 206.655 285.349 207.903C285.306 207.923 285.26 207.935 285.212 207.938C285.165 207.94 285.118 207.933 285.073 207.918C285.028 207.902 284.987 207.878 284.952 207.846C284.917 207.815 284.888 207.776 284.868 207.734C284.847 207.691 284.835 207.645 284.833 207.597C284.83 207.55 284.837 207.503 284.852 207.458C284.868 207.413 284.892 207.372 284.924 207.337C284.956 207.302 284.994 207.273 285.037 207.253C287.546 205.956 290.312 205.231 293.135 205.13C295.958 205.029 298.768 205.554 301.365 206.668C301.446 206.711 301.507 206.784 301.535 206.871C301.563 206.959 301.555 207.054 301.514 207.136C301.492 207.192 301.456 207.241 301.409 207.278C301.363 207.316 301.307 207.341 301.248 207.35Z" fill="white"/>
<path d="M49.9239 200.291C50.7104 195.26 50.3984 186.602 46.5114 177.509C42.3514 167.759 36.1114 160.804 29.9559 161.909C24.2294 162.916 24.4764 170.541 31.7044 179.745C36.7744 186.199 42.5724 193.499 44.1909 202.118L46.6219 214.078L49.9239 200.291Z" fill="#BA68C8"/>
<g opacity="0.15">
<path d="M49.9239 200.291C50.7104 195.26 50.3984 186.602 46.5114 177.509C42.3514 167.759 36.1114 160.804 29.9559 161.909C24.2294 162.916 24.4764 170.541 31.7044 179.745C36.7744 186.199 42.5724 193.499 44.1909 202.118L46.6219 214.078L49.9239 200.291Z" fill="black"/>
</g>
<path d="M48.5208 203.938C48.4493 203.919 48.3852 203.879 48.3365 203.823C48.2879 203.768 48.257 203.699 48.2478 203.626C46.5643 188.741 39.5313 172.426 31.9003 165.62C31.8339 165.551 31.7969 165.459 31.7969 165.363C31.7969 165.268 31.8339 165.176 31.9003 165.107C31.933 165.072 31.9724 165.045 32.0159 165.026C32.0595 165.008 32.1064 164.998 32.1538 164.998C32.2011 164.998 32.248 165.008 32.2916 165.026C32.3351 165.045 32.3745 165.072 32.4073 165.107C40.1618 171.99 47.2923 188.507 48.9953 203.567C49.0016 203.615 48.9983 203.663 48.9856 203.709C48.9729 203.755 48.9511 203.798 48.9214 203.836C48.8917 203.874 48.8547 203.905 48.8127 203.928C48.7707 203.951 48.7244 203.965 48.6768 203.97L48.5208 203.938Z" fill="white"/>
<path d="M43.588 227.071C43.185 227.207 42.756 227.279 42.288 227.429C40.2511 228.109 38.1376 228.535 35.996 228.696C31.797 228.943 27.377 228.046 24.0165 225.4C23.321 224.861 22.619 224.055 22.8465 223.21C23.0155 222.56 23.646 222.176 24.2245 221.851L32.603 217.191L22.3525 217.99C21.6836 218.091 21.0008 218.047 20.3505 217.861C19.4986 217.45 18.8112 216.762 18.4005 215.911C17.6638 214.667 17.1016 213.329 16.73 211.932C16.5285 211.165 16.4245 210.23 16.99 209.671C17.2841 209.42 17.6341 209.244 18.0105 209.157C21.5513 208.057 25.2025 207.351 28.898 207.051C25.362 205.68 21.5335 205.504 17.796 205.211C17.5277 205.21 17.2624 205.155 17.016 205.049C16.4245 204.75 16.2685 203.99 16.21 203.333C15.8265 199.011 16.938 194.597 17.3735 190.333C17.5165 188.942 17.6725 188.994 18.953 189.169C24.738 189.975 30.107 191.522 35.7295 192.965C36.3766 193.061 36.976 193.362 37.439 193.823C37.6386 194.148 37.7713 194.508 37.8294 194.885C37.8874 195.261 37.8696 195.645 37.777 196.014C37.4883 198.13 36.856 200.185 35.905 202.098C37.5172 200.714 38.8422 199.026 39.805 197.132C39.9825 196.645 40.3222 196.234 40.767 195.968C41.0612 195.899 41.3676 195.898 41.662 195.967C41.9564 196.036 42.2308 196.172 42.4635 196.365C49.958 201.097 50.036 210.385 48.541 218.159C48.4695 218.543 48.3915 218.926 48.3135 219.31C48.0675 220.886 47.5249 222.401 46.7145 223.775C46.138 224.759 45.4415 225.667 44.641 226.479C44.3394 226.754 43.9793 226.956 43.588 227.071Z" fill="#BA68C8"/>
<path d="M43.1272 228.111C43.0636 228.087 43.0079 228.046 42.9665 227.992C42.9252 227.938 42.8998 227.873 42.8932 227.806C41.8597 215.904 28.2682 197.392 22.2882 193.694C22.248 193.669 22.213 193.637 22.1853 193.598C22.1576 193.56 22.1377 193.517 22.1268 193.471C22.1159 193.425 22.1143 193.377 22.1219 193.331C22.1295 193.284 22.1463 193.24 22.1712 193.2C22.2233 193.119 22.3046 193.062 22.3979 193.04C22.4912 193.018 22.5894 193.034 22.6717 193.083C28.7492 196.84 42.5617 215.651 43.6147 227.741C43.6192 227.788 43.6141 227.836 43.5997 227.882C43.5854 227.927 43.5621 227.969 43.5312 228.006C43.5003 228.042 43.4624 228.072 43.4198 228.093C43.3773 228.115 43.3308 228.127 43.2832 228.131C43.2304 228.137 43.1768 228.13 43.1272 228.111Z" fill="white"/>
<path d="M190.909 81.614C189.68 80.8665 188.023 80.418 186.82 79.859C185.917 79.4365 184.721 79.092 184.376 78.0455C184.251 77.595 184.189 77.1288 184.194 76.661C184.2 76.1967 184.125 75.7349 183.973 75.296C183.799 74.982 183.658 74.6509 183.551 74.308C183.521 73.8673 183.58 73.4249 183.726 73.008C183.816 72.5996 183.78 72.1735 183.622 71.786C183.473 71.3425 183.446 70.8668 183.544 70.4092C183.643 69.9515 183.863 69.529 184.181 69.186C184.365 69.0193 184.53 68.8341 184.675 68.6335C184.942 68.1915 184.831 67.6195 184.968 67.119C185.559 64.8895 189.459 66.677 190.668 67.3855C191.013 67.587 192.735 68.536 193.502 68.9975C193.707 67.7356 194.104 66.5124 194.679 65.3705C195.719 63.141 198.28 62.7315 198.111 64.181C197.806 65.7695 197.684 67.3877 197.747 69.004C197.807 70.3178 197.987 71.6233 198.286 72.904C198.735 75.0998 199.404 77.2448 200.282 79.3065C201.881 83.07 209.759 94.081 209.759 94.081C213.659 91.8515 225.69 84.7275 230.474 81.8285C235.713 78.65 241.843 79.729 241.843 79.729L232.047 94.7895C232.047 94.7895 217.032 102.824 212.261 105.417C208.361 107.543 205.241 108.368 202.459 103.012C198.137 94.718 193.047 83.304 190.909 81.614Z" fill="#FFA8A7"/>
<path d="M192.399 69.4719C193.601 70.0309 193.842 70.9019 193.582 72.7219C193.426 73.7879 193.491 75.8029 194.557 76.7454C194.003 76.6142 193.501 76.3172 193.12 75.8939C192.646 75.2439 192.503 75.1789 192.158 75.4649C191.901 75.6486 191.605 75.7709 191.294 75.8224C191.463 76.0721 191.546 76.3696 191.532 76.6706C191.518 76.9717 191.407 77.2601 191.216 77.4929C190.566 78.3509 188.031 78.0584 186.113 76.7389C186.113 76.7389 189.311 78.1949 190.221 77.2329C191.131 76.2709 189.526 74.7174 188.271 74.1909C188.271 74.1909 191.391 75.3674 192.015 74.3729C192.639 73.3784 191.411 72.4229 189.578 71.6884C189.578 71.6884 192.178 72.5074 192.75 71.6884C193.393 70.6159 192.672 69.8814 192.399 69.4719Z" fill="#F28F8F"/>
<path d="M243.404 74.2364H247.954C249.964 74.2355 251.955 73.8384 253.811 73.0679C255.668 72.2974 257.355 71.1684 258.776 69.7456C260.196 68.3228 261.322 66.634 262.09 64.7758C262.857 62.9175 263.251 60.9263 263.248 58.9159C263.253 54.2543 261.408 49.7814 258.117 46.4797C254.826 43.178 250.36 41.3177 245.698 41.3074C243.493 41.2833 241.306 41.7135 239.274 42.5712C237.242 43.429 235.409 44.6958 233.888 46.2929L233.582 70.2974C233.582 70.2974 239.471 74.2364 243.404 74.2364Z" fill="#263238"/>
<path d="M253.873 43.6669L253.158 38.9219C252.843 38.9534 252.537 39.0489 252.26 39.2026C251.984 39.3562 251.741 39.5648 251.547 39.8155C251.354 40.0662 251.214 40.3538 251.135 40.6606C251.057 40.9674 251.042 41.287 251.091 41.5999C251.2 42.2361 251.55 42.806 252.068 43.1909C252.586 43.5759 253.232 43.7463 253.873 43.6669Z" fill="#263238"/>
<path d="M263.072 48.8605C260.518 51.1485 258.34 49.361 256.065 46.7935C253.79 44.226 252.263 41.86 254.798 39.5785C256.029 38.4847 257.644 37.9246 259.287 38.0215C260.931 38.1184 262.469 38.8644 263.563 40.0952C264.657 41.3261 265.217 42.9411 265.12 44.5849C265.023 46.2287 264.277 47.7667 263.046 48.8605H263.072Z" fill="#263238"/>
<path d="M283.396 229.021C282.798 230.262 283.11 231.809 283.065 235.176C283.104 237.392 283.012 239.608 282.792 241.813C282.688 242.599 282.434 243.314 282.265 244.081C282.155 244.692 281.844 245.248 281.381 245.661C281.182 245.848 280.942 245.984 280.679 246.057C280.416 246.131 280.14 246.14 279.873 246.083C279.666 246.018 279.474 245.912 279.309 245.772C279.144 245.631 279.008 245.458 278.911 245.264C278.551 244.523 278.263 243.748 278.053 242.95C277.403 248.579 271.319 252.479 275.037 253.87C276.344 254.344 277.733 254.549 279.121 254.474C280.509 254.399 281.868 254.046 283.117 253.435C284.152 252.926 285.045 252.169 285.717 251.231C287.147 248.729 287.017 246.35 287.017 244.198C287.062 239.44 287.842 236.983 288.226 234.604C288.713 231.725 284.319 228.585 283.396 229.021Z" fill="#263238"/>
<path d="M242.61 228.469C242.717 228.496 242.811 228.557 242.88 228.643C242.949 228.728 242.989 228.833 242.994 228.943C243.098 229.593 243.221 230.763 243.436 231.842C243.722 233.279 244.027 235.352 243.793 236.509C243.559 237.666 241.999 238.784 239.074 239.61C236.777 240.331 234.627 241.46 232.73 242.944C230.969 244.55 227.205 245.889 224.657 245.96C221.674 246.051 218.56 245.252 217.845 243.1C217.54 242.19 219.022 241.202 222.844 239.369C222.844 239.369 224.794 238.349 225.873 237.66C231.391 234.182 233.27 232.213 234.882 228.664L242.61 228.469Z" fill="#263238"/>
<path d="M232.801 231.582C234.563 229.678 234.894 227.845 234.66 224.309C234.426 220.773 231.638 189.989 230.923 182.286C229.72 169.338 231.027 132.555 232.099 123.572L265.672 126.237C268.174 132.503 270.007 140.225 269.617 152.334C269.312 161.571 269.52 186.628 269.52 186.628C269.52 186.628 273.719 190.307 276.722 197.581C279.367 204.009 282.416 226.181 282.416 226.181C282.681 227.142 283.018 228.083 283.423 228.995C284.177 229.915 284.611 231.056 284.658 232.245C284.657 236.082 284.25 239.908 283.443 243.659C283.25 244.574 282.819 245.422 282.194 246.117C281.568 246.812 280.77 247.33 279.881 247.618C279.453 247.796 278.991 247.874 278.529 247.845C278.29 247.841 278.06 247.754 277.879 247.598C277.554 247.273 277.879 246.493 277.911 246.103C278.012 245.477 278.07 244.845 278.087 244.212C278.126 242.964 278.087 241.443 278.002 240.195C277.842 237.398 277.395 234.625 276.67 231.92L276.02 230.321C276.02 230.321 261.07 200.103 256.845 192.738C253.471 186.953 251.235 164.522 248.85 152.256L245.353 181.571C245.353 181.571 246.568 186.862 247.03 190.912C247.68 196.352 243.812 217.666 242.668 225.245C242.453 226.65 242.435 228.079 242.616 229.489C242.207 232.772 239.75 233.786 237.208 235.645C235.908 236.568 230.383 239.948 227.023 240.63C224.293 241.183 223.246 240.123 222.869 239.33C226.457 237.124 229.789 234.526 232.801 231.582Z" fill="#FFA8A7"/>
<path d="M259.249 114.03C259.249 114.03 262.278 117.735 266.99 127.075C270.156 133.341 270.357 156.325 270.357 156.325C270.357 156.325 267.601 162.604 250.207 161.564L248.907 153.764L247.796 161.382L246.496 161.252C231.546 159.64 228.725 156.247 228.725 156.247C228.725 156.247 229.804 129.545 233.06 114.387C238.143 117.982 253.171 118.833 259.249 114.03Z" fill="#455A64"/>
<path d="M248.948 153.783L245.626 140.849C245.626 140.849 239.198 140.159 234.199 136.5C234.199 136.5 235.226 141.225 244.066 142.623L247.862 155.311L247.823 161.421L248.948 153.783Z" fill="#263238"/>
<path d="M261.525 157.261C267.706 155.786 270.163 153.238 270.163 153.238L270.365 156.286C270.365 156.286 267.609 162.565 250.215 161.525L249.643 158.061C253.621 158.425 257.631 158.155 261.525 157.261Z" fill="#37474F"/>
<path d="M228.746 156.267C228.746 156.267 228.798 155.032 228.909 152.926C231.9 154.469 235.073 155.63 238.353 156.384C241.641 157.132 244.984 157.608 248.35 157.807L247.824 161.402L246.524 161.272C231.548 159.66 228.746 156.267 228.746 156.267Z" fill="#37474F"/>
<path d="M229.643 91.6499C232.997 86.4499 239.679 81.5164 241.844 79.7939L253.271 79.8849C254.844 79.9629 257.171 80.1579 258.016 80.2944C258.768 80.4201 259.496 80.6612 260.174 81.0094C262.806 82.4134 263.073 85.0199 263.164 88.1139C263.261 91.5004 263.281 92.9889 262.345 98.5919L260.648 105.742L260.388 106.834C260.343 107.022 260.304 107.211 260.258 107.406C259.606 110.142 259.961 113.022 261.259 115.518C264.145 121.049 267.044 125.346 268.006 129.993C266.564 129.373 265.259 128.474 264.165 127.348C262.306 125.56 261.181 124.748 259.693 122.616C256.098 129.564 236.793 135.486 230.748 124.722C230.748 124.722 232.601 115.44 232.913 112.326C232.438 109.629 231.034 104.955 231.002 103.928C227.141 100.464 227.206 95.3939 229.643 91.6499Z" fill="#BA68C8"/>
<path opacity="0.1" d="M237.072 103.35C237.072 103.35 241.213 107.022 246.302 105.579C247.728 105.223 249.038 104.506 250.106 103.496C251.174 102.486 251.964 101.218 252.399 99.814C252.399 99.814 252.562 105.553 246.159 107.094C239.984 108.582 237.072 103.35 237.072 103.35Z" fill="black"/>
<path d="M231.008 63.8756C231.58 72.4621 233.608 74.8086 235.779 75.4326C237.242 75.8486 239.868 75.6666 242.481 75.2376V80.3986C242.481 80.3986 239.465 83.5706 239.692 85.9366C239.92 88.3026 244.437 88.5756 247.824 86.2551C249.688 84.9668 251.373 83.4368 252.835 81.7051C253.119 81.3738 253.273 80.9516 253.271 80.5156V68.3801C253.271 68.3801 254.701 69.9011 257.242 68.1591C257.79 67.809 258.259 67.3488 258.62 66.8077C258.981 66.2666 259.225 65.6565 259.338 65.016C259.45 64.3755 259.428 63.7186 259.273 63.0871C259.119 62.4555 258.834 61.8629 258.438 61.3471C257.34 60.0471 254.538 59.9561 253.186 61.9971C252.426 63.4791 252.322 64.9741 251.477 64.3566C249.215 62.7251 250.638 57.9021 247.908 56.0691C246.591 55.1972 245.219 54.4112 243.8 53.7161C238.932 52.0326 235.812 52.8516 234.798 49.5171C231.398 50.8171 230.371 54.3986 231.008 63.8756Z" fill="#FFA8A7"/>
<path d="M240.928 62.4001C240.927 62.6266 240.992 62.8485 241.116 63.0381C241.24 63.2277 241.417 63.3768 241.625 63.4668C241.833 63.5569 242.063 63.5838 242.286 63.5445C242.509 63.5051 242.716 63.4011 242.88 63.2454C243.045 63.0896 243.16 62.889 243.211 62.6684C243.263 62.4478 243.249 62.2169 243.17 62.0044C243.092 61.7918 242.953 61.607 242.77 61.4728C242.587 61.3387 242.37 61.261 242.143 61.2496C241.83 61.2426 241.527 61.3595 241.299 61.5749C241.071 61.7903 240.938 62.0868 240.928 62.4001Z" fill="#263238"/>
<path d="M232.489 62.0749C232.479 62.2209 232.497 62.3676 232.543 62.5065C232.59 62.6455 232.663 62.7739 232.759 62.8844C232.855 62.9949 232.972 63.0854 233.103 63.1506C233.234 63.2158 233.377 63.2545 233.523 63.2644C233.67 63.2755 233.818 63.2554 233.957 63.2053C234.096 63.1552 234.222 63.0763 234.328 62.9738C234.435 62.8713 234.518 62.7474 234.573 62.6104C234.628 62.4734 234.653 62.3264 234.647 62.1789C234.658 62.0332 234.639 61.8868 234.593 61.7483C234.547 61.6097 234.473 61.4818 234.377 61.3717C234.281 61.2617 234.164 61.1719 234.033 61.1073C233.902 61.0428 233.76 61.0049 233.614 60.9959C233.323 60.994 233.042 61.1057 232.833 61.3072C232.623 61.5086 232.499 61.784 232.489 62.0749Z" fill="#263238"/>
<path d="M237.87 60.9961L237.681 68.2371L233.879 67.0541L237.87 60.9961Z" fill="#F28F8F"/>
<path d="M242.486 75.2311C245.249 74.8736 250.936 73.2356 251.814 70.9866C251.456 72.123 250.76 73.1231 249.818 73.8531C248.122 75.3156 242.486 76.9536 242.486 76.9536V75.2311Z" fill="#F28F8F"/>
<path d="M241.83 58.5L244.534 59.683C244.693 59.3091 244.699 58.888 244.553 58.5093C244.406 58.1306 244.117 57.8241 243.748 57.655C243.567 57.5781 243.372 57.5391 243.176 57.5403C242.98 57.5416 242.786 57.5831 242.606 57.6623C242.426 57.7415 242.265 57.8566 242.131 58.0007C241.998 58.1448 241.895 58.3147 241.83 58.5Z" fill="#263238"/>
<path d="M243.969 68.042L238.652 69.901C238.758 70.2554 238.935 70.5848 239.171 70.8694C239.408 71.154 239.699 71.388 240.028 71.5573C240.357 71.7266 240.717 71.8278 241.086 71.8548C241.455 71.8818 241.825 71.8341 242.175 71.7145C242.539 71.5977 242.875 71.4087 243.163 71.1588C243.452 70.9089 243.687 70.6033 243.855 70.2603C244.022 69.9174 244.119 69.5441 244.138 69.1629C244.158 68.7817 244.101 68.4004 243.969 68.042Z" fill="#B16668"/>
<path d="M243.318 69.4461C242.686 69.4461 242.079 69.6961 241.629 70.1417C241.18 70.5873 240.925 71.1924 240.92 71.8251C241.341 71.8704 241.767 71.8329 242.174 71.7146C242.659 71.5625 243.092 71.2801 243.427 70.8984C243.762 70.5166 243.985 70.0502 244.072 69.5501C243.828 69.4758 243.574 69.4407 243.318 69.4461Z" fill="#F28F8F"/>
<path d="M236.819 43.9595C230.475 44.7265 226.848 49.53 226.848 57.6745H232.698C234.016 57.6721 235.289 57.1921 236.281 56.3233C237.273 55.4545 237.917 54.2558 238.093 52.949L238.307 57.6745C239.392 57.6736 240.438 57.2658 241.237 56.5317C242.036 55.7976 242.53 54.7906 242.623 53.7095L242.695 52.936C242.794 54.2246 243.377 55.4283 244.325 56.3066C245.273 57.185 246.518 57.6734 247.81 57.6745H248.33L248.928 49.2245L236.819 43.9595Z" fill="#263238"/>
<path d="M239.074 177.814C239.074 156.176 225.951 131.014 209.759 121.667C202.336 117.364 195.381 116.903 190.22 119.997L177.818 127.277L181.348 134.635C180.715 137.674 180.405 140.773 180.425 143.878C180.425 165.523 193.555 190.678 209.74 200.025C210.831 200.656 211.96 201.221 213.12 201.715L216.467 208.787L228.798 201.669C235.077 198.12 239.074 189.748 239.074 177.814Z" fill="#BA68C8"/>
<path d="M214.706 209.694C227.684 204.199 230.316 181.114 220.585 158.132C210.854 135.151 192.444 120.976 179.466 126.472C166.488 131.967 163.856 155.052 173.587 178.034C183.318 201.015 201.728 215.19 214.706 209.694Z" fill="#BA68C8"/>
<path opacity="0.1" d="M238.741 183.417C238.709 183.664 238.683 183.905 238.644 184.145C238.579 184.652 238.501 185.159 238.416 185.647C238.273 186.453 238.111 187.233 237.922 187.987C237.812 188.494 237.675 188.988 237.526 189.469C237.454 189.709 237.376 189.943 237.305 190.177C237.233 190.411 237.149 190.652 237.071 190.879C236.908 191.341 236.733 191.783 236.557 192.225L236.284 192.875C236.083 193.33 235.881 193.765 235.634 194.175L235.426 194.571C235.088 195.221 234.724 195.8 234.341 196.372L234.146 196.658L233.996 196.859C233.08 198.151 231.986 199.306 230.746 200.291L230.467 200.512C230.298 200.642 230.122 200.772 229.947 200.889L229.297 201.312C229.108 201.429 228.907 201.552 228.712 201.656L216.713 208.65C221.724 205.53 225.163 199.232 226.177 190.45C226.377 188.661 226.474 186.862 226.469 185.062C226.469 175.526 223.921 165.302 219.683 156.046L232.267 148.766C236.512 158.022 239.073 168.266 239.073 177.808C239.073 179.595 238.971 181.381 238.767 183.157C238.767 183.248 238.754 183.333 238.741 183.417Z" fill="black"/>
<path opacity="0.1" d="M238.774 183.157C238.676 184.008 238.559 184.84 238.416 185.646C238.273 186.452 238.111 187.232 237.922 187.986C237.799 188.493 237.662 188.987 237.526 189.468C237.454 189.709 237.376 189.943 237.305 190.177C237.233 190.411 237.149 190.651 237.071 190.879C236.908 191.34 236.733 191.782 236.557 192.224L236.284 192.874C236.083 193.329 235.881 193.765 235.634 194.174L235.426 194.571C235.088 195.221 234.724 195.799 234.341 196.371C234.23 196.54 234.12 196.703 233.996 196.859C233.08 198.15 231.986 199.306 230.746 200.291L230.467 200.512C230.298 200.642 230.122 200.772 229.947 200.889L229.297 201.311C229.108 201.428 228.907 201.552 228.712 201.656L216.713 208.65C221.724 205.53 225.163 199.231 226.177 190.45L238.774 183.157Z" fill="black"/>
<path opacity="0.4" d="M232.267 148.772L219.696 156.052C214.314 144.281 206.189 134.063 197.102 128.811C189.75 124.553 183.029 124.261 177.875 127.257L190.225 120.003C195.386 116.903 202.341 117.364 209.764 121.667C218.799 126.9 226.885 137.059 232.267 148.772Z" fill="white"/>
<path d="M217.298 179.348C217.298 185.387 215.725 190.275 213.08 193.434C209.394 197.854 203.674 198.933 197.265 195.202C190.856 191.471 185.097 183.736 181.412 175.052C178.766 168.818 177.193 162.123 177.193 156.078L217.298 179.348Z" fill="#37474F"/>
<path d="M213.08 193.433C209.395 197.853 203.675 198.932 197.266 195.201C190.857 191.47 185.098 183.735 181.412 175.051C185.52 172.087 191.123 172.048 197.266 175.591C203.408 179.133 208.972 185.659 213.08 193.433Z" fill="#F28F8F"/>
<path d="M205.332 158.126C205.332 161.22 206.957 164.671 208.966 165.835C210.974 166.998 212.599 165.425 212.599 162.331C212.599 159.237 210.974 155.786 208.966 154.622C206.957 153.459 205.332 155.032 205.332 158.126Z" fill="#37474F"/>
<path d="M182.344 144.82C182.344 147.914 183.969 151.366 185.977 152.523C187.986 153.68 189.611 152.12 189.611 149.026C189.611 145.932 187.979 142.48 185.977 141.317C183.975 140.153 182.344 141.7 182.344 144.82Z" fill="#37474F"/>
<path d="M220.876 131.794C219.684 131.76 218.492 131.873 217.327 132.132C214.909 132.574 212.589 132.879 210.177 131.995C208.799 131.488 207.181 130.37 206.927 128.784C206.674 127.198 208.403 126.685 209.475 126.106C210.95 125.299 212.486 124.612 214.071 124.052C216.73 123.112 219.605 122.965 222.345 123.63C223.756 123.961 225.647 124.416 227.038 123.76C227.981 123.311 228.904 122.772 229.827 122.297L237.087 118.547L247.091 113.379L251.693 93.5479C251.693 93.5479 252.765 85.4034 257.296 80.1709C260.734 80.4764 264.088 81.6659 264.862 83.7914C265.635 85.9169 265.096 88.8419 264.14 93.2879C263.185 97.7339 258.225 112.138 256.295 117.286C255.411 119.639 254.995 120.627 251.862 121.985C247.243 124 242.61 125.994 237.965 127.965C235.553 128.986 233.148 130.006 230.73 131.007C229.209 131.657 227.675 132.366 226.005 132.45C224.334 132.535 222.612 131.891 220.876 131.794Z" fill="#FFA8A7"/>
<path d="M93.7129 87.5159C93.7129 87.5159 106.57 95.4719 107.714 96.1089C108.858 96.7459 111.224 99.0144 113.642 96.0309C115.592 93.6389 128.819 73.2809 128.819 73.2809L121.799 69.9009L109.449 85.0394L90.8594 71.8054L93.7129 87.5159Z" fill="#FFA8A7"/>
<path d="M93.9918 73.0078C98.1518 76.2903 105.302 81.5943 105.302 81.5943C104.693 85.6556 102.787 89.411 99.8678 92.2998L92.6138 87.8213L83.6113 69.5758C83.6113 69.5758 88.3303 68.5618 93.9918 73.0078Z" fill="#37474F"/>
<path d="M99.7656 119.671C99.7656 97.8379 113.039 72.4749 129.412 63.0174C136.926 58.6819 143.953 58.2204 149.179 61.3404L161.717 68.6854L158.129 76.1084C158.771 79.1754 159.083 82.3024 159.059 85.4359C159.059 107.269 145.786 132.632 129.412 142.083C128.311 142.721 127.171 143.29 126 143.786L122.613 150.936L110.179 143.786C103.809 140.159 99.7656 131.716 99.7656 119.671Z" fill="#BA68C8"/>
<path d="M165.973 119.943C175.835 96.7639 173.2 73.4502 160.086 67.8701C146.972 62.2901 128.346 76.5568 118.483 99.7357C108.62 122.915 111.256 146.228 124.37 151.808C137.484 157.388 156.11 143.122 165.973 119.943Z" fill="#BA68C8"/>
<path opacity="0.1" d="M100.104 125.326L100.201 126.061C100.273 126.574 100.351 127.081 100.435 127.569C100.578 128.388 100.741 129.174 100.936 129.935C101.046 130.442 101.183 130.942 101.339 131.43C101.41 131.67 101.488 131.911 101.56 132.145C101.631 132.379 101.722 132.619 101.8 132.853C101.963 133.315 102.138 133.763 102.314 134.212C102.405 134.42 102.496 134.634 102.593 134.862C102.795 135.317 103.003 135.759 103.243 136.162L103.451 136.558C103.796 137.208 104.166 137.8 104.55 138.372C104.615 138.476 104.68 138.567 104.751 138.664L104.894 138.866C105.81 140.167 106.904 141.333 108.144 142.33L108.424 142.551C108.599 142.688 108.775 142.811 108.95 142.935C109.126 143.058 109.373 143.221 109.6 143.357C109.828 143.494 109.997 143.598 110.192 143.708L122.379 150.8C117.309 147.654 113.812 141.303 112.811 132.444C112.609 130.64 112.509 128.825 112.512 127.01C112.512 117.383 115.112 107.074 119.376 97.7599L106.649 90.3499C102.353 99.6904 99.7656 110.012 99.7656 119.652C99.765 121.455 99.867 123.256 100.071 125.047C100.104 125.151 100.104 125.235 100.104 125.326Z" fill="black"/>
<path opacity="0.1" d="M100.066 125.066C100.17 125.924 100.287 126.763 100.43 127.569C100.573 128.375 100.736 129.174 100.931 129.935C101.054 130.442 101.191 130.942 101.334 131.43C101.405 131.67 101.483 131.911 101.555 132.145C101.626 132.379 101.717 132.619 101.795 132.853C101.958 133.315 102.133 133.763 102.309 134.212C102.4 134.42 102.491 134.634 102.588 134.862C102.79 135.317 102.998 135.759 103.238 136.162L103.446 136.558C103.791 137.208 104.161 137.8 104.545 138.372C104.655 138.547 104.772 138.71 104.889 138.866C105.805 140.167 106.899 141.333 108.139 142.33L108.419 142.551C108.594 142.688 108.77 142.811 108.945 142.935C109.121 143.058 109.368 143.221 109.595 143.357C109.823 143.494 109.992 143.598 110.187 143.708L122.381 150.8C117.311 147.654 113.814 141.303 112.813 132.444L100.066 125.066Z" fill="black"/>
<path opacity="0.4" d="M106.65 90.3498L119.377 97.7013C124.824 85.8193 133.027 75.5103 142.225 70.2063C149.661 65.9098 156.466 65.6563 161.673 68.6463L149.18 61.3403C143.98 58.2203 136.927 58.6818 129.413 63.0238C120.255 68.3018 112.091 78.5523 106.65 90.3498Z" fill="white"/>
<path d="M133.904 99.8073C133.904 102.927 132.259 106.411 130.231 107.607C128.203 108.803 126.559 107.198 126.559 104.071C126.559 100.945 128.203 97.4738 130.231 96.2713C132.259 95.0688 133.904 96.6873 133.904 99.8073Z" fill="#37474F"/>
<path d="M157.142 86.385C157.142 89.505 155.497 92.989 153.469 94.185C151.441 95.381 149.797 93.7691 149.797 90.649C149.797 87.529 151.441 84.045 153.469 82.849C155.497 81.653 157.142 83.2585 157.142 86.385Z" fill="#37474F"/>
<path d="M135.276 136.357C133.758 136.362 132.254 136.068 130.85 135.492C126.677 133.796 123.472 129.642 121.828 123.714C121.751 123.471 121.725 123.215 121.749 122.961C121.773 122.707 121.849 122.46 121.97 122.236C122.092 122.012 122.257 121.814 122.457 121.655C122.656 121.496 122.885 121.378 123.131 121.31C123.377 121.241 123.634 121.222 123.887 121.254C124.14 121.287 124.384 121.37 124.604 121.498C124.824 121.627 125.017 121.798 125.17 122.003C125.322 122.207 125.433 122.44 125.494 122.687C126.794 127.426 129.231 130.721 132.293 131.969C134.893 133.035 138.013 132.619 141.276 130.721C149.076 126.21 156.174 114.413 158.93 101.361C159.034 100.866 159.331 100.433 159.754 100.157C160.178 99.8809 160.694 99.7844 161.189 99.8887C161.683 99.993 162.116 100.29 162.392 100.713C162.669 101.137 162.765 101.653 162.661 102.147C159.645 116.415 152.001 128.927 143.161 133.997C140.785 135.461 138.066 136.275 135.276 136.357Z" fill="#37474F"/>
<path d="M119.521 125.248C118.682 125.274 117.849 125.101 117.09 124.741C116.761 124.548 116.52 124.236 116.417 123.869C116.313 123.502 116.356 123.109 116.536 122.773C116.716 122.437 117.019 122.183 117.381 122.065C117.744 121.948 118.138 121.975 118.481 122.141C119.624 122.439 120.836 122.321 121.9 121.81C122.801 121.425 123.6 120.836 124.236 120.091C124.872 119.346 125.327 118.464 125.566 117.513C125.676 117.138 125.93 116.821 126.273 116.632C126.616 116.444 127.02 116.4 127.396 116.509C127.772 116.619 128.089 116.873 128.277 117.216C128.465 117.559 128.51 117.963 128.4 118.339C127.89 120.309 126.742 122.056 125.137 123.307C123.531 124.558 121.557 125.242 119.521 125.255V125.248Z" fill="#37474F"/>
<path d="M157.641 103.285C156.799 103.312 155.963 103.136 155.203 102.771C154.875 102.578 154.633 102.266 154.53 101.899C154.427 101.532 154.469 101.139 154.649 100.803C154.829 100.467 155.132 100.213 155.495 100.095C155.857 99.9777 156.251 100.005 156.594 100.171C157.737 100.469 158.949 100.351 160.013 99.8399C160.915 99.4563 161.716 98.8686 162.352 98.1231C162.988 97.3775 163.443 96.4944 163.679 95.5434C163.789 95.1676 164.043 94.8506 164.386 94.6623C164.729 94.474 165.133 94.4297 165.509 94.5391C165.885 94.6486 166.202 94.9029 166.39 95.246C166.579 95.5891 166.623 95.993 166.513 96.3689C166.002 98.3379 164.855 100.083 163.251 101.335C161.647 102.586 159.675 103.274 157.641 103.291V103.285Z" fill="#37474F"/>
<path d="M58.2118 245.199C57.9778 246.116 57.4903 248.722 52.6413 248.722C47.7923 248.722 45.0168 246.772 44.0613 244.276C43.1058 241.78 43.6518 239.986 43.7428 237.841C43.8338 235.696 42.2348 234.325 41.8838 233.161C41.3638 231.452 42.7873 229.099 42.7873 229.099L58.2118 245.199Z" fill="#263238"/>
<path d="M104.829 229.365C104.957 229.749 105.002 230.154 104.963 230.556C104.924 230.958 104.801 231.348 104.602 231.699C104.251 232.173 101.001 234.539 96.9836 234.045C94.0372 233.755 91.2027 232.766 88.7156 231.159C86.3691 229.775 84.7506 229.573 82.3651 229.58C79.9796 229.586 78.3416 229.138 78.1466 228.54C77.7956 227.487 77.7696 226.811 78.2766 226.824L104.829 229.365Z" fill="#263238"/>
<path d="M44.4831 225.361C44.3986 227.857 52.0036 230.022 51.8411 226.85L54.4411 217.639L45.9131 216.736L44.4831 225.361Z" fill="#FFA8A7"/>
<path d="M79.9546 219.505C82.3531 221.221 84.5631 221.455 87.3776 220.025L88.7946 204.945H78.4531L79.9546 219.505Z" fill="#FFA8A7"/>
<path d="M57.7584 119.412C55.8084 137.612 52.2464 174.35 52.2464 174.35C52.2464 174.35 49.1264 179.107 47.9629 187.882C46.5329 198.724 45.1094 221.344 45.1094 221.344C46.3685 222.099 47.778 222.567 49.2382 222.717C50.6984 222.866 52.1736 222.693 53.5594 222.209C53.5594 222.209 65.7209 189 67.9699 178.334C69.9199 169.019 73.4104 149.896 73.4104 149.896L77.7589 175.896C76.6256 180.023 76.1518 184.303 76.3549 188.578C76.5629 193.589 78.9159 212.557 78.9159 212.557C79.6179 214.63 86.1244 214.507 88.2174 213.148C88.2174 213.148 91.5454 181.298 91.9874 176C92.5659 169.071 93.6384 119.385 93.6384 119.385L57.7584 119.412Z" fill="#37474F"/>
<path d="M73.3965 149.896L75.821 138.703C75.821 138.703 81.2485 137.468 85.1225 134.361C85.1225 134.361 83.7055 137.93 77.758 140.66L75.2815 151.144L77.4135 174.141L73.3965 149.896Z" fill="#263238"/>
<path d="M51.8428 226.85L52.1223 225.888C52.4408 226.206 52.3888 226.479 52.3953 227.337C52.3953 228.02 52.3953 228.676 52.4863 229.58C52.6019 230.76 52.8194 231.928 53.1363 233.07C53.7863 235.729 54.4688 236.795 56.3343 240.077C56.7763 240.851 57.8488 242.144 58.1673 242.989C58.4858 243.834 58.5768 245.362 57.5823 245.947C54.7483 247.624 50.3738 247.169 47.5983 245.862C46.5599 245.391 45.6788 244.632 45.06 243.674C44.4411 242.716 44.1106 241.601 44.1078 240.461C44.1078 239.811 44.2508 239.115 44.2768 238.439C44.2603 236.889 43.8678 235.365 43.1328 234C42.7034 233.211 42.3591 232.379 42.1058 231.517C41.7353 229.944 42.4698 228.364 43.0873 226.967C43.6138 225.751 44.2313 224.126 44.6473 224.315C44.6473 224.471 44.4848 225.381 44.4848 225.381C44.9138 226.031 46.2658 226.837 47.8843 227.149C48.9243 227.337 51.7323 227.649 51.8428 226.85Z" fill="#455A64"/>
<path d="M87.684 216.879C88.0545 216.879 88.4315 217.171 89.088 218.127C89.9884 219.45 91.1551 220.57 92.5135 221.416C94.9575 223.132 98.812 224.867 102.777 226.349C104.935 227.155 105.344 228.715 104.629 230.113C103.511 231.231 99.7025 233.844 93.443 231.939C89.543 230.756 88.1975 228.761 85.422 228.41C83.472 228.163 80.053 228.696 78.051 227.11C77.401 225.595 77.9275 224.074 78.129 221.968C78.3305 219.862 79 216.502 79.6695 216.632L79.7865 217.75C80.3195 220.181 85.916 220.421 87.502 218.829L87.684 216.879Z" fill="#455A64"/>
<path d="M71.6992 68.8999C66.3822 68.8999 62.5277 69.1924 59.0892 69.9334C56.3982 70.5054 55.5467 75.0229 55.3712 78.0324C54.7927 87.7824 59.1542 105.95 59.1542 105.95L57.1197 122.85C61.6697 127.725 82.0667 130.266 93.7147 123.123C93.7147 123.123 94.0267 89.8754 93.7147 84.2724C93.1687 74.4119 88.9372 69.6864 85.3037 69.4069C85.3037 69.3874 77.0162 68.8999 71.6992 68.8999Z" fill="#BA68C8"/>
<path d="M66.8428 38.9414C66.8428 38.9414 64.0543 39.3249 63.0338 41.4244C62.1433 43.2509 62.4618 47.6644 63.6838 52.4744C64.9058 57.2844 65.9848 60.1769 66.6803 61.5094C67.1448 62.3281 67.9055 62.9376 68.8058 63.2124L68.6693 57.5054L68.4613 53.5339C68.4613 53.5339 71.0093 50.0499 71.2888 47.1964C71.6528 43.5239 70.8793 41.9964 70.8793 41.9964L66.8428 38.9414Z" fill="#37474F"/>
<path d="M71.3418 44.4599C71.3444 46.5665 71.9718 48.6249 73.1447 50.3748C74.3177 52.1247 75.9833 53.4873 77.9309 54.2902C79.8785 55.0931 82.0205 55.3002 84.0859 54.8852C86.1512 54.4703 88.047 53.452 89.5334 51.9593C91.0198 50.4665 92.03 48.5663 92.4361 46.4992C92.8422 44.4321 92.6259 42.291 91.8147 40.3469C91.0035 38.4027 89.6338 36.7429 87.8789 35.5775C86.1241 34.4121 84.0629 33.7934 81.9563 33.7999C79.1359 33.8085 76.4342 34.9358 74.4441 36.9344C72.4541 38.9329 71.3383 41.6395 71.3418 44.4599Z" fill="#37474F"/>
<path d="M68.5804 52.8969C67.6184 53.7224 66.8449 51.5969 66.0324 50.7389C65.2199 49.8809 62.6004 48.7889 61.3004 51.5189C60.0004 54.2489 62.5029 58.1554 64.4659 59.0719C67.3454 60.4044 68.6389 57.4989 68.6389 57.4989L68.9444 69.4979C73.8649 76.9534 85.3049 75.4389 80.5339 69.9659V66.0659C80.5339 66.0659 83.7839 66.5404 85.3309 66.2934C87.9309 65.8839 89.3154 63.9079 90.1019 61.0934C91.3629 56.5434 91.3304 49.6079 89.5819 40.7614C86.6504 38.4994 77.0239 38.1614 70.8749 42.0614C71.2974 49.8614 69.5554 52.0649 68.5804 52.8969Z" fill="#FFA8A7"/>
<path d="M91.5583 33.7414C91.5252 33.6636 91.4725 33.5957 91.4052 33.5444C91.338 33.4931 91.2586 33.4602 91.1748 33.4489C91.0414 33.459 90.9154 33.514 90.8173 33.6049C90.0838 34.1904 89.3033 34.7143 88.4838 35.1714C88.7014 34.1243 88.7146 33.045 88.5228 31.9929C88.4123 31.3429 88.2303 29.8544 87.4308 29.6919C86.9563 29.6009 86.5403 29.9974 86.1828 30.3419C82.9848 33.3384 78.8053 31.9474 74.9508 32.0709C71.7008 32.1749 67.8398 33.4879 66.3838 36.6209C65.7338 38.0574 65.6038 39.5654 66.9168 40.5599C68.0865 41.343 69.4211 41.8457 70.8168 42.0289C77.2388 43.1469 85.8838 45.3439 90.6353 39.3574C91.3494 38.518 91.8014 37.4874 91.9353 36.3934C92.0538 35.5073 91.9186 34.6058 91.5453 33.7934C91.5547 33.7778 91.5592 33.7597 91.5583 33.7414Z" fill="#263238"/>
<path d="M80.5063 66.0594C80.5063 66.0594 74.6562 64.8959 72.6087 63.8169C71.4078 63.1952 70.4224 62.2256 69.7812 61.0349C70.088 62.2379 70.6365 63.3658 71.3933 64.3499C72.8948 66.2544 80.4933 67.6389 80.4933 67.6389L80.5063 66.0594Z" fill="#F28F8F"/>
<path d="M78.991 51.4865C78.9834 51.7174 78.9079 51.9409 78.7741 52.1292C78.6402 52.3174 78.4539 52.4621 78.2384 52.5452C78.0228 52.6283 77.7876 52.6461 77.562 52.5964C77.3364 52.5467 77.1305 52.4317 76.9698 52.2657C76.8092 52.0998 76.7009 51.8901 76.6586 51.6631C76.6163 51.436 76.6417 51.2014 76.7318 50.9887C76.8219 50.776 76.9726 50.5945 77.1651 50.4669C77.3577 50.3393 77.5835 50.2711 77.8145 50.271C77.9718 50.2727 78.1273 50.3056 78.2718 50.3677C78.4163 50.4299 78.5471 50.5201 78.6565 50.6331C78.7659 50.7462 78.8518 50.8798 78.9093 51.0263C78.9667 51.1728 78.9945 51.3292 78.991 51.4865Z" fill="#263238"/>
<path d="M77.7379 47.0665L75.2354 48.4575C75.056 48.1144 75.016 47.7153 75.1238 47.3435C75.2316 46.9717 75.4789 46.6559 75.8139 46.462C75.9793 46.3723 76.161 46.3168 76.3483 46.2987C76.5355 46.2807 76.7245 46.3004 76.904 46.3568C77.0834 46.4132 77.2497 46.5051 77.393 46.627C77.5363 46.7489 77.6536 46.8983 77.7379 47.0665Z" fill="#263238"/>
<path d="M78.369 57.7915L84.349 60.008C84.2218 60.4101 84.0146 60.7824 83.7398 61.1023C83.465 61.4223 83.1283 61.6833 82.75 61.8697C82.3716 62.0562 81.9595 62.1641 81.5384 62.1871C81.1172 62.2101 80.6958 62.1476 80.2995 62.0035C79.4955 61.6872 78.8454 61.0718 78.4855 60.2865C78.1255 59.5012 78.0838 58.607 78.369 57.7915Z" fill="#B16668"/>
<path d="M89.426 48.0024L87.1055 46.2539C87.2127 46.0992 87.3502 45.9679 87.5097 45.8679C87.6691 45.7679 87.8472 45.7012 88.0332 45.6721C88.2191 45.6429 88.4091 45.6518 88.5915 45.6982C88.7739 45.7445 88.945 45.8275 89.0945 45.9419C89.4034 46.1773 89.6101 46.5225 89.6718 46.906C89.7335 47.2894 89.6455 47.682 89.426 48.0024Z" fill="#263238"/>
<path d="M88.7297 51.1225C88.7208 51.3515 88.6449 51.5728 88.5113 51.759C88.3777 51.9452 88.1924 52.088 87.9784 52.1698C87.7643 52.2517 87.5309 52.2688 87.3072 52.2192C87.0835 52.1696 86.8793 52.0553 86.7199 51.8907C86.5606 51.726 86.4531 51.5182 86.4107 51.293C86.3684 51.0678 86.3932 50.8351 86.4819 50.6238C86.5707 50.4126 86.7195 50.232 86.91 50.1046C87.1004 49.9771 87.3241 49.9084 87.5532 49.907C87.7106 49.9087 87.866 49.9415 88.0105 50.0037C88.155 50.0659 88.2858 50.1561 88.3952 50.2691C88.5046 50.3822 88.5906 50.5158 88.648 50.6623C88.7054 50.8088 88.7332 50.9652 88.7297 51.1225Z" fill="#263238"/>
<path d="M82.7617 50.0305L83.1647 57.07L86.8372 55.809L82.7617 50.0305Z" fill="#F28F8F"/>
<path d="M80.2982 62.0035C80.8472 62.2061 81.4428 62.2467 82.0142 62.1205C81.9988 61.6848 81.8782 61.2592 81.6628 60.8801C81.4473 60.5011 81.1434 60.1797 80.7769 59.9435C80.4104 59.7072 79.9922 59.5631 79.558 59.5234C79.1238 59.4837 78.6864 59.5497 78.2832 59.7155C78.4064 60.2326 78.6545 60.7116 79.0058 61.1105C79.3571 61.5094 79.8008 61.816 80.2982 62.0035Z" fill="#F28F8F"/>
<path d="M64.6926 116.831C61.8196 115.862 60.6886 115.297 59.3171 110.948C55.6641 99.3849 52.3621 89.8494 51.6601 84.0514C50.3081 72.8389 54.8126 71.8184 58.2121 70.5964L62.8921 81.9649L69.7821 106.749C75.3201 109.239 84.3876 111.078 90.8746 113.093C92.2997 113.422 93.7615 113.564 95.2231 113.516C97.4851 113.295 98.8761 113.028 100.137 113.249C100.014 114.179 99.9616 115.056 99.8966 115.882C102.109 115.876 104.317 115.674 106.494 115.277C111.213 114.4 112.903 115.966 109.029 120.705C106.839 123.389 102.529 124.423 96.2631 123.76C93.0155 123.342 89.8056 122.67 86.6626 121.751C78.4596 119.548 69.2101 118.345 64.6926 116.831Z" fill="#FFA8A7"/>
<path d="M59.0896 69.9009C52.1801 70.6549 49.2811 76.7454 50.7046 83.8499C51.7251 88.8939 53.7206 95.8554 55.3326 100.938C55.3326 100.938 63.7436 100.854 67.7801 96.9929C66.2591 92.0009 66.0121 90.9544 64.6666 86.2224C64.1726 76.7584 62.2096 72.1499 59.0896 69.9009Z" fill="#37474F"/>
<path d="M124.024 66.781C124.791 66.131 125.656 65.481 126.624 64.792C126.624 64.792 129.426 65.052 132.832 67.756C134.99 69.4655 141.49 69.3485 140.56 66.3585C139.26 62.153 134.71 60.619 132.669 60.177C129.309 59.449 123.277 62.4 124.024 66.781Z" fill="#FFA8A7"/>
</svg>
