<svg width="240" height="268" viewBox="0 0 240 268" fill="none" xmlns="http://www.w3.org/2000/svg">
<g opacity="0.8">
<g clip-path="url(#clip0_114_2719)">
<path d="M164.374 231.233C225.865 206.668 255.8 136.906 231.236 75.4139C206.671 13.9223 136.908 -16.0127 75.4166 8.55216C13.925 33.117 -16.0101 102.88 8.55478 164.371C33.1196 225.863 102.882 255.798 164.374 231.233Z" fill="#D5A0D3"/>
<path d="M239.8 267.354H0L13.8001 240.499L0 213.668H239.8L225.977 240.499L239.8 267.354Z" fill="#9F55B9"/>
<path d="M199.468 118.746C199.468 74.8051 163.849 39.1626 119.885 39.1626C75.9201 39.1626 40.3242 74.7818 40.3242 118.746C40.3242 159.144 70.442 192.502 109.441 197.607L119.885 212.666L130.328 197.607C169.351 192.479 199.468 159.144 199.468 118.746Z" fill="#C74783"/>
<path d="M99.4415 67.3218H67.7852V99.0014H99.4648V67.3218H99.4415ZM93.3806 92.9406H73.8227V73.3826H93.3806V92.9406Z" fill="white"/>
<path d="M89.2765 77.5088H77.9707V88.8146H89.2765V77.5088Z" fill="white"/>
<path d="M74.4757 101.706H67.4824V108.699H74.4757V101.706Z" fill="white"/>
<path d="M140.635 67.3218V99.0014H172.314V67.3218H140.635ZM166.254 92.9406H146.696V73.3826H166.254V92.9406Z" fill="white"/>
<path d="M162.126 77.5088H150.82V88.8146H162.126V77.5088Z" fill="white"/>
<path d="M67.7852 171.033H99.4648V139.353H67.7852V171.033ZM73.846 145.414H93.4039V164.972H73.846V145.414Z" fill="white"/>
<path d="M89.2765 149.54H77.9707V160.845H89.2765V149.54Z" fill="white"/>
<path d="M81.6529 129.469H74.5664V136.462H81.6529V129.469Z" fill="white"/>
<path d="M151.355 164.039V171.032H158.349H165.319V164.039H172.312V157.046V150.239H165.319V157.046H158.349V164.039H151.355Z" fill="white"/>
<path d="M109.443 87.7188H102.449V94.712H109.443V87.7188Z" fill="white"/>
<path d="M165.318 101.705V108.699H158.325V101.705H151.332H144.339V108.699H151.332V115.692H144.339V108.699H137.345V115.692H144.339V122.499H137.345V115.692H130.352H123.359V108.699H116.365V101.705V94.7119H109.372V101.705H102.379H95.7817V108.699H88.6952V101.705H81.6086V108.699H74.5221V115.692H67.4355V122.499V122.685V129.492H74.5221V122.685H81.6086V129.492H88.7185V136.485H95.805H102.402V129.492H95.805V122.685H102.402V129.492H109.395V136.485H102.402V143.292V143.479V150.285H109.395V157.092H102.402V164.085V171.079H109.395V164.085H116.389V171.079H123.382V164.085H130.375V157.092H137.369V164.085H130.375V171.079H137.369H144.362V164.085V157.092H151.355H158.348V150.285H165.342V143.292H172.335V136.485V129.492H165.342H158.348V136.485H165.342V143.292H158.348V136.485H151.355V129.492H158.348V122.499H151.355V115.692H158.348H165.342V122.685H172.335V115.692V108.699V101.705H165.318ZM95.8283 122.475H88.7418V115.668H95.8283V122.475ZM102.938 115.668V108.675H109.442V115.668H116.435V122.475H109.442V115.668H102.938ZM123.382 163.969H116.389V156.976H123.382V163.969ZM123.405 150.076H116.412H109.419V143.455H116.412H123.405V150.076ZM123.405 136.462H116.412V129.469H123.405V136.462ZM130.399 122.662H137.392V129.469H130.399V122.662ZM137.369 143.269V150.262H130.375V143.269V136.462H137.369H144.362V143.269H137.369ZM151.355 150.076H144.362V143.455H151.355V150.076Z" fill="white"/>
<path d="M130.396 94.712H123.402V101.705V108.675H130.396H137.366V101.705V94.712V87.7188H130.396V94.712Z" fill="white"/>
<path d="M130.397 73.7555V66.7622H123.404H116.411H109.417H102.447V73.7555V80.7255H109.417V73.7555H116.411V80.7255H109.417V87.7188H116.411V94.7121H123.404V87.7188V80.7255H130.397H137.367V73.7555H130.397Z" fill="white"/>
<path d="M70.9083 250.175C69.625 250.175 68.475 249.967 67.4583 249.55C66.4416 249.133 65.625 248.517 65.0083 247.7C64.4083 246.883 64.0916 245.9 64.0583 244.75H68.6083C68.675 245.4 68.9 245.9 69.2833 246.25C69.6666 246.583 70.1666 246.75 70.7833 246.75C71.4166 246.75 71.9166 246.608 72.2833 246.325C72.65 246.025 72.8333 245.617 72.8333 245.1C72.8333 244.667 72.6833 244.308 72.3833 244.025C72.1 243.742 71.7416 243.508 71.3083 243.325C70.8916 243.142 70.2916 242.933 69.5083 242.7C68.375 242.35 67.45 242 66.7333 241.65C66.0166 241.3 65.4 240.783 64.8833 240.1C64.3666 239.417 64.1083 238.525 64.1083 237.425C64.1083 235.792 64.7 234.517 65.8833 233.6C67.0666 232.667 68.6083 232.2 70.5083 232.2C72.4416 232.2 74 232.667 75.1833 233.6C76.3666 234.517 77 235.8 77.0833 237.45H72.4583C72.425 236.883 72.2166 236.442 71.8333 236.125C71.45 235.792 70.9583 235.625 70.3583 235.625C69.8416 235.625 69.425 235.767 69.1083 236.05C68.7916 236.317 68.6333 236.708 68.6333 237.225C68.6333 237.792 68.9 238.233 69.4333 238.55C69.9666 238.867 70.8 239.208 71.9333 239.575C73.0666 239.958 73.9833 240.325 74.6833 240.675C75.4 241.025 76.0166 241.533 76.5333 242.2C77.05 242.867 77.3083 243.725 77.3083 244.775C77.3083 245.775 77.05 246.683 76.5333 247.5C76.0333 248.317 75.3 248.967 74.3333 249.45C73.3666 249.933 72.225 250.175 70.9083 250.175ZM80.0892 243.025C80.0892 241.575 80.3808 240.308 80.9642 239.225C81.5642 238.142 82.3892 237.308 83.4392 236.725C84.5058 236.142 85.7225 235.85 87.0892 235.85C88.8392 235.85 90.2975 236.308 91.4642 237.225C92.6475 238.142 93.4225 239.433 93.7892 241.1H89.2392C88.8558 240.033 88.1142 239.5 87.0142 239.5C86.2308 239.5 85.6058 239.808 85.1392 240.425C84.6725 241.025 84.4392 241.892 84.4392 243.025C84.4392 244.158 84.6725 245.033 85.1392 245.65C85.6058 246.25 86.2308 246.55 87.0142 246.55C88.1142 246.55 88.8558 246.017 89.2392 244.95H93.7892C93.4225 246.583 92.6475 247.867 91.4642 248.8C90.2808 249.733 88.8225 250.2 87.0892 250.2C85.7225 250.2 84.5058 249.908 83.4392 249.325C82.3892 248.742 81.5642 247.908 80.9642 246.825C80.3808 245.742 80.0892 244.475 80.0892 243.025ZM96.2259 243C96.2259 241.567 96.4925 240.308 97.0259 239.225C97.5759 238.142 98.3175 237.308 99.2509 236.725C100.184 236.142 101.226 235.85 102.376 235.85C103.359 235.85 104.218 236.05 104.951 236.45C105.701 236.85 106.276 237.375 106.676 238.025V236.05H110.951V250H106.676V248.025C106.259 248.675 105.676 249.2 104.926 249.6C104.193 250 103.334 250.2 102.351 250.2C101.218 250.2 100.184 249.908 99.2509 249.325C98.3175 248.725 97.5759 247.883 97.0259 246.8C96.4925 245.7 96.2259 244.433 96.2259 243ZM106.676 243.025C106.676 241.958 106.376 241.117 105.776 240.5C105.193 239.883 104.476 239.575 103.626 239.575C102.776 239.575 102.051 239.883 101.451 240.5C100.868 241.1 100.576 241.933 100.576 243C100.576 244.067 100.868 244.917 101.451 245.55C102.051 246.167 102.776 246.475 103.626 246.475C104.476 246.475 105.193 246.167 105.776 245.55C106.376 244.933 106.676 244.092 106.676 243.025ZM123.544 235.9C125.177 235.9 126.477 236.433 127.444 237.5C128.427 238.55 128.919 240 128.919 241.85V250H124.669V242.425C124.669 241.492 124.427 240.767 123.944 240.25C123.46 239.733 122.81 239.475 121.994 239.475C121.177 239.475 120.527 239.733 120.044 240.25C119.56 240.767 119.319 241.492 119.319 242.425V250H115.044V236.05H119.319V237.9C119.752 237.283 120.335 236.8 121.069 236.45C121.802 236.083 122.627 235.9 123.544 235.9ZM159.062 232.45V250H154.787V239.475L150.862 250H147.412L143.462 239.45V250H139.187V232.45H144.237L149.162 244.6L154.037 232.45H159.062ZM176.286 242.8C176.286 243.2 176.261 243.617 176.211 244.05H166.536C166.603 244.917 166.878 245.583 167.361 246.05C167.861 246.5 168.47 246.725 169.186 246.725C170.253 246.725 170.995 246.275 171.411 245.375H175.961C175.728 246.292 175.303 247.117 174.686 247.85C174.086 248.583 173.328 249.158 172.411 249.575C171.495 249.992 170.47 250.2 169.336 250.2C167.97 250.2 166.753 249.908 165.686 249.325C164.62 248.742 163.786 247.908 163.186 246.825C162.586 245.742 162.286 244.475 162.286 243.025C162.286 241.575 162.578 240.308 163.161 239.225C163.761 238.142 164.595 237.308 165.661 236.725C166.728 236.142 167.953 235.85 169.336 235.85C170.686 235.85 171.886 236.133 172.936 236.7C173.986 237.267 174.803 238.075 175.386 239.125C175.986 240.175 176.286 241.4 176.286 242.8ZM171.911 241.675C171.911 240.942 171.661 240.358 171.161 239.925C170.661 239.492 170.036 239.275 169.286 239.275C168.57 239.275 167.961 239.483 167.461 239.9C166.978 240.317 166.678 240.908 166.561 241.675H171.911Z" fill="white"/>
</g>
</g>
<defs>
<clipPath id="clip0_114_2719">
<rect width="239.8" height="267.354" fill="white"/>
</clipPath>
</defs>
</svg>
