<svg width="325" height="325" viewBox="0 0 325 325" fill="none" xmlns="http://www.w3.org/2000/svg">
<path d="M83.8839 38.8896H31.3184V115.076H83.8839V38.8896Z" fill="#E0E0E0"/>
<path d="M81.2491 38.8896H28.6836V115.076H81.2491V38.8896Z" fill="#F5F5F5"/>
<path d="M74.7095 47.1379H35.209V106.821H74.7095V47.1379Z" fill="white"/>
<path d="M74.7496 106.827C74.7496 106.827 74.7496 106.723 74.7496 106.535C74.7496 106.346 74.7496 106.054 74.7496 105.683C74.7496 104.936 74.7496 103.837 74.7496 102.433C74.7496 99.5734 74.7496 95.4004 74.7106 90.1354C74.7106 79.6119 74.7106 64.7074 74.6456 47.1574L74.7821 47.2874H35.2816L35.4246 47.1444C35.4246 69.6604 35.4246 90.4214 35.4246 106.834L35.3076 106.717L64.0636 106.775L72.0066 106.808H74.0931C74.5611 106.808 74.8146 106.808 74.8146 106.808H74.1126H72.0521L64.1351 106.84L35.3076 106.899H35.0996V106.788C35.0996 90.3759 35.0996 69.6149 35.0996 47.0989V46.9949H35.2491H74.7496H74.8796V47.1249C74.8796 64.7139 74.8276 79.6249 74.8146 90.1939C74.8146 95.4459 74.8146 99.5994 74.7756 102.453C74.7756 103.87 74.7756 104.962 74.7756 105.703C74.7756 106.067 74.7756 106.353 74.7756 106.535C74.7756 106.717 74.7496 106.827 74.7496 106.827Z" fill="#E0E0E0"/>
<path d="M81.3915 38.8896C81.1202 39.3692 80.807 39.8238 80.4555 40.2481C79.8445 41.0671 78.98 42.1981 77.9855 43.3746C76.991 44.5511 76.0745 45.6431 75.3855 46.3971C75.033 46.8226 74.646 47.2182 74.2285 47.5801C74.5235 47.1184 74.8585 46.6834 75.2295 46.2801L77.7645 43.2056L80.2865 40.1376C80.6185 39.6909 80.9882 39.2733 81.3915 38.8896Z" fill="#E0E0E0"/>
<path d="M74.918 106.633C76.8801 109.758 79.1917 112.649 81.808 115.252L74.918 106.633Z" fill="white"/>
<path d="M81.808 115.252C81.3702 114.93 80.9672 114.564 80.6055 114.16C79.6902 113.227 78.8225 112.248 78.0055 111.228C77.05 110.026 76.257 108.888 75.7175 108.043C75.4016 107.603 75.1336 107.13 74.918 106.633C75.2705 107.043 75.5941 107.477 75.8865 107.933C76.465 108.745 77.2775 109.883 78.2265 111.046C79.1755 112.21 80.0855 113.276 80.7485 114.017C81.1311 114.402 81.4852 114.815 81.808 115.252Z" fill="#E0E0E0"/>
<path d="M28.6699 115.05L35.5599 106.554L28.6699 115.05Z" fill="white"/>
<path d="M35.5599 106.522C34.5243 108.024 33.4113 109.471 32.2254 110.857C31.1147 112.306 29.9279 113.695 28.6699 115.017C29.7045 113.513 30.8175 112.063 32.0044 110.675C33.1141 109.228 34.301 107.842 35.5599 106.522Z" fill="#E0E0E0"/>
<path d="M28.6836 38.8896C29.869 40.1651 30.9843 41.5039 32.0246 42.9001C33.138 44.2331 34.1774 45.6262 35.1381 47.0731C33.9533 45.804 32.838 44.4717 31.7971 43.0821C30.6831 41.7429 29.6437 40.3432 28.6836 38.8896Z" fill="#E0E0E0"/>
<path d="M62.4072 59.2605H49.1797V96.8175H62.4072V59.2605Z" fill="#E0E0E0"/>
<path d="M241.052 36.335H188.486V112.521H241.052V36.335Z" fill="#E0E0E0"/>
<path d="M238.419 36.335H185.854V112.521H238.419V36.335Z" fill="#F5F5F5"/>
<path d="M231.881 44.5898H192.381V104.273H231.881V44.5898Z" fill="white"/>
<path d="M231.886 104.273C231.886 104.273 231.886 104.175 231.886 103.98C231.886 103.785 231.886 103.506 231.886 103.135C231.886 102.388 231.886 101.289 231.886 99.8855C231.886 97.0255 231.886 92.859 231.853 87.594C231.853 77.0705 231.814 62.166 231.788 44.616L231.918 44.746H192.418L192.561 44.603C192.561 67.119 192.561 87.88 192.561 104.286L192.444 104.175L221.2 104.234H229.143H231.229H231.951H231.255H229.188H221.271L192.444 104.299H192.333V104.182C192.333 87.776 192.333 67.015 192.301 44.499V44.356H192.398H231.899H232.029V44.486C232.029 62.0685 231.977 76.986 231.964 87.5485C231.964 92.8005 231.964 96.9605 231.931 99.814C231.931 101.231 231.931 102.316 231.931 103.064C231.931 103.421 231.931 103.714 231.931 103.896C231.931 104.078 231.886 104.273 231.886 104.273Z" fill="#E0E0E0"/>
<path d="M238.548 36.335C238.28 36.8185 237.967 37.2755 237.612 37.7C237.001 38.5125 236.137 39.65 235.149 40.8265C234.161 42.003 233.199 43.0885 232.549 43.849C232.202 44.2751 231.817 44.6688 231.398 45.0255C231.695 44.5651 232.03 44.1302 232.399 43.7255L234.934 40.6575L237.463 37.583C237.792 37.1396 238.155 36.7223 238.548 36.335Z" fill="#E0E0E0"/>
<path d="M232.088 104.084C234.052 107.206 236.364 110.095 238.978 112.697L232.088 104.084Z" fill="white"/>
<path d="M238.978 112.697C238.54 112.376 238.137 112.01 237.775 111.605C236.857 110.675 235.989 109.696 235.175 108.673C234.359 107.654 233.595 106.593 232.887 105.495C232.572 105.055 232.304 104.582 232.088 104.084C232.444 104.492 232.768 104.927 233.056 105.384C233.635 106.203 234.447 107.334 235.396 108.504C236.345 109.674 237.255 110.727 237.925 111.475C238.303 111.858 238.655 112.266 238.978 112.697Z" fill="#E0E0E0"/>
<path d="M185.848 112.45L192.731 104L185.848 112.45Z" fill="white"/>
<path d="M192.731 104C191.697 105.505 190.584 106.954 189.397 108.342C188.288 109.788 187.103 111.175 185.848 112.496C186.882 110.994 187.992 109.547 189.176 108.16C190.289 106.713 191.475 105.325 192.731 104Z" fill="#E0E0E0"/>
<path d="M185.854 36.335C187.035 37.6089 188.151 38.9432 189.195 40.3325C190.308 41.667 191.349 43.06 192.315 44.5055C191.127 43.2346 190.01 41.9001 188.967 40.508C187.852 39.1764 186.812 37.7832 185.854 36.335Z" fill="#E0E0E0"/>
<path d="M219.575 56.7061H206.348V94.2631H219.575V56.7061Z" fill="#E0E0E0"/>
<path d="M38.1934 139.977C38.1934 139.88 38.5574 139.808 39.0059 139.808C39.4544 139.808 39.8184 139.88 39.8184 139.977C39.8184 140.075 39.4544 140.146 39.0059 140.146C38.5574 140.146 38.1934 140.068 38.1934 139.977Z" fill="#E0E0E0"/>
<path d="M31.8496 139.977C32.3603 139.809 32.9009 139.751 33.4356 139.808C33.9681 139.752 34.5066 139.809 35.0151 139.977C34.5058 140.142 33.9681 140.199 33.4356 140.146C32.9009 140.2 32.361 140.142 31.8496 139.977Z" fill="#E0E0E0"/>
<path d="M25.5195 139.977C26.028 139.809 26.5665 139.752 27.099 139.808C27.6337 139.751 28.1744 139.809 28.685 139.977C28.1737 140.142 27.6337 140.2 27.099 140.146C26.5665 140.199 26.0289 140.142 25.5195 139.977Z" fill="#E0E0E0"/>
<path d="M20.7214 141.602C20.5567 141.078 20.4992 140.525 20.5524 139.977L20.7214 139.808H21.0464H21.3519H21.8719C22.1644 139.841 22.3464 139.88 22.3464 139.932C22.3464 139.984 22.1644 140.016 21.8719 140.049L21.3519 140.088H20.7019L20.8709 139.919C20.9385 140.484 20.8876 141.058 20.7214 141.602Z" fill="#E0E0E0"/>
<path d="M20.7216 148.089C20.5569 147.565 20.4994 147.012 20.5526 146.464C20.4991 145.919 20.5565 145.368 20.7216 144.846C20.8867 145.368 20.9442 145.919 20.8906 146.464C20.9438 147.012 20.8864 147.565 20.7216 148.089Z" fill="#E0E0E0"/>
<path d="M20.7216 154.577C20.5569 154.052 20.4994 153.499 20.5526 152.952C20.4991 152.406 20.5565 151.856 20.7216 151.333C20.8867 151.856 20.9442 152.406 20.8906 152.952C20.9438 153.499 20.8864 154.052 20.7216 154.577Z" fill="#E0E0E0"/>
<path d="M20.7216 161.064C20.5569 160.539 20.4994 159.986 20.5526 159.439C20.4991 158.893 20.5565 158.343 20.7216 157.82C20.8867 158.343 20.9442 158.893 20.8906 159.439C20.9438 159.986 20.8864 160.539 20.7216 161.064Z" fill="#E0E0E0"/>
<path d="M20.7224 167.551C20.4962 166.479 20.4962 165.372 20.7224 164.301C20.9487 165.372 20.9487 166.479 20.7224 167.551Z" fill="#E0E0E0"/>
<path d="M20.7224 174.037C20.4962 172.966 20.4962 171.859 20.7224 170.787C20.9487 171.859 20.9487 172.966 20.7224 174.037Z" fill="#E0E0E0"/>
<path d="M20.7224 180.524C20.4962 179.453 20.4962 178.346 20.7224 177.274C20.9487 178.346 20.9487 179.453 20.7224 180.524Z" fill="#E0E0E0"/>
<path d="M20.7224 187.011C20.4962 185.94 20.4962 184.833 20.7224 183.761C20.9487 184.833 20.9487 185.94 20.7224 187.011Z" fill="#E0E0E0"/>
<path d="M20.7224 193.499C20.4962 192.427 20.4962 191.32 20.7224 190.249C20.9487 191.32 20.9487 192.427 20.7224 193.499Z" fill="#E0E0E0"/>
<path d="M20.7216 199.985C20.5565 199.463 20.4991 198.912 20.5526 198.367C20.4994 197.819 20.5569 197.267 20.7216 196.742C20.8864 197.267 20.9438 197.819 20.8906 198.367C20.9442 198.912 20.8867 199.463 20.7216 199.985Z" fill="#E0E0E0"/>
<path d="M20.7216 206.472C20.5565 205.95 20.4991 205.399 20.5526 204.854C20.4994 204.306 20.5569 203.754 20.7216 203.229C20.8864 203.754 20.9438 204.306 20.8906 204.854C20.9442 205.399 20.8867 205.95 20.7216 206.472Z" fill="#E0E0E0"/>
<path d="M20.7216 212.96C20.5565 212.437 20.4991 211.886 20.5526 211.341C20.4994 210.794 20.5569 210.241 20.7216 209.716C20.8864 210.241 20.9438 210.794 20.8906 211.341C20.9442 211.886 20.8867 212.437 20.7216 212.96Z" fill="#E0E0E0"/>
<path d="M20.7216 219.446C20.5565 218.924 20.4991 218.373 20.5526 217.828C20.4994 217.28 20.5569 216.728 20.7216 216.203C20.8864 216.728 20.9438 217.28 20.8906 217.828C20.9442 218.373 20.8867 218.924 20.7216 219.446Z" fill="#E0E0E0"/>
<path d="M20.7216 225.94C20.5569 225.415 20.4994 224.863 20.5526 224.315C20.4991 223.77 20.5565 223.219 20.7216 222.697C20.8867 223.219 20.9442 223.77 20.8906 224.315C20.9438 224.863 20.8864 225.415 20.7216 225.94Z" fill="#E0E0E0"/>
<path d="M20.7216 232.427C20.5569 231.902 20.4994 231.349 20.5526 230.802C20.4991 230.256 20.5565 229.706 20.7216 229.183C20.8867 229.706 20.9442 230.256 20.8906 230.802C20.9438 231.349 20.8864 231.902 20.7216 232.427Z" fill="#E0E0E0"/>
<path d="M20.7216 238.914C20.5569 238.389 20.4994 237.836 20.5526 237.289C20.4991 236.744 20.5565 236.193 20.7216 235.67C20.8867 236.193 20.9442 236.744 20.8906 237.289C20.9438 237.836 20.8864 238.389 20.7216 238.914Z" fill="#E0E0E0"/>
<path d="M20.7216 245.401C20.5569 244.876 20.4994 244.324 20.5526 243.776C20.4991 243.231 20.5565 242.68 20.7216 242.157C20.8867 242.68 20.9442 243.231 20.8906 243.776C20.9438 244.324 20.8864 244.876 20.7216 245.401Z" fill="#E0E0E0"/>
<path d="M22.3467 250.25C21.8219 250.415 21.2693 250.472 20.7217 250.419L20.5527 250.25V249.639C20.5527 249.444 20.5527 249.269 20.5917 249.119C20.5917 248.827 20.6632 248.645 20.7087 248.645C20.7542 248.645 20.7997 248.827 20.8257 249.119C20.8257 249.269 20.8257 249.444 20.8647 249.639V249.938V250.25L20.6957 250.081C21.2518 250.02 21.8144 250.078 22.3467 250.25Z" fill="#E0E0E0"/>
<path d="M29.1723 250.25C28.6183 250.414 28.0382 250.472 27.4628 250.419C26.8895 250.472 26.3113 250.415 25.7598 250.25C26.3106 250.081 26.8895 250.024 27.4628 250.081C28.0382 250.024 28.6192 250.081 29.1723 250.25Z" fill="#E0E0E0"/>
<path d="M35.9906 250.25C35.4391 250.415 34.8609 250.472 34.2876 250.419C33.7122 250.472 33.1321 250.414 32.5781 250.25C33.1312 250.081 33.7122 250.024 34.2876 250.081C34.8609 250.024 35.4398 250.081 35.9906 250.25Z" fill="#E0E0E0"/>
<path d="M42.8148 250.25C42.2609 250.414 41.6807 250.472 41.1053 250.419C40.5321 250.472 39.9539 250.415 39.4023 250.25C39.9531 250.081 40.5321 250.024 41.1053 250.081C41.6807 250.024 42.2617 250.081 42.8148 250.25Z" fill="#E0E0E0"/>
<path d="M47.8535 250.25C47.8535 250.341 47.4895 250.419 47.041 250.419C46.5925 250.419 46.2285 250.341 46.2285 250.25C46.2285 250.159 46.5925 250.081 47.041 250.081C47.4895 250.081 47.8535 250.172 47.8535 250.25Z" fill="#E0E0E0"/>
<path d="M166.346 38.0962V80.2227H105.844L103.66 38.3887L166.346 38.0962Z" fill="#E0E0E0"/>
<path d="M103.66 38.3888V80.1318H164.162V38.3888L103.66 38.3888Z" fill="white"/>
<path d="M164.45 80.418H103.35V38.103H164.45V80.418ZM103.941 79.846H163.871V38.675H103.941V79.846Z" fill="#E0E0E0"/>
<path d="M157.611 43.5762H110.213V74.9452H157.611V43.5762Z" fill="white"/>
<path d="M157.612 43.55H157.378H156.728H154.128L144.378 43.589L110.259 43.654L110.396 43.5175C110.396 53.105 110.396 63.7195 110.396 74.8865L110.246 74.737L157.644 74.7695L157.527 74.8865C157.527 65.3445 157.573 57.512 157.592 52.065C157.592 49.3415 157.592 47.2095 157.592 45.7535C157.592 45.032 157.592 44.4535 157.592 44.096C157.592 43.7385 157.592 43.5175 157.592 43.5175C157.592 43.5175 157.592 43.6995 157.592 44.07C157.592 44.4405 157.592 44.993 157.592 45.708C157.592 47.1575 157.592 49.2765 157.592 51.987C157.592 57.46 157.631 65.312 157.657 74.8865V75.01H157.534H110.136H109.986V74.8605C109.986 63.6935 109.986 53.079 109.986 43.4915V43.355H110.123L144.332 43.42L154.082 43.459H156.682H157.56L157.612 43.55Z" fill="#E0E0E0"/>
<path d="M103.66 38.272C104.032 38.4454 104.381 38.6637 104.7 38.922C105.318 39.3705 106.163 40.001 107.073 40.729C107.983 41.457 108.782 42.146 109.348 42.679C109.673 42.93 109.964 43.2229 110.212 43.55C110.16 43.615 108.704 42.4125 106.884 40.95C105.754 40.1261 104.677 39.2317 103.66 38.272Z" fill="#E0E0E0"/>
<path d="M164.163 38.3892C163.171 39.3683 162.108 40.2742 160.985 41.0997C159.921 41.9968 158.793 42.8158 157.611 43.5502C158.607 42.572 159.671 41.6662 160.796 40.8397C161.861 39.9461 162.986 39.1273 164.163 38.3892Z" fill="#E0E0E0"/>
<path d="M164.118 80.1384L157.371 74.6719L164.118 80.1384Z" fill="white"/>
<path d="M157.371 74.6719C158.587 75.4567 159.747 76.3254 160.842 77.2719C161.989 78.146 163.075 79.0972 164.092 80.1189C162.877 79.3349 161.72 78.466 160.628 77.5189C159.478 76.6458 158.39 75.6945 157.371 74.6719Z" fill="#E0E0E0"/>
<path d="M103.66 80.1319C104.643 79.1626 105.697 78.2675 106.813 77.4539C107.863 76.5574 108.978 75.7384 110.147 75.0034C109.163 75.9739 108.11 76.8711 106.995 77.6879C105.943 78.5812 104.829 79.398 103.66 80.1319Z" fill="#E0E0E0"/>
<path d="M119.838 53.352V63.856H149.66V53.352H119.838Z" fill="#E0E0E0"/>
<path d="M99.8029 127.212H227.853C228.458 127.212 229.038 127.452 229.466 127.88C229.894 128.308 230.134 128.888 230.134 129.493V180.843H97.502V129.493C97.5019 129.192 97.5616 128.893 97.6775 128.615C97.7933 128.337 97.9631 128.085 98.1771 127.873C98.391 127.661 98.6448 127.493 98.9239 127.38C99.2029 127.266 99.5017 127.209 99.8029 127.212Z" fill="#CC84C0"/>
<path opacity="0.5" d="M99.8029 127.212H227.853C228.458 127.212 229.038 127.452 229.466 127.88C229.894 128.308 230.134 128.888 230.134 129.493V180.843H97.502V129.493C97.5019 129.192 97.5616 128.893 97.6775 128.615C97.7933 128.337 97.9631 128.085 98.1771 127.873C98.391 127.661 98.6448 127.493 98.9239 127.38C99.2029 127.266 99.5017 127.209 99.8029 127.212Z" fill="black"/>
<path d="M220.663 90.3889H107.537V234.799H220.663V90.3889Z" fill="white"/>
<path d="M220.616 89.8755H107.49V117.565H220.616V89.8755Z" fill="#F5F5F5"/>
<path d="M214.215 148.122H113.146V158.139H214.215V148.122Z" fill="#FAFAFA"/>
<path d="M117.754 115.732H117.949V117.565H117.754V115.732Z" fill="white"/>
<path d="M119.776 116.766V117.566H119.6V116.786C119.6 116.493 119.451 116.344 119.191 116.344C119.125 116.339 119.059 116.35 118.997 116.374C118.936 116.398 118.88 116.435 118.835 116.482C118.789 116.53 118.754 116.587 118.732 116.649C118.711 116.712 118.703 116.778 118.71 116.844V117.566H118.521V116.188H118.697V116.441C118.755 116.356 118.833 116.287 118.926 116.241C119.018 116.195 119.121 116.175 119.223 116.181C119.3 116.177 119.377 116.189 119.448 116.218C119.519 116.246 119.583 116.289 119.636 116.345C119.688 116.401 119.728 116.467 119.752 116.54C119.777 116.613 119.785 116.69 119.776 116.766Z" fill="white"/>
<path d="M121.415 116.188L120.804 117.565H120.609L119.998 116.188H120.193L120.707 117.364L121.233 116.188H121.415Z" fill="white"/>
<path d="M121.5 116.877C121.5 116.738 121.541 116.602 121.619 116.487C121.696 116.371 121.805 116.281 121.934 116.228C122.062 116.175 122.203 116.161 122.339 116.188C122.475 116.215 122.601 116.282 122.699 116.38C122.797 116.478 122.864 116.603 122.891 116.74C122.918 116.876 122.904 117.017 122.851 117.145C122.798 117.273 122.708 117.383 122.592 117.46C122.477 117.537 122.341 117.579 122.202 117.579C122.108 117.586 122.013 117.574 121.925 117.541C121.836 117.509 121.755 117.457 121.688 117.39C121.622 117.324 121.57 117.243 121.538 117.154C121.505 117.066 121.492 116.971 121.5 116.877ZM122.709 116.877C122.713 116.808 122.702 116.74 122.678 116.675C122.654 116.611 122.618 116.553 122.57 116.503C122.522 116.454 122.465 116.415 122.402 116.389C122.339 116.362 122.271 116.349 122.202 116.35C122.094 116.344 121.987 116.37 121.894 116.425C121.801 116.481 121.726 116.563 121.681 116.661C121.635 116.759 121.62 116.869 121.637 116.976C121.655 117.083 121.704 117.182 121.779 117.26C121.854 117.339 121.95 117.393 122.056 117.416C122.162 117.439 122.272 117.429 122.373 117.389C122.473 117.348 122.559 117.278 122.619 117.188C122.679 117.098 122.71 116.991 122.709 116.883V116.877Z" fill="white"/>
<path d="M123.234 115.752C123.236 115.717 123.251 115.684 123.277 115.66C123.302 115.635 123.336 115.622 123.371 115.622C123.388 115.621 123.406 115.624 123.423 115.63C123.439 115.636 123.454 115.646 123.467 115.658C123.48 115.67 123.49 115.684 123.497 115.701C123.504 115.717 123.507 115.734 123.507 115.752C123.507 115.788 123.493 115.823 123.467 115.849C123.442 115.874 123.407 115.888 123.371 115.888C123.335 115.888 123.3 115.874 123.274 115.849C123.249 115.823 123.234 115.788 123.234 115.752ZM123.28 116.187H123.462V117.565H123.28V116.187Z" fill="white"/>
<path d="M123.844 116.877C123.837 116.782 123.851 116.688 123.884 116.599C123.917 116.511 123.97 116.431 124.037 116.364C124.104 116.298 124.185 116.247 124.275 116.216C124.364 116.184 124.459 116.172 124.553 116.181C124.659 116.174 124.765 116.196 124.859 116.244C124.954 116.292 125.035 116.365 125.092 116.454L124.956 116.545C124.91 116.481 124.85 116.429 124.78 116.393C124.709 116.358 124.631 116.341 124.553 116.344C124.421 116.358 124.299 116.421 124.21 116.52C124.121 116.619 124.072 116.747 124.072 116.88C124.072 117.013 124.121 117.141 124.21 117.24C124.299 117.339 124.421 117.401 124.553 117.416C124.631 117.418 124.709 117.401 124.78 117.366C124.85 117.331 124.91 117.279 124.956 117.215L125.092 117.306C125.035 117.395 124.954 117.467 124.859 117.515C124.765 117.563 124.659 117.585 124.553 117.579C124.458 117.587 124.362 117.575 124.273 117.543C124.183 117.511 124.102 117.46 124.034 117.393C123.967 117.326 123.915 117.245 123.882 117.156C123.849 117.067 123.836 116.971 123.844 116.877Z" fill="white"/>
<path d="M126.634 116.935H125.483C125.492 117.07 125.553 117.196 125.654 117.287C125.755 117.377 125.888 117.423 126.023 117.416C126.102 117.419 126.182 117.404 126.255 117.373C126.328 117.341 126.393 117.294 126.445 117.234L126.549 117.358C126.45 117.461 126.323 117.534 126.183 117.565C126.042 117.597 125.896 117.586 125.762 117.535C125.628 117.483 125.512 117.393 125.429 117.276C125.346 117.159 125.299 117.02 125.295 116.877C125.295 116.699 125.365 116.529 125.491 116.403C125.617 116.278 125.787 116.207 125.964 116.207C126.142 116.207 126.312 116.278 126.438 116.403C126.563 116.529 126.634 116.699 126.634 116.877V116.935ZM125.483 116.799H126.458C126.458 116.669 126.407 116.545 126.316 116.454C126.224 116.362 126.1 116.311 125.971 116.311C125.842 116.311 125.718 116.362 125.626 116.454C125.535 116.545 125.483 116.669 125.483 116.799Z" fill="white"/>
<path d="M129.486 116.35L129.414 116.896H129.791V117.046H129.401L129.336 117.54H129.2L129.258 117.046H128.699L128.641 117.54H128.498L128.556 117.046H128.186V116.896H128.576L128.641 116.35H128.27V116.207H128.66L128.725 115.707H128.868L128.803 116.207H129.349L129.408 115.707H129.551L129.492 116.207H129.863V116.35H129.486ZM129.343 116.35H128.81L128.738 116.896H129.278L129.343 116.35Z" fill="white"/>
<path d="M131.3 117.039C131.3 117.344 131.079 117.585 130.65 117.585C130.411 117.588 130.18 117.502 130 117.344L130.097 117.195C130.25 117.338 130.454 117.416 130.663 117.409C130.969 117.409 131.131 117.266 131.131 117.039C131.131 116.811 130.981 116.675 130.637 116.675H130.507V116.538L131.014 115.888H130.078V115.719H131.254V115.856L130.741 116.506C131.105 116.538 131.3 116.746 131.3 117.039Z" fill="white"/>
<path d="M133.128 117.084H132.758V117.565H132.602V117.084H131.568V116.948L132.543 115.732H132.751L131.815 116.915H132.602V116.493H132.784V116.915H133.154L133.128 117.084Z" fill="white"/>
<path d="M134.552 117C134.552 117.312 134.337 117.559 133.902 117.559C133.663 117.564 133.431 117.478 133.252 117.319L133.343 117.169C133.494 117.311 133.695 117.389 133.902 117.384C134.214 117.384 134.383 117.234 134.383 117.007C134.383 116.779 134.233 116.63 133.772 116.63H133.382L133.473 115.707H134.474V115.876H133.635L133.577 116.461H133.811C134.324 116.487 134.552 116.701 134.552 117Z" fill="white"/>
<path d="M136.15 117C136.15 117.082 136.132 117.162 136.098 117.236C136.065 117.311 136.015 117.377 135.954 117.43C135.892 117.484 135.82 117.524 135.741 117.547C135.663 117.57 135.581 117.577 135.5 117.565C135.013 117.565 134.746 117.227 134.746 116.649C134.746 116.07 135.084 115.7 135.585 115.7C135.736 115.693 135.886 115.726 136.02 115.797L135.942 115.947C135.834 115.885 135.709 115.856 135.585 115.862C135.188 115.862 134.935 116.116 134.935 116.616C134.935 116.655 134.935 116.707 134.935 116.766C134.986 116.664 135.067 116.58 135.166 116.523C135.266 116.466 135.379 116.44 135.494 116.447C135.574 116.432 135.658 116.435 135.737 116.455C135.817 116.476 135.891 116.514 135.953 116.567C136.016 116.62 136.067 116.687 136.101 116.761C136.135 116.836 136.152 116.918 136.15 117ZM135.962 117C135.962 116.759 135.786 116.603 135.5 116.603C135.443 116.597 135.384 116.603 135.329 116.62C135.274 116.637 135.222 116.665 135.179 116.703C135.135 116.741 135.099 116.787 135.074 116.84C135.049 116.892 135.034 116.949 135.032 117.006C135.032 117.208 135.201 117.396 135.513 117.396C135.569 117.403 135.626 117.397 135.68 117.38C135.734 117.363 135.783 117.335 135.826 117.298C135.868 117.261 135.902 117.215 135.925 117.163C135.949 117.112 135.961 117.056 135.962 117Z" fill="white"/>
<path d="M137.622 117.396V117.565H136.322V117.435L137.082 116.688C137.29 116.48 137.329 116.356 137.329 116.233C137.329 116.109 137.18 115.888 136.9 115.888C136.807 115.885 136.713 115.902 136.627 115.938C136.541 115.974 136.463 116.028 136.4 116.096L136.27 115.979C136.352 115.891 136.453 115.822 136.566 115.777C136.678 115.732 136.799 115.712 136.92 115.719C137.29 115.719 137.524 115.908 137.524 116.213C137.52 116.325 137.491 116.434 137.439 116.533C137.388 116.632 137.314 116.718 137.225 116.785L136.575 117.396H137.622Z" fill="white"/>
<path d="M197.388 125.814C196.218 126.039 195.016 126.039 193.846 125.814C195.016 125.589 196.218 125.589 197.388 125.814Z" fill="#263238"/>
<path d="M198.01 127.289C198.183 126.189 198.586 125.137 199.193 124.202C199.154 124.76 199.006 125.306 198.757 125.807C198.608 126.346 198.354 126.85 198.01 127.289Z" fill="#263238"/>
<path d="M202.56 125.814C201.697 126.04 200.791 126.04 199.928 125.814C199.928 125.717 200.519 125.645 201.228 125.645C201.936 125.645 202.56 125.717 202.56 125.814Z" fill="#263238"/>
<path d="M203.641 126.932C203.643 126.451 203.756 125.977 203.972 125.548C204.239 124.82 204.525 124.248 204.622 124.287C204.62 124.765 204.507 125.237 204.291 125.665C204.018 126.399 203.732 126.965 203.641 126.932Z" fill="#263238"/>
<path d="M210.275 125.814C208.527 126.039 206.758 126.039 205.01 125.814C206.758 125.589 208.527 125.589 210.275 125.814Z" fill="#263238"/>
<path d="M143.56 153.66C143.56 153.751 138.705 153.829 132.712 153.829C126.719 153.829 121.863 153.751 121.863 153.66C121.863 153.569 126.719 153.491 132.712 153.491C138.705 153.491 143.56 153.569 143.56 153.66Z" fill="#263238"/>
<path d="M179.052 153.894C177.48 154.061 175.899 154.118 174.32 154.063C172.741 154.118 171.159 154.061 169.588 153.894C171.159 153.723 172.741 153.666 174.32 153.725C175.899 153.666 177.481 153.723 179.052 153.894Z" fill="#263238"/>
<path d="M192.4 153.315C192.4 153.406 191.932 153.484 191.36 153.484C190.788 153.484 190.32 153.406 190.32 153.315C190.32 153.224 190.788 153.146 191.36 153.146C191.932 153.146 192.4 153.218 192.4 153.315Z" fill="#263238"/>
<path d="M210.483 153.543C209.086 153.714 207.677 153.771 206.271 153.712C204.864 153.771 203.456 153.714 202.059 153.543C203.456 153.376 204.864 153.319 206.271 153.374C207.677 153.319 209.085 153.376 210.483 153.543Z" fill="#263238"/>
<path d="M154.753 163.358C154.753 163.449 147.395 163.527 138.308 163.527C129.221 163.527 121.863 163.449 121.863 163.358C121.863 163.267 129.228 163.189 138.308 163.189C147.389 163.189 154.753 163.26 154.753 163.358Z" fill="#263238"/>
<path d="M177.322 163.469C176.041 163.64 174.746 163.696 173.455 163.638C172.152 163.698 170.847 163.642 169.555 163.469C170.847 163.3 172.152 163.243 173.455 163.3C174.746 163.245 176.04 163.301 177.322 163.469Z" fill="#263238"/>
<path d="M192.829 163.358C191.841 163.583 190.814 163.583 189.826 163.358C190.814 163.133 191.841 163.133 192.829 163.358Z" fill="#263238"/>
<path d="M209.331 163.15C206.643 163.375 203.94 163.375 201.252 163.15C203.94 162.925 206.643 162.925 209.331 163.15Z" fill="#263238"/>
<path d="M213.93 183.04H166.311V189.248H213.93V183.04Z" fill="#CC84C0"/>
<path d="M203.484 174.272C201.602 174.443 199.712 174.499 197.823 174.441C195.936 174.499 194.048 174.443 192.168 174.272C194.048 174.104 195.936 174.048 197.823 174.103C199.712 174.048 201.602 174.104 203.484 174.272Z" fill="#263238"/>
<path d="M203.484 178.438C201.602 178.605 199.712 178.662 197.823 178.607C195.936 178.662 194.048 178.605 192.168 178.438C194.048 178.266 195.936 178.21 197.823 178.269C199.712 178.21 201.602 178.267 203.484 178.438Z" fill="#263238"/>
<path d="M182.456 178.438C180.574 178.605 178.683 178.662 176.794 178.607C174.905 178.662 173.015 178.605 171.133 178.438C173.015 178.267 174.905 178.21 176.794 178.269C178.683 178.21 180.574 178.267 182.456 178.438Z" fill="#263238"/>
<path d="M182.457 174.064C182.457 174.155 178.674 174.233 174.007 174.233C169.34 174.233 165.557 174.155 165.557 174.064C165.557 173.973 169.333 173.895 174.007 173.895C178.68 173.895 182.457 173.973 182.457 174.064Z" fill="#263238"/>
<path d="M203.484 186.452C201.602 186.624 199.712 186.68 197.823 186.621C195.936 186.68 194.048 186.624 192.168 186.452C194.048 186.285 195.936 186.229 197.823 186.283C199.712 186.229 201.602 186.285 203.484 186.452Z" fill="white"/>
<path d="M183.081 186.452C181.199 186.624 179.308 186.68 177.419 186.621C175.53 186.68 173.64 186.624 171.758 186.452C173.64 186.285 175.53 186.229 177.419 186.283C179.308 186.229 181.199 186.285 183.081 186.452Z" fill="white"/>
<path d="M118.678 100.022H117.495C116.921 100.022 116.455 100.488 116.455 101.062V102.245C116.455 102.819 116.921 103.285 117.495 103.285H118.678C119.252 103.285 119.718 102.819 119.718 102.245V101.062C119.718 100.488 119.252 100.022 118.678 100.022Z" fill="#CC84C0"/>
<path d="M117.189 104C117.189 104.05 117.209 104.098 117.245 104.133C117.28 104.169 117.328 104.188 117.378 104.188H120.511V100.938C120.511 100.889 120.491 100.841 120.456 100.805C120.42 100.77 120.372 100.75 120.322 100.75C120.272 100.75 120.223 100.77 120.187 100.805C120.15 100.84 120.129 100.888 120.127 100.938V103.747H117.378C117.347 103.745 117.315 103.75 117.287 103.764C117.258 103.777 117.234 103.797 117.215 103.822C117.196 103.847 117.184 103.877 117.18 103.908C117.175 103.939 117.179 103.971 117.189 104Z" fill="#CC84C0"/>
<path d="M140.767 101.153C140.767 101.244 136.574 101.322 131.407 101.322C126.239 101.322 122.047 101.244 122.047 101.153C122.047 101.062 126.233 100.984 131.407 100.984C136.581 100.984 140.767 101.055 140.767 101.153Z" fill="#CC84C0"/>
<path d="M132.085 102.947C130.458 103.118 128.82 103.174 127.184 103.116C125.549 103.174 123.911 103.118 122.283 102.947C123.911 102.78 125.549 102.723 127.184 102.778C128.82 102.723 130.457 102.78 132.085 102.947Z" fill="#CC84C0"/>
<path d="M220.617 234.279C220.617 232.947 220.558 175.584 220.467 89.8755L220.617 90.025H107.517L107.686 89.856C107.686 143.39 107.686 193.108 107.686 234.26L107.543 234.123L220.643 234.26L107.543 234.403H107.406V234.26C107.406 193.108 107.406 143.39 107.406 89.856V89.7H107.588H220.688H220.844V89.856C220.682 175.584 220.617 232.953 220.617 234.279Z" fill="#263238"/>
<path d="M163.684 129.538C163.684 129.629 157.632 129.707 150.17 129.707C142.708 129.707 136.65 129.629 136.65 129.538C136.65 129.447 142.702 129.369 150.17 129.369C157.639 129.369 163.684 129.441 163.684 129.538Z" fill="#263238"/>
<path d="M163.684 132.126C163.684 132.217 157.632 132.295 150.17 132.295C142.708 132.295 136.65 132.217 136.65 132.126C136.65 132.035 142.702 131.957 150.17 131.957C157.639 131.957 163.684 132.028 163.684 132.126Z" fill="#263238"/>
<path d="M146.758 134.712C145.078 134.88 143.388 134.936 141.701 134.881C140.016 134.936 138.328 134.88 136.65 134.712C138.328 134.547 140.016 134.493 141.701 134.55C143.388 134.493 145.078 134.547 146.758 134.712Z" fill="#263238"/>
<path d="M164.105 126.75C164.105 126.841 152.724 126.919 138.69 126.919C124.657 126.919 113.275 126.841 113.275 126.75C113.275 126.659 124.65 126.581 138.69 126.581C152.73 126.581 164.105 126.666 164.105 126.75Z" fill="#263238"/>
<path d="M144.185 144.638C144.185 144.729 139.115 144.807 132.856 144.807C126.596 144.807 121.52 144.729 121.52 144.638C121.52 144.547 126.59 144.469 132.856 144.469C139.122 144.469 144.185 144.541 144.185 144.638Z" fill="white"/>
<path d="M179.452 144.638C177.457 144.805 175.454 144.862 173.453 144.807C171.451 144.862 169.448 144.805 167.453 144.638C169.448 144.467 171.451 144.41 173.453 144.469C175.454 144.41 177.457 144.467 179.452 144.638Z" fill="white"/>
<path d="M196.611 144.638C195.136 144.805 193.65 144.861 192.165 144.807C190.679 144.861 189.191 144.805 187.713 144.638C189.19 144.467 190.679 144.41 192.165 144.469C193.65 144.41 195.136 144.467 196.611 144.638Z" fill="white"/>
<path d="M211.445 144.638C209.969 144.805 208.483 144.862 206.999 144.807C205.515 144.862 204.028 144.805 202.553 144.638C204.028 144.467 205.515 144.41 206.999 144.469C208.483 144.41 209.969 144.467 211.445 144.638Z" fill="white"/>
<path d="M40.6328 299.065V187.2C40.6328 185.378 41.3567 183.63 42.6451 182.342C43.9336 181.053 45.6811 180.33 47.5033 180.33H277.499C279.321 180.33 281.069 181.053 282.357 182.342C283.646 183.63 284.37 185.378 284.37 187.2V299.065H40.6328Z" fill="#CC84C0"/>
<path d="M203.491 217.431C209.44 217.431 214.262 212.609 214.262 206.661C214.262 200.713 209.44 195.89 203.491 195.89C197.543 195.89 192.721 200.713 192.721 206.661C192.721 212.609 197.543 217.431 203.491 217.431Z" fill="#263238"/>
<path d="M216.654 206.661C216.581 205.584 216.42 204.514 216.173 203.463C215.86 202.239 215.365 201.068 214.704 199.992C213.146 197.396 210.733 195.424 207.879 194.413C205.025 193.403 201.909 193.417 199.065 194.454C197.883 194.872 196.774 195.471 195.776 196.229C195.258 196.612 194.767 197.032 194.307 197.483C193.84 197.954 193.406 198.456 193.007 198.985C191.369 201.208 190.485 203.896 190.485 206.658C190.485 209.419 191.369 212.108 193.007 214.331C193.408 214.861 193.842 215.364 194.307 215.839C194.767 216.288 195.258 216.705 195.776 217.087C196.774 217.845 197.883 218.443 199.065 218.861C201.909 219.891 205.022 219.903 207.874 218.894C210.726 217.886 213.139 215.919 214.704 213.33C215.364 212.251 215.859 211.079 216.173 209.853C216.419 208.804 216.58 207.736 216.654 206.661C216.663 206.73 216.663 206.8 216.654 206.869C216.654 207.038 216.654 207.24 216.654 207.519C216.653 207.861 216.625 208.202 216.569 208.539C216.516 209.002 216.431 209.46 216.316 209.911C216.026 211.159 215.544 212.354 214.886 213.454C213.931 215.081 212.639 216.486 211.098 217.574C209.557 218.662 207.801 219.409 205.948 219.765C203.605 220.211 201.185 220.02 198.941 219.213C197.728 218.785 196.588 218.173 195.561 217.399C195.026 217.002 194.52 216.568 194.047 216.099C193.579 215.613 193.145 215.096 192.747 214.552C191.054 212.268 190.141 209.5 190.141 206.658C190.141 203.815 191.054 201.048 192.747 198.764C193.145 198.219 193.579 197.702 194.047 197.217C194.52 196.748 195.026 196.313 195.561 195.917C196.587 195.142 197.727 194.532 198.941 194.11C201.184 193.297 203.605 193.104 205.948 193.55C207.801 193.906 209.557 194.653 211.098 195.741C212.639 196.83 213.931 198.235 214.886 199.862C215.544 200.961 216.026 202.156 216.316 203.404C216.432 203.857 216.516 204.318 216.569 204.782C216.625 205.118 216.653 205.457 216.654 205.796C216.654 206.056 216.654 206.264 216.654 206.446C216.664 206.518 216.664 206.59 216.654 206.661Z" fill="#263238"/>
<path d="M283.659 230.009C283.659 230.106 229.26 230.178 162.161 230.178C95.0612 230.178 40.6562 230.1 40.6562 230.009C40.6562 229.918 95.0482 229.84 162.161 229.84C229.273 229.84 283.659 229.918 283.659 230.009Z" fill="#263238"/>
<path d="M226.87 152.587V162.142H220.598V180.323V181.857H236.425V152.587H226.87Z" fill="#CC84C0"/>
<path d="M101.245 162.142V152.587H91.6836V180.466H107.518V180.323V162.142H101.245Z" fill="#CC84C0"/>
<path opacity="0.3" d="M235.101 299.065L87.584 295.704V286.877H235.101V299.065Z" fill="black"/>
<path opacity="0.5" d="M232.777 246.2H91.623V272.512H232.777V246.2Z" fill="black"/>
<path d="M275.492 180.323C275.492 180.414 224.415 180.492 161.417 180.492C98.4194 180.492 47.3359 180.414 47.3359 180.323C47.3359 180.232 98.4064 180.154 161.417 180.154C224.428 180.154 275.492 180.226 275.492 180.323Z" fill="#263238"/>
<path d="M171.751 230.347C171.654 230.347 171.582 219.193 171.582 205.432C171.582 191.672 171.654 180.524 171.751 180.524C171.849 180.524 171.92 191.672 171.92 205.432C171.92 219.193 171.842 230.347 171.751 230.347Z" fill="#263238"/>
<path d="M79.2159 229.248C79.1249 229.248 79.0469 218.302 79.0469 204.795C79.0469 191.288 79.1249 180.336 79.2159 180.336C79.3069 180.336 79.3849 191.288 79.3849 204.795C79.3849 218.302 79.3004 229.248 79.2159 229.248Z" fill="#263238"/>
<path d="M200.558 203.073C200.558 203.073 200.318 203.294 199.96 203.723C199.45 204.361 199.114 205.12 198.985 205.926C198.888 206.516 198.908 207.12 199.044 207.702C199.18 208.284 199.43 208.834 199.778 209.319C200.189 209.891 200.722 210.364 201.338 210.704C202.321 211.233 203.464 211.382 204.55 211.124C205.636 210.865 206.589 210.216 207.227 209.3C207.914 208.316 208.192 207.104 208.001 205.92C207.866 205.117 207.526 204.362 207.013 203.729C206.649 203.274 206.363 203.079 206.408 203.079C206.454 203.079 206.486 203.112 206.61 203.203C206.792 203.342 206.962 203.496 207.117 203.664C207.688 204.296 208.077 205.071 208.241 205.907C208.36 206.53 208.354 207.171 208.225 207.792C208.095 208.413 207.845 209.003 207.487 209.527C206.812 210.515 205.794 211.218 204.631 211.499C203.467 211.78 202.241 211.619 201.189 211.048C200.532 210.68 199.966 210.169 199.531 209.553C199.168 209.032 198.911 208.443 198.777 207.822C198.643 207.2 198.635 206.558 198.751 205.933C198.911 205.098 199.295 204.323 199.863 203.69C200.017 203.521 200.184 203.364 200.363 203.222C200.487 203.105 200.552 203.06 200.558 203.073Z" fill="#FAFAFA"/>
<path d="M203.489 200.434C203.715 203.01 203.715 205.6 203.489 208.176C203.264 205.6 203.264 203.01 203.489 200.434Z" fill="#FAFAFA"/>
<path d="M147.023 195.572H103.941C103.298 195.572 102.777 196.093 102.777 196.736V217.607C102.777 218.25 103.298 218.771 103.941 218.771H147.023C147.665 218.771 148.186 218.25 148.186 217.607V196.736C148.186 196.093 147.665 195.572 147.023 195.572Z" fill="white"/>
<path d="M124.462 201.63L123.858 201.025L123.24 201.643V206.635L123.89 207.285L124.501 206.674L124.462 201.63Z" fill="#263238"/>
<path d="M124.462 208.097L123.858 207.493L123.24 208.11V213.102L123.89 213.752L124.501 213.141L124.462 208.097Z" fill="#263238"/>
<path d="M130.975 208.097L130.364 207.493L129.746 208.11V213.102L130.396 213.752L131.007 213.141L130.975 208.097Z" fill="#263238"/>
<path d="M131.016 201.63L130.411 201.025L129.787 201.643V206.635L130.437 207.285L131.055 206.674L131.016 201.63Z" fill="#263238"/>
<path d="M124.56 200.304L123.955 200.908L124.573 201.526H129.565L130.215 200.876L129.604 200.265L124.56 200.304Z" fill="#263238"/>
<path d="M124.56 213.285L123.955 213.889L124.573 214.507H129.565L130.215 213.857L129.604 213.246L124.56 213.285Z" fill="#263238"/>
<path d="M124.56 206.804L123.955 207.408L124.573 208.026H129.565L130.215 207.376L129.604 206.765L124.56 206.804Z" fill="#E0E0E0"/>
<path d="M136.208 201.526L135.604 200.921L134.986 201.539V206.531L135.636 207.181L136.247 206.57L136.208 201.526Z" fill="#E0E0E0"/>
<path d="M136.208 207.993L135.604 207.389L134.986 208.006V212.998L135.636 213.648L136.247 213.037L136.208 207.993Z" fill="#263238"/>
<path d="M142.714 207.993L142.11 207.389L141.492 208.006V212.998L142.142 213.648L142.753 213.037L142.714 207.993Z" fill="#E0E0E0"/>
<path d="M142.76 201.526L142.155 200.921L141.531 201.539V206.531L142.181 207.181L142.799 206.57L142.76 201.526Z" fill="#263238"/>
<path d="M136.308 200.2L135.703 200.804L136.321 201.422H141.313L141.963 200.772L141.352 200.161L136.308 200.2Z" fill="#263238"/>
<path d="M136.308 213.181L135.703 213.785L136.321 214.403H141.313L141.963 213.753L141.352 213.142L136.308 213.181Z" fill="#263238"/>
<path d="M136.308 206.693L135.703 207.304L136.321 207.922H141.313L141.963 207.272L141.352 206.661L136.308 206.693Z" fill="#263238"/>
<path d="M148.482 220.584C148.482 220.584 148.612 220.584 148.852 220.526C149.169 220.453 149.459 220.293 149.689 220.063C149.919 219.833 150.08 219.543 150.152 219.226C150.199 218.901 150.212 218.572 150.191 218.244C150.191 217.516 150.191 216.691 150.191 215.755C150.191 211.998 150.191 206.59 150.139 199.908C150.139 199.076 150.139 198.218 150.139 197.34V196.04C150.163 195.615 150.021 195.198 149.743 194.877C149.605 194.713 149.435 194.58 149.244 194.485C149.053 194.39 148.844 194.335 148.631 194.324H144.302H131.744H102.969C102.68 194.326 102.398 194.407 102.152 194.557C101.906 194.707 101.705 194.92 101.571 195.176C101.437 195.436 101.376 195.728 101.396 196.021V200.72C101.396 203.21 101.396 205.654 101.396 208.065C101.396 210.477 101.396 212.836 101.396 215.15V218.582C101.365 218.842 101.396 219.105 101.485 219.351C101.574 219.597 101.719 219.819 101.909 219.999C102.093 220.17 102.316 220.292 102.559 220.357C102.817 220.413 103.082 220.433 103.346 220.415L126.843 220.454L142.69 220.506L146.993 220.539H142.69L126.843 220.597L103.352 220.74C103.06 220.759 102.767 220.737 102.481 220.675C102.186 220.596 101.914 220.446 101.688 220.24C101.461 220.034 101.284 219.778 101.171 219.493C101.058 219.208 101.013 218.901 101.038 218.595V215.15C101.038 212.836 101.038 210.47 101.038 208.065V196.034C101.02 195.688 101.092 195.343 101.246 195.033C101.411 194.723 101.656 194.464 101.956 194.282C102.255 194.1 102.599 194.002 102.949 193.999H131.725H144.283H147.182C147.663 193.999 148.118 193.999 148.599 193.999C148.848 194.015 149.091 194.081 149.314 194.193C149.537 194.304 149.736 194.459 149.899 194.649C150.214 195.021 150.375 195.501 150.347 195.988V197.288C150.347 198.166 150.347 199.024 150.347 199.856C150.347 206.538 150.308 211.946 150.295 215.703C150.295 216.639 150.295 217.464 150.295 218.192C150.312 218.527 150.293 218.863 150.237 219.193C150.172 219.468 150.04 219.722 149.853 219.934C149.599 220.22 149.259 220.416 148.885 220.493C148.756 220.545 148.62 220.575 148.482 220.584Z" fill="#263238"/>
<path d="M284.37 246.2C284.37 246.291 229.887 246.369 162.697 246.369C95.5064 246.369 41.0039 246.291 41.0039 246.2C41.0039 246.109 95.4804 246.031 162.697 246.031C229.913 246.031 284.37 246.109 284.37 246.2Z" fill="#263238"/>
<path d="M237.128 286.877H83.1758V292.974H237.128V286.877Z" fill="#CC84C0"/>
<path d="M237.127 292.968C237.127 292.968 237.127 292.48 237.127 291.479C237.127 290.478 237.127 288.957 237.127 286.877L237.166 286.916L83.2198 287.046L83.3887 286.877V292.968L83.2198 292.799L192.257 292.87L225.121 292.922H234.052H236.373H237.172C237.172 292.922 236.919 292.922 236.399 292.922H234.098H225.206L192.381 292.974L83.2003 293.15H83.0312V286.721H83.2003L237.146 286.845H237.192V286.89C237.192 288.983 237.192 290.511 237.192 291.518C237.192 292.526 237.127 292.968 237.127 292.968Z" fill="#263238"/>
<path d="M87.584 286.702V281.521H92.004L87.584 278.687V272.512H232.774V279.695L229.609 281.222L232.774 281.261V286.812L87.584 286.702Z" fill="white"/>
<path d="M87.584 272.512V278.687L91.835 281.411H87.584V286.702H98.1075V272.512H87.584Z" fill="#E0E0E0"/>
<path d="M229.607 281.222C229.607 281.32 200.168 281.45 163.859 281.515C127.55 281.58 98.1055 281.554 98.1055 281.463C98.1055 281.372 127.537 281.242 163.859 281.177C200.181 281.112 229.607 281.131 229.607 281.222Z" fill="#EBEBEB"/>
<path d="M229.607 277.615C229.607 277.706 200.168 277.836 163.859 277.908C127.55 277.979 98.1055 277.947 98.1055 277.856C98.1055 277.765 127.537 277.635 163.859 277.563C200.181 277.492 229.607 277.55 229.607 277.615Z" fill="#EBEBEB"/>
<path d="M147.776 132.398H125.248V154.943H147.793V132.398H147.776ZM143.463 150.63H129.545V136.711H143.463V150.63Z" fill="#5A385D"/>
<path d="M140.544 139.648H132.498V147.694H140.544V139.648Z" fill="#5A385D"/>
<path d="M130.01 156.867H125.033V161.844H130.01V156.867Z" fill="#5A385D"/>
<path d="M177.092 132.398V154.943H199.637V132.398H177.092ZM195.324 150.63H181.405V136.711H195.324V150.63Z" fill="#5A385D"/>
<path d="M192.388 139.648H184.342V147.694H192.388V139.648Z" fill="#5A385D"/>
<path d="M135.117 176.625H130.074V181.602H135.117V176.625Z" fill="#5A385D"/>
<path d="M154.895 146.914H149.918V151.891H154.895V146.914Z" fill="#5A385D"/>
<path d="M194.659 156.867V161.844H189.682V156.867H184.705H179.728V161.844H184.705V166.821H179.728V161.844H174.752V166.821H179.728V171.665H174.752V166.821H169.775H164.798V161.844H159.821V156.867V151.891H154.844V156.867H149.867H145.173V161.844H140.13V156.867H135.086V161.844H130.043V166.821H125V171.665V171.798V176.642H130.043V171.798H135.086V176.642H140.146V180.124H145H149.884V176.642H145.189V171.798H149.884V176.642H154.861V180.124H149.884H150.949H151.5H152.372H159.854H164.831H169L169.775 179.5L164.831 180.124H169.808H177.5H199H184H189.699H191.5H194.675H199.652V176.642H194.675H189.699V180.124H194.675H191.5H189.699H186.312L184.722 176.642H189.699V171.665H184.722V166.821H189.699H194.675V171.798H199.652V166.821V161.844V156.867H194.659ZM145.206 171.649H140.163V166.804H145.206V171.649ZM150.266 166.804V161.828H154.894V166.804H159.871V171.649H154.894V166.804H150.266ZM164.831 180.124H159.854V176.625H164.831V180.124ZM169.808 171.781H174.785V176.625H169.808V171.781Z" fill="#5A385D"/>
<path d="M169.805 151.891H164.828V156.867V161.828H169.805H174.765V156.867V151.891V146.914H169.805V151.891Z" fill="#5A385D"/>
<path d="M169.807 136.977V132H164.83H159.853H154.876H149.916V136.977V141.937H154.876V136.977H159.853V141.937H154.876V146.914H159.853V151.891H164.83V146.914V141.937H169.807H174.767V136.977H169.807Z" fill="#5A385D"/>
<path d="M314.598 299.065C314.598 299.156 246.348 299.234 162.154 299.234C77.9591 299.234 9.74805 299.156 9.74805 299.065C9.74805 298.974 77.998 298.896 162.199 298.896C246.4 298.896 314.598 299 314.598 299.065Z" fill="#263238"/>
<g opacity="0.3">
<path d="M63.8839 180.336L54.2899 180.472L55.6354 224.126L47.9004 243.47C55.4664 243.665 65.0669 238.14 66.2239 230.659C66.7439 227.279 66.1524 223.84 65.8014 220.434C65.1514 213.999 65.3074 207.506 65.4894 201.038C65.6129 196.592 65.7624 192.016 67.5629 187.947C69.3634 183.878 73.2244 180.388 77.6704 180.427L63.8839 180.336Z" fill="black"/>
</g>
<path d="M57.5508 209.176L58.6753 234.266L69.2378 233.506L71.6038 207.181L57.5508 209.176Z" fill="#FFBE9D"/>
<path d="M69.6098 228.891C69.6098 228.891 62.1738 234.169 58.5598 229.599L57.6173 231.816L53.3923 247.578C53.2469 248.073 53.2876 248.604 53.5067 249.071C53.7258 249.538 54.1082 249.909 54.5818 250.113C54.9433 250.26 55.3394 250.298 55.7223 250.224C56.1052 250.151 56.4586 249.968 56.7398 249.697C59.8013 246.792 70.9943 236.047 70.8838 234.578L70.8448 230.678C70.8432 230.285 70.7224 229.901 70.4985 229.577C70.2746 229.254 69.958 229.005 69.5903 228.865L69.6098 228.891Z" fill="#455A64"/>
<path d="M54.9629 250.25L70.9074 233.259V234.104C70.9854 235.021 70.5824 235.404 70.1469 235.976C68.8469 237.712 65.2849 241.605 56.8219 249.73C56.579 249.963 56.2821 250.133 55.9578 250.224C55.6334 250.314 55.2916 250.323 54.9629 250.25Z" fill="#263238"/>
<path d="M68.5742 230.711C68.3284 230.89 68.1573 231.154 68.0937 231.451C68.0301 231.749 68.0786 232.059 68.2297 232.323C68.3985 232.576 68.658 232.754 68.9545 232.82C69.2509 232.887 69.5617 232.837 69.8222 232.681C70.0834 232.491 70.2647 232.211 70.3308 231.895C70.3969 231.579 70.343 231.25 70.1797 230.971C69.9763 230.724 69.6846 230.566 69.3665 230.531C69.0485 230.496 68.7292 230.586 68.4767 230.783" fill="#263238"/>
<path d="M59.559 241.52C59.4485 241.572 59 240.526 57.817 239.96C56.634 239.395 55.542 239.629 55.5225 239.512C55.503 239.395 55.7565 239.304 56.2245 239.239C56.8391 239.175 57.4592 239.288 58.012 239.564C58.5555 239.838 59.0073 240.265 59.312 240.792C59.5785 241.208 59.611 241.501 59.559 241.52Z" fill="#263238"/>
<path d="M58.129 244.185C58.0315 244.27 57.3945 243.62 56.361 243.321C55.3275 243.022 54.4435 243.184 54.411 243.061C54.3785 242.937 55.321 242.541 56.491 242.898C57.661 243.256 58.233 244.133 58.129 244.185Z" fill="#263238"/>
<path d="M62.2177 238.101C62.1267 238.199 61.1517 237.191 59.6177 236.58C58.0837 235.969 56.6667 236.015 56.6602 235.878C56.6537 235.742 58.1162 235.501 59.7802 236.177C61.4442 236.853 62.3152 238.049 62.2177 238.101Z" fill="#263238"/>
<path d="M62.577 233.304C62.525 233.421 61.42 232.96 59.977 232.901C58.534 232.843 57.377 233.181 57.377 233.057C57.377 232.934 58.4755 232.407 60.016 232.459C61.5565 232.511 62.642 233.207 62.577 233.304Z" fill="#263238"/>
<path d="M59.1514 232.856C59.1324 232.602 59.1702 232.346 59.2619 232.108C59.4545 231.44 59.7794 230.816 60.2174 230.275C60.5004 229.85 60.9164 229.53 61.4004 229.365C61.565 229.328 61.7371 229.342 61.8938 229.404C62.0505 229.467 62.1845 229.576 62.2779 229.716C62.4396 230.002 62.4904 230.338 62.4209 230.659C62.2529 231.31 61.8631 231.883 61.3186 232.278C60.774 232.673 60.1088 232.866 59.4374 232.823C58.7809 232.762 58.157 232.509 57.6437 232.095C57.1304 231.681 56.7504 231.125 56.5514 230.496C56.5011 230.337 56.4861 230.168 56.5075 230.002C56.5288 229.836 56.5859 229.676 56.6749 229.534C56.7802 229.401 56.9243 229.304 57.0874 229.256C57.2504 229.208 57.4243 229.213 57.5849 229.268C58.0469 229.465 58.4484 229.781 58.7484 230.184C59.203 230.708 59.5597 231.309 59.8014 231.959C59.9129 232.188 59.9728 232.439 59.9769 232.693C59.6037 231.857 59.1063 231.081 58.5014 230.393C58.224 230.053 57.8667 229.787 57.4614 229.619C57.3748 229.585 57.2794 229.581 57.1901 229.607C57.1008 229.633 57.0225 229.687 56.9674 229.762C56.9146 229.861 56.8833 229.97 56.8754 230.082C56.8676 230.194 56.8834 230.307 56.9219 230.412C57.1132 230.953 57.4554 231.428 57.9081 231.78C58.3609 232.133 58.9051 232.348 59.4764 232.401C60.0431 232.434 60.6042 232.274 61.0682 231.947C61.5322 231.62 61.8716 231.145 62.0309 230.6C62.0826 230.382 62.0573 230.152 61.9594 229.95C61.9102 229.871 61.8374 229.809 61.7512 229.773C61.6649 229.737 61.5696 229.728 61.4784 229.749C61.0702 229.882 60.7121 230.136 60.4514 230.477C59.8813 231.187 59.4412 231.993 59.1514 232.856Z" fill="#263238"/>
<path d="M35.6075 187.011L22.6855 211.542L33.001 217.724L49.6865 194.22L35.6075 187.011Z" fill="#FFBE9D"/>
<path d="M24.2975 208.26L23.875 208.942C23.875 208.942 9.47095 206.485 8.00195 208.604L31.0185 222.573L35.354 214.727C33.155 214.505 31.0297 213.813 29.122 212.697C27.2143 211.581 25.5689 210.068 24.2975 208.26Z" fill="#455A64"/>
<path d="M31.5387 215.761C31.7187 215.963 31.8182 216.225 31.8182 216.496C31.8182 216.766 31.7187 217.028 31.5387 217.23C31.342 217.416 31.0815 217.52 30.8107 217.52C30.5399 217.52 30.2794 217.416 30.0827 217.23C29.89 217.017 29.7832 216.74 29.7832 216.453C29.7832 216.166 29.89 215.889 30.0827 215.677C30.307 215.503 30.5892 215.423 30.8711 215.452C31.153 215.481 31.4129 215.617 31.5972 215.833" fill="#263238"/>
<path d="M31.0185 222.573L32.065 220.688L9.62045 208C9.62045 208 8.32045 207.824 8.00195 208.617L31.0185 222.573Z" fill="#263238"/>
<path d="M23.7574 208.956C23.6924 209.073 24.2254 209.463 24.5569 210.158C24.8884 210.854 24.9014 211.51 25.0314 211.53C25.1614 211.549 25.3889 210.795 24.9664 209.957C24.5439 209.118 23.7964 208.839 23.7574 208.956Z" fill="#263238"/>
<path d="M20.735 208.487C20.644 208.585 21.0145 209.066 21.112 209.787C21.2095 210.509 21.008 211.087 21.112 211.126C21.216 211.165 21.684 210.6 21.5475 209.722C21.411 208.845 20.8 208.383 20.735 208.487Z" fill="#263238"/>
<path d="M17.6078 210.548C17.6988 210.633 18.1928 210.165 18.2578 209.378C18.3228 208.592 17.9653 208.02 17.8613 208.078C17.7573 208.137 17.8613 208.67 17.8028 209.32C17.7443 209.97 17.5038 210.47 17.6078 210.548Z" fill="#263238"/>
<path d="M96.6678 151.762C96.6678 151.762 104.201 162.162 102.96 171.762C102.017 179.088 100.23 180.336 100.23 180.336H77.1288L72.1953 149.337L79.3453 149.896L96.6678 151.762Z" fill="#263238"/>
<path d="M60.3413 165.75L60.1918 165.841C58.5485 166.832 57.2032 168.248 56.2982 169.94C55.3932 171.632 54.9621 173.538 55.0503 175.455L57.7933 214.643L71.1508 215.046L73.6013 180.596L80.4718 180.206L69.0773 167.05C68.0012 165.849 66.5391 165.061 64.9439 164.824C63.3486 164.586 61.7206 164.914 60.3413 165.75Z" fill="#263238"/>
<path d="M29.2109 198.9L51.1874 153.4C51.1874 153.4 54.2684 148.85 58.5909 149.078C62.9134 149.305 89.8494 157.95 89.8494 157.95V179.953L80.3854 179.745L59.0004 177.691L50.8559 193.148L41.3009 206.798L29.2109 198.9Z" fill="#263238"/>
<path d="M95.0048 160.907C94.8989 160.889 94.7961 160.857 94.6993 160.81L93.8413 160.465L90.6953 159.165C88.0368 158.093 84.3448 156.656 80.2173 155.22C76.0898 153.783 72.3003 152.62 69.5508 151.801L66.3008 150.858L65.4168 150.592C65.3106 150.569 65.2078 150.532 65.1113 150.481C65.2191 150.487 65.3259 150.505 65.4298 150.533L66.3268 150.748C67.1068 150.93 68.2313 151.222 69.6158 151.606C72.3848 152.36 76.1873 153.504 80.3278 154.94C84.4683 156.377 88.1278 157.852 90.7863 158.977C92.0863 159.536 93.1718 160.01 93.8998 160.348L94.7318 160.738C94.8283 160.785 94.9198 160.842 95.0048 160.907Z" fill="#455A64"/>
<path d="M95.6539 156.188C94.9856 156.206 94.3168 156.18 93.6519 156.11C92.4169 156.032 90.7139 155.948 88.8224 155.902L83.9864 155.805C83.3174 155.819 82.6483 155.784 81.9844 155.701C82.1585 155.657 82.3379 155.637 82.5174 155.642L83.9864 155.597C85.2279 155.597 86.9374 155.597 88.8289 155.597C90.7204 155.597 92.4364 155.766 93.6714 155.889C94.2889 155.954 94.7829 156.013 95.1274 156.065C95.308 156.08 95.4854 156.121 95.6539 156.188Z" fill="#455A64"/>
<path d="M66.3652 164.45C65.7802 164.319 65.1836 164.247 64.5842 164.235C62.9469 164.254 61.3563 164.784 60.0342 165.75C58.0968 167.23 56.7213 169.325 56.1342 171.691C55.3672 174.291 55.3802 177.385 55.6207 180.544C56.0952 186.875 56.5242 192.601 56.8427 196.794C56.9792 198.841 57.0897 200.518 57.1742 201.721C57.1742 202.273 57.2262 202.722 57.2457 203.06C57.2628 203.215 57.2628 203.372 57.2457 203.528C57.2123 203.376 57.1906 203.222 57.1807 203.066C57.1417 202.728 57.0962 202.286 57.0442 201.727C56.9337 200.531 56.7842 198.861 56.6022 196.813C56.2642 192.621 55.7962 186.894 55.3022 180.563C55.0617 177.398 55.0552 174.291 55.8547 171.606C56.4654 169.184 57.8935 167.046 59.8977 165.555C61.2662 164.581 62.9115 164.073 64.5907 164.105C65.0427 164.118 65.4919 164.181 65.9297 164.294C66.0801 164.33 66.2261 164.382 66.3652 164.45Z" fill="#455A64"/>
<path d="M88.4722 180.173C88.3733 180.174 88.2749 180.161 88.1797 180.134C87.9847 180.095 87.7052 180.043 87.3477 179.946C86.3391 179.687 85.3489 179.361 84.3837 178.971C81.2087 177.65 78.2488 175.862 75.6022 173.667C72.9644 171.468 70.492 169.079 68.2052 166.517C67.3147 165.548 66.6127 164.749 66.1317 164.196C65.8692 163.918 65.6281 163.62 65.4102 163.306C65.7033 163.551 65.9771 163.818 66.2292 164.105L68.3807 166.4C70.7109 168.894 73.1944 171.241 75.8167 173.426C78.4507 175.595 81.3734 177.386 84.5007 178.75C85.4495 179.158 86.4194 179.516 87.4062 179.822C87.7683 179.917 88.1243 180.035 88.4722 180.173Z" fill="#455A64"/>
<path d="M73.6656 174.141C73.7566 174.141 73.5876 178.444 73.2821 183.735C72.9766 189.026 72.6321 193.31 72.5606 193.31C72.4891 193.31 72.6386 189.007 72.9441 183.716C73.2496 178.425 73.5681 174.135 73.6656 174.141Z" fill="#455A64"/>
<path d="M72.9879 100.588C73.085 100.317 73.1226 100.029 73.0984 99.7426C73.0664 99.4108 72.9645 99.0896 72.7994 98.8001C72.5484 98.4241 72.2587 98.0755 71.9349 97.7601C71.5227 97.3679 71.1741 96.914 70.9014 96.4146C70.5975 95.829 70.4162 95.1876 70.3684 94.5296C70.3101 93.8006 70.4236 93.0682 70.6999 92.3911C70.9976 91.686 71.3588 91.0093 71.7789 90.3696C72.1828 89.7443 72.5184 89.0775 72.7799 88.3806C73.0085 87.7387 73.0601 87.0472 72.9294 86.3786C72.6564 85.0786 71.9609 84.0581 71.6294 83.0766C71.311 82.3108 71.2494 81.4623 71.4539 80.6586C71.5163 80.4422 71.6105 80.2363 71.7334 80.0476C71.7724 79.9806 71.823 79.9212 71.8829 79.8721C71.7621 80.1376 71.66 80.4113 71.5774 80.6911C71.4332 81.468 71.5284 82.2704 71.8504 82.9921C72.1949 83.9346 72.9164 84.9421 73.2284 86.3136C73.3814 87.0366 73.3319 87.7878 73.0854 88.4846C72.8182 89.2064 72.4739 89.8972 72.0584 90.5451C71.6501 91.1635 71.2956 91.8159 70.9989 92.4951C70.7416 93.1274 70.6283 93.809 70.6674 94.4906C70.7088 95.1081 70.8723 95.7112 71.1484 96.2651C71.3993 96.7443 71.7214 97.1826 72.1039 97.5651C72.4282 97.9004 72.7138 98.271 72.9554 98.6701C73.1295 98.9843 73.2337 99.3324 73.2609 99.6906C73.2704 99.9132 73.2305 100.135 73.1439 100.341C73.0529 100.536 72.9944 100.594 72.9879 100.588Z" fill="#263238"/>
<path d="M91 95.4588C91.2063 96.0187 91.5713 96.5063 92.0504 96.8618C92.5295 97.2174 93.1019 97.4256 93.6975 97.4608C94.2946 97.4795 94.8874 97.3533 95.4251 97.093C95.9627 96.8326 96.4294 96.4459 96.785 95.9658C97.4862 94.9903 97.7842 93.782 97.617 92.5923C97.5022 92.0698 97.4628 91.5335 97.5 90.9998C97.63 90.2458 98.215 89.6543 98.449 88.9263C98.8585 87.6263 97.968 86.1573 96.733 85.5528C95.4505 85.0292 94.0297 84.9491 92.6965 85.3253" fill="#263238"/>
<path d="M72.5735 78.9945C71.2735 80.1515 71.6635 81.7895 72.1705 82.8945C72.6775 83.9995 73.295 85.163 73.243 86.3915C73.191 87.62 72.4305 88.751 72.0145 89.9405C71.4955 91.4572 71.5324 93.1089 72.1185 94.601C72.5605 95.7125 73.2885 96.6875 73.737 97.799C74.1855 98.9105 74.296 100.275 73.5485 101.211C73.8788 101.16 74.1926 101.033 74.4646 100.839C74.7367 100.644 74.9594 100.389 75.115 100.093C75.4257 99.4906 75.5863 98.8217 75.583 98.1435C75.6675 95.6085 74.595 93.0865 75.0435 90.5905C75.297 89.141 76.064 87.776 76.051 86.3005C76.038 84.825 75.245 83.4795 74.6925 82.108C74.14 80.7365 73.867 79.0465 74.7705 77.8765" fill="#263238"/>
<path d="M75.8423 74.3664C75.0863 74.3946 74.3471 74.5977 73.6829 74.9598C73.0186 75.3218 72.4473 75.8329 72.0138 76.4529C71.6068 77.0891 71.4372 77.8485 71.5347 78.5974C71.6322 79.3464 71.9905 80.037 72.5468 80.5479C73.6648 81.4319 75.3288 81.2564 76.5638 80.5479C77.4988 80.048 78.2316 79.2395 78.6373 78.2599C78.8328 77.7714 78.9083 77.2432 78.8574 76.7195C78.8065 76.1959 78.6307 75.692 78.3448 75.2504C78.0444 74.8179 77.618 74.4884 77.1237 74.307C76.6294 74.1255 76.0911 74.1009 75.5823 74.2364" fill="#263238"/>
<path d="M74.625 74.1455C75.039 73.2678 75.6388 72.4905 76.3829 71.8676C77.127 71.2447 77.9977 70.791 78.9345 70.538C80.8179 70.047 82.7974 70.0605 84.674 70.577C86.539 71.0983 88.3551 71.7812 90.1015 72.618C91.4221 73.1178 92.6468 73.8412 93.722 74.7565C94.7044 75.7551 95.4158 76.9878 95.789 78.338C96.5495 80.847 96.491 82.641 95.295 84.9745C94.775 85.9885 95.087 87.178 94.6125 88.2245C94.138 89.271 92.1555 90.415 92.695 91.416" fill="#263238"/>
<path d="M89.8941 76.2384C90.395 76.292 90.8577 76.5312 91.191 76.909C91.5242 77.2868 91.7039 77.7757 91.6946 78.2794L90.4921 105.475C90.4401 108.686 85.7471 110.493 82.3086 110.409C78.8376 110.331 78.7271 108.628 78.6816 105.573C78.6101 100.464 78.6166 98.5529 78.6166 98.5789C78.6166 98.6049 74.2291 97.8444 73.3321 92.1179C72.8836 89.2644 73.0396 84.5974 73.2866 80.7819C73.5141 77.3499 75.7956 73.1444 79.2146 73.5084L89.8941 76.2384Z" fill="#FFBE9D"/>
<path d="M74.5762 84.6951C74.5743 84.8855 74.6465 85.0692 74.7775 85.2074C74.9084 85.3457 75.088 85.4276 75.2782 85.4361C75.4652 85.4504 75.6502 85.3901 75.7928 85.2682C75.9353 85.1464 76.0238 84.973 76.0387 84.7861C76.0389 84.595 75.9653 84.4113 75.8333 84.2733C75.7013 84.1352 75.521 84.0534 75.3302 84.0451C75.2378 84.0371 75.1447 84.0477 75.0564 84.0762C74.9682 84.1047 74.8865 84.1506 74.8163 84.2112C74.746 84.2718 74.6886 84.3458 74.6473 84.4289C74.6061 84.512 74.5819 84.6025 74.5762 84.6951Z" fill="#263238"/>
<path d="M74.297 82.8425C74.388 82.94 74.947 82.5305 75.7335 82.5305C76.52 82.5305 77.105 82.9335 77.1895 82.836C77.274 82.7385 77.1375 82.6215 76.8905 82.4395C76.5477 82.1997 76.1388 82.0724 75.7205 82.0755C75.3103 82.0735 74.91 82.2009 74.5765 82.4395C74.336 82.628 74.2515 82.8035 74.297 82.8425Z" fill="#263238"/>
<path d="M82.0489 84.6951C82.047 84.8866 82.1201 85.0712 82.2524 85.2096C82.3848 85.348 82.566 85.4293 82.7574 85.4361C82.8496 85.4432 82.9423 85.4319 83.0302 85.4031C83.1181 85.3742 83.1994 85.3282 83.2695 85.2678C83.3396 85.2074 83.397 85.1338 83.4385 85.0511C83.48 84.9684 83.5048 84.8783 83.5114 84.7861C83.5149 84.5952 83.4433 84.4105 83.312 84.2719C83.1807 84.1333 83.0002 84.0519 82.8094 84.0451C82.7166 84.0371 82.6232 84.0476 82.5345 84.0761C82.4459 84.1045 82.3638 84.1503 82.293 84.2108C82.2222 84.2713 82.1642 84.3453 82.1223 84.4284C82.0804 84.5116 82.0554 84.6022 82.0489 84.6951Z" fill="#263238"/>
<path d="M82.0626 83.3819C82.1536 83.4729 82.7126 83.0634 83.4991 83.0699C84.2856 83.0764 84.8706 83.4664 84.9551 83.3754C85.0396 83.2844 84.9031 83.1544 84.6496 82.9724C84.3085 82.7342 83.9021 82.6071 83.4861 82.6084C83.0752 82.6083 82.6749 82.738 82.3421 82.9789C82.1016 83.1609 82.0171 83.3364 82.0626 83.3819Z" fill="#263238"/>
<path d="M79.1817 89.232C78.7598 89.1001 78.3231 89.0215 77.8817 88.998C77.6802 88.998 77.4917 88.933 77.4592 88.7965C77.441 88.5878 77.4887 88.3786 77.5957 88.1985L78.1937 86.6645C78.7521 85.3648 79.2021 84.0213 79.5392 82.6475C78.8842 83.9024 78.3279 85.2063 77.8752 86.5475C77.6737 87.087 77.4787 87.6005 77.2967 88.0945C77.1687 88.3356 77.1318 88.6148 77.1927 88.881C77.221 88.9531 77.2657 89.0176 77.3232 89.0695C77.3808 89.1214 77.4495 89.1592 77.5242 89.18C77.6367 89.2094 77.7524 89.2247 77.8687 89.2255C78.3043 89.2837 78.7455 89.2859 79.1817 89.232Z" fill="#263238"/>
<path d="M78.6504 98.579C81.3457 98.6278 84.0014 97.9256 86.3204 96.551C86.3204 96.551 84.3704 100.484 78.6504 99.9375V98.579Z" fill="#EB996E"/>
<path d="M81.7108 81.068C81.7888 81.2825 82.5818 81.1785 83.5048 81.2955C84.4278 81.4125 85.1819 81.666 85.3054 81.471C85.3639 81.38 85.2338 81.1785 84.9283 80.9705C84.5377 80.7137 84.0926 80.5513 83.6283 80.496C83.1541 80.44 82.6733 80.4956 82.2243 80.6585C81.8538 80.795 81.6783 80.964 81.7108 81.068Z" fill="#263238"/>
<path d="M74.5947 80.9316C74.7312 81.1071 75.2447 80.9316 75.8947 80.9316C76.5447 80.9316 77.1037 81.0551 77.2337 80.8666C77.2922 80.7756 77.2012 80.5936 76.9607 80.4246C76.6359 80.2221 76.2587 80.1197 75.8761 80.1301C75.4935 80.1405 75.1225 80.2633 74.8092 80.4831C74.6077 80.6586 74.5297 80.8406 74.5947 80.9316Z" fill="#263238"/>
<path d="M79.5146 91.0519C79.6528 90.8734 79.8353 90.7339 80.0438 90.6473C80.2524 90.5606 80.48 90.5299 80.7041 90.5579C80.8674 90.5729 81.0259 90.621 81.1701 90.6992C81.3142 90.7775 81.441 90.8842 81.5426 91.0129C81.6411 91.1355 81.6996 91.2855 81.7101 91.4425C81.7205 91.5994 81.6825 91.7558 81.6011 91.8904C81.4816 92.0219 81.3258 92.115 81.1534 92.1578C80.9809 92.2006 80.7997 92.1913 80.6326 92.1309C80.2849 92.0049 79.9649 91.8128 79.6901 91.5654C79.608 91.5049 79.5375 91.4301 79.4821 91.3444C79.4568 91.3034 79.4434 91.2561 79.4434 91.2079C79.4434 91.1597 79.4568 91.1125 79.4821 91.0714" fill="#EB996E"/>
<path d="M81.3746 89.7844C81.2576 89.7844 81.2511 90.5774 80.5686 91.1429C79.8861 91.7084 79.0281 91.6239 79.0216 91.7344C79.0151 91.8449 79.2166 91.8904 79.5741 91.9034C80.0468 91.9121 80.5074 91.7532 80.8741 91.4549C81.2285 91.173 81.4611 90.7658 81.5241 90.3174C81.5176 89.9794 81.4331 89.7844 81.3746 89.7844Z" fill="#263238"/>
<path d="M74.4452 75.6728C74.7182 77.4798 77.5847 77.7788 79.3787 77.4278C79.9798 78.1982 80.7654 78.8046 81.663 79.1909C82.5605 79.5772 83.541 79.7309 84.5137 79.6378C84.7718 79.5726 85.0421 79.5726 85.3002 79.6378C85.541 79.7809 85.7421 79.982 85.8852 80.2228C86.6453 81.2364 87.755 81.9314 88.9987 82.1728C89.1389 83.0771 89.5451 83.9191 90.1655 84.5917C90.786 85.2642 91.5926 85.7369 92.4827 85.9493C92.4827 85.9493 93.0742 85.6568 92.8662 83.3493C92.6582 81.0418 92.9117 76.1993 92.9117 76.1993L86.6457 73.3523L79.1512 71.9548C79.1512 71.9548 73.9837 72.6048 74.4452 75.6728Z" fill="#263238"/>
<path d="M95.193 85.2346C95.1358 84.6843 95.0047 84.1442 94.803 83.6291C94.5147 82.9638 94.0545 82.3874 93.4696 81.959C92.8847 81.5306 92.1962 81.2657 91.475 81.1916H91.371V81.0876C91.1458 80.0931 90.6299 79.1881 89.889 78.4876C89.4724 78.106 88.9543 77.8532 88.3972 77.7598C87.84 77.6664 87.2678 77.7363 86.7495 77.9611L86.5805 78.0456L86.5155 77.8571L86.4375 77.6491C86.1443 76.881 85.6453 76.2084 84.9952 75.7051C84.3452 75.2017 83.5691 74.8871 82.752 74.7956C82.3849 74.7533 82.0141 74.7533 81.647 74.7956C81.2711 74.866 80.8839 74.8482 80.516 74.7436C80.1801 74.6052 79.8865 74.3811 79.6645 74.0936C79.4742 73.852 79.256 73.6338 79.0145 73.4436C78.6426 73.1782 78.2178 72.9961 77.7691 72.9097C77.3204 72.8233 76.8584 72.8347 76.4145 72.9431C76.0911 73.0384 75.7777 73.1647 75.4785 73.3201C75.4785 73.3201 75.537 73.2486 75.68 73.1446C75.8969 73.0026 76.1334 72.8931 76.382 72.8196C76.8454 72.681 77.3338 72.6476 77.8118 72.7218C78.2897 72.7961 78.745 72.976 79.1445 73.2486C79.671 73.5866 79.9895 74.2496 80.581 74.4511C81.1725 74.6526 81.946 74.3341 82.765 74.4511C83.6449 74.5426 84.4822 74.8767 85.1834 75.4161C85.8846 75.9555 86.4223 76.679 86.7365 77.5061C86.7673 77.578 86.7933 77.6518 86.8145 77.7271L86.5805 77.6296C87.1575 77.378 87.795 77.2993 88.4158 77.4032C89.0366 77.507 89.6139 77.7889 90.0775 78.2146C90.8707 78.9658 91.4112 79.9446 91.6245 81.0161L91.501 80.9056C92.3696 81.0074 93.1861 81.3725 93.841 81.9521C94.3386 82.391 94.7222 82.9442 94.959 83.5641C95.1107 83.957 95.1985 84.3718 95.219 84.7926C95.2346 84.9403 95.2258 85.0896 95.193 85.2346Z" fill="#455A64"/>
<path d="M85.3017 79.183C85.1558 79.2668 84.9944 79.3199 84.8272 79.339C84.3822 79.4262 83.927 79.4502 83.4752 79.4105C82.7156 79.3482 81.977 79.1295 81.3059 78.7682C80.6348 78.4069 80.0456 77.9108 79.5752 77.311L79.7832 77.363L79.5947 77.4475C78.7841 77.7816 77.8915 77.8631 77.0337 77.6815C76.3375 77.5305 75.6925 77.2012 75.1617 76.726C74.8068 76.4136 74.5117 76.0391 74.2907 75.621C74.1963 75.4738 74.1363 75.3072 74.1152 75.1335C74.4446 75.6602 74.8498 76.1355 75.3177 76.544C75.8341 76.9543 76.4435 77.2311 77.0922 77.35C77.8874 77.5037 78.7102 77.4201 79.4582 77.1095L79.6337 77.0315L79.7572 76.973L79.8417 77.077C80.7437 78.2199 82.0573 78.9642 83.5012 79.1505C84.0997 79.2081 84.7016 79.2189 85.3017 79.183Z" fill="#455A64"/>
<path d="M82.0757 75.7965C82.0757 75.894 81.2372 75.7965 80.2622 76.05C79.2872 76.3035 78.5722 76.7 78.5137 76.609C78.9496 76.1276 79.5409 75.8147 80.1842 75.725C80.8031 75.5231 81.4737 75.5485 82.0757 75.7965Z" fill="#455A64"/>
<path d="M79.9099 75.6081C79.8319 75.6666 79.5394 75.4261 79.1689 75.1596C78.7984 74.8931 78.4799 74.6916 78.5189 74.6006C78.5579 74.5096 78.9609 74.6006 79.3704 74.8866C79.7799 75.1726 79.9814 75.5561 79.9099 75.6081Z" fill="#455A64"/>
<path d="M88.8052 78.936C88.7727 79.027 88.0447 78.793 87.1347 78.8255C86.2247 78.858 85.5097 79.118 85.4707 79.027C85.9582 78.691 86.5326 78.5036 87.1245 78.4875C87.7163 78.4713 88.3001 78.6271 88.8052 78.936Z" fill="#455A64"/>
<path d="M90.3895 82.0038C89.6021 82.1146 88.7993 82.0067 88.0691 81.6918C87.2999 81.4841 86.6042 81.0653 86.0605 80.4828C86.119 80.3983 86.9901 80.9638 88.1796 81.3733C89.3691 81.7828 90.396 81.8998 90.3895 82.0038Z" fill="#455A64"/>
<path d="M94.3035 84.1945C93.8273 83.8772 93.3275 83.5969 92.8085 83.356C92.256 83.2139 91.6931 83.1161 91.125 83.0635C91.4054 82.9268 91.7133 82.8557 92.0252 82.8557C92.3372 82.8557 92.6451 82.9268 92.9255 83.0635C93.9135 83.3885 94.3815 84.1555 94.3035 84.1945Z" fill="#455A64"/>
<path d="M94.1838 75.972C94.1838 75.972 94.0928 75.777 93.8913 75.4715C93.5872 75.0521 93.1915 74.7075 92.7343 74.464C91.1807 73.7051 89.4712 73.3201 87.7423 73.3395C86.006 73.3423 84.2768 73.5606 82.5943 73.9895C81.2943 74.3145 80.5013 74.5615 80.4883 74.516C80.653 74.4083 80.8326 74.3251 81.0213 74.269C81.3723 74.1325 81.8858 73.9505 82.5293 73.762C84.2147 73.2455 85.9665 72.9783 87.7293 72.969C89.5138 72.9413 91.2755 73.3733 92.8448 74.2235C93.3211 74.4992 93.7158 74.8962 93.9888 75.374C94.1136 75.5486 94.1816 75.7574 94.1838 75.972Z" fill="#455A64"/>
<path d="M94.6533 79.0726C94.4115 78.5079 94.1154 77.968 93.7693 77.4606C92.8532 76.2957 91.5895 75.4532 90.1618 75.0556C88.721 74.6903 87.228 74.5759 85.7483 74.7176C85.1295 74.7969 84.5066 74.8403 83.8828 74.8476C84.4786 74.6497 85.0964 74.5253 85.7223 74.4771C87.2409 74.2615 88.7871 74.3476 90.2723 74.7306C91.7696 75.1453 93.0781 76.0635 93.9773 77.3306C94.242 77.7152 94.4459 78.1384 94.5818 78.5851C94.6365 78.7415 94.6608 78.907 94.6533 79.0726Z" fill="#455A64"/>
<path d="M73.2092 81.4644C72.7784 81.3238 72.4061 81.045 72.1497 80.6714C71.7943 80.25 71.5462 79.7488 71.4268 79.2107C71.3073 78.6726 71.32 78.1135 71.4638 77.5814C71.6075 77.0492 71.878 76.5598 72.2522 76.155C72.6263 75.7502 73.093 75.442 73.6122 75.2569C74.0179 75.0681 74.4733 75.0135 74.9122 75.1009C74.4969 75.1992 74.0887 75.3252 73.6902 75.4779C73.225 75.6732 72.8104 75.9722 72.4782 76.352C72.146 76.7318 71.9049 77.1824 71.7733 77.6695C71.6416 78.1566 71.6229 78.6674 71.7186 79.1628C71.8142 79.6582 72.0217 80.1253 72.3252 80.5284C72.5983 80.8601 72.8936 81.1728 73.2092 81.4644Z" fill="#455A64"/>
<path d="M96.5707 90.4541C96.5707 90.4021 97.1362 90.1291 97.9877 89.5571C98.4803 89.2341 98.8972 88.8083 99.2097 88.3091C99.3976 88.0146 99.5148 87.6806 99.552 87.3332C99.5892 86.9859 99.5455 86.6347 99.4242 86.3071C99.3038 85.9761 99.1188 85.6723 98.88 85.4135C98.6412 85.1546 98.3534 84.9457 98.0332 84.7991C97.4975 84.5667 96.906 84.4944 96.3302 84.5911C95.7918 84.7071 95.2714 84.8951 94.7832 85.1501C94.7832 85.1501 94.8807 85.0136 95.1212 84.8446C95.4748 84.6101 95.8696 84.4446 96.2847 84.3571C96.9069 84.2185 97.5563 84.2683 98.1502 84.5001C98.5135 84.6578 98.8409 84.8878 99.1124 85.1761C99.384 85.4644 99.594 85.805 99.7297 86.1771C99.8665 86.5517 99.9136 86.9533 99.8673 87.3494C99.8211 87.7456 99.6827 88.1255 99.4632 88.4585C99.1184 88.9923 98.6531 89.4376 98.1047 89.7586C97.75 89.9748 97.3783 90.1618 96.9932 90.3176C96.8619 90.3886 96.7187 90.4349 96.5707 90.4541Z" fill="#263238"/>
<path d="M96.8497 90.4995C96.9516 90.6564 97.0304 90.8272 97.0837 91.0065C97.2626 91.4829 97.4145 91.969 97.5387 92.4625C97.7288 93.2007 97.8077 93.9631 97.7727 94.7245C97.7333 95.6802 97.4122 96.6029 96.8497 97.3765C96.5576 97.7609 96.189 98.0806 95.7673 98.3155C95.3456 98.5504 94.8797 98.6955 94.3992 98.7415C94.0042 98.7766 93.6066 98.717 93.2392 98.5678C92.8719 98.4186 92.5453 98.184 92.2867 97.8835C91.9275 97.4912 91.7181 96.9849 91.6952 96.4535C91.6702 96.2609 91.7066 96.0653 91.7992 95.8945C91.7992 95.8945 91.7992 96.1025 91.7992 96.447C91.8939 97.0387 92.2096 97.5724 92.6825 97.9404C93.1555 98.3083 93.7504 98.4831 94.3472 98.4295C94.7814 98.3788 95.201 98.241 95.5807 98.0243C95.9605 97.8076 96.2926 97.5165 96.5572 97.1685C97.0762 96.4466 97.3804 95.5925 97.4347 94.705C97.4813 93.9712 97.4288 93.2344 97.2787 92.5145C97.0382 91.273 96.7782 90.519 96.8497 90.4995Z" fill="#263238"/>
<path d="M69.279 109.408C69.279 109.408 65.249 111.943 64.7745 118.241C64.3 124.54 62.9155 137.696 62.9155 137.696L47.543 141.453L49.2525 150.676L74.6025 143.604L69.279 109.408Z" fill="#CC84C0"/>
<path d="M101.525 107.107C100.108 106.502 91.2873 104.89 91.2873 104.89L90.8518 100.171L78.6513 101.224L78.2288 106.32L69.2978 109.408L69.0898 118.891L71.2283 149.922L96.0778 152.132C96.5633 152.176 97.0526 152.117 97.5137 151.959C97.9749 151.801 98.3974 151.548 98.7539 151.215C99.1103 150.883 99.3926 150.479 99.5822 150.03C99.7718 149.581 99.8646 149.097 99.8543 148.609L99.3148 121.101C99.3148 121.101 102.948 107.718 101.525 107.107Z" fill="#CC84C0"/>
<path d="M101.524 107.107C101.524 107.107 106.588 109.057 107.023 116.688C107.303 121.719 109.071 130.305 110.273 135.583C110.923 138.547 110.761 141.875 109.123 144.436C106.75 147.192 103.513 149.591 99.3405 149.922H88.843L84.293 142.688L96.3635 139.165L99.23 121.758L101.524 107.107Z" fill="#CC84C0"/>
<path d="M103.709 143.338C103.638 143.065 103.586 142.787 103.553 142.506C103.417 141.75 103.199 141.011 102.903 140.303C102.474 139.26 101.76 138.359 100.842 137.703C100.305 137.323 99.6899 137.068 99.0419 136.955C98.337 136.867 97.6222 136.903 96.9294 137.059C94.4426 137.591 91.9881 138.263 89.5779 139.074L87.3874 139.815C87.1214 139.918 86.8475 139.998 86.5684 140.056C86.817 139.917 87.0782 139.801 87.3484 139.711L89.5129 138.879C91.9129 138.005 94.3717 137.301 96.8709 136.773C97.5983 136.611 98.3485 136.578 99.0874 136.676C99.7775 136.795 100.431 137.071 100.998 137.482C101.95 138.174 102.677 139.13 103.091 140.231C103.376 140.957 103.564 141.718 103.65 142.493C103.701 142.772 103.721 143.055 103.709 143.338Z" fill="#263238"/>
<path d="M96.8975 121.784C96.9522 121.968 96.9828 122.158 96.9885 122.349C97.0275 122.713 97.06 123.24 97.099 123.896C97.1575 125.274 97.2355 127.042 97.3265 128.992C97.4039 130.689 97.5928 132.378 97.892 134.049C98.139 135.349 98.399 136.09 98.347 136.11C98.249 135.945 98.1725 135.768 98.1195 135.583C98.0545 135.414 97.9895 135.2 97.918 134.933C97.8465 134.667 97.762 134.4 97.6905 134.075C97.3277 132.405 97.1103 130.707 97.0405 128.999C96.93 127.003 96.917 125.196 96.8975 123.89C96.8975 123.285 96.8975 122.772 96.8975 122.343C96.8753 122.157 96.8753 121.97 96.8975 121.784Z" fill="#263238"/>
<path d="M107.634 146.016C107.463 146.225 107.271 146.417 107.062 146.588C106.504 147.069 105.908 147.503 105.281 147.888C103.184 149.157 100.811 149.902 98.3647 150.059C97.0226 150.146 95.675 150.045 94.3607 149.76C93.1387 149.5 92.1117 149.064 91.2212 148.856C90.5084 148.701 89.7848 148.601 89.0567 148.557C88.7858 148.543 88.5185 148.488 88.2637 148.395C88.533 148.395 88.8021 148.41 89.0697 148.44C89.8069 148.446 90.5422 148.518 91.2667 148.655C92.1897 148.843 93.2167 149.259 94.4127 149.493C95.705 149.763 97.028 149.855 98.3452 149.766C100.749 149.611 103.086 148.908 105.177 147.712C106.025 147.191 106.846 146.625 107.634 146.016Z" fill="#263238"/>
<path d="M71.3961 115.343C71.4593 115.584 71.4877 115.834 71.4806 116.084C71.4961 116.759 71.4592 117.435 71.3701 118.105C71.2596 118.95 71.0646 119.951 70.8176 121.043C70.5706 122.135 70.3041 123.344 70.1676 124.618C70.0029 125.809 70.0336 127.019 70.2586 128.2C70.4562 129.158 70.8501 130.066 71.4156 130.865C71.9572 131.592 72.6488 132.195 73.4436 132.633C73.3779 132.628 73.3137 132.61 73.2551 132.581C73.0805 132.518 72.911 132.442 72.7481 132.353C72.1536 132.012 71.6341 131.554 71.2206 131.008C70.595 130.2 70.1515 129.266 69.9206 128.271C69.6725 127.056 69.6308 125.808 69.7971 124.579C69.9674 123.367 70.2018 122.165 70.4991 120.978C70.7591 119.886 70.9801 118.905 71.1491 118.066C71.4156 116.402 71.3376 115.343 71.3961 115.343Z" fill="#263238"/>
<path d="M99.1063 106.6C99.1063 106.652 98.6123 106.932 97.9103 107.556C96.9944 108.364 96.2761 109.371 95.8108 110.5C95.3574 111.63 95.1641 112.847 95.2453 114.062C95.3103 114.998 95.4858 115.564 95.4273 115.583C95.185 115.12 95.0432 114.61 95.0113 114.088C94.8489 112.828 95.0169 111.546 95.499 110.37C95.981 109.195 96.7604 108.164 97.7608 107.38C98.1489 107.028 98.6076 106.762 99.1063 106.6Z" fill="#263238"/>
<path d="M79.9515 106.723C79.6951 105.841 79.5767 104.925 79.6005 104.006C79.5107 103.093 79.5655 102.172 79.763 101.276C79.9066 102.177 79.9697 103.088 79.9515 104C80.037 104.906 80.037 105.818 79.9515 106.723Z" fill="#263238"/>
<path d="M83.4607 106.307C83.1407 105.476 82.9564 104.598 82.9147 103.707C82.7706 102.818 82.7706 101.912 82.9147 101.023C83.115 101.892 83.2347 102.778 83.2722 103.668C83.4114 104.541 83.4745 105.424 83.4607 106.307Z" fill="#263238"/>
<path d="M87.2369 106.041C86.9108 105.139 86.7245 104.192 86.6844 103.233C86.5401 102.283 86.5401 101.317 86.6844 100.366C86.8811 101.297 86.9985 102.243 87.0353 103.194C87.1805 104.136 87.2479 105.088 87.2369 106.041Z" fill="#263238"/>
<path d="M90.8577 131.463C90.8577 131.463 90.7277 131.573 90.4547 131.69C90.0717 131.856 89.6701 131.976 89.2587 132.048C87.8818 132.311 86.4569 132.128 85.191 131.526C83.9251 130.924 82.8841 129.934 82.2192 128.7C82.0155 128.332 81.8562 127.942 81.7447 127.537C81.688 127.392 81.6615 127.237 81.6667 127.082C81.7252 127.082 81.8877 127.699 82.4272 128.577C83.1139 129.727 84.1247 130.648 85.333 131.227C86.5412 131.805 87.8933 132.013 89.2197 131.827C90.2402 131.684 90.8382 131.411 90.8577 131.463Z" fill="#263238"/>
<path d="M95.7247 109.694L95.4452 109.584L94.6587 109.259C93.6983 108.849 92.7177 108.489 91.7207 108.18C90.2529 107.709 88.7064 107.535 87.1707 107.666C85.2962 107.938 83.4785 108.514 81.7887 109.369C80.1019 110.23 78.3655 110.989 76.5887 111.644C75.1152 112.17 73.5436 112.363 71.9867 112.21C70.9369 112.1 69.9257 111.753 69.0292 111.196C68.7031 110.991 68.404 110.746 68.1387 110.468C68.1387 110.468 68.2232 110.526 68.3727 110.656C68.5871 110.841 68.8177 111.006 69.0617 111.15C69.9572 111.685 70.9609 112.014 71.9997 112.112C73.5408 112.251 75.0937 112.051 76.5497 111.527C78.3264 110.87 80.0628 110.108 81.7497 109.246C83.452 108.381 85.2861 107.806 87.1772 107.543C88.7345 107.41 90.3025 107.596 91.7857 108.089C92.7841 108.406 93.7629 108.781 94.7172 109.213L95.4972 109.564C95.6337 109.642 95.7247 109.694 95.7247 109.694Z" fill="#FAFAFA"/>
<path d="M106.716 113.1L106.606 113.159L106.287 113.302C105.895 113.472 105.494 113.62 105.085 113.744C103.736 114.173 102.333 114.407 100.918 114.439C99.5044 114.468 98.0932 114.3 96.7259 113.939C96.3111 113.833 95.903 113.703 95.5039 113.549L95.1789 113.419C95.139 113.409 95.1014 113.391 95.0684 113.367C95.1071 113.361 95.1466 113.361 95.1854 113.367L95.5169 113.471C95.8029 113.568 96.2254 113.692 96.7454 113.822C98.1112 114.151 99.5136 114.304 100.918 114.277C102.321 114.243 103.713 114.025 105.059 113.627C105.579 113.477 105.988 113.334 106.268 113.224L106.599 113.1C106.671 113.1 106.71 113.1 106.716 113.1Z" fill="#FAFAFA"/>
<path d="M107.367 122.155C107.219 122.154 107.071 122.139 106.926 122.109C106.524 122.057 106.121 122.027 105.717 122.018C103.023 121.947 100.387 122.808 98.2545 124.456C97.9336 124.699 97.6275 124.962 97.338 125.242C97.237 125.354 97.1236 125.455 97 125.541C97 125.541 97.104 125.418 97.299 125.21C97.5799 124.913 97.8795 124.636 98.196 124.378C99.2518 123.534 100.449 122.885 101.732 122.46C103.017 122.043 104.367 121.86 105.717 121.921C106.124 121.936 106.531 121.982 106.932 122.057C107.08 122.077 107.225 122.11 107.367 122.155Z" fill="#FAFAFA"/>
<path d="M110.325 138.177C110.324 138.002 110.307 137.828 110.273 137.657C110.139 137.197 109.859 136.792 109.474 136.506C108.906 136.095 108.225 135.868 107.524 135.856C106.724 135.817 105.834 135.915 104.924 135.856C103.322 135.819 101.732 135.565 100.198 135.102C99.7354 134.965 99.2798 134.805 98.8332 134.621L98.4692 134.465C98.4262 134.45 98.3848 134.43 98.3457 134.407L98.4757 134.439L98.8462 134.576C99.1712 134.686 99.6392 134.849 100.224 135.011C101.755 135.442 103.334 135.68 104.924 135.72C105.853 135.72 106.744 135.655 107.524 135.72C108.257 135.724 108.97 135.963 109.558 136.402C109.951 136.705 110.23 137.131 110.351 137.611C110.386 137.8 110.377 137.993 110.325 138.177Z" fill="#FAFAFA"/>
<path d="M99.2547 149.591C99.2547 149.591 99.2937 149.396 99.3587 149.051C99.4563 148.558 99.5172 148.059 99.5407 147.556C99.636 145.902 99.3445 144.249 98.6892 142.727C98.0138 141.217 96.9996 139.882 95.7252 138.827C95.3374 138.508 94.9292 138.215 94.5032 137.949C94.341 137.862 94.1846 137.765 94.0352 137.657C94.6615 137.949 95.2489 138.318 95.7837 138.755C97.0958 139.795 98.1332 141.14 98.8051 142.673C99.4771 144.206 99.7631 145.881 99.6382 147.55C99.6009 148.244 99.4719 148.931 99.2547 149.591Z" fill="#FAFAFA"/>
<path d="M96.0441 122.759C96.0441 122.759 95.9011 122.402 95.5176 121.836C94.953 121.055 94.2023 120.427 93.3336 120.01C92.0432 119.393 90.622 119.101 89.1931 119.158C87.4463 119.288 85.7287 119.678 84.0971 120.315C82.3421 120.965 80.6846 121.615 79.1051 121.999C77.7111 122.366 76.2652 122.495 74.8281 122.382C73.8568 122.299 72.9115 122.025 72.0461 121.576C71.8193 121.452 71.602 121.31 71.3961 121.154L71.1816 120.991C71.1816 120.991 71.4871 121.219 72.0916 121.531C72.9565 121.954 73.8939 122.21 74.8541 122.285C76.2819 122.385 77.7163 122.246 79.0986 121.875C80.6586 121.485 82.3096 120.809 84.0711 120.185C85.7151 119.545 87.4463 119.157 89.2061 119.035C90.6536 118.981 92.0918 119.287 93.3921 119.925C94.2714 120.356 95.0256 121.005 95.5826 121.81C95.7292 122.03 95.8554 122.263 95.9596 122.506C96.0116 122.668 96.0441 122.759 96.0441 122.759Z" fill="#FAFAFA"/>
<path d="M72.9242 132.346C72.9242 132.346 72.7357 132.515 72.4627 132.645C72.1897 132.775 71.9622 132.866 71.9427 132.834C71.9232 132.801 72.1312 132.665 72.4042 132.528C72.6772 132.392 72.9112 132.307 72.9242 132.346Z" fill="#FAFAFA"/>
<path d="M87.9312 132.405C87.2899 132.624 86.6196 132.746 85.9423 132.769C84.3069 132.798 82.6735 132.641 81.0738 132.301C79.4821 131.97 77.85 131.878 76.2312 132.028C75.7428 132.088 75.2616 132.197 74.7948 132.353C74.4633 132.463 74.2877 132.535 74.2812 132.528C74.8916 132.217 75.5514 132.015 76.2312 131.93C77.8588 131.754 79.5039 131.835 81.1062 132.171C82.6994 132.501 84.3217 132.671 85.9487 132.678C86.44 132.661 86.9291 132.605 87.4112 132.509C87.5823 132.464 87.756 132.429 87.9312 132.405Z" fill="#FAFAFA"/>
<path d="M97.2788 131.82C97.2788 131.82 96.8563 131.625 96.1478 131.384C95.2202 131.076 94.252 130.908 93.2748 130.884C92.2981 130.867 91.3247 131.001 90.3888 131.28C89.6738 131.495 89.2513 131.696 89.2383 131.677C89.3284 131.612 89.4268 131.56 89.5308 131.521C89.7988 131.388 90.0771 131.278 90.3628 131.189C91.3036 130.878 92.2904 130.729 93.2813 130.747C94.2779 130.77 95.264 130.956 96.1998 131.3C96.48 131.404 96.7536 131.526 97.0188 131.664C97.111 131.706 97.1982 131.758 97.2788 131.82Z" fill="#FAFAFA"/>
<path d="M85.8866 140.094C85.8521 140.125 85.8125 140.149 85.7696 140.166L85.4316 140.335C85.0078 140.535 84.5739 140.713 84.1316 140.868C81.2124 141.913 78.0558 142.105 75.0316 141.42C74.5764 141.32 74.1272 141.194 73.6861 141.043L73.3286 140.92L73.2051 140.868C73.2051 140.868 73.2506 140.868 73.3351 140.868L73.7056 140.972C74.0176 141.063 74.4791 141.18 75.0511 141.303C78.0606 141.924 81.181 141.734 84.0926 140.751C84.6451 140.562 85.0871 140.393 85.3926 140.257L85.7371 140.114L85.8866 140.094Z" fill="#FAFAFA"/>
<path d="M71.2483 119.509C71.2483 119.509 70.9103 119.34 70.3383 119.145C68.8424 118.652 67.2145 118.749 65.7883 119.418C65.2423 119.678 64.9433 119.912 64.9238 119.892C64.9875 119.828 65.0571 119.769 65.1318 119.717C65.3244 119.572 65.5288 119.444 65.7428 119.333C66.4577 118.966 67.2413 118.751 68.0437 118.703C68.846 118.655 69.6496 118.775 70.4033 119.054C70.6285 119.139 70.8459 119.244 71.0533 119.366C71.1221 119.408 71.1873 119.456 71.2483 119.509Z" fill="#FAFAFA"/>
<g opacity="0.4">
<path d="M81.9992 127.888C81.5938 128.86 81.5549 129.947 81.8895 130.946C82.2242 131.945 82.9098 132.789 83.8192 133.322C84.8224 133.9 85.9682 134.185 87.1256 134.144C88.283 134.102 89.4054 133.736 90.3647 133.088C90.7157 132.828 91.0147 132.366 90.7417 132.061C90.4687 131.755 90.0917 131.872 89.7342 131.924C88.1523 132.143 86.5416 131.863 85.1257 131.125C83.7468 130.437 82.6537 129.287 82.0382 127.875" fill="black"/>
</g>
<path d="M67.2168 146.822L82.0173 146.555L73.7688 150.494L67.2168 146.822Z" fill="#263238"/>
<path d="M36.5179 125.502L42.2509 150.559C42.3549 151.014 42.6116 151.42 42.9783 151.708C43.3449 151.997 43.7994 152.151 44.2659 152.145L73.8734 151.807L81.9984 147.81L81.8684 146.672L74.8159 149.844L70.3959 123.76C70.3639 123.259 70.1465 122.787 69.786 122.438C69.4256 122.088 68.9479 121.885 68.4459 121.868L37.9999 123.552C37.7668 123.563 37.539 123.625 37.3324 123.734C37.1259 123.843 36.9457 123.996 36.8045 124.181C36.6632 124.367 36.5644 124.582 36.5149 124.81C36.4654 125.038 36.4664 125.274 36.5179 125.502Z" fill="#455A64"/>
<path d="M75.1387 146.848C76.0747 148.148 76.8742 147.075 77.9532 146.666C78.4733 146.471 78.9668 146.211 79.4222 145.892L79.1752 149.727L76.8872 151.352C76.8872 151.352 76.8872 152.386 78.3887 152.49C79.1003 152.587 79.8243 152.533 80.5142 152.334L80.5922 152.841C80.6361 153.119 80.7759 153.372 80.9873 153.557C81.1987 153.742 81.4682 153.848 81.7492 153.855C81.9913 153.873 82.2342 153.833 82.4577 153.738C82.9213 153.979 83.4364 154.106 83.9592 154.106C84.482 154.106 84.997 153.979 85.4607 153.738C85.8919 153.5 86.2489 153.148 86.4921 152.72C86.7353 152.292 86.8553 151.805 86.8387 151.313L89.1852 146.62L89.8352 146.425C90.2262 145.734 90.3801 144.933 90.2733 144.145C90.1665 143.358 89.8049 142.627 89.2437 142.064C88.7132 141.551 88.0503 141.196 87.3292 141.039C86.6082 140.881 85.8576 140.928 85.1617 141.173L82.0547 142.2C81.2731 142.116 80.4881 142.325 79.8512 142.785C79.3377 143.162 77.3227 144.579 77.3227 144.579L75.1387 146.848Z" fill="#FFBE9D"/>
<path d="M82.1596 148.928C82.2051 148.928 82.2506 149.175 82.3026 149.578C82.3949 150.107 82.3949 150.648 82.3026 151.177C82.2412 151.486 82.0949 151.772 81.8801 152.002C81.7024 152.19 81.4781 152.327 81.2301 152.399C80.7946 152.509 80.5411 152.327 80.5801 152.301C80.6191 152.275 80.8401 152.347 81.1846 152.204C81.4047 152.105 81.5973 151.954 81.7457 151.764C81.8941 151.573 81.9938 151.35 82.0361 151.112C82.1184 150.607 82.1467 150.095 82.1206 149.584C82.1011 149.181 82.1206 148.934 82.1596 148.928Z" fill="#EB996E"/>
<path d="M79.4236 145.893C79.5261 146.539 79.5261 147.197 79.4236 147.843C79.4289 148.489 79.3391 149.133 79.1571 149.754C79.0544 149.108 79.0544 148.45 79.1571 147.804C79.1504 147.157 79.2402 146.513 79.4236 145.893Z" fill="#EB996E"/>
<path d="M84.7546 149.844C84.8603 150.079 84.9114 150.335 84.9041 150.592C84.9756 151.223 84.8579 151.861 84.5661 152.425C84.2278 152.966 83.7173 153.379 83.1166 153.595C82.8858 153.713 82.6282 153.769 82.3691 153.757C82.3691 153.712 82.6291 153.614 83.0191 153.406C83.5499 153.159 84.0003 152.767 84.3191 152.275C84.5791 151.755 84.7085 151.18 84.6961 150.598C84.6774 150.346 84.6972 150.091 84.7546 149.844Z" fill="#EB996E"/>
<path d="M88.9712 148.2C89.1726 147.715 89.4139 147.247 89.6927 146.802C89.9452 146.303 90.0996 145.761 90.1477 145.203C90.2212 144.529 90.1205 143.847 89.8554 143.222C89.5903 142.597 89.1695 142.051 88.6332 141.635C88.1914 141.299 87.6911 141.048 87.1577 140.894C86.65 140.779 86.1354 140.696 85.6172 140.647C85.7527 140.599 85.896 140.577 86.0397 140.582C86.4329 140.566 86.8264 140.603 87.2097 140.692C87.7808 140.829 88.3195 141.077 88.7957 141.42C89.372 141.858 89.8208 142.441 90.0957 143.11C90.3794 143.781 90.4804 144.514 90.3882 145.236C90.3237 145.82 90.14 146.384 89.8487 146.893C89.6546 147.233 89.4375 147.559 89.1987 147.868C89.1379 147.988 89.0614 148.1 88.9712 148.2Z" fill="#263238"/>
<path d="M55.6932 136.896C55.6932 137.226 55.5956 137.547 55.4128 137.821C55.23 138.095 54.9701 138.308 54.666 138.434C54.362 138.56 54.0274 138.593 53.7046 138.528C53.3818 138.464 53.0853 138.306 52.8526 138.073C52.6199 137.84 52.4614 137.544 52.3972 137.221C52.333 136.898 52.366 136.564 52.4919 136.26C52.6178 135.956 52.8311 135.696 53.1048 135.513C53.3784 135.33 53.7001 135.232 54.0292 135.232C54.4706 135.232 54.8938 135.408 55.2059 135.72C55.5179 136.032 55.6932 136.455 55.6932 136.896Z" fill="#FAFAFA"/>
<path d="M88.9137 82.2251C88.1402 83.5641 88.5757 85.2671 89.2127 86.6776C89.8497 88.0881 90.6752 89.4986 90.6427 91.0391C90.5972 93.6391 88.1597 95.7841 88.3352 98.3711C88.4061 99.1394 88.7034 99.8695 89.1894 100.469C89.6753 101.068 90.3281 101.51 91.0652 101.738C89.8887 100.848 89.8822 99.0406 90.4152 97.6756C90.9482 96.3106 93.4247 92.7486 93.8342 91.3316C95.2057 86.5736 94.7702 85.9821 93.1842 84.1816" fill="#263238"/>
<path d="M93.3673 85.9236C93.0751 86.0137 92.7625 86.0137 92.4703 85.9236C91.7475 85.7688 91.0871 85.4024 90.5732 84.8711C90.0592 84.3398 89.715 83.6676 89.5843 82.9401C89.4868 82.3811 89.5843 82.0366 89.5843 82.0431C89.6777 82.3187 89.7494 82.6012 89.7988 82.8881C89.9814 83.5467 90.3265 84.1489 90.8023 84.6395C91.2782 85.1302 91.8696 85.4934 92.5223 85.6961C92.8094 85.7504 93.0918 85.8265 93.3673 85.9236Z" fill="#455A64"/>
<path d="M90.5518 100.171C90.5518 100.171 90.4868 100.139 90.3893 100.048C90.2422 99.9185 90.1132 99.7698 90.0058 99.6059C89.5968 98.9956 89.4066 98.2647 89.4663 97.5324C89.4984 97.0236 89.6546 96.5304 89.9213 96.0959C90.2439 95.6123 90.631 95.1749 91.0718 94.7959C91.5274 94.4037 91.9083 93.9325 92.1963 93.4049C92.4847 92.8319 92.6381 92.2004 92.6448 91.5589C92.6557 90.9184 92.5107 90.2849 92.2223 89.7129C91.9335 89.1772 91.6008 88.6663 91.2278 88.1854C90.5613 87.3593 90.0203 86.4394 89.6223 85.4554C89.3617 84.7836 89.2251 84.07 89.2193 83.3494C89.2015 83.0872 89.2369 82.8241 89.3233 82.5759C89.3063 83.5317 89.4854 84.4807 89.8498 85.3644C90.2654 86.3138 90.8124 87.2 91.4748 87.9969C91.8681 88.4866 92.2162 89.0109 92.5148 89.5634C92.8325 90.1823 92.9933 90.8698 92.9828 91.5654C92.978 92.2582 92.8087 92.9399 92.4888 93.5544C92.1815 94.1137 91.7739 94.6117 91.2863 95.0234C90.8619 95.3699 90.4839 95.7697 90.1618 96.2129C89.9079 96.6034 89.7519 97.0493 89.7068 97.5129C89.6388 98.1896 89.7819 98.8708 90.1163 99.4629C90.3503 99.9569 90.5778 100.145 90.5518 100.171Z" fill="#455A64"/>
<path d="M93.9456 85.8C93.9456 85.8 94.0886 85.8911 94.2836 86.1186C94.557 86.4481 94.7764 86.8188 94.9336 87.217C95.4064 88.5559 95.3856 90.0196 94.8751 91.3445C94.3558 92.641 93.5772 93.8177 92.5871 94.8026C92.2086 95.2383 91.7711 95.619 91.2871 95.9335C91.629 95.4784 91.998 95.0443 92.3921 94.6335C93.3029 93.6315 94.0291 92.4762 94.5371 91.221C95.0096 89.9719 95.0621 88.6027 94.6866 87.321C94.4857 86.7928 94.2377 86.2838 93.9456 85.8Z" fill="#455A64"/>
<path d="M73.8587 151.808C73.8377 151.758 73.8246 151.705 73.8197 151.652L73.7417 151.197C73.6767 150.768 73.5857 150.183 73.4752 149.442C73.2347 147.888 72.9032 145.685 72.4937 142.981C72.0842 140.277 71.5577 137.007 70.9207 133.419C70.5957 131.625 70.2707 129.74 69.8352 127.803C69.6337 126.835 69.3997 125.853 69.1852 124.859C69.0727 124.38 68.8501 123.935 68.5352 123.559C68.1907 123.205 67.7275 122.992 67.2352 122.961C66.7248 122.915 66.2115 122.915 65.7012 122.961L64.1542 123.058L61.1317 123.26L55.4182 123.624L45.7397 124.228L39.2397 124.599L37.4652 124.683H37.0037H36.8477C36.8477 124.683 36.8997 124.683 37.0037 124.651L37.4587 124.605L39.2332 124.456L45.7332 123.975L55.4052 123.325L61.1187 122.941L64.1412 122.74L65.6882 122.636C66.22 122.587 66.7553 122.587 67.2872 122.636C67.8522 122.686 68.3805 122.937 68.7757 123.344C69.1236 123.764 69.3665 124.261 69.4842 124.794C69.7377 125.795 69.9652 126.744 70.1342 127.751C70.5437 129.701 70.8817 131.586 71.2002 133.38C71.8502 136.981 72.3117 140.231 72.7017 142.961C73.0917 145.691 73.3517 147.908 73.5792 149.461C73.6637 150.209 73.7352 150.794 73.7807 151.229C73.7807 151.411 73.7807 151.567 73.8262 151.691C73.8404 151.728 73.8512 151.768 73.8587 151.808Z" fill="#263238"/>
<path d="M259.516 115.186C259.516 115.186 259.516 115.082 259.568 114.894C259.62 114.705 259.665 114.413 259.743 114.049C259.912 113.295 260.153 112.209 260.458 110.799C261.108 107.971 262.018 103.909 263.156 98.8845C265.47 88.816 268.661 74.906 272.197 59.501L272.353 58.825L272.516 59.5205C272.574 59.7935 272.646 60.0925 272.711 60.3915L281.72 100.405C282.851 105.514 283.774 109.655 284.411 112.534C284.723 113.958 284.963 115.069 285.126 115.836C285.204 116.207 285.262 116.486 285.308 116.701C285.328 116.797 285.344 116.895 285.353 116.993C285.353 116.993 285.321 116.896 285.275 116.707C285.23 116.519 285.152 116.22 285.067 115.849C284.885 115.089 284.625 113.977 284.287 112.56L281.492 100.451C279.165 90.2069 275.948 76.0759 272.392 60.4629C272.327 60.1639 272.256 59.865 272.197 59.592H272.516C268.941 74.984 265.717 88.8809 263.377 98.9494C262.2 103.961 261.245 108.049 260.582 110.838C260.25 112.229 259.99 113.314 259.808 114.088C259.717 114.439 259.646 114.738 259.6 114.92C259.555 115.102 259.516 115.186 259.516 115.186Z" fill="#263238"/>
<path d="M259.508 126.88V117H285.885V126.88C285.885 128.392 285.587 129.889 285.009 131.285C284.43 132.682 283.582 133.951 282.513 135.02C281.444 136.089 280.175 136.937 278.779 137.515C277.382 138.094 275.885 138.392 274.373 138.392H271.052C269.537 138.396 268.037 138.101 266.637 137.525C265.236 136.948 263.963 136.101 262.891 135.031C261.819 133.962 260.968 132.692 260.387 131.293C259.807 129.894 259.508 128.394 259.508 126.88Z" fill="#455A64"/>
<path d="M259.508 117C259.618 117.131 259.718 117.27 259.807 117.416L260.613 118.638C261.315 119.737 262.303 121.284 263.518 123.188L273.002 138.196L273.073 138.307H272.794L281.998 123.194C283.174 121.296 284.13 119.743 284.812 118.644L285.592 117.416C285.675 117.268 285.773 117.128 285.885 117C285.819 117.155 285.741 117.305 285.651 117.449L284.923 118.716C284.273 119.827 283.33 121.394 282.193 123.324L273.093 138.483L272.956 138.71L272.813 138.483L272.748 138.378C269.082 132.528 265.767 127.179 263.343 123.299L260.522 118.71L259.768 117.449C259.665 117.309 259.578 117.159 259.508 117Z" fill="#263238"/>
<path d="M275.316 59.4293C275.316 59.9988 275.147 60.5555 274.83 61.0291C274.514 61.5026 274.064 61.8717 273.538 62.0896C273.012 62.3076 272.433 62.3646 271.874 62.2535C271.316 62.1424 270.803 61.8681 270.4 61.4654C269.997 61.0627 269.723 60.5496 269.612 59.9911C269.501 59.4325 269.558 58.8535 269.776 58.3274C269.994 57.8012 270.363 57.3515 270.836 57.0351C271.31 56.7187 271.867 56.5498 272.436 56.5498C273.2 56.5498 273.932 56.8532 274.472 57.3932C275.012 57.9332 275.316 58.6656 275.316 59.4293Z" fill="#263238"/>
<path d="M272.436 10.3999C272.527 10.3999 272.598 21.4954 272.598 35.1779C272.598 48.8604 272.527 59.9624 272.436 59.9624C272.345 59.9624 272.273 48.8669 272.273 35.1779C272.273 21.4889 272.351 10.3999 272.436 10.3999Z" fill="#263238"/>
<path d="M273.931 139.464C273.931 139.708 273.859 139.947 273.723 140.15C273.587 140.353 273.394 140.512 273.169 140.605C272.943 140.698 272.695 140.723 272.455 140.675C272.215 140.628 271.995 140.51 271.823 140.337C271.65 140.165 271.532 139.944 271.485 139.705C271.437 139.465 271.461 139.217 271.555 138.991C271.648 138.766 271.807 138.573 272.01 138.437C272.213 138.301 272.452 138.229 272.696 138.229C273.023 138.229 273.338 138.359 273.569 138.591C273.801 138.822 273.931 139.136 273.931 139.464Z" fill="#263238"/>
<path d="M272.149 139.925L272.344 139.828C271.996 140.052 271.704 140.352 271.489 140.706C271.274 141.059 271.142 141.457 271.103 141.869C271.032 142.692 271.103 143.52 271.311 144.319C271.369 144.579 271.499 144.898 271.766 144.885C272.032 144.872 272.11 144.586 272.156 144.352C272.235 143.864 272.246 143.367 272.188 142.876C272.161 143.507 272.364 144.126 272.76 144.618C272.838 144.716 272.949 144.813 273.066 144.781C273.183 144.748 273.228 144.625 273.261 144.508C273.37 144.094 273.431 143.668 273.443 143.24C273.472 143.616 273.61 143.975 273.839 144.274C273.898 144.344 273.971 144.402 274.053 144.443C274.135 144.485 274.224 144.509 274.316 144.515C274.408 144.521 274.5 144.509 274.586 144.478C274.673 144.448 274.753 144.401 274.821 144.339C274.95 144.134 274.997 143.888 274.951 143.65C274.742 142.172 274.148 140.776 273.228 139.6" fill="#263238"/>
<path d="M261.166 117C261.166 117 249.316 103.35 250.636 102.849C251.955 102.349 262.485 109.921 262.485 109.921C262.485 109.921 253.431 89.6998 255.244 88.1918C257.058 86.6838 266.6 106.132 266.6 106.132C266.6 106.132 265.118 77.8243 266.6 77.4928C268.082 77.1613 273.509 105.8 273.509 105.8C273.509 105.8 281.576 79.6313 283.909 79.6313C286.243 79.6313 281.439 104.812 281.439 104.812C281.439 104.812 290.981 88.6858 292.489 90.8243C293.997 92.9628 285.742 110.409 285.742 110.409C285.742 110.409 297.761 100.373 298.255 101.686C298.749 102.999 285.255 116.993 285.255 116.993L261.166 117Z" fill="#CC84C0"/>
<path d="M259.514 96.4209C259.599 96.3819 261.698 100.893 264.207 106.483C266.716 112.073 268.686 116.649 268.608 116.681C268.53 116.714 266.424 112.216 263.902 106.6C261.38 100.984 259.43 96.4599 259.514 96.4209Z" fill="#263238"/>
<path d="M269.102 98.9365C269.193 98.9365 269.538 102.902 269.882 107.809C270.227 112.717 270.428 116.695 270.337 116.701C270.246 116.708 269.895 112.736 269.557 107.829C269.219 102.921 268.998 98.943 269.102 98.9365Z" fill="#263238"/>
<path d="M282.29 86.2612C282.283 86.3698 282.261 86.477 282.225 86.5797C282.154 86.8202 282.069 87.1192 281.965 87.4832C281.712 88.3087 281.38 89.4332 280.971 90.7787C280.132 93.5607 279.021 97.4217 277.87 101.705C276.72 105.989 275.777 109.895 275.114 112.723C274.796 114.107 274.529 115.238 274.334 116.077C274.243 116.441 274.172 116.727 274.107 116.987C274.091 117.095 274.058 117.201 274.009 117.299C274.004 117.189 274.015 117.08 274.042 116.974C274.087 116.727 274.139 116.421 274.211 116.051C274.354 115.251 274.588 114.101 274.893 112.671C275.498 109.83 276.408 105.911 277.552 101.621C278.696 97.3307 279.859 93.4827 280.75 90.7137C281.198 89.3227 281.569 88.2112 281.842 87.4637L282.16 86.5797C282.191 86.469 282.235 86.3622 282.29 86.2612Z" fill="#263238"/>
<path d="M288.004 100.854C288.075 100.906 285.761 104.351 282.836 108.556C279.911 112.762 277.474 116.122 277.402 116.07C277.331 116.018 279.645 112.573 282.602 108.368C285.56 104.162 287.952 100.802 288.004 100.854Z" fill="#263238"/>
<path d="M265.202 116.707C264.823 116.51 264.473 116.26 264.162 115.966C263.375 115.31 262.622 114.613 261.906 113.88C261.19 113.15 260.515 112.379 259.885 111.572C259.597 111.258 259.356 110.903 259.17 110.519C259.241 110.461 260.47 111.956 262.14 113.652C263.811 115.349 265.202 116.629 265.202 116.707Z" fill="#263238"/>
<path d="M272.351 111.28C272.6 112.198 272.742 113.143 272.773 114.094C272.91 115.037 272.941 115.992 272.864 116.941C272.624 116.021 272.485 115.077 272.448 114.127C272.307 113.185 272.274 112.229 272.351 111.28Z" fill="#263238"/>
<path d="M285.886 123.155C285.552 123.252 285.211 123.322 284.866 123.363C284.216 123.48 283.247 123.63 282.064 123.799C278.973 124.232 275.862 124.508 272.743 124.624C269.62 124.741 266.492 124.611 263.39 124.234C262.2 124.078 261.245 123.922 260.588 123.786C260.245 123.731 259.906 123.65 259.574 123.545C259.921 123.552 260.267 123.589 260.608 123.656C261.258 123.76 262.226 123.883 263.416 124.007C266.51 124.315 269.622 124.412 272.73 124.299C276.377 124.176 279.659 123.838 282.038 123.565L284.846 123.24C285.19 123.179 285.538 123.151 285.886 123.155Z" fill="white"/>
<path d="M285.886 126.1C285.551 126.193 285.21 126.262 284.866 126.308C284.216 126.425 283.247 126.574 282.064 126.737C278.973 127.173 275.862 127.45 272.743 127.569C269.62 127.686 266.492 127.555 263.39 127.179C262.2 127.023 261.245 126.867 260.588 126.724C260.243 126.677 259.904 126.596 259.574 126.483C259.921 126.499 260.266 126.538 260.608 126.6C261.258 126.704 262.226 126.828 263.416 126.951C266.511 127.256 269.622 127.353 272.73 127.244C276.377 127.114 279.659 126.782 282.038 126.509L284.846 126.184C285.19 126.124 285.538 126.096 285.886 126.1Z" fill="white"/>
<path d="M185.579 113.64L183.599 110.978C183.013 111.095 182.441 111.154 181.883 111.154C180.431 111.154 179.097 110.817 177.879 110.142C176.677 109.467 175.716 108.529 174.997 107.326C174.293 106.109 173.941 104.745 173.941 103.234C173.941 101.723 174.293 100.367 174.997 99.164C175.716 97.9613 176.677 97.0227 177.879 96.348C179.097 95.6733 180.431 95.336 181.883 95.336C183.335 95.336 184.663 95.6733 185.865 96.348C187.083 97.0227 188.036 97.9613 188.725 99.164C189.429 100.367 189.781 101.723 189.781 103.234C189.781 104.554 189.51 105.764 188.967 106.864C188.439 107.949 187.699 108.851 186.745 109.57L190.133 113.64H185.579ZM177.791 103.234C177.791 104.598 178.158 105.691 178.891 106.512C179.639 107.319 180.637 107.722 181.883 107.722C183.115 107.722 184.098 107.311 184.831 106.49C185.579 105.669 185.953 104.583 185.953 103.234C185.953 101.87 185.579 100.785 184.831 99.978C184.098 99.1567 183.115 98.746 181.883 98.746C180.637 98.746 179.639 99.1493 178.891 99.956C178.158 100.763 177.791 101.855 177.791 103.234ZM200.673 111L197.461 105.17H196.559V111H192.797V95.556H199.111C200.328 95.556 201.362 95.7687 202.213 96.194C203.078 96.6193 203.724 97.206 204.149 97.954C204.574 98.6873 204.787 99.5087 204.787 100.418C204.787 101.445 204.494 102.361 203.907 103.168C203.335 103.975 202.484 104.547 201.355 104.884L204.919 111H200.673ZM196.559 102.508H198.891C199.58 102.508 200.094 102.339 200.431 102.002C200.783 101.665 200.959 101.188 200.959 100.572C200.959 99.9853 200.783 99.5233 200.431 99.186C200.094 98.8487 199.58 98.68 198.891 98.68H196.559V102.508Z" fill="#C746A3"/>
</svg>
