<svg width="278" height="319" viewBox="0 0 278 319" fill="none" xmlns="http://www.w3.org/2000/svg">
<g clip-path="url(#clip0_84_7)">
<path d="M47.1288 123.383L46.6653 108.613C46.6653 108.613 41.0364 108.375 41.5867 98.5881C42.137 88.8009 55.9632 82.8155 62.297 82.071C62.297 82.071 63.6584 67.0528 69.3646 68.3035C75.0708 69.5542 66.1687 115.085 61.206 129.18L47.1288 123.383Z" fill="#EBC6A4"/>
<path d="M146.055 97.6758L149.82 134.591L182.599 136.963C182.599 136.963 186.23 97.5765 185.757 91.8789L146.055 97.6758Z" fill="#EBC6A4"/>
<path d="M224.503 139.216C211.092 130.958 197.391 126.352 183.913 124.337C163.357 133.568 150.689 125.736 148.749 124.386C106.334 130.342 71.7104 154.899 64.4207 158.463L70.0786 123.166L44.087 116.674C44.087 116.674 2.93674 164.508 20.567 201.711C38.207 238.914 85.6621 210.793 94.3131 208.818L96.5241 298.758L248.322 296.714C248.332 296.724 294.879 182.524 224.503 139.216Z" fill="url(#paint0_linear_84_7)"/>
<path d="M133.365 63.1327C133.365 63.1327 133.934 37.6325 158.304 34.5257C182.674 31.4188 190.842 46.2583 188.708 63.1625C188.708 63.1625 194.54 49.7623 201.907 57.2068C209.273 64.6514 194.916 72.7611 192.454 73.972C192.454 73.972 187.8 101.993 163.643 101.567C139.486 101.14 137.613 83.0445 136.29 78.4884C136.29 78.4884 116.739 73.1581 123.352 62.2692C123.362 62.2692 127.726 55.5988 133.365 63.1327Z" fill="#EBC6A4"/>
<path d="M65.7232 161.302C66.0322 162.433 66.1673 163.605 66.2446 164.756C66.3218 165.917 66.3122 167.079 66.2639 168.24C66.1191 170.553 65.7908 172.866 65.0377 175.079C64.9508 173.908 64.9701 172.756 64.9991 171.605C65.028 170.454 65.0763 169.312 65.1342 168.171C65.2597 165.888 65.4046 163.624 65.7232 161.302Z" fill="#914AA8"/>
<path d="M54.1094 176.796C55.6542 174.126 57.3149 171.605 58.9176 169.034C59.7287 167.753 60.5011 166.463 61.2928 165.172L63.5714 161.212C62.9149 164.259 61.4859 167.068 59.8735 169.679C59.0432 170.969 58.1645 172.23 57.2087 173.431C56.2625 174.612 55.2487 175.764 54.1094 176.796Z" fill="#914AA8"/>
<path d="M231.132 213.514C231.026 220.968 230.533 228.413 229.877 235.837C229.211 243.262 228.255 250.667 227.096 258.032C225.841 265.378 224.364 272.703 222.297 279.87C220.164 286.987 217.682 294.143 213.473 300.268C215.375 297.092 216.891 293.707 218.146 290.223C219.43 286.758 220.502 283.205 221.448 279.622C223.331 272.455 224.798 265.169 225.966 257.834C227.222 250.508 228.158 243.133 229.008 235.738C229.442 232.046 229.819 228.343 230.157 224.641C230.533 220.938 230.833 217.236 231.132 213.514Z" fill="#914AA8"/>
<path d="M182.434 189.512C184.104 189.393 185.765 189.353 187.435 189.274L192.436 189.165C195.767 189.095 199.098 189.105 202.429 189.125C205.76 189.175 209.091 189.224 212.422 189.363L217.414 189.572C219.075 189.681 220.745 189.76 222.406 189.909C220.736 190.028 219.075 190.068 217.405 190.147L212.403 190.257C209.072 190.326 205.741 190.316 202.41 190.296C199.079 190.247 195.748 190.197 192.417 190.058L187.425 189.85C185.765 189.74 184.094 189.661 182.434 189.512Z" fill="#914AA8"/>
<path d="M169.043 129.945C169.999 131.246 170.916 132.576 171.843 133.896C172.77 135.216 173.658 136.566 174.566 137.896C176.381 140.556 178.148 143.256 179.895 145.966L179.21 145.758C181.073 144.864 182.917 143.891 184.733 142.879C186.538 141.847 188.344 140.804 190.091 139.663C193.606 137.42 196.966 134.908 199.891 131.851C198.626 133.558 197.149 135.097 195.595 136.546C194.002 137.956 192.331 139.256 190.622 140.497C187.137 142.899 183.497 145.023 179.664 146.8C179.413 146.919 179.123 146.82 178.978 146.591C177.26 143.862 175.57 141.112 173.919 138.333C173.098 136.943 172.248 135.573 171.447 134.164C170.636 132.764 169.815 131.365 169.043 129.945Z" fill="#914AA8"/>
<path d="M131.559 131.464L143.01 139.067C144.912 140.328 146.833 141.569 148.754 142.79C150.695 143.971 152.636 145.202 154.654 146.095L153.978 146.333C155.532 143.693 157.106 141.063 158.709 138.452C159.51 137.152 160.292 135.832 161.132 134.541C161.953 133.251 162.764 131.95 163.623 130.67C162.947 132.05 162.233 133.41 161.528 134.779C160.833 136.149 160.09 137.489 159.365 138.839C157.917 141.549 156.44 144.229 154.934 146.899V146.909C154.799 147.157 154.509 147.247 154.258 147.137C152.095 146.194 150.125 145.003 148.185 143.762C146.244 142.522 144.352 141.221 142.479 139.891C138.742 137.211 135.083 134.442 131.559 131.464Z" fill="#914AA8"/>
<path d="M166.58 131.077L167.275 152.627L167.855 174.186L168.82 217.305L169.525 260.424L169.786 281.994L169.921 303.553L169.226 282.004L168.646 260.444L167.681 217.325L166.976 174.206L166.715 152.647L166.58 131.077Z" fill="#914AA8"/>
<path d="M61.3392 93.099C61.0302 91.5307 61.0689 90.002 61.1847 88.4734C61.3392 86.9547 61.5806 85.436 62.1696 83.957C62.4785 85.5254 62.4399 87.054 62.324 88.5826C62.1599 90.1013 61.9282 91.62 61.3392 93.099Z" fill="#D1AA8C"/>
<path d="M64.6522 109.279C63.3294 108.724 62.1611 107.721 61.3405 106.46C60.9253 105.835 60.6067 105.13 60.4039 104.396C60.1722 103.661 60.0949 102.897 60.0467 102.133L60.2494 102.5C59.1681 101.875 58.2122 101.12 57.3432 100.217C56.4839 99.3236 55.7115 98.3012 55.1901 97.12C54.6591 95.9387 54.4467 94.5888 54.5722 93.2885C54.6591 91.9584 55.2288 90.7672 55.8177 89.6456C55.9529 89.3776 56.2715 89.2883 56.5322 89.4272C56.5805 89.457 56.6287 89.4868 56.6577 89.5265L56.677 89.5463C58.357 91.343 60.008 93.1594 61.6301 95.0156C62.4411 95.9387 63.2715 96.852 64.0536 97.8049C64.8356 98.7578 65.6563 99.6809 66.3804 100.693C65.5115 99.8199 64.6232 98.9761 63.7349 98.1225C62.837 97.2788 61.9777 96.4053 61.0991 95.5417C59.3418 93.8245 57.6136 92.0874 55.895 90.3305L56.7543 90.2312C56.2522 91.2437 55.7501 92.2859 55.7019 93.4076C55.6053 94.5094 55.7501 95.631 56.2039 96.6634C56.6577 97.6957 57.3046 98.6486 58.077 99.5022C58.8494 100.336 59.7377 101.14 60.6646 101.765L60.6839 101.785C60.7998 101.865 60.8674 102.004 60.8674 102.133C60.8674 102.827 60.8963 103.542 61.0605 104.217C61.1956 104.912 61.466 105.557 61.7846 106.182C62.1032 106.808 62.5184 107.393 63.0108 107.91C63.4936 108.436 64.0439 108.902 64.6522 109.279Z" fill="#D1AA8C"/>
<path d="M48.3906 108.604C49.0665 108.217 49.7134 107.84 50.2637 107.393C50.8237 106.957 51.2485 106.421 51.3644 105.895C51.4223 105.636 51.6541 105.458 51.9051 105.468H51.9534C52.3685 105.478 52.8803 105.428 53.3341 105.349C53.7975 105.249 54.2513 105.13 54.6858 104.932C55.1299 104.753 55.5354 104.505 55.9216 104.197C56.3272 103.899 56.6554 103.512 57.032 103.115C56.8196 104.187 56.1051 105.21 55.1299 105.815C54.6375 106.113 54.1065 106.351 53.5561 106.47C52.9961 106.599 52.4554 106.649 51.8472 106.599L52.4361 106.172C52.3106 106.659 52.0306 107.056 51.7216 107.374C51.4127 107.701 51.0458 107.91 50.6885 108.098C49.9451 108.446 49.1727 108.614 48.3906 108.604Z" fill="#D1AA8C"/>
<path d="M136.322 78.5575C136.303 78.4285 139.151 77.0686 139.151 77.0686C139.151 77.0686 143.206 87.8881 154.995 81.2773C166.784 74.6764 167.923 79.431 174.74 82.4784C181.557 85.5257 188.547 79.8082 190.391 74.1305L192.467 73.9717C192.467 73.9717 194.581 107.045 163.888 108.395C163.888 108.395 139.75 109.338 136.312 78.4881L136.322 78.5575Z" fill="#EBC6A4"/>
<path d="M160.99 66.1699C161.212 68.8698 160.063 71.7285 157.967 73.5649C156.944 74.5079 155.718 75.1729 154.463 75.7089C153.294 76.1953 152.02 76.7115 151.18 77.4559C150.967 77.6247 150.9 77.843 150.919 77.7736C150.871 77.7239 151.025 77.9224 151.276 78.0118C151.769 78.2202 152.396 78.3096 153.005 78.3493C154.241 78.4485 155.467 78.2004 156.683 77.8132C157.9 77.4261 159.078 76.8901 160.198 76.2251C161.318 75.5699 162.361 74.7659 163.191 73.7138C162.563 74.9148 161.55 75.8677 160.497 76.7015C159.416 77.5055 158.238 78.1805 156.973 78.6669C155.727 79.1831 154.337 79.4808 152.947 79.4411C152.252 79.4114 151.566 79.3319 150.832 79.054C150.649 78.9746 150.465 78.8853 150.272 78.7265C150.089 78.5776 149.867 78.3393 149.799 77.982C149.732 77.6247 149.848 77.307 149.973 77.0886C150.099 76.8802 150.243 76.7115 150.388 76.5824C150.977 76.0464 151.585 75.7486 152.203 75.4409C152.821 75.1431 153.439 74.8851 154.067 74.6568C155.254 74.2101 156.374 73.6244 157.379 72.8502C159.387 71.3116 160.758 68.8698 160.99 66.1699Z" fill="#D1AA8C"/>
<path d="M125.111 66.1203C125.266 65.3063 125.797 64.5619 126.531 64.0953C127.255 63.599 128.182 63.4601 129.022 63.5593C129.456 63.599 129.842 63.7479 130.238 63.877C130.615 64.0556 130.982 64.2244 131.32 64.4527C131.648 64.6909 131.976 64.9291 132.266 65.207C132.546 65.5048 132.816 65.7927 133.058 66.1203C132.671 66.0011 132.314 65.8423 131.966 65.6835C131.619 65.5346 131.262 65.4155 130.924 65.2567C130.229 65.0185 129.562 64.7703 128.886 64.7107C127.564 64.5122 126.251 64.9688 125.111 66.1203Z" fill="#D1AA8C"/>
<path d="M190.023 65.7128C190.323 64.5813 190.883 63.5489 191.568 62.606C192.254 61.663 193.123 60.849 194.117 60.1939C195.112 59.5487 196.27 59.1616 197.439 59.0623C198.607 58.9134 199.775 59.2212 200.799 59.6678C199.659 59.7075 198.588 59.6778 197.574 59.9755C196.57 60.2435 195.585 60.6108 194.716 61.2064C192.93 62.3181 191.443 63.9261 190.023 65.7128Z" fill="#D1AA8C"/>
<path d="M132.131 61.6138C132.131 61.6138 131.069 55.1817 132.662 50.8738C132.662 50.8738 116.413 47.9952 118.759 34.4361C121.105 20.8771 133.937 24.0435 136.65 24.6788C136.65 24.6788 133.763 17.3334 142.916 15.3681C152.069 13.4027 194.764 17.7702 197.255 44.2332C197.255 44.2332 197.632 51.7473 195.431 55.3703C195.431 55.3703 189.724 59.8073 188.257 65.0979C188.257 65.0979 190.217 51.5388 173.735 39.8459C173.735 39.8459 161.821 53.4645 140.3 51.5686C140.3 51.5686 135.182 55.8666 133.84 63.7579L132.131 61.6138Z" fill="url(#paint1_radial_84_7)"/>
<path d="M137.314 51.201C139.052 51.3697 140.781 51.4591 142.509 51.4094C143.368 51.4193 144.237 51.3598 145.097 51.3399L147.674 51.1315C151.102 50.7543 154.481 50.0595 157.745 48.9775C159.405 48.511 160.96 47.7765 162.563 47.1313C164.088 46.3272 165.672 45.6225 167.11 44.6597C167.834 44.1931 168.607 43.7862 169.302 43.2601L171.378 41.6719C172.102 41.1855 172.739 40.58 173.386 39.9845C174.033 39.3889 174.69 38.8033 175.356 38.2275C174.776 38.8926 174.197 39.5576 173.598 40.2128C173.01 40.8679 172.421 41.5528 171.745 42.1186L169.736 43.8656C169.061 44.4413 168.307 44.9078 167.593 45.4339C166.183 46.5357 164.561 47.2603 163.026 48.1537C161.404 48.8386 159.801 49.6128 158.102 50.1091C154.742 51.191 151.256 51.866 147.752 52.0447C144.247 52.2035 140.713 52.0149 137.314 51.201Z" fill="#35135A"/>
<path d="M138.658 26.1875C139.691 26.3165 140.695 26.5448 141.7 26.8029C142.704 27.0511 143.689 27.3786 144.664 27.726C145.639 28.0933 146.595 28.4904 147.522 28.9668C148.449 29.4433 149.356 29.9693 150.186 30.6046C149.24 30.1778 148.304 29.7609 147.348 29.3738C146.392 29.0065 145.436 28.6293 144.471 28.272L138.658 26.1875Z" fill="#35135A"/>
<path d="M167.052 55.0922C166.956 56.5017 171.262 56.9682 174.245 57.405C177.229 57.8417 178.156 57.2263 177.847 56.6605C177.49 56.0054 174.274 55.8267 173.319 54.854C172.865 54.3874 172.401 53.2956 170.731 53.1764C167.728 52.9581 167.091 54.4867 167.052 55.0922Z" fill="#37145B"/>
<path d="M155.736 55.9056C155.832 57.3151 151.526 57.7816 148.543 58.2184C145.559 58.6551 144.632 58.0397 144.941 57.4739C145.298 56.8188 148.514 56.6401 149.469 55.6674C149.923 55.2008 150.387 54.109 152.057 53.9898C155.06 53.7615 155.697 55.2902 155.736 55.9056Z" fill="#37145B"/>
<path d="M172.488 63.4003C172.488 64.8892 171.87 66.1002 171.108 66.1002C170.354 66.1002 169.737 64.8892 169.746 63.3903C169.746 61.9014 170.364 60.6904 171.127 60.6904C171.89 60.6904 172.488 61.9113 172.488 63.4003Z" fill="#917261"/>
<path d="M153.187 64.0858C153.187 65.5747 152.57 66.7857 151.807 66.7857C151.054 66.7857 150.436 65.5747 150.445 64.0759C150.445 62.587 151.063 61.376 151.826 61.376C152.589 61.3859 153.197 62.5969 153.187 64.0858Z" fill="#917261"/>
<path d="M154.504 87.7193C157.043 88.7119 159.631 89.2976 162.228 89.238C163.522 89.2281 164.816 89.0693 166.09 88.7417C167.374 88.4539 168.6 87.9377 169.885 87.4414C168.842 88.3447 167.664 89.1388 166.351 89.6152C165.057 90.1512 163.647 90.3795 162.247 90.4093C160.847 90.4192 159.438 90.2108 158.125 89.7542C156.802 89.2976 155.547 88.6425 154.504 87.7193Z" fill="#37145B"/>
<path d="M95.1973 208.253C96.9062 206.883 98.76 205.841 100.652 204.868C102.554 203.935 104.505 203.071 106.6 202.535C104.901 203.905 103.047 204.947 101.145 205.92C99.2331 206.853 97.2924 207.717 95.1973 208.253Z" fill="#914AA8"/>
</g>
<defs>
<linearGradient id="paint0_linear_84_7" x1="80.1263" y1="130.063" x2="407.988" y2="464.92" gradientUnits="userSpaceOnUse">
<stop offset="1e-07" stop-color="#DBBFF1"/>
<stop offset="0.2805" stop-color="#E5CAEB"/>
<stop offset="0.6171" stop-color="#C890D6"/>
<stop offset="0.8669" stop-color="#B76DC9"/>
<stop offset="1" stop-color="#B05FC4"/>
</linearGradient>
<radialGradient id="paint1_radial_84_7" cx="0" cy="0" r="1" gradientUnits="userSpaceOnUse" gradientTransform="translate(121.136 37.3984) scale(73.9925 76.0691)">
<stop stop-color="#712D81"/>
<stop offset="0.2353" stop-color="#6C2B7D"/>
<stop offset="0.5303" stop-color="#5C2473"/>
<stop offset="0.856" stop-color="#431963"/>
<stop offset="1" stop-color="#35135A"/>
</radialGradient>
<clipPath id="clip0_84_7">
<rect width="277.103" height="318.628" fill="white"/>
</clipPath>
</defs>
</svg>
