<svg width="455" height="278" viewBox="0 0 455 278" fill="none" xmlns="http://www.w3.org/2000/svg">
<g opacity="0.87">
<g clip-path="url(#clip0_114_2680)">
<path d="M401.928 162.932L387.014 198.415L439.655 220.542L454.569 185.059L401.928 162.932Z" fill="#EBEBEB"/>
<path d="M454.565 185.578C454.572 185.592 454.33 185.689 453.873 185.848C453.368 186.014 452.697 186.235 451.868 186.519C450.062 187.093 447.545 187.902 444.46 188.884C438.139 190.848 429.48 193.546 419.894 196.526L419.693 196.589L419.589 196.402C419.513 196.257 419.43 196.105 419.34 195.952C414.506 187.017 410.128 178.931 406.926 173.025C405.376 170.113 404.118 167.748 403.218 166.046C402.81 165.251 402.478 164.615 402.236 164.138C402.015 163.695 401.911 163.467 401.925 163.453C401.939 163.446 402.077 163.66 402.326 164.082C402.596 164.552 402.949 165.168 403.398 165.943C404.339 167.623 405.646 169.968 407.251 172.838C410.487 178.731 414.907 186.788 419.797 195.697C419.88 195.849 419.963 196.008 420.046 196.146L419.741 196.022C429.348 193.096 438.014 190.454 444.35 188.524C447.462 187.604 449.993 186.851 451.805 186.311C452.649 186.069 453.327 185.882 453.839 185.737C454.309 185.619 454.558 185.564 454.565 185.578Z" fill="#E0E0E0"/>
<path d="M387 198.933C386.938 198.808 392.942 195.606 400.404 191.788C407.874 187.971 413.981 184.976 414.05 185.107C414.112 185.232 408.116 188.434 400.646 192.252C393.177 196.069 387.07 199.057 387 198.933Z" fill="#E0E0E0"/>
<path d="M431.737 192.017C431.875 191.982 433.756 198.449 435.942 206.472C438.127 214.495 439.78 221.024 439.642 221.065C439.504 221.1 437.622 214.633 435.437 206.61C433.258 198.587 431.598 192.051 431.737 192.017Z" fill="#E0E0E0"/>
<path d="M64.4553 227.723L53.3652 254.107L92.5146 270.563L103.605 244.179L64.4553 227.723Z" fill="#F5F5F5"/>
<path d="M103.579 244.553C103.586 244.566 103.406 244.636 103.067 244.753C102.694 244.878 102.196 245.044 101.574 245.251C100.232 245.68 98.3575 246.275 96.0613 247.015C91.3582 248.481 84.9192 250.48 77.7954 252.7L77.6432 252.748L77.5672 252.61C77.5118 252.506 77.4496 252.389 77.3873 252.278C73.7909 245.631 70.5333 239.621 68.1541 235.222C67.006 233.058 66.0654 231.294 65.3945 230.035C65.0902 229.447 64.8481 228.97 64.6614 228.617C64.4954 228.292 64.4193 228.119 64.4262 228.113C64.44 228.106 64.5438 228.272 64.7236 228.583C64.9242 228.929 65.187 229.392 65.519 229.966C66.2175 231.211 67.1927 232.961 68.3823 235.098C70.7892 239.483 74.0744 245.472 77.7124 252.098C77.7746 252.216 77.8369 252.326 77.8922 252.437L77.664 252.347C84.8085 250.169 91.2545 248.204 95.9645 246.773C98.2745 246.088 100.163 245.528 101.511 245.127C102.141 244.947 102.646 244.808 103.026 244.698C103.393 244.587 103.579 244.546 103.579 244.553Z" fill="#E0E0E0"/>
<path d="M53.348 254.485C53.2996 254.388 57.7606 252.009 63.3144 249.173C68.8682 246.331 73.4122 244.11 73.4606 244.2C73.509 244.297 69.048 246.676 63.4873 249.512C57.9405 252.355 53.3965 254.582 53.348 254.485Z" fill="#E0E0E0"/>
<path d="M86.6154 249.338C86.7192 249.311 88.1163 254.125 89.7416 260.086C91.3669 266.055 92.598 270.91 92.4943 270.938C92.3905 270.966 90.9935 266.152 89.3681 260.19C87.7497 254.228 86.5117 249.366 86.6154 249.338Z" fill="#E0E0E0"/>
<path d="M46.4393 141.138L0.0078125 159.537L17.8104 204.464L64.2419 186.065L46.4393 141.138Z" fill="#F5F5F5"/>
<path d="M19.8848 199.183L23.5711 170.978L39.9282 181.588L43.2065 171.213L59.1208 183.635L19.8848 199.183Z" fill="#E0E0E0"/>
<path d="M36.7627 160.541C37.4958 162.388 36.5898 164.476 34.7432 165.21C32.8965 165.943 30.8078 165.037 30.0747 163.19C29.3415 161.343 30.2476 159.255 32.0942 158.522C33.9409 157.795 36.0365 158.694 36.7627 160.541Z" fill="#E0E0E0"/>
<g opacity="0.3">
<path d="M59.164 183.759C59.1571 183.759 59.1294 183.697 59.081 183.579C59.0257 183.448 58.9565 183.275 58.8597 183.061C58.666 182.584 58.3894 181.913 58.0366 181.048C57.3173 179.271 56.2799 176.705 54.9658 173.44C52.3445 166.891 48.6028 157.56 44.1211 146.356L44.3839 146.474C33.0274 150.983 19.5614 156.336 5.16857 162.049C5.13399 162.118 5.41756 161.468 5.29998 161.745L5.3069 161.752L5.31382 161.772L5.32765 161.814L5.36223 161.897L5.42448 162.056L5.54897 162.374L5.80487 163.017L6.30976 164.29C6.64866 165.141 6.98064 165.984 7.31262 166.828C7.97658 168.509 8.64055 170.183 9.29068 171.829C10.5979 175.128 11.8774 178.365 13.1223 181.512C15.6052 187.805 17.9568 193.753 20.1216 199.231L19.8518 199.113C31.5749 194.514 41.3684 190.669 48.257 187.971C51.6944 186.637 54.4056 185.578 56.2799 184.852C57.1998 184.499 57.9052 184.23 58.4101 184.036C58.6384 183.946 58.8251 183.884 58.9634 183.828C59.0879 183.78 59.1571 183.759 59.164 183.759C59.1709 183.759 59.1156 183.787 58.998 183.835C58.8666 183.891 58.6937 183.967 58.4724 184.057C57.9813 184.257 57.2897 184.541 56.3975 184.907C54.5439 185.654 51.8604 186.74 48.4576 188.11C41.5621 190.869 31.7548 194.798 20.004 199.494L19.8103 199.57L19.7343 199.376C17.5626 193.906 15.1972 187.964 12.6935 181.671C11.4416 178.524 10.1621 175.294 8.85495 171.995C8.19791 170.342 7.54086 168.675 6.86998 166.994C6.538 166.15 6.1991 165.307 5.86712 164.456L5.36223 163.183L5.10633 162.547L4.98183 162.229L4.91959 162.07L4.88501 161.987L4.87117 161.945L4.86426 161.925L4.85734 161.918C4.73976 162.187 5.01642 161.537 4.99567 161.6C19.3954 155.907 32.8683 150.582 44.2387 146.086L44.4323 146.01L44.5084 146.197C48.9348 157.484 52.6212 166.877 55.2079 173.482C56.4736 176.746 57.4764 179.312 58.168 181.09C58.5 181.947 58.749 182.611 58.9358 183.082C59.0118 183.296 59.0741 183.462 59.1225 183.586C59.1502 183.704 59.164 183.759 59.164 183.759Z" fill="#E0E0E0"/>
</g>
<path d="M312.42 264.098L309.909 262.279C308.485 261.249 307.475 259.734 307.081 258.019L305.31 250.425C304.141 245.397 299.48 242.104 294.486 242.492L293.801 239.538C293.628 238.792 292.881 238.328 292.134 238.501C291.387 238.674 290.924 239.421 291.097 240.168L291.768 243.066C286.913 244.809 284.022 249.947 285.218 255.1L286.92 262.404C287.293 263.994 287.113 265.668 286.422 267.148L284.852 270.516L295.081 268.137C295.752 269.099 296.789 269.811 297.951 270.005C299.583 270.281 301.34 269.541 302.281 268.179C302.668 267.619 302.896 266.968 302.986 266.291L312.42 264.098Z" fill="#EBEBEB"/>
<path d="M318.371 56.5278L362.621 85.4448L343.968 116.195L298.652 85.5071L318.371 56.5278Z" fill="#F5F5F5"/>
<path d="M318.367 56.5281L350.403 53.4988C351.759 53.3674 353.018 54.2112 353.419 55.5183L362.618 85.4451" fill="#A22EA4"/>
<path d="M318.367 56.5281L350.403 53.4988C351.759 53.3674 353.018 54.2112 353.419 55.5183L362.618 85.4451" fill="#E0E0E0"/>
<path d="M298.652 85.5065C298.632 85.4166 304.711 83.9088 312.236 82.1383C319.761 80.3677 325.875 78.9983 325.896 79.0882C325.916 79.1781 319.837 80.6858 312.312 82.4564C304.787 84.227 298.673 85.5895 298.652 85.5065Z" fill="#E0E0E0"/>
<path d="M343.961 116.194C343.871 116.208 342.944 110.157 341.886 102.68C340.828 95.2035 340.046 89.131 340.136 89.1172C340.226 89.1034 341.153 95.1551 342.211 102.632C343.269 110.115 344.051 116.188 343.961 116.194Z" fill="#E0E0E0"/>
<path d="M318.369 56.5278L328.778 88.4257L362.62 85.4448L318.369 56.5278Z" fill="#E0E0E0"/>
<path d="M319.492 59.6325L328.559 45.8345L367.422 70.9752L358.251 85.7414L328.926 88.1967L319.492 59.6325Z" fill="#FAFAFA"/>
<path d="M319.492 59.6324C319.492 59.6324 319.568 59.8123 319.686 60.1512C319.81 60.5039 319.983 61.0088 320.205 61.6589C320.654 62.9937 321.311 64.9372 322.148 67.4133C323.808 72.3861 326.18 79.5098 329.064 88.1483L328.912 88.0445C337.364 87.3252 347.386 86.4745 358.23 85.5547L358.092 85.6377C359.842 82.8227 361.675 79.8695 363.542 76.8609C364.801 74.8344 366.046 72.8356 367.263 70.8783L367.318 71.1204C351.681 60.9742 337.883 52.0176 328.49 45.9244L328.649 45.8898C325.786 50.2055 323.511 53.636 321.941 56.0014C321.159 57.1702 320.55 58.0694 320.135 58.6987C319.935 58.9961 319.776 59.2244 319.665 59.3904C319.554 59.5564 319.492 59.6324 319.492 59.6324C319.492 59.6324 319.534 59.5494 319.631 59.3904C319.734 59.2244 319.886 58.9892 320.073 58.6918C320.481 58.0624 321.062 57.1495 321.823 55.9737C323.372 53.5876 325.627 50.1225 328.456 45.7653L328.518 45.6685L328.615 45.7307C338.021 51.7963 351.847 60.7114 367.512 70.823L367.657 70.9198L367.567 71.072C366.35 73.0293 365.105 75.035 363.846 77.0546C361.979 80.0631 360.139 83.0164 358.389 85.8313L358.341 85.9074L358.251 85.9143C347.406 86.8134 337.378 87.6434 328.926 88.3419L328.808 88.3488L328.774 88.2382C325.938 79.5652 323.6 72.4137 321.968 67.4133C321.166 64.9372 320.543 62.9937 320.108 61.652C319.9 61.0019 319.741 60.497 319.631 60.1442C319.534 59.8123 319.492 59.6324 319.492 59.6324Z" fill="#E0E0E0"/>
<path d="M356.728 73.8593C356.672 73.9423 350.71 70.1315 343.407 65.3454C336.103 60.5593 330.224 56.617 330.28 56.534C330.335 56.451 336.297 60.2619 343.6 65.048C350.904 69.8271 356.783 73.7763 356.728 73.8593Z" fill="#E0E0E0"/>
<path d="M354.147 77.7461C354.092 77.8291 348.13 74.0182 340.827 69.2321C333.523 64.446 327.644 60.5038 327.7 60.4208C327.755 60.3378 333.717 64.1486 341.02 68.9347C348.324 73.7139 354.203 77.6631 354.147 77.7461Z" fill="#E0E0E0"/>
<path d="M351.173 82.2211C351.118 82.3041 345.156 78.4933 337.852 73.7072C330.548 68.9211 324.67 64.9789 324.725 64.8959C324.78 64.8129 330.742 68.6237 338.046 73.4098C345.349 78.189 351.228 82.1382 351.173 82.2211Z" fill="#E0E0E0"/>
<path d="M348.2 86.6959C348.144 86.7789 342.452 83.1478 335.488 78.5831C328.516 74.0183 322.914 70.2489 322.969 70.1659C323.024 70.083 328.717 73.714 335.688 78.2787C342.653 82.8504 348.255 86.6129 348.2 86.6959Z" fill="#E0E0E0"/>
<path d="M340.665 87.3531C340.651 87.3738 340.423 87.2562 340.028 87.0211C339.565 86.7375 339.012 86.3986 338.362 85.9975C336.888 85.0638 335.007 83.8603 332.918 82.5393C330.795 81.1837 328.893 79.9181 327.531 78.9913C326.846 78.5279 326.3 78.1475 325.926 77.8708C325.553 77.6011 325.352 77.442 325.366 77.4213C325.38 77.4005 325.608 77.5181 326.002 77.7533C326.466 78.0368 327.019 78.3757 327.669 78.7769C329.142 79.7106 331.023 80.914 333.112 82.235C335.235 83.5906 337.137 84.8563 338.5 85.7831C339.185 86.2465 339.731 86.6269 340.105 86.9035C340.478 87.1732 340.679 87.3323 340.665 87.3531Z" fill="#E0E0E0"/>
<path d="M333.194 87.8366C333.139 87.9196 331.838 87.1518 330.289 86.1213C328.74 85.0908 327.523 84.1917 327.578 84.1087C327.633 84.0257 328.934 84.7934 330.483 85.8239C332.032 86.8544 333.249 87.7536 333.194 87.8366Z" fill="#E0E0E0"/>
<path d="M163.821 82.4215L157.029 92.5469L154.367 91.4541L134.648 103.917L130.803 93.4875C130.803 93.4875 141.973 90.1815 144.386 86.6335C146.8 83.0854 144.635 81.9511 144.635 81.9511L150.314 76.8677L163.821 82.4215Z" fill="#EBEBEB"/>
<path d="M159.298 59.5347C159.298 59.5347 151.455 56.7889 141.426 44.5333C131.398 32.2776 127.801 17.1586 126.404 17.0618C125.007 16.965 119.287 13.4307 104.763 37.1121C90.239 60.8004 94.0845 67.1633 96.3807 67.3916C98.6769 67.6198 114.771 65.1438 124.364 67.4123C133.957 69.6809 145.853 76.2444 145.853 76.2444L159.298 59.5347Z" fill="#EBEBEB"/>
<path d="M174.742 76.1961L171.367 81.0928L169.852 83.2853C167.778 86.2939 163.718 87.1515 160.598 85.2426L144.055 77.1575L156.857 55.4058L173.006 66.6655C176.112 68.8233 176.886 73.0838 174.742 76.1961Z" fill="#E0E0E0"/>
<path d="M105.63 37.679C97.8697 50.5226 93.8721 62.3148 96.694 64.0232C99.5158 65.7246 108.092 56.6988 115.852 43.8553C123.612 31.0117 127.61 19.2195 124.788 17.5112C121.966 15.8097 113.39 24.8355 105.63 37.679Z" fill="#E0E0E0"/>
<path d="M171.03 76.6665C170.94 76.8117 168.713 75.6221 166.057 74.0175C163.394 72.4061 161.305 70.9882 161.395 70.8499C161.478 70.7047 163.705 71.8943 166.368 73.5057C169.031 75.1034 171.113 76.5282 171.03 76.6665Z" fill="#EBEBEB"/>
<path d="M172.858 73.5615C172.768 73.6998 170.762 72.5586 168.376 71.0094C165.99 69.4601 164.129 68.0838 164.226 67.9454C164.316 67.8071 166.322 68.9483 168.708 70.4975C171.087 72.0537 172.948 73.4231 172.858 73.5615Z" fill="#EBEBEB"/>
<path d="M168.802 79.8891C168.767 79.9652 168.228 79.7715 167.37 79.3911C166.941 79.2044 166.436 78.9623 165.883 78.6926C165.33 78.4159 164.77 78.0425 164.161 77.669C161.74 76.1751 159.928 74.778 160.004 74.6466C160.101 74.4944 162.079 75.6702 164.472 77.1503C165.074 77.5168 165.627 77.9041 166.153 78.2015C166.685 78.492 167.163 78.7618 167.557 79.0038C168.359 79.4811 168.836 79.813 168.802 79.8891Z" fill="#EBEBEB"/>
<path d="M118.5 36.1581C118.5 36.1581 112.02 30.9778 107.054 39.9759C102.088 48.974 109.274 51.4154 109.274 51.4154C112.85 47.1066 115.941 42.0439 118.5 36.1581Z" fill="#FAFAFA"/>
<path d="M127.295 25.7766C127.336 25.7904 127.156 26.4198 126.804 27.5541C126.444 28.6814 125.932 30.3206 125.234 32.3332C124.819 33.3153 124.362 34.3805 123.871 35.5286C123.622 36.1026 123.366 36.6974 123.103 37.306C122.972 37.6104 122.841 37.9216 122.702 38.2328C122.557 38.5441 122.384 38.8415 122.225 39.1527C121.568 40.3907 120.869 41.6979 120.157 43.0466C119.977 43.3855 119.797 43.7243 119.611 44.0702C119.431 44.416 119.196 44.7341 118.995 45.0661C118.566 45.7301 118.137 46.4079 117.695 47.0857C117.259 47.7704 116.823 48.4413 116.395 49.1052C116.173 49.4303 115.98 49.7761 115.744 50.0804C115.509 50.3916 115.274 50.696 115.039 51.0003C114.112 52.2106 113.213 53.3864 112.355 54.4999C112.141 54.7766 111.934 55.0601 111.712 55.316C111.484 55.5719 111.256 55.8209 111.034 56.0699C110.585 56.561 110.149 57.0451 109.734 57.5085C108.89 58.4284 108.109 59.2929 107.39 60.0744C105.854 61.5338 104.582 62.6819 103.703 63.4772C102.818 64.2657 102.32 64.6945 102.292 64.6599C102.265 64.6323 102.707 64.1481 103.544 63.3043C104.402 62.4467 105.612 61.2433 107.099 59.7632C107.798 58.9678 108.558 58.0964 109.368 57.1627C109.776 56.6993 110.198 56.2152 110.633 55.7172C110.855 55.4682 111.076 55.2192 111.297 54.9633C111.519 54.7005 111.712 54.4169 111.927 54.1403C112.77 53.0267 113.649 51.8579 114.562 50.6406C114.79 50.3363 115.025 50.032 115.253 49.7208C115.489 49.4164 115.682 49.0706 115.897 48.7456C116.318 48.0885 116.747 47.4176 117.183 46.7399C117.619 46.0621 118.048 45.3912 118.476 44.7341C118.684 44.4021 118.912 44.084 119.092 43.7451C119.272 43.4062 119.458 43.0673 119.638 42.7353C120.364 41.4005 121.063 40.1141 121.727 38.883C121.893 38.5717 122.066 38.2812 122.211 37.97C122.349 37.6588 122.488 37.3545 122.619 37.0501C122.889 36.4484 123.152 35.8605 123.408 35.2934C123.919 34.166 124.397 33.1079 124.832 32.1465C125.559 30.1892 126.153 28.5915 126.575 27.4573C127.004 26.3714 127.253 25.7628 127.295 25.7766Z" fill="#E0E0E0"/>
<path d="M89.8182 44.4233C89.8113 44.5201 84.7278 44.3541 78.4686 44.0498C72.2024 43.7455 67.1328 43.4135 67.1328 43.3167C67.1397 43.2198 72.2163 43.3858 78.4824 43.6901C84.7486 43.9944 89.8251 44.3195 89.8182 44.4233Z" fill="#EBEBEB"/>
<path d="M94.7601 29.5951C94.7186 29.685 88.8259 26.8079 81.6053 23.163C74.3847 19.525 68.5681 16.5026 68.6096 16.4127C68.6511 16.3228 74.5438 19.2 81.7644 22.8448C88.985 26.4828 94.8016 29.5052 94.7601 29.5951Z" fill="#EBEBEB"/>
<path d="M103.639 20.0504C103.542 20.0781 102.27 15.6102 100.79 10.0772C99.3166 4.53721 98.1961 0.0277929 98.2929 0.000127785C98.3898 -0.0275373 99.6624 4.44038 101.142 9.98032C102.616 15.5134 103.736 20.0228 103.639 20.0504Z" fill="#EBEBEB"/>
<path d="M302.281 32.6108C301.797 30.9647 300.711 29.5331 299.37 28.468C298.056 27.4236 296.444 26.6974 294.763 26.6282C292.979 26.5522 291.174 27.2438 289.894 28.4887C289.134 29.2288 288.566 30.1625 288.241 31.1722C287.619 30.4322 286.837 29.8305 285.966 29.4293C284.341 28.6824 282.411 28.6409 280.758 29.3118C279.202 29.9411 277.929 31.1653 277.037 32.597C276.131 34.0494 275.585 35.7646 275.688 37.4799C275.813 39.6239 276.615 41.8579 278.019 43.4832C279.506 45.1985 281.636 46.4296 283.746 47.2457C287.301 48.6289 291.962 50.3234 291.962 50.3234C291.962 50.3234 295.082 47.0244 297.966 44.5207C299.681 43.0337 301.279 41.1663 302.095 39.0499C302.876 37.0442 302.883 34.6719 302.281 32.6108Z" fill="#EBEBEB"/>
<path d="M271.256 14.303C271.304 13.2863 270.965 12.2766 270.419 11.4189C269.879 10.5821 269.118 9.86277 268.192 9.50312C267.21 9.11581 266.061 9.15731 265.107 9.60687C264.54 9.8766 264.042 10.2916 263.662 10.7896C263.454 10.257 263.136 9.76594 262.721 9.37171C261.953 8.6455 260.881 8.24436 259.823 8.30661C258.827 8.36194 257.879 8.80458 257.112 9.43396C256.323 10.0772 255.687 10.9279 255.417 11.91C255.071 13.1342 255.099 14.5382 255.569 15.7209C256.074 16.9658 257.029 18.0655 258.052 18.93C259.781 20.3894 262.064 22.236 262.064 22.236C262.064 22.236 264.45 20.9842 266.546 20.1404C267.791 19.6355 269.042 18.8954 269.914 17.8718C270.737 16.9035 271.2 15.5756 271.256 14.303Z" fill="#EBEBEB"/>
<path d="M142.771 240.341C142.377 239.407 141.644 238.632 140.779 238.1C139.936 237.574 138.94 237.256 137.944 237.325C136.885 237.401 135.876 237.927 135.205 238.75C134.811 239.241 134.534 239.822 134.409 240.438C133.994 240.043 133.496 239.739 132.95 239.566C131.947 239.234 130.806 239.338 129.879 239.85C129.008 240.327 128.337 241.129 127.908 242.028C127.472 242.948 127.265 243.993 127.438 244.995C127.652 246.247 128.282 247.506 129.215 248.371C130.204 249.284 131.539 249.858 132.839 250.203C135.025 250.777 137.881 251.462 137.881 251.462C137.881 251.462 139.493 249.311 141.028 247.644C141.941 246.655 142.75 245.445 143.089 244.145C143.421 242.907 143.269 241.51 142.771 240.341Z" fill="#EBEBEB"/>
<path d="M414.893 107.465C414.817 107.472 414.969 106.137 414.478 103.827C414.256 102.672 413.765 101.303 412.97 99.8363C412.168 98.377 410.992 96.8484 409.367 95.5205C407.748 94.2064 405.687 93.0652 403.273 92.5465C400.88 92.0416 398.162 92.014 395.534 92.8993C394.213 93.3004 392.933 93.9367 391.744 94.7528C391.128 95.1401 390.589 95.6312 390.029 96.1015C389.517 96.6271 388.977 97.1459 388.528 97.7476C386.633 100.078 385.492 103.122 385.339 106.303C385.243 109.484 386.142 112.611 387.85 115.08C388.251 115.716 388.749 116.269 389.219 116.837C389.745 117.348 390.25 117.881 390.831 118.317C391.951 119.223 393.183 119.956 394.462 120.461C397.014 121.546 399.725 121.733 402.153 121.415C404.594 121.083 406.738 120.108 408.454 118.925C410.176 117.729 411.469 116.29 412.382 114.9C413.288 113.503 413.883 112.175 414.194 111.041C414.865 108.793 414.817 107.451 414.893 107.465C414.9 107.465 414.9 107.548 414.893 107.707C414.879 107.894 414.872 108.129 414.851 108.419C414.837 108.731 414.803 109.118 414.713 109.567C414.637 110.017 414.554 110.543 414.367 111.11C414.077 112.265 413.496 113.627 412.597 115.059C411.69 116.484 410.39 117.971 408.64 119.209C406.898 120.433 404.712 121.457 402.208 121.809C399.725 122.148 396.931 121.975 394.303 120.869C392.982 120.357 391.709 119.603 390.554 118.676C389.953 118.234 389.441 117.687 388.894 117.155C388.403 116.574 387.892 116 387.477 115.35C385.706 112.804 384.779 109.581 384.876 106.303C385.035 103.025 386.211 99.8847 388.168 97.4847C388.632 96.8623 389.185 96.3366 389.717 95.7903C390.298 95.3061 390.859 94.8012 391.488 94.4001C392.712 93.5632 394.033 92.9131 395.396 92.505C398.1 91.6059 400.894 91.6474 403.349 92.18C405.819 92.7263 407.921 93.9159 409.56 95.2715C411.206 96.641 412.389 98.2179 413.184 99.7118C413.973 101.213 414.443 102.61 414.644 103.785C414.782 104.366 414.824 104.892 414.865 105.349C414.927 105.805 414.927 106.192 414.913 106.504C414.907 106.794 414.9 107.029 414.9 107.216C414.907 107.382 414.9 107.465 414.893 107.465Z" fill="#E0E0E0"/>
<path d="M399.941 122.307C398.232 122.307 396.22 122.044 394.179 121.187C392.844 120.668 391.551 119.914 390.348 118.939C389.857 118.573 389.407 118.13 388.971 117.701L388.667 117.397L388.397 117.086C387.982 116.601 387.553 116.096 387.194 115.529C385.382 112.929 384.441 109.644 384.545 106.282C384.704 102.928 385.9 99.7187 387.92 97.2565C388.314 96.7309 388.785 96.2606 389.234 95.8041L389.49 95.5413L389.843 95.2439C390.313 94.8497 390.797 94.4347 391.33 94.1027C392.595 93.2382 393.944 92.5811 395.32 92.1661C398.467 91.1218 401.476 91.4123 403.447 91.8342C405.716 92.339 407.915 93.4318 409.81 95.0018C411.325 96.2606 412.604 97.8306 413.517 99.5458C414.278 100.991 414.79 102.43 415.011 103.723C415.136 104.242 415.184 104.733 415.225 105.162L415.239 105.314C415.288 105.701 415.309 106.089 415.295 106.517L415.281 107.223C415.274 107.334 415.274 107.417 415.26 107.493C415.267 107.569 415.26 107.645 415.26 107.714L415.219 108.426C415.205 108.848 415.156 109.236 415.073 109.623L415.046 109.768C414.976 110.19 414.894 110.674 414.721 111.2C414.409 112.445 413.78 113.849 412.915 115.225C411.871 116.871 410.467 118.337 408.869 119.472C406.857 120.883 404.581 121.809 402.285 122.134C401.594 122.238 400.805 122.307 399.941 122.307ZM399.961 92.5465C398.633 92.5465 397.16 92.7264 395.652 93.2313C394.373 93.6186 393.128 94.2341 391.952 95.0433C391.468 95.3476 391.046 95.7073 390.597 96.0877L390.016 96.6272C389.601 97.049 389.172 97.4848 388.812 97.962C386.945 100.251 385.845 103.218 385.693 106.331C385.603 109.436 386.475 112.479 388.148 114.9C388.473 115.419 388.868 115.889 389.255 116.339L389.504 116.636L389.787 116.92C390.209 117.334 390.604 117.729 391.053 118.061C392.18 118.974 393.37 119.679 394.608 120.163C397.451 121.374 400.266 121.339 402.126 121.097C404.256 120.806 406.386 119.963 408.282 118.662C409.789 117.618 411.11 116.262 412.113 114.734C412.95 113.448 413.559 112.147 413.884 110.972C414.34 109.415 414.451 108.309 414.506 107.783C414.52 107.645 414.534 107.541 414.548 107.458C414.541 107.375 414.534 107.271 414.534 107.133C414.52 106.6 414.492 105.494 414.16 103.91C413.925 102.707 413.413 101.358 412.687 100.016C411.809 98.4185 410.592 96.9591 409.174 95.8041C407.389 94.3586 405.335 93.3557 403.226 92.8993C402.32 92.6987 401.206 92.5465 399.961 92.5465Z" fill="#E0E0E0"/>
<path d="M409.784 118.13C409.873 118.047 413 121.27 416.762 125.337C420.525 129.404 423.499 132.765 423.402 132.855C423.312 132.938 420.186 129.715 416.423 125.648C412.661 121.581 409.687 118.213 409.784 118.13Z" fill="#E0E0E0"/>
<path d="M423.531 133.201L423.386 133.194C423.248 133.187 422.93 133.18 416.172 125.876C409.415 118.58 409.429 118.255 409.436 118.116L409.443 117.971L409.547 117.867C409.837 117.591 409.865 117.577 412.14 119.928C413.461 121.291 415.19 123.124 417.009 125.095C418.828 127.066 420.523 128.926 421.782 130.351C423.953 132.806 423.926 132.827 423.635 133.097L423.531 133.201Z" fill="#E0E0E0"/>
<path d="M72.1197 88.189L69.2356 89.344L59.4352 83.0986L57.1321 77.3442C57.1321 77.3442 52.5673 78.852 56.1085 86.1763C59.6496 93.5007 58.3148 91.8062 58.3148 91.8062C58.3148 91.8062 48.8671 95.6309 48.4107 96.7721C48.0787 97.5951 51.5852 107.098 53.5287 112.237C54.5039 114.824 57.0353 116.58 59.6635 116.228C60.0369 116.179 60.3966 116.089 60.7355 115.958C63.0939 115.01 74.3813 108.267 74.3813 108.267L79.361 106.275L72.1197 88.189Z" fill="#EBEBEB"/>
<path d="M79.7411 83.2993L85.869 103.723L80.9376 105.701L73.1914 86.384L79.7411 83.2993Z" fill="#EBEBEB"/>
<path d="M365.176 237.553L361.78 238.113L352.665 229.005L351.544 222.227C351.544 222.227 346.239 222.766 348.321 231.543C350.403 240.32 349.359 238.169 349.359 238.169C349.359 238.169 338.217 240.05 337.449 241.17C336.889 241.986 338.41 253.108 339.289 259.132C339.731 262.168 342.048 264.672 344.974 264.921C345.389 264.955 345.804 264.948 346.198 264.886C348.978 264.43 362.811 259.823 362.811 259.823L368.676 258.855L365.176 237.553Z" fill="#F5F5F5"/>
<path d="M374.589 234.089L376.332 257.666L370.508 258.628L366.76 235.859L374.589 234.089Z" fill="#F5F5F5"/>
<path d="M184.585 259.512C187.843 259.229 190.83 256.919 191.965 253.433C193.445 248.868 191.176 244.041 186.902 242.651C182.628 241.26 177.952 243.833 176.472 248.398C175.331 251.911 176.431 255.57 178.941 257.707C166.423 255.688 162.812 268.836 162.812 268.836L191.003 278C191.01 278 195.852 265.087 184.585 259.512Z" fill="#EBEBEB"/>
<path d="M368.624 223.915H90.4859C66.7837 223.915 47.5703 204.701 47.5703 180.999V177.977C47.5703 154.274 66.7837 135.061 90.4859 135.061H368.624C392.326 135.061 411.54 154.274 411.54 177.977V180.999C411.547 204.701 392.333 223.915 368.624 223.915Z" fill="#A22EA4"/>
<g opacity="0.3">
<path d="M368.624 223.915H90.4859C66.7837 223.915 47.5703 204.701 47.5703 180.999V177.977C47.5703 154.274 66.7837 135.061 90.4859 135.061H368.624C392.326 135.061 411.54 154.274 411.54 177.977V180.999C411.547 204.701 392.333 223.915 368.624 223.915Z" fill="black"/>
</g>
<path d="M367.117 216.639H91.9947C67.4557 216.639 47.5645 196.747 47.5645 172.209C47.5645 147.67 67.4557 127.778 91.9947 127.778H367.117C391.656 127.778 411.548 147.67 411.548 172.209C411.548 196.747 391.656 216.639 367.117 216.639Z" fill="#A22EA4"/>
<g opacity="0.3">
<path d="M312.487 127.778C312.487 127.778 310.488 127.827 309.471 127.813C305.999 127.778 299.774 127.778 299.774 127.778L295.32 136.036C296.351 138.208 297.693 140.643 300.051 141.12C301.22 141.355 302.423 141.051 303.558 140.684C306.338 139.785 309.015 138.485 311.283 136.652C312.653 135.545 313.911 134.176 314.34 132.474C314.776 130.766 314.077 128.525 312.487 127.778Z" fill="black"/>
</g>
<path d="M302.354 185.739C302.354 183.87 303.829 182.394 305.867 182.394C307.86 182.394 309.299 183.87 309.299 185.739C309.299 187.609 307.868 189.128 305.867 189.128C303.829 189.121 302.354 187.602 302.354 185.739ZM302.66 158.431H309.087L307.999 178.75H303.705L302.66 158.431Z" fill="white"/>
<g opacity="0.3">
<path d="M154.243 136.659C153.199 134.093 151.532 129.487 149.353 127.778C149.353 127.778 135.403 128.02 135.334 127.771L141.815 150.983C143.924 152.636 144.941 154.918 145.618 157.076C146.289 159.234 146.843 161.551 148.406 163.176C149.976 164.801 153.005 165.272 154.354 163.459C155.862 161.433 154.215 158.618 154.167 156.094C154.119 153.569 155.716 151.342 156.366 148.901C157.452 144.82 155.834 140.567 154.243 136.659Z" fill="black"/>
</g>
<path d="M353.555 186.477L351.407 184.009C350.188 182.606 349.516 180.81 349.516 178.947V170.709C349.516 165.26 345.506 160.761 340.284 159.965V156.766C340.284 155.956 339.627 155.298 338.816 155.298C338.005 155.298 337.348 155.956 337.348 156.766V159.907C331.936 160.542 327.737 165.136 327.737 170.716V178.633C327.737 180.357 327.16 182.037 326.093 183.395L323.676 186.485H334.763C335.223 187.631 336.121 188.61 337.268 189.092C338.875 189.764 340.861 189.428 342.154 188.252C342.687 187.77 343.081 187.149 343.337 186.485L353.555 186.477Z" fill="white"/>
<path d="M128.987 191.046C126.733 191.046 124.712 190.68 122.926 189.948C121.14 189.216 119.706 188.132 118.622 186.698C117.568 185.263 117.012 183.536 116.953 181.515H124.947C125.064 182.657 125.459 183.536 126.132 184.15C126.806 184.736 127.684 185.029 128.768 185.029C129.88 185.029 130.759 184.78 131.403 184.282C132.047 183.755 132.369 183.038 132.369 182.13C132.369 181.369 132.105 180.739 131.578 180.242C131.081 179.744 130.451 179.334 129.69 179.012C128.958 178.69 127.904 178.324 126.528 177.914C124.537 177.299 122.912 176.684 121.653 176.069C120.394 175.454 119.31 174.547 118.403 173.346C117.495 172.146 117.041 170.579 117.041 168.647C117.041 165.777 118.081 163.538 120.159 161.927C122.238 160.287 124.947 159.468 128.284 159.468C131.681 159.468 134.419 160.287 136.497 161.927C138.576 163.538 139.689 165.792 139.835 168.691H131.71C131.652 167.695 131.286 166.919 130.612 166.363C129.939 165.777 129.075 165.485 128.021 165.485C127.113 165.485 126.381 165.734 125.825 166.231C125.269 166.7 124.991 167.388 124.991 168.295C124.991 169.291 125.459 170.067 126.396 170.623C127.333 171.18 128.797 171.78 130.788 172.424C132.779 173.097 134.389 173.741 135.619 174.356C136.878 174.971 137.961 175.864 138.869 177.035C139.777 178.207 140.231 179.715 140.231 181.559C140.231 183.316 139.777 184.912 138.869 186.346C137.991 187.781 136.702 188.923 135.004 189.772C133.306 190.621 131.3 191.046 128.987 191.046ZM153.988 159.907V178.353C153.988 180.198 154.441 181.618 155.349 182.613C156.257 183.609 157.589 184.106 159.346 184.106C161.103 184.106 162.449 183.609 163.386 182.613C164.323 181.618 164.792 180.198 164.792 178.353V159.907H172.302V178.309C172.302 181.061 171.716 183.389 170.545 185.292C169.374 187.195 167.793 188.63 165.802 189.596C163.84 190.563 161.644 191.046 159.214 191.046C156.784 191.046 154.602 190.577 152.67 189.64C150.767 188.674 149.259 187.239 148.146 185.336C147.034 183.404 146.477 181.061 146.477 178.309V159.907H153.988ZM197.998 174.927C199.784 175.308 201.219 176.201 202.302 177.606C203.386 178.983 203.927 180.564 203.927 182.35C203.927 184.926 203.02 186.976 201.204 188.498C199.418 189.992 196.915 190.738 193.694 190.738H179.333V159.907H193.211C196.344 159.907 198.789 160.624 200.546 162.059C202.332 163.494 203.225 165.441 203.225 167.9C203.225 169.716 202.742 171.223 201.775 172.424C200.838 173.624 199.579 174.459 197.998 174.927ZM186.843 172.38H191.762C192.991 172.38 193.928 172.116 194.573 171.589C195.246 171.033 195.583 170.228 195.583 169.174C195.583 168.12 195.246 167.315 194.573 166.758C193.928 166.202 192.991 165.924 191.762 165.924H186.843V172.38ZM192.377 184.677C193.636 184.677 194.602 184.399 195.275 183.843C195.978 183.257 196.329 182.423 196.329 181.34C196.329 180.256 195.963 179.407 195.231 178.792C194.529 178.177 193.548 177.87 192.289 177.87H186.843V184.677H192.377ZM244.956 159.907V190.738H237.446V172.248L230.55 190.738H224.49L217.55 172.204V190.738H210.04V159.907H218.912L227.564 181.252L236.128 159.907H244.956ZM259.624 159.907V190.738H252.113V159.907H259.624ZM289.002 159.907V165.924H280.833V190.738H273.323V165.924H265.154V159.907H289.002Z" fill="white"/>
<path d="M259.182 56.0553C260.143 53.6 261.125 51.0687 261.139 48.4197C261.153 45.7708 259.984 42.9351 257.66 41.8078C255.516 40.7634 252.936 41.3651 250.668 40.632C247.873 39.7329 246.041 37.0009 244.727 34.2967C243.412 31.5924 242.34 28.6599 240.203 26.5988C237.368 23.86 232.81 23.3067 229.379 25.1395C226.82 23.4381 223.514 22.5874 221.004 22.5874C217.276 22.5874 213.043 23.0162 210.526 25.762C208.575 27.8922 207.372 30.5688 204.944 32.1388C201.604 34.2967 197.205 32.6852 193.235 32.9549C192.426 33.0102 191.485 33.2454 191.174 33.9924C190.904 34.6425 191.236 35.3687 191.554 35.9912C192.647 38.0937 193.733 40.2032 194.826 42.3057C193.179 43.1288 191.153 43.1426 189.5 42.3403C189.804 46.5177 191.637 50.5707 194.57 53.5654C193.85 53.0882 192.806 53.6346 192.474 54.4369C192.149 55.2392 192.336 56.1521 192.585 56.9752C194.127 62.0517 197.945 66.3882 202.793 68.553C207.634 70.7178 213.417 70.6763 218.223 68.4424L240.183 69.4176C240.84 71.1051 242.34 72.4192 244.069 72.8065C246.469 70.9184 246.829 69.8809 246.829 69.8809C248.371 70.9599 247.168 70.4273 248.371 70.9599C251.124 72.1702 255.094 70.5103 255.613 67.4672C255.827 66.1946 256.145 64.9704 256.968 64.0851C257.812 63.1791 259.036 62.7987 260.115 62.2177C261.81 61.2978 263.2 59.7832 264.002 57.9849C262.239 58.0541 260.447 57.3417 259.182 56.0553Z" fill="#263238"/>
<path d="M205.039 47.7336C205.122 36.7367 213.629 27.6487 224.598 26.8465L225.691 26.7635C237.49 26.5906 244.234 36.5085 244.081 48.3146L245.838 102.656L218.899 104.579L217.869 86.9213C217.869 86.9213 206.443 85.9945 205.475 74.714C205.011 69.2571 204.963 57.9628 205.039 47.7336Z" fill="#FFBE9D"/>
<path d="M210.686 56.2759C210.721 57.1266 211.468 57.8044 212.36 57.7905C213.252 57.7698 213.951 57.0712 213.916 56.2136C213.882 55.3629 213.135 54.6851 212.243 54.6989C211.357 54.7128 210.659 55.4182 210.686 56.2759Z" fill="#263238"/>
<path d="M208.444 52.0589C208.658 52.2525 209.813 51.2635 211.549 51.139C213.278 50.9938 214.62 51.7891 214.793 51.5678C214.876 51.4641 214.648 51.1044 214.06 50.7378C213.486 50.3782 212.524 50.0531 211.445 50.1361C210.366 50.2191 209.488 50.6825 208.99 51.1321C208.492 51.5747 208.333 51.9689 208.444 52.0589Z" fill="#263238"/>
<path d="M219.931 66.1531C219.931 66.0563 218.838 65.9456 217.075 65.8488C216.625 65.835 216.203 65.7796 216.106 65.4822C215.982 65.171 216.127 64.6799 216.307 64.1474C216.646 63.0477 216.999 61.8858 217.372 60.6754C218.838 55.7372 219.869 51.6912 219.668 51.6358C219.468 51.5805 218.119 55.5366 216.653 60.4748C216.3 61.6921 215.968 62.854 215.643 63.9606C215.512 64.4794 215.263 65.0672 215.539 65.7174C215.685 66.0424 216.023 66.2568 216.314 66.3122C216.604 66.3813 216.853 66.3675 217.075 66.3606C218.845 66.326 219.931 66.2568 219.931 66.1531Z" fill="#263238"/>
<path d="M207.903 47.8798C208.304 48.2533 209.742 47.7484 211.499 47.617C213.256 47.4371 214.77 47.6792 215.089 47.2435C215.227 47.036 214.964 46.6556 214.293 46.3236C213.629 45.9916 212.536 45.7565 211.326 45.8602C210.116 45.9709 209.092 46.3928 208.504 46.8354C207.909 47.2781 207.73 47.7 207.903 47.8798Z" fill="#263238"/>
<path d="M242.967 56.8019C243.154 56.705 250.561 53.9385 250.879 61.6779C251.197 69.4172 243.361 68.1377 243.34 67.9163C243.32 67.695 242.967 56.8019 242.967 56.8019Z" fill="#FFBE9D"/>
<path d="M244.911 64.9356C244.946 64.908 245.05 65.0255 245.285 65.1224C245.513 65.2123 245.893 65.2676 246.295 65.1016C247.097 64.7696 247.733 63.4417 247.712 62.0446C247.705 61.3392 247.526 60.6752 247.256 60.1288C246.993 59.5755 246.613 59.1951 246.198 59.1329C245.783 59.0568 245.506 59.3127 245.416 59.534C245.319 59.7553 245.375 59.9075 245.333 59.9213C245.312 59.9421 245.16 59.7968 245.209 59.4787C245.236 59.3265 245.319 59.1398 245.492 58.9807C245.672 58.8216 245.942 58.7317 246.232 58.7525C246.834 58.7663 247.387 59.2989 247.692 59.8937C248.024 60.4954 248.238 61.2423 248.245 62.0308C248.259 63.5939 247.519 65.0878 246.419 65.4543C245.88 65.6203 245.416 65.4751 245.174 65.3022C244.932 65.1224 244.884 64.9495 244.911 64.9356Z" fill="#EB996E"/>
<path d="M245.591 39.1242C245.591 39.1242 244.99 36.2194 242.583 32.8788C238.53 27.2559 229.29 24.6277 224.047 25.098C218.805 25.5614 213.355 29.4553 208.465 31.4057C205.263 32.6852 202.835 35.6246 204.052 37.9001C202.143 38.6263 200.172 39.1173 198.118 39.2003C198.118 39.2003 197.931 42.0913 199.536 42.8521L204.585 46.1581C211.314 47.0503 223.127 40.4245 225.41 38.3358C227.381 36.5306 230.189 34.4488 232.367 33.3422C230.223 38.9652 237.202 37.7202 237.022 39.8989C234.885 47.8042 241.331 50.7228 241.331 50.7228L241.49 57.6253C241.345 59.3959 242.106 60.7653 243.883 60.6408C243.883 60.6408 245.799 57.9988 246.131 55.8478C246.767 51.698 246.373 43.2602 245.591 39.1242Z" fill="#263238"/>
<path d="M217.77 86.9081C217.77 86.9081 225.011 86.8113 232.252 81.4927C232.252 81.4927 229.368 89.8752 218.025 89.6816L217.77 86.9081Z" fill="#EB996E"/>
<path d="M226.958 55.2392C226.993 56.0899 227.74 56.7677 228.632 56.7539C229.524 56.7331 230.223 56.0346 230.188 55.177C230.154 54.3263 229.407 53.6485 228.514 53.6623C227.622 53.6761 226.924 54.3816 226.958 55.2392Z" fill="#263238"/>
<path d="M225.102 51.1857C225.316 51.407 226.679 50.5494 228.581 50.6185C230.476 50.6669 231.845 51.6145 232.06 51.407C232.163 51.3171 231.956 50.9298 231.354 50.5009C230.766 50.0791 229.763 49.6503 228.574 49.6088C227.391 49.5742 226.381 49.9338 225.8 50.3211C225.206 50.7084 224.998 51.0819 225.102 51.1857Z" fill="#263238"/>
<path d="M224.918 45.7438C225.084 46.221 226.827 46.0066 228.867 46.2694C230.915 46.4907 232.554 47.0994 232.83 46.6775C232.955 46.4769 232.671 46.0273 232.007 45.5639C231.35 45.1006 230.299 44.6579 229.075 44.5127C227.851 44.3674 226.723 44.5542 225.983 44.8516C225.229 45.149 224.849 45.5155 224.918 45.7438Z" fill="#263238"/>
<path d="M219.785 69.4942C220.67 69.1139 223.306 68.526 224.246 68.36L225.346 68.0142C225.899 68.6712 226.01 70.5248 225.595 71.2786C225.166 72.0602 224.329 72.5651 223.458 72.7449C222.835 72.8694 222.137 72.8348 221.632 72.4475C221.625 72.4544 220.207 71.8873 219.785 69.4942Z" fill="#EB996E"/>
<path d="M222.789 72.7516C222.775 72.6825 223.543 72.7724 224.428 72.1015C224.857 71.7695 225.272 71.2439 225.48 70.5522C225.687 69.8675 225.722 69.0445 225.466 68.256C225.452 68.2145 225.438 68.173 225.424 68.1316L225.632 68.2422C223.972 68.6088 222.471 68.9269 221.385 69.1344C220.299 69.3419 219.621 69.4526 219.608 69.4041C219.594 69.3557 220.251 69.1621 221.33 68.8923C222.402 68.6226 223.896 68.263 225.556 67.8964L225.715 67.8618L225.763 68.014C225.777 68.0555 225.791 68.1039 225.805 68.1454C226.081 69.0099 226.04 69.909 225.791 70.6491C225.549 71.396 225.065 71.9701 224.58 72.3021C224.089 72.641 223.612 72.7655 223.294 72.7862C222.969 72.8208 222.789 72.7724 222.789 72.7516Z" fill="#263238"/>
<path d="M257.985 62.751C257.985 62.751 257.812 62.751 257.521 62.6334C257.231 62.5089 256.816 62.253 256.442 61.7689C256.076 61.2916 255.744 60.5931 255.647 59.7355C255.536 58.8778 255.64 57.9026 255.764 56.8514C255.882 55.807 256 54.6313 255.612 53.4762C255.419 52.9091 255.073 52.3765 254.575 51.9754C254.084 51.5604 253.475 51.263 252.846 50.9656C252.216 50.6682 251.539 50.3777 250.923 49.9282C250.294 49.4994 249.782 48.8492 249.484 48.123C248.855 46.6568 248.917 45.0038 248.571 43.4684C248.392 42.6937 248.122 41.9468 247.658 41.352C247.202 40.7434 246.538 40.3768 245.812 40.2246C245.093 40.0586 244.332 40.031 243.592 39.8857C242.859 39.7474 242.112 39.4154 241.627 38.8414C241.143 38.2673 240.908 37.5757 240.749 36.9256C240.583 36.2685 240.493 35.6322 240.355 35.0305C240.223 34.4288 240.03 33.8755 239.774 33.3637C239.497 32.8657 239.2 32.4092 238.847 32.0219C237.443 30.4519 235.721 29.871 234.58 29.6911C233.411 29.539 232.754 29.698 232.754 29.6496C232.754 29.6496 233.397 29.4352 234.601 29.5528C235.769 29.6911 237.554 30.2444 239.034 31.849C239.407 32.2432 239.726 32.7135 240.016 33.2323C240.286 33.7579 240.5 34.3458 240.638 34.9613C240.784 35.5769 240.887 36.2132 241.047 36.8495C241.206 37.4789 241.441 38.1221 241.87 38.627C242.305 39.1319 242.942 39.4223 243.647 39.5538C244.353 39.6921 245.106 39.7128 245.874 39.8857C246.642 40.0379 247.423 40.4667 247.921 41.1376C248.433 41.7946 248.717 42.59 248.903 43.3923C249.256 45.0038 249.201 46.6153 249.796 47.9916C250.079 48.6763 250.529 49.2504 251.11 49.6584C251.684 50.0803 252.341 50.3708 252.97 50.6751C253.607 50.9795 254.236 51.2976 254.762 51.7402C255.301 52.176 255.681 52.7777 255.882 53.3863C256.276 54.6313 256.131 55.8416 256 56.8929C255.854 57.9442 255.744 58.8917 255.827 59.7216C255.903 60.5447 256.2 61.2225 256.539 61.6928C257.258 62.6472 258.019 62.7095 257.985 62.751Z" fill="#644563"/>
<path d="M195.746 35.2171C195.753 35.2102 195.871 35.2863 196.092 35.4384C196.348 35.6113 196.666 35.8326 197.061 36.1024C197.911 36.6626 199.163 37.4649 200.871 38.0735C202.559 38.6752 204.807 38.9934 207.061 38.198C208.175 37.8038 209.24 37.0914 210.022 36.0747C210.824 35.0649 211.398 33.8269 212.048 32.5889C212.691 31.344 213.487 30.1682 214.51 29.2967C215.52 28.4115 216.682 27.8028 217.83 27.3809C220.154 26.551 222.436 26.5925 224.235 26.9106C226.054 27.2288 227.451 27.7821 228.384 28.1971C228.855 28.4115 229.207 28.5913 229.443 28.7158C229.678 28.8472 229.802 28.9164 229.795 28.9302C229.788 28.944 229.657 28.8887 229.415 28.778C229.166 28.6674 228.806 28.5083 228.336 28.3216C227.388 27.9481 225.998 27.4363 224.2 27.1596C222.423 26.883 220.195 26.8691 217.948 27.6922C216.834 28.1071 215.714 28.7089 214.745 29.5596C213.763 30.4034 213.009 31.5238 212.366 32.7549C211.716 33.9791 211.135 35.2378 210.298 36.2891C209.475 37.3542 208.334 38.1081 207.172 38.5092C204.814 39.3254 202.49 38.9588 200.781 38.3156C199.045 37.6655 197.807 36.8147 196.978 36.2199C196.563 35.9156 196.251 35.6666 196.044 35.4937C195.843 35.3277 195.74 35.2309 195.746 35.2171Z" fill="#644563"/>
<path d="M192.823 45.4947C192.865 45.4463 193.397 45.9097 194.359 46.5045C195.313 47.0993 196.731 47.7701 198.405 48.1505C200.079 48.524 201.649 48.5309 202.769 48.4064C203.889 48.2889 204.567 48.0952 204.588 48.1575C204.595 48.1782 204.429 48.2474 204.125 48.3511C203.82 48.4549 203.371 48.5655 202.804 48.6623C201.669 48.856 200.051 48.8906 198.329 48.5033C196.607 48.109 195.161 47.3759 194.22 46.7189C193.75 46.3938 193.384 46.0964 193.155 45.8682C192.927 45.6399 192.81 45.5085 192.823 45.4947Z" fill="#644563"/>
<path d="M199.323 51.9618C199.365 51.865 200.548 52.3492 202.076 52.5981C203.605 52.861 204.877 52.7918 204.884 52.9025C204.898 52.9924 203.605 53.2275 202.021 52.9578C200.43 52.6881 199.282 52.0379 199.323 51.9618Z" fill="#644563"/>
<path d="M218.249 93.501L196.041 99.615L172.09 116.926L178.48 127.854L291.43 128.048C291.43 128.048 287.315 112.95 285.96 108.316C283.919 101.323 281.153 99.3453 278.621 96.7932C277.854 96.0185 275.654 94.656 274.589 94.4209C270.128 93.4457 249.448 88.8049 245.423 88.9155C245.423 88.9155 240.782 98.5084 231.058 98.4116C221.334 98.3147 218.249 93.501 218.249 93.501Z" fill="#644563"/>
<path d="M264.024 111.234C264.093 111.255 264.3 110.321 264.958 108.959C265.601 107.589 266.77 105.833 268.381 104.173C269.993 102.513 271.666 101.22 272.87 100.279C274.08 99.3452 274.82 98.7574 274.786 98.7089C274.751 98.6674 273.949 99.1654 272.697 100.044C271.452 100.929 269.73 102.195 268.091 103.882C266.445 105.57 265.283 107.403 264.695 108.834C264.397 109.547 264.211 110.148 264.121 110.57C264.024 110.985 263.996 111.227 264.024 111.234Z" fill="#263238"/>
<path d="M196.568 123.227C196.624 123.227 196.658 122.328 196.645 120.875C196.631 119.423 196.555 117.424 196.382 115.218C196.216 113.012 195.988 111.02 195.78 109.581C195.579 108.142 195.407 107.264 195.351 107.271C195.296 107.278 195.365 108.17 195.496 109.616C195.628 111.186 195.794 113.115 195.974 115.246C196.119 117.383 196.25 119.312 196.354 120.882C196.444 122.335 196.506 123.227 196.568 123.227Z" fill="#263238"/>
<g opacity="0.3">
<path d="M189.91 126.097C191.736 125.558 193.596 124.866 194.952 123.524C196.307 122.183 197.034 120.039 196.224 118.31C198.811 124.05 205.056 127.93 211.35 127.716L184.557 128.048C186.189 127.079 188.077 126.644 189.91 126.097Z" fill="black"/>
</g>
<path d="M316.266 127.999C316.266 127.999 313.548 124.306 312.213 123.608C310.878 122.909 309.032 122.93 308.222 123.656C307.413 124.382 307.413 124.382 307.413 124.382C307.413 124.382 303.201 122.487 301.168 123.946C301.168 123.946 297.156 122.051 295.241 124.223C295.241 124.223 292.149 122.217 290.842 123.967C289.535 125.717 289.673 128.684 290.302 130.213C290.932 131.741 292.121 136.942 293.041 137.032C293.041 137.032 295.503 137.295 295.835 135.96C296.167 134.625 296.306 133.989 296.306 133.989C296.306 133.989 297.246 138.706 298.381 138.934C299.515 139.169 301.68 139.045 301.756 136.977C301.756 136.977 302.807 138.54 303.837 138.083C304.868 137.627 306.134 136.873 306.023 135.593C305.912 134.314 305.892 133.034 305.892 133.034C305.892 133.034 306.452 134.895 307.386 134.494C308.319 134.086 309.253 134.176 309.772 132.592C310.297 131.008 311.591 127.999 311.591 127.999H316.266Z" fill="#FFBE9D"/>
<path d="M305.967 132.931C306.023 132.903 305.781 132.419 305.566 131.596C305.345 130.78 305.193 129.597 305.428 128.331C305.663 127.066 306.23 126.014 306.728 125.33C307.226 124.638 307.627 124.278 307.579 124.23C307.551 124.195 307.074 124.479 306.5 125.15C305.926 125.814 305.276 126.906 305.027 128.255C304.778 129.604 304.985 130.856 305.29 131.679C305.587 132.516 305.926 132.958 305.967 132.931Z" fill="#EB996E"/>
<path d="M300.911 123.967C300.862 123.953 300.606 124.651 300.371 125.82C300.136 126.989 299.97 128.656 300.088 130.482C300.212 132.308 300.599 133.933 300.994 135.06C301.381 136.194 301.734 136.845 301.775 136.824C301.907 136.782 300.717 134.05 300.496 130.447C300.233 126.858 301.042 123.994 300.911 123.967Z" fill="#EB996E"/>
<path d="M295.142 124.279C295.039 124.265 294.762 126.513 295.08 129.266C295.391 132.025 296.173 134.141 296.27 134.107C296.387 134.072 295.792 131.928 295.488 129.217C295.17 126.506 295.267 124.286 295.142 124.279Z" fill="#EB996E"/>
<path d="M278.563 125.336C278.736 124.901 279.171 124.61 279.621 124.479C280.679 124.174 281.834 124.596 282.678 125.295C283.522 126 284.338 127.107 284.912 128.047L278.936 128.006C278.998 127.1 278.224 126.187 278.563 125.336Z" fill="#FFBE9D"/>
<path d="M127.125 129.611C127.499 125.903 129.56 122.584 132.72 120.619C135.231 119.139 138.274 118.835 141.027 119.796L152.556 123.815C153.179 124.479 172.206 117.147 172.206 117.147L178.596 128.061L142.23 128.013C144.852 131.105 148.58 134.521 148.58 134.521L151.049 142.724L150.8 150.145C149.492 150.747 147.542 148.457 147.542 148.457L146.401 150.553L146.781 152.573C146.781 152.573 150.143 160.734 150.025 162.546C149.977 163.272 149.513 163.528 148.967 163.576C147.992 163.659 147.079 163.085 146.629 162.221L141.85 152.932C141.85 152.932 138.15 152.026 136.856 150.809C135.501 149.529 133.578 147.226 133.578 147.226L131.233 146.894C131.019 146.95 130.729 146.881 130.424 146.735C129.159 146.141 128.308 144.923 128.045 143.554L126.855 137.295C126.593 135.904 126.821 132.612 127.125 129.611Z" fill="#FFBE9D"/>
<path d="M137.949 145.774C137.852 145.802 138.35 147.607 139.45 149.613C140.55 151.625 141.802 153.016 141.878 152.953C141.968 152.884 140.868 151.411 139.789 149.433C138.703 147.455 138.06 145.733 137.949 145.774Z" fill="#EB996E"/>
<path d="M132.394 145.09C132.277 145.138 132.706 146.099 133.452 147.109C134.186 148.126 134.884 148.873 134.96 148.811C135.05 148.741 134.49 147.891 133.764 146.888C133.024 145.885 132.477 145.062 132.394 145.09Z" fill="#EB996E"/>
<path d="M147.533 154.412C147.589 154.392 147.298 153.541 146.883 152.144C146.461 150.754 145.915 148.817 145.382 146.666C145.112 145.587 144.87 144.564 144.663 143.623C144.449 142.689 144.338 141.846 144.414 141.14C144.559 139.702 145.355 139.079 145.292 139.051C145.278 139.038 145.071 139.148 144.808 139.473C144.545 139.798 144.255 140.359 144.144 141.099C144.027 141.846 144.117 142.745 144.317 143.692C144.511 144.64 144.739 145.677 145.009 146.756C145.548 148.914 146.136 150.851 146.627 152.227C147.111 153.61 147.485 154.433 147.533 154.412Z" fill="#EB996E"/>
<path d="M145.029 140.629C144.981 140.671 145.375 141.113 145.832 141.936C146.288 142.752 146.772 143.983 146.862 145.401C146.904 146.1 146.862 146.833 147.035 147.469C147.18 148.133 147.561 148.631 147.907 148.97C148.619 149.648 149.179 149.883 149.2 149.855C149.241 149.8 148.73 149.475 148.107 148.783C147.803 148.438 147.492 147.974 147.381 147.386C147.236 146.791 147.291 146.121 147.25 145.367C147.153 143.866 146.599 142.586 146.067 141.784C145.534 140.982 145.064 140.594 145.029 140.629Z" fill="#EB996E"/>
<path d="M142.326 128.103C142.395 128.013 141.046 126.893 139.684 125.226C138.307 123.58 137.45 122.024 137.325 122.121C137.298 122.107 137.457 122.542 137.803 123.165C138.148 123.794 138.688 124.624 139.386 125.468C140.777 127.176 142.27 128.186 142.326 128.103Z" fill="#EB996E"/>
<g opacity="0.3">
<path d="M261.955 127.999L262.404 117.583L255.094 127.986L261.955 127.999Z" fill="black"/>
</g>
<path d="M261.96 127.999C261.863 127.992 261.932 125.233 262.119 121.83C262.305 118.427 262.541 115.674 262.637 115.681C262.734 115.688 262.665 118.448 262.478 121.85C262.292 125.253 262.063 128.006 261.96 127.999Z" fill="#263238"/>
<path d="M259.721 91.6128C259.721 91.6128 259.852 91.8272 259.908 92.2837C259.963 92.7401 259.88 93.4594 259.403 94.2133C258.946 94.9603 258.082 95.7349 256.871 96.0738C255.668 96.4473 254.229 96.4473 252.687 96.4265C251.912 96.4196 251.11 96.4265 250.28 96.551C249.457 96.6686 248.613 96.9107 247.88 97.4086C247.14 97.8997 246.559 98.6328 246.158 99.4974C245.75 100.355 245.494 101.316 245.273 102.312C245.045 103.308 244.844 104.346 244.526 105.383C244.201 106.414 243.724 107.458 242.99 108.329C241.559 110.093 239.332 111.331 236.911 111.49C234.483 111.635 232.132 110.695 230.451 109.18C229.594 108.433 228.944 107.493 228.411 106.559C227.871 105.646 227.297 104.754 226.426 104.283C225.575 103.792 224.566 103.709 223.618 103.792C222.664 103.868 221.751 104.09 220.858 104.263C219.966 104.442 219.088 104.615 218.223 104.622C217.359 104.664 216.536 104.477 215.789 104.235C214.288 103.73 213.133 102.831 212.303 101.911C211.466 100.984 210.961 100.016 210.671 99.193C210.505 98.785 210.449 98.3977 210.366 98.0726C210.332 97.7406 210.276 97.457 210.27 97.2288C210.27 97.0144 210.27 96.8484 210.276 96.7101C210.276 96.5925 210.283 96.5303 210.29 96.5303C210.366 96.5164 210.187 97.5262 210.802 99.1446C211.106 99.9469 211.618 100.881 212.448 101.773C213.271 102.658 214.412 103.523 215.865 103.993C216.591 104.214 217.379 104.387 218.209 104.346C219.039 104.332 219.897 104.159 220.789 103.972C221.681 103.785 222.601 103.564 223.583 103.474C224.552 103.377 225.638 103.453 226.578 103.993C227.54 104.512 228.155 105.473 228.695 106.379C229.227 107.306 229.843 108.191 230.673 108.91C232.298 110.363 234.56 111.269 236.876 111.124C239.187 110.971 241.331 109.789 242.707 108.101C244.139 106.407 244.477 104.214 244.934 102.229C245.162 101.226 245.425 100.244 245.854 99.3521C246.276 98.453 246.905 97.6645 247.694 97.1527C248.482 96.634 249.374 96.385 250.218 96.2674C251.069 96.1499 251.892 96.1499 252.666 96.1637C254.209 96.2052 255.62 96.219 256.788 95.8732C257.971 95.562 258.801 94.8358 259.264 94.1303C259.742 93.4179 259.845 92.7263 259.818 92.2837C259.804 91.841 259.693 91.6197 259.721 91.6128Z" fill="white"/>
<path d="M226.088 127.252C226.074 127.252 226.026 127.093 225.943 126.775C225.846 126.429 225.722 125.973 225.569 125.406C225.21 124.244 224.746 122.48 223.522 120.668C223.225 120.212 222.844 119.79 222.422 119.375C221.987 118.981 221.489 118.614 220.922 118.33C219.787 117.756 218.404 117.549 216.972 117.639C215.534 117.722 214.047 118.061 212.505 118.42C210.962 118.787 209.316 119.105 207.601 119.057C205.906 119.015 204.163 118.51 202.988 117.334C201.791 116.172 201.321 114.568 201.169 113.116C201.01 111.642 201.155 110.238 201.266 108.952C201.376 107.665 201.452 106.462 201.355 105.376C201.189 103.191 200.138 101.607 199.205 100.853C198.243 100.092 197.503 100.058 197.524 100.002C197.524 99.9953 197.565 100.002 197.648 100.016C197.731 100.037 197.856 100.044 198.015 100.092C198.333 100.175 198.79 100.369 199.288 100.742C200.277 101.482 201.404 103.101 201.611 105.349C201.736 106.462 201.667 107.679 201.57 108.973C201.473 110.266 201.342 111.642 201.508 113.074C201.667 114.485 202.13 116.007 203.244 117.079C204.343 118.171 205.976 118.649 207.622 118.69C209.282 118.738 210.893 118.434 212.428 118.074C213.971 117.722 215.485 117.383 216.959 117.307C218.432 117.224 219.877 117.452 221.06 118.068C221.648 118.372 222.167 118.759 222.616 119.174C223.045 119.61 223.439 120.053 223.737 120.53C224.968 122.411 225.39 124.195 225.708 125.378C225.86 125.98 225.957 126.45 226.019 126.768C226.074 127.079 226.102 127.245 226.088 127.252Z" fill="white"/>
<path d="M262.805 118.413C262.771 118.482 261.733 117.736 259.783 117.258C258.815 117.023 257.625 116.892 256.311 117.002C255.004 117.12 253.586 117.5 252.265 118.24C250.937 118.974 249.851 119.963 249.035 120.993C248.233 122.031 247.679 123.103 247.382 124.043C247.085 124.991 247.091 125.814 247.23 126.346C247.361 126.886 247.569 127.135 247.534 127.156C247.527 127.162 247.472 127.107 247.382 126.983C247.299 126.858 247.181 126.664 247.098 126.388C246.912 125.841 246.863 124.97 247.14 123.974C247.423 122.985 247.956 121.871 248.772 120.793C249.595 119.72 250.716 118.69 252.085 117.929C253.454 117.161 254.928 116.774 256.276 116.67C257.632 116.574 258.856 116.74 259.838 117.009C260.827 117.279 261.574 117.632 262.065 117.915C262.314 118.054 262.494 118.178 262.618 118.261C262.75 118.351 262.812 118.406 262.805 118.413Z" fill="white"/>
<path d="M270.26 99.7606C270.225 99.7813 270.011 99.477 269.838 98.903C269.665 98.3358 269.568 97.492 269.741 96.5929C269.921 95.6938 270.322 94.9468 270.696 94.4904C271.069 94.027 271.381 93.8264 271.408 93.8541C271.498 93.9232 270.412 94.9468 270.094 96.6621C269.741 98.3704 270.371 99.726 270.26 99.7606Z" fill="white"/>
<path d="M287.188 113.468C287.201 113.475 287.174 113.572 287.118 113.772C287.07 113.973 286.959 114.25 286.8 114.602C286.475 115.308 285.86 116.276 284.815 117.203C283.771 118.109 282.263 118.973 280.417 119.216C278.549 119.492 276.55 118.897 274.545 118.399C273.535 118.157 272.532 117.957 271.564 117.95C270.595 117.936 269.662 118.088 268.818 118.372C267.123 118.946 265.796 119.942 264.883 120.938C263.97 121.941 263.451 122.93 263.167 123.635C262.877 124.341 262.794 124.762 262.752 124.749C262.739 124.749 262.759 124.638 262.794 124.444C262.835 124.244 262.891 123.946 263.029 123.587C263.278 122.86 263.769 121.823 264.689 120.772C265.602 119.727 266.957 118.676 268.707 118.061C269.579 117.756 270.554 117.583 271.564 117.597C272.574 117.604 273.597 117.805 274.621 118.054C276.647 118.559 278.591 119.146 280.368 118.89C282.139 118.676 283.612 117.867 284.649 117.016C285.687 116.138 286.316 115.218 286.676 114.547C287.035 113.862 287.153 113.454 287.188 113.468Z" fill="white"/>
<path d="M194.691 126.098C194.691 126.111 194.608 126.125 194.449 126.139C194.29 126.16 194.055 126.167 193.75 126.146C193.149 126.111 192.257 125.973 191.261 125.503C190.279 125.032 189.172 124.244 188.356 123.034C187.941 122.432 187.616 121.726 187.408 120.959C187.208 120.191 187.104 119.389 187 118.573C186.813 116.954 186.551 115.377 185.638 114.326C184.739 113.268 183.473 112.846 182.449 112.652C181.405 112.452 180.533 112.431 179.932 112.396C179.33 112.376 178.998 112.362 178.998 112.334C178.998 112.313 179.33 112.279 179.932 112.251C180.533 112.237 181.412 112.224 182.491 112.396C183.549 112.569 184.898 112.977 185.887 114.112C186.378 114.665 186.71 115.391 186.931 116.145C187.152 116.906 187.249 117.715 187.353 118.531C187.457 119.347 187.553 120.136 187.747 120.869C187.941 121.602 188.245 122.266 188.632 122.847C189.4 124.016 190.444 124.79 191.378 125.275C193.294 126.229 194.712 126.008 194.691 126.098Z" fill="white"/>
</g>
</g>
<defs>
<clipPath id="clip0_114_2680">
<rect width="454.566" height="278" fill="white"/>
</clipPath>
</defs>
</svg>
