<svg width="1536" height="691" viewBox="0 0 1536 691" fill="none" xmlns="http://www.w3.org/2000/svg">
<path d="M0 0H1536V691H0V0Z" fill="#CDA2D4"/>
<mask id="mask0_56_19" style="mask-type:alpha" maskUnits="userSpaceOnUse" x="0" y="0" width="1536" height="692">
<path d="M0 0.300842H1535.2V691H0V0.300842Z" fill="#FFE0FF"/>
</mask>
<g mask="url(#mask0_56_19)">
<ellipse cx="1498.4" cy="797.861" rx="136.8" ry="161.897" fill="#950095"/>
<path d="M254.366 -827.188C254.366 -827.188 409.31 -450.573 186.171 22.4645C-36.9691 495.502 280.942 845.432 708 848.1" stroke="#950095" stroke-width="1.377" stroke-miterlimit="10"/>
<path d="M436 840.489C430.139 835.306 -157.045 662.332 6.58251 295.057C170.21 -72.2169 45.4378 -237.786 -305.6 -439.047" stroke="#950095" stroke-width="1.377" stroke-miterlimit="10"/>
<ellipse cx="421.656" cy="417.104" rx="59.9625" ry="60.2939" fill="#D2E6FF" fill-opacity="0.08"/>
<g opacity="0.59">
<path d="M1400.05 182.597L1347 118.988H1400.05V182.597Z" fill="#950095"/>
<path d="M1400.05 246.206L1347 182.597H1400.05V246.206Z" fill="#950095"/>
<path d="M1453.1 182.597L1400.05 118.988H1453.1V182.597Z" fill="#950095"/>
<path d="M1453.1 246.206L1400.05 182.597H1453.1V246.206Z" fill="#950095"/>
<path d="M1506.15 182.597L1453.1 118.988H1506.15V182.597Z" fill="#950095"/>
<path d="M1559.2 246.206L1506.15 182.597H1559.2V246.206Z" fill="#950095"/>
<path d="M1559.2 182.597L1506.15 118.988H1559.2V182.597Z" fill="#950095"/>
<path d="M1506.15 246.206L1453.1 182.597H1506.15V246.206Z" fill="#950095"/>
</g>
</g>
</svg>
