<svg width="55" height="36" viewBox="0 0 55 36" fill="none" xmlns="http://www.w3.org/2000/svg">
<path d="M49.0532 5.69484L49.0524 5.69549L27.5001 22.783L2.87387 3.24394C3.12747 2.86338 3.56405 2.61429 4.0814 2.61429H50.9186C51.7383 2.61429 52.3674 3.24267 52.3674 4.03571V29.2893L36.0216 18.5952L50.3187 7.27181C50.3189 7.27171 50.319 7.27161 50.3191 7.2715C50.4233 7.18933 50.5105 7.08748 50.5753 6.97152L50.2262 6.77627L50.5753 6.9715C50.6403 6.85538 50.6815 6.72751 50.6965 6.5952C50.7114 6.46289 50.6997 6.32901 50.6622 6.20129C50.6246 6.07358 50.562 5.95476 50.4782 5.85154C50.3943 5.74833 50.291 5.66275 50.1743 5.59943C50.0576 5.53612 49.9296 5.49621 49.7977 5.48179C49.6657 5.46737 49.5322 5.47868 49.4046 5.51514C49.2769 5.5516 49.1575 5.61257 49.0532 5.69484ZM26.8662 24.8591L26.8671 24.8598C27.0474 25.002 27.2707 25.0789 27.5 25.0789C27.7293 25.0789 27.9526 25.002 28.1329 24.8598L28.1333 24.8595L34.3592 19.9343L52.3674 31.7V31.9643C52.3674 32.7573 51.7383 33.3857 50.9186 33.3857H4.0814C3.26174 33.3857 2.63256 32.7573 2.63256 31.9643V31.7001L20.6596 19.9345L26.8662 24.8591ZM4.0814 0.6C2.1697 0.6 0.6 2.13791 0.6 4.03571V31.9643C0.6 33.8621 2.1697 35.4 4.0814 35.4H50.9186C52.8303 35.4 54.4 33.8621 54.4 31.9643V4.03571C54.4 2.13791 52.8303 0.6 50.9186 0.6H4.0814ZM2.63256 5.62273L18.9788 18.5949L2.63256 29.2893V5.62273Z" fill="#7E007E" stroke="#7E007E" stroke-width="0.8"/>
</svg>
