<svg width="1533" height="554" viewBox="0 0 1533 554" fill="none" xmlns="http://www.w3.org/2000/svg">
<g opacity="0.95">
<path d="M-3 0H1533V554H-3V0Z" fill="#FFE0FF"/>
<mask id="mask0_1_11617" style="mask-type:alpha" maskUnits="userSpaceOnUse" x="-3" y="0" width="1536" height="554">
<path d="M-3 0.241089H1532.2V554H-3V0.241089Z" fill="#FFE0FF"/>
</mask>
<g mask="url(#mask0_1_11617)">
<ellipse cx="1495.4" cy="639.675" rx="136.8" ry="129.799" fill="#800080"/>
<path d="M251.366 -663.187C251.366 -663.187 406.31 -361.241 183.171 18.0103C-39.9691 397.262 277.942 677.813 705 679.953" stroke="#800080" stroke-width="1.377" stroke-miterlimit="10"/>
<path d="M433 673.851C427.138 669.695 -160.046 531.016 3.58202 236.558C167.21 -57.8989 42.4373 -190.642 -308.6 -352" stroke="#800080" stroke-width="1.377" stroke-miterlimit="10"/>
<ellipse cx="418.656" cy="334.408" rx="59.9625" ry="48.3398" fill="#D2E6FF" fill-opacity="0.08"/>
<g opacity="0.59">
<path d="M1397.05 146.395L1344 95.3969H1397.05V146.395Z" fill="#800080"/>
<path d="M1397.05 197.392L1344 146.395H1397.05V197.392Z" fill="#800080"/>
<path d="M1450.1 146.394L1397.05 95.3967H1450.1V146.394Z" fill="#800080"/>
<path d="M1450.1 197.392L1397.05 146.395H1450.1V197.392Z" fill="#800080"/>
<path d="M1503.15 146.394L1450.1 95.3967H1503.15V146.394Z" fill="#800080"/>
<path d="M1556.2 197.392L1503.15 146.395H1556.2V197.392Z" fill="#800080"/>
<path d="M1556.2 146.394L1503.15 95.3967H1556.2V146.394Z" fill="#800080"/>
<path d="M1503.15 197.392L1450.1 146.395H1503.15V197.392Z" fill="#800080"/>
</g>
</g>
</g>
</svg>
