<svg width="1536" height="1244" viewBox="0 0 1536 1244" fill="none" xmlns="http://www.w3.org/2000/svg">
<g opacity="0.5">
<g filter="url(#filter0_f_37_97)">
<ellipse cx="9" cy="639.5" rx="226" ry="180.5" fill="#FFD6FF"/>
</g>
<g filter="url(#filter1_f_37_97)">
<ellipse cx="71" cy="842.5" rx="226" ry="180.5" fill="#FFD8FF"/>
</g>
</g>
<path d="M108.5 731C108.5 828.571 43.0492 907.5 -37.5 907.5C-118.049 907.5 -183.5 828.571 -183.5 731C-183.5 633.429 -118.049 554.5 -37.5 554.5C43.0492 554.5 108.5 633.429 108.5 731Z" stroke="#7E007E" stroke-opacity="0.49"/>
<path d="M82.5 733C82.5 822.289 22.8677 894.5 -50.5 894.5C-123.868 894.5 -183.5 822.289 -183.5 733C-183.5 643.711 -123.868 571.5 -50.5 571.5C22.8677 571.5 82.5 643.711 82.5 733Z" stroke="#7E007E" stroke-opacity="0.49"/>
<g opacity="0.5">
<g filter="url(#filter2_f_37_97)">
<ellipse cx="1343" cy="467.5" rx="226" ry="180.5" fill="#FFD6FF"/>
</g>
<g filter="url(#filter3_f_37_97)">
<ellipse cx="1405" cy="670.5" rx="226" ry="180.5" fill="#FFD8FF"/>
</g>
</g>
<circle cx="35.367" cy="5.36697" r="5.36697" fill="#7E007E" fill-opacity="0.12"/>
<circle cx="68.1189" cy="5.36697" r="5.36697" fill="#7E007E" fill-opacity="0.12"/>
<circle cx="100.871" cy="5.36697" r="5.36697" fill="#7E007E" fill-opacity="0.12"/>
<circle cx="133.624" cy="5.36697" r="5.36697" fill="#7E007E" fill-opacity="0.12"/>
<circle cx="166.377" cy="5.36697" r="5.36697" fill="#7E007E" fill-opacity="0.12"/>
<circle cx="35.367" cy="38.1192" r="5.36697" fill="#7E007E" fill-opacity="0.12"/>
<circle cx="68.1189" cy="38.1192" r="5.36697" fill="#7E007E" fill-opacity="0.12"/>
<circle cx="100.871" cy="38.1192" r="5.36697" fill="#7E007E" fill-opacity="0.12"/>
<circle cx="133.624" cy="38.1192" r="5.36697" fill="#7E007E" fill-opacity="0.12"/>
<circle cx="166.377" cy="38.1192" r="5.36697" fill="#7E007E" fill-opacity="0.12"/>
<circle cx="35.367" cy="70.8716" r="5.36697" fill="#7E007E" fill-opacity="0.12"/>
<circle cx="68.1189" cy="70.8716" r="5.36697" fill="#7E007E" fill-opacity="0.12"/>
<circle cx="100.871" cy="70.8716" r="5.36697" fill="#7E007E" fill-opacity="0.12"/>
<circle cx="133.624" cy="70.8716" r="5.36697" fill="#7E007E" fill-opacity="0.12"/>
<circle cx="166.377" cy="70.8716" r="5.36697" fill="#7E007E" fill-opacity="0.12"/>
<circle cx="35.367" cy="103.624" r="5.36697" fill="#7E007E" fill-opacity="0.12"/>
<circle cx="68.1189" cy="103.624" r="5.36697" fill="#7E007E" fill-opacity="0.12"/>
<circle cx="100.871" cy="103.624" r="5.36697" fill="#7E007E" fill-opacity="0.12"/>
<circle cx="133.624" cy="103.624" r="5.36697" fill="#7E007E" fill-opacity="0.12"/>
<circle cx="166.377" cy="103.624" r="5.36697" fill="#7E007E" fill-opacity="0.12"/>
<circle cx="35.367" cy="136.376" r="5.36697" fill="#7E007E" fill-opacity="0.12"/>
<circle cx="68.1189" cy="136.376" r="5.36697" fill="#7E007E" fill-opacity="0.12"/>
<circle cx="100.871" cy="136.376" r="5.36697" fill="#7E007E" fill-opacity="0.12"/>
<circle cx="133.624" cy="136.376" r="5.36697" fill="#7E007E" fill-opacity="0.12"/>
<circle cx="166.377" cy="136.376" r="5.36697" fill="#7E007E" fill-opacity="0.12"/>
<circle cx="199.129" cy="5.36697" r="5.36697" fill="#7E007E" fill-opacity="0.12"/>
<circle cx="199.129" cy="38.1192" r="5.36697" fill="#7E007E" fill-opacity="0.12"/>
<circle cx="199.129" cy="70.8716" r="5.36697" fill="#7E007E" fill-opacity="0.12"/>
<circle cx="199.129" cy="103.624" r="5.36697" fill="#7E007E" fill-opacity="0.12"/>
<circle cx="199.129" cy="136.376" r="5.36697" fill="#7E007E" fill-opacity="0.12"/>
<circle cx="231.881" cy="5.36697" r="5.36697" fill="#7E007E" fill-opacity="0.12"/>
<circle cx="231.881" cy="38.1192" r="5.36697" fill="#7E007E" fill-opacity="0.12"/>
<circle cx="231.881" cy="70.8716" r="5.36697" fill="#7E007E" fill-opacity="0.12"/>
<circle cx="231.881" cy="103.624" r="5.36697" fill="#7E007E" fill-opacity="0.12"/>
<circle cx="231.881" cy="136.376" r="5.36697" fill="#7E007E" fill-opacity="0.12"/>
<circle cx="264.633" cy="5.36697" r="5.36697" fill="#7E007E" fill-opacity="0.12"/>
<circle cx="264.633" cy="38.1192" r="5.36697" fill="#7E007E" fill-opacity="0.12"/>
<circle cx="264.633" cy="70.8716" r="5.36697" fill="#7E007E" fill-opacity="0.12"/>
<circle cx="264.633" cy="103.624" r="5.36697" fill="#7E007E" fill-opacity="0.12"/>
<circle cx="264.633" cy="136.376" r="5.36697" fill="#7E007E" fill-opacity="0.12"/>
<circle cx="35.367" cy="169.128" r="5.36697" fill="#7E007E" fill-opacity="0.12"/>
<circle cx="68.1189" cy="169.128" r="5.36697" fill="#7E007E" fill-opacity="0.12"/>
<circle cx="100.871" cy="169.128" r="5.36697" fill="#7E007E" fill-opacity="0.12"/>
<circle cx="133.624" cy="169.128" r="5.36697" fill="#7E007E" fill-opacity="0.12"/>
<circle cx="166.377" cy="169.128" r="5.36697" fill="#7E007E" fill-opacity="0.12"/>
<circle cx="199.129" cy="169.128" r="5.36697" fill="#7E007E" fill-opacity="0.12"/>
<circle cx="231.881" cy="169.128" r="5.36697" fill="#7E007E" fill-opacity="0.12"/>
<circle cx="264.633" cy="169.128" r="5.36697" fill="#7E007E" fill-opacity="0.12"/>
<circle cx="1261.37" cy="1074.37" r="5.36697" fill="#7E007E" fill-opacity="0.12"/>
<circle cx="1294.12" cy="1074.37" r="5.36697" fill="#7E007E" fill-opacity="0.12"/>
<circle cx="1326.87" cy="1074.37" r="5.36697" fill="#7E007E" fill-opacity="0.12"/>
<circle cx="1359.62" cy="1074.37" r="5.36697" fill="#7E007E" fill-opacity="0.12"/>
<circle cx="1392.38" cy="1074.37" r="5.36697" fill="#7E007E" fill-opacity="0.12"/>
<circle cx="1261.37" cy="1107.12" r="5.36697" fill="#7E007E" fill-opacity="0.12"/>
<circle cx="1294.12" cy="1107.12" r="5.36697" fill="#7E007E" fill-opacity="0.12"/>
<circle cx="1326.87" cy="1107.12" r="5.36697" fill="#7E007E" fill-opacity="0.12"/>
<circle cx="1359.62" cy="1107.12" r="5.36697" fill="#7E007E" fill-opacity="0.12"/>
<circle cx="1392.38" cy="1107.12" r="5.36697" fill="#7E007E" fill-opacity="0.12"/>
<circle cx="1261.37" cy="1139.87" r="5.36697" fill="#7E007E" fill-opacity="0.12"/>
<circle cx="1294.12" cy="1139.87" r="5.36697" fill="#7E007E" fill-opacity="0.12"/>
<circle cx="1326.87" cy="1139.87" r="5.36697" fill="#7E007E" fill-opacity="0.12"/>
<circle cx="1359.62" cy="1139.87" r="5.36697" fill="#7E007E" fill-opacity="0.12"/>
<circle cx="1392.38" cy="1139.87" r="5.36697" fill="#7E007E" fill-opacity="0.12"/>
<circle cx="1261.37" cy="1172.62" r="5.36697" fill="#7E007E" fill-opacity="0.12"/>
<circle cx="1294.12" cy="1172.62" r="5.36697" fill="#7E007E" fill-opacity="0.12"/>
<circle cx="1326.87" cy="1172.62" r="5.36697" fill="#7E007E" fill-opacity="0.12"/>
<circle cx="1359.62" cy="1172.62" r="5.36697" fill="#7E007E" fill-opacity="0.12"/>
<circle cx="1392.38" cy="1172.62" r="5.36697" fill="#7E007E" fill-opacity="0.12"/>
<circle cx="1261.37" cy="1205.38" r="5.36697" fill="#7E007E" fill-opacity="0.12"/>
<circle cx="1294.12" cy="1205.38" r="5.36697" fill="#7E007E" fill-opacity="0.12"/>
<circle cx="1326.87" cy="1205.38" r="5.36697" fill="#7E007E" fill-opacity="0.12"/>
<circle cx="1359.62" cy="1205.38" r="5.36697" fill="#7E007E" fill-opacity="0.12"/>
<circle cx="1392.38" cy="1205.38" r="5.36697" fill="#7E007E" fill-opacity="0.12"/>
<circle cx="1425.13" cy="1074.37" r="5.36697" fill="#7E007E" fill-opacity="0.12"/>
<circle cx="1425.13" cy="1107.12" r="5.36697" fill="#7E007E" fill-opacity="0.12"/>
<circle cx="1425.13" cy="1139.87" r="5.36697" fill="#7E007E" fill-opacity="0.12"/>
<circle cx="1425.13" cy="1172.62" r="5.36697" fill="#7E007E" fill-opacity="0.12"/>
<circle cx="1425.13" cy="1205.38" r="5.36697" fill="#7E007E" fill-opacity="0.12"/>
<circle cx="1457.88" cy="1074.37" r="5.36697" fill="#7E007E" fill-opacity="0.12"/>
<circle cx="1457.88" cy="1107.12" r="5.36697" fill="#7E007E" fill-opacity="0.12"/>
<circle cx="1457.88" cy="1139.87" r="5.36697" fill="#7E007E" fill-opacity="0.12"/>
<circle cx="1457.88" cy="1172.62" r="5.36697" fill="#7E007E" fill-opacity="0.12"/>
<circle cx="1457.88" cy="1205.38" r="5.36697" fill="#7E007E" fill-opacity="0.12"/>
<circle cx="1490.63" cy="1074.37" r="5.36697" fill="#7E007E" fill-opacity="0.12"/>
<circle cx="1490.63" cy="1107.12" r="5.36697" fill="#7E007E" fill-opacity="0.12"/>
<circle cx="1490.63" cy="1139.87" r="5.36697" fill="#7E007E" fill-opacity="0.12"/>
<circle cx="1490.63" cy="1172.62" r="5.36697" fill="#7E007E" fill-opacity="0.12"/>
<circle cx="1490.63" cy="1205.38" r="5.36697" fill="#7E007E" fill-opacity="0.12"/>
<circle cx="1261.37" cy="1238.13" r="5.36697" fill="#7E007E" fill-opacity="0.12"/>
<circle cx="1294.12" cy="1238.13" r="5.36697" fill="#7E007E" fill-opacity="0.12"/>
<circle cx="1326.87" cy="1238.13" r="5.36697" fill="#7E007E" fill-opacity="0.12"/>
<circle cx="1359.62" cy="1238.13" r="5.36697" fill="#7E007E" fill-opacity="0.12"/>
<circle cx="1392.38" cy="1238.13" r="5.36697" fill="#7E007E" fill-opacity="0.12"/>
<circle cx="1425.13" cy="1238.13" r="5.36697" fill="#7E007E" fill-opacity="0.12"/>
<circle cx="1457.88" cy="1238.13" r="5.36697" fill="#7E007E" fill-opacity="0.12"/>
<circle cx="1490.63" cy="1238.13" r="5.36697" fill="#7E007E" fill-opacity="0.12"/>
<defs>
<filter id="filter0_f_37_97" x="-367" y="309" width="752" height="661" filterUnits="userSpaceOnUse" color-interpolation-filters="sRGB">
<feFlood flood-opacity="0" result="BackgroundImageFix"/>
<feBlend mode="normal" in="SourceGraphic" in2="BackgroundImageFix" result="shape"/>
<feGaussianBlur stdDeviation="75" result="effect1_foregroundBlur_37_97"/>
</filter>
<filter id="filter1_f_37_97" x="-305" y="512" width="752" height="661" filterUnits="userSpaceOnUse" color-interpolation-filters="sRGB">
<feFlood flood-opacity="0" result="BackgroundImageFix"/>
<feBlend mode="normal" in="SourceGraphic" in2="BackgroundImageFix" result="shape"/>
<feGaussianBlur stdDeviation="75" result="effect1_foregroundBlur_37_97"/>
</filter>
<filter id="filter2_f_37_97" x="967" y="137" width="752" height="661" filterUnits="userSpaceOnUse" color-interpolation-filters="sRGB">
<feFlood flood-opacity="0" result="BackgroundImageFix"/>
<feBlend mode="normal" in="SourceGraphic" in2="BackgroundImageFix" result="shape"/>
<feGaussianBlur stdDeviation="75" result="effect1_foregroundBlur_37_97"/>
</filter>
<filter id="filter3_f_37_97" x="1029" y="340" width="752" height="661" filterUnits="userSpaceOnUse" color-interpolation-filters="sRGB">
<feFlood flood-opacity="0" result="BackgroundImageFix"/>
<feBlend mode="normal" in="SourceGraphic" in2="BackgroundImageFix" result="shape"/>
<feGaussianBlur stdDeviation="75" result="effect1_foregroundBlur_37_97"/>
</filter>
</defs>
</svg>
