<svg width="717" height="648" viewBox="0 0 717 648" fill="none" xmlns="http://www.w3.org/2000/svg">
<g opacity="0.9">
<g opacity="0.3">
<path d="M429.289 222.606C429.289 222.606 449.344 127.953 526.183 115.448C526.183 115.448 541.141 113.239 546.615 129.127C552.09 145.016 522.254 145.974 503.999 152.937C485.743 159.906 443.557 188.454 429.289 222.606Z" fill="#A47FE1"/>
</g>
<g opacity="0.3">
<path d="M427.012 205.059C427.012 205.059 416.663 127.412 472.135 98.1942C472.135 98.1942 482.994 92.6782 491.506 103.453C500.017 114.227 477.419 122.586 465.323 132.588C453.232 142.595 428.664 175.249 427.012 205.059Z" fill="#A47FE1"/>
</g>
<g opacity="0.5">
<path d="M115.417 176.66C124.826 150.692 170.295 162.264 170.295 162.264C170.295 162.264 198.076 210.868 207.097 212.619C216.118 214.376 191.709 166.565 191.709 166.565C209.476 166.168 252.841 190.354 252.841 190.354C252.841 190.354 245.891 244.248 255.082 243.795C264.273 243.341 258.725 195.773 258.725 195.773C275.419 201.958 289.888 222.415 289.888 222.415C307.416 255.3 262.978 275.438 262.978 275.438C262.978 275.438 260.987 294.165 271.304 316.548C271.304 316.548 273.698 320.715 275.928 327.668L271.272 327.333C270.985 326.097 270.656 324.897 270.274 323.738C270.274 323.728 270.274 323.723 270.268 323.718C270.263 323.702 270.258 323.687 270.252 323.666C269.987 322.945 269.604 321.92 269.127 320.669V320.664C269.127 320.658 269.121 320.658 269.127 320.658C267.911 317.857 267.098 315.791 266.599 314.308C266.599 314.303 266.594 314.298 266.594 314.293C262.978 305.511 257.679 294.031 253.76 291.42C253.76 291.42 254.328 290.755 254.912 289.422C254.546 290.06 254.163 290.725 253.76 291.42C244.537 307.412 204.49 307.324 182.629 301.324C160.769 295.324 170.905 289.942 183.606 280.939C196.307 271.936 221.147 276.324 228.841 272.987C236.535 269.649 226.011 265.014 211.133 265.06C196.254 265.107 187.764 278.93 163.694 279.435C139.625 279.935 124.726 235.029 124.726 235.029C140.851 241.173 171.118 234.457 172.673 229.018C174.229 223.579 130.37 221.004 123.664 218.857C116.957 216.729 106.008 202.628 115.417 176.66Z" fill="#A47FE1"/>
</g>
<g opacity="0.5">
<path d="M45.7385 584.825C29.2568 556.941 74.5019 526.786 74.5019 526.786C74.5019 526.786 139.999 540.059 148.479 533.662C156.964 527.265 94.7643 511.706 94.7643 511.706C107.965 496.167 163.102 477.446 163.102 477.446C163.102 477.446 206.913 524.535 213.508 516.31C220.108 508.085 172.522 476.534 172.522 476.534C190.904 466.939 220.586 470.148 220.586 470.148C263.936 480.217 248.367 533.688 248.367 533.688C248.367 533.688 263.915 549.69 292.184 557.925C292.184 557.925 297.813 559.053 305.846 562.447L301.991 566.186C300.643 565.491 299.299 564.858 297.956 564.296C297.951 564.291 297.94 564.286 297.929 564.286C297.908 564.276 297.892 564.27 297.871 564.26C297.011 563.941 295.784 563.482 294.281 562.942H294.276H294.271C290.788 561.845 288.292 560.964 286.561 560.263C286.556 560.263 286.55 560.258 286.545 560.258C275.782 556.658 261.276 552.44 255.907 553.81C255.907 553.81 255.732 552.816 254.967 551.297C255.27 552.1 255.583 552.934 255.907 553.81C263.442 573.922 232.799 608.193 210.652 622.356C188.499 636.52 191.329 623.721 192.821 605.963C194.308 588.204 217.268 570.25 220.098 561.113C222.928 551.971 210.673 557.457 199.363 570.25C188.048 583.043 194.17 600.874 176.26 621.893C158.35 642.911 106.048 621.414 106.048 621.414C123.958 612.277 140.928 581.2 137.163 575.715C133.393 570.229 97.5732 605.87 90.5005 609.98C83.4278 614.085 62.2203 612.709 45.7385 584.825Z" fill="#A47FE1"/>
</g>
<g opacity="0.5">
<path d="M676.99 213.001C673.794 184.103 624.168 185.328 624.168 185.328C624.168 185.328 583.495 228.772 573.783 228.457C564.071 228.143 601.081 184.726 601.081 184.726C582.916 180.152 532.308 194.841 532.308 194.841C532.308 194.841 526.016 251.871 516.681 249.249C507.346 246.628 524.911 199.028 524.911 199.028C506.205 201.47 486.234 219.104 486.234 219.104C460.014 248.796 500.677 279.92 500.677 279.92C500.677 279.92 498.054 299.64 481.87 320.226C481.87 320.226 478.371 323.95 474.346 330.574L479.215 331.325C479.82 330.12 480.457 328.967 481.137 327.864C481.137 327.854 481.142 327.849 481.148 327.844C481.158 327.828 481.169 327.813 481.179 327.797C481.631 327.118 482.284 326.154 483.086 324.98C483.086 324.98 483.086 324.975 483.091 324.975C483.091 324.97 483.096 324.975 483.096 324.97C485.045 322.374 486.394 320.443 487.275 319.037C487.28 319.032 487.28 319.026 487.28 319.021C493.19 310.842 501.5 300.284 506.178 298.523C506.178 298.523 505.759 297.704 505.493 296.195C505.711 296.937 505.939 297.709 506.178 298.523C511.674 317.126 552.857 326.433 576.826 325.392C600.794 324.352 591.714 316.441 580.904 304.209C570.093 291.977 543.464 290.658 536.391 285.426C529.318 280.193 541.287 277.896 556.569 281.434C571.856 284.972 577.128 301.175 601.745 307.335C626.361 313.495 652.878 270.829 652.878 270.829C634.767 273.363 605.334 259.36 605.09 253.401C604.846 247.447 650.574 255.085 658.002 254.456C665.42 253.828 680.187 241.9 676.99 213.001Z" fill="#A47FE1"/>
</g>
<g opacity="0.5">
<path d="M703.059 564.569C735.932 538.405 695.822 482.235 695.822 482.235C695.822 482.235 611.018 469.215 603.845 457.792C596.671 446.368 678.591 455.191 678.591 455.191C670.058 430.722 612.707 383.89 612.707 383.89C612.707 383.89 538.035 421.018 533.983 408.235C529.932 395.452 601.832 378.631 601.832 378.631C584.289 358.998 547.173 349.727 547.173 349.727C490.437 342.651 483.991 413.674 483.991 413.674C483.991 413.674 457.824 425.999 420.045 423.382C420.045 423.382 412.765 422.249 401.529 422.77L404.397 428.955C406.34 428.713 408.252 428.548 410.126 428.476C410.137 428.471 410.147 428.471 410.158 428.476C410.184 428.476 410.211 428.476 410.237 428.471C411.422 428.466 413.105 428.461 415.165 428.476H415.17C415.176 428.476 415.176 428.476 415.181 428.476C419.875 428.703 423.284 428.749 425.694 428.667C425.7 428.667 425.71 428.667 425.716 428.667C440.318 429.104 459.704 430.459 465.497 434.471C465.497 434.471 466.171 433.353 467.807 431.87C467.069 432.699 466.299 433.565 465.497 434.471C447.013 455.268 467.669 509.924 487.591 536.701C507.514 563.477 510.126 546.878 516.684 524.916C523.241 502.955 504.137 471.276 505.034 459.059C505.931 446.842 518.059 458.832 525.62 479.181C533.181 499.53 517.464 518.211 529.077 551.343C540.69 584.475 613.525 581.802 613.525 581.802C596.331 562.926 590.57 518.149 597.664 513.23C604.763 508.317 630.994 566.902 637.541 574.957C644.099 583.012 670.186 590.733 703.059 564.569Z" fill="#A47FE1"/>
</g>
<path d="M197.734 368.243C196.173 372.312 193.47 377.034 190.629 378.209C187.411 379.543 186.068 381.423 186.068 381.423L183.471 379.96L180.365 378.209C180.365 378.209 180.44 377.874 180.588 377.328C180.737 376.787 180.971 376.03 181.284 375.196C181.284 375.196 182.234 374.011 181.65 372.518C181.066 371.029 181.183 368.727 182.181 367.321C183.179 365.92 184.135 362.459 184.735 362.562C186.185 362.804 184.024 367.558 184.645 368.439C185.208 369.237 185.909 368.964 186.041 368.902C186.052 368.897 186.057 368.892 186.068 368.887C190.141 367.151 195.079 357.788 197.266 359.049C198.084 359.528 198.397 366.507 197.734 368.243Z" fill="#E2B097"/>
<path d="M183.644 373.908L188.747 377.385C189.108 377.632 189.607 377.544 189.862 377.194L202.929 359.158C203.184 358.807 203.094 358.323 202.733 358.076L197.63 354.6C197.269 354.352 196.77 354.44 196.515 354.79L183.448 372.827C183.198 373.177 183.283 373.666 183.644 373.908Z" fill="#E77D3B"/>
<path d="M188.316 377.092L191.305 379.131C191.581 379.317 191.963 379.255 192.155 378.987L205.44 360.647C205.631 360.379 205.567 360.008 205.291 359.823L202.302 357.783C202.026 357.598 201.643 357.66 201.452 357.927L188.167 376.268C187.97 376.536 188.039 376.906 188.316 377.092Z" fill="#D87131"/>
<path d="M110.464 348.028C110.464 348.028 136.419 391.94 145.838 400.021L180.368 375.052C180.368 375.052 185.381 376.54 187.574 381.423C187.574 381.423 166.605 422.857 145.96 424.614C125.316 426.37 96.3398 374.949 96.3398 374.949L110.464 348.028Z" fill="#5A47AA"/>
<path d="M51.7196 646.707H36.7247C34.8343 645.713 33.1564 643.437 32.6201 640.043C31.8874 635.356 26.4714 632.801 25.3032 628.964C24.135 625.132 30.1351 619.74 30.1351 619.74L31.1387 618.483L32.1847 617.18L42.1407 619.451C42.1407 619.451 42.3903 621.754 42.5389 624.679C42.6451 626.791 42.7035 629.232 42.5814 631.375C42.2894 636.484 44.0522 641.989 48.7355 642.983C52.1922 643.725 52.0382 645.718 51.7196 646.707Z" fill="#E77D3B"/>
<path d="M138.766 646.707H104.469C102.818 644.755 103.429 637.55 103.678 635.196C103.731 634.722 103.763 634.444 103.763 634.444C103.763 634.444 115.477 625.359 117.086 632.317C117.133 632.533 117.192 632.75 117.261 632.961C119.289 639.471 128.38 642.427 133.631 643.251C137.035 643.787 138.298 645.507 138.766 646.707Z" fill="#E77D3B"/>
<path d="M132.227 461.011C132.227 461.011 130.449 482.535 128.357 508.405C125.516 543.546 122.102 586.716 121.762 594.895C121.178 609.094 118.831 631.807 118.831 631.807C118.831 631.807 113.271 637.205 102.142 634.928C102.142 634.928 92.2284 602.502 89.393 568.195C89.3505 567.634 89.3027 567.067 89.2602 566.501C86.6265 531.576 82.5273 458.029 82.5273 458.029L132.227 461.011Z" fill="#D06BF4"/>
<path d="M132.228 461.011C132.228 461.011 130.449 482.535 128.357 508.405L89.3988 568.195C89.3563 567.634 89.3086 567.067 89.2661 566.501C86.6324 531.576 82.5332 458.029 82.5332 458.029L132.228 461.011Z" fill="#7E37B5"/>
<path d="M124.104 463.565C124.104 463.565 92.0489 541.511 70.9688 578.14C49.8888 614.77 43.3046 624.993 43.3046 624.993C43.3046 624.993 31.23 620.306 30.1309 617.113C30.1309 617.113 38.1912 546.399 52.3047 529.16C60.2801 519.421 69.652 490.188 70.0874 479.964C70.5281 469.741 72.9441 449.51 72.9441 449.51L124.104 463.565Z" fill="#D06BF4"/>
<path d="M116.126 349.938C103.601 353.77 81.9258 343.423 81.9258 343.423C81.9258 343.423 93.4747 335.018 92.8694 317.532L102.555 325.103L109.133 330.243C109.133 330.243 109.107 333.277 108.39 338.587C108.199 339.983 109.824 343.068 111.236 344.798C115.033 349.48 116.126 349.938 116.126 349.938Z" fill="#E2B097"/>
<path d="M109.137 330.249C109.137 330.249 109.111 333.283 108.394 338.593C101.103 337.377 92.8359 325.948 92.8359 325.948C96.5475 324.908 99.7971 324.723 102.564 325.104L109.137 330.249Z" fill="#DA9F84"/>
<path d="M112.966 329.96C112.966 329.96 92.2732 333.293 90.3352 320.762C88.3918 308.231 84.4147 300.222 97.5406 297.565C110.667 294.907 113.985 299.311 115.679 303.343C117.378 307.376 118.297 328.771 112.966 329.96Z" fill="#E2B097"/>
<path d="M133.609 462.804C133.232 463.108 132.797 463.288 132.292 463.288C127.588 463.226 113.872 465.76 102.265 464.606C92.479 463.695 83.8187 460.883 74.5212 456.84C73.284 456.304 70.4432 454.831 70.5069 453.492C70.5494 452.024 70.6981 449.902 70.8892 447.224C71.5476 437.912 72.6946 421.894 71.5742 403.42C71.3724 399.98 71.2662 396.565 71.2556 393.207C71.16 368.166 76.2787 346.138 86.5639 338.685C87.44 338.072 92.8348 340.632 97.7942 343.001C102.371 345.195 106.954 345.432 111.281 344.583L115.609 348.291C120.876 353.034 126.648 359.488 129.159 369.284C131.294 377.617 132.547 392.651 133.237 408.225C133.551 415.281 133.806 422.404 133.869 429.156V429.399C133.928 430.068 133.928 430.799 133.928 431.469C134.177 448.81 133.922 462.556 133.609 462.804Z" fill="#7962D4"/>
<path d="M70.8848 447.219C71.5432 437.907 72.6901 421.889 71.5697 403.415C71.368 399.974 71.2618 396.56 71.2511 393.202C75.5362 383.117 79.0407 375.809 79.0407 375.809H89.8409C89.8462 375.809 97.7632 428.27 70.8848 447.219Z" fill="#5A47AA"/>
<path d="M15.5623 506.68L61.6305 513.046C67.6253 513.875 73.2325 509.796 74.0821 503.981L76.9281 484.616C77.783 478.801 73.5776 473.368 67.5828 472.538L21.5146 466.173C15.5198 465.343 9.91265 469.423 9.06307 475.237L6.217 494.603C5.35681 500.417 9.56751 505.851 15.5623 506.68Z" fill="#D87131"/>
<path d="M70.1787 478.312C68.8831 475.165 66.0901 472.687 62.5484 471.843C62.5431 471.843 62.5431 471.843 62.5378 471.843C62.1927 471.76 61.8369 471.693 61.4758 471.642L52.3057 470.375L52.9164 466.198C53.0544 465.266 52.8102 464.333 52.2208 463.576C51.6367 462.819 50.7818 462.33 49.8207 462.196L47.426 461.866L37.794 460.533L36.0576 460.29C34.0664 460.017 32.2186 461.362 31.9319 463.293L31.3159 467.47L15.4873 465.286C9.47127 464.457 3.84815 468.552 2.98796 474.387L0.110022 493.974C-0.744862 499.809 3.47646 505.263 9.49251 506.098L55.4757 512.453C56.2881 512.567 57.0899 512.587 57.8758 512.525C57.8811 512.525 57.8811 512.525 57.8811 512.525C59.1395 512.433 60.3501 512.129 61.4705 511.645C64.8529 510.197 67.4175 507.138 67.9751 503.347L70.853 483.761C71.1344 481.855 70.8689 479.991 70.1787 478.312ZM34.1939 463.607C34.2788 463.025 34.7514 462.582 35.3249 462.49C35.4576 462.469 35.5957 462.464 35.7337 462.485L37.778 462.768L45.3605 463.818L49.4915 464.39C50.2349 464.493 50.7553 465.163 50.6491 465.884L50.0384 470.061L33.5832 467.784L34.1939 463.607Z" fill="#E77D3B"/>
<path d="M50.5909 449.021C50.5909 449.021 48.1696 452.147 48.0741 453.394C47.4263 461.861 51.414 463.03 41.0863 467.732C41.0863 467.732 36.6792 469.365 36.6048 466.043C36.5305 462.726 39.6633 462.669 39.0898 458.024C38.4314 452.662 38.4951 452.616 42.1217 449.814L44.5218 445.962L50.5909 449.021Z" fill="#E2B097"/>
<path d="M44.4374 451.421C48.3295 452.157 52.5455 451.858 52.5455 451.858C52.5455 451.858 64.0944 417.258 65.5812 414.101C67.0679 410.939 99.8774 373.532 99.8774 373.532L86.2099 340.353C86.2099 340.353 50.7189 397.857 47.1189 405.933C41.1665 419.282 39.0957 449.216 39.0957 449.216C39.0957 449.216 41.3842 450.839 44.4374 451.421Z" fill="#7962D4"/>
<path d="M90.318 319.562C90.318 319.562 92.4419 319.217 92.0967 316.379C91.7516 313.541 91.7569 309.833 94.1357 310.523C96.5145 311.213 96.6313 313.062 97.6084 311.981C98.5854 310.904 98.6013 306.362 105.679 306.042C112.752 305.728 115.63 308.113 118.922 306.712C122.214 305.311 122.384 300.48 122.384 300.48C122.384 300.48 121.45 302.205 120.037 302.751C120.037 302.751 125.527 295.469 119.172 290.478C112.816 285.482 106.338 288.752 102.658 288.969C94.5552 289.443 89.3197 289.916 86.6754 295.082C84.0258 300.248 85.1143 314.587 90.318 319.562Z" fill="#412013"/>
<path d="M46.7722 452.745C46.7722 452.745 49.1032 455.099 49.2466 456.082C49.7192 459.229 50.8024 460.589 50.2608 460.929C49.1351 461.64 47.6377 459.312 46.9262 457.221C46.2147 455.129 46.7722 452.745 46.7722 452.745Z" fill="#E2B097"/>
<path d="M476.342 643.117H251.55C237.426 643.117 225.973 632.008 225.973 618.308V201.207C225.973 187.507 237.426 176.397 251.55 176.397H476.342C490.466 176.397 501.92 187.507 501.92 201.207V618.308C501.92 632.008 490.466 643.117 476.342 643.117Z" fill="#715190"/>
<path d="M476.342 646.233H251.55C235.679 646.233 222.76 633.708 222.76 618.308V201.207C222.76 185.812 235.673 173.281 251.55 173.281H476.342C492.213 173.281 505.126 185.807 505.126 201.207V618.308C505.132 633.702 492.218 646.233 476.342 646.233ZM251.55 179.513C239.215 179.513 229.185 189.247 229.185 201.207V618.308C229.185 630.272 239.22 640.001 251.55 640.001H476.342C488.677 640.001 498.707 630.267 498.707 618.308V201.207C498.707 189.242 488.671 179.513 476.342 179.513H251.55Z" fill="#373C52"/>
<g opacity="0.9">
<path d="M454.699 299.207H273.203V475.252H454.699V299.207Z" fill="white"/>
</g>
<path d="M298.609 456.777H291.398V463.772H298.609V456.777Z" fill="#373C52"/>
<path d="M305.822 456.777H298.611V463.772H305.822V456.777Z" fill="#373C52"/>
<path d="M313.031 456.777H305.82V463.772H313.031V456.777Z" fill="#373C52"/>
<path d="M320.248 456.777H313.037V463.772H320.248V456.777Z" fill="#373C52"/>
<path d="M327.457 456.777H320.246V463.772H327.457V456.777Z" fill="#373C52"/>
<path d="M341.887 456.777H334.676V463.772H341.887V456.777Z" fill="#373C52"/>
<path d="M349.096 456.777H341.885V463.772H349.096V456.777Z" fill="#373C52"/>
<path d="M370.734 456.777H363.523V463.772H370.734V456.777Z" fill="#373C52"/>
<path d="M385.59 456.777H377.949V463.772H385.59V456.777Z" fill="#373C52"/>
<path d="M392.801 456.777H385.59V463.772H392.801V456.777Z" fill="#373C52"/>
<path d="M407.228 456.777H400.018V463.772H407.228V456.777Z" fill="#373C52"/>
<path d="M414.439 456.777H407.229V463.772H414.439V456.777Z" fill="#373C52"/>
<path d="M421.65 456.777H414.439V463.772H421.65V456.777Z" fill="#373C52"/>
<path d="M428.865 456.777H421.654V463.772H428.865V456.777Z" fill="#373C52"/>
<path d="M436.076 456.777H428.865V463.772H436.076V456.777Z" fill="#373C52"/>
<path d="M443.723 456.777H436.082V463.772H443.723V456.777Z" fill="#373C52"/>
<path d="M291.394 456.777H284.184V463.772H291.394V456.777Z" fill="#373C52"/>
<path d="M327.457 449.783H320.246V456.777H327.457V449.783Z" fill="#373C52"/>
<path d="M349.096 449.783H341.885V456.777H349.096V449.783Z" fill="#373C52"/>
<path d="M363.523 449.783H356.312V456.777H363.523V449.783Z" fill="#373C52"/>
<path d="M370.734 449.783H363.523V456.777H370.734V449.783Z" fill="#373C52"/>
<path d="M377.949 449.783H370.738V456.777H377.949V449.783Z" fill="#373C52"/>
<path d="M385.59 449.783H377.949V456.777H385.59V449.783Z" fill="#373C52"/>
<path d="M407.228 449.783H400.018V456.777H407.228V449.783Z" fill="#373C52"/>
<path d="M443.723 449.783H436.082V456.777H443.723V449.783Z" fill="#373C52"/>
<path d="M291.394 449.783H284.184V456.777H291.394V449.783Z" fill="#373C52"/>
<path d="M305.822 442.789H298.611V449.783H305.822V442.789Z" fill="#373C52"/>
<path d="M313.031 442.789H305.82V449.783H313.031V442.789Z" fill="#373C52"/>
<path d="M327.457 442.789H320.246V449.783H327.457V442.789Z" fill="#373C52"/>
<path d="M341.887 442.789H334.676V449.783H341.887V442.789Z" fill="#373C52"/>
<path d="M349.096 442.789H341.885V449.783H349.096V442.789Z" fill="#373C52"/>
<path d="M356.312 442.789H349.102V449.783H356.312V442.789Z" fill="#373C52"/>
<path d="M370.734 442.789H363.523V449.783H370.734V442.789Z" fill="#373C52"/>
<path d="M377.949 442.789H370.738V449.783H377.949V442.789Z" fill="#373C52"/>
<path d="M385.59 442.789H377.949V449.783H385.59V442.789Z" fill="#373C52"/>
<path d="M392.801 442.789H385.59V449.783H392.801V442.789Z" fill="#373C52"/>
<path d="M407.228 442.789H400.018V449.783H407.228V442.789Z" fill="#373C52"/>
<path d="M421.65 442.789H414.439V449.783H421.65V442.789Z" fill="#373C52"/>
<path d="M428.865 442.789H421.654V449.783H428.865V442.789Z" fill="#373C52"/>
<path d="M443.723 442.789H436.082V449.783H443.723V442.789Z" fill="#373C52"/>
<path d="M291.394 442.789H284.184V449.783H291.394V442.789Z" fill="#373C52"/>
<path d="M305.822 435.789H298.611V442.783H305.822V435.789Z" fill="#373C52"/>
<path d="M313.031 435.789H305.82V442.783H313.031V435.789Z" fill="#373C52"/>
<path d="M327.457 435.79H320.246V442.784H327.457V435.79Z" fill="#373C52"/>
<path d="M341.887 435.789H334.676V442.783H341.887V435.789Z" fill="#373C52"/>
<path d="M356.312 435.789H349.102V442.783H356.312V435.789Z" fill="#373C52"/>
<path d="M370.734 435.789H363.523V442.783H370.734V435.789Z" fill="#373C52"/>
<path d="M407.228 435.79H400.018V442.784H407.228V435.79Z" fill="#373C52"/>
<path d="M421.65 435.789H414.439V442.783H421.65V435.789Z" fill="#373C52"/>
<path d="M428.865 435.79H421.654V442.784H428.865V435.79Z" fill="#373C52"/>
<path d="M443.723 435.789H436.082V442.783H443.723V435.789Z" fill="#373C52"/>
<path d="M291.394 435.79H284.184V442.784H291.394V435.79Z" fill="#373C52"/>
<path d="M327.457 428.796H320.246V435.79H327.457V428.796Z" fill="#373C52"/>
<path d="M341.887 428.796H334.676V435.79H341.887V428.796Z" fill="#373C52"/>
<path d="M349.096 428.796H341.885V435.79H349.096V428.796Z" fill="#373C52"/>
<path d="M356.312 428.796H349.102V435.79H356.312V428.796Z" fill="#373C52"/>
<path d="M370.734 428.796H363.523V435.79H370.734V428.796Z" fill="#373C52"/>
<path d="M377.949 428.796H370.738V435.79H377.949V428.796Z" fill="#373C52"/>
<path d="M392.801 428.796H385.59V435.79H392.801V428.796Z" fill="#373C52"/>
<path d="M407.228 428.796H400.018V435.79H407.228V428.796Z" fill="#373C52"/>
<path d="M443.723 428.796H436.082V435.79H443.723V428.796Z" fill="#373C52"/>
<path d="M291.394 428.796H284.184V435.79H291.394V428.796Z" fill="#373C52"/>
<path d="M298.609 421.796H291.398V428.79H298.609V421.796Z" fill="#373C52"/>
<path d="M305.822 421.796H298.611V428.79H305.822V421.796Z" fill="#373C52"/>
<path d="M313.031 421.796H305.82V428.79H313.031V421.796Z" fill="#373C52"/>
<path d="M320.248 421.796H313.037V428.79H320.248V421.796Z" fill="#373C52"/>
<path d="M327.457 421.796H320.246V428.79H327.457V421.796Z" fill="#373C52"/>
<path d="M341.887 421.796H334.676V428.79H341.887V421.796Z" fill="#373C52"/>
<path d="M356.312 421.796H349.102V428.79H356.312V421.796Z" fill="#373C52"/>
<path d="M363.523 421.796H356.312V428.79H363.523V421.796Z" fill="#373C52"/>
<path d="M377.949 421.796H370.738V428.79H377.949V421.796Z" fill="#373C52"/>
<path d="M407.228 421.796H400.018V428.79H407.228V421.796Z" fill="#373C52"/>
<path d="M414.439 421.796H407.229V428.79H414.439V421.796Z" fill="#373C52"/>
<path d="M421.65 421.796H414.439V428.79H421.65V421.796Z" fill="#373C52"/>
<path d="M428.865 421.796H421.654V428.79H428.865V421.796Z" fill="#373C52"/>
<path d="M436.076 421.796H428.865V428.79H436.076V421.796Z" fill="#373C52"/>
<path d="M443.723 421.796H436.082V428.79H443.723V421.796Z" fill="#373C52"/>
<path d="M291.394 421.796H284.184V428.79H291.394V421.796Z" fill="#373C52"/>
<path d="M363.523 414.802H356.312V421.796H363.523V414.802Z" fill="#373C52"/>
<path d="M370.734 414.802H363.523V421.796H370.734V414.802Z" fill="#373C52"/>
<path d="M377.949 414.802H370.738V421.796H377.949V414.802Z" fill="#373C52"/>
<path d="M392.801 414.802H385.59V421.796H392.801V414.802Z" fill="#373C52"/>
<path d="M298.609 407.808H291.398V414.802H298.609V407.808Z" fill="#373C52"/>
<path d="M305.822 407.808H298.611V414.802H305.822V407.808Z" fill="#373C52"/>
<path d="M313.031 407.808H305.82V414.802H313.031V407.808Z" fill="#373C52"/>
<path d="M320.248 407.808H313.037V414.802H320.248V407.808Z" fill="#373C52"/>
<path d="M341.887 407.808H334.676V414.802H341.887V407.808Z" fill="#373C52"/>
<path d="M349.096 407.808H341.885V414.802H349.096V407.808Z" fill="#373C52"/>
<path d="M356.312 407.808H349.102V414.802H356.312V407.808Z" fill="#373C52"/>
<path d="M370.734 407.808H363.523V414.802H370.734V407.808Z" fill="#373C52"/>
<path d="M377.949 407.808H370.738V414.802H377.949V407.808Z" fill="#373C52"/>
<path d="M385.59 407.808H377.949V414.802H385.59V407.808Z" fill="#373C52"/>
<path d="M392.801 407.808H385.59V414.802H392.801V407.808Z" fill="#373C52"/>
<path d="M400.014 407.808H392.803V414.802H400.014V407.808Z" fill="#373C52"/>
<path d="M407.228 407.808H400.018V414.802H407.228V407.808Z" fill="#373C52"/>
<path d="M414.439 407.808H407.229V414.802H414.439V407.808Z" fill="#373C52"/>
<path d="M421.65 407.808H414.439V414.802H421.65V407.808Z" fill="#373C52"/>
<path d="M436.076 407.808H428.865V414.802H436.076V407.808Z" fill="#373C52"/>
<path d="M443.723 407.808H436.082V414.802H443.723V407.808Z" fill="#373C52"/>
<path d="M305.822 400.808H298.611V407.802H305.822V400.808Z" fill="#373C52"/>
<path d="M313.031 400.808H305.82V407.802H313.031V400.808Z" fill="#373C52"/>
<path d="M334.674 400.808H327.463V407.802H334.674V400.808Z" fill="#373C52"/>
<path d="M341.887 400.808H334.676V407.802H341.887V400.808Z" fill="#373C52"/>
<path d="M356.312 400.808H349.102V407.802H356.312V400.808Z" fill="#373C52"/>
<path d="M377.949 400.808H370.738V407.802H377.949V400.808Z" fill="#373C52"/>
<path d="M392.801 400.808H385.59V407.802H392.801V400.808Z" fill="#373C52"/>
<path d="M400.014 400.808H392.803V407.802H400.014V400.808Z" fill="#373C52"/>
<path d="M414.439 400.808H407.229V407.802H414.439V400.808Z" fill="#373C52"/>
<path d="M421.65 400.808H414.439V407.802H421.65V400.808Z" fill="#373C52"/>
<path d="M298.609 393.815H291.398V400.809H298.609V393.815Z" fill="#373C52"/>
<path d="M313.031 393.815H305.82V400.809H313.031V393.815Z" fill="#373C52"/>
<path d="M320.248 393.815H313.037V400.809H320.248V393.815Z" fill="#373C52"/>
<path d="M327.457 393.814H320.246V400.808H327.457V393.814Z" fill="#373C52"/>
<path d="M334.674 393.815H327.463V400.809H334.674V393.815Z" fill="#373C52"/>
<path d="M349.096 393.814H341.885V400.808H349.096V393.814Z" fill="#373C52"/>
<path d="M356.312 393.815H349.102V400.809H356.312V393.815Z" fill="#373C52"/>
<path d="M363.523 393.815H356.312V400.809H363.523V393.815Z" fill="#373C52"/>
<path d="M370.734 393.815H363.523V400.809H370.734V393.815Z" fill="#373C52"/>
<path d="M377.949 393.815H370.738V400.809H377.949V393.815Z" fill="#373C52"/>
<path d="M385.59 393.814H377.949V400.808H385.59V393.814Z" fill="#373C52"/>
<path d="M421.65 393.815H414.439V400.809H421.65V393.815Z" fill="#373C52"/>
<path d="M428.865 393.814H421.654V400.808H428.865V393.814Z" fill="#373C52"/>
<path d="M443.723 393.815H436.082V400.809H443.723V393.815Z" fill="#373C52"/>
<path d="M291.394 393.814H284.184V400.808H291.394V393.814Z" fill="#373C52"/>
<path d="M298.609 386.82H291.398V393.815H298.609V386.82Z" fill="#373C52"/>
<path d="M305.822 386.82H298.611V393.815H305.822V386.82Z" fill="#373C52"/>
<path d="M313.031 386.82H305.82V393.815H313.031V386.82Z" fill="#373C52"/>
<path d="M341.887 386.82H334.676V393.815H341.887V386.82Z" fill="#373C52"/>
<path d="M349.096 386.82H341.885V393.814H349.096V386.82Z" fill="#373C52"/>
<path d="M377.949 386.82H370.738V393.815H377.949V386.82Z" fill="#373C52"/>
<path d="M400.014 386.82H392.803V393.815H400.014V386.82Z" fill="#373C52"/>
<path d="M407.228 386.82H400.018V393.814H407.228V386.82Z" fill="#373C52"/>
<path d="M421.65 386.82H414.439V393.815H421.65V386.82Z" fill="#373C52"/>
<path d="M428.865 386.82H421.654V393.814H428.865V386.82Z" fill="#373C52"/>
<path d="M436.076 386.82H428.865V393.815H436.076V386.82Z" fill="#373C52"/>
<path d="M443.723 386.82H436.082V393.815H443.723V386.82Z" fill="#373C52"/>
<path d="M291.394 386.82H284.184V393.814H291.394V386.82Z" fill="#373C52"/>
<path d="M313.031 379.821H305.82V386.815H313.031V379.821Z" fill="#373C52"/>
<path d="M320.248 379.821H313.037V386.815H320.248V379.821Z" fill="#373C52"/>
<path d="M327.457 379.821H320.246V386.815H327.457V379.821Z" fill="#373C52"/>
<path d="M334.674 379.821H327.463V386.815H334.674V379.821Z" fill="#373C52"/>
<path d="M341.887 379.821H334.676V386.815H341.887V379.821Z" fill="#373C52"/>
<path d="M349.096 379.821H341.885V386.815H349.096V379.821Z" fill="#373C52"/>
<path d="M370.734 379.821H363.523V386.815H370.734V379.821Z" fill="#373C52"/>
<path d="M392.801 379.821H385.59V386.815H392.801V379.821Z" fill="#373C52"/>
<path d="M400.014 379.821H392.803V386.815H400.014V379.821Z" fill="#373C52"/>
<path d="M428.865 379.821H421.654V386.815H428.865V379.821Z" fill="#373C52"/>
<path d="M291.394 379.821H284.184V386.815H291.394V379.821Z" fill="#373C52"/>
<path d="M298.609 372.826H291.398V379.821H298.609V372.826Z" fill="#373C52"/>
<path d="M305.822 372.826H298.611V379.821H305.822V372.826Z" fill="#373C52"/>
<path d="M313.031 372.826H305.82V379.821H313.031V372.826Z" fill="#373C52"/>
<path d="M320.248 372.826H313.037V379.821H320.248V372.826Z" fill="#373C52"/>
<path d="M334.674 372.826H327.463V379.821H334.674V372.826Z" fill="#373C52"/>
<path d="M349.096 372.826H341.885V379.821H349.096V372.826Z" fill="#373C52"/>
<path d="M356.312 372.826H349.102V379.821H356.312V372.826Z" fill="#373C52"/>
<path d="M370.734 372.826H363.523V379.821H370.734V372.826Z" fill="#373C52"/>
<path d="M377.949 372.826H370.738V379.821H377.949V372.826Z" fill="#373C52"/>
<path d="M385.59 372.826H377.949V379.821H385.59V372.826Z" fill="#373C52"/>
<path d="M392.801 372.826H385.59V379.821H392.801V372.826Z" fill="#373C52"/>
<path d="M407.228 372.826H400.018V379.821H407.228V372.826Z" fill="#373C52"/>
<path d="M414.439 372.826H407.229V379.821H414.439V372.826Z" fill="#373C52"/>
<path d="M421.65 372.826H414.439V379.821H421.65V372.826Z" fill="#373C52"/>
<path d="M428.865 372.826H421.654V379.821H428.865V372.826Z" fill="#373C52"/>
<path d="M443.723 372.826H436.082V379.821H443.723V372.826Z" fill="#373C52"/>
<path d="M298.609 365.827H291.398V372.821H298.609V365.827Z" fill="#373C52"/>
<path d="M313.031 365.827H305.82V372.821H313.031V365.827Z" fill="#373C52"/>
<path d="M327.457 365.827H320.246V372.821H327.457V365.827Z" fill="#373C52"/>
<path d="M334.674 365.827H327.463V372.821H334.674V365.827Z" fill="#373C52"/>
<path d="M356.312 365.827H349.102V372.821H356.312V365.827Z" fill="#373C52"/>
<path d="M363.523 365.827H356.312V372.821H363.523V365.827Z" fill="#373C52"/>
<path d="M370.734 365.827H363.523V372.821H370.734V365.827Z" fill="#373C52"/>
<path d="M385.59 365.827H377.949V372.821H385.59V365.827Z" fill="#373C52"/>
<path d="M392.801 365.827H385.59V372.821H392.801V365.827Z" fill="#373C52"/>
<path d="M400.014 365.827H392.803V372.821H400.014V365.827Z" fill="#373C52"/>
<path d="M414.439 365.827H407.229V372.821H414.439V365.827Z" fill="#373C52"/>
<path d="M428.865 365.827H421.654V372.821H428.865V365.827Z" fill="#373C52"/>
<path d="M436.076 365.827H428.865V372.821H436.076V365.827Z" fill="#373C52"/>
<path d="M443.723 365.827H436.082V372.821H443.723V365.827Z" fill="#373C52"/>
<path d="M291.394 365.827H284.184V372.821H291.394V365.827Z" fill="#373C52"/>
<path d="M298.609 358.833H291.398V365.827H298.609V358.833Z" fill="#373C52"/>
<path d="M327.457 358.833H320.246V365.827H327.457V358.833Z" fill="#373C52"/>
<path d="M334.674 358.833H327.463V365.827H334.674V358.833Z" fill="#373C52"/>
<path d="M349.096 358.833H341.885V365.827H349.096V358.833Z" fill="#373C52"/>
<path d="M356.312 358.833H349.102V365.827H356.312V358.833Z" fill="#373C52"/>
<path d="M370.734 358.833H363.523V365.827H370.734V358.833Z" fill="#373C52"/>
<path d="M377.949 358.833H370.738V365.827H377.949V358.833Z" fill="#373C52"/>
<path d="M392.801 358.833H385.59V365.827H392.801V358.833Z" fill="#373C52"/>
<path d="M400.014 358.833H392.803V365.827H400.014V358.833Z" fill="#373C52"/>
<path d="M407.228 358.833H400.018V365.827H407.228V358.833Z" fill="#373C52"/>
<path d="M414.439 358.833H407.229V365.827H414.439V358.833Z" fill="#373C52"/>
<path d="M421.65 358.833H414.439V365.827H421.65V358.833Z" fill="#373C52"/>
<path d="M428.865 358.833H421.654V365.827H428.865V358.833Z" fill="#373C52"/>
<path d="M291.394 358.833H284.184V365.827H291.394V358.833Z" fill="#373C52"/>
<path d="M349.096 351.839H341.885V358.833H349.096V351.839Z" fill="#373C52"/>
<path d="M363.523 351.839H356.312V358.833H363.523V351.839Z" fill="#373C52"/>
<path d="M370.734 351.839H363.523V358.833H370.734V351.839Z" fill="#373C52"/>
<path d="M385.59 351.839H377.949V358.833H385.59V351.839Z" fill="#373C52"/>
<path d="M392.801 351.839H385.59V358.833H392.801V351.839Z" fill="#373C52"/>
<path d="M400.014 351.839H392.803V358.833H400.014V351.839Z" fill="#373C52"/>
<path d="M298.609 344.839H291.398V351.833H298.609V344.839Z" fill="#373C52"/>
<path d="M305.822 344.839H298.611V351.833H305.822V344.839Z" fill="#373C52"/>
<path d="M313.031 344.839H305.82V351.833H313.031V344.839Z" fill="#373C52"/>
<path d="M320.248 344.839H313.037V351.833H320.248V344.839Z" fill="#373C52"/>
<path d="M327.457 344.839H320.246V351.833H327.457V344.839Z" fill="#373C52"/>
<path d="M341.887 344.839H334.676V351.833H341.887V344.839Z" fill="#373C52"/>
<path d="M349.096 344.839H341.885V351.833H349.096V344.839Z" fill="#373C52"/>
<path d="M370.734 344.839H363.523V351.833H370.734V344.839Z" fill="#373C52"/>
<path d="M400.014 344.839H392.803V351.833H400.014V344.839Z" fill="#373C52"/>
<path d="M407.228 344.839H400.018V351.833H407.228V344.839Z" fill="#373C52"/>
<path d="M421.65 344.839H414.439V351.833H421.65V344.839Z" fill="#373C52"/>
<path d="M443.723 344.839H436.082V351.833H443.723V344.839Z" fill="#373C52"/>
<path d="M291.394 344.839H284.184V351.833H291.394V344.839Z" fill="#373C52"/>
<path d="M327.457 337.845H320.246V344.839H327.457V337.845Z" fill="#373C52"/>
<path d="M385.59 337.845H377.949V344.839H385.59V337.845Z" fill="#373C52"/>
<path d="M392.801 337.845H385.59V344.839H392.801V337.845Z" fill="#373C52"/>
<path d="M407.228 337.845H400.018V344.839H407.228V337.845Z" fill="#373C52"/>
<path d="M414.439 337.845H407.229V344.839H414.439V337.845Z" fill="#373C52"/>
<path d="M428.865 337.845H421.654V344.839H428.865V337.845Z" fill="#373C52"/>
<path d="M436.076 337.845H428.865V344.839H436.076V337.845Z" fill="#373C52"/>
<path d="M443.723 337.845H436.082V344.839H443.723V337.845Z" fill="#373C52"/>
<path d="M291.394 337.845H284.184V344.839H291.394V337.845Z" fill="#373C52"/>
<path d="M305.822 330.846H298.611V337.84H305.822V330.846Z" fill="#373C52"/>
<path d="M313.031 330.846H305.82V337.84H313.031V330.846Z" fill="#373C52"/>
<path d="M327.457 330.846H320.246V337.84H327.457V330.846Z" fill="#373C52"/>
<path d="M341.887 330.846H334.676V337.84H341.887V330.846Z" fill="#373C52"/>
<path d="M349.096 330.846H341.885V337.84H349.096V330.846Z" fill="#373C52"/>
<path d="M363.523 330.846H356.312V337.84H363.523V330.846Z" fill="#373C52"/>
<path d="M370.734 330.846H363.523V337.84H370.734V330.846Z" fill="#373C52"/>
<path d="M385.59 330.846H377.949V337.84H385.59V330.846Z" fill="#373C52"/>
<path d="M414.439 330.846H407.229V337.84H414.439V330.846Z" fill="#373C52"/>
<path d="M421.65 330.846H414.439V337.84H421.65V330.846Z" fill="#373C52"/>
<path d="M428.865 330.846H421.654V337.84H428.865V330.846Z" fill="#373C52"/>
<path d="M291.394 330.846H284.184V337.84H291.394V330.846Z" fill="#373C52"/>
<path d="M305.822 323.852H298.611V330.846H305.822V323.852Z" fill="#373C52"/>
<path d="M313.031 323.852H305.82V330.846H313.031V323.852Z" fill="#373C52"/>
<path d="M327.457 323.852H320.246V330.846H327.457V323.852Z" fill="#373C52"/>
<path d="M341.887 323.852H334.676V330.846H341.887V323.852Z" fill="#373C52"/>
<path d="M356.312 323.852H349.102V330.846H356.312V323.852Z" fill="#373C52"/>
<path d="M363.523 323.852H356.312V330.846H363.523V323.852Z" fill="#373C52"/>
<path d="M370.734 323.852H363.523V330.846H370.734V323.852Z" fill="#373C52"/>
<path d="M377.949 323.852H370.738V330.846H377.949V323.852Z" fill="#373C52"/>
<path d="M385.59 323.852H377.949V330.846H385.59V323.852Z" fill="#373C52"/>
<path d="M400.014 323.852H392.803V330.846H400.014V323.852Z" fill="#373C52"/>
<path d="M407.228 323.852H400.018V330.846H407.228V323.852Z" fill="#373C52"/>
<path d="M414.439 323.852H407.229V330.846H414.439V323.852Z" fill="#373C52"/>
<path d="M428.865 323.852H421.654V330.846H428.865V323.852Z" fill="#373C52"/>
<path d="M436.076 323.852H428.865V330.846H436.076V323.852Z" fill="#373C52"/>
<path d="M443.723 323.852H436.082V330.846H443.723V323.852Z" fill="#373C52"/>
<path d="M291.394 323.852H284.184V330.846H291.394V323.852Z" fill="#373C52"/>
<path d="M327.457 316.857H320.246V323.851H327.457V316.857Z" fill="#373C52"/>
<path d="M356.312 316.857H349.102V323.851H356.312V316.857Z" fill="#373C52"/>
<path d="M363.523 316.857H356.312V323.851H363.523V316.857Z" fill="#373C52"/>
<path d="M377.949 316.857H370.738V323.851H377.949V316.857Z" fill="#373C52"/>
<path d="M385.59 316.857H377.949V323.851H385.59V316.857Z" fill="#373C52"/>
<path d="M392.801 316.857H385.59V323.851H392.801V316.857Z" fill="#373C52"/>
<path d="M400.014 316.857H392.803V323.851H400.014V316.857Z" fill="#373C52"/>
<path d="M436.076 316.857H428.865V323.851H436.076V316.857Z" fill="#373C52"/>
<path d="M291.394 316.857H284.184V323.851H291.394V316.857Z" fill="#373C52"/>
<path d="M298.609 309.859H291.398V316.853H298.609V309.859Z" fill="#373C52"/>
<path d="M305.822 309.859H298.611V316.853H305.822V309.859Z" fill="#373C52"/>
<path d="M313.031 309.859H305.82V316.853H313.031V309.859Z" fill="#373C52"/>
<path d="M320.248 309.859H313.037V316.853H320.248V309.859Z" fill="#373C52"/>
<path d="M327.457 309.859H320.246V316.853H327.457V309.859Z" fill="#373C52"/>
<path d="M341.887 309.859H334.676V316.853H341.887V309.859Z" fill="#373C52"/>
<path d="M349.096 309.859H341.885V316.853H349.096V309.859Z" fill="#373C52"/>
<path d="M385.59 309.859H377.949V316.853H385.59V309.859Z" fill="#373C52"/>
<path d="M400.014 309.859H392.803V316.853H400.014V309.859Z" fill="#373C52"/>
<path d="M414.439 309.859H407.229V316.853H414.439V309.859Z" fill="#373C52"/>
<path d="M421.65 309.859H414.439V316.853H421.65V309.859Z" fill="#373C52"/>
<path d="M443.723 309.859H436.082V316.853H443.723V309.859Z" fill="#373C52"/>
<path d="M291.394 309.859H284.184V316.853H291.394V309.859Z" fill="#373C52"/>
<g opacity="0.8">
<path d="M260.076 323.636C258.659 323.636 257.512 322.523 257.512 321.148V287.217C257.512 285.842 258.659 284.73 260.076 284.73H295.371C296.789 284.73 297.936 285.842 297.936 287.217C297.936 288.593 296.789 289.705 295.371 289.705H262.641V321.148C262.641 322.523 261.494 323.636 260.076 323.636Z" fill="white"/>
<path d="M467.821 323.79C466.404 323.79 465.257 322.677 465.257 321.302V289.555H432.84C431.422 289.555 430.275 288.443 430.275 287.068C430.275 285.693 431.422 284.58 432.84 284.58H467.821C469.239 284.58 470.386 285.693 470.386 287.068V321.302C470.386 322.677 469.239 323.79 467.821 323.79Z" fill="white"/>
</g>
<g opacity="0.8">
<path d="M467.822 494.303H432.528C431.11 494.303 429.963 493.191 429.963 491.816C429.963 490.441 431.11 489.328 432.528 489.328H465.257V457.885C465.257 456.51 466.404 455.398 467.822 455.398C469.24 455.398 470.387 456.51 470.387 457.885V491.816C470.387 493.191 469.24 494.303 467.822 494.303Z" fill="white"/>
<path d="M295.058 494.457H260.076C258.659 494.457 257.512 493.345 257.512 491.97V457.735C257.512 456.36 258.659 455.248 260.076 455.248C261.494 455.248 262.641 456.36 262.641 457.735V489.482H295.058C296.475 489.482 297.622 490.594 297.622 491.97C297.622 493.345 296.475 494.457 295.058 494.457Z" fill="white"/>
</g>
<path d="M454.695 541.511V546.265C454.695 548.86 452.507 550.982 449.831 550.982H278.063C275.387 550.982 273.199 548.86 273.199 546.265V541.511C273.199 538.915 275.387 536.793 278.063 536.793H449.831C452.507 536.798 454.695 538.92 454.695 541.511Z" fill="white"/>
<path d="M400.012 536.798V550.987H278.061C275.385 550.987 273.197 548.865 273.197 546.27V541.511C273.197 538.915 275.385 536.793 278.061 536.793H400.012V536.798Z" fill="#7E37B5"/>
<path d="M374.601 536.798L361.108 550.987H335.865L349.358 536.798H374.601Z" fill="#D06BF4"/>
<path d="M400.014 536.798V550.987H376.613L390.106 536.798H400.014Z" fill="#D06BF4"/>
<path d="M333.953 536.798L320.461 550.987H295.213L308.711 536.798H333.953Z" fill="#D06BF4"/>
<path d="M293.305 536.798L279.813 550.987H277.965C275.289 550.987 273.102 548.865 273.102 546.269V541.51C273.102 538.915 275.289 536.793 277.965 536.793H293.305V536.798Z" fill="#D06BF4"/>
<path d="M345.334 528.698L346.295 527.591C347.166 528.322 348.031 528.734 349.157 528.734C350.139 528.734 350.766 528.296 350.766 527.601C350.766 526.972 350.405 526.633 348.716 526.241C346.784 525.798 345.695 525.247 345.695 523.599C345.695 522.09 346.991 521.044 348.791 521.044C350.113 521.044 351.164 521.436 352.083 522.152L351.228 523.321C350.41 522.729 349.592 522.414 348.764 522.414C347.83 522.414 347.288 522.878 347.288 523.486C347.288 524.166 347.702 524.464 349.438 524.866C351.355 525.319 352.354 525.984 352.354 527.467C352.354 529.115 351.021 530.094 349.115 530.094C347.734 530.109 346.423 529.64 345.334 528.698Z" fill="white"/>
<path d="M353.84 525.581C353.84 523.078 355.773 521.028 358.518 521.028C360.19 521.028 361.199 521.595 362.07 522.398L361.045 523.541C360.318 522.887 359.543 522.45 358.507 522.45C356.771 522.45 355.512 523.835 355.512 525.581C355.512 527.301 356.771 528.712 358.507 528.712C359.622 528.712 360.334 528.275 361.114 527.569L362.139 528.573C361.194 529.526 360.159 530.134 358.459 530.134C355.81 530.134 353.84 528.13 353.84 525.581Z" fill="white"/>
<path d="M367.019 521.116H368.5L372.493 529.979H370.81L369.892 527.858H365.601L364.667 529.979H363.031L367.019 521.116ZM369.302 526.488L367.736 522.97L366.18 526.488H369.302Z" fill="white"/>
<path d="M374.049 521.183H375.525L380.383 527.265V521.183H381.95V529.985H380.617L375.615 523.722V529.985H374.049V521.183Z" fill="white"/>
<path d="M500.038 459.322C508.407 456.953 517.858 459.672 523.763 465.894C538.37 481.283 527.602 493.144 534.913 503.919C539.331 510.429 543.043 521.827 529.354 528.568C523.025 531.684 504.175 547.98 500.314 548.366C461.197 552.265 460.496 513.771 473.68 502.616C492.212 486.933 475.284 466.326 500.038 459.322Z" fill="#412013"/>
<path d="M520.484 518.829C520.484 518.829 556.182 535.604 562.872 535.32C569.557 535.037 611.356 520.76 611.356 520.76L610.305 527.636C610.305 527.636 578.504 545.374 567.391 546.383C556.447 547.372 519.018 536.855 515.408 534.635C511.792 532.41 509.981 521.074 520.484 518.829Z" fill="#DA9F84"/>
<path d="M524.412 534.651C521.178 536.83 517.121 538.622 512.029 539.765C492.94 544.045 485.624 528.393 482.873 517.65C485.475 516.202 487.928 515.888 489.34 515.723C490.721 515.564 492.171 515.461 493.376 515.404C495.521 513.813 498.712 507.292 499.418 497.172L500.316 497.404L515.364 501.4C515.364 501.4 514.674 506.041 514.339 510.424C514.079 513.854 514.036 517.135 514.706 517.938C515.879 518.185 516.585 518.345 516.585 518.345C516.585 518.345 516.585 518.35 516.591 518.36C516.792 518.675 521.157 525.638 524.412 534.651Z" fill="#E2B097"/>
<path d="M515.363 501.4C515.363 501.4 514.673 506.036 514.338 510.424C505.816 509.595 501.86 501.725 500.32 497.409L515.363 501.4Z" fill="#DA9F84"/>
<path d="M517.907 505.758C517.907 505.758 497.677 504.676 498.563 492.465C499.45 480.253 497.438 471.889 510.394 472.064C523.35 472.239 525.516 477.07 526.244 481.216C526.971 485.362 523.191 505.722 517.907 505.758Z" fill="#E2B097"/>
<path d="M526.149 474.381C523.297 470.493 520.876 471.131 519.474 472.146C508.865 465.486 501.102 473.701 501.102 473.701C499.1 482.369 492.219 486.933 492.219 486.933C492.219 486.933 495.803 489.714 504.389 487.87C515.37 485.511 519.14 476.271 519.649 474.855C520.802 476.014 522.294 476.755 523.435 479.269C524.795 482.261 525.644 483.992 525.671 488.905C525.671 488.905 530.423 480.216 526.149 474.381Z" fill="#412013"/>
<path d="M477.113 574.55C475.287 565.491 469.329 529.294 475.287 517.649C477.427 513.467 485.821 513.086 495.034 513.457C497.901 515.249 508.824 522.032 513.311 521.187C513.358 521.177 513.443 521.157 513.56 521.131C515.673 520.621 516.47 519.179 514.707 517.938C514.702 517.932 518.753 518.216 524.419 519.251C527.621 519.833 536.408 525.066 536.408 525.066C536.408 525.066 532.426 531.076 526.017 533.708C527.106 543.164 525.486 547.336 515.371 569.178C506.822 587.642 516.523 604.263 516.523 604.263C516.523 604.263 466.218 643.498 465.936 623.52C465.718 608.47 479.45 586.128 477.113 574.55Z" fill="#D06BF4"/>
<path d="M519.005 646.913C521.739 646.614 524.203 645.162 525.732 642.942C525.977 642.592 526.237 642.211 526.508 641.804C532.237 633.394 534.462 607.647 547.343 580.211C550.481 573.531 561.744 572.331 564.813 564.781C564.813 564.781 572.369 540.311 550.343 539.585C528.318 538.864 491.356 607.673 490.772 614.893C490.215 621.888 476.218 651.6 519.005 646.913Z" fill="#5A47AA"/>
<path d="M606.549 646.774H575.2C575.2 646.774 574.026 641.793 576.087 638.404C577.908 635.407 577.212 633.697 575.858 631.22C577.276 631.797 579.113 632.327 581.136 632.209C582.697 632.121 584.349 631.415 585.798 630.576C587.147 632.106 592.924 638.626 594.73 639.919C596.785 641.386 605.917 640.866 606.549 646.774Z" fill="#7E37B5"/>
<path d="M565.537 546.661C567.427 560.387 574.798 603.712 587.801 624.849C591.996 631.663 577.24 635.484 577.16 635.464C575.18 634.964 571.882 631.9 570.364 630.571C559.808 621.342 538.377 595.209 538.377 574.262C538.377 564.049 538.192 544.54 545.848 539.58C550.563 536.531 564.788 541.212 565.537 546.661Z" fill="#5A47AA"/>
<path d="M478.344 534.63C478.344 534.63 484.705 547.181 514.403 556.05C544.101 564.919 527.115 542.634 527.115 542.634L485.597 528.563L478.344 534.63Z" fill="#7E37B5"/>
<path d="M503.698 646.949C503.698 646.949 505.286 644.637 506.295 641.206C507.978 635.469 508.578 631.297 511.817 622.361C515.215 612.982 519.251 601.441 524.29 589.435C525.845 585.727 527.497 581.977 529.254 578.233C532.392 571.553 541.021 572.475 544.095 564.925C544.095 564.925 556.074 538.75 534.049 538.029C512.024 537.308 470.172 608.043 467.766 614.898C465.138 622.397 455.676 654.134 503.698 646.949Z" fill="#7962D4"/>
<path d="M583.538 646.774H552.188C552.188 646.774 551.015 641.793 553.075 638.404C554.896 635.407 554.201 633.697 552.852 631.22C554.27 631.797 556.107 632.327 558.13 632.209C559.691 632.121 561.342 631.415 562.792 630.576C564.141 632.106 569.918 638.626 571.723 639.919C573.773 641.386 582.906 640.866 583.538 646.774Z" fill="#D06BF4"/>
<g opacity="0.5">
<path d="M511.817 622.362C515.215 612.983 519.251 601.441 524.29 589.435C522.973 580.34 520.132 572.382 515.358 569.174C515.358 569.169 503.778 603.985 511.817 622.362Z" fill="#5A47AA"/>
</g>
<path d="M547.24 545.693C549.13 559.418 551.785 603.717 564.789 624.854C568.984 631.668 554.228 635.489 554.148 635.469C552.168 634.969 548.87 631.905 547.352 630.576C536.796 621.346 515.365 595.213 515.365 574.267C515.365 564.054 527.727 545.363 535.383 540.403C540.098 537.349 546.486 540.239 547.24 545.693Z" fill="#7962D4"/>
<path d="M615.098 503.068L582.995 499.762C582.061 499.664 581.174 500.194 580.839 501.044L569.354 530.319C568.85 531.601 569.795 532.987 571.207 533.043L603.061 534.29C603.926 534.326 604.723 533.831 605.057 533.059L616.792 505.844C617.323 504.603 616.474 503.213 615.098 503.068Z" fill="#D87131"/>
<path d="M617.886 503.352L585.782 500.045C584.848 499.947 583.961 500.478 583.626 501.327L572.141 530.602C571.637 531.884 572.582 533.27 573.994 533.327L605.848 534.573C606.714 534.609 607.51 534.115 607.845 533.342L619.579 506.128C620.11 504.886 619.266 503.496 617.886 503.352Z" fill="#E77D3B"/>
<path d="M600.089 517.02C600.482 515.975 599.925 515.13 598.847 515.13C597.769 515.13 596.579 515.98 596.186 517.02C595.794 518.066 596.351 518.91 597.429 518.91C598.507 518.91 599.702 518.066 600.089 517.02Z" fill="#EBF3FA"/>
<path d="M616.925 506.117C617.117 505.602 616.846 505.19 616.315 505.19C615.784 505.19 615.2 505.607 615.009 506.117C614.817 506.632 615.088 507.049 615.619 507.049C616.145 507.049 616.734 506.632 616.925 506.117Z" fill="#EBF3FA"/>
<path d="M482.873 517.649C482.873 517.649 527.37 533.543 534.055 533.219C538.377 533.008 574.293 520.76 574.293 520.76L577.516 526.678C577.516 526.678 542.556 548.474 532.945 548.366C513.973 548.155 481.955 536.855 478.339 534.635C474.728 532.41 472.376 519.895 482.873 517.649Z" fill="#E2B097"/>
<path d="M574.293 520.76C574.293 520.76 577.516 515.95 580.728 515.805C583.941 515.666 589.484 517.927 591.38 518.283C593.276 518.638 598.676 520.333 597.072 522.882C595.469 525.431 588.024 525.998 584.812 525.431C581.599 524.865 577.516 526.678 577.516 526.678L574.293 520.76Z" fill="#E2B097"/>
<path d="M579.852 515.955C579.852 515.955 584.96 513.684 586.42 513.261C587.88 512.839 587.588 513.267 587.147 514.611C586.712 515.95 584.083 517.232 584.083 517.655C584.083 518.077 579.852 515.955 579.852 515.955Z" fill="#E2B097"/>
<path d="M614.578 518.211C614.578 518.211 612.54 511.701 610.304 513.746C607.978 515.873 609.391 518.005 609.672 520.719C610.219 525.911 611.297 525.684 611.982 525.453C612.672 525.216 615.338 520.822 614.578 518.211Z" fill="#E2B097"/>
<path d="M614.701 519.2C614.701 519.2 615.731 524.742 610.305 527.631L611.908 523.82L614.701 519.2Z" fill="#E2B097"/>
<path d="M521.694 498.732C521.694 498.732 519.783 498.001 514.398 498.423C514.398 498.423 514.685 500.457 518.652 500.658C520.903 500.771 521.694 498.732 521.694 498.732Z" fill="white"/>
<path d="M505.795 525.488C505.795 525.488 501.818 537.71 488.151 540.486C488.151 540.486 465.584 533.744 476.82 518.828C476.82 518.828 487.928 510.82 505.795 525.488Z" fill="#D06BF4"/>
<path d="M614.7 519.987C614.7 519.987 615.64 516.938 615.693 516.408C615.746 515.877 615.682 515.615 615.199 515.986C614.716 516.356 613.978 517.335 614.195 518.257C614.413 519.184 614.7 519.987 614.7 519.987Z" fill="#E2B097"/>
<path d="M321.51 245.763C320.602 246.772 320.485 247.9 320.936 249.105C320.936 249.11 320.941 249.115 320.947 249.121C321.78 251.351 324.525 253.833 327.711 256.321C328.12 256.64 328.481 256.928 328.795 257.196C328.88 257.268 328.959 257.335 329.039 257.407C329.103 257.464 329.166 257.521 329.225 257.572C332.198 260.23 331.078 260.843 336.42 266.235C342.51 272.385 346.705 272.493 347.899 271.931C348.908 271.452 346.859 268.192 344.586 264.53C344.475 264.355 344.368 264.175 344.257 263.995C343.954 263.505 343.652 263.011 343.354 262.522C340.689 258.113 341.374 256.043 342.005 249.476C342.521 244.14 350.56 219.676 350.56 219.676L338.883 217.724C338.883 217.724 335.368 237.208 331.492 240.205C329.421 241.807 327.101 241.823 325.11 243.012C324.966 243.095 324.828 243.177 324.695 243.265C323.575 244.001 322.423 244.748 321.51 245.763Z" fill="#FFC49C"/>
<path d="M321.51 245.762C320.602 246.772 320.485 247.9 320.936 249.105C320.936 249.11 320.941 249.115 320.947 249.121C321.966 251.345 324.642 253.823 327.722 256.295C328.126 256.619 328.481 256.918 328.795 257.196C328.88 257.268 328.959 257.335 329.039 257.407C329.103 257.464 329.166 257.521 329.225 257.572C332.198 260.23 331.078 260.843 336.42 266.235C342.51 272.385 346.705 272.493 347.899 271.931C348.908 271.452 346.859 268.192 344.586 264.53C343.402 264.108 337.89 261.94 333.727 256.769C330.058 252.226 327.61 246.396 325.115 243.017C324.972 243.1 324.833 243.182 324.701 243.27C323.575 244.001 322.423 244.748 321.51 245.762Z" fill="#E77D3B"/>
<path d="M415.649 238.691C416.371 242.188 421.505 241.601 427.245 240.241C432.985 238.882 431.621 240.499 439.787 239.623C447.954 238.748 450.428 235.791 450.678 234.612C450.901 233.566 446.865 233.196 442.538 232.717C441.996 232.66 441.449 232.593 440.902 232.526C436.017 231.929 432.433 228.874 427.994 226.361C423.789 223.982 417.512 214.283 417.512 214.283L406.309 215.144C406.309 215.144 412.187 223.801 414.459 227.566C415.797 229.781 415.723 232.711 415.558 234.972C415.479 236.203 415.394 237.46 415.649 238.691Z" fill="#FFC49C"/>
<path d="M427.243 240.241C432.983 238.882 431.618 240.499 439.784 239.623C447.951 238.748 450.425 235.791 450.675 234.612C450.898 233.566 446.862 233.196 442.535 232.717L442.492 232.799C442.492 232.799 437.597 236.167 430.795 236.327C425.251 236.456 419.384 234.916 415.556 234.978C415.471 236.208 415.386 237.465 415.641 238.696C416.368 242.183 421.503 241.601 427.243 240.241Z" fill="#E77D3B"/>
<path d="M372.722 169.217L362.251 196.55L348.578 232.237C348.578 232.237 344.866 232.582 341.314 231.593C338.043 230.677 334.289 228.276 334.289 228.276C334.289 228.276 338.086 189.958 345.169 167.966C346.985 162.321 349.019 157.753 351.259 155.183C362.24 142.595 372.722 169.217 372.722 169.217Z" fill="#7E37B5"/>
<path d="M362.075 125.811C355.538 123.766 337.48 126.172 318.794 129.627C317.106 129.942 315.396 129.2 314.509 127.773L311.881 123.566L269.429 120.352C269.429 120.352 258.469 144.502 263.131 164.593C264.273 169.512 270.48 175.888 279.964 176.465C306.555 178.072 324.492 169.11 352.098 159.7C356.898 158.063 359.085 168.415 364.077 178.576C369.068 188.743 410.989 223.596 410.989 223.596C410.989 223.596 417.43 223.657 420.096 222.689C422.958 221.649 424.004 220.294 424.004 220.294C424.004 220.294 377.542 130.652 362.075 125.811Z" fill="#D06BF4"/>
<path d="M310.209 3.66482C304.772 0.893932 296.494 0.517956 295.15 0.342844C279.062 -1.75335 269.382 20.9185 268.814 27.7891C267.762 40.4538 260.86 42.3852 251.137 50.3167C231.645 66.221 237.363 84.6953 248.02 91.5607C254.413 95.681 265.686 91.5607 265.686 91.5607C265.845 91.6689 296.515 74.9303 311.632 66.8597C334.289 63.7334 324.068 10.726 310.209 3.66482Z" fill="#412013"/>
<path d="M298.956 59.9893C299.025 60.0305 291.517 62.5181 286.5 60.3601C281.779 58.336 278.2 50.801 278.275 50.801C280.42 50.7032 282.777 48.8851 284.593 36.9363L285.507 37.2556L300.884 42.6223C300.884 42.6223 299.769 47.4069 299.052 51.965C298.441 55.7814 298.117 59.4485 298.956 59.9893Z" fill="#E2B097"/>
<path d="M300.885 42.6165C300.885 42.6165 300.115 46.0106 299.266 50.6562C290.435 49.1163 286.756 41.88 285.508 37.2499L300.885 42.6165Z" fill="#DA9F84"/>
<path d="M303.176 47.3651C303.176 47.3651 282.138 44.6251 284.098 31.945C286.057 19.2648 284.66 10.3701 298.174 11.5856C311.688 12.796 313.546 18.0133 313.95 22.4014C314.364 26.7895 308.698 47.7514 303.176 47.3651Z" fill="#E2B097"/>
<path d="M313.188 15.4484C313.188 15.4484 299.722 26.7071 290.562 27.6135C281.403 28.52 277.936 25.6667 277.936 25.6667C277.936 25.6667 283.336 21.3198 286.585 14.2999C287.541 12.2294 289.564 10.8131 291.895 10.6174C298.432 10.0766 310.83 9.8242 313.188 15.4484Z" fill="#412013"/>
<path d="M304.771 14.4443C304.771 14.4443 309.274 18.6676 310.697 21.8042C312.067 24.8274 312.476 32.0585 311.388 34.9324C311.388 34.9324 318.407 21.696 314.435 15.2632C310.214 8.43899 304.771 14.4443 304.771 14.4443Z" fill="#412013"/>
<path d="M316.673 90.0466C318.287 126.877 315.733 124.848 311.841 126.64C310.498 127.258 307.561 128.144 303.409 128.412C290.352 129.251 267.398 127.165 266.527 124.827C263.516 116.731 265.64 114.212 263.128 101.815C262.868 100.497 262.544 99.0701 262.162 97.5147C260.065 89.0011 258.026 86.1015 265.46 72.4221C272.198 60.0304 279.201 49.9717 279.833 50.3323C297.616 60.5712 299.05 51.9649 299.05 51.9649C299.05 51.9649 315.791 69.9139 316.673 90.0466Z" fill="#7962D4"/>
<path d="M362.251 196.545L348.578 232.232C348.578 232.232 344.866 232.577 341.314 231.588C338.043 230.672 334.289 228.271 334.289 228.271C334.289 228.271 338.086 189.953 345.169 167.961L362.251 196.545Z" fill="#D06BF4"/>
<path d="M299.055 51.9595C299.055 51.9595 317.352 54.9673 319.503 62.6104C321.653 70.2535 334.296 115.18 334.296 115.18C334.296 115.18 324.993 116.802 320.698 112.631C316.402 108.464 305.745 73.9566 305.745 73.9566L299.055 51.9595Z" fill="#7962D4"/>
<path d="M303.407 128.411C290.35 129.251 267.396 127.165 266.525 124.827C263.515 116.73 265.639 114.212 263.127 101.815L269.424 84.6127C269.424 84.6127 268.384 103.767 274.209 108.804C280.028 113.841 298.055 118.528 300.885 122.741C302.25 124.755 303.147 126.784 303.407 128.411Z" fill="#5A47AA"/>
<path d="M288.449 120.351C288.449 120.351 301.331 117.57 303.407 118.677C305.483 119.784 310.565 123.822 311.202 125.228C311.839 126.634 306.577 124.162 304.862 123.714C303.752 123.426 300.837 124.409 299.388 124.878C293.308 126.845 289.58 125.831 289.58 125.831L288.449 120.351Z" fill="#E2B097"/>
<path d="M279.822 50.3167C279.822 50.3167 262.528 51.3519 256.538 59.4482C248.111 70.8511 231.391 119.45 240.97 125.929C251.759 133.227 290.086 127.84 290.086 127.84C290.086 127.84 291.36 122.056 289.586 119.259C287.813 116.463 258.975 111.946 257.648 110.653C256.315 109.36 274.283 85.4833 274.283 81.6102C274.283 77.7371 279.822 50.3167 279.822 50.3167Z" fill="#7962D4"/>
<path d="M304.035 122.159C304.035 122.159 306.733 125.538 307.619 125.94C308.506 126.341 309.074 126.243 309.074 126.243L307.258 123.066L304.035 122.159Z" fill="#E2B097"/>
<path d="M303.408 118.677L311.256 122.375C311.256 122.375 310.922 122.906 309.955 122.865C308.989 122.824 306.552 121.958 306.552 121.958L303.408 118.677Z" fill="#E2B097"/>
<path d="M307.619 131.11H369.691L388.366 86.0706H326.384L307.619 131.11Z" fill="#373C52"/>
<path d="M370.417 129.354H288.449V131.11H369.69L370.417 129.354Z" fill="#373C52"/>
<path d="M354.022 108.592C354.489 107.011 353.544 105.724 351.914 105.724C350.283 105.724 348.579 107.006 348.112 108.592C347.644 110.174 348.59 111.461 350.22 111.461C351.85 111.461 353.554 110.174 354.022 108.592Z" fill="#EBF3FA"/>
</g>
</svg>
