<svg width="504" height="586" viewBox="0 0 504 586" fill="none" xmlns="http://www.w3.org/2000/svg">
<g clip-path="url(#clip0_1_5586)">
<path d="M412.004 505.272C412.004 505.272 414.372 487.947 425.446 486.056C436.519 484.166 433.197 475.836 436.076 472.531C438.956 469.226 446.52 478.851 440.046 488.118C433.572 497.385 438.87 494.489 436.076 503.108C433.282 511.728 410.914 519.649 412.004 505.272Z" fill="#263238"/>
<path opacity="0.2" d="M412.004 505.272C412.004 505.272 414.372 487.947 425.446 486.056C436.519 484.166 433.197 475.836 436.076 472.531C438.956 469.226 446.52 478.851 440.046 488.118C433.572 497.385 438.87 494.489 436.076 503.108C433.282 511.728 410.914 519.649 412.004 505.272Z" fill="white"/>
<path d="M415.616 517.111C415.492 517.111 415.37 517.081 415.26 517.023C415.15 516.965 415.056 516.881 414.985 516.779C414.915 516.677 414.871 516.559 414.856 516.436C414.841 516.313 414.856 516.188 414.9 516.072C414.9 515.885 421.715 497.657 415.173 469.89C413.148 461.914 410.293 454.172 406.655 446.791C400.249 432.891 394.729 420.898 402.924 398.497C405.445 391.581 408.035 385.108 410.624 378.856C420.011 355.791 427.439 337.563 419.602 320.699C419.52 320.513 419.513 320.303 419.583 320.112C419.653 319.921 419.794 319.765 419.977 319.677C420.068 319.631 420.168 319.605 420.27 319.6C420.371 319.594 420.473 319.609 420.569 319.644C420.665 319.679 420.752 319.733 420.826 319.804C420.9 319.874 420.959 319.958 420.999 320.052C429.109 337.512 421.579 356.012 412.055 379.435C409.517 385.67 406.944 392.126 404.355 399.025C396.382 420.83 401.527 431.988 408.052 446.144C411.748 453.619 414.66 461.457 416.74 469.533C423.47 497.794 416.468 516.447 416.4 516.634C416.34 516.789 416.231 516.92 416.089 517.006C415.947 517.093 415.781 517.13 415.616 517.111Z" fill="#263238"/>
<path d="M418.819 513.074C418.819 513.074 425.974 502.274 415.633 496.72C405.292 491.167 403.231 495.63 396.893 491.61C390.556 487.59 385.649 477.982 384.559 484.132C383.469 490.281 390.862 493.858 388.239 496.686C385.615 499.514 405.548 517.861 418.819 513.074Z" fill="#263238"/>
<path d="M423.93 329.114C423.93 329.114 429.194 307.412 413.333 308.229C397.472 309.047 416.553 327.445 423.93 329.114Z" fill="#263238"/>
<path d="M411.544 346.473C411.544 346.473 405.292 327.615 394.372 332.572C383.451 337.529 400.368 347.733 411.544 346.473Z" fill="#263238"/>
<path d="M430.744 346.609C430.744 346.609 427.831 331.397 439.722 330.136C451.613 328.876 447.371 342.793 430.744 346.609Z" fill="#263238"/>
<path d="M425.31 378.549C425.31 378.549 440.165 363.013 446.775 373.166C453.385 383.319 435.736 386.947 425.31 378.549Z" fill="#263238"/>
<path d="M396.808 378.294C396.808 378.294 391.901 354.854 379.567 363.303C367.233 371.752 385.734 381.582 396.808 378.294Z" fill="#263238"/>
<path d="M388.153 413.113C388.153 413.113 395.769 388.413 378.272 392.535C360.776 396.657 375.172 408.309 388.153 413.113Z" fill="#263238"/>
<path d="M416.042 419.467C416.042 419.467 429.586 400.627 441.477 405.311C453.368 409.996 445.429 428.257 416.042 419.467Z" fill="#263238"/>
<path d="M405.582 459.618C405.582 459.618 390.556 432.363 380.027 442.788C369.499 453.213 389.125 466.006 405.582 459.618Z" fill="#263238"/>
<path d="M423.93 456.535C423.93 456.535 418.819 434.833 431.562 435.582C444.305 436.332 442.141 449.994 423.93 456.535Z" fill="#263238"/>
<g opacity="0.2">
<path d="M423.93 329.114C423.93 329.114 429.194 307.412 413.333 308.229C397.472 309.047 416.553 327.445 423.93 329.114Z" fill="white"/>
<path d="M411.544 346.473C411.544 346.473 405.292 327.615 394.372 332.572C383.451 337.529 400.368 347.733 411.544 346.473Z" fill="white"/>
<path d="M430.744 346.609C430.744 346.609 427.831 331.397 439.722 330.136C451.613 328.876 447.371 342.793 430.744 346.609Z" fill="white"/>
<path d="M425.31 378.549C425.31 378.549 440.165 363.013 446.775 373.166C453.385 383.319 435.736 386.947 425.31 378.549Z" fill="white"/>
<path d="M396.808 378.294C396.808 378.294 391.901 354.854 379.567 363.303C367.233 371.752 385.734 381.582 396.808 378.294Z" fill="white"/>
<path d="M388.153 413.113C388.153 413.113 395.769 388.413 378.272 392.535C360.776 396.657 375.172 408.309 388.153 413.113Z" fill="white"/>
<path d="M416.042 419.467C416.042 419.467 429.586 400.627 441.477 405.311C453.368 409.996 445.429 428.257 416.042 419.467Z" fill="white"/>
<path d="M405.582 459.618C405.582 459.618 390.556 432.363 380.027 442.788C369.499 453.213 389.125 466.006 405.582 459.618Z" fill="white"/>
<path d="M423.93 456.535C423.93 456.535 418.819 434.833 431.562 435.582C444.305 436.332 442.141 449.994 423.93 456.535Z" fill="white"/>
</g>
<path d="M419.398 358.653H419.245C419.042 358.607 418.865 358.485 418.75 358.312C418.75 358.193 411.697 347.069 406.91 344.684C406.727 344.594 406.588 344.434 406.522 344.241C406.457 344.048 406.471 343.836 406.561 343.653C406.651 343.47 406.811 343.331 407.004 343.265C407.197 343.2 407.409 343.214 407.592 343.304C412.089 345.536 417.984 354.258 419.619 356.796C425.254 352.428 430.006 347.029 433.623 340.885C433.723 340.707 433.889 340.575 434.085 340.519C434.282 340.463 434.492 340.488 434.671 340.587C434.849 340.686 434.981 340.853 435.037 341.049C435.093 341.246 435.068 341.456 434.969 341.635C434.713 342.078 428.768 352.537 419.824 358.516C419.699 358.604 419.55 358.652 419.398 358.653Z" fill="#263238"/>
<path d="M407.251 389.196C407.142 389.187 407.036 389.152 406.942 389.096C406.847 389.04 406.767 388.964 406.706 388.873C406.706 388.753 398.051 376.693 387.966 371.838C387.807 371.733 387.692 371.574 387.641 371.39C387.591 371.207 387.609 371.011 387.693 370.84C387.776 370.669 387.919 370.534 388.095 370.46C388.271 370.387 388.467 370.38 388.647 370.441C397.847 374.921 405.53 384.665 407.524 387.373C420.386 376.386 437.422 375.449 437.593 375.449C437.795 375.444 437.991 375.518 438.14 375.654C438.289 375.791 438.38 375.98 438.393 376.182C438.4 376.281 438.387 376.382 438.355 376.476C438.322 376.571 438.271 376.658 438.204 376.733C438.138 376.807 438.057 376.868 437.966 376.911C437.876 376.954 437.778 376.978 437.678 376.982C437.507 376.982 420.42 377.936 407.915 389.077C407.821 389.145 407.712 389.191 407.597 389.212C407.482 389.232 407.364 389.227 407.251 389.196Z" fill="#263238"/>
<path d="M401.118 428.768C400.965 428.771 400.815 428.723 400.692 428.632C390.47 421.818 381.697 403.301 381.339 402.517C381.251 402.334 381.239 402.124 381.306 401.932C381.374 401.741 381.514 401.584 381.697 401.495C381.788 401.45 381.888 401.424 381.989 401.418C382.091 401.412 382.193 401.428 382.288 401.463C382.384 401.498 382.472 401.552 382.546 401.622C382.62 401.692 382.679 401.776 382.719 401.87C382.804 402.04 391.493 420.183 401.135 427.065C404.116 425.055 420.829 414.152 434.22 412.823C434.419 412.809 434.617 412.871 434.773 412.998C434.928 413.125 435.029 413.306 435.054 413.505C435.066 413.606 435.058 413.708 435.03 413.805C435.002 413.903 434.955 413.994 434.892 414.073C434.828 414.152 434.75 414.218 434.661 414.267C434.572 414.316 434.474 414.346 434.373 414.357C420.318 415.753 401.748 428.513 401.561 428.632C401.433 428.725 401.277 428.773 401.118 428.768Z" fill="#263238"/>
<path d="M415.616 468.016C415.505 468.021 415.394 467.998 415.293 467.95C415.192 467.903 415.105 467.832 415.037 467.744C409.036 461.613 401.311 457.454 392.89 455.82C392.79 455.8 392.695 455.76 392.611 455.702C392.528 455.644 392.457 455.57 392.402 455.484C392.348 455.398 392.312 455.302 392.296 455.201C392.28 455.101 392.285 454.998 392.31 454.9C392.33 454.802 392.37 454.709 392.427 454.626C392.483 454.544 392.556 454.474 392.64 454.42C392.724 454.366 392.818 454.329 392.916 454.312C393.015 454.295 393.116 454.298 393.213 454.32C401.721 455.992 409.544 460.141 415.701 466.245C422.243 461.134 429.926 442.703 430.012 442.515C430.049 442.421 430.105 442.335 430.176 442.263C430.247 442.191 430.333 442.134 430.427 442.096C430.521 442.057 430.621 442.039 430.723 442.041C430.824 442.042 430.924 442.065 431.017 442.106C431.11 442.146 431.194 442.203 431.265 442.274C431.336 442.346 431.392 442.431 431.43 442.524C431.468 442.618 431.487 442.717 431.486 442.818C431.485 442.919 431.465 443.019 431.426 443.112C431.085 443.929 423.061 463.127 416.093 467.914C415.951 468.003 415.782 468.039 415.616 468.016Z" fill="#263238"/>
<path d="M417.694 510.485C417.694 510.485 423.844 500.707 430.778 499.327C437.712 497.947 440.71 489.94 443.266 494.744C445.821 499.548 438.768 515.476 417.694 510.485Z" fill="#263238"/>
<path d="M449.586 548.864H382.497L378 507.503H454.067L449.586 548.864Z" fill="#7E007E"/>
<path d="M455.634 515.339H376.432L375.427 506.566H456.639L455.634 515.339Z" fill="#7E007E"/>
<path opacity="0.3" d="M455.634 515.339H376.432L375.427 506.566H456.639L455.634 515.339Z" fill="white"/>
<path opacity="0.1" d="M287.925 272.494V511.152C287.923 512.04 287.744 512.919 287.399 513.737C287.055 514.555 286.55 515.296 285.916 515.918C285.282 516.539 284.53 517.028 283.705 517.357C282.88 517.685 281.998 517.846 281.111 517.83H39.9962C39.1922 517.842 38.394 517.691 37.6496 517.387C36.9051 517.083 36.2296 516.632 35.6634 516.061C35.0972 515.491 34.652 514.811 34.3544 514.064C34.0567 513.318 33.9128 512.518 33.9313 511.714V403.151C101.037 314.825 216.356 283.532 287.925 272.494Z" fill="white"/>
<path opacity="0.1" d="M274.773 48.7744C252.302 111.02 179.2 281.965 33.9314 351.689V54.447C33.8711 53.0275 34.3746 51.6417 35.332 50.5919C36.2894 49.542 37.6231 48.9132 39.0422 48.8426H99.3336C100.181 48.857 101.006 49.1241 101.701 49.6096C102.396 50.0952 102.93 50.7771 103.235 51.5681L105.722 57.7007C106.027 58.4808 106.558 59.152 107.247 59.6284C107.936 60.1049 108.752 60.3649 109.589 60.3752H212.403C213.24 60.371 214.056 60.1176 214.748 59.6473C215.44 59.177 215.976 58.5111 216.288 57.7348L218.775 51.5681C219.081 50.7811 219.613 50.1022 220.304 49.6172C220.996 49.1321 221.815 48.8626 222.659 48.8426L274.773 48.7744Z" fill="white"/>
<path d="M26.2819 59.0806V500.42C25.437 500.416 24.6013 500.245 23.8226 499.917C23.044 499.589 22.3377 499.111 21.7442 498.509C21.1508 497.908 20.6818 497.195 20.3642 496.413C20.0466 495.63 19.8865 494.792 19.8933 493.947V65.5027C19.8932 63.8054 20.5652 62.177 21.7624 60.9736C22.9595 59.7702 24.5844 59.0896 26.2819 59.0806Z" fill="#263238"/>
<path d="M24.1694 50.6824H19.757C18.5057 50.6824 17.4912 51.6967 17.4912 52.948V75.4511C17.4912 76.7024 18.5057 77.7167 19.757 77.7167H24.1694C25.4208 77.7167 26.4353 76.7024 26.4353 75.4511V52.948C26.4353 51.6967 25.4208 50.6824 24.1694 50.6824Z" fill="#263238"/>
<g opacity="0.4">
<path d="M26.4523 52.9651V75.4681C26.4478 76.0661 26.2071 76.638 25.7827 77.0592C25.3582 77.4804 24.7845 77.7168 24.1865 77.7167H19.757C19.159 77.7168 18.5853 77.4804 18.1608 77.0592C17.7364 76.638 17.4957 76.0661 17.4912 75.4681V52.9651C17.4912 52.3626 17.7294 51.7845 18.1538 51.3569C18.5782 50.9293 19.1545 50.6869 19.757 50.6824H24.1865C24.789 50.6869 25.3652 50.9293 25.7897 51.3569C26.2141 51.7845 26.4523 52.3626 26.4523 52.9651Z" fill="white"/>
</g>
<g opacity="0.2">
<path d="M23.1984 52.9651V75.4681C23.1939 76.0661 22.9532 76.638 22.5287 77.0592C22.1043 77.4804 21.5305 77.7168 20.9325 77.7167H19.757C19.159 77.7168 18.5853 77.4804 18.1608 77.0592C17.7364 76.638 17.4957 76.0661 17.4912 75.4681V52.9651C17.4912 52.3626 17.7294 51.7845 18.1538 51.3569C18.5782 50.9293 19.1545 50.6869 19.757 50.6824H20.9325C21.535 50.6869 22.1113 50.9293 22.5358 51.3569C22.9602 51.7845 23.1984 52.3626 23.1984 52.9651Z" fill="white"/>
</g>
<path d="M19.6208 74.2927H14.7825C13.734 74.2949 12.6954 74.0904 11.7261 73.6907C10.7568 73.2911 9.87591 72.7042 9.13375 71.9637C8.39158 71.2232 7.80275 70.3436 7.401 69.3752C6.99926 68.4068 6.79248 67.3688 6.79248 66.3204V61.8232C6.79699 59.7072 7.64078 57.6794 9.13871 56.1848C10.6366 54.6902 12.6664 53.8508 14.7825 53.8508H19.706C19.8819 53.8508 20.0561 53.8857 20.2185 53.9536C20.3808 54.0214 20.5281 54.1208 20.6517 54.246C20.7753 54.3712 20.8728 54.5197 20.9386 54.6829C21.0044 54.8461 21.0371 55.0207 21.0348 55.1966V57.3771C21.0371 57.553 21.0044 57.7276 20.9386 57.8908C20.8728 58.0539 20.7753 58.2024 20.6517 58.3276C20.5281 58.4528 20.3808 58.5522 20.2185 58.6201C20.0561 58.6879 19.8819 58.7228 19.706 58.7228H14.7825C13.9586 58.7228 13.1682 59.0489 12.584 59.6298C11.9998 60.2108 11.6694 60.9993 11.6649 61.8232V66.3715C11.6649 66.7801 11.7456 67.1846 11.9025 67.5619C12.0594 67.9392 12.2893 68.2817 12.579 68.5698C12.8687 68.8579 13.2126 69.0859 13.5907 69.2407C13.9689 69.3955 14.3739 69.4741 14.7825 69.4718H19.706C20.06 69.4763 20.3979 69.6201 20.6467 69.872C20.8954 70.1238 21.0348 70.4636 21.0348 70.8176V73.0151C21.0284 73.1926 20.9864 73.3671 20.9113 73.5281C20.8362 73.6892 20.7296 73.8335 20.5978 73.9526C20.4659 74.0717 20.3116 74.1632 20.1437 74.2216C19.9759 74.28 19.7981 74.3042 19.6208 74.2927Z" fill="#263238"/>
<g opacity="0.6">
<path d="M19.6208 74.2927H14.7825C13.734 74.2949 12.6954 74.0904 11.7261 73.6907C10.7568 73.2911 9.87591 72.7042 9.13375 71.9637C8.39158 71.2232 7.80275 70.3436 7.401 69.3752C6.99926 68.4068 6.79248 67.3688 6.79248 66.3204V61.8232C6.79699 59.7072 7.64078 57.6794 9.13871 56.1848C10.6366 54.6902 12.6664 53.8508 14.7825 53.8508H19.706C19.8819 53.8508 20.0561 53.8857 20.2185 53.9536C20.3808 54.0214 20.5281 54.1208 20.6517 54.246C20.7753 54.3712 20.8728 54.5197 20.9386 54.6829C21.0044 54.8461 21.0371 55.0207 21.0348 55.1966V57.3771C21.0371 57.553 21.0044 57.7276 20.9386 57.8908C20.8728 58.0539 20.7753 58.2024 20.6517 58.3276C20.5281 58.4528 20.3808 58.5522 20.2185 58.6201C20.0561 58.6879 19.8819 58.7228 19.706 58.7228H14.7825C13.9586 58.7228 13.1682 59.0489 12.584 59.6298C11.9998 60.2108 11.6694 60.9993 11.6649 61.8232V66.3715C11.6649 66.7801 11.7456 67.1846 11.9025 67.5619C12.0594 67.9392 12.2893 68.2817 12.579 68.5698C12.8687 68.8579 13.2126 69.0859 13.5907 69.2407C13.9689 69.3955 14.3739 69.4741 14.7825 69.4718H19.706C20.06 69.4763 20.3979 69.6201 20.6467 69.872C20.8954 70.1238 21.0348 70.4636 21.0348 70.8176V73.0151C21.0284 73.1926 20.9864 73.3671 20.9113 73.5281C20.8362 73.6892 20.7296 73.8335 20.5978 73.9526C20.4659 74.0717 20.3116 74.1632 20.1437 74.2216C19.9759 74.28 19.7981 74.3042 19.6208 74.2927Z" fill="white"/>
</g>
<path d="M11.8181 481.222L21.9547 484.85V491.835L11.8181 493.828V481.222Z" fill="#263238"/>
<path d="M11.8181 461.427L21.9547 465.073V472.04L11.8181 474.05V461.427Z" fill="#263238"/>
<path d="M11.8181 441.65L21.9547 445.278V452.246L11.8181 454.256V441.65Z" fill="#263238"/>
<path d="M11.8181 421.855L21.9547 425.484V432.468L11.8181 434.461V421.855Z" fill="#263238"/>
<path d="M11.8181 402.061L21.9547 405.706V412.674L11.8181 414.684V402.061Z" fill="#263238"/>
<path d="M11.8181 382.283L21.9547 385.912V392.896L11.8181 394.889V382.283Z" fill="#263238"/>
<path d="M11.8181 362.489L21.9547 366.134V373.102L11.8181 375.112V362.489Z" fill="#263238"/>
<path d="M11.8181 342.711L21.9547 346.34V353.307L11.8181 355.317V342.711Z" fill="#263238"/>
<path d="M11.8181 322.917L21.9547 326.545V333.529L11.8181 335.523V322.917Z" fill="#263238"/>
<path d="M11.8181 303.122L21.9547 306.768V313.735L11.8181 315.745V303.122Z" fill="#263238"/>
<path d="M11.8181 283.345L21.9547 286.973V293.957L11.8181 295.951V283.345Z" fill="#263238"/>
<path d="M11.8181 263.55L21.9547 267.196V274.163L11.8181 276.156V263.55Z" fill="#263238"/>
<path d="M11.8181 243.756L21.9547 247.401V254.368L11.8181 256.379V243.756Z" fill="#263238"/>
<path d="M11.8181 223.978L21.9547 227.607V234.591L11.8181 236.584V223.978Z" fill="#263238"/>
<path d="M11.8181 204.184L21.9547 207.829V214.796L11.8181 216.806V204.184Z" fill="#263238"/>
<path d="M11.8181 184.406L21.9547 188.035V195.002L11.8181 197.012V184.406Z" fill="#263238"/>
<path d="M11.8181 164.612L21.9547 168.257V175.224L11.8181 177.217V164.612Z" fill="#263238"/>
<path d="M11.8181 144.817L21.9547 148.463V155.43L11.8181 157.44V144.817Z" fill="#263238"/>
<path d="M11.8181 125.04L21.9547 128.668V135.652L11.8181 137.645V125.04Z" fill="#263238"/>
<path d="M11.8181 105.245L21.9547 108.891V115.858L11.8181 117.851V105.245Z" fill="#263238"/>
<path d="M11.8181 85.4675L21.9547 89.0959V96.0632L11.8181 98.0733V85.4675Z" fill="#263238"/>
<path d="M13.6752 15.8971H1.23869C0.352799 15.8971 -0.192366 16.9703 0.063178 18.2138L9.04131 63.6459C9.26278 64.7872 10.0805 65.673 10.8812 65.673H19.1097C19.9104 65.673 20.4556 64.7872 20.3363 63.6459L15.5492 18.2138C15.4129 16.9703 14.5611 15.8971 13.6752 15.8971ZM14.2544 58.3821C14.3253 58.8378 14.2662 59.3042 14.084 59.7278C13.8017 59.3251 13.6099 58.866 13.5218 58.3821L13.0108 54.9751C12.9394 54.5138 12.9984 54.0418 13.1811 53.6123C13.4657 54.0201 13.6576 54.4853 13.7433 54.9751L14.2544 58.3821ZM8.08728 20.0877C8.95613 20.0877 9.79088 21.0757 9.97828 22.2852L10.4894 25.607C10.6768 26.8164 10.1146 27.8045 9.26276 27.8045C8.39391 27.8045 7.55913 26.8164 7.37173 25.607L6.86066 22.2852C6.67327 21.0757 7.23547 20.0877 8.08728 20.0877Z" fill="#263238"/>
<path opacity="0.4" d="M13.6752 15.8971H1.23869C0.352799 15.8971 -0.192366 16.9703 0.063178 18.2138L9.04131 63.6459C9.26278 64.7872 10.0805 65.673 10.8812 65.673H19.1097C19.9104 65.673 20.4556 64.7872 20.3363 63.6459L15.5492 18.2138C15.4129 16.9703 14.5611 15.8971 13.6752 15.8971ZM14.2544 58.3821C14.3253 58.8378 14.2662 59.3042 14.084 59.7278C13.8017 59.3251 13.6099 58.866 13.5218 58.3821L13.0108 54.9751C12.9394 54.5138 12.9984 54.0418 13.1811 53.6123C13.4657 54.0201 13.6576 54.4853 13.7433 54.9751L14.2544 58.3821ZM8.08728 20.0877C8.95613 20.0877 9.79088 21.0757 9.97828 22.2852L10.4894 25.607C10.6768 26.8164 10.1146 27.8045 9.26276 27.8045C8.39391 27.8045 7.55913 26.8164 7.37173 25.607L6.86066 22.2852C6.67327 21.0757 7.23547 20.0877 8.08728 20.0877Z" fill="white"/>
<path opacity="0.2" d="M9.04131 63.6459C9.26278 64.7872 10.0805 65.673 10.8812 65.673H16.7587C17.5765 65.673 18.1046 64.7872 17.9854 63.6459L13.1982 18.2138C13.0789 16.9703 12.21 15.8971 11.3242 15.8971H1.23869C0.352799 15.8971 -0.192366 16.9703 0.063178 18.2138L9.04131 63.6459ZM14.2544 58.3821C14.4248 59.5745 13.8966 60.5455 13.0448 60.5455C12.193 60.5455 11.3412 59.5745 11.1879 58.3821L10.6768 54.9751C10.4894 53.7656 11.0345 52.7946 11.8693 52.7946C12.7041 52.7946 13.5729 53.7656 13.7433 54.9751L14.2544 58.3821ZM5.73626 20.0877H8.08728C8.95613 20.0877 9.79088 21.0757 9.97828 22.2852L10.4894 25.607C10.6768 26.8164 10.1146 27.8045 9.26276 27.8045H6.91177C6.04292 27.8045 5.20814 26.8164 5.02074 25.607L4.50965 22.2852C4.32225 21.0757 4.88445 20.0877 5.73626 20.0877Z" fill="white"/>
<path d="M19.6207 69.4207H14.7824C14.3738 69.4229 13.9688 69.3444 13.5906 69.1896C13.2125 69.0348 12.8687 68.8068 12.5789 68.5187C12.2892 68.2305 12.0593 67.888 11.9024 67.5107C11.7455 67.1335 11.6648 66.7289 11.6648 66.3203V61.8231C11.6669 61.145 11.8913 60.4862 12.3036 59.9477C12.7159 59.4093 13.2934 59.0209 13.9476 58.842V57.3429L13.6921 56.7297C13.6921 56.7297 13.6921 56.7297 13.6921 56.6445V56.5594C13.6921 56.406 13.4195 54.5663 13.4195 54.4129C13.4111 54.3109 13.4111 54.2084 13.4195 54.1063C11.5869 54.4256 9.92467 55.3782 8.72281 56.7979C7.52095 58.2176 6.85581 60.0142 6.84351 61.8742V66.3714C6.8435 67.4198 7.05031 68.4579 7.45206 69.4263C7.8538 70.3946 8.44261 71.2742 9.18477 72.0148C9.92694 72.7553 10.8079 73.3422 11.7772 73.7418C12.7465 74.1414 13.7851 74.346 14.8335 74.3437H19.757C20.1094 74.3437 20.4474 74.2038 20.6966 73.9546C20.9458 73.7054 21.0858 73.3674 21.0858 73.015V70.8175C21.0939 70.6261 21.0609 70.4351 20.9892 70.2574C20.9175 70.0796 20.8086 69.9193 20.6699 69.7871C20.5312 69.6548 20.3658 69.5537 20.1849 69.4905C20.004 69.4274 19.8116 69.4035 19.6207 69.4207Z" fill="#263238"/>
<g opacity="0.6">
<path d="M19.6207 69.4207H14.7824C14.3738 69.4229 13.9688 69.3444 13.5906 69.1896C13.2125 69.0348 12.8687 68.8068 12.5789 68.5187C12.2892 68.2305 12.0593 67.888 11.9024 67.5107C11.7455 67.1335 11.6648 66.7289 11.6648 66.3203V61.8231C11.6669 61.145 11.8913 60.4862 12.3036 59.9477C12.7159 59.4093 13.2934 59.0209 13.9476 58.842V57.3429L13.6921 56.7297C13.6921 56.7297 13.6921 56.7297 13.6921 56.6445V56.5594C13.6921 56.406 13.4195 54.5663 13.4195 54.4129C13.4111 54.3109 13.4111 54.2084 13.4195 54.1063C11.5869 54.4256 9.92467 55.3782 8.72281 56.7979C7.52095 58.2176 6.85581 60.0142 6.84351 61.8742V66.3714C6.8435 67.4198 7.05031 68.4579 7.45206 69.4263C7.8538 70.3946 8.44261 71.2742 9.18477 72.0148C9.92694 72.7553 10.8079 73.3422 11.7772 73.7418C12.7465 74.1414 13.7851 74.346 14.8335 74.3437H19.757C20.1094 74.3437 20.4474 74.2038 20.6966 73.9546C20.9458 73.7054 21.0858 73.3674 21.0858 73.015V70.8175C21.0939 70.6261 21.0609 70.4351 20.9892 70.2574C20.9175 70.0796 20.8086 69.9193 20.6699 69.7871C20.5312 69.6548 20.3658 69.5537 20.1849 69.4905C20.004 69.4274 19.8116 69.4035 19.6207 69.4207Z" fill="white"/>
</g>
<path d="M280.804 38.5024H41.0695C32.0558 38.5024 24.7488 45.8089 24.7488 54.8219V512.038C24.7488 521.051 32.0558 528.358 41.0695 528.358H280.804C289.818 528.358 297.125 521.051 297.125 512.038V54.8219C297.125 45.8089 289.818 38.5024 280.804 38.5024Z" fill="#263238"/>
<path opacity="0.3" d="M280.804 38.5024H41.0695C32.0558 38.5024 24.7488 45.8089 24.7488 54.8219V512.038C24.7488 521.051 32.0558 528.358 41.0695 528.358H280.804C289.818 528.358 297.125 521.051 297.125 512.038V54.8219C297.125 45.8089 289.818 38.5024 280.804 38.5024Z" fill="white"/>
<path d="M287.925 54.9069V511.067C287.923 511.955 287.744 512.833 287.4 513.652C287.055 514.47 286.55 515.211 285.916 515.832C285.282 516.454 284.531 516.943 283.706 517.271C282.881 517.6 281.999 517.761 281.111 517.745H39.9963C39.1923 517.756 38.3941 517.606 37.6497 517.302C36.9052 516.998 36.2297 516.547 35.6635 515.976C35.0973 515.405 34.6521 514.726 34.3545 513.979C34.0568 513.232 33.9129 512.433 33.9314 511.629V54.447C33.8711 53.0275 34.3746 51.6417 35.332 50.5918C36.2894 49.542 37.6231 48.9132 39.0422 48.8425H99.3336C100.181 48.8569 101.006 49.124 101.701 49.6096C102.396 50.0952 102.93 50.7771 103.235 51.5681L105.722 57.7007C106.027 58.4807 106.558 59.1519 107.247 59.6284C107.936 60.1049 108.752 60.3649 109.589 60.3751H212.403C213.24 60.371 214.056 60.1176 214.748 59.6472C215.44 59.1769 215.976 58.5111 216.288 57.7347L218.775 51.5681C219.081 50.781 219.613 50.1022 220.304 49.6171C220.996 49.1321 221.815 48.8625 222.659 48.8425H282.099C283.663 48.9125 285.14 49.5811 286.225 50.71C287.309 51.8389 287.918 53.3416 287.925 54.9069Z" fill="#263238"/>
<path opacity="0.6" d="M160.886 49.3365C160.886 50.0104 160.686 50.6691 160.311 51.2294C159.937 51.7896 159.405 52.2263 158.782 52.4842C158.16 52.7421 157.475 52.8095 156.814 52.678C156.153 52.5466 155.546 52.2221 155.069 51.7456C154.592 51.2692 154.268 50.6621 154.137 50.0012C154.005 49.3403 154.073 48.6553 154.33 48.0328C154.588 47.4102 155.025 46.8781 155.585 46.5038C156.146 46.1294 156.804 45.9296 157.478 45.9296C158.375 45.9512 159.229 46.3171 159.864 46.9514C160.498 47.5857 160.864 48.4398 160.886 49.3365Z" fill="white"/>
<path opacity="0.6" d="M167.939 49.3366C167.939 49.778 167.808 50.2094 167.562 50.5764C167.317 50.9434 166.969 51.2294 166.561 51.3983C166.153 51.5672 165.704 51.6114 165.271 51.5253C164.839 51.4392 164.441 51.2267 164.129 50.9146C163.817 50.6025 163.604 50.2049 163.518 49.772C163.432 49.3391 163.476 48.8904 163.645 48.4826C163.814 48.0749 164.1 47.7263 164.467 47.4811C164.834 47.2359 165.265 47.105 165.707 47.105C166.001 47.1028 166.292 47.1589 166.564 47.2703C166.835 47.3816 167.082 47.5459 167.29 47.7536C167.498 47.9613 167.662 48.2082 167.773 48.48C167.885 48.7517 167.941 49.0429 167.939 49.3366Z" fill="white"/>
<path d="M284.262 77.9722H37.594V496.468H284.262V77.9722Z" fill="#7E007E"/>
<path opacity="0.6" d="M284.262 77.9722H37.594V496.468H284.262V77.9722Z" fill="white"/>
<path d="M270.342 143.466H50.3984C46.6898 143.466 43.6833 149.241 43.6833 156.364V474.64C43.6833 481.764 46.6898 487.539 50.3984 487.539H270.342C274.05 487.539 277.057 481.764 277.057 474.64V156.364C277.057 149.241 274.05 143.466 270.342 143.466Z" fill="white"/>
<path d="M270.855 85.9446H51.0016C47.2945 85.9446 44.2893 88.9495 44.2893 92.6563V130.167C44.2893 133.874 47.2945 136.879 51.0016 136.879H270.855C274.562 136.879 277.567 133.874 277.567 130.167V92.6563C277.567 88.9495 274.562 85.9446 270.855 85.9446Z" fill="#7E007E"/>
<path d="M81.65 103.507L77.0502 117.135H75.5339L71.5304 105.552L67.595 117.152H66.0788L61.479 103.524H62.9612L66.8965 115.244L70.9853 103.524H72.3311L76.3346 115.313L80.3382 103.524L81.65 103.507Z" fill="black"/>
<path d="M77.6293 117.953H74.9546L71.5303 108.005L68.089 117.953H65.4313L60.2864 102.69H63.4892L66.8453 112.723L70.3378 102.69H72.8421L76.2664 112.774L79.6907 102.69H82.7913L77.6293 117.953Z" fill="white"/>
<path d="M90.9347 110.798V117.152H89.6229V115.551C89.2385 116.126 88.707 116.587 88.0838 116.887C87.4605 117.186 86.7684 117.313 86.0793 117.255C83.7624 117.255 82.3484 116.045 82.3484 114.274C82.3484 112.502 83.3535 111.378 86.3008 111.378H89.5547V110.662C89.5547 108.959 88.5666 107.954 86.6586 107.954C85.4166 107.948 84.2115 108.375 83.2513 109.163L82.638 108.124C83.8285 107.196 85.3031 106.709 86.8119 106.744C87.3654 106.667 87.9293 106.718 88.46 106.893C88.9907 107.069 89.4739 107.364 89.8724 107.755C90.2709 108.147 90.5739 108.626 90.7581 109.153C90.9423 109.681 91.0027 110.244 90.9347 110.798ZM89.5547 114.069V112.366H86.3349C84.3587 112.366 83.7113 113.149 83.7113 114.205C83.7113 115.262 84.6653 116.13 86.3008 116.13C86.9915 116.175 87.6787 116 88.2634 115.629C88.8481 115.259 89.3002 114.713 89.5547 114.069Z" fill="black"/>
<path d="M86.0795 118.055C83.3537 118.055 81.5308 116.522 81.5308 114.257C81.5308 113.149 81.9907 110.543 86.3009 110.543H88.7371C88.7371 109.708 88.3794 108.839 86.6587 108.839C85.6105 108.825 84.5908 109.181 83.7796 109.845L83.047 110.492L81.5648 108.022L82.093 107.579C83.4283 106.52 85.0911 105.96 86.795 105.995C87.4517 105.916 88.1176 105.985 88.7443 106.196C89.3709 106.408 89.9426 106.756 90.4175 107.216C90.8925 107.677 91.2587 108.237 91.4897 108.857C91.7206 109.476 91.8104 110.14 91.7525 110.798V117.953H88.8053V117.476C87.9592 117.893 87.0222 118.093 86.0795 118.055ZM86.335 113.2C84.5121 113.2 84.5121 113.865 84.5121 114.222C84.5121 115.193 85.6365 115.347 86.2157 115.347C86.7206 115.38 87.2235 115.259 87.6584 115.001C88.0933 114.742 88.4396 114.358 88.6519 113.899V113.2H86.335Z" fill="white"/>
<path d="M94.6997 102.673H96.0796V117.152H94.6997V102.673Z" fill="black"/>
<path d="M96.8973 101.872H93.8818V117.953H96.8973V101.872Z" fill="white"/>
<path d="M99.9639 102.673H101.361V117.152H99.9639V102.673Z" fill="black"/>
<path d="M102.145 101.872H99.1292V117.953H102.145V101.872Z" fill="white"/>
<path d="M114.104 112.451H105.586C105.614 112.951 105.741 113.44 105.96 113.891C106.179 114.341 106.485 114.744 106.86 115.075C107.236 115.406 107.674 115.659 108.148 115.82C108.622 115.981 109.124 116.046 109.623 116.011C110.213 116.03 110.799 115.92 111.341 115.687C111.882 115.455 112.366 115.106 112.758 114.665L113.542 115.568C112.804 116.338 111.856 116.873 110.816 117.108C109.776 117.343 108.691 117.267 107.694 116.889C106.697 116.511 105.833 115.849 105.21 114.984C104.587 114.119 104.232 113.09 104.189 112.025C104.151 111.339 104.256 110.653 104.498 110.01C104.739 109.367 105.113 108.781 105.594 108.291C106.075 107.8 106.653 107.415 107.291 107.161C107.929 106.906 108.613 106.788 109.3 106.812C109.976 106.801 110.647 106.931 111.27 107.192C111.893 107.454 112.456 107.842 112.922 108.332C113.388 108.821 113.747 109.403 113.977 110.038C114.207 110.674 114.302 111.35 114.257 112.025C114.121 112.144 114.104 112.366 114.104 112.451ZM105.586 111.412H112.86C112.797 110.49 112.387 109.627 111.711 108.996C111.036 108.366 110.147 108.015 109.223 108.015C108.299 108.015 107.41 108.366 106.735 108.996C106.06 109.627 105.649 110.49 105.586 111.412Z" fill="black"/>
<path d="M109.521 118.055C108.715 118.088 107.91 117.955 107.157 117.665C106.404 117.376 105.719 116.935 105.142 116.37C104.566 115.805 104.112 115.128 103.807 114.381C103.503 113.633 103.354 112.832 103.371 112.025C103.328 111.237 103.447 110.448 103.719 109.707C103.991 108.966 104.412 108.289 104.954 107.716C105.497 107.143 106.151 106.686 106.876 106.374C107.601 106.062 108.383 105.902 109.172 105.902C109.961 105.902 110.742 106.062 111.468 106.374C112.193 106.686 112.847 107.143 113.389 107.716C113.932 108.289 114.353 108.966 114.625 109.707C114.897 110.448 115.016 111.237 114.973 112.025V113.251H106.574C106.801 113.864 107.221 114.387 107.771 114.74C108.321 115.094 108.971 115.259 109.623 115.21C110.097 115.227 110.568 115.139 111.003 114.954C111.439 114.768 111.829 114.49 112.145 114.137L112.758 113.439L114.598 115.551L114.155 116.096C113.577 116.747 112.861 117.261 112.06 117.6C111.258 117.939 110.391 118.094 109.521 118.055ZM106.54 110.662H111.889C111.679 110.14 111.312 109.697 110.839 109.392C110.366 109.087 109.811 108.935 109.249 108.959C108.674 108.915 108.101 109.058 107.614 109.364C107.126 109.671 106.75 110.126 106.54 110.662Z" fill="white"/>
<path d="M122.35 116.522C121.738 117.014 120.97 117.268 120.186 117.238C119.783 117.283 119.374 117.238 118.991 117.104C118.607 116.971 118.259 116.753 117.971 116.467C117.683 116.181 117.463 115.834 117.328 115.451C117.192 115.068 117.144 114.66 117.188 114.256V108.056H115.297V106.897H117.137V104.649H118.516V106.897H121.634V108.056H118.516V114.188C118.495 114.425 118.523 114.663 118.599 114.887C118.675 115.112 118.797 115.318 118.958 115.493C119.118 115.668 119.313 115.807 119.531 115.902C119.748 115.997 119.983 116.046 120.22 116.045C120.77 116.059 121.307 115.878 121.736 115.534L122.35 116.522Z" fill="black"/>
<path d="M120.186 118.055C119.675 118.099 119.161 118.031 118.68 117.856C118.198 117.681 117.76 117.403 117.397 117.041C117.034 116.679 116.754 116.243 116.576 115.762C116.399 115.281 116.328 114.767 116.37 114.256V108.959H114.53V106.165H116.37V103.848H119.385V106.097H122.503V108.959H119.385V114.273C119.385 115.142 119.76 115.33 120.339 115.33C120.692 115.344 121.037 115.228 121.31 115.006L122.111 114.291L123.355 116.795L122.895 117.221C122.118 117.808 121.159 118.103 120.186 118.055Z" fill="white"/>
<path d="M261.161 104.921H244.346C244.091 105.001 243.821 105.019 243.558 104.974C243.295 104.93 243.046 104.824 242.831 104.666C242.616 104.508 242.441 104.301 242.321 104.063C242.2 103.825 242.137 103.562 242.137 103.295C242.137 103.028 242.2 102.764 242.321 102.526C242.441 102.288 242.616 102.081 242.831 101.923C243.046 101.765 243.295 101.659 243.558 101.615C243.821 101.57 244.091 101.589 244.346 101.668H261.161C261.416 101.589 261.686 101.57 261.949 101.615C262.213 101.659 262.462 101.765 262.677 101.923C262.892 102.081 263.067 102.288 263.187 102.526C263.307 102.764 263.37 103.028 263.37 103.295C263.37 103.562 263.307 103.825 263.187 104.063C263.067 104.301 262.892 104.508 262.677 104.666C262.462 104.824 262.213 104.93 261.949 104.974C261.686 105.019 261.416 105.001 261.161 104.921Z" fill="white"/>
<path d="M261.161 121.156H244.346C244.091 121.24 243.818 121.262 243.552 121.221C243.286 121.179 243.034 121.075 242.815 120.917C242.597 120.759 242.42 120.552 242.297 120.312C242.175 120.072 242.111 119.807 242.111 119.537C242.111 119.268 242.175 119.003 242.297 118.763C242.42 118.523 242.597 118.315 242.815 118.158C243.034 118 243.286 117.896 243.552 117.854C243.818 117.813 244.091 117.835 244.346 117.919H261.161C261.417 117.835 261.689 117.813 261.955 117.854C262.222 117.896 262.474 118 262.692 118.158C262.91 118.315 263.088 118.523 263.211 118.763C263.333 119.003 263.397 119.268 263.397 119.537C263.397 119.807 263.333 120.072 263.211 120.312C263.088 120.552 262.91 120.759 262.692 120.917C262.474 121.075 262.222 121.179 261.955 121.221C261.689 121.262 261.417 121.24 261.161 121.156Z" fill="white"/>
<path d="M261.161 113.047H244.346C244.091 113.126 243.821 113.144 243.558 113.1C243.295 113.056 243.046 112.95 242.831 112.792C242.616 112.633 242.441 112.427 242.321 112.189C242.2 111.95 242.137 111.687 242.137 111.42C242.137 111.153 242.2 110.89 242.321 110.652C242.441 110.413 242.616 110.207 242.831 110.049C243.046 109.89 243.295 109.785 243.558 109.74C243.821 109.696 244.091 109.714 244.346 109.793H261.161C261.416 109.714 261.686 109.696 261.949 109.74C262.213 109.785 262.462 109.89 262.677 110.049C262.892 110.207 263.067 110.413 263.187 110.652C263.307 110.89 263.37 111.153 263.37 111.42C263.37 111.687 263.307 111.95 263.187 112.189C263.067 112.427 262.892 112.633 262.677 112.792C262.462 112.95 262.213 113.056 261.949 113.1C261.686 113.144 261.416 113.126 261.161 113.047Z" fill="white"/>
<g opacity="0.3">
<path d="M136.677 250.127H64.9543C64.3986 250.163 63.8414 250.084 63.3172 249.896C62.793 249.709 62.3129 249.415 61.9066 249.034C61.5003 248.654 61.1764 248.193 60.955 247.683C60.7336 247.172 60.6194 246.621 60.6194 246.064C60.6194 245.507 60.7336 244.956 60.955 244.445C61.1764 243.934 61.5003 243.474 61.9066 243.093C62.3129 242.713 62.793 242.419 63.3172 242.231C63.8414 242.043 64.3986 241.965 64.9543 242.001H136.677C137.709 242.068 138.677 242.525 139.385 243.28C140.092 244.034 140.485 245.03 140.485 246.064C140.485 247.098 140.092 248.094 139.385 248.848C138.677 249.603 137.709 250.06 136.677 250.127Z" fill="black"/>
<path d="M167.547 272.868H64.9543C64.3986 272.904 63.8414 272.826 63.3172 272.638C62.793 272.45 62.3129 272.157 61.9066 271.776C61.5003 271.395 61.1764 270.935 60.955 270.424C60.7336 269.913 60.6194 269.362 60.6194 268.805C60.6194 268.249 60.7336 267.698 60.955 267.187C61.1764 266.676 61.5003 266.216 61.9066 265.835C62.3129 265.454 62.793 265.161 63.3172 264.973C63.8414 264.785 64.3986 264.707 64.9543 264.743H167.547C168.579 264.81 169.547 265.267 170.254 266.021C170.962 266.776 171.355 267.771 171.355 268.805C171.355 269.84 170.962 270.835 170.254 271.59C169.547 272.344 168.579 272.801 167.547 272.868Z" fill="black"/>
<path d="M256.902 272.868H229.048C228.016 272.801 227.048 272.344 226.34 271.59C225.633 270.835 225.239 269.84 225.239 268.805C225.239 267.771 225.633 266.776 226.34 266.021C227.048 265.267 228.016 264.81 229.048 264.743H256.902C257.458 264.707 258.015 264.785 258.539 264.973C259.063 265.161 259.543 265.454 259.95 265.835C260.356 266.216 260.68 266.676 260.901 267.187C261.123 267.698 261.237 268.249 261.237 268.805C261.237 269.362 261.123 269.913 260.901 270.424C260.68 270.935 260.356 271.395 259.95 271.776C259.543 272.157 259.063 272.45 258.539 272.638C258.015 272.826 257.458 272.904 256.902 272.868Z" fill="black"/>
<path d="M112.315 289.12H64.9543C64.3986 289.156 63.8414 289.077 63.3172 288.889C62.793 288.701 62.3129 288.408 61.9066 288.027C61.5003 287.646 61.1764 287.186 60.955 286.675C60.7336 286.164 60.6194 285.614 60.6194 285.057C60.6194 284.5 60.7336 283.949 60.955 283.438C61.1764 282.927 61.5003 282.467 61.9066 282.086C62.3129 281.705 62.793 281.412 63.3172 281.224C63.8414 281.036 64.3986 280.958 64.9543 280.994H112.315C113.347 281.061 114.315 281.518 115.023 282.272C115.73 283.027 116.124 284.022 116.124 285.057C116.124 286.091 115.73 287.086 115.023 287.841C114.315 288.596 113.347 289.053 112.315 289.12Z" fill="black"/>
<path d="M256.902 289.12H217.719C216.686 289.053 215.718 288.596 215.011 287.841C214.304 287.086 213.91 286.091 213.91 285.057C213.91 284.022 214.304 283.027 215.011 282.272C215.718 281.518 216.686 281.061 217.719 280.994H256.902C257.458 280.958 258.015 281.036 258.539 281.224C259.063 281.412 259.543 281.705 259.95 282.086C260.356 282.467 260.68 282.927 260.901 283.438C261.123 283.949 261.237 284.5 261.237 285.057C261.237 285.614 261.123 286.164 260.901 286.675C260.68 287.186 260.356 287.646 259.95 288.027C259.543 288.408 259.063 288.701 258.539 288.889C258.015 289.077 257.458 289.156 256.902 289.12Z" fill="black"/>
<path d="M157.887 305.354H65.0395C63.9642 305.354 62.9329 304.927 62.1725 304.166C61.4121 303.406 60.9849 302.375 60.9849 301.3C60.9849 300.224 61.4121 299.193 62.1725 298.433C62.9329 297.672 63.9642 297.245 65.0395 297.245H157.887C158.963 297.245 159.994 297.672 160.754 298.433C161.515 299.193 161.942 300.224 161.942 301.3C161.942 302.375 161.515 303.406 160.754 304.166C159.994 304.927 158.963 305.354 157.887 305.354Z" fill="black"/>
<path d="M256.902 305.354H233.92C232.845 305.354 231.813 304.927 231.053 304.166C230.293 303.406 229.865 302.375 229.865 301.3C229.865 300.224 230.293 299.193 231.053 298.433C231.813 297.672 232.845 297.245 233.92 297.245H256.902C257.977 297.245 259.009 297.672 259.769 298.433C260.53 299.193 260.957 300.224 260.957 301.3C260.957 302.375 260.53 303.406 259.769 304.166C259.009 304.927 257.977 305.354 256.902 305.354Z" fill="black"/>
</g>
<g opacity="0.3">
<path d="M137.177 324.24H65.4543C64.8986 324.276 64.3414 324.198 63.8172 324.01C63.293 323.822 62.8129 323.529 62.4066 323.148C62.0003 322.767 61.6764 322.307 61.455 321.796C61.2336 321.285 61.1194 320.734 61.1194 320.178C61.1194 319.621 61.2336 319.07 61.455 318.559C61.6764 318.048 62.0003 317.588 62.4066 317.207C62.8129 316.826 63.293 316.533 63.8172 316.345C64.3414 316.157 64.8986 316.079 65.4543 316.115H137.177C138.209 316.182 139.177 316.639 139.885 317.393C140.592 318.148 140.985 319.143 140.985 320.178C140.985 321.212 140.592 322.207 139.885 322.962C139.177 323.716 138.209 324.173 137.177 324.24Z" fill="black"/>
<path d="M168.047 346.982H65.4543C64.8986 347.018 64.3414 346.94 63.8172 346.752C63.293 346.564 62.8129 346.27 62.4066 345.89C62.0003 345.509 61.6764 345.049 61.455 344.538C61.2336 344.027 61.1194 343.476 61.1194 342.919C61.1194 342.362 61.2336 341.811 61.455 341.3C61.6764 340.79 62.0003 340.329 62.4066 339.949C62.8129 339.568 63.293 339.274 63.8172 339.087C64.3414 338.899 64.8986 338.82 65.4543 338.856H168.047C169.079 338.923 170.047 339.38 170.754 340.135C171.462 340.889 171.855 341.885 171.855 342.919C171.855 343.953 171.462 344.949 170.754 345.703C170.047 346.458 169.079 346.915 168.047 346.982Z" fill="black"/>
<path d="M257.402 346.982H229.548C228.516 346.915 227.548 346.458 226.84 345.703C226.133 344.949 225.739 343.953 225.739 342.919C225.739 341.885 226.133 340.889 226.84 340.135C227.548 339.38 228.516 338.923 229.548 338.856H257.402C257.958 338.82 258.515 338.899 259.039 339.087C259.563 339.274 260.043 339.568 260.45 339.949C260.856 340.329 261.18 340.79 261.401 341.3C261.623 341.811 261.737 342.362 261.737 342.919C261.737 343.476 261.623 344.027 261.401 344.538C261.18 345.049 260.856 345.509 260.45 345.89C260.043 346.27 259.563 346.564 259.039 346.752C258.515 346.94 257.958 347.018 257.402 346.982Z" fill="black"/>
<path d="M112.815 363.233H65.4543C64.8986 363.269 64.3414 363.191 63.8172 363.003C63.293 362.815 62.8129 362.522 62.4066 362.141C62.0003 361.76 61.6764 361.3 61.455 360.789C61.2336 360.278 61.1194 359.727 61.1194 359.17C61.1194 358.614 61.2336 358.063 61.455 357.552C61.6764 357.041 62.0003 356.581 62.4066 356.2C62.8129 355.819 63.293 355.526 63.8172 355.338C64.3414 355.15 64.8986 355.072 65.4543 355.108H112.815C113.847 355.174 114.815 355.632 115.523 356.386C116.23 357.141 116.624 358.136 116.624 359.17C116.624 360.205 116.23 361.2 115.523 361.955C114.815 362.709 113.847 363.166 112.815 363.233Z" fill="black"/>
<path d="M257.402 363.233H218.219C217.186 363.166 216.218 362.709 215.511 361.955C214.804 361.2 214.41 360.205 214.41 359.17C214.41 358.136 214.804 357.141 215.511 356.386C216.218 355.632 217.186 355.174 218.219 355.108H257.402C257.958 355.072 258.515 355.15 259.039 355.338C259.563 355.526 260.043 355.819 260.45 356.2C260.856 356.581 261.18 357.041 261.401 357.552C261.623 358.063 261.737 358.614 261.737 359.17C261.737 359.727 261.623 360.278 261.401 360.789C261.18 361.3 260.856 361.76 260.45 362.141C260.043 362.522 259.563 362.815 259.039 363.003C258.515 363.191 257.958 363.269 257.402 363.233Z" fill="black"/>
<path d="M158.387 379.468H65.5395C64.4642 379.468 63.4329 379.04 62.6725 378.28C61.9121 377.52 61.4849 376.488 61.4849 375.413C61.4849 374.338 61.9121 373.307 62.6725 372.546C63.4329 371.786 64.4642 371.359 65.5395 371.359H158.387C159.463 371.359 160.494 371.786 161.254 372.546C162.015 373.307 162.442 374.338 162.442 375.413C162.442 376.488 162.015 377.52 161.254 378.28C160.494 379.04 159.463 379.468 158.387 379.468Z" fill="black"/>
<path d="M257.402 379.468H234.42C233.345 379.468 232.313 379.04 231.553 378.28C230.793 377.52 230.365 376.488 230.365 375.413C230.365 374.338 230.793 373.307 231.553 372.546C232.313 371.786 233.345 371.359 234.42 371.359H257.402C258.477 371.359 259.509 371.786 260.269 372.546C261.03 373.307 261.457 374.338 261.457 375.413C261.457 376.488 261.03 377.52 260.269 378.28C259.509 379.04 258.477 379.468 257.402 379.468Z" fill="black"/>
</g>
<g opacity="0.3">
<path d="M137.177 398.354H65.4543C64.8986 398.39 64.3414 398.312 63.8172 398.124C63.293 397.936 62.8129 397.642 62.4066 397.262C62.0003 396.881 61.6764 396.421 61.455 395.91C61.2336 395.399 61.1194 394.848 61.1194 394.291C61.1194 393.734 61.2336 393.183 61.455 392.673C61.6764 392.162 62.0003 391.701 62.4066 391.321C62.8129 390.94 63.293 390.647 63.8172 390.459C64.3414 390.271 64.8986 390.192 65.4543 390.228H137.177C138.209 390.295 139.177 390.752 139.885 391.507C140.592 392.261 140.985 393.257 140.985 394.291C140.985 395.325 140.592 396.321 139.885 397.075C139.177 397.83 138.209 398.287 137.177 398.354Z" fill="black"/>
<path d="M168.047 421.096H65.4543C64.8986 421.132 64.3414 421.053 63.8172 420.865C63.293 420.677 62.8129 420.384 62.4066 420.003C62.0003 419.622 61.6764 419.162 61.455 418.651C61.2336 418.14 61.1194 417.59 61.1194 417.033C61.1194 416.476 61.2336 415.925 61.455 415.414C61.6764 414.903 62.0003 414.443 62.4066 414.062C62.8129 413.681 63.293 413.388 63.8172 413.2C64.3414 413.012 64.8986 412.934 65.4543 412.97H168.047C169.079 413.037 170.047 413.494 170.754 414.248C171.462 415.003 171.855 415.999 171.855 417.033C171.855 418.067 171.462 419.062 170.754 419.817C170.047 420.572 169.079 421.029 168.047 421.096Z" fill="black"/>
<path d="M257.402 421.096H229.548C228.516 421.029 227.548 420.572 226.84 419.817C226.133 419.062 225.739 418.067 225.739 417.033C225.739 415.999 226.133 415.003 226.84 414.248C227.548 413.494 228.516 413.037 229.548 412.97H257.402C257.958 412.934 258.515 413.012 259.039 413.2C259.563 413.388 260.043 413.681 260.45 414.062C260.856 414.443 261.18 414.903 261.401 415.414C261.623 415.925 261.737 416.476 261.737 417.033C261.737 417.59 261.623 418.14 261.401 418.651C261.18 419.162 260.856 419.622 260.45 420.003C260.043 420.384 259.563 420.677 259.039 420.865C258.515 421.053 257.958 421.132 257.402 421.096Z" fill="black"/>
<path d="M112.815 437.347H65.4543C64.8986 437.383 64.3414 437.304 63.8172 437.117C63.293 436.929 62.8129 436.635 62.4066 436.254C62.0003 435.874 61.6764 435.414 61.455 434.903C61.2336 434.392 61.1194 433.841 61.1194 433.284C61.1194 432.727 61.2336 432.176 61.455 431.665C61.6764 431.154 62.0003 430.694 62.4066 430.314C62.8129 429.933 63.293 429.639 63.8172 429.451C64.3414 429.264 64.8986 429.185 65.4543 429.221H112.815C113.847 429.288 114.815 429.745 115.523 430.5C116.23 431.254 116.624 432.25 116.624 433.284C116.624 434.318 116.23 435.314 115.523 436.068C114.815 436.823 113.847 437.28 112.815 437.347Z" fill="black"/>
<path d="M257.402 437.347H218.219C217.186 437.28 216.218 436.823 215.511 436.068C214.804 435.314 214.41 434.318 214.41 433.284C214.41 432.25 214.804 431.254 215.511 430.5C216.218 429.745 217.186 429.288 218.219 429.221H257.402C257.958 429.185 258.515 429.264 259.039 429.451C259.563 429.639 260.043 429.933 260.45 430.314C260.856 430.694 261.18 431.154 261.401 431.665C261.623 432.176 261.737 432.727 261.737 433.284C261.737 433.841 261.623 434.392 261.401 434.903C261.18 435.414 260.856 435.874 260.45 436.254C260.043 436.635 259.563 436.929 259.039 437.117C258.515 437.304 257.958 437.383 257.402 437.347Z" fill="black"/>
<path d="M158.387 453.581H65.5395C64.4642 453.581 63.4329 453.154 62.6725 452.394C61.9121 451.633 61.4849 450.602 61.4849 449.527C61.4849 448.452 61.9121 447.42 62.6725 446.66C63.4329 445.9 64.4642 445.473 65.5395 445.473H158.387C159.463 445.473 160.494 445.9 161.254 446.66C162.015 447.42 162.442 448.452 162.442 449.527C162.442 450.602 162.015 451.633 161.254 452.394C160.494 453.154 159.463 453.581 158.387 453.581Z" fill="black"/>
<path d="M257.402 453.581H234.42C233.345 453.581 232.313 453.154 231.553 452.394C230.793 451.633 230.365 450.602 230.365 449.527C230.365 448.452 230.793 447.42 231.553 446.66C232.313 445.9 233.345 445.473 234.42 445.473H257.402C258.477 445.473 259.509 445.9 260.269 446.66C261.03 447.42 261.457 448.452 261.457 449.527C261.457 450.602 261.03 451.633 260.269 452.394C259.509 453.154 258.477 453.581 257.402 453.581Z" fill="black"/>
</g>
<path d="M185.504 219.089C199.076 205.518 199.076 183.515 185.504 169.944C171.932 156.372 149.927 156.372 136.355 169.944C122.782 183.515 122.782 205.518 136.355 219.089C149.927 232.66 171.932 232.66 185.504 219.089Z" fill="#7E007E"/>
<path opacity="0.6" d="M61.9391 67.155H65.0737V62.9815H61.9391V67.155Z" fill="white"/>
<path opacity="0.6" d="M56.8111 67.155H59.9458V61.5846H56.8111V67.155Z" fill="white"/>
<path opacity="0.6" d="M51.7 67.155H54.8347V60.1877H51.7V67.155Z" fill="white"/>
<path opacity="0.6" d="M46.5892 67.155H49.7239V58.7909H46.5892V67.155Z" fill="white"/>
<path opacity="0.6" d="M259.168 61.4484H257.311V65.6219H259.168V61.4484Z" fill="white"/>
<path opacity="0.6" d="M260.446 67.155H275.267V59.9152H260.446V67.155Z" fill="white"/>
<rect x="54.4131" y="97.7684" width="92.5446" height="30.9128" fill="#7E007E"/>
<path d="M82.8787 100.848V112.08H80.1427V105.344L77.6307 112.08H75.4227L72.8947 105.328V112.08H70.1587V100.848H73.3907L76.5427 108.624L79.6627 100.848H82.8787ZM87.5822 103.04V105.312H91.2462V107.424H87.5822V109.888H91.7262V112.08H84.8462V100.848H91.7262V103.04H87.5822ZM103.55 112.08H100.814L96.2385 105.152V112.08H93.5025V100.848H96.2385L100.814 107.808V100.848H103.55V112.08ZM108.222 100.848V107.568C108.222 108.24 108.387 108.758 108.718 109.12C109.048 109.483 109.534 109.664 110.174 109.664C110.814 109.664 111.304 109.483 111.646 109.12C111.987 108.758 112.158 108.24 112.158 107.568V100.848H114.894V107.552C114.894 108.555 114.68 109.403 114.254 110.096C113.827 110.79 113.251 111.312 112.526 111.664C111.811 112.016 111.011 112.192 110.126 112.192C109.24 112.192 108.446 112.022 107.742 111.68C107.048 111.328 106.499 110.806 106.094 110.112C105.688 109.408 105.486 108.555 105.486 107.552V100.848H108.222Z" fill="white"/>
<path d="M414.062 -3.99996H365.117C363.138 -3.99996 361.178 -3.60989 359.35 -2.85205C357.521 -2.09421 355.86 -0.983466 354.462 0.416681C353.063 1.81683 351.954 3.47892 351.198 5.30791C350.442 7.1369 350.054 9.09692 350.057 11.0759V53.6631C350.054 55.6421 350.442 57.6021 351.198 59.4311C351.954 61.2601 353.063 62.9222 354.462 64.3223C355.86 65.7225 357.521 66.8332 359.35 67.5911C361.178 68.3489 363.138 68.739 365.117 68.739H379.359L367.434 92.4004L389.581 68.739H414.096C418.095 68.739 421.93 67.1506 424.757 64.3234C427.585 61.4961 429.173 57.6615 429.173 53.6631V11.0759C429.173 9.09325 428.782 7.13006 428.022 5.29874C427.262 3.46743 426.149 1.80396 424.745 0.403594C423.342 -0.996777 421.675 -2.10655 419.842 -2.86218C418.009 -3.6178 416.045 -4.00444 414.062 -3.99996Z" fill="#7E007E"/>
<path opacity="0.7" d="M414.062 -3.99996H365.117C363.138 -3.99996 361.178 -3.60989 359.35 -2.85205C357.521 -2.09421 355.86 -0.983466 354.462 0.416681C353.063 1.81683 351.954 3.47892 351.198 5.30791C350.442 7.1369 350.054 9.09692 350.057 11.0759V53.6631C350.054 55.6421 350.442 57.6021 351.198 59.4311C351.954 61.2601 353.063 62.9222 354.462 64.3223C355.86 65.7225 357.521 66.8332 359.35 67.5911C361.178 68.3489 363.138 68.739 365.117 68.739H379.359L367.434 92.4004L389.581 68.739H414.096C418.095 68.739 421.93 67.1506 424.757 64.3234C427.585 61.4961 429.173 57.6615 429.173 53.6631V11.0759C429.173 9.09325 428.782 7.13006 428.022 5.29874C427.262 3.46743 426.149 1.80396 424.745 0.403594C423.342 -0.996777 421.675 -2.10655 419.842 -2.86218C418.009 -3.6178 416.045 -4.00444 414.062 -3.99996Z" fill="white"/>
<path d="M387.042 43.0334C386.719 43.0341 386.398 42.9645 386.104 42.8292C385.81 42.6938 385.549 42.4961 385.339 42.2497L375.816 31.0238C375.625 30.8001 375.481 30.5411 375.391 30.2616C375.301 29.9822 375.267 29.6878 375.291 29.3951C375.314 29.1025 375.395 28.8174 375.529 28.5561C375.663 28.2948 375.847 28.0625 376.071 27.8723C376.295 27.6822 376.554 27.5379 376.833 27.4479C377.113 27.3578 377.407 27.3236 377.7 27.3474C377.992 27.3711 378.278 27.4522 378.539 27.5861C378.8 27.7201 379.033 27.9041 379.223 28.1278L387.059 37.3607L399.99 22.0293C400.374 21.5775 400.922 21.2968 401.513 21.2489C402.104 21.201 402.69 21.3898 403.142 21.7738C403.594 22.1578 403.874 22.7056 403.922 23.2966C403.97 23.8876 403.781 24.4735 403.397 24.9253L388.763 42.1646C388.558 42.427 388.297 42.6409 388 42.791C387.702 42.9412 387.375 43.0239 387.042 43.0334Z" fill="white"/>
<path d="M406.77 49.3587C416.257 39.8722 416.257 24.4916 406.77 15.005C397.282 5.51853 381.9 5.5185 372.413 15.005C362.926 24.4915 362.926 39.8722 372.413 49.3587C381.9 58.8453 397.282 58.8453 406.77 49.3587Z" fill="#7E007E"/>
<path d="M352.885 151.835C358.336 164.236 364.469 179.091 371.267 189.721C370.625 189.317 369.893 189.077 369.137 189.022C367.57 189.022 367.434 189.533 367.672 189.38C370.296 187.677 372.323 184.627 374.487 181.578C378.246 175.944 381.714 170.122 384.879 164.134C385.364 163.219 386.176 162.521 387.154 162.177C388.131 161.834 389.202 161.871 390.153 162.281C391.104 162.691 391.866 163.444 392.287 164.39C392.708 165.337 392.758 166.407 392.426 167.388C390.039 174.183 387.193 180.808 383.908 187.217C380.5 193.894 373.226 206.313 363.822 200.402C358.984 196.722 356.275 191.373 353.191 186.774C347.603 177.626 342.595 168.342 337.756 158.785C333.003 148.564 347.978 141.512 352.816 151.835H352.885Z" fill="#EBC0BB"/>
<path d="M348.063 146.231C355.491 146.691 367.911 170.079 367.911 170.079L345.15 186.944C345.15 186.944 341.095 152.431 341.095 152.38C341.095 152.329 348.063 146.231 348.063 146.231Z" fill="#263238"/>
<path opacity="0.7" d="M367.91 170.131L356.581 178.529L348.694 184.338L345.116 186.995C345.116 186.995 342.663 166.144 341.589 156.843C341.266 154.169 341.061 152.448 341.061 152.431C341.061 152.414 348.029 146.248 348.029 146.248C354.162 146.622 363.72 162.703 366.854 168.274C367.536 169.432 367.91 170.131 367.91 170.131Z" fill="white"/>
<path d="M367.893 167.643L371.096 171.289L350.312 186.995L346.734 180.965L367.893 167.643Z" fill="#263238"/>
<path opacity="0.8" d="M371.079 171.289L357.314 181.697L350.312 186.995L348.728 184.338L346.734 180.965L355.508 175.428L366.888 168.274L367.893 167.643L371.079 171.289Z" fill="white"/>
<path d="M371.13 162.669C371.088 162.825 371.079 162.989 371.105 163.149C371.132 163.309 371.192 163.461 371.283 163.595C371.373 163.73 371.492 163.843 371.63 163.927C371.768 164.011 371.923 164.064 372.084 164.083L384.623 165.787C384.972 165.831 385.326 165.747 385.618 165.549C385.909 165.352 386.119 165.054 386.207 164.713L392.409 140.388C392.455 140.221 392.467 140.047 392.444 139.875C392.422 139.704 392.365 139.539 392.278 139.389C392.191 139.24 392.074 139.11 391.936 139.006C391.797 138.903 391.639 138.828 391.472 138.786L378.933 137.083C378.568 137.091 378.215 137.217 377.927 137.44C377.639 137.664 377.43 137.975 377.332 138.326L371.13 162.669Z" fill="#263238"/>
<path opacity="0.5" d="M378.746 138.36L372.544 162.925C372.484 163.065 372.458 163.218 372.469 163.371C372.48 163.523 372.528 163.671 372.608 163.801C372.689 163.932 372.799 164.041 372.93 164.119C373.061 164.198 373.209 164.244 373.362 164.253L383.993 165.701C384.708 165.804 386.054 165.582 386.241 164.901L392.511 140.234C392.698 139.536 391.557 138.82 390.807 138.718L380.177 137.253C379.841 137.214 379.503 137.308 379.235 137.515C378.968 137.722 378.792 138.026 378.746 138.36Z" fill="white"/>
<path d="M392.766 166.57L391.199 152.431L382.017 163.095C382.017 163.095 380.04 172.226 388.337 171.613L392.766 166.57Z" fill="#EEC1BB"/>
<path d="M382.272 149.774L379.24 160.165L382.016 163.095L391.199 152.431L382.272 149.774Z" fill="#EEC1BB"/>
<path opacity="0.1" d="M361.181 178.801L350.397 186.995L348.813 184.338L345.235 186.995C345.235 186.995 342.782 166.144 341.709 156.843C343.685 158.496 359.222 160.847 361.181 178.801Z" fill="black"/>
<path d="M298.948 403.457L303.513 412.179C303.513 412.179 307.432 410.101 313.65 406.694C315.439 405.723 317.415 404.65 319.527 403.457C325.422 400.221 332.492 396.286 339.971 392.061L344.86 389.25C370.772 374.413 392.017 360.172 392.017 352.387C392.017 339.338 382.562 314.518 369.205 289.681C360.278 273.089 352.85 259.734 352.85 259.734L321.129 279.154C321.129 279.154 331.93 293.599 343.003 309.51C355.917 328.061 369.188 348.571 366.156 350.615C363.839 352.165 352.033 361.398 338.983 371.721L336.615 373.578C329.579 379.149 322.304 384.906 316.035 389.898L310.924 393.901L298.948 403.457Z" fill="#EEC1BB"/>
<path opacity="0.2" d="M321.112 279.154C321.112 279.154 331.913 293.599 342.986 309.51L369.137 289.681C360.21 273.089 352.782 259.734 352.782 259.734L321.112 279.154Z" fill="black"/>
<path opacity="0.2" d="M310.958 393.901L313.65 406.694C321.453 402.435 332.867 396.132 344.843 389.25C342.816 383.084 340.482 376.133 338.966 371.721C329.221 379.404 318.761 387.717 310.958 393.901Z" fill="black"/>
<path d="M284.961 295.286L291.077 313.922L292.321 317.755L301.639 346.118L302.696 349.372L308.863 368.11L316.018 389.915L319.323 399.999C319.323 401.141 319.442 402.299 319.528 403.406C322.662 451.581 347.757 514.542 347.757 514.542L356.718 512.106C353.532 474.271 346.734 430.168 339.954 392.01C338.83 385.673 337.722 379.489 336.547 373.527C335.916 370.12 335.303 366.901 334.707 363.715C333.412 356.901 332.186 350.53 330.976 344.568C330.414 341.74 329.869 339.031 329.357 336.391C328.046 329.884 326.853 324.092 325.797 319.118C324.741 314.143 323.906 310.038 323.224 306.887C322.236 302.304 321.691 299.749 321.691 299.749L284.961 295.286Z" fill="#EEC1BB"/>
<path d="M309.749 394.105C310.907 394.105 310.209 408.415 310.209 408.415C310.209 408.415 301.401 417.341 299.527 425.909C297.653 434.478 292.457 429.776 292.303 420.237C292.15 410.697 292.048 403.423 291.946 396.643C291.843 389.864 297.687 394.003 309.749 394.105Z" fill="#263238"/>
<path d="M306.665 415.995C306.892 413.926 307.468 411.91 308.369 410.033L308.471 409.914H308.556C308.601 409.892 308.651 409.881 308.701 409.881C308.751 409.881 308.8 409.892 308.846 409.914C308.982 409.914 312.338 411.106 313.173 413.031C313.307 413.322 313.377 413.639 313.377 413.959C313.377 414.28 313.307 414.597 313.173 414.888C312.883 415.535 312.474 415.859 311.997 415.842C311.248 415.842 310.481 414.803 309.834 413.644C310.037 414.719 309.931 415.83 309.527 416.847C309.433 417.038 309.299 417.206 309.135 417.341C308.97 417.476 308.779 417.575 308.573 417.63C308.318 417.742 308.035 417.771 307.763 417.713C307.491 417.654 307.244 417.513 307.057 417.307C306.773 416.931 306.634 416.465 306.665 415.995ZM308.658 411.344C307.789 413.457 307.04 416.097 307.602 416.762C307.602 416.762 307.806 416.983 308.369 416.847C308.581 416.771 308.757 416.619 308.863 416.421C309.256 414.741 309.185 412.987 308.658 411.344ZM312.628 413.832C312.623 413.637 312.577 413.445 312.491 413.269C311.745 412.151 310.658 411.302 309.391 410.85C310.226 412.963 311.367 414.99 312.014 415.024C312.202 415.024 312.389 414.7 312.474 414.496C312.567 414.304 312.619 414.095 312.628 413.883V413.832Z" fill="#7E007E"/>
<path d="M345.286 510.539C345.286 509.38 359.597 510.283 359.597 510.283C359.597 510.283 368.387 519.226 376.923 521.237C385.458 523.247 380.688 528.357 371.147 528.357H347.467C340.686 528.357 344.911 522.582 345.286 510.539Z" fill="#263238"/>
<path d="M367.025 513.946C364.964 513.692 362.964 513.081 361.113 512.14L360.977 512.038V511.953C360.943 511.859 360.943 511.756 360.977 511.663C360.977 511.527 362.237 508.256 364.18 507.387C364.468 507.253 364.782 507.184 365.1 507.184C365.417 507.184 365.731 507.253 366.02 507.387C366.667 507.694 366.991 508.103 366.957 508.58C366.957 509.329 365.9 510.096 364.742 510.709C365.822 510.522 366.933 510.646 367.945 511.067C368.132 511.164 368.297 511.299 368.428 511.463C368.56 511.627 368.657 511.817 368.711 512.021C368.813 512.283 368.833 512.569 368.769 512.842C368.705 513.116 368.56 513.364 368.354 513.554C367.972 513.84 367.5 513.98 367.025 513.946ZM362.408 511.884C364.52 512.787 367.144 513.588 367.808 513.026C367.808 513.026 368.047 512.821 367.911 512.259C367.882 512.152 367.831 512.053 367.76 511.967C367.69 511.882 367.601 511.813 367.502 511.765C366.463 511.169 364.026 511.544 362.408 511.884ZM364.98 507.966C364.781 507.963 364.583 508.004 364.401 508.086C363.275 508.818 362.415 509.893 361.948 511.152C364.06 510.351 366.105 509.227 366.139 508.597C366.139 508.392 365.832 508.205 365.628 508.12C365.425 508.023 365.205 507.971 364.98 507.966Z" fill="#7E007E"/>
<path opacity="0.7" d="M335.064 305.609L337.143 307.551L367.979 286.632L364.026 277.127C364.082 280.477 363.593 283.814 362.578 287.007C360.857 290.976 340.431 302.577 335.064 305.609Z" fill="white"/>
<path opacity="0.2" d="M284.961 295.286L291.077 313.922C307.926 317.925 318.829 319.22 325.848 319.169C324.826 314.212 323.957 310.089 323.276 306.938C322.287 302.355 321.742 299.8 321.742 299.8L284.961 295.286Z" fill="black"/>
<path d="M367.893 286.649L337.041 307.568L335.065 305.626L328.063 299.017V315.557L285.472 307.926C279.015 279.341 279.833 258.167 282.627 243.619C283.921 236.294 286.243 229.188 289.527 222.513L290.072 217.113L347.688 223.092L348.251 226.857L351.028 245.476L363.992 277.161L367.893 286.649Z" fill="#7E007E"/>
<path opacity="0.2" d="M327.978 299.016V280.619C327.978 280.619 336.206 294.383 334.979 305.609L327.978 299.016Z" fill="black"/>
<path d="M333.582 305.609L366.496 281.726L369.29 286.308L336.155 309.51L333.582 305.609Z" fill="#7E007E"/>
<path opacity="0.7" d="M333.582 305.609L366.496 281.726L369.29 286.308L336.155 309.51L333.582 305.609Z" fill="white"/>
<path d="M283.598 304.178L328.846 312.167V316.614L284.961 309.51L283.598 304.178Z" fill="#7E007E"/>
<path opacity="0.7" d="M283.598 304.178L328.846 312.167V316.614L284.961 309.51L283.598 304.178Z" fill="white"/>
<path opacity="0.2" d="M301.673 224.08C301.673 224.08 297.431 239.684 282.559 243.619C283.852 236.294 286.175 229.188 289.458 222.513L301.673 224.08Z" fill="black"/>
<path opacity="0.2" d="M351.028 245.442C345.525 240.127 343.94 226.823 343.94 226.823H348.251L351.028 245.442Z" fill="black"/>
<path opacity="0.2" d="M329.766 225.886C329.766 226.365 329.576 226.824 329.237 227.163C328.899 227.501 328.439 227.691 327.96 227.691C327.481 227.691 327.022 227.501 326.683 227.163C326.345 226.824 326.155 226.365 326.155 225.886C326.155 225.407 326.345 224.948 326.683 224.609C327.022 224.27 327.481 224.08 327.96 224.08C328.439 224.08 328.899 224.27 329.237 224.609C329.576 224.948 329.766 225.407 329.766 225.886Z" fill="black"/>
<path d="M290.668 219.14C277.346 216.108 290.498 216.295 286.17 156.111C285.889 153.066 286.131 149.995 286.886 147.031C287.574 144.686 289.07 142.66 291.11 141.312C293.149 139.965 295.6 139.384 298.028 139.672C300.345 139.928 302.406 140.166 302.866 140.183C304.11 140.183 305.387 140.268 306.665 140.354C315.35 140.706 323.999 141.685 332.543 143.284C334.656 143.709 336.819 144.22 338.932 144.714C339.613 144.885 347.45 146.094 348.063 146.265C348.063 146.265 357.024 160.182 356.207 170.267C355.747 175.888 353.838 180.028 353.685 193.519C353.344 224.182 359.75 223.245 346.445 224.182L290.668 219.14Z" fill="#263238"/>
<path opacity="0.7" d="M353.685 193.485C353.344 224.148 359.75 223.228 346.445 224.148L290.668 219.191C279.697 216.721 286.681 216.397 287.056 182.668C287.056 176.876 287.056 170.113 286.579 162.226C286.46 160.284 286.324 158.257 286.17 156.179C285.888 153.139 286.13 150.074 286.886 147.116C287.567 144.766 289.062 142.734 291.102 141.383C293.143 140.032 295.597 139.45 298.028 139.74C300.345 139.996 302.406 140.234 302.866 140.234C304.093 140.234 305.387 140.337 306.665 140.422C315.349 140.786 323.996 141.76 332.543 143.335C334.656 143.795 336.802 144.272 338.949 144.783C339.63 144.953 347.467 146.162 348.063 146.35C348.063 146.35 357.024 160.25 356.224 170.318C355.747 175.854 353.804 179.994 353.685 193.485Z" fill="white"/>
<path opacity="0.1" d="M318.829 181.817C318.829 181.817 307.006 194.644 287.056 182.6C287.056 176.808 287.056 170.045 286.579 162.158C294.298 159.395 302.296 157.487 310.43 156.469L318.829 181.817Z" fill="black"/>
<path d="M344.383 154.953L356.803 147.883L361.181 159.586C361.181 159.586 353.191 165.753 346.07 161.46L344.383 154.953Z" fill="#EEC1BB"/>
<path d="M366.973 147.61L368.132 157.116L361.181 159.62L356.803 147.917L366.973 147.61Z" fill="#EEC1BB"/>
<path d="M303.411 148.939C306.718 162.12 311.935 174.745 318.897 186.416L319.255 187.012C318.891 186.476 318.428 186.013 317.892 185.649C317.281 185.192 316.571 184.884 315.82 184.75C315.068 184.617 314.296 184.663 313.565 184.883C318.914 182.072 323.139 177.03 327.603 172.72C332.901 167.218 338.216 161.46 343.446 155.685C344.14 154.962 345.073 154.515 346.071 154.427C347.069 154.339 348.065 154.617 348.875 155.207C349.684 155.798 350.252 156.663 350.472 157.64C350.692 158.618 350.551 159.642 350.073 160.523C344.163 171.098 337.187 181.041 329.255 190.198C326.45 193.573 323.013 196.368 319.135 198.425C316.924 199.511 314.385 199.727 312.022 199.03C309.659 198.332 307.643 196.773 306.375 194.661C297.019 181.889 290.455 167.292 287.107 151.818C285.404 140.865 301.128 137.952 303.411 148.82V148.939Z" fill="#EBC0BB"/>
<path d="M296.699 139.621C287.67 138.548 282.15 149.058 284.995 173.197H313.224C313.224 173.197 311.555 141.325 296.699 139.621Z" fill="#263238"/>
<path opacity="0.7" d="M296.699 139.621C287.67 138.548 282.15 149.058 284.995 173.197H313.224C313.224 173.197 311.555 141.325 296.699 139.621Z" fill="white"/>
<path d="M283.564 167.643L314.178 171.289L314.28 175.411H284.245L283.564 167.643Z" fill="#263238"/>
<path opacity="0.8" d="M283.564 167.643L314.178 171.289L314.28 175.411H284.245L283.564 167.643Z" fill="white"/>
<path d="M319.544 70.732C319.544 70.732 326.035 66.0474 337.007 69.6418C347.978 73.2361 359.375 85.0583 354.35 102.008C349.324 118.958 349.954 129.775 349.954 129.775C349.954 129.775 312.236 123.523 304.178 116.147C296.119 108.771 297.397 66.3711 319.544 70.732Z" fill="#263238"/>
<path d="M311.759 111.377C313.071 119.895 314.127 135.533 308.079 140.49C315.716 144.911 323.6 148.892 331.691 152.414C337.33 146.009 333.974 143.386 333.974 143.386C324.775 140.098 325.269 133.165 327.16 126.845L311.759 111.377Z" fill="#EEC1BB"/>
<path opacity="0.2" d="M318.028 117.697L327.126 126.845C326.67 128.33 326.345 129.852 326.154 131.393C322.628 130.473 317.909 125.993 317.636 122.211C317.488 120.695 317.621 119.165 318.028 117.697Z" fill="black"/>
<path d="M313.599 89.5555C310.873 103.047 309.425 108.703 314.144 117.612C321.231 131.035 337.995 132.245 344.571 120.048C350.517 109.06 353.992 88.823 342.748 79.4368C340.402 77.3394 337.537 75.9075 334.451 75.2894C331.365 74.6714 328.17 74.8898 325.197 75.9219C322.223 76.954 319.58 78.7624 317.541 81.1595C315.502 83.5567 314.141 86.4555 313.599 89.5555Z" fill="#EEC1BB"/>
<path d="M328.761 98.1582C328.488 99.2825 328.761 100.373 329.528 100.594C330.294 100.816 331.027 100.1 331.231 98.8906C331.436 97.6812 331.231 96.6761 330.465 96.4376C329.698 96.1991 329.051 97.0339 328.761 98.1582Z" fill="#263238"/>
<path d="M342.526 102.144C342.254 103.269 342.526 104.359 343.293 104.597C344.06 104.836 344.775 104.086 344.997 102.894C345.218 101.701 344.997 100.679 344.23 100.458C343.463 100.236 342.799 101.003 342.526 102.144Z" fill="#263238"/>
<path d="M343.975 100.441H346.734C346.734 100.441 344.895 102.144 343.975 100.441Z" fill="#263238"/>
<path d="M337.756 103.252C338.074 106.127 338.761 108.95 339.801 111.65C339.141 111.882 338.438 111.96 337.743 111.877C337.049 111.794 336.383 111.553 335.797 111.173L337.756 103.252Z" fill="#D4827D"/>
<path d="M328.608 113.336C329.154 113.628 329.724 113.873 330.311 114.069C330.351 114.085 330.395 114.091 330.438 114.088C330.481 114.085 330.523 114.073 330.56 114.051C330.598 114.03 330.63 114.001 330.655 113.966C330.68 113.93 330.696 113.89 330.703 113.847C330.73 113.761 330.722 113.668 330.68 113.589C330.639 113.509 330.567 113.449 330.482 113.421C329.109 112.983 327.852 112.243 326.803 111.255C325.753 110.268 324.938 109.058 324.417 107.715C324.407 107.671 324.388 107.631 324.362 107.595C324.336 107.559 324.303 107.529 324.264 107.507C324.226 107.484 324.183 107.47 324.139 107.465C324.095 107.46 324.05 107.463 324.008 107.476C323.925 107.507 323.858 107.569 323.82 107.648C323.782 107.727 323.776 107.818 323.804 107.902C324.676 110.247 326.388 112.183 328.608 113.336Z" fill="#263238"/>
<path d="M328.505 90.4754C328.585 90.5133 328.673 90.533 328.761 90.533C328.849 90.533 328.937 90.5133 329.017 90.4754C329.744 90.1008 330.552 89.9125 331.37 89.9273C332.187 89.9422 332.989 90.1598 333.702 90.5606C333.772 90.6095 333.852 90.6432 333.936 90.6594C334.02 90.6757 334.106 90.6741 334.19 90.6548C334.273 90.6356 334.352 90.5991 334.42 90.5476C334.489 90.4962 334.546 90.431 334.587 90.3562C334.677 90.1968 334.702 90.0092 334.658 89.8318C334.614 89.6544 334.503 89.5007 334.349 89.4023C333.456 88.8768 332.444 88.5842 331.409 88.5514C330.373 88.5187 329.345 88.7468 328.42 89.2149C328.266 89.3044 328.152 89.4496 328.101 89.6206C328.05 89.7917 328.067 89.9756 328.148 90.1347C328.219 90.2901 328.347 90.4121 328.505 90.4754Z" fill="#263238"/>
<path d="M349.954 96.5398C350.029 96.5737 350.11 96.5912 350.193 96.5912C350.275 96.5912 350.356 96.5737 350.431 96.5398C350.515 96.5148 350.593 96.473 350.661 96.4169C350.728 96.3608 350.783 96.2917 350.823 96.2137C350.863 96.1356 350.886 96.0503 350.892 95.9629C350.898 95.8755 350.886 95.7878 350.857 95.7051C350.605 94.6477 350.11 93.6634 349.413 92.8298C348.715 91.9962 347.833 91.3359 346.837 90.9013C346.756 90.8725 346.671 90.8609 346.586 90.8671C346.5 90.8733 346.417 90.8972 346.342 90.9373C346.267 90.9774 346.201 91.0328 346.148 91.0999C346.095 91.167 346.057 91.2444 346.036 91.3271C345.986 91.5011 346.004 91.6875 346.086 91.8487C346.169 92.0099 346.309 92.134 346.479 92.1959C347.258 92.5601 347.944 93.0955 348.487 93.7622C349.03 94.4288 349.415 95.2094 349.613 96.0458C349.631 96.1479 349.671 96.2449 349.73 96.3302C349.788 96.4155 349.865 96.4871 349.954 96.5398Z" fill="#263238"/>
<path d="M330.209 96.4888H332.986C332.986 96.4888 331.129 98.2263 330.209 96.4888Z" fill="#263238"/>
<path d="M316.733 99.4868C316.733 99.4868 326.683 93.3884 327.892 78.3295C327.892 78.3295 344.486 77.8014 350.312 92.5025C350.312 92.5025 348.233 71.3623 324.553 70.4764C300.873 69.5906 307.397 95.6199 309.22 98.3285C311.043 101.037 316.733 99.4868 316.733 99.4868Z" fill="#263238"/>
<path d="M306.427 99.078C307.091 101.906 308.849 104.356 311.316 105.892C314.536 107.8 317.04 104.802 316.887 100.969C316.768 97.5619 314.945 92.3493 311.35 92.0256C307.755 91.7019 305.575 95.4666 306.427 99.078Z" fill="#EEC1BB"/>
<path fill-rule="evenodd" clip-rule="evenodd" d="M169.73 216.364C169.158 214.911 168.068 213.72 166.688 213.019C166.336 212.84 165.906 212.981 165.727 213.333C165.549 213.686 165.69 214.117 166.041 214.296C167.112 214.84 167.958 215.763 168.401 216.89C168.546 217.258 168.962 217.438 169.328 217.293C169.695 217.148 169.875 216.731 169.73 216.364Z" fill="white"/>
<path fill-rule="evenodd" clip-rule="evenodd" d="M161.15 210.481C157.577 211.323 154.88 214.446 154.673 218.232C154.463 218.339 154.27 218.479 154.1 218.649C153.676 219.073 153.439 219.648 153.439 220.248C153.439 220.848 153.676 221.423 154.1 221.847C154.523 222.271 155.097 222.509 155.695 222.509H171.117C171.716 222.509 172.289 222.271 172.713 221.847C173.136 221.423 173.374 220.848 173.374 220.248C173.374 219.648 173.136 219.073 172.713 218.649C172.568 218.505 172.407 218.382 172.233 218.283C172.046 214.441 169.297 211.274 165.663 210.46V210.196C165.663 208.947 164.652 207.935 163.406 207.935C162.16 207.935 161.15 208.947 161.15 210.196L161.15 210.481ZM171.117 219.418H155.695C155.476 219.418 155.266 219.506 155.11 219.661C154.955 219.817 154.868 220.028 154.868 220.248C154.868 220.468 154.955 220.679 155.11 220.835C155.266 220.99 155.476 221.078 155.695 221.078H171.117C171.337 221.078 171.547 220.99 171.703 220.835C171.858 220.679 171.945 220.468 171.945 220.248C171.945 220.028 171.858 219.817 171.703 219.661C171.547 219.506 171.337 219.418 171.117 219.418ZM170.779 217.986H156.125C156.483 214.449 159.464 211.688 163.089 211.688H163.815C167.44 211.688 170.421 214.448 170.779 217.986ZM164.234 210.266V210.195C164.234 209.737 163.863 209.366 163.406 209.366C162.949 209.366 162.579 209.737 162.579 210.195V210.271C162.747 210.261 162.918 210.256 163.089 210.256H163.815C163.956 210.256 164.095 210.259 164.234 210.266Z" fill="white"/>
<path fill-rule="evenodd" clip-rule="evenodd" d="M155.375 224.828H171.53C171.924 224.828 172.244 224.507 172.244 224.112C172.244 223.717 171.924 223.397 171.53 223.397H155.375C154.98 223.397 154.66 223.717 154.66 224.112C154.66 224.507 154.98 224.828 155.375 224.828Z" fill="white"/>
<path fill-rule="evenodd" clip-rule="evenodd" d="M160.002 227.25H166.904C167.298 227.25 167.618 226.929 167.618 226.534C167.618 226.14 167.298 225.819 166.904 225.819H160.002C159.608 225.819 159.287 226.14 159.287 226.534C159.287 226.929 159.608 227.25 160.002 227.25Z" fill="white"/>
<path fill-rule="evenodd" clip-rule="evenodd" d="M150.68 201.844C150.375 202.23 150.193 202.718 150.193 203.25V204.12H149.205C148.326 204.12 147.484 204.469 146.863 205.092C146.242 205.714 145.893 206.558 145.893 207.439C145.893 208.319 146.242 209.163 146.863 209.786C147.484 210.408 148.326 210.758 149.205 210.758H150.193V215.385H149.205C148.326 215.385 147.484 215.734 146.863 216.357C146.242 216.979 145.893 217.824 145.893 218.703V218.704C145.893 219.584 146.242 220.429 146.863 221.05C147.484 221.673 148.326 222.023 149.205 222.023H150.193V226.649H149.205C148.326 226.649 147.484 226.998 146.863 227.621C146.242 228.243 145.893 229.088 145.893 229.968V229.968C145.893 230.848 146.242 231.693 146.863 232.315C147.484 232.938 148.326 233.287 149.205 233.287H150.193V234.158C150.193 235.407 151.203 236.419 152.449 236.419H174.365C175.611 236.419 176.621 235.407 176.621 234.158V203.25C176.621 202.125 175.802 201.192 174.728 201.018V197.147C174.728 196.436 174.395 195.767 173.829 195.341C173.262 194.913 172.528 194.777 171.847 194.974C167.173 196.323 155.525 199.685 151.87 200.74C151.625 200.811 151.38 200.977 151.168 201.205C150.978 201.409 150.81 201.667 150.68 201.845L150.68 201.844ZM175.192 203.25V234.157C175.192 234.616 174.821 234.987 174.364 234.987H152.449C151.992 234.987 151.621 234.616 151.621 234.157V203.25C151.621 202.792 151.992 202.42 152.449 202.42H174.364C174.821 202.42 175.192 202.792 175.192 203.25ZM150.193 228.832V228.08H149.206C148.706 228.08 148.227 228.279 147.873 228.633C147.52 228.987 147.322 229.467 147.322 229.967V229.968C147.322 230.468 147.52 230.948 147.873 231.302C148.227 231.656 148.705 231.855 149.206 231.855H150.193V231.103H149.465C149.164 231.103 148.876 230.984 148.664 230.77C148.451 230.558 148.332 230.268 148.332 229.968C148.332 229.666 148.451 229.377 148.664 229.165C148.876 228.951 149.164 228.832 149.465 228.832L150.193 228.832ZM150.193 217.568V216.816H149.206C148.706 216.816 148.227 217.015 147.873 217.369C147.52 217.722 147.322 218.203 147.322 218.703V218.704C147.322 219.204 147.52 219.684 147.873 220.038C148.227 220.392 148.705 220.591 149.206 220.591H150.193V219.839H149.465C149.164 219.839 148.876 219.719 148.664 219.506C148.451 219.294 148.332 219.004 148.332 218.704V218.703C148.332 218.402 148.451 218.113 148.664 217.9C148.876 217.687 149.164 217.568 149.465 217.568L150.193 217.568ZM150.193 206.304V205.552H149.206C148.706 205.552 148.227 205.75 147.873 206.105C147.52 206.458 147.322 206.938 147.322 207.439C147.322 207.94 147.52 208.42 147.873 208.774C148.227 209.127 148.705 209.326 149.206 209.326H150.193V208.575H149.465C149.164 208.575 148.876 208.455 148.664 208.242C148.451 208.029 148.332 207.74 148.332 207.439C148.332 207.138 148.451 206.849 148.664 206.636C148.876 206.423 149.164 206.303 149.465 206.303L150.193 206.304ZM173.299 200.988V197.146C173.299 196.885 173.177 196.641 172.969 196.484C172.762 196.327 172.493 196.277 172.243 196.349L156.172 200.988L173.299 200.988Z" fill="white"/>
</g>
<defs>
<clipPath id="clip0_1_5586">
<rect width="504" height="586" fill="white"/>
</clipPath>
</defs>
</svg>
