<svg width="37" height="50" viewBox="0 0 37 50" fill="none" xmlns="http://www.w3.org/2000/svg">
<path d="M18.5028 11.0999C22.8816 11.0999 26.4314 14.8271 26.4314 19.4249C26.4314 24.0226 22.8816 27.7499 18.5028 27.7499C14.124 27.7499 10.5742 24.0226 10.5742 19.4249C10.5742 14.8271 14.124 11.0999 18.5028 11.0999ZM18.5028 14.1832C15.8614 14.1832 13.6576 16.4972 13.6576 19.4249C13.6576 22.3525 15.8614 24.6665 18.5028 24.6665C21.1442 24.6665 23.348 22.3525 23.348 19.4249C23.348 16.4972 21.1442 14.1832 18.5028 14.1832Z" fill="#7E007E"/>
<path d="M18.5 0C28.7173 0 37 9.11933 37 20.3686C37 31.6179 18.5 49.5443 18.5 49.3319L18.42 49.232C17.1043 47.7825 0 31.1852 0 20.3686C0 9.11933 8.28273 0 18.5 0ZM17.8567 44.1877L18.5811 44.9536L19.1547 44.3548L20.3967 43.0238C22.0606 41.2092 23.7463 39.2447 25.3295 37.2384C30.6867 30.4492 33.9167 24.3796 33.9167 20.3686C33.9167 10.7595 26.9447 3.08333 18.5 3.08333C10.0553 3.08333 3.08333 10.7595 3.08333 20.3686C3.08333 22.5348 4.0562 25.3876 5.91302 28.7092C7.3766 31.3273 9.33006 34.1399 11.662 37.0684C13.1221 38.9019 14.6532 40.6874 16.245 42.4423L17.8567 44.1877Z" fill="#7E007E"/>
</svg>
