<svg width="54" height="54" viewBox="0 0 54 54" fill="none" xmlns="http://www.w3.org/2000/svg">
<path d="M5.30439 36.7891C8.52245 41.4437 12.5563 45.4775 17.2109 48.6956L20.4134 50.9147C23.7506 53.2271 27.7938 54.2943 31.8375 53.93C35.8812 53.5657 39.6685 51.7931 42.5387 48.9215L43.9672 47.4929C44.7507 46.7071 45.1906 45.6426 45.1906 44.5329C45.1906 43.4232 44.7507 42.3588 43.9672 41.5729L38.2997 35.9054C37.5138 35.1219 36.4494 34.682 35.3397 34.682C34.23 34.682 33.1655 35.1219 32.3797 35.9054L28.8981 39.387C28.614 39.6708 28.2405 39.8477 27.8409 39.8877C27.4413 39.9276 27.0401 39.8282 26.7055 39.6062C21.8195 36.357 17.6296 32.1672 14.3804 27.2812C14.1584 26.9465 14.059 26.5454 14.099 26.1458C14.1389 25.7462 14.3158 25.3727 14.5997 25.0886L18.0813 21.607C18.8647 20.8211 19.3047 19.7567 19.3047 18.647C19.3047 17.5373 18.8647 16.4729 18.0813 15.687L12.4204 10.0261C11.6345 9.24262 10.5701 8.80267 9.46036 8.80267C8.35066 8.80267 7.28623 9.24262 6.50035 10.0261L5.07848 11.4612C2.20685 14.3314 0.434217 18.1188 0.069921 22.1625C-0.294375 26.2062 0.772798 30.2494 3.08521 33.5866L5.30439 36.7891ZM6.96545 13.3416L8.4006 11.9131C8.5426 11.7704 8.71136 11.6572 8.89722 11.58C9.08307 11.5028 9.28235 11.463 9.48361 11.463C9.68487 11.463 9.88415 11.5028 10.07 11.58C10.2559 11.6572 10.4246 11.7704 10.5666 11.9131L16.2275 17.5739C16.514 17.8616 16.6748 18.251 16.6748 18.657C16.6748 19.0629 16.514 19.4523 16.2275 19.74L12.7459 23.2215C12.0299 23.9404 11.584 24.8844 11.4835 25.894C11.3831 26.9036 11.6342 27.917 12.1945 28.7628C15.6353 33.9353 20.0712 38.3713 25.2437 41.8121C26.0896 42.3724 27.103 42.6235 28.1126 42.523C29.1222 42.4226 30.0662 41.9767 30.785 41.2607L34.2666 37.7791C34.5543 37.4926 34.9437 37.3318 35.3496 37.3318C35.7556 37.3318 36.145 37.4926 36.4326 37.7791L42.0935 43.44C42.2362 43.582 42.3493 43.7507 42.4266 43.9366C42.5038 44.1224 42.5436 44.3217 42.5436 44.523C42.5436 44.7242 42.5038 44.9235 42.4266 45.1094C42.3493 45.2952 42.2362 45.464 42.0935 45.606L40.665 47.0345C38.2348 49.467 35.0273 50.9685 31.6028 51.277C28.1782 51.5854 24.7541 50.6812 21.9283 48.7221L18.7257 46.5096C14.3334 43.473 10.5269 39.6666 7.49034 35.2742L5.27781 32.0717C3.31877 29.2459 2.41454 25.8218 2.72299 22.3972C3.03145 18.9726 4.53299 15.7652 6.96545 13.3349V13.3416Z" fill="#7E007E"/>
<path d="M24.2663 0C23.9139 0 23.5759 0.140003 23.3267 0.389211C23.0775 0.638418 22.9375 0.976415 22.9375 1.32885C22.9375 1.68128 23.0775 2.01928 23.3267 2.26848C23.5759 2.51769 23.9139 2.65769 24.2663 2.65769C31.4445 2.66649 38.326 5.52187 43.4017 10.5976C48.4774 15.6733 51.3328 22.5549 51.3416 29.733C51.3416 30.0854 51.4816 30.4234 51.7308 30.6726C51.98 30.9218 52.318 31.0618 52.6705 31.0618C53.0229 31.0618 53.3609 30.9218 53.6101 30.6726C53.8593 30.4234 53.9993 30.0854 53.9993 29.733C53.9905 21.85 50.8551 14.2924 45.281 8.71829C39.7069 3.14419 32.1493 0.00879306 24.2663 0Z" fill="#7E007E"/>
<path d="M42.0995 29.733C42.0995 30.0854 42.2395 30.4234 42.4887 30.6726C42.7379 30.9219 43.0759 31.0619 43.4283 31.0619C43.7808 31.0619 44.1188 30.9219 44.368 30.6726C44.6172 30.4234 44.7572 30.0854 44.7572 29.733C44.7501 24.3007 42.589 19.0928 38.7478 15.2516C34.9065 11.4103 29.6987 9.24922 24.2663 9.24219C23.9139 9.24219 23.5759 9.38219 23.3267 9.6314C23.0775 9.8806 22.9375 10.2186 22.9375 10.571C22.9375 10.9235 23.0775 11.2615 23.3267 11.5107C23.5759 11.7599 23.9139 11.8999 24.2663 11.8999C28.9944 11.9052 33.5272 13.7857 36.8704 17.1289C40.2137 20.4721 42.0942 25.005 42.0995 29.733Z" fill="#7E007E"/>
<path d="M22.9375 20.6902C22.9375 21.0426 23.0775 21.3806 23.3267 21.6298C23.5759 21.879 23.9139 22.019 24.2663 22.019C26.3111 22.0225 28.2712 22.8364 29.7171 24.2823C31.1629 25.7282 31.9768 27.6882 31.9803 29.733C31.9803 30.0854 32.1203 30.4234 32.3695 30.6726C32.6187 30.9218 32.9567 31.0618 33.3092 31.0618C33.6616 31.0618 33.9996 30.9218 34.2488 30.6726C34.498 30.4234 34.638 30.0854 34.638 29.733C34.6345 26.9833 33.5406 24.3473 31.5963 22.403C29.652 20.4587 27.016 19.3648 24.2663 19.3613C23.9139 19.3613 23.5759 19.5013 23.3267 19.7505C23.0775 19.9997 22.9375 20.3377 22.9375 20.6902Z" fill="#7E007E"/>
</svg>
