<svg width="445" height="295" viewBox="0 0 445 295" fill="none" xmlns="http://www.w3.org/2000/svg">
<g opacity="0.9">
<g clip-path="url(#clip0_114_2257)">
<path opacity="0.2" d="M18.339 270.352C18.339 270.352 -26.4774 218.122 24.009 161.288C64.7017 115.476 51.7094 97.7597 49.8311 66.8607C48.2424 40.7137 77.8987 2.04753 122.277 0.119866C195.013 -3.04347 215.659 57.4695 254.276 55.8172C292.893 54.165 307.799 3.50916 352.657 8.83317C435.893 18.7186 424.673 97.6044 412.542 156.571C400.411 215.538 436.86 235.669 410.628 270.402" fill="#F5B5FF"/>
<path opacity="0.2" d="M259.522 47.7041C262.707 48.4032 266.019 48.036 269.069 46.8851C273.588 45.1833 281.115 41.6387 287.046 35.3262C296.141 25.6384 298.704 25.3772 301.077 21.6207C303.442 17.8642 301.07 9.36276 284.264 16.0849C268.681 22.3127 240.705 43.5876 259.522 47.7041Z" fill="#F9B5FF"/>
<path opacity="0.2" d="M12.351 170.594C15.0625 167.431 17.8728 164.338 20.7395 161.309C25.2303 156.564 31.1334 149.467 31.8395 144.299C32.9975 135.847 24.5666 136.454 16.9266 143.967C3.99077 156.698 -0.824845 185.959 12.351 170.594Z" fill="#F9B5FF"/>
<path d="M110.463 239.785C112.666 234.129 113.061 227.901 112.525 221.907C112.094 217.07 111.261 211.915 109.425 207.41C107.794 203.414 104.581 205.137 101.481 203.548C99.4973 202.531 98.8053 200.025 98.8053 197.8C98.8053 195.654 99.2572 193.458 98.7841 191.325C98.431 189.758 97.3154 187.95 95.6984 187.456C93.686 186.835 91.9561 188.84 90.0779 187.23C89.2023 186.482 88.7363 185.366 88.4115 184.257C87.6489 181.659 86.8298 179.131 85.6294 176.688C84.542 174.478 82.6497 172.07 80.2207 172.451C77.8905 172.818 76.7678 175.53 76.5348 177.881C75.977 183.537 78.0812 189.207 81.3292 193.86C82.2189 195.131 83.2075 196.367 83.7018 197.836C84.2031 199.304 84.0972 201.098 82.9957 202.185C82.4025 202.771 81.5905 203.089 80.9691 203.647C79.2462 205.193 79.5146 208.046 80.6585 210.051C83.6029 215.227 89.9225 214.57 94.1874 218.065C99.0242 222.027 104.758 229.709 103.826 236.396" fill="#D09ED4"/>
<path opacity="0.5" d="M105.443 230.542C105.514 222.359 102.873 214.005 98.0503 207.156C95.0493 202.891 91.2646 199.241 88.0942 195.096C84.9309 190.951 81.125 185.239 81.125 176.829" stroke="white" stroke-width="0.629137" stroke-miterlimit="10" stroke-linecap="round" stroke-linejoin="round"/>
<path d="M206.846 270.345C159.431 270.324 91.7368 270.494 47.6125 270.324C46.1296 270.317 41.3917 268.764 49.4413 263.574C56.2622 259.175 77.8195 263.129 77.8195 263.129C77.8195 263.129 72.7991 261.117 72.8274 258.518C72.8486 255.92 74.8186 253.639 77.184 252.566C79.5495 251.485 82.2397 251.408 84.8311 251.556C90.1057 251.86 95.3309 253.025 100.231 255.002C98.1553 253.724 97.5198 250.589 98.9391 248.604C100.358 246.62 103.529 246.204 105.414 247.75C102.102 243.266 96.9832 223.397 112.715 214.634C132.437 203.654 147.413 212.692 150.605 219.294C152.229 212.812 159.664 207.898 164.564 206.683C175.742 203.908 183.022 204.727 193.458 209.606C197.151 211.329 202.094 217.218 204.544 220.466C208.385 225.557 208.985 232.336 209.197 238.712C209.359 243.499 209.381 248.287 209.261 253.074" fill="#B789E5"/>
<path d="M221.122 270.345C268.537 270.324 336.231 270.494 380.355 270.324C381.838 270.317 386.576 268.764 378.527 263.574C371.706 259.175 350.148 263.129 350.148 263.129C350.148 263.129 355.169 261.117 355.141 258.518C355.119 255.92 353.149 253.639 350.784 252.566C348.418 251.485 345.728 251.408 343.137 251.556C337.862 251.86 332.637 253.025 327.737 255.002C329.813 253.724 330.448 250.589 329.029 248.604C327.61 246.62 324.439 246.204 322.554 247.75C325.866 243.266 330.985 223.397 315.253 214.634C295.531 203.654 280.555 212.692 277.363 219.294C275.739 212.812 268.304 207.898 263.404 206.683C252.226 203.908 244.946 204.727 234.51 209.606C230.817 211.329 225.874 217.218 223.424 220.466C219.583 225.557 218.983 232.336 218.771 238.712C218.609 243.499 218.587 248.287 218.707 253.074" fill="#E3B5FF"/>
<path d="M187.846 270.353C187.846 270.353 161.43 270.353 155.019 270.353C148.615 270.353 149.652 262.755 167.475 266.137C163.104 264.139 163.075 261.463 163.45 260.75C163.789 260.093 165.038 259.669 165.773 259.733C168.039 259.93 169.762 261.314 171.746 262.423C168.152 260.086 165.921 255.8 166.069 251.514C166.112 250.335 166.366 249.071 167.227 248.273C168.202 247.376 169.791 246.776 171.09 247.037C173.498 247.517 177.911 251.528 179.676 253.237C170.701 244.975 167.277 231.969 173.024 228.996C182.698 223.997 190.013 252.312 190.013 252.312C190.013 252.312 185.198 231.037 193.276 230.917C201.346 230.79 194.787 255.63 194.787 255.63" fill="#BA6DC1"/>
<path d="M245.449 270.352C245.449 270.352 275.952 270.352 283.345 270.352C290.738 270.352 289.538 261.583 268.969 265.487C274.018 263.178 274.046 260.093 273.615 259.267C273.22 258.511 271.779 258.024 270.932 258.095C268.312 258.32 266.328 259.923 264.033 261.201C268.178 258.504 270.763 253.554 270.593 248.605C270.544 247.242 270.254 245.787 269.252 244.862C268.129 243.824 266.293 243.132 264.796 243.436C262.021 243.987 256.916 248.619 254.882 250.589C265.248 241.056 269.195 226.03 262.558 222.599C251.387 216.83 242.949 249.515 242.949 249.515C242.949 249.515 248.506 224.95 239.186 224.809C229.865 224.668 237.442 253.342 237.442 253.342" fill="#BA6DC1"/>
<path d="M386.873 254.768C386.873 254.768 352.698 208.603 363.423 198.746C374.142 188.882 389.818 223.615 386.873 254.768Z" fill="#D6D4FF"/>
<path d="M366.622 204.211C371.417 211.555 375.484 219.35 378.718 227.506C381.627 234.842 383.893 242.44 385.581 250.15C386.012 252.113 386.386 254.076 386.76 256.053C387.12 257.932 387.396 259.831 387.784 261.709C387.833 261.942 388.229 261.893 388.208 261.653C387.939 258.186 387.262 254.719 386.57 251.315C385.807 247.573 384.903 243.852 383.858 240.173C381.584 232.18 378.598 224.371 374.827 216.964C372.532 212.459 369.969 208.109 367.067 203.971C366.869 203.703 366.446 203.943 366.622 204.211Z" fill="#E62375"/>
<path d="M365.739 210.531C367.18 211.541 368.642 212.522 370.047 213.581C370.788 214.139 371.515 214.704 372.236 215.29C372.885 215.82 373.535 216.505 374.29 216.886C374.446 216.964 374.65 216.801 374.545 216.632C374.093 215.926 373.323 215.375 372.688 214.838C371.974 214.238 371.254 213.652 370.513 213.087C369.072 212 367.582 210.941 365.951 210.164C365.704 210.044 365.513 210.376 365.739 210.531Z" fill="#E62375"/>
<path d="M366.798 213.299C368.238 214.309 369.7 215.29 371.105 216.349C371.847 216.907 372.574 217.472 373.294 218.058C373.944 218.588 374.593 219.273 375.349 219.654C375.504 219.732 375.709 219.569 375.603 219.4C375.151 218.694 374.382 218.143 373.746 217.606C373.033 217.006 372.313 216.42 371.571 215.855C370.131 214.768 368.641 213.709 367.01 212.932C366.763 212.812 366.572 213.144 366.798 213.299Z" fill="#E62375"/>
<path d="M393.85 249.48C393.85 249.48 426.796 202.432 415.816 192.857C404.837 183.289 390.086 218.418 393.85 249.48Z" fill="#D6D4FF"/>
<path d="M412.329 198.167C407.118 206.04 403.029 214.641 399.901 223.538C397.105 231.481 395.086 239.679 393.723 247.983C393.384 250.038 393.08 252.1 392.84 254.168C392.614 256.153 392.374 258.144 392.311 260.135C392.304 260.375 392.699 260.439 392.734 260.191C393.278 256.612 393.645 253.01 394.217 249.438C394.846 245.519 395.615 241.621 396.547 237.766C398.616 229.158 401.441 220.727 405.112 212.671C407.351 207.763 409.921 203.004 412.759 198.415C412.922 198.146 412.505 197.899 412.329 198.167Z" fill="#E62375"/>
<path d="M394.805 226.948C394.713 229.031 394.84 231.135 394.974 233.211C395.038 234.157 395.122 235.097 395.207 236.043C395.285 236.883 395.278 237.865 395.574 238.669C395.631 238.818 395.899 238.867 395.927 238.669C396.061 237.85 395.899 236.947 395.843 236.12C395.772 235.153 395.716 234.186 395.652 233.218C395.511 231.128 395.447 229.031 395.228 226.955C395.207 226.68 394.819 226.673 394.805 226.948Z" fill="#0E7C74"/>
<path d="M391.27 232.802C391.27 232.802 358.112 185.902 369.049 176.285C379.98 166.654 394.892 201.719 391.27 232.802Z" fill="#A29EE5"/>
<path d="M372.127 181.821C375.34 186.94 378.2 192.279 380.643 197.807C382.952 203.025 384.915 208.399 386.546 213.871C388.036 218.877 389.257 223.961 390.225 229.095C391.086 233.67 391.75 238.274 392.216 242.906C392.604 246.783 392.865 250.666 393.07 254.55C393.091 254.98 393.127 255.404 393.155 255.828C393.176 256.103 393.579 256.11 393.586 255.828C393.677 252.022 393.409 248.181 393.077 244.389C392.675 239.806 392.082 235.245 391.298 230.712C390.408 225.578 389.264 220.494 387.845 215.488C386.306 210.079 384.449 204.755 382.224 199.587C379.838 194.037 377.077 188.628 373.829 183.53C373.412 182.873 372.982 182.217 372.551 181.56C372.381 181.306 371.958 181.546 372.127 181.821Z" fill="#E62375"/>
<path d="M389.282 246.479C389.282 246.479 409.688 218.432 403.164 212.536C396.639 206.633 387.354 227.682 389.282 246.479Z" fill="#CA12A1"/>
<path d="M400.92 215.65C396.846 221.504 393.838 228.07 391.698 234.856C389.891 240.597 388.719 246.528 388.055 252.509C387.772 255.093 387.497 257.755 387.61 260.36C387.624 260.643 388.005 260.629 388.041 260.36C388.316 258.08 388.422 255.778 388.669 253.497C388.959 250.757 389.368 248.032 389.884 245.327C391.112 238.944 392.976 232.674 395.575 226.715C397.206 222.965 399.162 219.35 401.351 215.897C401.52 215.629 401.096 215.396 400.92 215.65Z" fill="#E62375"/>
<path d="M402.957 245.13L402.802 246.196L402.463 248.477L399.201 270.352H379.762L376.499 248.477L376.16 246.196L375.998 245.13H402.957Z" fill="#CA2AC3"/>
<path d="M402.801 246.196L402.462 248.477H376.499L376.16 246.196H402.801Z" fill="#E62375"/>
<path d="M403.338 247.185H375.624C374.734 247.185 374.014 246.464 374.014 245.575C374.014 244.685 374.734 243.965 375.624 243.965H403.338C404.228 243.965 404.948 244.685 404.948 245.575C404.948 246.464 404.228 247.185 403.338 247.185Z" fill="#A29EE5"/>
<path d="M242.158 263.757H186.242L192.315 239.877L193.692 234.461L196.368 223.976H232.033L234.709 234.461L236.086 239.877L242.158 263.757Z" fill="#850888"/>
<path d="M236.086 239.877H192.314L193.691 234.461H234.709L236.086 239.877Z" fill="#2C0624"/>
<path d="M332.56 92.365V228.728C332.56 231.969 329.927 234.602 326.686 234.602H101.728C98.4732 234.602 95.8535 231.969 95.8535 228.728V92.365C95.8535 89.124 98.4802 86.4902 101.728 86.4902H326.686C329.927 86.4902 332.56 89.124 332.56 92.365Z" fill="#5F2C9F"/>
<path d="M263.617 270.352H164.783C162.411 270.352 160.49 268.432 160.49 266.059C160.49 263.687 162.411 261.766 164.783 261.766H263.617C265.989 261.766 267.91 263.687 267.91 266.059C267.91 268.432 265.989 270.352 263.617 270.352Z" fill="#774CC9"/>
<path d="M327.794 90.8047H100.182V211.012H327.794V90.8047Z" fill="#EEBEFF"/>
<path d="M214.189 227.88C211.188 227.88 208.73 225.423 208.73 222.422C208.73 219.421 211.188 216.964 214.189 216.964C217.19 216.964 219.647 219.421 219.647 222.422C219.64 225.423 217.19 227.88 214.189 227.88Z" fill="#2C0624"/>
<path opacity="0.5" d="M247.081 195.279H243.035V204.113H247.081V195.279Z" fill="#B144C3"/>
<path opacity="0.5" d="M251.692 195.279H247.646V204.113H251.692V195.279Z" fill="#B144C3"/>
<path opacity="0.5" d="M256.296 195.279H252.25V204.113H256.296V195.279Z" fill="#B144C3"/>
<path d="M173.386 195.279H169.34V204.113H173.386V195.279Z" fill="#B144C3"/>
<path d="M177.995 195.279H173.949V204.113H177.995V195.279Z" fill="#B144C3"/>
<path d="M182.601 195.279H178.555V204.113H182.601V195.279Z" fill="#B144C3"/>
<path d="M187.204 195.279H183.158V204.113H187.204V195.279Z" fill="#B144C3"/>
<path d="M191.815 195.279H187.77V204.113H191.815V195.279Z" fill="#B144C3"/>
<path d="M196.417 195.279H192.371V204.113H196.417V195.279Z" fill="#B144C3"/>
<path d="M201.024 195.279H196.979V204.113H201.024V195.279Z" fill="#B144C3"/>
<path d="M205.634 195.279H201.588V204.113H205.634V195.279Z" fill="#B144C3"/>
<path opacity="0.5" d="M210.235 195.279H206.189V204.113H210.235V195.279Z" fill="#B144C3"/>
<path opacity="0.5" d="M214.843 195.279H210.797V204.113H214.843V195.279Z" fill="#B144C3"/>
<path opacity="0.5" d="M219.452 195.279H215.406V204.113H219.452V195.279Z" fill="#B144C3"/>
<path opacity="0.5" d="M224.056 195.279H220.01V204.113H224.056V195.279Z" fill="#B144C3"/>
<path opacity="0.5" d="M228.659 195.279H224.613V204.113H228.659V195.279Z" fill="#B144C3"/>
<path opacity="0.5" d="M233.271 195.279H229.225V204.113H233.271V195.279Z" fill="#B144C3"/>
<path opacity="0.5" d="M237.874 195.279H233.828V204.113H237.874V195.279Z" fill="#B144C3"/>
<path opacity="0.5" d="M242.478 195.279H238.432V204.113H242.478V195.279Z" fill="#B144C3"/>
<path d="M257.467 194.284H168.498V205.108H257.467V194.284Z" stroke="#B144C3" stroke-width="0.529577" stroke-miterlimit="10"/>
<path opacity="0.25" d="M173.499 99.8496C172.39 99.8496 171.486 100.753 171.486 101.862V186.665C171.486 187.774 172.39 188.677 173.499 188.677H258.443C259.551 188.677 260.455 187.774 260.455 186.665V127.543L232.762 99.8496H173.499Z" fill="#B144C3"/>
<path d="M170.51 96.8628C169.402 96.8628 168.498 97.7666 168.498 98.8752V183.678C168.498 184.787 169.402 185.691 170.51 185.691H255.455C256.563 185.691 257.467 184.787 257.467 183.678V124.556L229.774 96.8628H170.51Z" fill="#B144C3"/>
<path d="M231.784 124.556H257.465L229.771 96.8628V122.544C229.771 123.659 230.668 124.556 231.784 124.556Z" fill="#9D1EB2"/>
<path d="M214.226 114.6L201.686 127.508H206.473V148.705H221.972V127.508H226.759L214.226 114.6Z" fill="#F49FF1"/>
<path d="M236.905 144.489V161.238H191.545V144.489H198.839V154.142H229.611V144.489H236.905Z" fill="#F49FF1"/>
<path opacity="0.2" d="M230.933 234.496H214.939L256.988 86.4902H272.974L230.933 234.496Z" fill="url(#paint0_linear_114_2257)"/>
<path opacity="0.2" d="M271.094 234.496H237.18L279.221 86.4902H313.142L271.094 234.496Z" fill="url(#paint1_linear_114_2257)"/>
<path d="M44.4705 244.827C46.7018 237.144 45.0424 228.869 42.4087 221.314C41.7732 219.499 41.053 217.649 39.6972 216.286C39.0053 215.587 38.045 215.015 37.0776 215.213C35.6654 215.502 35.0723 217.183 34.9099 218.616C33.9072 227.669 39.8667 235.965 41.3778 244.947" fill="#A31E9E" fill-opacity="0.57"/>
<path d="M50.8187 240.971C51.2565 238.691 51.8637 236.424 52.9441 234.369C54.0244 232.315 55.6131 230.479 57.6679 229.398C58.5788 228.918 59.7933 228.629 60.5629 229.314C61.4103 230.062 61.1349 231.453 60.6335 232.463C57.8939 238.02 50.8964 240.512 48.2344 246.112" fill="#A31E9E" fill-opacity="0.57"/>
<path d="M47.5921 245.505C49.3291 242.264 51.0026 238.952 51.9629 235.401C52.9232 231.849 53.128 228.008 51.9276 224.527C51.5604 223.453 50.6354 222.225 49.5622 222.599C49.1667 222.733 48.8772 223.072 48.623 223.404C46.6248 226.031 45.8551 229.392 45.495 232.675C45.1349 235.958 45.1208 239.291 44.4005 242.518C44.2946 242.998 44.1605 243.5 43.8215 243.853C43.4826 244.213 42.8824 244.368 42.4941 244.064C42.2752 243.895 42.1693 243.62 42.0845 243.358C41.6256 241.925 34.501 227.132 28.0472 226.094C27.5247 226.009 26.988 225.953 26.4655 226.038C18.3736 227.379 36.6052 244.29 36.7393 246.811C30.1443 241.155 28.7462 240.117 25.7453 239.574C23.4293 239.157 19.3974 241.205 20.7249 244.036C21.6429 245.992 23.9306 246.868 26.0489 247.291C28.3649 247.75 30.7445 247.899 33.0111 248.548C35.2777 249.198 37.516 250.433 38.674 252.495" fill="#A31E9E" fill-opacity="0.57"/>
<path d="M29.3801 248.28C30.6158 248.28 31.795 248.491 32.9036 248.866C33.1719 239.651 40.7201 232.265 49.9983 232.265C59.446 232.265 67.1072 239.926 67.1072 249.374C67.1072 249.805 67.086 250.235 67.0578 250.659C68.7101 247.877 71.7322 245.999 75.2062 245.999C80.4384 245.999 84.6821 250.243 84.6821 255.475C84.6821 256.216 84.5903 256.936 84.4279 257.628C85.4023 257.085 86.5321 256.774 87.7254 256.774C91.4748 256.774 94.5181 259.817 94.5181 263.567C94.5181 267.316 91.4748 270.359 87.7254 270.359C83.976 270.359 34.1604 270.359 29.3801 270.359C23.2865 270.359 18.3438 265.417 18.3438 259.323C18.3438 253.229 23.2794 248.28 29.3801 248.28Z" fill="#EEBEFF"/>
<path opacity="0.5" d="M131.047 294.325C148.701 294.325 163.013 292.147 163.013 289.46C163.013 286.773 148.701 284.595 131.047 284.595C113.393 284.595 99.082 286.773 99.082 289.46C99.082 292.147 113.393 294.325 131.047 294.325Z" fill="#CAA5CE"/>
<path d="M132.02 276.531C131.971 278.162 131.053 280.57 131.053 280.57L131.66 283.917L133.574 284.447L137.98 279.271C137.98 279.271 137.902 276.672 137.817 276.743L132.02 276.531Z" fill="#F9DACA"/>
<path d="M148.612 288.839C148.549 288.909 148.464 288.973 148.358 289.043C147.299 289.679 144.242 289.975 142.067 289.933C139.666 289.891 137.075 289.001 136.03 288.598C134.985 288.189 131.009 288.443 130.564 287.921C130.12 287.398 130.338 285.732 130.338 285.732C129.943 283.698 130.409 280.535 130.769 280.372C131.136 280.217 131.334 281.537 131.638 281.961C131.927 282.399 132.845 282.914 133.897 282.265C134.942 281.622 135.147 280.026 136.39 279.574C137.625 279.116 138.19 279.285 138.19 279.285C139.652 279.942 142.123 282.632 143.747 283.627C145.371 284.623 147.673 285.216 148.125 285.534C148.577 285.859 148.506 286.734 148.506 286.734C148.506 286.734 149.297 288.055 148.612 288.839Z" fill="#B144C3"/>
<path d="M148.611 288.838C148.547 288.909 148.463 288.973 148.357 289.043C147.298 289.679 144.24 289.975 142.065 289.933C139.665 289.89 137.073 289.001 136.028 288.598C134.983 288.189 131.008 288.443 130.563 287.92C130.118 287.398 130.337 285.731 130.337 285.731C131.566 285.611 134.595 286.148 136.177 286.522C137.765 286.904 138.408 287.949 143.118 287.97C147.834 287.998 148.498 286.727 148.498 286.727C148.498 286.727 149.296 288.055 148.611 288.838Z" fill="#6A156C"/>
<path d="M113.055 274.83C112.999 276.736 112.031 281.481 112.031 281.481L112.737 285.386L114.976 286L120.123 279.956C120.123 279.956 120.519 276.016 120.42 276.094L113.055 274.83Z" fill="#F9DACA"/>
<path d="M132.551 291.141C132.473 291.225 132.374 291.296 132.247 291.381C131.011 292.122 127.446 292.468 124.897 292.426C122.093 292.376 119.064 291.338 117.85 290.865C116.635 290.392 111.982 290.682 111.466 290.074C110.951 289.467 111.198 287.518 111.198 287.518C110.739 285.139 111.283 281.446 111.699 281.262C112.123 281.079 112.356 282.625 112.716 283.112C113.055 283.621 114.128 284.221 115.35 283.472C116.565 282.724 116.812 280.86 118.259 280.33C119.7 279.793 120.363 279.991 120.363 279.991C122.072 280.761 124.96 283.903 126.852 285.061C128.745 286.219 131.442 286.911 131.965 287.285C132.487 287.659 132.409 288.683 132.409 288.683C132.409 288.683 133.349 290.223 132.551 291.141Z" fill="#B144C3"/>
<path d="M132.55 291.141C132.473 291.225 132.374 291.296 132.247 291.381C131.011 292.122 127.445 292.468 124.896 292.426C122.093 292.376 119.064 291.338 117.849 290.865C116.635 290.392 111.982 290.682 111.466 290.074C110.951 289.467 111.198 287.518 111.198 287.518C112.631 287.377 116.169 288.006 118.019 288.443C119.869 288.888 120.624 290.11 126.125 290.138C131.632 290.173 132.409 288.683 132.409 288.683C132.409 288.683 133.348 290.223 132.55 291.141Z" fill="#6A156C"/>
<path d="M143.507 150.866C143.507 150.866 146.678 148.769 144.107 145.196C142.787 143.36 143.867 142.541 143.281 141.065C142.695 139.582 142.074 139.512 142.349 138.001C142.625 136.483 142.349 136.419 141.798 135.727C141.248 135.035 142.949 133.792 141.954 132.691C140.958 131.589 140.16 132.147 139.941 131.455C139.546 130.191 140.909 129.803 139.941 128.737C138.974 127.67 138.805 128.045 138.324 126.463C137.844 124.881 138.007 123.067 136.813 121.224C135.444 119.105 135.91 119.352 134.158 117.771C132.4 116.189 133.283 115.328 131.595 113.81C129.632 112.044 126.921 112.306 125.41 113.167C125.247 113.259 125.092 113.344 124.958 113.421C124.238 113.824 123.369 113.887 122.6 113.584C122.049 113.365 121.321 113.188 120.587 113.337C119.034 113.647 119.895 114.749 118.349 115.469C116.463 116.352 115.341 115.088 114.797 118.696C114.719 119.197 114.472 119.67 114.105 120.016C112.82 121.245 111.98 120.998 112.043 123.074C112.114 125.178 113.251 125.312 112.735 126.76C112.22 128.207 111.394 128.744 110.942 130.572C110.497 132.408 111.662 131.921 111.563 133.644C111.457 135.367 110.568 135.402 111.528 136.574C112.495 137.746 112.799 138.057 112.46 139.088C112.114 140.119 111.288 140.945 111.358 141.948C111.429 142.943 111.98 142.809 110.843 144.497C109.706 146.184 109.537 149.524 110.186 151.974" fill="#340928"/>
<path d="M112.23 193.246C112.23 193.246 142.063 199.446 139.79 192.42C137.516 185.394 138.321 180.007 138.321 180.007L114.441 179.195C114.469 179.569 114.483 179.936 114.497 180.31C114.603 183.664 114.137 186.672 113.593 188.939C112.958 191.601 112.23 193.246 112.23 193.246Z" fill="#F9DACA"/>
<path d="M113.592 188.939C119.947 188.099 119.947 181.384 119.947 181.384L117.468 181.003L114.496 180.311C114.602 183.665 114.128 186.673 113.592 188.939Z" fill="#F4CCBA"/>
<path d="M120.173 145.027C120.173 145.027 115.131 146.404 109.941 148.472C109.941 148.472 113.246 158.012 111.085 164.374C111.085 164.374 114.517 176.71 113.881 181.038C113.881 181.038 122.969 184.413 138.814 181.101C138.814 181.101 139.195 166.881 141.201 163.449C141.201 163.449 138.433 153.909 141.201 147.138L129.522 144.787" fill="#6E2575"/>
<path d="M110.237 204.459C110.406 210.39 112.341 231.291 113.026 236.622C111.91 246.423 112.539 275.719 112.539 275.719C118.795 277.71 122.233 276.531 122.233 276.531C122.233 276.531 125.227 246.522 126.632 237.766C127.148 232.265 126.625 209.19 126.625 209.19C128.257 214.514 134.322 235.895 134.322 235.895C134.322 235.895 133.489 240.534 133.072 243.33C131.822 251.768 130.064 275.888 130.064 275.888C133.912 278.049 140.027 277.527 140.027 277.527C140.027 277.527 148.013 238.98 148.013 235.203C148.013 232.004 146.615 222.684 146.615 222.662C145.831 209.324 140.366 193.62 139.653 191.297C134.364 191.841 121.337 192.886 112.729 191.008C110.922 194.814 110.138 201.211 110.237 204.459Z" fill="#B144C3"/>
<path d="M139.405 192.117C139.052 192.173 138.699 192.138 138.346 192.187C138.007 192.23 137.675 192.293 137.336 192.343C136.623 192.449 135.902 192.554 135.189 192.646C133.982 192.802 132.774 192.936 131.567 193.042C129.463 193.218 127.352 193.296 125.24 193.282C122.254 193.261 119.26 193.028 116.315 192.512C115.743 192.413 115.164 192.3 114.599 192.173C114.119 192.074 113.653 191.926 113.166 191.968C113.018 191.982 112.947 192.173 113.088 192.258C113.477 192.498 113.9 192.576 114.338 192.667C114.832 192.773 115.334 192.879 115.828 192.971C117.099 193.211 118.377 193.388 119.662 193.522C123.397 193.91 127.182 193.818 130.924 193.465C132.231 193.338 133.537 193.19 134.836 193.013C135.585 192.907 136.333 192.795 137.082 192.667C137.47 192.604 137.858 192.533 138.247 192.463C138.649 192.385 139.016 192.223 139.412 192.138C139.419 192.131 139.412 192.117 139.405 192.117Z" fill="#99269B"/>
<path d="M128.594 194.327C128.573 196.191 128.714 198.055 128.749 199.919C128.785 201.713 128.778 203.513 128.643 205.3C128.629 205.448 128.855 205.441 128.869 205.3C129.011 203.506 128.996 201.713 128.954 199.919C128.912 198.055 128.883 196.177 128.693 194.327C128.686 194.263 128.594 194.256 128.594 194.327Z" fill="#99269B"/>
<path d="M128.737 205.229C128.377 205.377 127.996 205.476 127.615 205.575C127.269 205.667 126.908 205.737 126.591 205.9C126.506 205.942 126.548 206.069 126.64 206.069C127.007 206.062 127.367 205.956 127.713 205.85C128.095 205.73 128.455 205.575 128.794 205.363C128.857 205.321 128.815 205.201 128.737 205.229Z" fill="#99269B"/>
<path d="M127.188 193.536C127.188 193.536 127.025 198.549 126.856 203.57C126.785 206.076 126.729 208.59 126.708 210.468C126.686 212.354 126.708 213.604 126.708 213.604C126.708 213.604 126.637 212.347 126.595 210.468C126.545 208.583 126.517 206.076 126.496 203.563C126.482 198.542 126.475 193.522 126.475 193.522L127.188 193.536Z" fill="#99269B"/>
<path d="M141.367 198.274C140.534 198.238 139.651 198.217 138.86 197.942C138.083 197.673 137.349 197.158 136.749 196.6C136.219 196.113 135.831 195.541 135.534 194.884C135.372 194.517 135.252 194.136 135.153 193.748C135.075 193.444 135.083 193.013 134.878 192.766C134.821 192.703 134.701 192.717 134.666 192.794C134.518 193.098 134.687 193.55 134.779 193.853C134.899 194.249 135.047 194.637 135.217 195.011C135.541 195.746 135.986 196.374 136.601 196.904C137.222 197.448 137.949 197.921 138.74 198.168C139.602 198.436 140.491 198.422 141.374 198.302C141.388 198.295 141.381 198.274 141.367 198.274Z" fill="#99269B"/>
<path d="M111.074 198.486C111.935 198.606 112.811 198.62 113.651 198.373C114.463 198.133 115.212 197.645 115.847 197.095C116.44 196.572 116.885 195.965 117.21 195.245C117.379 194.87 117.535 194.482 117.655 194.094C117.754 193.776 117.937 193.303 117.782 192.985C117.747 192.914 117.619 192.893 117.57 192.957C117.365 193.204 117.372 193.635 117.295 193.938C117.203 194.305 117.09 194.68 116.935 195.026C116.638 195.704 116.25 196.29 115.699 196.791C115.113 197.335 114.4 197.836 113.637 198.111C112.825 198.401 111.928 198.422 111.074 198.464C111.06 198.457 111.053 198.486 111.074 198.486Z" fill="#99269B"/>
<path d="M141.192 147.138C141.192 147.138 144.087 147.667 144.85 155.371C145.393 160.886 142.823 182.083 142.823 182.083C142.823 182.083 139.639 180.042 138.707 176.639C137.775 173.235 138.756 167.495 138.347 165.016C137.93 162.538 137.648 157.821 137.789 155.131C137.93 152.448 138.339 148.769 141.192 147.138Z" fill="#F9DACA"/>
<path d="M118.549 145.507C118.549 145.507 120.674 149.03 125.49 148.755C130.143 148.501 132.431 145.373 132.431 145.373L131.944 145.267C130.821 145.027 129.938 144.158 129.684 143.043C129.621 142.753 129.557 142.478 129.5 142.216C129.112 140.338 128.985 139.208 128.985 139.208L127.114 138.771L120.921 137.309C121.543 140.268 121.394 142.16 121.07 143.332C120.808 144.299 120.06 145.062 119.093 145.337L118.549 145.507Z" fill="#F9DACA"/>
<path d="M122.277 138.742C122.277 138.742 125.723 141.199 129.508 142.216C129.119 140.338 128.992 139.208 128.992 139.208L127.121 138.77L125.568 138.608L122.277 138.742Z" fill="#E2BDAC"/>
<path d="M132.516 120.701C132.516 120.701 134.994 130.622 133.85 134.442C132.706 138.255 130.99 140.832 129.938 141.263C128.886 141.694 120.83 138.403 119.919 137.4C119.015 136.398 115.103 127.098 115.767 123.137C116.438 119.176 128.604 112.976 132.516 120.701Z" fill="#F9DACA"/>
<path d="M170.861 142.601L117.111 148.101L122.612 201.851L176.362 196.351L170.861 142.601Z" fill="#F8D846"/>
<path d="M168.587 145.228L119.873 150.213L124.187 192.366L172.9 187.381L168.587 145.228Z" fill="white"/>
<path d="M144.006 181.694L156.652 166.859L172.158 180.042L172.914 187.378L144.881 190.245L144.006 181.694Z" fill="#F4A34A"/>
<path d="M123.436 184.942L139.612 162.785L169.191 187.76L124.198 192.363L123.436 184.942Z" fill="#F7C148"/>
<path d="M154.646 162.237C157.777 161.211 159.484 157.841 158.458 154.709C157.432 151.578 154.061 149.871 150.93 150.897C147.798 151.924 146.092 155.294 147.118 158.425C148.144 161.557 151.514 163.264 154.646 162.237Z" fill="#F8D846"/>
<path d="M109.948 148.465C109.948 148.465 105.817 151.149 107.159 159.523C108.5 167.89 109.743 175.749 109.948 178.326C110.153 180.911 111.805 188.042 114.7 187.52C117.595 186.997 118.675 183.389 118.887 181.476C119.092 179.562 118.322 174.81 118.527 174.295C118.732 173.779 120.815 172.07 121.076 171.195C121.337 170.319 124.26 171.541 124.931 166.111C124.931 166.111 127.869 166.852 128.801 165.666C129.733 164.48 125.193 163.59 124.049 163.265C122.601 162.849 117.962 162.926 117.39 163.053C116.825 163.181 116.719 164.783 116.437 166.28C116.154 167.777 115.138 171.174 115.138 171.174L113.641 161.062C113.634 161.076 113.98 151.12 109.948 148.465Z" fill="#F9DACA"/>
<path d="M173.666 162.75C173.122 162.835 172.501 162.595 172.367 162.531C172.352 162.524 172.338 162.524 172.338 162.524C171.279 162.1 170.171 160.271 170.171 160.271C170.171 160.271 168.532 160.088 166.824 158.612C165.058 157.094 165.44 155.202 167.064 154.185C168.688 153.168 172.155 153.323 172.155 153.323C173.553 153.366 173.666 153.768 174.471 156.543C174.471 156.55 174.471 156.55 174.471 156.557C175.163 160.893 174.266 162.651 173.666 162.75Z" fill="#F9DACA"/>
<path d="M116.436 166.294C116.436 166.294 116.295 167.05 116.04 168.166C115.906 168.723 115.772 169.38 115.596 170.072C115.426 170.764 115.243 171.505 115.059 172.247C114.861 172.988 114.671 173.723 114.487 174.415C114.296 175.107 114.127 175.749 113.972 176.3C113.823 176.851 113.696 177.31 113.611 177.634C113.527 177.959 113.484 178.143 113.484 178.143C113.484 178.143 113.555 177.38 113.781 176.25C113.901 175.693 114.021 175.029 114.19 174.337C114.36 173.638 114.536 172.896 114.72 172.155C114.918 171.421 115.123 170.679 115.306 169.987C115.497 169.295 115.694 168.66 115.857 168.109C116.182 167.015 116.436 166.294 116.436 166.294Z" fill="#DDA692"/>
<path d="M121.668 117.524C121.668 117.524 122.431 120.736 123.666 121.308C124.909 121.873 125.926 121.153 126.554 121.93C127.183 122.706 127.592 124.514 128.835 124.154C130.078 123.794 131.158 123.37 131.73 124.203C132.295 125.037 132.507 127.36 135.091 127.515C137.146 127.635 134.053 122.403 134.053 122.403C134.053 122.403 132.245 119.522 131.984 119.31C131.723 119.098 130.035 117.079 129.936 117.022C129.838 116.973 127.585 116.415 127.183 116.465C126.773 116.514 124.083 116.465 124.083 116.465L121.668 117.524Z" fill="#340928"/>
<path d="M122.757 119.077C122.757 119.077 123.668 121.309 122.037 122.46C121.196 123.053 119.523 125.736 119.615 127.219C119.713 128.702 120.123 128.906 119.918 129.732C119.713 130.559 119.212 132.684 116.197 132.098C115.689 131.999 116.162 129.048 116.162 128.836C116.162 128.631 115.336 125.757 115.371 125.206C115.406 124.656 115.06 121.04 115.985 120.313C116.917 119.593 119.262 118.83 119.396 118.625C119.537 118.421 121.669 117.524 121.669 117.524" fill="#340928"/>
<path d="M112.52 122.304C111.686 123.978 112.4 125.722 111.397 127.494C110.783 128.574 109.822 129.634 109.921 130.968C109.971 131.611 110.331 131.957 110.535 132.536C111.136 134.244 110.324 134.71 110.528 136.066C110.733 137.436 112.378 138.629 113.303 139.54C113.388 139.625 113.508 139.498 113.43 139.413C112.809 138.658 111.842 137.916 111.355 137.076C110.288 135.254 111.009 135.445 111.136 134.061C111.227 133.101 110.776 132.818 110.465 131.964C109.54 129.408 111.489 128.461 112.167 126.484C112.633 125.136 112.251 123.688 112.52 122.304Z" fill="#340928"/>
<path d="M136.413 122.438C137.394 122.77 138.305 123.476 138.736 124.479C138.955 124.987 138.814 125.595 138.948 126.131C139.054 126.534 139.11 126.858 139.357 127.204C139.823 127.861 140.678 128.08 140.96 128.913C141.334 130.001 141.038 131.596 141.123 132.754C141.13 132.825 141.229 132.825 141.236 132.754C141.313 131.575 141.582 130.008 141.2 128.85C140.734 127.437 139.597 127.452 139.195 125.552C138.849 123.921 138.496 122.354 136.427 122.403C136.392 122.403 136.392 122.431 136.413 122.438Z" fill="#340928"/>
<path opacity="0.5" d="M342.529 294.325C364.149 294.325 381.675 292.147 381.675 289.46C381.675 286.773 364.149 284.595 342.529 284.595C320.909 284.595 303.383 286.773 303.383 289.46C303.383 292.147 320.909 294.325 342.529 294.325Z" fill="#CAA5CE"/>
<path d="M347.449 123.328L335.89 123.751C335.89 123.751 336.045 125.185 335.897 127.183C335.854 127.875 335.763 128.638 335.614 129.428C335.6 129.52 335.297 131.137 334.894 131.857C334.647 132.295 334.019 132.761 332.762 132.683C332.762 132.683 332.889 136.087 338.185 136.701C343.325 137.301 344.949 134.724 344.949 134.724C344.949 134.724 344.886 134.682 344.78 134.597C344.278 134.173 343.953 133.601 343.819 132.98C343.756 132.641 345.168 126.096 347.449 123.328Z" fill="#FBAB99"/>
<path d="M343.726 126.011C341.319 128.249 336.941 129.196 335.613 129.429C335.769 128.638 335.853 127.875 335.896 127.183C339.553 125.976 345.781 124.09 343.726 126.011Z" fill="#EF998B"/>
<path d="M333.37 109.354C332.989 109.968 332.72 110.639 332.494 111.331C331.442 114.565 327.933 126.046 330.652 127.698C333.829 129.626 339.598 128.143 342.528 126.625C348.106 123.737 349.801 122.996 350.535 116.747C351.552 108.069 338.277 101.368 333.37 109.354Z" fill="#FBAB99"/>
<path d="M328.426 107.603C328.426 107.603 332.952 114.755 342.159 112.101C342.159 112.101 340.776 114.148 341.086 116.076C341.404 117.996 342.075 119.183 341.941 120.355L342.873 120.192C342.873 120.192 343.882 117.53 346.128 118.625C348.373 119.719 345.584 125.446 346.078 125.58C346.573 125.721 349.694 122.756 351.409 118.681C353.118 114.607 353.535 111.472 349.545 110.095C349.545 110.095 348.762 106.318 344.807 105.075C340.853 103.825 328.426 107.603 328.426 107.603Z" fill="#440A4D"/>
<path d="M332.452 274.822C332.502 276.636 333.427 281.17 333.427 281.17L332.749 284.898L330.616 285.484L325.709 279.715C325.709 279.715 325.78 275.726 325.871 275.803L332.452 274.822Z" fill="#F9DACA"/>
<path d="M313.869 290.377C313.939 290.455 314.038 290.525 314.158 290.61C315.337 291.316 318.741 291.641 321.17 291.605C323.846 291.556 326.734 290.575 327.892 290.116C329.057 289.664 333.484 289.939 333.978 289.36C334.473 288.781 334.233 286.924 334.233 286.924C334.67 284.657 334.155 281.134 333.752 280.957C333.35 280.781 333.124 282.257 332.785 282.723C332.46 283.21 331.443 283.782 330.271 283.062C329.106 282.348 328.88 280.569 327.496 280.061C326.119 279.552 325.491 279.736 325.491 279.736C323.86 280.47 321.106 283.464 319.299 284.573C317.491 285.681 314.921 286.338 314.419 286.698C313.918 287.058 313.996 288.033 313.996 288.033C313.996 288.033 313.099 289.501 313.869 290.377Z" fill="#B144C3"/>
<path d="M313.869 290.377C313.94 290.455 314.039 290.525 314.159 290.61C315.338 291.316 318.741 291.641 321.17 291.606C323.846 291.556 326.734 290.575 327.892 290.116C329.057 289.664 333.485 289.939 333.979 289.36C334.473 288.781 334.233 286.924 334.233 286.924C332.863 286.79 329.488 287.383 327.723 287.807C325.958 288.23 325.237 289.395 319.991 289.424C314.738 289.459 314.003 288.04 314.003 288.04C314.003 288.04 313.099 289.501 313.869 290.377Z" fill="#6A156C"/>
<path d="M367.502 271.023C367.997 272.775 369.988 276.941 369.988 276.941L370.242 280.718L368.314 281.806L362.15 277.407C362.15 277.407 361.246 273.523 361.359 273.572L367.502 271.023Z" fill="#F9DACA"/>
<path d="M353.259 290.639C353.351 290.695 353.457 290.745 353.591 290.794C354.905 291.197 358.287 290.681 360.631 290.053C363.215 289.354 365.772 287.694 366.788 286.974C367.805 286.254 372.169 285.442 372.508 284.757C372.847 284.072 372.162 282.335 372.162 282.335C372.035 280.026 370.672 276.736 370.248 276.665C369.81 276.594 369.952 278.077 369.74 278.614C369.542 279.165 368.695 279.97 367.381 279.56C366.082 279.151 365.426 277.484 363.957 277.329C362.495 277.173 361.93 277.498 361.93 277.498C360.525 278.607 358.591 282.187 357.108 283.698C355.625 285.209 353.295 286.473 352.892 286.946C352.49 287.412 352.808 288.344 352.808 288.344C352.808 288.344 352.306 289.975 353.259 290.639Z" fill="#B144C3"/>
<path d="M353.261 290.639C353.353 290.696 353.459 290.745 353.593 290.795C354.906 291.197 358.288 290.682 360.633 290.053C363.217 289.354 365.773 287.695 366.79 286.975C367.807 286.254 372.17 285.442 372.509 284.757C372.848 284.072 372.163 282.335 372.163 282.335C370.8 282.54 367.68 283.938 366.063 284.779C364.453 285.619 364.043 286.925 358.952 288.224C353.868 289.531 352.802 288.337 352.802 288.337C352.802 288.337 352.308 289.975 353.261 290.639Z" fill="#6A156C"/>
<path d="M290.684 101.827C290.698 101.346 291.333 101.53 291.524 101.911C291.552 101.961 291.587 102.081 291.637 102.243C291.524 101.459 291.439 100.817 291.439 100.655C291.453 100.196 292.039 100.323 292.258 100.662C292.223 100.344 292.202 100.104 292.202 100.005C292.209 99.4188 292.851 99.6165 293.049 100.083C293.091 100.188 293.162 100.485 293.254 100.88C293.233 100.669 293.211 100.513 293.218 100.436C293.233 99.9555 293.798 100.033 293.981 100.414C294.045 100.542 294.087 100.775 294.214 101.332C294.327 101.805 294.497 102.314 294.602 102.794C294.694 103.232 295.379 105.258 296.424 105.392C298.027 105.597 296.798 102.942 297.858 102.236C298.189 102.017 298.733 104.107 298.86 105.308C298.987 106.508 299.044 107.108 298.987 107.821C298.945 108.535 298.641 109.573 298.726 109.996C298.874 110.681 299.792 112.03 299.792 112.03L295.888 113.266C295.888 113.266 294.765 111.161 294.242 110.688C292.936 109.587 292.068 108.266 291.481 106.628C291.114 105.604 290.931 104.517 290.761 103.451C290.775 103.458 290.684 101.989 290.684 101.827Z" fill="#FFB6AC"/>
<path d="M330.853 133.036C330.853 133.036 320.466 130.162 310.722 125.799C304.628 118.596 298.655 110.568 298.196 109.812C297.158 110.314 294.934 111.557 294.934 111.557C294.934 111.557 303.414 128.256 306.528 131.716C310.087 134.688 315.291 141.192 327.224 143.225C332.286 136.341 330.853 133.036 330.853 133.036Z" fill="#FFB6AC"/>
<path d="M322.296 233.126C321.569 223.594 324.866 193.711 325.184 191.141C325.495 188.571 327.316 188.239 328.693 187.823C335.585 185.747 343.761 196.444 341.587 206.047C341.558 206.202 342.625 207.113 342.582 207.283C341.29 212.847 336.058 231.664 335.097 235.061C338.296 247.149 335.048 267.993 333.678 277.42C329.823 277.964 324.739 277.06 324.739 277.06C324.739 277.06 323.023 242.658 322.296 233.126Z" fill="#381134"/>
<path d="M326.294 180.966C326.294 180.966 328.914 181.616 334.132 181.475C340.755 181.298 349.157 177.944 349.157 177.944C357.61 187.088 352.963 197.8 353.253 201.323C353.542 204.847 355.23 222.704 355.993 232.032C364.134 244.24 368.978 272.689 369.013 272.823C364.925 274.991 360.787 275.33 360.787 275.33C360.787 275.33 346.114 244.537 343.177 235.887C340.515 228.042 333.637 204.225 333.51 204.247L324.74 205.744C324.719 190.577 326.294 180.966 326.294 180.966Z" fill="#381134"/>
<path d="M354.99 191.24C353.337 191.544 351.735 191.784 350.16 191.975C335.275 193.832 324.055 191.078 324.055 191.078C324.055 191.078 322.784 154.876 328.327 135.635C329.323 132.168 331.095 131.469 334.548 131.787C337.683 137.337 344.08 132.599 344.08 132.599C346.728 133.912 350.951 135.755 352.97 137.428C354.312 138.544 351.939 154.693 352.532 163.83C352.921 169.909 354.149 185.931 354.99 191.24Z" fill="#B0B2FF"/>
<path d="M331.971 131.836C331.971 131.836 323.448 129.838 318.527 128.616C314.735 133.036 315.159 140.168 315.159 140.168C315.159 140.168 323.046 145.181 328.808 145.662C330.043 137.259 331.971 131.836 331.971 131.836Z" fill="#B0B2FF"/>
<path d="M330.855 133.037C330.855 133.037 327.303 137.534 326.138 145.175C322.163 144.398 315.942 140.959 315.158 140.161C316.909 140.726 324.38 143.508 325.397 141.206C327.303 136.927 330.855 133.037 330.855 133.037Z" fill="#7A86DD"/>
<path d="M332.389 200.363C332.389 200.363 332.565 200.872 332.862 201.768C333.151 202.665 333.589 203.936 334.076 205.475C334.556 207.015 335.142 208.808 335.729 210.736C336.315 212.664 336.936 214.725 337.564 216.78C338.165 218.842 338.772 220.911 339.337 222.846C339.909 224.78 340.396 226.595 340.855 228.141C341.745 231.241 342.338 233.31 342.338 233.31C342.338 233.31 342.14 232.809 341.794 231.933C341.469 231.05 340.989 229.787 340.474 228.261C339.965 226.729 339.344 224.95 338.751 223.022C338.158 221.094 337.522 219.04 336.894 216.978C336.3 214.909 335.707 212.84 335.15 210.905C334.592 208.964 334.126 207.142 333.709 205.581C333.285 204.021 332.982 202.715 332.749 201.804C332.516 200.893 332.389 200.363 332.389 200.363Z" fill="#99269B"/>
<path d="M375.188 148.297L325.625 144.385L321.712 193.947L371.275 197.86L375.188 148.297Z" fill="#F8D846"/>
<path d="M372.692 150.3L327.775 146.754L324.707 185.625L369.624 189.17L372.692 150.3Z" fill="white"/>
<path d="M344.399 179.251L358.295 167.918L370.15 182.414L369.621 189.179L343.777 187.138L344.399 179.251Z" fill="#F4A34A"/>
<path d="M325.241 178.785L343.55 161.408L366.188 188.903L324.697 185.627L325.241 178.785Z" fill="#F7C148"/>
<path d="M359.503 162.554C362.033 160.886 362.731 157.483 361.063 154.954C359.395 152.424 355.992 151.726 353.463 153.394C350.933 155.062 350.235 158.465 351.903 160.994C353.571 163.524 356.974 164.222 359.503 162.554Z" fill="#F8D846"/>
<path d="M348.445 153.838C348.445 153.838 352.336 165.701 353.19 166.887C354.045 168.073 358.663 168.207 359.122 165.439C359.581 162.672 357.674 152.327 357.674 152.327" fill="#FBAB99"/>
<path d="M352.972 137.436C352.972 137.436 357.54 142.371 359.122 154.764C359.122 154.764 354.497 156.402 348.975 156.444C348.975 156.444 346.073 152.553 344.689 145.662C343.305 138.77 347.704 134.703 352.972 137.436Z" fill="#B0B2FF"/>
<path d="M352.081 163.54C352.081 163.54 350.916 176.257 350.033 185.126C349.772 187.759 349.462 189.941 349.045 191.615C349.045 191.615 349.928 192.554 352.385 192.3C352.385 192.3 359.665 170.015 359.192 164.133" fill="#FBAB99"/>
<path d="M349.306 190.443C349.306 190.443 347.944 191.799 347.485 192.102C347.026 192.406 345.924 194.326 345.903 194.468C345.882 194.616 346.482 194.701 346.842 194.468C347.202 194.235 348.247 193.218 348.402 193.14C348.558 193.063 350.358 193.077 350.719 192.102" fill="#FBAB99"/>
<path d="M349.673 191.94C349.673 191.94 348.897 193.987 348.628 194.616C348.36 195.244 347.414 195.753 347.393 196.021C347.372 196.289 350.069 197.165 351.799 196.981C353.02 196.847 353.762 194.905 353.543 193.14C353.451 192.406 352.667 191.396 353.098 190.245" fill="#FBAB99"/>
<path d="M444.337 143.346H376.248C375.881 143.346 375.584 143.049 375.584 142.682V90.3389C375.584 89.1879 376.516 88.2559 377.667 88.2559H441.915C443.617 88.2559 445.001 89.6398 445.001 91.3415V142.682C445.001 143.049 444.704 143.346 444.337 143.346Z" fill="#ECD4FF"/>
<path d="M414.348 139.053H382.094C381.282 139.053 380.625 138.396 380.625 137.584V129.019C380.625 128.207 381.282 127.55 382.094 127.55H414.348C415.16 127.55 415.817 128.207 415.817 129.019V137.584C415.81 138.396 415.153 139.053 414.348 139.053Z" fill="white"/>
<path opacity="0.31" d="M414.782 97.2659H381.652C381.087 97.2659 380.621 96.8069 380.621 96.235C380.621 95.6701 381.08 95.2041 381.652 95.2041H414.782C415.347 95.2041 415.813 95.6631 415.813 96.235C415.813 96.8069 415.354 97.2659 414.782 97.2659Z" fill="white"/>
<path opacity="0.31" d="M414.782 101.517H381.652C381.087 101.517 380.621 101.058 380.621 100.486C380.621 99.9211 381.08 99.4551 381.652 99.4551H414.782C415.347 99.4551 415.813 99.914 415.813 100.486C415.813 101.058 415.354 101.517 414.782 101.517Z" fill="white"/>
<path opacity="0.31" d="M414.782 105.775H381.652C381.087 105.775 380.621 105.316 380.621 104.744C380.621 104.179 381.08 103.713 381.652 103.713H414.782C415.347 103.713 415.813 104.172 415.813 104.744C415.813 105.316 415.354 105.775 414.782 105.775Z" fill="white"/>
<path opacity="0.31" d="M414.782 110.025H381.652C381.087 110.025 380.621 109.566 380.621 108.994C380.621 108.429 381.08 107.963 381.652 107.963H414.782C415.347 107.963 415.813 108.422 415.813 108.994C415.813 109.566 415.354 110.025 414.782 110.025Z" fill="white"/>
<path opacity="0.31" d="M414.782 114.276H381.652C381.087 114.276 380.621 113.817 380.621 113.245C380.621 112.68 381.08 112.214 381.652 112.214H414.782C415.347 112.214 415.813 112.673 415.813 113.245C415.813 113.817 415.354 114.276 414.782 114.276Z" fill="white"/>
<path opacity="0.31" d="M409.607 118.533H381.66C381.095 118.533 380.629 118.075 380.629 117.503C380.629 116.938 381.088 116.472 381.66 116.472H409.607C410.172 116.472 410.638 116.931 410.638 117.503C410.638 118.075 410.172 118.533 409.607 118.533Z" fill="white"/>
<path d="M420.605 131.724L421.12 132.762L422.264 132.931L421.438 133.743L421.636 134.887L420.605 134.343L419.581 134.887L419.771 133.743L418.945 132.931L420.089 132.762L420.605 131.724Z" fill="#F7C148"/>
<path d="M425.704 131.724L426.212 132.762L427.363 132.931L426.53 133.743L426.727 134.887L425.704 134.343L424.673 134.887L424.87 133.743L424.037 132.931L425.188 132.762L425.704 131.724Z" fill="#F7C148"/>
<path d="M430.794 131.724L431.31 132.762L432.461 132.931L431.627 133.743L431.825 134.887L430.794 134.343L429.77 134.887L429.968 133.743L429.135 132.931L430.286 132.762L430.794 131.724Z" fill="#F7C148"/>
<path d="M435.892 131.724L436.407 132.762L437.551 132.931L436.725 133.743L436.916 134.887L435.892 134.343L434.861 134.887L435.059 133.743L434.232 132.931L435.376 132.762L435.892 131.724Z" fill="#F7C148"/>
<path d="M440.989 131.724L441.497 132.762L442.648 132.931L441.815 133.743L442.013 134.887L440.989 134.343L439.958 134.887L440.155 133.743L439.322 132.931L440.473 132.762L440.989 131.724Z" fill="#F7C148"/>
<path d="M444.294 86.4907H376.282C375.894 86.4907 375.576 86.8085 375.576 87.1968V92.4079H444.993V87.1968C445 86.8014 444.682 86.4907 444.294 86.4907Z" fill="#5F2C9F"/>
<path d="M434.697 89.4424C434.697 89.7954 434.408 90.0849 434.055 90.0849C433.702 90.0849 433.412 89.7954 433.412 89.4424C433.412 89.0893 433.702 88.7998 434.055 88.7998C434.415 88.8069 434.697 89.0893 434.697 89.4424Z" fill="white"/>
<path d="M437.889 89.4424C437.889 89.7954 437.599 90.0849 437.246 90.0849C436.893 90.0849 436.604 89.7954 436.604 89.4424C436.604 89.0893 436.893 88.7998 437.246 88.7998C437.599 88.8069 437.889 89.0893 437.889 89.4424Z" fill="white"/>
<path d="M441.074 89.4424C441.074 89.7954 440.785 90.0849 440.432 90.0849C440.079 90.0849 439.789 89.7954 439.789 89.4424C439.789 89.0893 440.079 88.7998 440.432 88.7998C440.785 88.8069 441.074 89.0893 441.074 89.4424Z" fill="white"/>
<path d="M442.344 95.8747V117.863C442.344 118.237 442.041 118.534 441.673 118.534H419.925C419.558 118.534 419.262 118.23 419.262 117.863V95.8747C419.262 95.5075 419.565 95.2109 419.925 95.2109H441.673C442.041 95.2109 442.344 95.5146 442.344 95.8747Z" fill="white"/>
<path d="M442.345 113.739V117.863C442.345 118.237 442.041 118.533 441.674 118.533H430.885L431.344 113.739L436.421 108.125L442.345 113.739Z" fill="#AB2EAE"/>
<path d="M439.323 118.534H419.92C419.552 118.534 419.256 118.23 419.256 117.863V113.739L426.846 105.774L439.323 118.534Z" fill="#5F2C9F"/>
<path d="M436.61 104.193C438.088 104.193 439.286 102.994 439.286 101.516C439.286 100.038 438.088 98.8403 436.61 98.8403C435.132 98.8403 433.934 100.038 433.934 101.516C433.934 102.994 435.132 104.193 436.61 104.193Z" fill="#5F2C9F"/>
<path d="M40.4809 128.503H89.8586L84.1604 124.288V107.673C84.1604 106.953 83.5814 106.374 82.8612 106.374H40.4809C39.7606 106.374 39.1816 106.953 39.1816 107.673V127.204C39.1816 127.924 39.7606 128.503 40.4809 128.503Z" fill="white" stroke="#D6D4FF" stroke-width="0.529577" stroke-miterlimit="10"/>
<path opacity="0.24" d="M41.9465 111.899H64.5488V109.739H41.9465V111.899Z" fill="#A4A4F7"/>
<path opacity="0.24" d="M41.9465 115.128H64.5488V112.968H41.9465V115.128Z" fill="#A4A4F7"/>
<path opacity="0.24" d="M41.9465 118.363H64.5488V116.203H41.9465V118.363Z" fill="#A4A4F7"/>
<path opacity="0.24" d="M41.9465 121.511H64.5488V119.35H41.9465V121.511Z" fill="#A4A4F7"/>
<path opacity="0.24" d="M41.9488 125.273H57.709V123.112H41.9488V125.273Z" fill="#A4A4F7"/>
<path opacity="0.24" d="M81.7533 110.045V124.817C81.7533 125.064 81.5485 125.269 81.3014 125.269H66.6851C66.4379 125.269 66.2402 125.064 66.2402 124.817V110.045C66.2402 109.798 66.445 109.601 66.6851 109.601H81.3014C81.5556 109.601 81.7533 109.805 81.7533 110.045Z" fill="#A4A4F7"/>
<path d="M81.7544 122.056V124.824C81.7544 125.071 81.5496 125.276 81.3025 125.276H74.0508L74.3615 122.056L77.7719 118.286L81.7544 122.056Z" fill="#AB2EAE"/>
<path d="M79.7268 125.276H66.6851C66.4379 125.276 66.2402 125.071 66.2402 124.824V122.056L71.3454 116.704L79.7268 125.276Z" fill="#5F2C9F"/>
<path d="M79.7066 113.845C79.7066 114.84 78.9016 115.645 77.906 115.645C76.9104 115.645 76.1055 114.84 76.1055 113.845C76.1055 112.849 76.9104 112.044 77.906 112.044C78.9016 112.044 79.7066 112.849 79.7066 113.845Z" fill="#5F2C9F"/>
<path d="M358.1 83.5106C357.295 85.5301 355.007 86.5116 352.995 85.7066C350.975 84.9017 349.994 82.6139 350.799 80.5944C351.604 78.575 353.892 77.5935 355.904 78.3984C357.923 79.2034 358.905 81.4912 358.1 83.5106Z" fill="#EEBEFF"/>
<path d="M352.77 81.583L353.652 83.553L356.611 81.7242" stroke="white" stroke-width="0.745927" stroke-miterlimit="10" stroke-linecap="round" stroke-linejoin="round"/>
<path d="M103.874 71.9728C104.552 74.0346 103.429 76.2588 101.36 76.9367C99.2982 77.6145 97.0739 76.4848 96.3961 74.423C95.7182 72.3611 96.848 70.1369 98.9098 69.4591C100.979 68.7812 103.196 69.911 103.874 71.9728Z" fill="#EEBEFF"/>
<path d="M98.5488 73.9075L100.491 74.8537L101.585 71.5562" stroke="white" stroke-width="0.745927" stroke-miterlimit="10" stroke-linecap="round" stroke-linejoin="round"/>
<path d="M407.124 165.27C406.877 168.582 403.996 171.067 400.684 170.827C397.373 170.58 394.887 167.699 395.127 164.388C395.374 161.076 398.255 158.59 401.567 158.83C404.886 159.078 407.371 161.959 407.124 165.27Z" fill="#EEBEFF"/>
<path d="M398.467 164.917L400.663 167.381L404.13 163.35" stroke="white" stroke-width="1.14071" stroke-miterlimit="10" stroke-linecap="round" stroke-linejoin="round"/>
<path d="M388.682 164.614C388.682 165.411 388.033 166.061 387.235 166.061C386.437 166.061 385.787 165.411 385.787 164.614C385.787 163.816 386.437 163.166 387.235 163.166C388.033 163.166 388.682 163.816 388.682 164.614Z" fill="#EEBEFF"/>
<path opacity="0.3" d="M339.989 65.1658C339.989 65.9637 339.339 66.6133 338.541 66.6133C337.743 66.6133 337.094 65.9637 337.094 65.1658C337.094 64.3679 337.743 63.7183 338.541 63.7183C339.346 63.7183 339.989 64.3679 339.989 65.1658Z" fill="#EEBEFF"/>
<path d="M83.7644 145.033C83.7644 146.304 82.7335 147.342 81.4554 147.342C80.1774 147.342 79.1465 146.311 79.1465 145.033C79.1465 143.755 80.1774 142.724 81.4554 142.724C82.7264 142.724 83.7644 143.755 83.7644 145.033Z" fill="#EEBEFF"/>
<path opacity="0.3" d="M311.512 62.8569C311.512 64.8198 309.923 66.4086 307.96 66.4086C305.997 66.4086 304.408 64.8198 304.408 62.8569C304.408 60.8939 305.997 59.3052 307.96 59.3052C309.923 59.3052 311.512 60.8939 311.512 62.8569Z" fill="#EEBEFF"/>
<path opacity="0.3" d="M67.1581 171.356C67.1581 173.319 65.5693 174.908 63.6064 174.908C61.6434 174.908 60.0547 173.319 60.0547 171.356C60.0547 169.393 61.6434 167.805 63.6064 167.805C65.5693 167.805 67.1581 169.393 67.1581 171.356Z" fill="#EEBEFF"/>
<path opacity="0.3" d="M207.94 62.8568C207.94 64.1278 206.909 65.1658 205.631 65.1658C204.353 65.1658 203.322 64.1349 203.322 62.8568C203.322 61.5788 204.353 60.5479 205.631 60.5479C206.902 60.5479 207.94 61.5788 207.94 62.8568Z" fill="#EEBEFF"/>
<path opacity="0.3" d="M229.067 78.1229C229.067 79.3939 228.036 80.4319 226.758 80.4319C225.48 80.4319 224.449 79.401 224.449 78.1229C224.449 76.8519 225.48 75.814 226.758 75.814C228.036 75.814 229.067 76.8449 229.067 78.1229Z" fill="#EEBEFF"/>
<path opacity="0.2" d="M265.063 65.1659C265.063 66.4369 264.032 67.4748 262.754 67.4748C261.476 67.4748 260.445 66.4439 260.445 65.1659C260.445 63.8878 261.476 62.8569 262.754 62.8569C264.032 62.8569 265.063 63.8878 265.063 65.1659Z" fill="#EEBEFF"/>
<path d="M60.7871 140.119C60.5329 140.119 60.3281 139.914 60.3281 139.66V136.405C60.3281 136.151 60.5329 135.946 60.7871 135.946C61.0413 135.946 61.2461 136.151 61.2461 136.405V139.66C61.2461 139.907 61.0413 140.119 60.7871 140.119Z" fill="#EEBEFF"/>
<path d="M62.4114 138.488H59.1562C58.902 138.488 58.6973 138.283 58.6973 138.029C58.6973 137.775 58.902 137.57 59.1562 137.57H62.4114C62.6656 137.57 62.8703 137.775 62.8703 138.029C62.8703 138.283 62.6656 138.488 62.4114 138.488Z" fill="#EEBEFF"/>
<g opacity="0.3">
<path d="M86.3066 58.3659C86.0524 58.3659 85.8477 58.1612 85.8477 57.907V54.6518C85.8477 54.3976 86.0524 54.1929 86.3066 54.1929C86.5608 54.1929 86.7656 54.3976 86.7656 54.6518V57.8999C86.7726 58.1541 86.5679 58.3659 86.3066 58.3659Z" fill="#EEBEFF"/>
<path d="M87.9387 56.7348H84.6836C84.4294 56.7348 84.2246 56.5301 84.2246 56.2759C84.2246 56.0217 84.4294 55.8169 84.6836 55.8169H87.9387C88.1929 55.8169 88.3977 56.0217 88.3977 56.2759C88.3977 56.5301 88.1929 56.7348 87.9387 56.7348Z" fill="#EEBEFF"/>
</g>
<path d="M356.959 97.2937C356.705 97.2937 356.5 97.0889 356.5 96.8347V93.5796C356.5 93.3254 356.705 93.1206 356.959 93.1206C357.213 93.1206 357.418 93.3254 357.418 93.5796V96.8347C357.425 97.0889 357.213 97.2937 356.959 97.2937Z" fill="#EEBEFF"/>
<path d="M358.589 95.6699H355.334C355.08 95.6699 354.875 95.4651 354.875 95.2109C354.875 94.9567 355.08 94.752 355.334 94.752H358.589C358.843 94.752 359.048 94.9567 359.048 95.2109C359.048 95.4651 358.843 95.6699 358.589 95.6699Z" fill="#EEBEFF"/>
<path d="M168.496 68.4914C168.242 68.4914 168.037 68.2867 168.037 68.0325V64.7773C168.037 64.5231 168.242 64.3184 168.496 64.3184C168.75 64.3184 168.955 64.5231 168.955 64.7773V68.0325C168.955 68.2867 168.75 68.4914 168.496 68.4914Z" fill="#EEBEFF"/>
<path d="M170.122 66.8676H166.867C166.613 66.8676 166.408 66.6629 166.408 66.4087C166.408 66.1545 166.613 65.9497 166.867 65.9497H170.122C170.376 65.9497 170.581 66.1545 170.581 66.4087C170.588 66.6558 170.376 66.8676 170.122 66.8676Z" fill="#EEBEFF"/>
<path d="M358.862 30.8989H343.568C343.032 30.8989 342.594 31.3367 342.594 31.8733V47.1675C342.594 47.7042 343.032 48.142 343.568 48.142H358.862C359.399 48.142 359.837 47.7042 359.837 47.1675V31.8733C359.837 31.3296 359.399 30.8989 358.862 30.8989ZM354.266 39.3369V44.788H348.158V39.3369H346.273L351.208 34.2529L356.144 39.3369H354.266Z" fill="#EEBEFF"/>
<path d="M196.605 40.7561V55.2171C196.605 55.436 196.535 55.6408 196.415 55.8032C196.231 56.0715 195.928 56.241 195.582 56.241H174.335C174.06 56.241 173.812 56.128 173.629 55.9656V42.5355C173.629 42.0483 174.031 41.6529 174.526 41.6529H189.46C189.947 41.6529 190.342 41.2504 190.342 40.7561C190.342 40.2689 190.738 39.8594 191.225 39.8594H195.709C196.203 39.8664 196.605 40.2689 196.605 40.7561Z" fill="#340928"/>
<path d="M196.415 55.8103C196.232 56.0787 195.928 56.2481 195.582 56.2481H174.335C174.06 56.2481 173.813 56.1351 173.629 55.9727C173.545 55.888 173.46 55.7821 173.417 55.6691C173.403 55.6479 173.396 55.6197 173.389 55.5985L168.658 44.8022C168.411 44.2373 168.828 43.6089 169.442 43.6089H190.512C190.851 43.6089 191.162 43.8066 191.296 44.1173L195.723 54.2216L196.415 55.8103Z" fill="#B144C3"/>
<path opacity="0.3" d="M122.493 33.4338C122.472 33.3208 122.444 33.2008 122.409 33.0808C122.31 32.6077 122.183 32.1487 122.027 31.7039C121.674 30.6871 121.194 29.7338 120.601 28.8512L121.992 27.4673L118.659 24.1344L118.596 24.198L117.275 25.5255C115.912 24.6005 114.366 23.9509 112.693 23.6261V21.6631H107.976V23.6261C106.302 23.9509 104.756 24.6075 103.393 25.5255L102.009 24.1344L98.6764 27.4673L100.067 28.8512C99.1425 30.214 98.4928 31.7604 98.168 33.4338H96.2051V38.1506H98.1751C98.4928 39.824 99.1425 41.3704 100.067 42.7332L98.6764 44.1171L102.009 47.45L103.393 46.0589C104.756 46.9839 106.302 47.6335 107.976 47.9513V49.9213H112.693V47.9513C114.366 47.6335 115.912 46.9839 117.275 46.0589L118.596 47.3864L118.659 47.45L120.664 45.4446L121.992 44.1171L120.664 42.7967L120.601 42.7332C120.622 42.6979 120.643 42.6696 120.664 42.6343C121.554 41.2998 122.183 39.7817 122.493 38.1506H124.47V33.4338H122.493ZM110.334 43.6582C105.985 43.6582 102.461 40.1347 102.461 35.7851C102.461 31.4355 105.985 27.9121 110.334 27.9121C114.684 27.9121 118.207 31.4355 118.207 35.7851C118.207 40.1418 114.684 43.6582 110.334 43.6582Z" fill="#EEBEFF"/>
<path d="M141.389 61.0708L128.855 73.9784H133.643V95.1756H149.142V73.9784H153.922L141.389 61.0708Z" fill="#B144C3"/>
<path d="M425.702 156.846L417.49 165.298H420.625V179.173H430.772V165.298H433.907L425.702 156.846Z" fill="#5F2C9F"/>
<path d="M276.262 84.7744C276.961 84.7744 277.632 84.8944 278.261 85.1062C278.409 79.8881 282.688 75.708 287.941 75.708C293.293 75.708 297.629 80.0435 297.629 85.3957C297.629 85.6429 297.615 85.8829 297.601 86.123C298.533 84.5484 300.249 83.4893 302.212 83.4893C305.177 83.4893 307.578 85.89 307.578 88.8556C307.578 89.2793 307.521 89.6818 307.437 90.0772C307.987 89.7665 308.623 89.59 309.308 89.59C311.433 89.59 313.156 91.3129 313.156 93.4382C313.156 95.5636 311.433 97.2865 309.308 97.2865C307.183 97.2865 278.981 97.2865 276.276 97.2865C272.824 97.2865 270.027 94.4903 270.027 91.0375C270.013 87.5705 272.809 84.7744 276.262 84.7744Z" fill="#B144C3"/>
<path d="M288.351 81.583L284.064 85.9961H285.703V93.2408H290.998V85.9961H292.629L288.351 81.583Z" fill="white"/>
<path d="M57.7088 190.676L49.5039 199.128H52.639V213.01H62.7857V199.128H65.9208L57.7088 190.676Z" fill="#EEBEFF"/>
</g>
</g>
<defs>
<linearGradient id="paint0_linear_114_2257" x1="243.959" y1="84.9045" x2="243.959" y2="233.832" gradientUnits="userSpaceOnUse">
<stop stop-color="white"/>
<stop offset="1" stop-color="white" stop-opacity="0"/>
</linearGradient>
<linearGradient id="paint1_linear_114_2257" x1="275.161" y1="84.9045" x2="275.161" y2="233.832" gradientUnits="userSpaceOnUse">
<stop stop-color="white"/>
<stop offset="1" stop-color="white" stop-opacity="0"/>
</linearGradient>
<clipPath id="clip0_114_2257">
<rect width="445" height="294.325" fill="white"/>
</clipPath>
</defs>
</svg>
