<svg width="337" height="294" viewBox="0 0 337 294" fill="none" xmlns="http://www.w3.org/2000/svg">
<g clip-path="url(#clip0_84_588)">
<path d="M290.531 222.638C339.628 173.54 339.628 93.9366 290.531 44.8388C241.433 -4.25908 161.829 -4.25906 112.732 44.8388C63.6337 93.9366 63.6337 173.54 112.732 222.638C161.829 271.736 241.433 271.736 290.531 222.638Z" fill="#E9B5F2"/>
<path d="M122.132 264.633C122.132 264.633 120.148 201.545 40.3848 170.367C12.896 159.619 -27.1786 198.815 29.7835 214.93C53.3168 221.575 86.4392 223.453 122.132 264.633Z" fill="#AB80F2"/>
<path d="M28.1699 188.826C28.1699 188.826 109.278 210.455 131.493 289.445" stroke="#5529D3" stroke-width="2.27915" stroke-miterlimit="10"/>
<path d="M64.7638 133.263C69.9313 136.712 71.5295 143.411 71.5295 143.411C71.5295 143.411 64.7372 144.516 59.5564 141.067C54.3889 137.618 51.3524 133.063 52.7907 130.919C54.2291 128.761 59.583 129.813 64.7638 133.263Z" fill="#A05EF4"/>
<path d="M76.6327 148.046C80.9878 149.804 83.1986 154.519 83.1986 154.519C83.1986 154.519 78.3375 156.383 73.9824 154.625C69.6273 152.867 66.684 149.964 67.4165 148.152C68.149 146.328 72.2777 146.275 76.6327 148.046Z" fill="#A05EF4"/>
<path d="M81.1963 142.492C82.9942 146.834 81.1829 151.708 81.1829 151.708C81.1829 151.708 76.4416 149.551 74.6437 145.209C72.8457 140.867 72.8457 136.739 74.657 135.993C76.455 135.247 79.385 138.15 81.1963 142.492Z" fill="#A05EF4"/>
<path d="M83.9297 157.754C89.4567 159.033 92.9594 164.254 92.9594 164.254C92.9594 164.254 87.5123 167.383 81.9852 166.091C76.4581 164.813 72.4227 161.896 72.9554 159.592C73.5015 157.301 78.4159 156.476 83.9297 157.754Z" fill="#A05EF4"/>
<path d="M93.6368 152.002C95.2217 157.449 92.3982 163.056 92.3982 163.056C92.3982 163.056 87.0043 159.833 85.4194 154.399C83.8346 148.952 84.3806 144.011 86.658 143.345C88.9221 142.679 92.0386 146.555 93.6368 152.002Z" fill="#A05EF4"/>
<path d="M89.2043 169.169C94.8778 169.156 99.486 173.418 99.486 173.418C99.486 173.418 94.9045 177.706 89.2309 177.733C83.5574 177.746 78.9492 175.855 78.9492 173.484C78.9359 171.127 83.5307 169.196 89.2043 169.169Z" fill="#A05EF4"/>
<path d="M96.1547 181.781C102.201 181.501 107.315 185.829 107.315 185.829C107.315 185.829 102.627 190.624 96.5808 190.904C90.5344 191.183 85.54 189.372 85.4202 186.855C85.3003 184.338 90.1082 182.06 96.1547 181.781Z" fill="#A05EF4"/>
<path d="M102.48 194.393C108.46 193.5 114 197.296 114 197.296C114 197.296 109.818 202.543 103.839 203.436C97.8586 204.328 92.6911 203.036 92.3182 200.532C91.9453 198.029 96.5002 195.285 102.48 194.393Z" fill="#A05EF4"/>
<path d="M109.648 208.75C115.695 208.857 120.529 213.505 120.529 213.505C120.529 213.505 115.548 217.993 109.489 217.887C103.442 217.78 98.5677 215.662 98.6077 213.132C98.6609 210.601 103.602 208.644 109.648 208.75Z" fill="#A05EF4"/>
<path d="M99.0851 161.83C96.8476 167.038 98.9652 172.951 98.9652 172.951C98.9652 172.951 104.705 170.407 106.943 165.2C109.18 159.992 109.234 155.011 107.063 154.079C104.892 153.147 101.323 156.623 99.0851 161.83Z" fill="#A05EF4"/>
<path d="M109.553 174.322C106.13 179.317 107.116 185.936 107.116 185.936C107.116 185.936 113.655 184.471 117.078 179.49C120.501 174.496 121.593 169.301 119.515 167.876C117.438 166.451 112.976 169.341 109.553 174.322Z" fill="#A05EF4"/>
<path d="M116.931 186.348C113.016 190.969 113.322 197.655 113.322 197.655C113.322 197.655 119.981 196.869 123.897 192.248C127.812 187.627 129.424 182.566 127.506 180.941C125.575 179.316 120.847 181.74 116.931 186.348Z" fill="#A05EF4"/>
<path d="M121.855 201.958C118.752 207.152 120.15 213.705 120.15 213.705C120.15 213.705 126.583 211.84 129.686 206.633C132.789 201.438 133.548 196.178 131.391 194.886C129.233 193.594 124.958 196.75 121.855 201.958Z" fill="#A05EF4"/>
<path d="M115.775 223.813C121.675 225.158 125.444 230.698 125.444 230.698C125.444 230.698 119.651 234.054 113.737 232.709C107.837 231.364 103.509 228.274 104.068 225.824C104.641 223.373 109.875 222.468 115.775 223.813Z" fill="#A05EF4"/>
<path d="M129.132 219.684C125.016 224.132 125.043 230.831 125.043 230.831C125.043 230.831 131.729 230.325 135.831 225.89C139.946 221.442 141.771 216.461 139.919 214.743C138.068 213.025 133.234 215.249 129.132 219.684Z" fill="#A05EF4"/>
<path d="M119.622 240.195C125.389 242.033 128.665 247.88 128.665 247.88C128.665 247.88 122.606 250.73 116.839 248.892C111.072 247.054 107.023 243.604 107.796 241.207C108.568 238.797 113.869 238.357 119.622 240.195Z" fill="#A05EF4"/>
<path d="M133.285 237.211C128.81 241.287 128.264 247.972 128.264 247.972C128.264 247.972 134.963 248.039 139.438 243.964C143.913 239.888 146.163 235.067 144.459 233.202C142.754 231.338 137.746 233.136 133.285 237.211Z" fill="#A05EF4"/>
<path d="M65.3242 139.535C65.3242 139.535 95.0239 155.624 114.841 200.559C134.659 245.495 130.877 287.98 130.877 287.98" stroke="#A05EF4" stroke-width="1.709" stroke-miterlimit="10"/>
<path d="M328.004 190.49C324.155 192.448 322.504 196.923 322.504 196.923C322.504 196.923 327.099 198.242 330.948 196.297C334.797 194.339 337.261 191.463 336.448 189.864C335.636 188.253 331.853 188.533 328.004 190.49Z" fill="#6239A5"/>
<path d="M318.614 199.693C315.471 200.546 313.553 203.609 313.553 203.609C313.553 203.609 316.749 205.287 319.892 204.435C323.035 203.582 325.299 201.824 324.953 200.519C324.594 199.214 321.757 198.841 318.614 199.693Z" fill="#6239A5"/>
<path d="M315.923 195.498C314.324 198.335 315.163 201.851 315.163 201.851C315.163 201.851 318.6 200.759 320.211 197.909C321.809 195.072 322.156 192.222 320.97 191.556C319.785 190.89 317.521 192.648 315.923 195.498Z" fill="#6239A5"/>
<path d="M312.78 205.779C308.864 206.205 306.027 209.508 306.027 209.508C306.027 209.508 309.517 212.105 313.432 211.679C317.348 211.253 320.371 209.575 320.185 207.95C319.998 206.325 316.682 205.353 312.78 205.779Z" fill="#6239A5"/>
<path d="M306.576 201.012C305.031 204.634 306.522 208.736 306.522 208.736C306.522 208.736 310.505 206.965 312.05 203.342C313.594 199.72 313.621 196.271 312.103 195.618C310.585 194.979 308.121 197.403 306.576 201.012Z" fill="#6239A5"/>
<path d="M308.213 213.211C304.311 212.732 300.781 215.289 300.781 215.289C300.781 215.289 303.578 218.618 307.494 219.111C311.396 219.591 314.725 218.658 314.925 217.034C315.125 215.409 312.115 213.691 308.213 213.211Z" fill="#6239A5"/>
<path d="M302.377 221.322C298.235 220.629 294.359 223.199 294.359 223.199C294.359 223.199 297.196 226.889 301.338 227.581C305.48 228.274 309.076 227.435 309.356 225.703C309.635 223.972 306.519 222.014 302.377 221.322Z" fill="#6239A5"/>
<path d="M296.971 229.486C292.922 228.381 288.807 230.538 288.807 230.538C288.807 230.538 291.257 234.494 295.306 235.599C299.355 236.705 303.017 236.238 303.47 234.547C303.936 232.869 301.033 230.605 296.971 229.486Z" fill="#6239A5"/>
<path d="M290.861 238.796C286.679 238.37 282.977 241.167 282.977 241.167C282.977 241.167 286.04 244.669 290.222 245.096C294.404 245.522 297.933 244.456 298.106 242.725C298.279 240.98 295.043 239.222 290.861 238.796Z" fill="#6239A5"/>
<path d="M302.007 207.338C303.113 211.107 301.168 215.009 301.168 215.009C301.168 215.009 297.426 212.785 296.307 209.016C295.202 205.247 295.575 201.811 297.146 201.344C298.718 200.878 300.902 203.569 302.007 207.338Z" fill="#6239A5"/>
<path d="M293.762 215.089C295.707 218.805 294.482 223.293 294.482 223.293C294.482 223.293 290.1 221.748 288.142 218.032C286.198 214.316 285.865 210.641 287.423 209.828C288.981 209.016 291.818 211.373 293.762 215.089Z" fill="#6239A5"/>
<path d="M287.69 222.76C290.008 226.263 289.249 230.844 289.249 230.844C289.249 230.844 284.734 229.752 282.416 226.25C280.099 222.747 279.407 219.124 280.858 218.166C282.31 217.207 285.373 219.258 287.69 222.76Z" fill="#6239A5"/>
<path d="M283.013 233.108C284.718 236.944 283.213 241.339 283.213 241.339C283.213 241.339 278.938 239.515 277.22 235.679C275.515 231.843 275.422 228.154 277.02 227.448C278.618 226.742 281.295 229.273 283.013 233.108Z" fill="#6239A5"/>
<path d="M285.398 248.664C281.216 249.104 278.166 252.62 278.166 252.62C278.166 252.62 281.882 255.417 286.064 254.977C290.246 254.538 293.482 252.766 293.296 251.022C293.109 249.277 289.566 248.225 285.398 248.664Z" fill="#6239A5"/>
<path d="M276.545 244.722C279.009 248.119 278.436 252.74 278.436 252.74C278.436 252.74 273.868 251.848 271.404 248.438C268.94 245.042 268.088 241.446 269.513 240.421C270.938 239.395 274.081 241.326 276.545 244.722Z" fill="#6239A5"/>
<path d="M281.39 259.639C277.261 260.438 274.518 264.194 274.518 264.194C274.518 264.194 278.46 266.658 282.588 265.859C286.717 265.06 289.78 263.022 289.461 261.304C289.128 259.586 285.518 258.84 281.39 259.639Z" fill="#6239A5"/>
<path d="M272.24 256.456C274.984 259.639 274.811 264.287 274.811 264.287C274.811 264.287 270.189 263.781 267.446 260.598C264.702 257.414 263.543 253.912 264.875 252.766C266.194 251.634 269.497 253.272 272.24 256.456Z" fill="#6239A5"/>
<path d="M327.097 194.766C327.097 194.766 305.309 203.396 287.955 232.723C270.601 262.049 269.709 291.629 269.709 291.629" stroke="#6239A5" stroke-width="1.18572" stroke-miterlimit="10"/>
<path d="M262.557 268.003C262.557 268.003 240.235 199.507 273.757 143.73C288.967 118.439 345.196 127.322 308.411 173.683C293.215 192.848 267.444 213.731 262.557 268.003Z" fill="#AB80F2"/>
<path d="M294.466 151.575C294.466 151.575 241.313 216.542 269.468 293.614" stroke="#5529D3" stroke-width="2.27915" stroke-miterlimit="10"/>
<path d="M273.807 280.016C273.807 280.016 284.128 246.92 312.816 234.387C325.828 228.701 345.419 247.852 318.063 255.79C306.783 259.066 290.854 260.078 273.807 280.016Z" fill="#AB80F2"/>
<path d="M318.769 243.23C318.769 243.23 279.813 253.912 269.385 291.989" stroke="#5529D3" stroke-width="1.09662" stroke-miterlimit="10"/>
<path d="M244.398 28.2077L244.251 20.3233C244.225 19.0581 243.665 17.8595 242.72 17.0071C241.188 15.6353 239.297 13.1848 239.736 12.6121C240.549 11.5466 243.226 15.4355 244.305 14.6365C244.624 14.3967 242.786 3.78209 243.878 3.84868C244.731 3.90196 245.064 9.88184 245.437 9.84189C245.81 9.80193 245.716 -0.0535599 246.502 0.0130313C247.261 0.0929406 247.528 9.05611 248.047 8.73647C248.806 8.25702 248.02 0.85208 249.286 0.492488C250.125 0.252759 250.005 9.9218 250.471 10.0816C251.057 10.2947 251.31 3.83536 252.043 4.08841C253.055 4.448 251.536 15.4355 251.536 15.4355L249.619 29.3931L244.398 28.2077Z" fill="#FFB49B"/>
<path d="M130.09 63.3543L124.776 57.5209C123.924 56.5753 123.511 55.3234 123.604 54.0582C123.764 52.0072 123.458 48.9307 122.738 48.8108C121.42 48.5977 122.139 53.2591 120.821 53.4189C120.421 53.4722 114.455 44.4957 113.709 45.2948C113.123 45.9207 116.998 50.4889 116.692 50.7153C116.386 50.9417 109.687 43.7232 109.167 44.3092C108.674 44.8819 114.641 51.581 114.042 51.7009C113.163 51.874 108.634 45.9607 107.476 46.5733C106.703 46.9862 113.442 53.9117 113.203 54.3512C112.923 54.9106 108.288 50.3957 107.942 51.0749C107.449 52.0205 116.119 58.9593 116.119 58.9593L127.107 67.776L130.09 63.3543Z" fill="#FFB49B"/>
<path d="M203.217 43.0709C200.714 32.6826 191.378 24.9447 180.204 24.9447C179.245 24.9447 178.299 24.998 177.367 25.1179C172.985 25.6639 168.563 25.8238 164.182 25.2378C162.251 24.9714 160.08 24.6917 157.856 24.3987C147.241 23.0136 138.717 33.1754 142.073 43.3505C142.113 43.4704 142.153 43.6036 142.193 43.7235C144.085 49.2638 144.977 55.0573 145.057 60.9173C145.057 61.4101 145.083 61.9028 145.123 62.3956C145.936 73.4631 154.633 82.6526 165.633 84.091C167.045 84.2775 168.43 84.3307 169.789 84.2775C176.128 83.9978 182.454 84.8635 188.314 87.3007C190.832 88.3529 193.429 89.1386 195.506 89.1386C208.585 89.1386 219.199 78.5373 219.199 65.4455C219.213 55.0706 212.527 46.2672 203.217 43.0709Z" fill="#41378C"/>
<path d="M258.369 40.2607C258.369 40.2607 254.693 76.9258 249.086 87.607C244.664 96.0375 222.463 114.883 222.463 114.883C219.36 118.066 214.179 117.879 211.302 114.483C209.238 112.033 208.931 108.543 210.556 105.786C210.556 105.786 230.787 83.9578 233.796 74.7416C236.647 66.0049 233.344 37.9833 233.344 37.9833C233.237 29.8325 240.762 23.7328 248.713 25.5041C255.412 26.9958 259.687 33.5483 258.369 40.2607Z" fill="white"/>
<path d="M231.319 245.947C227.19 244.576 226.418 247.466 225.033 252.607C223.648 257.747 223.394 261.623 224.713 261.983C225.952 262.316 227.71 260.504 230.666 256.083C234.236 250.769 234.009 246.84 231.319 245.947Z" fill="#41378C"/>
<path d="M234.474 240.794L230.466 246.348C229.187 248.092 229.24 249.344 230.026 250.13C230.825 250.916 232.09 250.942 232.929 250.183L239.575 244.616L234.474 240.794Z" fill="#FFB49B"/>
<path d="M219.784 145.794C199.62 153.732 205.201 181.048 214.697 186.681C228.814 195.059 256.995 191.543 257.009 193.727C257.102 202.93 232.53 241.552 232.53 241.552C232.33 241.925 232.37 242.392 232.636 242.698C234.075 244.323 235.02 245.388 237.604 247.04C237.91 247.239 238.323 247.066 238.589 246.826C252.361 234.001 280.302 202.344 283.592 188.692C289.079 165.932 223.553 144.316 219.784 145.794Z" fill="#9347C1"/>
<path d="M121.071 231.483C119.3 227.515 116.649 228.886 111.921 231.337C107.193 233.774 104.157 236.211 104.783 237.437C105.369 238.569 107.899 238.649 113.16 237.85C119.473 236.891 122.216 234.067 121.071 231.483Z" fill="#41378C"/>
<path d="M126.998 230.325L120.193 231.111C118.049 231.337 117.143 232.23 117.103 233.335C117.063 234.454 117.902 235.413 119.007 235.519L127.611 236.678L126.998 230.325Z" fill="#FFB49B"/>
<path d="M221.089 149.004C216.961 144.742 197.37 148.125 197.37 148.125C177.086 155.73 178.098 173.416 180.349 184.231C183.692 200.306 178.551 213.731 176.953 215.222C170.227 221.495 125.145 229.419 125.145 229.419C124.732 229.526 124.412 229.859 124.372 230.272C124.146 232.416 124 233.854 124.519 236.864C124.586 237.224 124.985 237.41 125.345 237.437C144.097 238.955 181.854 242.245 193.88 235.026C221.422 218.485 236.778 165.212 221.089 149.004Z" fill="#8943C1"/>
<path d="M220.985 156.728C227.312 155.929 232.599 151.494 234.437 145.395C237.194 136.232 240.963 121.289 239.245 112.738C237.647 104.747 231.467 89.9375 215.964 89.9375C205.63 89.9375 184.773 93.0007 186.132 108.863C186.984 118.745 188.675 137.35 196.44 149.803C197.892 152.134 200.116 153.905 202.726 154.757C206.788 156.063 213.594 157.661 220.985 156.728Z" fill="white"/>
<path d="M214.139 98.5409C211.143 98.5409 208.719 96.117 208.719 93.1204V75.2207H219.56V93.1071C219.56 96.117 217.136 98.5409 214.139 98.5409Z" fill="#FFA587"/>
<path d="M218.481 89.1516C218.854 89.1516 219.214 89.1116 219.56 89.0583V75.2207H208.719V77.2451C208.719 82.639 213.087 89.1516 218.481 89.1516Z" fill="#F5876E"/>
<path d="M220.932 85.4103C216.497 87.1017 208.506 84.0252 206.802 79.5902C206.802 79.5902 203.099 72.8778 203.299 70.4406C204.218 59.16 214.966 61.3442 218.894 63.1022C221.132 64.1011 222.224 71.0932 222.85 73.4505C224.075 78.032 222.863 84.6644 220.932 85.4103Z" fill="#FFB49B"/>
<path d="M201.887 76.7262C202.646 78.7106 204.844 79.7095 206.801 78.9637L204.058 71.7852C202.1 72.5443 201.128 74.7551 201.887 76.7262Z" fill="#FFA587"/>
<path d="M218.895 63.0879L205.364 68.2687L206.496 71.2387C205.151 71.838 204.485 73.4095 205.031 74.8213C205.177 75.1942 205.377 75.5005 205.63 75.7668C205.923 75.5138 206.176 75.2341 206.376 74.9145C206.816 74.2486 207.468 73.7824 208.201 73.4894C209.812 72.8635 211.104 71.7181 211.93 70.2931C213.088 68.3086 214.993 66.8037 217.23 66.3375C217.71 66.2443 218.176 66.0978 218.642 65.9247C219.028 65.7782 219.428 65.5784 219.774 65.3919L218.895 63.0879Z" fill="#FFA587"/>
<path d="M209.826 45.0287C206.922 46.2407 204.831 48.598 203.872 51.3682C202.86 54.2716 200.689 56.549 198.079 58.1871C198.052 58.2004 198.012 58.2271 197.986 58.2404C195.109 60.0916 193.577 63.581 194.203 66.9505C194.283 67.39 194.403 67.8295 194.536 68.2291C195.002 69.5875 195.269 71.0392 195.082 72.4643C195.002 73.1302 195.069 73.8094 195.322 74.4753C196.201 76.7794 198.905 77.8715 201.355 76.9392C202.367 76.553 203.18 75.8737 203.726 75.048C204.219 74.2889 204.964 73.7561 205.817 73.4232C207.655 72.704 209.12 71.4121 210.065 69.7873C211.384 67.5232 213.555 65.8185 216.112 65.2724C216.658 65.1525 217.191 65.006 217.723 64.793C223.304 62.662 226.06 56.3226 223.743 50.7689C221.586 45.5747 215.033 42.8711 209.826 45.0287Z" fill="#41378C"/>
<path d="M123.656 76.8063C123.656 76.8063 147.802 99.2342 158.75 103.909C166.661 107.292 197.413 110.541 197.413 110.541C201.315 111.54 205.324 108.956 206.056 104.974C206.589 102.111 205.244 99.2741 202.713 97.9157C202.713 97.9157 175.411 93.5073 167.846 89.1656C160.188 84.7706 142.408 63.2749 142.408 63.2749C135.509 56.6425 130.102 55.7768 124.615 60.891C119.994 65.1795 118.129 73.3835 123.656 76.8063Z" fill="white"/>
</g>
<defs>
<clipPath id="clip0_84_588">
<rect width="335.753" height="294" fill="white" transform="translate(0.849609)"/>
</clipPath>
</defs>
</svg>
