<svg width="348" height="240" viewBox="0 0 348 240" fill="none" xmlns="http://www.w3.org/2000/svg">
<path d="M340.032 197.44L347.983 73.4047C348.243 69.3103 345.416 65.9822 341.65 65.9932L144.135 66.1793C140.379 66.1793 137.122 69.5073 136.853 73.6017L128.901 197.637C128.642 201.731 131.469 205.059 135.234 205.049L332.75 204.862C336.505 204.862 339.772 201.534 340.032 197.44Z" fill="#263238"/>
<path d="M337.493 194.74L345.444 70.7045C345.704 66.6101 342.877 63.282 339.111 63.293L141.596 63.4791C137.84 63.4791 134.583 66.8071 134.314 70.9015L126.362 194.937C126.103 199.031 128.929 202.359 132.695 202.348L330.211 202.162C333.976 202.162 337.233 198.834 337.493 194.74Z" fill="#B365C0"/>
<path opacity="0.6" d="M332.259 196.568C331.979 196.853 331.49 197.203 330.771 197.203L133.255 197.389C131.927 197.389 130.838 196.119 130.938 194.674L138.889 70.6387C138.939 69.8614 139.289 69.3579 139.569 69.0623C139.848 68.7776 140.338 68.4273 141.057 68.4273L338.572 68.2412C339.901 68.2412 340.979 69.5111 340.89 70.9562L332.938 194.992C332.888 195.78 332.539 196.283 332.259 196.568Z" fill="white"/>
<path d="M266.559 128.376H197.224C195.986 128.376 194.877 129.471 194.747 130.817L193.688 141.929C193.558 143.276 194.457 144.37 195.696 144.37H265.031C266.269 144.37 267.378 143.276 267.508 141.929L268.567 130.817C268.697 129.471 267.798 128.376 266.559 128.376Z" fill="white"/>
<path d="M205.472 173.765H194.654C193.415 173.765 192.307 174.859 192.177 176.206L191.118 187.318C190.988 188.664 191.887 189.759 193.126 189.759H203.944C205.183 189.759 206.291 188.664 206.421 187.318L207.48 176.206C207.61 174.859 206.711 173.765 205.472 173.765Z" fill="white"/>
<path d="M224.15 173.765H213.332C212.093 173.765 210.984 174.859 210.855 176.206L209.796 187.318C209.666 188.664 210.565 189.759 211.803 189.759H222.622C223.86 189.759 224.969 188.664 225.099 187.318L226.158 176.206C226.288 174.859 225.389 173.765 224.15 173.765Z" fill="white"/>
<path d="M242.832 173.765H232.013C230.775 173.765 229.666 174.859 229.536 176.206L228.477 187.318C228.347 188.664 229.246 189.759 230.485 189.759H241.303C242.542 189.759 243.651 188.664 243.781 187.318L244.84 176.206C244.969 174.859 244.07 173.765 242.832 173.765Z" fill="white"/>
<path d="M261.511 173.765H250.693C249.455 173.765 248.346 174.859 248.216 176.206L247.157 187.318C247.027 188.664 247.926 189.759 249.165 189.759H259.983C261.222 189.759 262.331 188.664 262.46 187.318L263.519 176.206C263.649 174.859 262.75 173.765 261.511 173.765Z" fill="white"/>
<path d="M205.925 166.189H249.298C251.406 166.189 253.294 164.328 253.514 162.029L254.033 156.577C254.253 154.278 252.724 152.417 250.617 152.417H207.244C205.136 152.417 203.248 154.278 203.028 156.577L202.509 162.029C202.279 164.328 203.818 166.189 205.925 166.189Z" stroke="#B365C0" stroke-width="0.970076" stroke-miterlimit="10" stroke-linecap="round" stroke-linejoin="round"/>
<path d="M269.055 105.244H199.721C198.482 105.244 197.373 106.339 197.243 107.685L196.184 118.797C196.054 120.144 196.954 121.238 198.192 121.238H267.527C268.765 121.238 269.874 120.144 270.004 118.797L271.063 107.685C271.193 106.339 270.294 105.244 269.055 105.244Z" fill="white"/>
<path d="M205.656 136.379C205.795 134.879 204.806 133.675 203.428 133.675C202.059 133.675 200.831 134.89 200.691 136.379C200.551 137.879 201.54 139.083 202.918 139.083C204.297 139.083 205.516 137.879 205.656 136.379Z" fill="#263238"/>
<path d="M213.284 136.379C213.424 134.879 212.435 133.675 211.057 133.675C209.688 133.675 208.46 134.89 208.32 136.379C208.18 137.879 209.169 139.083 210.547 139.083C211.926 139.083 213.135 137.879 213.284 136.379Z" fill="#263238"/>
<path d="M220.907 136.379C221.047 134.879 220.058 133.675 218.68 133.675C217.311 133.675 216.083 134.89 215.943 136.379C215.803 137.879 216.792 139.083 218.17 139.083C219.539 139.083 220.768 137.879 220.907 136.379Z" fill="#263238"/>
<path d="M228.527 136.379C228.666 134.879 227.678 133.675 226.299 133.675C224.921 133.675 223.702 134.89 223.562 136.379C223.422 137.879 224.411 139.083 225.79 139.083C227.158 139.083 228.387 137.879 228.527 136.379Z" fill="#263238"/>
<path d="M236.31 136.379C236.45 134.879 235.461 133.675 234.082 133.675C232.714 133.675 231.485 134.89 231.345 136.379C231.205 137.879 232.194 139.083 233.573 139.083C234.931 139.083 236.16 137.879 236.31 136.379Z" fill="#263238"/>
<path d="M208.152 113.246C208.291 111.746 207.303 110.542 205.924 110.542C204.556 110.542 203.327 111.757 203.187 113.246C203.047 114.746 204.036 115.95 205.415 115.95C206.783 115.95 208.012 114.735 208.152 113.246Z" fill="#263238"/>
<path d="M215.781 113.246C215.92 111.746 214.931 110.542 213.553 110.542C212.184 110.542 210.956 111.757 210.816 113.246C210.676 114.746 211.665 115.95 213.043 115.95C214.412 115.95 215.631 114.735 215.781 113.246Z" fill="#263238"/>
<path d="M223.404 113.246C223.543 111.746 222.554 110.542 221.176 110.542C219.807 110.542 218.579 111.757 218.439 113.246C218.299 114.746 219.288 115.95 220.667 115.95C222.035 115.95 223.264 114.735 223.404 113.246Z" fill="#263238"/>
<path d="M231.027 113.246C231.166 111.746 230.178 110.542 228.799 110.542C227.431 110.542 226.202 111.757 226.062 113.246C225.922 114.746 226.911 115.95 228.29 115.95C229.658 115.95 230.887 114.735 231.027 113.246Z" fill="#263238"/>
<path d="M238.657 113.246C238.797 111.746 237.808 110.542 236.43 110.542C235.061 110.542 233.833 111.757 233.693 113.246C233.553 114.746 234.542 115.95 235.92 115.95C237.289 115.95 238.508 114.735 238.657 113.246Z" fill="#263238"/>
<path d="M246.281 113.246C246.42 111.746 245.431 110.542 244.053 110.542C242.684 110.542 241.456 111.757 241.316 113.246C241.176 114.746 242.165 115.95 243.543 115.95C244.912 115.95 246.141 114.735 246.281 113.246Z" fill="#263238"/>
<path d="M239.808 80.7318L239.269 86.3479C239.219 86.8515 238.809 87.2675 238.34 87.2675C237.88 87.2675 237.541 86.8624 237.591 86.3479L238.13 80.7318C238.3 78.9145 237.091 77.4476 235.433 77.4476H233.595C231.937 77.4476 230.439 78.9255 230.269 80.7318L229.799 85.9428H228.121L228.591 80.7318C228.86 77.9074 231.188 75.6084 233.775 75.6084H235.613C238.19 75.6193 240.078 77.9183 239.808 80.7318Z" fill="#B365C0"/>
<path d="M239.842 86.1386L238.793 97.0752C238.723 97.7649 238.163 98.3232 237.524 98.3232H227.495C226.866 98.3232 226.406 97.7649 226.466 97.0752L227.515 86.1386C227.555 85.6898 227.815 85.2957 228.154 85.0767C228.344 84.9563 228.554 84.8906 228.784 84.8906H238.813C239.033 84.8906 239.222 84.9563 239.392 85.0658C239.702 85.2847 239.882 85.6898 239.842 86.1386Z" fill="#B365C0"/>
<path d="M318.056 62.5586L293.643 62.7235" stroke="#263238" stroke-width="0.970076" stroke-miterlimit="10" stroke-linecap="round" stroke-linejoin="round"/>
<path d="M331.361 62.4814L322.73 62.5258" stroke="#263238" stroke-width="0.970076" stroke-miterlimit="10" stroke-linecap="round" stroke-linejoin="round"/>
<g opacity="0.3">
<path d="M160.017 68.4053H187.966L159.557 197.389H137.062C137.042 197.389 137.022 197.389 137.002 197.389C134.215 197.378 132.257 194.455 132.906 191.488L160.017 68.4053Z" fill="white"/>
<path d="M200.362 68.4053H212.229L183.82 197.389H171.953L200.362 68.4053Z" fill="white"/>
</g>
<path d="M11.731 28.1406H17.4048C11.701 28.1406 7.39567 33.2093 7.79524 39.4604L19.8321 228.086C20.2317 234.337 25.1763 239.406 30.8901 239.406H25.2163C19.5125 239.406 14.5579 234.337 14.1583 228.086L2.12141 39.4604C1.72185 33.2093 6.02716 28.1406 11.731 28.1406Z" fill="#B365C0"/>
<path d="M11.7315 28.1406H17.4053C11.7015 28.1406 7.39617 33.2093 7.79574 39.4604L19.8326 228.086C20.2322 234.337 25.1768 239.406 30.8906 239.406H25.2168C19.513 239.406 13.7592 234.337 13.3597 228.086L1.32278 39.4604C0.923211 33.2093 6.02766 28.1406 11.7315 28.1406Z" fill="#263238"/>
<path d="M26.9057 239.406H96.3302C102.034 239.406 106.339 234.337 105.94 228.086L93.9028 39.4604C93.5033 33.2093 88.5587 28.1406 82.8449 28.1406H13.4204C7.71662 28.1406 3.4113 33.2093 3.81087 39.4604L15.8478 228.086C16.2473 234.337 21.2019 239.406 26.9057 239.406Z" fill="#B365C0"/>
<g opacity="0.6">
<path d="M82.6566 31.7637C86.6222 31.7637 90.0685 35.2997 90.3482 39.6459L102.385 228.272C102.515 230.297 101.926 232.18 100.727 233.592C99.5282 234.993 97.86 235.771 96.022 235.771H26.5975C22.6319 235.771 19.1856 232.235 18.9059 227.888L6.87899 39.2737C6.74914 37.2484 7.33849 35.3654 8.53719 33.9532C9.73589 32.5519 11.4041 31.7746 13.2421 31.7746H82.6566V31.7637Z" fill="white"/>
</g>
<g opacity="0.3">
<path d="M63.059 235.771H35.3691L58.2043 31.7637H80.4901C82.5178 31.7637 84.3359 32.6942 85.6245 34.1831L63.059 235.771Z" fill="white"/>
<path d="M30.4031 235.771H24.1699L47.0051 31.7637H53.2383L30.4031 235.771Z" fill="white"/>
</g>
<path d="M28.2441 120.91H78.5294" stroke="white" stroke-width="0.970076" stroke-miterlimit="10" stroke-linecap="round" stroke-linejoin="round"/>
<path d="M34.7266 129.055H74.1137" stroke="white" stroke-width="0.970076" stroke-miterlimit="10" stroke-linecap="round" stroke-linejoin="round"/>
<path d="M29.7399 83.3259L29.8099 85.4935H28.5213L28.4513 83.3149L26.1738 79.3848H27.5423L29.1206 82.0998L30.5191 79.3848H31.7877L29.7399 83.3259Z" fill="#B365C0"/>
<path d="M31.8282 82.4392C31.7683 80.6219 33.0169 79.2754 34.775 79.2754C36.5231 79.2754 37.8617 80.611 37.9216 82.4392C37.9815 84.2675 36.7229 85.6031 34.9748 85.6031C33.2167 85.5921 31.8882 84.2565 31.8282 82.4392ZM36.623 82.4392C36.5831 81.2788 35.8139 80.4796 34.815 80.4796C33.8161 80.4796 33.0969 81.2788 33.1368 82.4392C33.1768 83.5997 33.9459 84.3988 34.9448 84.3988C35.9338 84.3879 36.653 83.5997 36.623 82.4392Z" fill="#B365C0"/>
<path d="M38.8599 82.7996L38.75 79.373H40.0386L40.1485 82.7449C40.1884 83.9053 40.6579 84.387 41.4471 84.387C42.2362 84.387 42.6757 83.9053 42.6358 82.7449L42.5259 79.373H43.7945L43.9044 82.7996C43.9643 84.595 43.0553 85.5912 41.477 85.5912C39.8888 85.5912 38.9198 84.606 38.8599 82.7996Z" fill="#B365C0"/>
<path d="M48.8201 85.4935L47.6914 83.7857H47.6314H46.5127L46.5626 85.4935H45.274L45.0742 79.3848H47.4816C48.97 79.3848 49.9289 80.2277 49.9689 81.6071C49.9989 82.5267 49.5993 83.1945 48.8901 83.5339L50.1986 85.4935H48.8201ZM47.4516 80.5343H46.4028L46.4727 82.669H47.5216C48.3107 82.669 48.6903 82.264 48.6703 81.6071C48.6503 80.9284 48.2408 80.5343 47.4516 80.5343Z" fill="#B365C0"/>
<path d="M52.9253 82.4392C52.8753 80.6 54.114 79.2754 55.8521 79.2754C56.8111 79.2754 57.6302 79.6586 58.1796 80.3592L57.3804 81.2022C56.9909 80.7314 56.5114 80.4906 55.962 80.4906C54.9231 80.4906 54.2039 81.2897 54.2439 82.4502C54.2838 83.5997 55.043 84.4098 56.0918 84.4098C56.6512 84.4098 57.1107 84.1689 57.4703 83.6872L58.3294 84.5302C57.8299 85.2418 57.0408 85.625 56.0619 85.625C54.3238 85.5921 52.9852 84.2784 52.9253 82.4392Z" fill="#B365C0"/>
<path d="M58.6466 82.4392C58.5867 80.6219 59.8353 79.2754 61.5934 79.2754C63.3415 79.2754 64.68 80.611 64.74 82.4392C64.7999 84.2675 63.5413 85.6031 61.7932 85.6031C60.0351 85.5921 58.7065 84.2565 58.6466 82.4392ZM63.4314 82.4392C63.3914 81.2788 62.6223 80.4796 61.6234 80.4796C60.6244 80.4796 59.9052 81.2788 59.9452 82.4392C59.9851 83.5997 60.7543 84.3988 61.7532 84.3988C62.7521 84.3879 63.4714 83.5997 63.4314 82.4392Z" fill="#B365C0"/>
<path d="M65.6211 79.3848H68.1483C69.9664 79.3848 71.255 80.589 71.3149 82.4391C71.3748 84.2893 70.1662 85.4935 68.3381 85.4935H65.8109L65.6211 79.3848ZM68.2482 84.333C69.357 84.333 70.0563 83.6105 70.0163 82.4391C69.9763 81.2677 69.2272 80.5452 68.1284 80.5452H66.9496L67.0695 84.333H68.2482Z" fill="#B365C0"/>
<path d="M76.6704 84.3549L76.7104 85.4935H72.3951L72.1953 79.3848H76.4007L76.4407 80.5233H73.5139L73.5538 81.848H76.141L76.181 82.9537H73.5938L73.6338 84.3659H76.6704V84.3549Z" fill="#B365C0"/>
<path d="M39.4311 108.21L39.4711 110.663H28.9525L28.9226 108.725L34.4965 102.835C35.855 101.379 36.0848 100.47 36.0748 99.5946C36.0548 98.1605 35.1458 97.3394 33.3877 97.3394C31.9992 97.3394 30.8505 97.854 30.0713 98.9706L28.1934 97.4051C29.2722 95.7739 31.2301 94.8105 33.5775 94.8105C36.6741 94.8105 38.7019 96.5293 38.7419 99.299C38.7619 100.821 38.4023 102.2 36.4544 104.236L32.7084 108.21H39.4311Z" fill="#263238"/>
<path d="M51.0477 105.976C51.0877 108.615 49.3096 110.892 45.4838 110.892C43.4659 110.892 41.4382 110.224 40.0996 109.085L41.2084 106.83C42.2373 107.772 43.7956 108.374 45.4138 108.374C47.3118 108.374 48.4106 107.454 48.3906 106.009C48.3706 104.597 47.4117 103.688 45.254 103.688H43.9454L43.9155 101.707L47.082 97.4811H40.5991L40.5591 95.0508H50.2785L50.3085 96.9885L46.9122 101.499C49.6193 101.871 51.0077 103.634 51.0477 105.976Z" fill="#263238"/>
<path d="M64.3554 106.173C64.4053 109.074 62.1278 110.881 58.5817 110.881C55.0355 110.881 52.748 109.074 52.6981 106.173C52.6681 104.455 53.4672 103.185 54.9157 102.44C53.7669 101.751 53.1176 100.634 53.0877 99.1559C53.0477 96.4738 55.1554 94.7988 58.312 94.7988C61.4885 94.7988 63.6761 96.4738 63.7261 99.1559C63.7461 100.634 63.1167 101.751 61.968 102.44C63.4764 103.185 64.3354 104.455 64.3554 106.173ZM61.6883 106.086C61.6583 104.542 60.4297 103.579 58.4718 103.579C56.5139 103.579 55.3452 104.542 55.3752 106.086C55.4051 107.673 56.5938 108.604 58.5517 108.604C60.5096 108.615 61.7183 107.673 61.6883 106.086ZM55.7148 99.2983C55.7348 100.634 56.7637 101.488 58.4418 101.488C60.13 101.488 61.1589 100.634 61.1389 99.2983C61.1189 97.886 60.0001 97.0869 58.3719 97.0869C56.7337 97.0869 55.6848 97.897 55.7148 99.2983Z" fill="#263238"/>
<path d="M77.6503 106.173C77.7003 109.074 75.4227 110.881 71.8766 110.881C68.3305 110.881 66.0429 109.074 65.993 106.173C65.963 104.455 66.7622 103.185 68.2106 102.44C67.0618 101.751 66.4125 100.634 66.3826 99.1559C66.3426 96.4738 68.4503 94.7988 71.6069 94.7988C74.7834 94.7988 76.9711 96.4738 77.011 99.1559C77.031 100.634 76.4017 101.751 75.2529 102.44C76.7613 103.185 77.6204 104.455 77.6503 106.173ZM74.9732 106.086C74.9433 104.542 73.7146 103.579 71.7567 103.579C69.7989 103.579 68.6301 104.542 68.6601 106.086C68.6901 107.673 69.8788 108.604 71.8367 108.604C73.7945 108.615 75.0032 107.673 74.9732 106.086ZM68.9997 99.2983C69.0197 100.634 70.0486 101.488 71.7268 101.488C73.4149 101.488 74.4438 100.634 74.4238 99.2983C74.4039 97.886 73.2851 97.0869 71.6568 97.0869C70.0186 97.0869 68.9698 97.897 68.9997 99.2983Z" fill="#263238"/>
<path d="M1.80859 55.4756L3.57667 81.9357" stroke="#B365C0" stroke-width="0.970076" stroke-miterlimit="10" stroke-linecap="round" stroke-linejoin="round"/>
<path d="M1 43.4219L1.46949 50.4064" stroke="#B365C0" stroke-width="0.970076" stroke-miterlimit="10" stroke-linecap="round" stroke-linejoin="round"/>
<path d="M48.4102 17.1147V1" stroke="#B365C0" stroke-width="0.970076" stroke-miterlimit="10" stroke-linecap="round" stroke-linejoin="round"/>
<path d="M36.7739 20.5194L29.4219 6.57227" stroke="#B365C0" stroke-width="0.970076" stroke-miterlimit="10" stroke-linecap="round" stroke-linejoin="round"/>
<path d="M67.3908 6.57227L60.0488 20.5194" stroke="#B365C0" stroke-width="0.970076" stroke-miterlimit="10" stroke-linecap="round" stroke-linejoin="round"/>
<path d="M113.675 125.758C110.809 134.844 102.328 156.258 95.7949 147.346C94.6262 145.759 93.6373 144.029 92.938 142.135C90.161 134.636 89.4818 122.485 89.1322 119.824L86.9046 111.493C86.8646 111.351 86.8446 111.198 86.8446 111.055L86.8047 106.304C86.8047 104.377 88.2231 103.228 90.1411 103.403C90.1411 103.403 93.2377 103.009 93.2377 105.034L93.837 112.172H93.8171C94.1267 114.657 93.2277 118.116 93.7571 120.404C95.745 128.976 98.502 129.36 100.23 138.205C102.637 131.823 106.943 120.777 106.943 120.777C109.85 121.16 114.614 122.758 113.675 125.758Z" fill="#FFB573"/>
<path d="M103.426 150.609C101.479 153.904 97.0833 154.101 94.9656 150.926C93.667 148.988 92.6481 146.854 92.1986 145.233C89.6014 135.906 87.9932 130.115 87.7734 120.372C89.5815 118.313 92.5283 117.536 94.9956 118.5L99.251 134.297C99.251 134.297 107.922 110.705 111.418 109.862C115.553 108.866 117.271 112.905 119.009 117.876C120.258 121.444 109.07 141.062 103.426 150.609Z" fill="#B365C0"/>
<path d="M138.419 86.248C137.44 91.7218 135.242 103.666 138.738 107.322C138.738 107.322 137.37 112.872 128.09 112.872C117.881 112.872 123.215 107.322 123.215 107.322C128.789 105.866 128.639 101.334 127.67 97.0751L138.419 86.248Z" fill="#FFB573"/>
<path d="M122.805 73.3308C122.865 73.3308 122.925 73.3198 122.985 73.287C123.184 73.1775 123.264 72.9148 123.164 72.6958C122.175 70.5392 120.347 70.2874 120.267 70.2764C120.048 70.2436 119.848 70.4187 119.828 70.6596C119.808 70.9004 119.958 71.1194 120.178 71.1413C120.238 71.1522 121.656 71.3602 122.445 73.0899C122.515 73.2432 122.655 73.3308 122.805 73.3308Z" fill="#263238"/>
<path d="M119.759 78.1143C119.759 78.1143 118.261 81.1358 116.822 82.5042C117.611 83.5333 119.17 83.3253 119.17 83.3253L119.759 78.1143Z" fill="#ED893E"/>
<path d="M120.559 76.5156C120.698 77.2381 120.469 77.9169 120.029 78.0154C119.6 78.1139 119.13 77.6103 118.98 76.8878C118.84 76.1653 119.07 75.4865 119.51 75.388C119.949 75.2785 120.419 75.7821 120.559 76.5156Z" fill="#263238"/>
<path d="M119.71 75.3773L118.012 75.2568C118.022 75.2568 119.111 76.4282 119.71 75.3773Z" fill="#263238"/>
<path d="M84.9773 103.009V103.031C84.9773 103.02 84.9668 103.02 84.9668 103.009H84.9773Z" fill="#FFB573"/>
<path opacity="0.2" d="M113.317 121.083C115.085 119.31 116.283 119.835 117.093 121.248C117.902 125.342 113.127 133.925 111.209 137.176L113.317 121.083Z" fill="black"/>
<path d="M154.219 126.481C153.99 130.991 153.6 136.673 152.971 143.822C152.311 151.365 151.372 160.528 150.084 171.661C136.509 171.661 122.294 171.431 115.691 171.431C116.241 156.641 116.45 141.665 110.397 112.227C110.077 110.684 111.006 109.151 112.425 108.866C115.162 108.33 119.707 107.564 124.332 107.323C130.086 107.016 134.801 106.819 139.865 107.323C146.528 107.991 154.1 109.687 154.1 109.687C154.1 109.687 154.939 112.402 154.219 126.481Z" fill="#B365C0"/>
<path opacity="0.2" d="M154.223 126.48C153.993 130.991 153.604 136.673 152.975 143.821C149.319 139.18 145.862 123.196 146.961 117.733C149.658 119.748 152.155 122.846 154.063 125.616C154.123 125.878 154.183 126.163 154.223 126.48Z" fill="black"/>
<path d="M189.476 146.514L196.429 142.223L197.727 150.028C197.727 150.028 191.834 152.502 188.707 150.773L189.476 146.514Z" fill="#FFB573"/>
<path d="M201.095 143.121L201.574 145.671C201.724 146.471 201.424 147.292 200.805 147.752L197.728 150.04L196.43 142.234L198.837 141.577C199.856 141.293 200.885 141.993 201.095 143.121Z" fill="#FFB573"/>
<path d="M147.529 118.73C149.757 123.7 157.938 142.475 161.534 146.81L162.233 147.62L162.583 148.026C162.703 148.157 162.803 148.277 162.992 148.463C163.672 149.164 164.381 149.744 165.11 150.215C166.569 151.178 168.047 151.737 169.465 152.142C172.312 152.919 175.009 153.05 177.637 152.996C182.891 152.766 187.805 151.802 192.72 150.193L191.831 145.628C189.534 145.847 187.106 146 184.769 146.044C182.421 146.11 180.084 146.044 177.826 145.803C175.579 145.584 173.391 145.157 171.533 144.457C170.614 144.095 169.815 143.647 169.216 143.176C168.916 142.935 168.666 142.694 168.477 142.453C168.437 142.42 168.337 142.278 168.247 142.169L167.987 141.829L167.468 141.151C164.711 137.363 157.429 119.102 155.241 114.537L147.529 118.73Z" fill="#FFB573"/>
<path d="M189.363 154.288C183.69 157.638 176.787 158.371 170.634 156.28C164.78 154.288 159.576 149.635 156.559 143.789C152.953 137.976 143.353 121.533 144.552 117.274C145.981 112.195 149.017 109.042 154.092 110.41C157.658 111.363 164.47 130.335 167.757 137.921C169.055 140.034 171.523 143.384 174.29 144.424C179.174 146.274 182.771 145.475 187.895 144.676C188.834 145.289 188.764 146.241 189.233 147.314C190.202 149.471 190.362 152.153 189.363 154.288Z" fill="#B365C0"/>
<path d="M143.452 77.4685C141.924 86.4673 141.444 90.3209 136.739 94.4043C129.657 100.557 119.908 96.5281 118.949 87.2008C118.09 78.8041 120.737 65.4919 129.247 62.9849C137.638 60.5108 144.99 68.4587 143.452 77.4685Z" fill="#FFB573"/>
<path d="M172.599 127.291C171.03 129.251 170.541 130.389 168.363 131.451C166.186 132.513 161.431 131.594 159.922 129.568C160.412 131.145 163.269 133.98 164.767 134.199C161.451 136.323 156.786 135.425 154.319 132.185C154.558 134.101 156.206 135.819 157.875 136.465C138.735 137.013 146.797 127.138 134.81 113.092C121.534 97.5358 124.421 84.6944 124.421 84.6944C124.411 82.472 123.962 78.7827 121.814 75.7831C119.896 73.09 120.455 69.4554 121.065 67.4192C121.954 64.4305 124.661 63.3796 127.258 63.2044C127.717 60.2595 133.212 60.796 133.921 61.2886C134.52 61.7156 134.68 61.6718 135.279 61.2558C136.628 60.3033 140.024 59.3181 143.66 62.5366C145.878 64.5072 148.255 68.0323 148.335 75.5423C148.415 83.3478 145.019 92.6204 156.796 104.477C163.728 111.461 160.412 126.47 172.599 127.291Z" fill="#263238"/>
<path d="M122.845 78.1478C121.836 79.6805 121.547 81.5853 121.766 83.118C122.106 85.4279 124.154 85.5812 125.642 84.1033C126.981 82.7677 128.419 79.9651 127.32 78.0493C126.252 76.1554 123.994 76.3962 122.845 78.1478Z" fill="#FFB573"/>
<path opacity="0.2" d="M125.681 186.879C125.681 186.879 129.118 215.386 131.006 232.278C123.913 222.097 118.489 207.887 125.681 186.879Z" fill="black"/>
<path d="M84.9976 103.087H84.9668L84.9771 103.031C84.9771 103.053 84.9873 103.064 84.9976 103.087Z" fill="#FFB573"/>
<path d="M85.9494 91.1855H86.5187C85.9394 91.1855 85.4998 91.7001 85.5298 92.335L86.4388 111.395C86.4688 112.03 86.9583 112.544 87.5376 112.544H86.9682C86.3889 112.544 85.8994 112.03 85.8694 111.395L84.9604 92.335C84.9305 91.6891 85.37 91.1855 85.9494 91.1855Z" fill="#B365C0"/>
<path opacity="0.1" d="M85.9494 91.1855H86.5187C85.9394 91.1855 85.4998 91.7001 85.5298 92.335L86.4388 111.395C86.4688 112.03 86.9583 112.544 87.5376 112.544H86.9682C86.3889 112.544 85.8994 112.03 85.8694 111.395L84.9604 92.335C84.9305 91.6891 85.37 91.1855 85.9494 91.1855Z" fill="white"/>
<path d="M87.1382 112.533H94.1505C94.7299 112.533 95.1694 112.019 95.1395 111.384L94.2304 92.3243C94.2005 91.6893 93.711 91.1748 93.1316 91.1748H86.1193C85.5399 91.1748 85.1004 91.6893 85.1304 92.3243L86.0394 111.384C86.0693 112.019 86.5688 112.533 87.1382 112.533Z" fill="#B365C0"/>
<path opacity="0.4" d="M87.1382 112.533H94.1505C94.7299 112.533 95.1694 112.019 95.1395 111.384L94.2304 92.3243C94.2005 91.6893 93.711 91.1748 93.1316 91.1748H86.1193C85.5399 91.1748 85.1004 91.6893 85.1304 92.3243L86.0394 111.384C86.0693 112.019 86.5688 112.533 87.1382 112.533Z" fill="white"/>
<path d="M94.7118 110.99C94.7218 111.187 94.6619 111.373 94.542 111.516C94.4221 111.647 94.2523 111.724 94.0725 111.724H87.2699C86.8804 111.724 86.5507 111.373 86.5307 110.946L85.6417 92.4561C85.6317 92.2591 85.6917 92.073 85.8115 91.9416C85.9314 91.7993 86.1012 91.7227 86.281 91.7227H93.0836C93.4732 91.7227 93.8028 92.073 93.8228 92.4999L93.8827 93.8246L94.7118 110.99Z" fill="#263238"/>
<g opacity="0.1">
<path d="M93.8826 93.8246L91.625 111.724H88.918L91.4752 91.7227H93.0834C93.473 91.7227 93.8027 92.073 93.8226 92.4999L93.8826 93.8246Z" fill="white"/>
<path d="M87.9394 111.724H87.3301L89.8873 91.7227H90.4966L87.9394 111.724Z" fill="white"/>
</g>
<path d="M113.49 173.784C108.406 184.709 105.639 196.927 105.469 209.199C122.47 223.639 138.263 206.725 157.702 209.582C157.023 199.959 154.046 182.159 150.5 173.324C137.654 173.915 125.627 172.503 113.49 173.784Z" fill="#B365C0"/>
<path d="M115.258 169.876C115.258 169.876 113.889 173.73 114.279 173.73H149.92C150.23 173.73 150.479 173.565 150.499 173.357L150.809 170.029C150.829 169.799 150.569 169.602 150.23 169.602H115.817C115.557 169.591 115.338 169.701 115.258 169.876Z" fill="white"/>
<path d="M120.284 174.057H119.365C119.185 174.057 119.045 173.958 119.055 173.827L119.485 169.492C119.495 169.36 119.655 169.262 119.844 169.262H120.763C120.943 169.262 121.083 169.36 121.073 169.492L120.643 173.827C120.623 173.947 120.464 174.057 120.284 174.057Z" fill="#B365C0"/>
<path d="M142.618 174.057H141.699C141.519 174.057 141.379 173.958 141.389 173.827L141.819 169.492C141.829 169.36 141.989 169.262 142.178 169.262H143.097C143.277 169.262 143.417 169.36 143.407 169.492L142.977 173.827C142.967 173.947 142.798 174.057 142.618 174.057Z" fill="#B365C0"/>
</svg>
