<svg width="26" height="26" viewBox="0 0 26 26" fill="none" xmlns="http://www.w3.org/2000/svg">
<path fill-rule="evenodd" clip-rule="evenodd" d="M11.3448 0.360795C7.50271 0.827001 4.08958 3.04535 2.07589 6.38513C0.310816 9.31259 -0.155487 12.951 0.809701 16.2644C2.02526 20.4371 5.4202 23.7502 9.60385 24.8465C11.3468 25.3032 13.2116 25.3871 14.9483 25.087C19.9586 24.2211 24.0007 20.3065 25.0426 15.3112C25.2347 14.3906 25.2705 13.9916 25.2705 12.7748C25.2705 11.5581 25.2347 11.1591 25.0426 10.2385C24.72 8.69172 24.1119 7.23257 23.252 5.94214C22.6893 5.09762 22.2903 4.60644 21.6334 3.94957C19.8934 2.20957 17.6956 1.02172 15.3031 0.528196C14.1599 0.292411 12.4904 0.221782 11.3448 0.360795ZM18.832 8.45749C19.2981 8.64909 19.55 9.24962 19.3694 9.73851C19.2952 9.93927 18.8178 10.4374 15.7899 13.4733C13.6619 15.6069 12.2197 17.0162 12.1009 17.0783C11.8537 17.2074 11.4369 17.2147 11.1985 17.0942C10.9715 16.9795 7.52002 13.5416 7.35799 13.2689C6.98997 12.6492 7.42101 11.8212 8.1428 11.7613C8.63915 11.7201 8.65783 11.7339 10.2113 13.2799L11.6385 14.7002L14.7231 11.6208C16.4196 9.92718 17.8626 8.51339 17.9297 8.4791C18.2126 8.33453 18.5153 8.32726 18.832 8.45749Z" fill="#7E007E"/>
</svg>
